<svg xmlns="http://www.w3.org/2000/svg" fill="none" overflow="visible" preserveAspectRatio="none" style="display:block" viewBox="0 0 344 63"><rect width="344" height="63" fill="var(--fill-0, #d5ffcd)" rx="10"/><ellipse cx="138.5" cy="24.5" fill="var(--fill-0, #ffd899)" rx="15.5" ry="13.5"/><path fill="var(--fill-0, #7be17b)" d="M171.857 25.412c28.976-2.717 69.943-14.945 98.918-10.416 28.976 5.434 41.466 7.923 58.952 15.85 17.379 7.88 14.029 9.043 13.988 9.057v15.468C342.65 59.749 338.706 63 334 63H10C4.477 63 0 58.523 0 53V39.903c.005-.025.435-1.774 18.138-9.056 17.832-7.337 38.815-8.605 67.79-12.228 28.977-2.717 56.954 9.51 85.929 6.793"/></svg>