<svg preserveAspectRatio="none" width="100%" height="100%" overflow="visible" style="display: block;" viewBox="0 0 105 53" fill="none" xmlns="http://www.w3.org/2000/svg">
<g id="Vector">
<path d="M46.8072 33.4405C46.8072 42.849 36.3291 50.4762 23.4036 50.4762C10.4782 50.4762 0 42.849 0 33.4405C0 24.0319 10.4782 16.4048 23.4036 16.4048C36.3291 16.4048 46.8072 24.0319 46.8072 33.4405Z" fill="var(--fill-0, white)"/>
<path d="M78.4337 17.0357C78.4337 26.4443 65.9732 34.0714 50.6024 34.0714C35.2316 34.0714 22.7711 26.4443 22.7711 17.0357C22.7711 7.62715 35.2316 0 50.6024 0C65.9732 0 78.4337 7.62715 78.4337 17.0357Z" fill="var(--fill-0, white)"/>
<path d="M105 23.9762C105 33.7332 94.5218 41.6429 81.5964 41.6429C68.6709 41.6429 58.1928 33.7332 58.1928 23.9762C58.1928 14.2192 68.6709 6.30952 81.5964 6.30952C94.5218 6.30952 105 14.2192 105 23.9762Z" fill="var(--fill-0, white)"/>
<path d="M80.9639 35.9643C80.9639 45.3728 70.4857 53 57.5602 53C44.6348 53 34.1566 45.3728 34.1566 35.9643C34.1566 26.5557 44.6348 18.9286 57.5602 18.9286C70.4857 18.9286 80.9639 26.5557 80.9639 35.9643Z" fill="var(--fill-0, white)"/>
</g>
</svg>
