<svg preserveAspectRatio="none" width="100%" height="100%" overflow="visible" style="display: block;" viewBox="0 0 182 92" fill="none" xmlns="http://www.w3.org/2000/svg">
<g id="Vector">
<path d="M81.1325 58.0476C81.1325 74.3795 62.9704 87.619 40.5663 87.619C18.1621 87.619 0 74.3795 0 58.0476C0 41.7158 18.1621 28.4762 40.5663 28.4762C62.9704 28.4762 81.1325 41.7158 81.1325 58.0476Z" fill="var(--fill-0, white)"/>
<path d="M135.952 29.5714C135.952 45.9033 114.354 59.1429 87.7108 59.1429C61.0681 59.1429 39.4699 45.9033 39.4699 29.5714C39.4699 13.2396 61.0681 0 87.7108 0C114.354 0 135.952 13.2396 135.952 29.5714Z" fill="var(--fill-0, white)"/>
<path d="M182 41.619C182 58.5558 163.838 72.2857 141.434 72.2857C119.03 72.2857 100.867 58.5558 100.867 41.619C100.867 24.6823 119.03 10.9524 141.434 10.9524C163.838 10.9524 182 24.6823 182 41.619Z" fill="var(--fill-0, white)"/>
<path d="M140.337 62.4286C140.337 78.7604 122.175 92 99.7711 92C77.367 92 59.2048 78.7604 59.2048 62.4286C59.2048 46.0967 77.367 32.8571 99.7711 32.8571C122.175 32.8571 140.337 46.0967 140.337 62.4286Z" fill="var(--fill-0, white)"/>
</g>
</svg>
