<svg xmlns="http://www.w3.org/2000/svg" fill="none" overflow="visible" preserveAspectRatio="none" style="display:block" viewBox="0 0 182 92"><g fill="var(--fill-0, white)"><path d="M81.133 58.048c0 16.331-18.163 29.571-40.567 29.571S0 74.379 0 58.048s18.162-29.572 40.566-29.572 40.566 13.24 40.566 29.572"/><path d="M135.952 29.571c0 16.332-21.598 29.572-48.241 29.572S39.47 45.903 39.47 29.57C39.47 13.24 61.068 0 87.71 0c26.644 0 48.242 13.24 48.242 29.571"/><path d="M182 41.619c0 16.937-18.162 30.667-40.566 30.667s-40.567-13.73-40.567-30.667 18.163-30.667 40.567-30.667S182 24.682 182 41.62"/><path d="M140.337 62.429C140.337 78.76 122.175 92 99.771 92S59.205 78.76 59.205 62.429 77.367 32.857 99.77 32.857s40.566 13.24 40.566 29.572"/></g></svg>