<svg xmlns="http://www.w3.org/2000/svg" fill="none" overflow="visible" preserveAspectRatio="none" style="display:block" viewBox="0 0 105 53"><g fill="var(--fill-0, white)"><path d="M46.807 33.44c0 9.409-10.478 17.036-23.403 17.036C10.478 50.476 0 42.85 0 33.441c0-9.41 10.478-17.036 23.404-17.036s23.403 7.627 23.403 17.036"/><path d="M78.434 17.036c0 9.408-12.46 17.035-27.832 17.035-15.37 0-27.83-7.627-27.83-17.035S35.231 0 50.601 0s27.832 7.627 27.832 17.036"/><path d="M105 23.976c0 9.757-10.478 17.667-23.404 17.667s-23.403-7.91-23.403-17.667S68.67 6.31 81.596 6.31 105 14.22 105 23.976"/><path d="M80.964 35.964C80.964 45.373 70.486 53 57.56 53s-23.403-7.627-23.403-17.036c0-9.408 10.478-17.035 23.403-17.035 12.926 0 23.404 7.627 23.404 17.035"/></g></svg>