<svg preserveAspectRatio="none" width="100%" height="100%" overflow="visible" style="display: block;" viewBox="0 0 16 17.9994" fill="none" xmlns="http://www.w3.org/2000/svg">
<path id="Vector" d="M15.622 0.21696C15.7399 0.310602 15.8351 0.429651 15.9005 0.565228C15.966 0.700805 16 0.849411 16 0.99996V12.667C16 12.707 15.9977 12.7473 15.993 12.788C15.9977 12.858 16 12.9286 16 13C15.9997 13.6367 15.7967 14.2569 15.4206 14.7706C15.0444 15.2844 14.5145 15.6652 13.9076 15.8578C13.3007 16.0504 12.6482 16.045 12.0446 15.8422C11.441 15.6394 10.9176 15.2498 10.5501 14.7298C10.1826 14.2098 9.99005 13.5863 10.0004 12.9497C10.0107 12.313 10.2234 11.6961 10.6076 11.1883C10.9918 10.6805 11.5276 10.3081 12.1375 10.1251C12.7473 9.94198 13.3997 9.95771 14 10.17V6.25996L6 8.12696V15.003C5.99924 15.6396 5.79595 16.2596 5.41953 16.773C5.04312 17.2865 4.5131 17.6669 3.90616 17.8593C3.29923 18.0516 2.64684 18.0458 2.0434 17.8428C1.43996 17.6398 0.916756 17.25 0.54948 16.73C0.182205 16.2099 -0.0100929 15.5865 0.00040831 14.9499C0.0109095 14.3133 0.223665 13.6966 0.607894 13.1889C0.992123 12.6812 1.5279 12.309 2.13771 12.126C2.74752 11.943 3.39973 11.9587 4 12.171V3.33296C3.99997 3.10719 4.07635 2.88805 4.2167 2.7112C4.35705 2.53436 4.55312 2.41021 4.773 2.35896L14.773 0.02596C14.9183 -0.00781685 15.0694 -0.0086435 15.2151 0.0235408C15.3608 0.0557251 15.4974 0.120104 15.615 0.21196L15.622 0.21696Z" fill="var(--fill-0, #424242)"/>
</svg>
