<svg xmlns="http://www.w3.org/2000/svg" fill="none" overflow="visible" preserveAspectRatio="none" style="display:block" viewBox="0 0 24 24"><path stroke="var(--stroke-0, #424242)" stroke-linecap="round" stroke-linejoin="round" stroke-width="2" d="M4.312 19.883A5.5 5.5 0 0 1 9.8 14.75h4.4a5.5 5.5 0 0 1 5.487 5.121M12 23c6.075 0 11-4.925 11-11S18.075 1 12 1 1 5.925 1 12s4.925 11 11 11m0-11.55a2.75 2.75 0 1 0 0-5.5 2.75 2.75 0 0 0 0 5.5m-3.058 9.746a2.75 2.75 0 1 0 0-5.5 2.75 2.75 0 0 0 0 5.5m3.168 0a2.75 2.75 0 1 0 0-5.5 2.75 2.75 0 0 0 0 5.5m3.168 0a2.75 2.75 0 1 0 0-5.5 2.75 2.75 0 0 0 0 5.5" opacity=".9"/></svg>