<svg preserveAspectRatio="none" width="100%" height="100%" overflow="visible" style="display: block;" viewBox="0 0 32 32" fill="none" xmlns="http://www.w3.org/2000/svg">
<g id="Group">
<g id="Vector">
</g>
<path id="Vector_2" fill-rule="evenodd" clip-rule="evenodd" d="M20.9427 15.0573C21.1926 15.3074 21.333 15.6464 21.333 16C21.333 16.3536 21.1926 16.6926 20.9427 16.9427L13.4 24.4853C13.277 24.6127 13.1299 24.7143 12.9672 24.7841C12.8045 24.854 12.6296 24.8908 12.4525 24.8923C12.2755 24.8939 12.0999 24.8601 11.9361 24.7931C11.7722 24.7261 11.6233 24.627 11.4981 24.5019C11.3729 24.3767 11.2739 24.2278 11.2069 24.0639C11.1399 23.9001 11.1061 23.7245 11.1077 23.5475C11.1092 23.3704 11.146 23.1955 11.2159 23.0328C11.2857 22.8701 11.3873 22.723 11.5147 22.6L18.1147 16L11.5147 9.4C11.2718 9.14853 11.1374 8.81173 11.1404 8.46213C11.1435 8.11254 11.2837 7.77812 11.5309 7.53091C11.7781 7.2837 12.1125 7.14347 12.4621 7.14044C12.8117 7.1374 13.1485 7.27179 13.4 7.51467L20.9427 15.0573Z" fill="var(--fill-0, #424242)" stroke="var(--stroke-0, #424242)"/>
</g>
</svg>
