<svg xmlns="http://www.w3.org/2000/svg" fill="none" overflow="visible" preserveAspectRatio="none" style="display:block" viewBox="0 0 30 29"><path fill="var(--fill-0, black)" fill-rule="evenodd" d="M0 12.429C0 5.436 6.858 0 15 0s15 5.436 15 12.429-6.858 12.429-15 12.429q-.96 0-1.886-.097l-6.619 4.136a.676.676 0 0 1-.985-.314.7.7 0 0 1-.046-.388l.93-5.582C2.57 20.393 0 16.69 0 12.43m3.75-2.762c0-.275.108-.538.3-.733.191-.194.451-.303.723-.303h4.09c.272 0 .532.11.724.303a1.04 1.04 0 0 1 0 1.465 1.02 1.02 0 0 1-.723.304H7.84v5.178c0 .275-.108.538-.3.733a1.016 1.016 0 0 1-1.446 0 1.04 1.04 0 0 1-.3-.733v-5.178H4.773c-.272 0-.532-.11-.723-.304a1.04 1.04 0 0 1-.3-.732m9.135-.376a1.03 1.03 0 0 0-.376-.48 1.01 1.01 0 0 0-1.155 0c-.17.119-.3.286-.375.48l-2.387 6.215a1.05 1.05 0 0 0 .246 1.123 1.02 1.02 0 0 0 .73.288 1 1 0 0 0 .716-.32q.14-.148.215-.34l.276-.721h2.313l.277.72c.085.226.245.413.453.532a1.01 1.01 0 0 0 1.282-.233c.154-.184.24-.416.242-.657.005.271.114.53.305.721s.448.298.717.298h2.727c.271 0 .531-.11.723-.303.192-.195.3-.458.3-.733 0 .275.107.538.3.733a1.016 1.016 0 0 0 1.445 0c.192-.195.3-.458.3-.733v-1.643l.257-.258 2.012 2.549a1.03 1.03 0 0 0 .686.382 1 1 0 0 0 .753-.22 1.03 1.03 0 0 0 .377-.696 1.05 1.05 0 0 0-.218-.761l-2.155-2.728L25.95 10.4a1.043 1.043 0 0 0-.025-1.439 1.016 1.016 0 0 0-1.42-.025l-2.346 2.375V9.667c0-.275-.108-.538-.3-.733a1.016 1.016 0 0 0-1.446 0c-.192.195-.3.458-.3.733v6.214c0-.274-.107-.538-.299-.732a1.02 1.02 0 0 0-.723-.303h-1.705v-5.18a1.04 1.04 0 0 0-.3-.732 1.016 1.016 0 0 0-1.445 0c-.192.195-.3.458-.3.733v6.19a1.1 1.1 0 0 0-.07-.351zm-.953 3.234.361.94h-.723l.362-.938z" clip-rule="evenodd"/></svg>