<svg xmlns="http://www.w3.org/2000/svg" fill="none" overflow="visible" preserveAspectRatio="none" style="display:block" viewBox="0 0 153.507 77.164"><path fill="var(--fill-0, white)" d="M76.418 0C59.875 0 47.016 0 37.006.594c-10.124.605-18.142 1.86-24.54 4.693-6.568 2.912-9.639 6.7-11.088 11.476C0 21.322 0 27.123 0 34.357v.724c0 7.052 0 11.931 1.428 15.568.771 1.959 1.985 3.66 3.891 5.236 1.885 1.55 4.284 2.857 7.147 4.123 4.506 1.999 9.818 3.206 16.093 3.957V74.2c.001.52.249 1.03.718 1.48.469.451 1.143.825 1.955 1.086.812.26 1.733.398 2.671.4a8.9 8.9 0 0 0 2.675-.394c4.184-1.326 7.89-2.77 11.28-4.131l2.171-.875a191 191 0 0 1 7.397-2.889c6.026-2.168 11.78-3.581 19.328-3.581h.335c16.543 0 29.402 0 39.412-.594 10.125-.605 18.143-1.86 24.54-4.693 2.856-1.266 5.262-2.572 7.14-4.123 1.914-1.575 3.127-3.277 3.898-5.236 1.428-3.637 1.428-8.516 1.428-15.568v-.724c0-7.234 0-13.035-1.378-17.59-1.449-4.78-4.519-8.568-11.088-11.48-6.397-2.837-14.415-4.088-24.54-4.69C106.491 0 93.632 0 77.089 0z"/></svg>