<svg preserveAspectRatio="none" width="100%" height="100%" overflow="visible" style="display: block;" viewBox="0 0 24 24" fill="none" xmlns="http://www.w3.org/2000/svg">
<g id="Group">
<g id="Vector">
</g>
<path id="Vector_2" fill-rule="evenodd" clip-rule="evenodd" d="M15.707 11.293C15.8945 11.4805 15.9998 11.7348 15.9998 12C15.9998 12.2652 15.8945 12.5195 15.707 12.707L10.05 18.364C9.95775 18.4595 9.84741 18.5357 9.7254 18.5881C9.6034 18.6405 9.47218 18.6681 9.3394 18.6693C9.20662 18.6704 9.07494 18.6451 8.95205 18.5948C8.82915 18.5445 8.7175 18.4703 8.6236 18.3764C8.52971 18.2825 8.45546 18.1709 8.40518 18.048C8.3549 17.9251 8.3296 17.7934 8.33075 17.6606C8.3319 17.5278 8.35949 17.3966 8.4119 17.2746C8.46431 17.1526 8.54049 17.0422 8.636 16.95L13.586 12L8.636 7.05C8.45384 6.8614 8.35305 6.6088 8.35533 6.3466C8.3576 6.0844 8.46277 5.83359 8.64818 5.64818C8.83359 5.46277 9.0844 5.3576 9.3466 5.35533C9.6088 5.35305 9.8614 5.45384 10.05 5.636L15.707 11.293Z" fill="var(--fill-0, #424242)"/>
</g>
</svg>
