<svg preserveAspectRatio="none" width="100%" height="100%" overflow="visible" style="display: block;" viewBox="0 0 28.9756 21.0619" fill="none" xmlns="http://www.w3.org/2000/svg">
<g id="Vector">
<path d="M7.04748 20.1669C5.3324 20.1669 3.8726 19.5683 2.6681 18.3711C1.46269 17.1758 0.859978 15.7197 0.859978 14.0027C0.859978 12.427 1.39852 11.0286 2.4756 9.80761C3.55269 8.58661 4.89148 7.93074 6.49198 7.83999C6.8009 5.83707 7.72214 4.18249 9.25573 2.87624C10.7893 1.56999 12.5741 0.916862 14.61 0.916862C16.9035 0.916862 18.8519 1.71849 20.4551 3.32174C22.0584 4.92499 22.86 6.87336 22.86 9.16686V10.5419H23.707C25.0233 10.584 26.1279 11.0676 27.0207 11.9925C27.9136 12.9174 28.36 14.038 28.36 15.3544C28.36 16.7028 27.8952 17.8422 26.9657 18.7726C26.0344 19.7021 24.895 20.1669 23.5475 20.1669H7.04748Z" fill="var(--fill-0, #91CCFF)" fill-opacity="0.8"/>
<path d="M6.66219 20.2476L6.55962 19.7583L6.66219 20.2476ZM6.46955 20.288L6.57212 20.7774L6.46955 20.288ZM6.11527 20.1708L5.76626 20.5289L6.11527 20.1708ZM5.95363 20.0133L6.30264 19.6552L5.95363 20.0133ZM5.79199 19.8557L6.141 19.4977L5.79199 19.8557ZM5.41908 19.7584L5.28204 19.2775L5.41908 19.7584ZM5.20779 19.8186L5.07076 19.3377L5.20779 19.8186ZM4.99651 19.8788L5.13355 20.3596L4.99651 19.8788ZM4.5864 19.9037L4.49901 20.396L4.5864 19.9037ZM4.18875 19.8331L4.27614 19.3408L4.18875 19.8331ZM3.87522 19.6161L3.45243 19.8831L3.87522 19.6161ZM3.64582 19.2528L4.06861 18.9859L3.64582 19.2528ZM3.38782 18.9517L3.06762 19.3357L3.38782 18.9517ZM3.1012 18.7127L3.4214 18.3287L3.1012 18.7127ZM2.76058 18.5203L2.58738 18.9894L2.76058 18.5203ZM2.36595 18.3746L2.19275 18.8436L2.36595 18.3746ZM2.07387 18.1283L2.51263 17.8886L2.07387 18.1283ZM1.88434 17.7815L1.44558 18.0213L1.88434 17.7815ZM1.81628 17.3761L1.31956 17.3189L1.81628 17.3761ZM1.84298 17.144L2.3397 17.2012L1.84298 17.144ZM1.86967 16.912L1.37295 16.8548L1.86967 16.912ZM1.63692 16.5909L1.47455 17.0638L1.63692 16.5909ZM0.77095 15.3172L1.1971 15.0557L0.77095 15.3172ZM0.660064 15.1366L0.233918 15.3981L0.660064 15.1366ZM0.549178 14.9559L0.123032 15.2174L0.549178 14.9559ZM0.577489 14.576L0.167627 14.2896L0.577489 14.576ZM0.855884 14.1776L1.26575 14.4639L0.855884 14.1776ZM0.966245 13.7904L0.472029 13.8662L0.966245 13.7904ZM0.821142 11.8139L0.322101 11.8448L0.821142 11.8139ZM1.0829 11.5202L0.939643 11.0411L1.0829 11.5202ZM1.63266 11.3557L1.77592 11.8348L1.63266 11.3557ZM1.82352 11.0007L1.34567 11.1479L1.82352 11.0007ZM1.78146 10.0997L1.59849 9.63443L1.78146 10.0997ZM1.99145 10.0172L1.80848 9.55186L1.99145 10.0172ZM2.20145 9.93461L2.01848 9.46928L2.20145 9.93461ZM2.49725 9.66823L2.95031 9.87974L2.49725 9.66823ZM2.58306 9.48442L3.03612 9.69594L2.58306 9.48442ZM2.66887 9.30062L2.21581 9.08911L2.66887 9.30062ZM3.5159 9.1732L3.55284 8.67457L3.5159 9.1732ZM3.81232 8.90043L3.31759 8.82801L3.81232 8.90043ZM4.14918 8.00425L4.20032 8.50163L4.14918 8.00425ZM4.5668 7.96132L4.51566 7.46394L4.5668 7.96132ZM4.96902 7.91292L5.03798 8.40814L4.96902 7.91292ZM5.16243 7.88598L5.09347 7.39076L5.16243 7.88598ZM5.35585 7.85905L5.28688 7.36383L5.35585 7.85905ZM5.73698 7.78444L5.6139 7.29982L5.73698 7.78444ZM6.4712 7.57092L6.28071 7.10863L6.4712 7.57092ZM6.81327 7.42997L7.00376 7.89226L6.81327 7.42997ZM6.92378 7.15327L6.44402 7.29407L6.92378 7.15327ZM6.80274 6.74082L7.2825 6.60002L6.80274 6.74082ZM6.79867 6.35391L6.32143 6.20479L6.79867 6.35391ZM6.91159 5.99254L7.38883 6.14166L6.91159 5.99254ZM7.17184 5.707L6.94309 5.26239L7.17184 5.707ZM7.37563 5.60214L7.60439 6.04675L7.37563 5.60214ZM7.57943 5.49729L7.80818 5.94189L7.57943 5.49729ZM7.7225 5.13903L8.20873 5.02251L7.7225 5.13903ZM7.60104 4.63223L7.11481 4.74876L7.60104 4.63223ZM7.70277 4.26185L7.99494 4.6676L7.70277 4.26185ZM8.71784 3.64047L8.4898 3.1955L8.71784 3.64047ZM8.96365 3.35141L8.49194 3.18562L8.96365 3.35141ZM9.03356 3.1525L9.50528 3.31829L9.03356 3.1525ZM9.10347 2.95359L9.57519 3.11937L9.10347 2.95359ZM9.31889 2.63083L8.99482 2.25007L9.31889 2.63083ZM9.60991 2.38315L9.93397 2.76391L9.60991 2.38315ZM9.99977 2.29849L10.0789 1.8048L9.99977 2.29849ZM10.796 2.13394L10.308 2.02473L10.796 2.13394ZM11.2345 1.40362L11.0235 1.85693L11.2345 1.40362ZM11.4837 1.51958L11.2727 1.97288L11.4837 1.51958ZM11.7328 1.63553L11.9438 1.18223L11.7328 1.63553ZM12.1448 1.67044L12.3676 2.11809L12.1448 1.67044ZM12.4706 1.50834L12.6934 1.95599L12.4706 1.50834ZM12.7836 1.20797L13.1963 1.49033L12.7836 1.20797ZM13.0838 0.769348L12.6711 0.486991L13.0838 0.769348ZM14.2141 0.659811L13.8787 1.03063L14.2141 0.659811ZM14.4071 0.834387L14.7425 0.463569L14.4071 0.834387ZM14.6001 1.00896L14.2647 1.37978L14.6001 1.00896ZM14.9818 1.1259L15.1279 1.60408L14.9818 1.1259ZM15.1705 1.06826L15.0244 0.590072L15.1705 1.06826ZM15.3592 1.01061L15.5052 1.4888L15.3592 1.01061ZM16.1086 1.01501L16.0536 1.51198L16.1086 1.01501ZM16.4692 1.11174L16.6697 0.653698L16.4692 1.11174ZM16.8167 1.26384L17.0172 0.805797L16.8167 1.26384ZM17.1558 1.42402L16.9292 1.86969L17.1558 1.42402ZM17.3213 1.50815L17.5479 1.06248L17.3213 1.50815ZM17.799 1.78919L18.1035 1.39263L17.799 1.78919ZM18.0927 2.01474L17.7882 2.4113L18.0927 2.01474ZM18.4826 2.08073L18.5771 2.57172L18.4826 2.08073ZM18.9687 1.98716L18.8742 1.49617L18.9687 1.98716ZM19.3325 2.10045L19.7317 1.79947L19.3325 2.10045ZM19.5738 2.4206L19.1745 2.72158L19.5738 2.4206ZM19.9049 2.6313L19.788 3.11743L19.9049 2.6313ZM20.1154 2.68193L20.2323 2.19579L20.1154 2.68193ZM20.3259 2.73255L20.2089 3.21869L20.3259 2.73255ZM20.5704 3.01747L21.0652 2.94545L20.5704 3.01747ZM20.6045 3.25177L20.1098 3.32379L20.6045 3.25177ZM20.6387 3.48606L20.1439 3.55808L20.6387 3.48606ZM20.8188 3.84131L21.1377 3.45621L20.8188 3.84131ZM20.9649 3.96227L20.646 4.34737L20.9649 3.96227ZM21.1109 4.08323L20.792 4.46832V4.46832L21.1109 4.08323ZM21.3659 4.35752L21.7736 4.06808L21.3659 4.35752ZM21.4747 4.51086L21.067 4.80029L21.4747 4.51086ZM21.5836 4.66419L21.9913 4.37476L21.5836 4.66419ZM21.8381 4.95492L22.1812 4.59115L21.8381 4.95492ZM22.1295 5.22971L21.7865 5.59348L22.1295 5.22971ZM22.3308 5.55336L21.8517 5.69627L22.3308 5.55336ZM22.3863 5.73961L22.8655 5.5967L22.3863 5.73961ZM22.4419 5.92587L22.921 5.78295L22.4419 5.92587ZM22.5325 6.301L22.0409 6.3923L22.5325 6.301ZM22.6027 6.67876L23.0943 6.58746L22.6027 6.67876ZM22.6647 7.05474L22.1698 7.12603L22.6647 7.05474ZM22.6917 7.24184L22.1968 7.31314L22.6917 7.24184ZM22.7186 7.42895L23.2135 7.35766L22.7186 7.42895ZM22.8786 7.98125L22.4087 8.15231L22.8786 7.98125ZM22.945 8.16384L23.4149 7.99278L22.945 8.16384ZM23.0602 8.5372L23.5447 8.41364L23.0602 8.5372ZM23.198 9.29752L22.6984 9.27587L23.198 9.29752ZM23.1898 9.48556L22.6903 9.46391L23.1898 9.48556ZM23.1817 9.6736L23.6812 9.69525L23.1817 9.6736ZM23.1126 9.97591L22.6714 9.74064L23.1126 9.97591ZM22.9907 10.2045L23.4319 10.4397L22.9907 10.2045ZM23.1173 10.4596L22.8169 10.8594L23.1173 10.4596ZM23.4923 10.7414L23.7926 10.3417L23.4923 10.7414ZM23.8571 10.8695L23.8929 11.3682L23.8571 10.8695ZM24.2117 10.844L24.1758 10.3453L24.2117 10.844ZM24.6025 10.7548L24.771 11.2256L24.6025 10.7548ZM25.0294 10.602L24.8609 10.1313L25.0294 10.602ZM25.4266 10.6027L25.6202 10.1417L25.4266 10.6027ZM25.6104 10.6799L25.804 10.2189L25.6104 10.6799ZM25.7941 10.7571L25.6005 11.2181L25.7941 10.7571ZM26.0922 11.0112L26.5121 10.7398L26.0922 11.0112ZM26.2065 11.1881L26.6265 10.9167L26.2065 11.1881ZM26.3209 11.365L25.901 11.6364L26.3209 11.365ZM26.5465 11.6914L26.1453 11.9899L26.5465 11.6914ZM26.7689 11.9903L26.3677 12.2888L26.7689 11.9903ZM26.9779 12.2902L27.397 12.0176L26.9779 12.2902ZM27.1735 12.591L26.7543 12.8636L27.1735 12.591ZM27.3406 12.9023L26.8814 13.1001L27.3406 12.9023ZM27.4099 13.0632L27.8691 12.8655L27.4099 13.0632ZM27.6514 13.5327L27.2411 13.8186L27.6514 13.5327ZM27.8573 13.8283L28.2675 13.5424L27.8573 13.8283ZM27.9812 14.1535L27.4846 14.212L27.9812 14.1535ZM28.0021 14.3308L27.5056 14.3894L28.0021 14.3308ZM28.023 14.5082L28.5196 14.4497L28.023 14.5082ZM28.0017 14.8629L27.5153 14.7468L28.0017 14.8629ZM27.9171 15.2174L28.4034 15.3334L27.9171 15.2174ZM28.004 15.5856L27.5899 15.8658L28.004 15.5856ZM28.2625 15.9676L28.6766 15.6874L28.2625 15.9676ZM28.4446 16.5742L28.9406 16.5111L28.4446 16.5742ZM28.4711 16.7821L27.9751 16.8452L28.4711 16.7821ZM28.3708 17.1524L28.7651 17.4598L28.3708 17.1524ZM28.2441 17.3149L27.8498 17.0075L28.2441 17.3149ZM28.1174 17.4775L27.723 17.1701L28.1174 17.4775ZM27.8772 17.7962L27.4727 17.5024V17.5024L27.8772 17.7962ZM27.6503 18.1086L28.0549 18.4024L27.6503 18.1086ZM27.4251 18.4225L27.0172 18.1334L27.4251 18.4225ZM27.2016 18.7379L27.6095 19.027L27.2016 18.7379ZM26.9462 19.0265L26.6094 18.6569V18.6569L26.9462 19.0265ZM26.8025 19.1573L27.1393 19.5269L26.8025 19.1573ZM26.6589 19.2882L26.3222 18.9186L26.6589 19.2882ZM26.2918 19.4096L26.3129 18.9101L26.2918 19.4096ZM26.0682 19.4002L26.0471 19.8997L26.0682 19.4002ZM25.8447 19.3907L25.8659 18.8912L25.8447 19.3907ZM25.4925 19.5503L25.8903 19.8532L25.4925 19.5503ZM25.2351 19.8884L25.6329 20.1913L25.2351 19.8884ZM24.9156 20.0764L24.9649 20.5739L24.9156 20.0764ZM24.534 20.1142L24.4847 19.6166L24.534 20.1142ZM24.1557 20.156L24.0951 19.6597L24.1557 20.156ZM23.4053 20.2079L23.4499 19.7099L23.4053 20.2079ZM23.2177 20.1911L23.1731 20.6891L23.2177 20.1911ZM23.0301 20.1743L22.9855 20.6723L23.0301 20.1743ZM22.6549 20.073L22.8603 19.6172L22.6549 20.073ZM22.2799 19.9041L22.0745 20.3599L22.2799 19.9041ZM20.4049 19.7523L20.3767 19.2531L20.4049 19.7523ZM20.0299 19.7735L20.0017 19.2743L20.0299 19.7735ZM19.6549 19.886L19.8936 20.3254L19.6549 19.886ZM19.2799 20.0897L19.0412 19.6504L19.2799 20.0897ZM18.9049 20.2744L18.7028 19.8171L18.9049 20.2744ZM18.5299 20.4402L18.3278 19.9828L18.5299 20.4402ZM18.1549 20.5222L18.157 20.0222L18.1549 20.5222ZM17.9674 20.5214L17.9653 21.0214L17.9674 20.5214ZM17.7799 20.5206L17.7778 21.0206L17.7799 20.5206ZM17.4049 20.5335L17.4413 21.0322L17.4049 20.5335ZM17.0299 20.5609L17.0663 21.0596L17.0299 20.5609ZM16.6549 20.3784L17.0164 20.033L16.6549 20.3784ZM16.2799 19.9859L15.9184 20.3314L16.2799 19.9859ZM15.9049 19.864L16.089 20.3289L15.9049 19.864ZM15.5299 20.0124L15.3459 19.5475L15.5299 20.0124ZM14.4049 19.9658L14.5707 20.4375L14.4049 19.9658ZM14.0299 20.0976L13.8642 19.6258L14.0299 20.0976ZM13.6549 20.1339L13.577 20.6278L13.6549 20.1339ZM13.4674 20.1043L13.5453 19.6104L13.4674 20.1043ZM12.9049 20.1794L12.6139 19.7727L12.9049 20.1794ZM12.5299 20.4477L12.8209 20.8543L12.5299 20.4477ZM11.4049 19.8876L11.7264 20.2705L11.4049 19.8876ZM11.0299 20.2024L11.3514 20.5853L11.0299 20.2024ZM10.6549 20.3037L10.5113 20.7826L10.6549 20.3037ZM9.90491 20.1157L9.85363 20.613L9.90491 20.1157ZM9.52991 20.077L9.58119 19.5797L9.52991 20.077ZM9.15491 20.1883L9.44078 20.5986L9.15491 20.1883ZM8.96741 20.319L8.68154 19.9088L8.96741 20.319ZM8.77991 20.4497L9.06578 20.8599L8.77991 20.4497ZM8.40491 20.4737L8.15773 20.9083L8.40491 20.4737ZM8.02991 20.2604L8.27709 19.8258L8.02991 20.2604ZM7.65491 20.137L7.61037 20.635L7.65491 20.137ZM7.08117 20.1067L7.51733 20.3512L7.08117 20.1067ZM7.05871 20.1468L6.62256 19.9023L7.05871 20.1468ZM6.85484 20.2072L6.95741 20.6966L6.85484 20.2072ZM6.66219 20.2476L6.55962 19.7583L6.36698 19.7986L6.46955 20.288L6.57212 20.7774L6.76476 20.737L6.66219 20.2476ZM6.46955 20.288L6.36698 19.7986C6.37402 19.7972 6.38532 19.7957 6.39976 19.7964C6.41435 19.7971 6.42871 19.7999 6.44167 19.8042C6.46818 19.813 6.47507 19.8233 6.46428 19.8128L6.11527 20.1708L5.76626 20.5289C5.97291 20.7303 6.25469 20.8439 6.57212 20.7774L6.46955 20.288ZM6.11527 20.1708L6.46428 19.8128L6.30264 19.6552L5.95363 20.0133L5.60462 20.3713L5.76626 20.5289L6.11527 20.1708ZM5.95363 20.0133L6.30264 19.6552L6.141 19.4977L5.79199 19.8557L5.44299 20.2137L5.60462 20.3713L5.95363 20.0133ZM5.79199 19.8557L6.141 19.4977C5.9093 19.2718 5.60099 19.1866 5.28204 19.2775L5.41908 19.7584L5.55611 20.2392C5.55286 20.2401 5.52751 20.2457 5.49166 20.2364C5.45655 20.2272 5.44048 20.2113 5.44299 20.2137L5.79199 19.8557ZM5.41908 19.7584L5.28204 19.2775L5.07076 19.3377L5.20779 19.8186L5.34483 20.2994L5.55611 20.2392L5.41908 19.7584ZM5.20779 19.8186L5.07076 19.3377L4.85948 19.3979L4.99651 19.8788L5.13355 20.3596L5.34483 20.2994L5.20779 19.8186ZM4.99651 19.8788L4.85948 19.3979C4.78507 19.4191 4.72524 19.4205 4.6738 19.4114L4.5864 19.9037L4.49901 20.396C4.71268 20.4339 4.92625 20.4187 5.13355 20.3596L4.99651 19.8788ZM4.5864 19.9037L4.6738 19.4114L4.47497 19.3761L4.38757 19.8684L4.30018 20.3607L4.49901 20.396L4.5864 19.9037ZM4.38757 19.8684L4.47497 19.3761L4.27614 19.3408L4.18875 19.8331L4.10135 20.3254L4.30018 20.3607L4.38757 19.8684ZM4.18875 19.8331L4.27614 19.3408C4.27545 19.3407 4.27774 19.341 4.28201 19.3428C4.28637 19.3445 4.29108 19.347 4.29547 19.3501C4.29981 19.3531 4.30227 19.3555 4.30294 19.3562C4.30352 19.3568 4.30164 19.355 4.298 19.3492L3.87522 19.6161L3.45243 19.8831C3.59861 20.1146 3.82061 20.2756 4.10135 20.3254L4.18875 19.8331ZM3.87522 19.6161L4.298 19.3492L4.18331 19.1675L3.76052 19.4345L3.33774 19.7014L3.45243 19.8831L3.87522 19.6161ZM3.76052 19.4345L4.18331 19.1675L4.06861 18.9859L3.64582 19.2528L3.22304 19.5197L3.33774 19.7014L3.76052 19.4345ZM3.64582 19.2528L4.06861 18.9859C3.96841 18.8272 3.8492 18.6853 3.70801 18.5676L3.38782 18.9517L3.06762 19.3357C3.11752 19.3773 3.17031 19.4362 3.22304 19.5197L3.64582 19.2528ZM3.38782 18.9517L3.70801 18.5676L3.5647 18.4481L3.24451 18.8322L2.92432 19.2162L3.06762 19.3357L3.38782 18.9517ZM3.24451 18.8322L3.5647 18.4481L3.4214 18.3287L3.1012 18.7127L2.78101 19.0967L2.92432 19.2162L3.24451 18.8322ZM3.1012 18.7127L3.4214 18.3287C3.27687 18.2081 3.11207 18.1171 2.93378 18.0513L2.76058 18.5203L2.58738 18.9894C2.67217 19.0207 2.73446 19.0579 2.78101 19.0967L3.1012 18.7127ZM2.76058 18.5203L2.93378 18.0513L2.73646 17.9784L2.56326 18.4475L2.39006 18.9165L2.58738 18.9894L2.76058 18.5203ZM2.56326 18.4475L2.73646 17.9784L2.53915 17.9056L2.36595 18.3746L2.19275 18.8436L2.39006 18.9165L2.56326 18.4475ZM2.36595 18.3746L2.53915 17.9056C2.52225 17.8993 2.5167 17.8945 2.51657 17.8944C2.51623 17.8941 2.51608 17.8939 2.51581 17.8936C2.51551 17.8932 2.51438 17.8918 2.51263 17.8886L2.07387 18.1283L1.63511 18.3681C1.76013 18.5969 1.95582 18.7562 2.19275 18.8436L2.36595 18.3746ZM2.07387 18.1283L2.51263 17.8886L2.41787 17.7152L1.97911 17.9549L1.54035 18.1947L1.63511 18.3681L2.07387 18.1283ZM1.97911 17.9549L2.41787 17.7152L2.3231 17.5418L1.88434 17.7815L1.44558 18.0213L1.54035 18.1947L1.97911 17.9549ZM1.88434 17.7815L2.3231 17.5418C2.31795 17.5323 2.3048 17.5045 2.313 17.4332L1.81628 17.3761L1.31956 17.3189C1.29216 17.557 1.32439 17.7995 1.44558 18.0213L1.88434 17.7815ZM1.81628 17.3761L2.313 17.4332L2.3397 17.2012L1.84298 17.144L1.34625 17.0869L1.31956 17.3189L1.81628 17.3761ZM1.84298 17.144L2.3397 17.2012L2.3664 16.9691L1.86967 16.912L1.37295 16.8548L1.34625 17.0869L1.84298 17.144ZM1.86967 16.912L2.3664 16.9691C2.38689 16.791 2.35464 16.5947 2.22968 16.4223C2.11128 16.2589 1.94683 16.1686 1.79929 16.118L1.63692 16.5909L1.47455 17.0638C1.49997 17.0725 1.4608 17.0654 1.41999 17.0091C1.39926 16.9805 1.38498 16.9481 1.37769 16.9162C1.37071 16.8857 1.37194 16.8636 1.37295 16.8548L1.86967 16.912ZM1.63692 16.5909L1.79929 16.118L1.53984 16.0289L1.37747 16.5018L1.2151 16.9747L1.47455 17.0638L1.63692 16.5909ZM1.37747 16.5018L1.53984 16.0289L1.28038 15.9398L1.11801 16.4127L0.955644 16.8856L1.2151 16.9747L1.37747 16.5018ZM1.11801 16.4127L1.28038 15.9398C1.2454 15.9278 1.26963 15.9283 1.30429 15.9686C1.32283 15.9902 1.33991 16.0184 1.3512 16.0514C1.36232 16.084 1.36472 16.1122 1.36418 16.1313L0.86438 16.1172L0.364579 16.1031C0.359368 16.288 0.417016 16.4703 0.545469 16.6199C0.664671 16.7588 0.817662 16.8382 0.955644 16.8856L1.11801 16.4127ZM0.86438 16.1172L1.36418 16.1313L1.37 15.9249L0.870199 15.9108L0.370397 15.8967L0.364579 16.1031L0.86438 16.1172ZM0.870199 15.9108L1.37 15.9249L1.37582 15.7184L0.876017 15.7043L0.376216 15.6903L0.370397 15.8967L0.870199 15.9108ZM0.876017 15.7043L1.37582 15.7184C1.38251 15.481 1.32039 15.2566 1.1971 15.0557L0.77095 15.3172L0.344804 15.5788C0.369359 15.6188 0.377282 15.6524 0.376216 15.6903L0.876017 15.7043ZM0.77095 15.3172L1.1971 15.0557L1.08621 14.875L0.660064 15.1366L0.233918 15.3981L0.344804 15.5788L0.77095 15.3172ZM0.660064 15.1366L1.08621 14.875L0.975324 14.6944L0.549178 14.9559L0.123032 15.2174L0.233918 15.3981L0.660064 15.1366ZM0.549178 14.9559L0.975324 14.6944C0.979894 14.7018 0.987524 14.7165 0.99316 14.7381C0.998928 14.7602 1.00119 14.7842 0.99943 14.8077C0.995872 14.8555 0.978418 14.8752 0.987352 14.8624L0.577489 14.576L0.167627 14.2896C0.083762 14.4096 0.0151908 14.559 0.00219554 14.7334C-0.0112008 14.9132 0.0376474 15.0783 0.123032 15.2174L0.549178 14.9559ZM0.577489 14.576L0.987352 14.8624L1.12655 14.6631L0.716687 14.3768L0.306824 14.0904L0.167627 14.2896L0.577489 14.576ZM0.716687 14.3768L1.12655 14.6631L1.26575 14.4639L0.855884 14.1776L0.446022 13.8912L0.306824 14.0904L0.716687 14.3768ZM0.855884 14.1776L1.26575 14.4639C1.41086 14.2562 1.50418 13.9995 1.46046 13.7146L0.966245 13.7904L0.472029 13.8662C0.471206 13.8609 0.471016 13.8554 0.471349 13.8506C0.471675 13.8459 0.472379 13.8436 0.472228 13.8441C0.471827 13.8455 0.467022 13.8611 0.446022 13.8912L0.855884 14.1776ZM0.966245 13.7904L1.46046 13.7146L1.43163 13.5266L0.937409 13.6025L0.443193 13.6783L0.472029 13.8662L0.966245 13.7904ZM0.937409 13.6025L1.43163 13.5266L1.40279 13.3387L0.908573 13.4145L0.414357 13.4904L0.443193 13.6783L0.937409 13.6025ZM0.908573 13.4145L1.40279 13.3387C1.38686 13.2349 1.37747 13.1287 1.37478 13.0197L0.874929 13.0321L0.375082 13.0444C0.3788 13.1949 0.391833 13.3436 0.414357 13.4904L0.908573 13.4145ZM0.874929 13.0321L1.37478 13.0197L1.36997 12.8252L0.870122 12.8375L0.370275 12.8499L0.375082 13.0444L0.874929 13.0321ZM0.870122 12.8375L1.36997 12.8252L1.36516 12.6306L0.865314 12.643L0.365467 12.6554L0.370275 12.8499L0.870122 12.8375ZM0.865314 12.643L1.36516 12.6306C1.36179 12.4942 1.35552 12.3527 1.34643 12.206L0.847385 12.2369L0.348345 12.2679C0.356741 12.4033 0.362428 12.5324 0.365467 12.6554L0.865314 12.643ZM0.847385 12.2369L1.34643 12.206L1.3333 11.9945L0.834264 12.0254L0.335223 12.0564L0.348345 12.2679L0.847385 12.2369ZM0.834264 12.0254L1.3333 11.9945L1.32018 11.7829L0.821142 11.8139L0.322101 11.8448L0.335223 12.0564L0.834264 12.0254ZM0.821142 11.8139L1.32018 11.7829C1.32144 11.8032 1.31988 11.8349 1.3076 11.8723C1.29506 11.9104 1.27516 11.9428 1.25331 11.9673C1.21324 12.0123 1.18499 12.0115 1.22616 11.9992L1.0829 11.5202L0.939643 11.0411C0.79756 11.0836 0.634059 11.1592 0.506736 11.302C0.367054 11.4588 0.310176 11.6526 0.322101 11.8448L0.821142 11.8139ZM1.0829 11.5202L1.22616 11.9992L1.50104 11.917L1.35778 11.4379L1.21452 10.9589L0.939643 11.0411L1.0829 11.5202ZM1.35778 11.4379L1.50104 11.917L1.77592 11.8348L1.63266 11.3557L1.4894 10.8767L1.21452 10.9589L1.35778 11.4379ZM1.63266 11.3557L1.77592 11.8348C1.94043 11.7856 2.1409 11.6808 2.25821 11.4627C2.37583 11.2439 2.35215 11.0184 2.30137 10.8536L1.82352 11.0007L1.34567 11.1479C1.35091 11.1649 1.32342 11.0896 1.37743 10.9891C1.43111 10.8893 1.50815 10.8711 1.4894 10.8767L1.63266 11.3557ZM1.82352 11.0007L2.30137 10.8536L2.21735 10.5808L1.7395 10.7279L1.26165 10.8751L1.34567 11.1479L1.82352 11.0007ZM1.7395 10.7279L2.21735 10.5808L2.13333 10.308L1.65548 10.4551L1.17763 10.6023L1.26165 10.8751L1.7395 10.7279ZM1.65548 10.4551L2.13333 10.308C2.12158 10.2698 2.14538 10.3147 2.11623 10.3969C2.10051 10.4413 2.07387 10.4824 2.03986 10.5148C2.00755 10.5456 1.97805 10.5597 1.96442 10.5651L1.78146 10.0997L1.59849 9.63443C1.42283 9.7035 1.25262 9.84018 1.1737 10.0628C1.10256 10.2635 1.13338 10.4586 1.17763 10.6023L1.65548 10.4551ZM1.78146 10.0997L1.96442 10.5651L2.17442 10.4825L1.99145 10.0172L1.80848 9.55186L1.59849 9.63443L1.78146 10.0997ZM1.99145 10.0172L2.17442 10.4825L2.38441 10.3999L2.20145 9.93461L2.01848 9.46928L1.80848 9.55186L1.99145 10.0172ZM2.20145 9.93461L2.38441 10.3999C2.62907 10.3037 2.83264 10.1318 2.95031 9.87974L2.49725 9.66823L2.04419 9.45672C2.04348 9.45825 2.04338 9.45812 2.04414 9.45709C2.04447 9.45665 2.04484 9.4562 2.0452 9.4558C2.04537 9.4556 2.04552 9.45545 2.04564 9.45534C2.04575 9.45523 2.04581 9.45517 2.04581 9.45517C2.0458 9.45518 2.04572 9.45525 2.04555 9.45539C2.04538 9.45553 2.0451 9.45575 2.0447 9.45605C2.0439 9.45663 2.04256 9.45757 2.04054 9.45879C2.0365 9.46122 2.02948 9.46496 2.01848 9.46928L2.20145 9.93461ZM2.49725 9.66823L2.95031 9.87974L3.03612 9.69594L2.58306 9.48442L2.13 9.27291L2.04419 9.45672L2.49725 9.66823ZM2.58306 9.48442L3.03612 9.69594L3.12193 9.51213L2.66887 9.30062L2.21581 9.08911L2.13 9.27291L2.58306 9.48442ZM2.66887 9.30062L3.12193 9.51213C3.11534 9.52626 3.10323 9.54653 3.08301 9.56759C3.06246 9.58901 3.03882 9.6057 3.0152 9.61718C2.96951 9.63938 2.94539 9.63231 2.97148 9.63424L3.00842 9.13561L3.04536 8.63698C2.90229 8.62638 2.737 8.64054 2.57812 8.71775C2.41037 8.79927 2.28906 8.93221 2.21581 9.08911L2.66887 9.30062ZM3.00842 9.13561L2.97148 9.63424L3.22522 9.65304L3.26216 9.15441L3.2991 8.65577L3.04536 8.63698L3.00842 9.13561ZM3.26216 9.15441L3.22522 9.65304L3.47896 9.67184L3.5159 9.1732L3.55284 8.67457L3.2991 8.65577L3.26216 9.15441ZM3.5159 9.1732L3.47896 9.67184C3.6628 9.68546 3.87897 9.64473 4.05545 9.48234C4.22063 9.33033 4.28366 9.13261 4.30705 8.97285L3.81232 8.90043L3.31759 8.82801C3.31253 8.86263 3.31193 8.80756 3.3783 8.74648C3.41244 8.71507 3.45191 8.69422 3.48919 8.68332C3.52408 8.67311 3.54784 8.6742 3.55284 8.67457L3.5159 9.1732ZM3.81232 8.90043L4.30705 8.97285L4.34973 8.68128L3.855 8.60886L3.36028 8.53644L3.31759 8.82801L3.81232 8.90043ZM3.855 8.60886L4.34973 8.68128L4.39241 8.38972L3.89769 8.31729L3.40296 8.24487L3.36028 8.53644L3.855 8.60886ZM3.89769 8.31729L4.39241 8.38972C4.39938 8.34213 4.40576 8.364 4.37169 8.4064C4.35279 8.42993 4.32544 8.45443 4.29 8.47329C4.25498 8.49192 4.22285 8.49932 4.20032 8.50163L4.14918 8.00425L4.09804 7.50688C3.90222 7.52701 3.72191 7.61854 3.59211 7.78009C3.47421 7.92685 3.42445 8.09807 3.40296 8.24487L3.89769 8.31729ZM4.14918 8.00425L4.20032 8.50163L4.40913 8.48016L4.35799 7.98279L4.30685 7.48541L4.09804 7.50688L4.14918 8.00425ZM4.35799 7.98279L4.40913 8.48016L4.61794 8.4587L4.5668 7.96132L4.51566 7.46394L4.30685 7.48541L4.35799 7.98279ZM4.5668 7.96132L4.61794 8.4587C4.76266 8.44382 4.90269 8.42698 5.03798 8.40814L4.96902 7.91292L4.90006 7.41769C4.77747 7.43477 4.64935 7.45019 4.51566 7.46394L4.5668 7.96132ZM4.96902 7.91292L5.03798 8.40814L5.23139 8.3812L5.16243 7.88598L5.09347 7.39076L4.90006 7.41769L4.96902 7.91292ZM5.16243 7.88598L5.23139 8.3812L5.42481 8.35427L5.35585 7.85905L5.28688 7.36383L5.09347 7.39076L5.16243 7.88598ZM5.35585 7.85905L5.42481 8.35427C5.57182 8.3338 5.71694 8.3054 5.86007 8.26905L5.73698 7.78444L5.6139 7.29982C5.50673 7.32704 5.39775 7.34839 5.28688 7.36383L5.35585 7.85905ZM5.73698 7.78444L5.86007 8.26905L6.0478 8.22137L5.92471 7.73675L5.80162 7.25214L5.6139 7.29982L5.73698 7.78444ZM5.92471 7.73675L6.0478 8.22137L6.23552 8.17369L6.11244 7.68907L5.98935 7.20446L5.80162 7.25214L5.92471 7.73675ZM6.11244 7.68907L6.23552 8.17369C6.38257 8.13634 6.52475 8.08963 6.66169 8.03321L6.4712 7.57092L6.28071 7.10863C6.1896 7.14617 6.0926 7.17824 5.98935 7.20446L6.11244 7.68907ZM6.4712 7.57092L6.66169 8.03321L6.83272 7.96274L6.64224 7.50044L6.45175 7.03815L6.28071 7.10863L6.4712 7.57092ZM6.64224 7.50044L6.83272 7.96274L7.00376 7.89226L6.81327 7.42997L6.62278 6.96767L6.45175 7.03815L6.64224 7.50044ZM6.81327 7.42997L7.00376 7.89226C7.1536 7.83052 7.31065 7.71158 7.39075 7.51101C7.46556 7.3237 7.44171 7.14249 7.40355 7.01246L6.92378 7.15327L6.44402 7.29407C6.44621 7.30153 6.42411 7.23518 6.46208 7.1401C6.50535 7.03176 6.58697 6.98243 6.62278 6.96767L6.81327 7.42997ZM6.92378 7.15327L7.40355 7.01246L7.34303 6.80624L6.86326 6.94705L6.3835 7.08785L6.44402 7.29407L6.92378 7.15327ZM6.86326 6.94705L7.34303 6.80624L7.2825 6.60002L6.80274 6.74082L6.32297 6.88163L6.3835 7.08785L6.86326 6.94705ZM6.80274 6.74082L7.2825 6.60002C7.26608 6.54407 7.2716 6.51686 7.27592 6.50303L6.79867 6.35391L6.32143 6.20479C6.25047 6.43188 6.2587 6.66262 6.32297 6.88163L6.80274 6.74082ZM6.79867 6.35391L7.27592 6.50303L7.33238 6.32235L6.85513 6.17323L6.37788 6.02411L6.32143 6.20479L6.79867 6.35391ZM6.85513 6.17323L7.33238 6.32235L7.38883 6.14166L6.91159 5.99254L6.43434 5.84342L6.37788 6.02411L6.85513 6.17323ZM6.91159 5.99254L7.38883 6.14166C7.38743 6.14614 7.38521 6.15143 7.38213 6.15677C7.37907 6.16207 7.37615 6.16572 7.37442 6.16762C7.37095 6.17142 7.37599 6.16426 7.40059 6.1516L7.17184 5.707L6.94309 5.26239C6.71501 5.37974 6.52009 5.56898 6.43434 5.84342L6.91159 5.99254ZM7.17184 5.707L7.40059 6.1516L7.60439 6.04675L7.37563 5.60214L7.14688 5.15754L6.94309 5.26239L7.17184 5.707ZM7.37563 5.60214L7.60439 6.04675L7.80818 5.94189L7.57943 5.49729L7.35068 5.05268L7.14688 5.15754L7.37563 5.60214ZM7.57943 5.49729L7.80818 5.94189C7.9621 5.8627 8.10476 5.73275 8.18144 5.54073C8.25498 5.35658 8.24476 5.17285 8.20873 5.02251L7.7225 5.13903L7.23627 5.25556C7.24072 5.27415 7.2269 5.2346 7.25275 5.16986C7.28174 5.09727 7.33262 5.06198 7.35068 5.05268L7.57943 5.49729ZM7.7225 5.13903L8.20873 5.02251L8.148 4.76911L7.66177 4.88563L7.17554 5.00216L7.23627 5.25556L7.7225 5.13903ZM7.66177 4.88563L8.148 4.76911L8.08728 4.51571L7.60104 4.63223L7.11481 4.74876L7.17554 5.00216L7.66177 4.88563ZM7.60104 4.63223L8.08728 4.51571C8.07997 4.48523 8.09019 4.50191 8.07826 4.54536C8.07199 4.56817 8.06087 4.59328 8.04396 4.61723C8.02722 4.64095 8.00916 4.65736 7.99494 4.6676L7.70277 4.26185L7.41059 3.8561C7.26801 3.95877 7.16252 4.10371 7.11396 4.28051C7.06813 4.44742 7.08163 4.61029 7.11481 4.74876L7.60104 4.63223ZM7.70277 4.26185L7.99494 4.6676L8.15739 4.55063L7.86522 4.14487L7.57304 3.73912L7.41059 3.8561L7.70277 4.26185ZM7.86522 4.14487L8.15739 4.55063L8.31984 4.43365L8.02767 4.0279L7.7355 3.62214L7.57304 3.73912L7.86522 4.14487ZM8.02767 4.0279L8.31984 4.43365C8.40804 4.37014 8.49941 4.31425 8.59407 4.26574L8.36603 3.82077L8.13798 3.3758C7.9981 3.44749 7.8639 3.52968 7.7355 3.62214L8.02767 4.0279ZM8.36603 3.82077L8.59407 4.26574L8.76997 4.17559L8.54193 3.73062L8.31389 3.28565L8.13798 3.3758L8.36603 3.82077ZM8.54193 3.73062L8.76997 4.17559L8.94588 4.08544L8.71784 3.64047L8.4898 3.1955L8.31389 3.28565L8.54193 3.73062ZM8.71784 3.64047L8.94588 4.08544C9.18522 3.96278 9.3494 3.76178 9.43537 3.5172L8.96365 3.35141L8.49194 3.18562C8.48922 3.19336 8.48703 3.19762 8.48609 3.19929C8.48519 3.20088 8.48519 3.20059 8.48635 3.19922C8.48754 3.19782 8.489 3.19643 8.49034 3.19537C8.49164 3.19435 8.49174 3.19451 8.4898 3.1955L8.71784 3.64047ZM8.96365 3.35141L9.43537 3.5172L9.50528 3.31829L9.03356 3.1525L8.56185 2.98671L8.49194 3.18562L8.96365 3.35141ZM9.03356 3.1525L9.50528 3.31829L9.57519 3.11937L9.10347 2.95359L8.63176 2.7878L8.56185 2.98671L9.03356 3.1525ZM9.10347 2.95359L9.57519 3.11937C9.59558 3.06136 9.62013 3.03102 9.64296 3.01159L9.31889 2.63083L8.99482 2.25007C8.82364 2.39576 8.70458 2.5806 8.63176 2.7878L9.10347 2.95359ZM9.31889 2.63083L9.64296 3.01159L9.78847 2.88775L9.4644 2.50699L9.14033 2.12623L8.99482 2.25007L9.31889 2.63083ZM9.4644 2.50699L9.78847 2.88775L9.93397 2.76391L9.60991 2.38315L9.28584 2.00239L9.14033 2.12623L9.4644 2.50699ZM9.60991 2.38315L9.93397 2.76391C9.9266 2.77018 9.91777 2.77606 9.90816 2.78075C9.89864 2.78539 9.89084 2.78767 9.88623 2.78867C9.8776 2.79055 9.88639 2.7867 9.9206 2.79218L9.99977 2.29849L10.0789 1.8048C9.81724 1.76283 9.52523 1.79864 9.28584 2.00239L9.60991 2.38315ZM9.99977 2.29849L9.9206 2.79218L10.165 2.83136L10.2441 2.33767L10.3233 1.84398L10.0789 1.8048L9.99977 2.29849ZM10.2441 2.33767L10.165 2.83136L10.4093 2.87055L10.4885 2.37685L10.5676 1.88316L10.3233 1.84398L10.2441 2.33767ZM10.4885 2.37685L10.4093 2.87055C10.5901 2.89954 10.809 2.87696 10.9975 2.72806C11.1729 2.58947 11.2493 2.39775 11.2839 2.24315L10.796 2.13394L10.308 2.02473C10.3005 2.05819 10.3046 2.00099 10.3776 1.94337C10.4153 1.91355 10.458 1.895 10.4981 1.88671C10.5357 1.87895 10.5611 1.88211 10.5676 1.88316L10.4885 2.37685ZM10.796 2.13394L11.2839 2.24315L11.347 1.96105L10.8591 1.85185L10.3712 1.74264L10.308 2.02473L10.796 2.13394ZM10.8591 1.85185L11.347 1.96105L11.4102 1.67896L10.9222 1.56975L10.4343 1.46055L10.3712 1.74264L10.8591 1.85185ZM10.9222 1.56975L11.4102 1.67896C11.4191 1.63905 11.4062 1.7544 11.2667 1.82859C11.1172 1.90811 11.0023 1.84706 11.0235 1.85693L11.2345 1.40362L11.4455 0.950311C11.3006 0.88287 11.0506 0.810857 10.797 0.945754C10.5535 1.07532 10.4675 1.3124 10.4343 1.46055L10.9222 1.56975ZM11.2345 1.40362L11.0235 1.85693L11.2727 1.97288L11.4837 1.51958L11.6946 1.06627L11.4455 0.950311L11.2345 1.40362ZM11.4837 1.51958L11.2727 1.97288L11.5218 2.08884L11.7328 1.63553L11.9438 1.18223L11.6946 1.06627L11.4837 1.51958ZM11.7328 1.63553L11.5218 2.08884C11.7539 2.19684 12.0648 2.26873 12.3676 2.11809L12.1448 1.67044L11.9221 1.22279C11.9397 1.21404 11.9573 1.20863 11.9731 1.20592C11.9884 1.20327 11.9989 1.20371 12.0026 1.20402C12.006 1.20432 12.003 1.20443 11.9926 1.20139C11.9822 1.19833 11.966 1.19259 11.9438 1.18223L11.7328 1.63553ZM12.1448 1.67044L12.3676 2.11809L12.5305 2.03704L12.3077 1.58939L12.085 1.14174L11.9221 1.22279L12.1448 1.67044ZM12.3077 1.58939L12.5305 2.03704L12.6934 1.95599L12.4706 1.50834L12.2479 1.06069L12.085 1.14174L12.3077 1.58939ZM12.4706 1.50834L12.6934 1.95599C12.9055 1.85043 13.0687 1.6767 13.1963 1.49033L12.7836 1.20797L12.371 0.925617C12.2984 1.03166 12.253 1.05818 12.2479 1.06069L12.4706 1.50834ZM12.7836 1.20797L13.1963 1.49033L13.3463 1.27102L12.9337 0.988661L12.521 0.706304L12.371 0.925617L12.7836 1.20797ZM12.9337 0.988661L13.3463 1.27102L13.4964 1.0517L13.0838 0.769348L12.6711 0.486991L12.521 0.706304L12.9337 0.988661ZM13.0838 0.769348L13.4964 1.0517C13.5202 1.01698 13.5321 1.01058 13.5264 1.01448C13.5231 1.01671 13.516 1.02092 13.5053 1.0248C13.4944 1.02874 13.4828 1.03123 13.4717 1.03215L13.4306 0.533834L13.3896 0.0355197C13.0606 0.0626 12.8249 0.262293 12.6711 0.486991L13.0838 0.769348ZM13.4306 0.533834L13.4717 1.03215L13.6685 1.01595L13.6274 0.517634L13.5864 0.0193197L13.3896 0.0355197L13.4306 0.533834ZM13.6274 0.517634L13.6685 1.01595L13.8653 0.999749L13.8242 0.501434L13.7832 0.00311965L13.5864 0.0193197L13.6274 0.517634ZM13.8242 0.501434L13.8653 0.999749C13.8577 1.00037 13.85 1.00004 13.843 0.998916C13.8362 0.997816 13.8323 0.996325 13.8319 0.996157C13.8317 0.996067 13.8477 1.00266 13.8787 1.03063L14.2141 0.659811L14.5495 0.288992C14.3525 0.110803 14.0921 -0.0223067 13.7832 0.00311965L13.8242 0.501434ZM14.2141 0.659811L13.8787 1.03063L14.0717 1.20521L14.4071 0.834387L14.7425 0.463569L14.5495 0.288992L14.2141 0.659811ZM14.4071 0.834387L14.0717 1.20521L14.2647 1.37978L14.6001 1.00896L14.9355 0.638145L14.7425 0.463569L14.4071 0.834387ZM14.6001 1.00896L14.2647 1.37978C14.4765 1.5714 14.7808 1.71012 15.1279 1.60408L14.9818 1.1259L14.8357 0.647713C14.85 0.643332 14.8681 0.640162 14.8883 0.640206C14.9084 0.64025 14.9256 0.643479 14.9385 0.647416C14.9628 0.65488 14.9613 0.661499 14.9355 0.638145L14.6001 1.00896ZM14.9818 1.1259L15.1279 1.60408L15.3166 1.54644L15.1705 1.06826L15.0244 0.590072L14.8357 0.647713L14.9818 1.1259ZM15.1705 1.06826L15.3166 1.54644L15.5052 1.4888L15.3592 1.01061L15.2131 0.53243L15.0244 0.590072L15.1705 1.06826ZM15.3592 1.01061L15.5052 1.4888C15.5692 1.46925 15.6261 1.46468 15.6798 1.47062L15.7348 0.973652L15.7897 0.476684C15.5942 0.455053 15.4007 0.475127 15.2131 0.53243L15.3592 1.01061ZM15.7348 0.973652L15.6798 1.47062L15.8667 1.4913L15.9217 0.994331L15.9766 0.497364L15.7897 0.476684L15.7348 0.973652ZM15.9217 0.994331L15.8667 1.4913L16.0536 1.51198L16.1086 1.01501L16.1635 0.518043L15.9766 0.497364L15.9217 0.994331ZM16.1086 1.01501L16.0536 1.51198C16.1276 1.52016 16.1987 1.53915 16.2687 1.56978L16.4692 1.11174L16.6697 0.653698C16.508 0.582925 16.3388 0.53743 16.1635 0.518043L16.1086 1.01501ZM16.4692 1.11174L16.2687 1.56978L16.4424 1.64583L16.6429 1.18779L16.8434 0.729748L16.6697 0.653698L16.4692 1.11174ZM16.6429 1.18779L16.4424 1.64583L16.6162 1.72188L16.8167 1.26384L17.0172 0.805797L16.8434 0.729748L16.6429 1.18779ZM16.8167 1.26384L16.6162 1.72188C16.7234 1.76879 16.8277 1.81807 16.9292 1.86969L17.1558 1.42402L17.3825 0.978347C17.2634 0.91779 17.1416 0.860282 17.0172 0.805797L16.8167 1.26384ZM17.1558 1.42402L16.9292 1.86969L17.0946 1.95383L17.3213 1.50815L17.5479 1.06248L17.3825 0.978347L17.1558 1.42402ZM17.3213 1.50815L17.0946 1.95383L17.26 2.03796L17.4867 1.59229L17.7134 1.14661L17.5479 1.06248L17.3213 1.50815ZM17.4867 1.59229L17.26 2.03796C17.343 2.08014 17.421 2.12935 17.4945 2.18576L17.799 1.78919L18.1035 1.39263C17.9812 1.29867 17.851 1.21661 17.7134 1.14661L17.4867 1.59229ZM17.799 1.78919L17.4945 2.18576L17.6413 2.29853L17.9458 1.90197L18.2504 1.5054L18.1035 1.39263L17.799 1.78919ZM17.9458 1.90197L17.6413 2.29853L17.7882 2.4113L18.0927 2.01474L18.3972 1.61818L18.2504 1.5054L17.9458 1.90197ZM18.0927 2.01474L17.7882 2.4113C18.0343 2.60028 18.3244 2.62035 18.5771 2.57172L18.4826 2.08073L18.3881 1.58974C18.3516 1.59677 18.3403 1.5935 18.347 1.59463C18.3508 1.59527 18.3584 1.59701 18.3683 1.60123C18.3783 1.60551 18.3883 1.61129 18.3972 1.61818L18.0927 2.01474ZM18.4826 2.08073L18.5771 2.57172L18.8202 2.52493L18.7257 2.03395L18.6312 1.54296L18.3881 1.58974L18.4826 2.08073ZM18.7257 2.03395L18.8202 2.52493L19.0632 2.47815L18.9687 1.98716L18.8742 1.49617L18.6312 1.54296L18.7257 2.03395ZM18.9687 1.98716L19.0632 2.47815C19.0868 2.47361 19.0706 2.48135 19.0325 2.46947C19.0131 2.46342 18.9925 2.45358 18.9733 2.43981C18.9543 2.42619 18.9412 2.41206 18.9332 2.40143L19.3325 2.10045L19.7317 1.79947C19.632 1.66719 19.4959 1.56641 19.3299 1.51471C19.1705 1.46507 19.0127 1.46952 18.8742 1.49617L18.9687 1.98716ZM19.3325 2.10045L18.9332 2.40143L19.0539 2.5615L19.4531 2.26053L19.8524 1.95955L19.7317 1.79947L19.3325 2.10045ZM19.4531 2.26053L19.0539 2.5615L19.1745 2.72158L19.5738 2.4206L19.9731 2.11962L19.8524 1.95955L19.4531 2.26053ZM19.5738 2.4206L19.1745 2.72158C19.3305 2.92852 19.5446 3.05889 19.788 3.11743L19.9049 2.6313L20.0219 2.14517C19.9846 2.13621 19.9779 2.12611 19.9731 2.11962L19.5738 2.4206ZM19.9049 2.6313L19.788 3.11743L19.9985 3.16806L20.1154 2.68193L20.2323 2.19579L20.0219 2.14517L19.9049 2.6313ZM20.1154 2.68193L19.9985 3.16806L20.2089 3.21869L20.3259 2.73255L20.4428 2.24642L20.2323 2.19579L20.1154 2.68193ZM20.3259 2.73255L20.2089 3.21869C20.1931 3.21488 20.1507 3.1988 20.1129 3.15476C20.0776 3.11372 20.0744 3.08084 20.0757 3.08949L20.5704 3.01747L21.0652 2.94545C21.0438 2.7979 20.9884 2.63944 20.8716 2.50342C20.7523 2.36442 20.5989 2.28397 20.4428 2.24642L20.3259 2.73255ZM20.5704 3.01747L20.0757 3.08949L20.1098 3.32379L20.6045 3.25177L21.0993 3.17974L21.0652 2.94545L20.5704 3.01747ZM20.6045 3.25177L20.1098 3.32379L20.1439 3.55808L20.6387 3.48606L21.1334 3.41404L21.0993 3.17974L20.6045 3.25177ZM20.6387 3.48606L20.1439 3.55808C20.1798 3.80513 20.2851 4.04851 20.4999 4.22641L20.8188 3.84131L21.1377 3.45621C21.1405 3.45848 21.143 3.46109 21.145 3.46359C21.1469 3.46602 21.1473 3.46712 21.1467 3.46586C21.1453 3.46319 21.1384 3.4483 21.1334 3.41404L20.6387 3.48606ZM20.8188 3.84131L20.4999 4.22641L20.646 4.34737L20.9649 3.96227L21.2838 3.57717L21.1377 3.45621L20.8188 3.84131ZM20.9649 3.96227L20.646 4.34737L20.792 4.46832L21.1109 4.08323L21.4299 3.69813L21.2838 3.57717L20.9649 3.96227ZM21.1109 4.08323L20.792 4.46832C20.856 4.52133 20.9111 4.58067 20.9582 4.64695L21.3659 4.35752L21.7736 4.06808C21.6755 3.92992 21.5606 3.8064 21.4299 3.69813L21.1109 4.08323ZM21.3659 4.35752L20.9582 4.64695L21.067 4.80029L21.4747 4.51086L21.8824 4.22142L21.7736 4.06808L21.3659 4.35752ZM21.4747 4.51086L21.067 4.80029L21.1759 4.95363L21.5836 4.66419L21.9913 4.37476L21.8824 4.22142L21.4747 4.51086ZM21.5836 4.66419L21.1759 4.95363C21.2687 5.08438 21.3755 5.20597 21.4951 5.3187L21.8381 4.95492L22.1812 4.59115C22.1064 4.52069 22.0436 4.44846 21.9913 4.37476L21.5836 4.66419ZM21.8381 4.95492L21.4951 5.3187L21.6408 5.45609L21.9838 5.09232L22.3269 4.72854L22.1812 4.59115L21.8381 4.95492ZM21.9838 5.09232L21.6408 5.45609L21.7865 5.59348L22.1295 5.22971L22.4726 4.86593L22.3269 4.72854L21.9838 5.09232ZM22.1295 5.22971L21.7865 5.59348C21.8217 5.62663 21.8405 5.65905 21.8517 5.69627L22.3308 5.55336L22.8099 5.41044C22.747 5.19932 22.6317 5.01597 22.4726 4.86593L22.1295 5.22971ZM22.3308 5.55336L21.8517 5.69627L21.9072 5.88253L22.3863 5.73961L22.8655 5.5967L22.8099 5.41044L22.3308 5.55336ZM22.3863 5.73961L21.9072 5.88253L21.9628 6.06878L22.4419 5.92587L22.921 5.78295L22.8655 5.5967L22.3863 5.73961ZM22.4419 5.92587L21.9628 6.06878C21.9948 6.17618 22.0208 6.284 22.0409 6.3923L22.5325 6.301L23.0241 6.2097C22.9975 6.06617 22.9631 5.9239 22.921 5.78295L22.4419 5.92587ZM22.5325 6.301L22.0409 6.3923L22.076 6.58118L22.5676 6.48988L23.0592 6.39858L23.0241 6.2097L22.5325 6.301ZM22.5676 6.48988L22.076 6.58118L22.1111 6.77006L22.6027 6.67876L23.0943 6.58746L23.0592 6.39858L22.5676 6.48988ZM22.6027 6.67876L22.1111 6.77006C22.1333 6.88944 22.1528 7.00809 22.1698 7.12603L22.6647 7.05474L23.1596 6.98345C23.1407 6.85191 23.1189 6.71991 23.0943 6.58746L22.6027 6.67876ZM22.6647 7.05474L22.1698 7.12603L22.1968 7.31314L22.6917 7.24184L23.1866 7.17055L23.1596 6.98345L22.6647 7.05474ZM22.6917 7.24184L22.1968 7.31314L22.2237 7.50024L22.7186 7.42895L23.2135 7.35766L23.1866 7.17055L22.6917 7.24184ZM22.7186 7.42895L22.2237 7.50024C22.2467 7.65995 22.2865 7.81658 22.3422 7.96971L22.8121 7.79865L23.2819 7.62759C23.249 7.53726 23.2265 7.44742 23.2135 7.35766L22.7186 7.42895ZM22.8121 7.79865L22.3422 7.96971L22.4087 8.15231L22.8786 7.98125L23.3484 7.81019L23.2819 7.62759L22.8121 7.79865ZM22.8786 7.98125L22.4087 8.15231L22.4752 8.3349L22.945 8.16384L23.4149 7.99278L23.3484 7.81019L22.8786 7.98125ZM22.945 8.16384L22.4752 8.3349C22.5138 8.44085 22.5473 8.54945 22.5757 8.66077L23.0602 8.5372L23.5447 8.41364C23.5082 8.27061 23.4649 8.1303 23.4149 7.99278L22.945 8.16384ZM23.0602 8.5372L22.5757 8.66077L22.6243 8.85153L23.1088 8.72796L23.5933 8.6044L23.5447 8.41364L23.0602 8.5372ZM23.1088 8.72796L22.6243 8.85153L22.673 9.04229L23.1575 8.91873L23.642 8.79516L23.5933 8.6044L23.1088 8.72796ZM23.1575 8.91873L22.673 9.04229C22.6939 9.12424 22.7017 9.2016 22.6984 9.27587L23.198 9.29752L23.6975 9.31918C23.7052 9.14273 23.6859 8.96755 23.642 8.79516L23.1575 8.91873ZM23.198 9.29752L22.6984 9.27587L22.6903 9.46391L23.1898 9.48556L23.6894 9.50721L23.6975 9.31918L23.198 9.29752ZM23.1898 9.48556L22.6903 9.46391L22.6821 9.65195L23.1817 9.6736L23.6812 9.69525L23.6894 9.50721L23.1898 9.48556ZM23.1817 9.6736L22.6821 9.65195C22.6805 9.69056 22.6764 9.71635 22.6729 9.7318C22.6694 9.74723 22.6673 9.7484 22.6714 9.74064L23.1126 9.97591L23.5538 10.2112C23.6418 10.0461 23.6739 9.86401 23.6812 9.69525L23.1817 9.6736ZM23.1126 9.97591L22.6714 9.74064L22.6104 9.85492L23.0516 10.0902L23.4928 10.3255L23.5538 10.2112L23.1126 9.97591ZM23.0516 10.0902L22.6104 9.85492L22.5495 9.9692L22.9907 10.2045L23.4319 10.4397L23.4928 10.3255L23.0516 10.0902ZM22.9907 10.2045L22.5495 9.9692C22.4448 10.1655 22.4594 10.3772 22.5439 10.5476C22.6152 10.6912 22.7276 10.7923 22.8169 10.8594L23.1173 10.4596L23.4176 10.0599C23.3819 10.0331 23.4107 10.0447 23.4398 10.1032C23.4569 10.1376 23.4751 10.1909 23.4757 10.2584C23.4764 10.3279 23.4582 10.3903 23.4319 10.4397L22.9907 10.2045ZM23.1173 10.4596L22.8169 10.8594L23.0044 11.0003L23.3048 10.6005L23.6051 10.2008L23.4176 10.0599L23.1173 10.4596ZM23.3048 10.6005L23.0044 11.0003L23.1919 11.1411L23.4923 10.7414L23.7926 10.3417L23.6051 10.2008L23.3048 10.6005ZM23.4923 10.7414L23.1919 11.1411C23.3821 11.284 23.6204 11.3879 23.8929 11.3682L23.8571 10.8695L23.8212 10.3708C23.8279 10.3703 23.8339 10.3707 23.8384 10.3713C23.8428 10.3719 23.8444 10.3727 23.8429 10.3721C23.8394 10.3709 23.8226 10.3642 23.7926 10.3417L23.4923 10.7414ZM23.8571 10.8695L23.8929 11.3682L24.0702 11.3555L24.0344 10.8568L23.9985 10.3581L23.8212 10.3708L23.8571 10.8695ZM24.0344 10.8568L24.0702 11.3555L24.2476 11.3427L24.2117 10.844L24.1758 10.3453L23.9985 10.3581L24.0344 10.8568ZM24.2117 10.844L24.2476 11.3427C24.4215 11.3302 24.597 11.2878 24.771 11.2256L24.6025 10.7548L24.4339 10.2841C24.3232 10.3237 24.2383 10.3408 24.1758 10.3453L24.2117 10.844ZM24.6025 10.7548L24.771 11.2256L24.9845 11.1492L24.8159 10.6784L24.6474 10.2077L24.4339 10.2841L24.6025 10.7548ZM24.8159 10.6784L24.9845 11.1492L25.1979 11.0728L25.0294 10.602L24.8609 10.1313L24.6474 10.2077L24.8159 10.6784ZM25.0294 10.602L25.1979 11.0728C25.2223 11.064 25.2336 11.064 25.2345 11.064C25.2352 11.064 25.2347 11.064 25.2335 11.0638C25.2324 11.0636 25.2321 11.0634 25.233 11.0637L25.4266 10.6027L25.6202 10.1417C25.3665 10.0352 25.1035 10.0444 24.8609 10.1313L25.0294 10.602ZM25.4266 10.6027L25.233 11.0637L25.4168 11.1409L25.6104 10.6799L25.804 10.2189L25.6202 10.1417L25.4266 10.6027ZM25.6104 10.6799L25.4168 11.1409L25.6005 11.2181L25.7941 10.7571L25.9877 10.2961L25.804 10.2189L25.6104 10.6799ZM25.7941 10.7571L25.6005 11.2181C25.6247 11.2282 25.6474 11.244 25.6723 11.2826L26.0922 11.0112L26.5121 10.7398C26.3846 10.5424 26.2085 10.3888 25.9877 10.2961L25.7941 10.7571ZM26.0922 11.0112L25.6723 11.2826L25.7866 11.4595L26.2065 11.1881L26.6265 10.9167L26.5121 10.7398L26.0922 11.0112ZM26.2065 11.1881L25.7866 11.4595L25.901 11.6364L26.3209 11.365L26.7408 11.0936L26.6265 10.9167L26.2065 11.1881ZM26.3209 11.365L25.901 11.6364C25.9824 11.7624 26.0638 11.8804 26.1453 11.9899L26.5465 11.6914L26.9476 11.3929C26.8808 11.3032 26.8119 11.2035 26.7408 11.0936L26.3209 11.365ZM26.5465 11.6914L26.1453 11.9899L26.2565 12.1393L26.6577 11.8409L27.0588 11.5424L26.9476 11.3929L26.5465 11.6914ZM26.6577 11.8409L26.2565 12.1393L26.3677 12.2888L26.7689 11.9903L27.17 11.6918L27.0588 11.5424L26.6577 11.8409ZM26.7689 11.9903L26.3677 12.2888C26.4358 12.3803 26.4994 12.4716 26.5587 12.5628L26.9779 12.2902L27.397 12.0176C27.3259 11.9082 27.2502 11.7996 27.17 11.6918L26.7689 11.9903ZM26.9779 12.2902L26.5587 12.5628L26.6565 12.7132L27.0757 12.4406L27.4949 12.1681L27.397 12.0176L26.9779 12.2902ZM27.0757 12.4406L26.6565 12.7132L26.7543 12.8636L27.1735 12.591L27.5927 12.3185L27.4949 12.1681L27.0757 12.4406ZM27.1735 12.591L26.7543 12.8636C26.8045 12.9407 26.8466 13.0195 26.8814 13.1001L27.3406 12.9023L27.7998 12.7046C27.7421 12.5707 27.6729 12.4419 27.5927 12.3185L27.1735 12.591ZM27.3406 12.9023L26.8814 13.1001L26.9506 13.261L27.4099 13.0632L27.8691 12.8655L27.7998 12.7046L27.3406 12.9023ZM27.4099 13.0632L26.9506 13.261L27.0199 13.4218L27.4791 13.2241L27.9384 13.0263L27.8691 12.8655L27.4099 13.0632ZM27.4791 13.2241L27.0199 13.4218C27.0798 13.5609 27.1538 13.6932 27.2411 13.8186L27.6514 13.5327L28.0616 13.2469C28.0117 13.1752 27.9709 13.1018 27.9384 13.0263L27.4791 13.2241ZM27.6514 13.5327L27.2411 13.8186L27.3441 13.9663L27.7543 13.6805L28.1646 13.3947L28.0616 13.2469L27.6514 13.5327ZM27.7543 13.6805L27.3441 13.9663L27.4471 14.1141L27.8573 13.8283L28.2675 13.5424L28.1646 13.3947L27.7543 13.6805ZM27.8573 13.8283L27.4471 14.1141C27.4691 14.1457 27.4804 14.1762 27.4846 14.212L27.9812 14.1535L28.4777 14.0949C28.4541 13.8942 28.3828 13.7079 28.2675 13.5424L27.8573 13.8283ZM27.9812 14.1535L27.4846 14.212L27.5056 14.3894L28.0021 14.3308L28.4987 14.2723L28.4777 14.0949L27.9812 14.1535ZM28.0021 14.3308L27.5056 14.3894L27.5265 14.5668L28.023 14.5082L28.5196 14.4497L28.4987 14.2723L28.0021 14.3308ZM28.023 14.5082L27.5265 14.5668C27.5334 14.6255 27.5302 14.6846 27.5153 14.7468L28.0017 14.8629L28.488 14.9789C28.5296 14.8048 28.5406 14.6275 28.5196 14.4497L28.023 14.5082ZM28.0017 14.8629L27.5153 14.7468L27.473 14.9241L27.9594 15.0401L28.4457 15.1562L28.488 14.9789L28.0017 14.8629ZM27.9594 15.0401L27.473 14.9241L27.4307 15.1013L27.9171 15.2174L28.4034 15.3334L28.4457 15.1562L27.9594 15.0401ZM27.9171 15.2174L27.4307 15.1013C27.3618 15.3902 27.4474 15.6552 27.5899 15.8658L28.004 15.5856L28.4181 15.3054C28.4018 15.2813 28.4022 15.2741 28.4043 15.2832C28.4054 15.2878 28.4066 15.2954 28.4067 15.3052C28.4067 15.3151 28.4055 15.3247 28.4034 15.3334L27.9171 15.2174ZM28.004 15.5856L27.5899 15.8658L27.7191 16.0568L28.1332 15.7766L28.5474 15.4964L28.4181 15.3054L28.004 15.5856ZM28.1332 15.7766L27.7191 16.0568L27.8483 16.2478L28.2625 15.9676L28.6766 15.6874L28.5474 15.4964L28.1332 15.7766ZM28.2625 15.9676L27.8483 16.2478C27.8951 16.3168 27.9154 16.3764 27.9222 16.4296L28.4182 16.3664L28.9141 16.3033C28.8856 16.0794 28.8022 15.873 28.6766 15.6874L28.2625 15.9676ZM28.4182 16.3664L27.9222 16.4296L27.9486 16.6374L28.4446 16.5742L28.9406 16.5111L28.9141 16.3033L28.4182 16.3664ZM28.4446 16.5742L27.9486 16.6374L27.9751 16.8452L28.4711 16.7821L28.9671 16.7189L28.9406 16.5111L28.4446 16.5742ZM28.4711 16.7821L27.9751 16.8452C27.9758 16.8509 27.9756 16.8533 27.9756 16.8531C27.9757 16.8527 27.9758 16.8508 27.9766 16.8479C27.9774 16.845 27.9783 16.8428 27.9789 16.8416C27.9795 16.8406 27.9791 16.8417 27.9765 16.845L28.3708 17.1524L28.7651 17.4598C28.933 17.2445 29.0012 16.9871 28.9671 16.7189L28.4711 16.7821ZM28.3708 17.1524L27.9765 16.845L27.8498 17.0075L28.2441 17.3149L28.6384 17.6224L28.7651 17.4598L28.3708 17.1524ZM28.2441 17.3149L27.8498 17.0075L27.723 17.1701L28.1174 17.4775L28.5117 17.7849L28.6384 17.6224L28.2441 17.3149ZM28.1174 17.4775L27.723 17.1701C27.6353 17.2826 27.5518 17.3934 27.4727 17.5024L27.8772 17.7962L28.2818 18.09C28.3538 17.9908 28.4305 17.8891 28.5117 17.7849L28.1174 17.4775ZM27.8772 17.7962L27.4727 17.5024L27.3592 17.6586L27.7638 17.9524L28.1683 18.2462L28.2818 18.09L27.8772 17.7962ZM27.7638 17.9524L27.3592 17.6586L27.2458 17.8148L27.6503 18.1086L28.0549 18.4024L28.1683 18.2462L27.7638 17.9524ZM27.6503 18.1086L27.2458 17.8148C27.169 17.9205 27.0928 18.0267 27.0172 18.1334L27.4251 18.4225L27.833 18.7116C27.9064 18.6081 27.9804 18.505 28.0549 18.4024L27.6503 18.1086ZM27.4251 18.4225L27.0172 18.1334L26.9054 18.2911L27.3133 18.5802L27.7213 18.8693L27.833 18.7116L27.4251 18.4225ZM27.3133 18.5802L26.9054 18.2911L26.7936 18.4488L27.2016 18.7379L27.6095 19.027L27.7213 18.8693L27.3133 18.5802ZM27.2016 18.7379L26.7936 18.4488C26.74 18.5244 26.6788 18.5937 26.6094 18.6569L26.9462 19.0265L27.2829 19.3961C27.4051 19.2847 27.5141 19.1616 27.6095 19.027L27.2016 18.7379ZM26.9462 19.0265L26.6094 18.6569L26.4658 18.7877L26.8025 19.1573L27.1393 19.5269L27.2829 19.3961L26.9462 19.0265ZM26.8025 19.1573L26.4658 18.7877L26.3222 18.9186L26.6589 19.2882L26.9956 19.6578L27.1393 19.5269L26.8025 19.1573ZM26.6589 19.2882L26.3222 18.9186C26.3234 18.9175 26.3259 18.9155 26.3295 18.9134C26.3331 18.9113 26.3363 18.9099 26.3383 18.9093C26.3427 18.9078 26.3363 18.911 26.3129 18.9101L26.2918 19.4096L26.2706 19.9092C26.5298 19.9201 26.7875 19.8474 26.9956 19.6578L26.6589 19.2882ZM26.2918 19.4096L26.3129 18.9101L26.0894 18.9006L26.0682 19.4002L26.0471 19.8997L26.2706 19.9092L26.2918 19.4096ZM26.0682 19.4002L26.0894 18.9006L25.8659 18.8912L25.8447 19.3907L25.8236 19.8903L26.0471 19.8997L26.0682 19.4002ZM25.8447 19.3907L25.8659 18.8912C25.5637 18.8784 25.2856 18.9966 25.0947 19.2474L25.4925 19.5503L25.8903 19.8532C25.8899 19.8538 25.8863 19.8583 25.879 19.8643C25.8715 19.8704 25.862 19.8764 25.8513 19.8813C25.8282 19.8918 25.815 19.8899 25.8236 19.8903L25.8447 19.3907ZM25.4925 19.5503L25.0947 19.2474L24.966 19.4165L25.3638 19.7194L25.7616 20.0222L25.8903 19.8532L25.4925 19.5503ZM25.3638 19.7194L24.966 19.4165L24.8373 19.5855L25.2351 19.8884L25.6329 20.1913L25.7616 20.0222L25.3638 19.7194ZM25.2351 19.8884L24.8373 19.5855C24.828 19.5977 24.827 19.595 24.8373 19.589C24.8422 19.5861 24.8478 19.5835 24.8538 19.5816C24.8598 19.5797 24.8642 19.579 24.8663 19.5788L24.9156 20.0764L24.9649 20.5739C25.246 20.5461 25.4731 20.4012 25.6329 20.1913L25.2351 19.8884ZM24.9156 20.0764L24.8663 19.5788L24.6755 19.5977L24.7248 20.0953L24.7741 20.5928L24.9649 20.5739L24.9156 20.0764ZM24.7248 20.0953L24.6755 19.5977L24.4847 19.6166L24.534 20.1142L24.5833 20.6117L24.7741 20.5928L24.7248 20.0953ZM24.534 20.1142L24.4847 19.6166C24.3538 19.6296 24.2239 19.6439 24.0951 19.6597L24.1557 20.156L24.2163 20.6523C24.3375 20.6375 24.4598 20.624 24.5833 20.6117L24.534 20.1142ZM24.1557 20.156L24.0951 19.6597L23.9075 19.6826L23.9681 20.1789L24.0287 20.6752L24.2163 20.6523L24.1557 20.156ZM23.9681 20.1789L23.9075 19.6826L23.7199 19.7055L23.7805 20.2018L23.8412 20.6981L24.0287 20.6752L23.9681 20.1789ZM23.7805 20.2018L23.7199 19.7055C23.6297 19.7165 23.5399 19.7179 23.4499 19.7099L23.4053 20.2079L23.3608 20.7059C23.521 20.7202 23.6813 20.7176 23.8412 20.6981L23.7805 20.2018ZM23.4053 20.2079L23.4499 19.7099L23.2623 19.6931L23.2177 20.1911L23.1731 20.6891L23.3608 20.7059L23.4053 20.2079ZM23.2177 20.1911L23.2623 19.6931L23.0746 19.6763L23.0301 20.1743L22.9855 20.6723L23.1731 20.6891L23.2177 20.1911ZM23.0301 20.1743L23.0746 19.6763C23.01 19.6705 22.9391 19.6527 22.8603 19.6172L22.6549 20.073L22.4495 20.5289C22.6207 20.6061 22.7999 20.6557 22.9855 20.6723L23.0301 20.1743ZM22.6549 20.073L22.8603 19.6172L22.6728 19.5327L22.4674 19.9886L22.262 20.4444L22.4495 20.5289L22.6549 20.073ZM22.4674 19.9886L22.6728 19.5327L22.4853 19.4482L22.2799 19.9041L22.0745 20.3599L22.262 20.4444L22.4674 19.9886ZM22.2799 19.9041L22.4853 19.4482C22.3134 19.3708 22.1213 19.3564 21.9344 19.4187C21.7618 19.4762 21.6298 19.5867 21.5324 19.6954L21.9049 20.029L22.2774 20.3625C22.305 20.3317 22.2981 20.3516 22.2504 20.3674C22.2246 20.376 22.1923 20.3814 22.1568 20.3793C22.1217 20.3773 22.0935 20.3685 22.0745 20.3599L22.2799 19.9041ZM21.9049 20.029L21.5324 19.6954L21.3449 19.9048L21.7174 20.2384L22.0899 20.5719L22.2774 20.3625L21.9049 20.029ZM21.7174 20.2384L21.3449 19.9048L21.1574 20.1142L21.5299 20.4478L21.9024 20.7813L22.0899 20.5719L21.7174 20.2384ZM21.5299 20.4478L21.1574 20.1142C21.1444 20.1287 21.2168 20.0404 21.3683 20.0483C21.5101 20.0556 21.5655 20.1405 21.5417 20.1114L21.1549 20.4283L20.7681 20.7452C20.8694 20.8687 21.0498 21.0331 21.3165 21.0469C21.593 21.0613 21.7904 20.9064 21.9024 20.7813L21.5299 20.4478ZM21.1549 20.4283L21.5417 20.1114L21.3542 19.8826L20.9674 20.1994L20.5806 20.5163L20.7681 20.7452L21.1549 20.4283ZM20.9674 20.1994L21.3542 19.8826L21.1667 19.6537L20.7799 19.9706L20.3931 20.2874L20.5806 20.5163L20.9674 20.1994ZM20.7799 19.9706L21.1667 19.6537C20.9999 19.4501 20.7361 19.2328 20.3767 19.2531L20.4049 19.7523L20.4332 20.2515C20.4105 20.2528 20.3893 20.2502 20.3716 20.2456C20.3544 20.241 20.3441 20.2355 20.3409 20.2337C20.338 20.232 20.3417 20.2337 20.3514 20.2425C20.3611 20.2513 20.3752 20.2655 20.3931 20.2874L20.7799 19.9706ZM20.4049 19.7523L20.3767 19.2531L20.1892 19.2637L20.2174 19.7629L20.2457 20.2621L20.4332 20.2515L20.4049 19.7523ZM20.2174 19.7629L20.1892 19.2637L20.0017 19.2743L20.0299 19.7735L20.0582 20.2727L20.2457 20.2621L20.2174 19.7629ZM20.0299 19.7735L20.0017 19.2743C19.7935 19.2861 19.5972 19.3483 19.4162 19.4466L19.6549 19.886L19.8936 20.3254C19.9626 20.2879 20.0163 20.2751 20.0582 20.2727L20.0299 19.7735ZM19.6549 19.886L19.4162 19.4466L19.2287 19.5485L19.4674 19.9879L19.7061 20.4272L19.8936 20.3254L19.6549 19.886ZM19.4674 19.9879L19.2287 19.5485L19.0412 19.6504L19.2799 20.0897L19.5186 20.5291L19.7061 20.4272L19.4674 19.9879ZM19.2799 20.0897L19.0412 19.6504C18.9277 19.712 18.8149 19.7676 18.7028 19.8171L18.9049 20.2744L19.107 20.7318C19.2449 20.6708 19.3821 20.6032 19.5186 20.5291L19.2799 20.0897ZM18.9049 20.2744L18.7028 19.8171L18.5153 19.9L18.7174 20.3573L18.9195 20.8146L19.107 20.7318L18.9049 20.2744ZM18.7174 20.3573L18.5153 19.9L18.3278 19.9828L18.5299 20.4402L18.732 20.8975L18.9195 20.8146L18.7174 20.3573ZM18.5299 20.4402L18.3278 19.9828C18.2611 20.0123 18.2054 20.0224 18.157 20.0222L18.1549 20.5222L18.1528 21.0222C18.3544 21.0231 18.5488 20.9785 18.732 20.8975L18.5299 20.4402ZM18.1549 20.5222L18.157 20.0222L17.9695 20.0214L17.9674 20.5214L17.9653 21.0214L18.1528 21.0222L18.1549 20.5222ZM17.9674 20.5214L17.9695 20.0214L17.782 20.0206L17.7799 20.5206L17.7778 21.0206L17.9653 21.0214L17.9674 20.5214ZM17.7799 20.5206L17.782 20.0206C17.6441 20.0201 17.5063 20.0248 17.3685 20.0349L17.4049 20.5335L17.4413 21.0322C17.5535 21.024 17.6657 21.0202 17.7778 21.0206L17.7799 20.5206ZM17.4049 20.5335L17.3685 20.0349L17.181 20.0486L17.2174 20.5472L17.2538 21.0459L17.4413 21.0322L17.4049 20.5335ZM17.2174 20.5472L17.181 20.0486L16.9935 20.0622L17.0299 20.5609L17.0663 21.0596L17.2538 21.0459L17.2174 20.5472ZM17.0299 20.5609L16.9935 20.0622C17.0092 20.0611 17.0243 20.0623 17.0374 20.065C17.0503 20.0677 17.0584 20.0712 17.0612 20.0726C17.0638 20.0738 17.0609 20.0728 17.0529 20.0666C17.0447 20.0603 17.0325 20.0498 17.0164 20.033L16.6549 20.3784L16.2934 20.7238C16.4742 20.913 16.7355 21.0837 17.0663 21.0596L17.0299 20.5609ZM16.6549 20.3784L17.0164 20.033L16.8289 19.8367L16.4674 20.1822L16.1059 20.5276L16.2934 20.7238L16.6549 20.3784ZM16.4674 20.1822L16.8289 19.8367L16.6414 19.6405L16.2799 19.9859L15.9184 20.3314L16.1059 20.5276L16.4674 20.1822ZM16.2799 19.9859L16.6414 19.6405C16.5422 19.5367 16.4122 19.4356 16.2471 19.3819C16.0712 19.3246 15.8889 19.3325 15.7209 19.3991L15.9049 19.864L16.089 20.3289C16.0711 20.3359 16.0462 20.3424 16.0163 20.3434C15.9862 20.3445 15.9592 20.3398 15.9377 20.3328C15.8976 20.3198 15.8926 20.3044 15.9184 20.3314L16.2799 19.9859ZM15.9049 19.864L15.7209 19.3991L15.5334 19.4733L15.7174 19.9382L15.9015 20.4031L16.089 20.3289L15.9049 19.864ZM15.7174 19.9382L15.5334 19.4733L15.3459 19.5475L15.5299 20.0124L15.714 20.4773L15.9015 20.4031L15.7174 19.9382ZM15.5299 20.0124L15.3459 19.5475C15.3134 19.5604 15.2949 19.5596 15.2757 19.5548L15.1549 20.04L15.0341 20.5252C15.2649 20.5826 15.4965 20.5634 15.714 20.4773L15.5299 20.0124ZM15.1549 20.04L15.2757 19.5548L15.0882 19.5081L14.9674 19.9933L14.8466 20.4785L15.0341 20.5252L15.1549 20.04ZM14.9674 19.9933L15.0882 19.5081L14.9007 19.4614L14.7799 19.9466L14.6591 20.4318L14.8466 20.4785L14.9674 19.9933ZM14.7799 19.9466L14.9007 19.4614C14.6781 19.406 14.4535 19.4187 14.2392 19.4941L14.4049 19.9658L14.5707 20.4375C14.6063 20.425 14.6317 20.425 14.6591 20.4318L14.7799 19.9466ZM14.4049 19.9658L14.2392 19.4941L14.0517 19.5599L14.2174 20.0317L14.3832 20.5034L14.5707 20.4375L14.4049 19.9658ZM14.2174 20.0317L14.0517 19.5599L13.8642 19.6258L14.0299 20.0976L14.1957 20.5693L14.3832 20.5034L14.2174 20.0317ZM14.0299 20.0976L13.8642 19.6258C13.8135 19.6436 13.7721 19.6462 13.7328 19.64L13.6549 20.1339L13.577 20.6278C13.7877 20.661 13.9963 20.6393 14.1957 20.5693L14.0299 20.0976ZM13.6549 20.1339L13.7328 19.64L13.5453 19.6104L13.4674 20.1043L13.3895 20.5982L13.577 20.6278L13.6549 20.1339ZM13.4674 20.1043L13.5453 19.6104L13.3578 19.5808L13.2799 20.0747L13.202 20.5686L13.3895 20.5982L13.4674 20.1043ZM13.2799 20.0747L13.3578 19.5808C13.0763 19.5365 12.8213 19.6244 12.6139 19.7727L12.9049 20.1794L13.1959 20.586C13.2195 20.5691 13.2297 20.5669 13.2268 20.5677C13.2253 20.5681 13.2216 20.569 13.2164 20.5693C13.2112 20.5696 13.2062 20.5693 13.202 20.5686L13.2799 20.0747ZM12.9049 20.1794L12.6139 19.7727L12.4264 19.9069L12.7174 20.3135L13.0084 20.7201L13.1959 20.586L12.9049 20.1794ZM12.7174 20.3135L12.4264 19.9069L12.2389 20.0411L12.5299 20.4477L12.8209 20.8543L13.0084 20.7201L12.7174 20.3135ZM12.5299 20.4477L12.2389 20.0411C12.2489 20.0339 12.2739 20.0184 12.3136 20.0083C12.3554 19.9978 12.4012 19.9965 12.4452 20.0058C12.5282 20.0232 12.5541 20.0657 12.5302 20.0385L12.1549 20.3689L11.7797 20.6994C11.8807 20.8141 12.0316 20.9407 12.2396 20.9844C12.4667 21.0321 12.6696 20.9626 12.8209 20.8543L12.5299 20.4477ZM12.1549 20.3689L12.5302 20.0385L12.3427 19.8256L11.9674 20.156L11.5922 20.4864L11.7797 20.6994L12.1549 20.3689ZM11.9674 20.156L12.3427 19.8256L12.1552 19.6126L11.7799 19.9431L11.4047 20.2735L11.5922 20.4864L11.9674 20.156ZM11.7799 19.9431L12.1552 19.6126C12.052 19.4955 11.891 19.3615 11.6656 19.3281C11.4229 19.2922 11.2214 19.3888 11.0834 19.5046L11.4049 19.8876L11.7264 20.2705C11.7134 20.2814 11.6369 20.3347 11.5192 20.3173C11.4188 20.3025 11.3828 20.2486 11.4047 20.2735L11.7799 19.9431ZM11.4049 19.8876L11.0834 19.5046L10.8959 19.6621L11.2174 20.045L11.5389 20.4279L11.7264 20.2705L11.4049 19.8876ZM11.2174 20.045L10.8959 19.6621L10.7084 19.8195L11.0299 20.2024L11.3514 20.5853L11.5389 20.4279L11.2174 20.045ZM11.0299 20.2024L10.7084 19.8195C10.6875 19.837 10.6885 19.8301 10.7121 19.8237C10.7241 19.8205 10.7392 19.8182 10.7561 19.8185C10.773 19.8187 10.7875 19.8214 10.7985 19.8247L10.6549 20.3037L10.5113 20.7826C10.8388 20.8808 11.1342 20.7677 11.3514 20.5853L11.0299 20.2024ZM10.6549 20.3037L10.7985 19.8247L10.611 19.7685L10.4674 20.2474L10.3238 20.7264L10.5113 20.7826L10.6549 20.3037ZM10.4674 20.2474L10.611 19.7685L10.4235 19.7123L10.2799 20.1912L10.1363 20.6702L10.3238 20.7264L10.4674 20.2474ZM10.2799 20.1912L10.4235 19.7123C10.2695 19.6661 10.1136 19.6346 9.95619 19.6183L9.90491 20.1157L9.85363 20.613C9.94617 20.6226 10.0403 20.6414 10.1363 20.6702L10.2799 20.1912ZM9.90491 20.1157L9.95619 19.6183L9.76869 19.599L9.71741 20.0963L9.66613 20.5937L9.85363 20.613L9.90491 20.1157ZM9.71741 20.0963L9.76869 19.599L9.58119 19.5797L9.52991 20.077L9.47863 20.5744L9.66613 20.5937L9.71741 20.0963ZM9.52991 20.077L9.58119 19.5797C9.31299 19.552 9.07056 19.6377 8.86904 19.7781L9.15491 20.1883L9.44078 20.5986C9.46664 20.5805 9.48125 20.5755 9.48471 20.5745C9.48643 20.574 9.4862 20.5742 9.48438 20.5744C9.48251 20.5746 9.48043 20.5746 9.47863 20.5744L9.52991 20.077ZM9.15491 20.1883L8.86904 19.7781L8.68154 19.9088L8.96741 20.319L9.25328 20.7292L9.44078 20.5986L9.15491 20.1883ZM8.96741 20.319L8.68154 19.9088L8.49404 20.0394L8.77991 20.4497L9.06578 20.8599L9.25328 20.7292L8.96741 20.319ZM8.77991 20.4497L8.49404 20.0394C8.49025 20.0421 8.51388 20.025 8.56044 20.022C8.60909 20.0189 8.6427 20.0337 8.65209 20.0391L8.40491 20.4737L8.15773 20.9083C8.29212 20.9848 8.45073 21.0311 8.62438 21.02C8.79593 21.009 8.94457 20.9444 9.06578 20.8599L8.77991 20.4497ZM8.40491 20.4737L8.65209 20.0391L8.46459 19.9324L8.21741 20.3671L7.97023 20.8017L8.15773 20.9083L8.40491 20.4737ZM8.21741 20.3671L8.46459 19.9324L8.27709 19.8258L8.02991 20.2604L7.78273 20.6951L7.97023 20.8017L8.21741 20.3671ZM8.02991 20.2604L8.27709 19.8258C8.09891 19.7245 7.90545 19.6574 7.69945 19.639L7.65491 20.137L7.61037 20.635C7.65437 20.639 7.7109 20.6542 7.78273 20.6951L8.02991 20.2604ZM7.65491 20.137L7.69945 19.639L7.51195 19.6222L7.46741 20.1202L7.42287 20.6183L7.61037 20.635L7.65491 20.137ZM7.46741 20.1202L7.51195 19.6222L7.32445 19.6055L7.27991 20.1035L7.23537 20.6015L7.42287 20.6183L7.46741 20.1202ZM7.27991 20.1035L7.32445 19.6055C7.25694 19.5994 7.1882 19.595 7.12825 19.596C7.10084 19.5964 7.05373 19.5982 7.00166 19.6084C6.97625 19.6133 6.92946 19.6241 6.87627 19.6488C6.83064 19.6699 6.71981 19.7288 6.64502 19.8623L7.08117 20.1067L7.51733 20.3512C7.44441 20.4813 7.33729 20.5373 7.29721 20.5559C7.24956 20.578 7.21015 20.5865 7.19396 20.5897C7.17466 20.5935 7.16047 20.5948 7.15457 20.5953C7.15107 20.5956 7.14848 20.5957 7.14699 20.5958C7.14621 20.5958 7.14563 20.5958 7.14526 20.5958C7.14489 20.5958 7.1447 20.5958 7.1447 20.5958C7.14469 20.5958 7.14484 20.5958 7.14517 20.5958C7.14549 20.5958 7.14595 20.5958 7.14657 20.5958C7.14781 20.5958 7.14956 20.5959 7.15186 20.5959C7.1565 20.596 7.16276 20.5963 7.17083 20.5967C7.18714 20.5976 7.20844 20.5991 7.23537 20.6015L7.27991 20.1035ZM7.08117 20.1067L6.64502 19.8623L6.63379 19.8823L7.06994 20.1268L7.50609 20.3713L7.51733 20.3512L7.08117 20.1067ZM7.06994 20.1268L6.63379 19.8823L6.62256 19.9023L7.05871 20.1468L7.49486 20.3913L7.50609 20.3713L7.06994 20.1268ZM7.05871 20.1468L6.62256 19.9023C6.65381 19.8466 6.6895 19.8084 6.71335 19.7858C6.73812 19.7625 6.76067 19.7461 6.77593 19.736C6.80541 19.7164 6.82955 19.7053 6.83886 19.7011C6.85829 19.6925 6.86874 19.69 6.86006 19.6926C6.84573 19.6968 6.81232 19.7053 6.75226 19.7179L6.85484 20.2072L6.95741 20.6966C7.02578 20.6823 7.09056 20.6672 7.14419 20.6513C7.16949 20.6438 7.20636 20.6321 7.24465 20.6151C7.2634 20.6068 7.29507 20.5917 7.3302 20.5683C7.35532 20.5516 7.43592 20.4965 7.49486 20.3913L7.05871 20.1468ZM6.85484 20.2072L6.75226 19.7179L6.55962 19.7583L6.66219 20.2476L6.76476 20.737L6.95741 20.6966L6.85484 20.2072Z" fill="var(--stroke-0, #91CCFF)"/>
</g>
</svg>
