<svg preserveAspectRatio="none" width="100%" height="100%" overflow="visible" style="display: block;" viewBox="0 0 113.75 61.75" fill="none" xmlns="http://www.w3.org/2000/svg">
<path id="Vector" d="M88.4747 12.35C85.865 12.35 83.356 12.7367 80.9867 13.455C78.1852 5.62575 70.5835 0 61.6135 0C51.9967 0 43.9432 6.47075 41.7137 15.1937C39.2489 13.3524 36.2559 12.3551 33.1792 12.35C25.324 12.35 18.9605 18.5705 18.9605 26.2438C18.9605 28.106 19.3505 29.8773 20.0297 31.5023C18.6531 31.1076 17.2302 30.8967 15.7982 30.875C7.072 30.875 0 37.7845 0 46.3125C0 54.8405 7.072 61.75 15.7982 61.75H88.4715C102.433 61.75 113.75 50.6935 113.75 37.05C113.75 23.4065 102.433 12.35 88.4747 12.35Z" fill="var(--fill-0, #F6FBFE)"/>
</svg>
