<svg xmlns="http://www.w3.org/2000/svg" fill="none" overflow="visible" preserveAspectRatio="none" style="display:block" viewBox="0 0 87.748 55.25"><path fill="var(--fill-0, #ffac33)" d="M42.25 6.5s0-6.5 6.5-6.5 6.5 6.5 6.5 6.5V13s0 6.5-6.5 6.5-6.5-6.5-6.5-6.5zM13 42.25s6.5 0 6.5 6.5-6.5 6.5-6.5 6.5H6.5s-6.5 0-6.5-6.5 6.5-6.5 6.5-6.5zm12.584-22.61s4.596 4.595 0 9.19c-4.596 4.596-9.191 0-9.191 0l-4.599-4.595s-4.595-4.595 0-9.194c4.599-4.596 9.194 0 9.194 0zm55.526 9.19s-4.595 4.596-9.19 0c-4.596-4.595 0-9.19 0-9.19l4.595-4.596s4.595-4.595 9.19 0c4.596 4.596 0 9.191 0 9.191z"/></svg>