<svg xmlns="http://www.w3.org/2000/svg" fill="none" overflow="visible" preserveAspectRatio="none" style="display:block" viewBox="0 0 113.75 61.75"><path fill="var(--fill-0, #f6fbfe)" d="M88.475 12.35c-2.61 0-5.119.387-7.488 1.105C78.185 5.625 70.584 0 61.614 0c-9.617 0-17.67 6.47-19.9 15.194a14.3 14.3 0 0 0-8.535-2.844c-7.855 0-14.219 6.22-14.219 13.894 0 1.862.39 3.633 1.07 5.258a16.3 16.3 0 0 0-4.232-.627C7.072 30.875 0 37.785 0 46.313 0 54.84 7.072 61.75 15.798 61.75h72.674c13.961 0 25.278-11.056 25.278-24.7s-11.317-24.7-25.275-24.7"/></svg>