<svg xmlns="http://www.w3.org/2000/svg" fill="none" overflow="visible" preserveAspectRatio="none" style="display:block" viewBox="0 0 112.993 46.52"><path fill="var(--fill-0, #5dadec)" d="M95.365 13.755a9.303 9.303 0 0 0 3.227 12.866c4.492 2.674 10.33 1.25 13.039-3.183a9.26 9.26 0 0 0-.066-9.774L103.771 0zM70.251 23.17a9.3 9.3 0 0 0 3.227 12.867c4.491 2.674 10.33 1.249 13.039-3.183a9.26 9.26 0 0 0-.066-9.775L78.66 9.417zm-37.5-9.416a9.303 9.303 0 0 0 3.226 12.866c4.492 2.674 10.33 1.25 13.04-3.183a9.23 9.23 0 0 0-.07-9.774L41.16 0zM1.36 32.305a9.304 9.304 0 0 0 3.23 12.867c4.491 2.67 10.33 1.249 13.038-3.183a9.23 9.23 0 0 0-.069-9.775L9.771 18.551z"/></svg>