<svg preserveAspectRatio="none" width="100%" height="100%" overflow="visible" style="display: block;" viewBox="0 0 112.993 46.5195" fill="none" xmlns="http://www.w3.org/2000/svg">
<path id="Vector" d="M95.3652 13.7546C94.7221 14.8085 94.2952 15.9799 94.1094 17.2004C93.9236 18.421 93.9826 19.6663 94.2829 20.8638C94.5833 22.0613 95.1189 23.1871 95.8587 24.1755C96.5985 25.1639 97.5276 25.9952 98.5919 26.6209C103.084 29.2953 108.922 27.8702 111.631 23.4381C112.533 21.9648 113.004 20.2687 112.993 18.5414C112.981 16.8141 112.487 15.1245 111.565 13.6636L103.771 0L95.3652 13.7546ZM70.2509 23.1713C69.6078 24.2252 69.181 25.3965 68.9952 26.6171C68.8094 27.8376 68.8683 29.083 69.1687 30.2805C69.469 31.478 70.0047 32.6038 70.7445 33.5922C71.4843 34.5806 72.4134 35.4119 73.4777 36.0376C77.9694 38.7119 83.8078 37.2869 86.5166 32.8548C87.4184 31.3815 87.8901 29.6854 87.8785 27.9581C87.8669 26.2308 87.3723 24.5412 86.4507 23.0803L78.66 9.41667L70.2509 23.1713ZM32.7506 13.7546C32.1075 14.8085 31.6807 15.9799 31.4949 17.2004C31.3091 18.421 31.368 19.6663 31.6684 20.8638C31.9687 22.0613 32.5044 23.1871 33.2442 24.1755C33.984 25.1639 34.9131 25.9952 35.9774 26.6209C40.4691 29.2953 46.3075 27.8702 49.0163 23.4381C49.9212 21.9658 50.3944 20.269 50.3822 18.5409C50.37 16.8129 49.8728 15.1229 48.9473 13.6636L41.1597 0L32.7506 13.7546ZM1.36172 32.3054C0.718649 33.3594 0.291773 34.5307 0.105966 35.7513C-0.0798399 36.9718 -0.0208594 38.2171 0.279471 39.4146C0.5798 40.6122 1.11547 41.7379 1.85527 42.7263C2.59507 43.7148 3.52419 44.546 4.5885 45.1718C9.08025 47.8429 14.9186 46.421 17.6274 41.9889C18.5323 40.5166 19.0055 38.8198 18.9933 37.0918C18.9811 35.3637 18.4839 33.6738 17.5584 32.2144L9.7708 18.5508L1.36172 32.3054Z" fill="var(--fill-0, #5DADEC)"/>
</svg>
