<svg preserveAspectRatio="none" width="100%" height="100%" overflow="visible" style="display: block;" viewBox="0 0 37.6667 103.583" fill="none" xmlns="http://www.w3.org/2000/svg">
<path id="Vector" d="M0 83.1806C0 81.9318 0.496055 80.7342 1.37904 79.8513C2.26202 78.9683 3.45961 78.4722 4.70833 78.4722C5.95706 78.4722 7.15464 78.9683 8.03763 79.8513C8.92061 80.7342 9.41667 81.9318 9.41667 83.1806V84.75C9.41667 84.75 9.41667 94.1667 18.8333 94.1667C28.25 94.1667 28.25 84.75 28.25 84.75V4.70833C28.25 3.45961 28.7461 2.26202 29.629 1.37904C30.512 0.496055 31.7096 0 32.9583 0C34.2071 0 35.4046 0.496055 36.2876 1.37904C37.1706 2.26202 37.6667 3.45961 37.6667 4.70833V84.75C37.6667 84.75 37.6667 103.583 18.8333 103.583C0 103.583 0 84.75 0 84.75V83.1806Z" fill="var(--fill-0, #66757F)"/>
</svg>
