<svg xmlns="http://www.w3.org/2000/svg" fill="none" overflow="visible" preserveAspectRatio="none" style="display:block" viewBox="0 0 109 60.556"><path fill="var(--fill-0, #f6fbfe)" d="M84.778 12.111c-2.498 0-4.905.379-7.173 1.081A19.68 19.68 0 0 0 59.042 0C49.825 0 42.11 6.346 39.97 14.9a13.5 13.5 0 0 0-8.178-2.789 13.625 13.625 0 0 0-13.625 13.625c0 1.829.372 3.567 1.026 5.16a15 15 0 0 0-4.054-.618C6.776 30.278 0 37.054 0 45.417s6.776 15.139 15.139 15.139h69.639A24.22 24.22 0 0 0 109 36.333a24.22 24.22 0 0 0-24.222-24.222"/></svg>