<svg preserveAspectRatio="none" width="100%" height="100%" overflow="visible" style="display: block;" viewBox="0 0 109 60.5556" fill="none" xmlns="http://www.w3.org/2000/svg">
<path id="Vector" d="M84.7778 12.1111C82.2799 12.1111 79.8728 12.4896 77.605 13.192C76.2599 9.34023 73.7509 6.00168 70.4252 3.63829C67.0996 1.2749 63.1216 0.00349975 59.0417 0C49.8251 0 42.1103 6.34622 39.9697 14.8997C37.6227 13.0996 34.7495 12.1199 31.7917 12.1111C28.1781 12.1111 24.7125 13.5466 22.1573 16.1018C19.6022 18.657 18.1667 22.1225 18.1667 25.7361C18.1667 27.5649 18.5391 29.3028 19.1931 30.8954C17.876 30.5066 16.512 30.2988 15.1389 30.2778C6.77617 30.2778 0 37.0539 0 45.4167C0 53.7794 6.77617 60.5556 15.1389 60.5556H84.7778C91.2019 60.5556 97.3629 58.0036 101.905 53.461C106.448 48.9185 109 42.7575 109 36.3333C109 29.9092 106.448 23.7482 101.905 19.2056C97.3629 14.6631 91.2019 12.1111 84.7778 12.1111Z" fill="var(--fill-0, #F6FBFE)"/>
</svg>
