<svg xmlns="http://www.w3.org/2000/svg" fill="none" overflow="visible" preserveAspectRatio="none" style="display:block" viewBox="0 0 103.482 45.417"><path fill="var(--fill-0, #5dadec)" d="M18.559 17.41a1.514 1.514 0 0 0-2.068-.554l-5.593 3.23v-6.461a1.514 1.514 0 1 0-3.028 0v6.464l-5.598-3.23a1.515 1.515 0 1 0-1.514 2.625l5.596 3.224L.758 25.94a1.515 1.515 0 0 0 1.514 2.625L7.87 25.33v6.462a1.514 1.514 0 0 0 3.028 0v-6.459l5.596 3.231a1.516 1.516 0 0 0 1.514-2.625l-5.596-3.23 5.595-3.231a1.514 1.514 0 0 0 .551-2.068m30.277 12.11a1.514 1.514 0 0 0-2.068-.553l-5.592 3.23v-6.46a1.514 1.514 0 0 0-3.028 0V32.2l-5.598-3.23a1.515 1.515 0 1 0-1.514 2.625l5.595 3.23-5.595 3.231a1.515 1.515 0 1 0 1.514 2.625l5.598-3.24v6.462a1.514 1.514 0 0 0 3.028 0v-6.459l5.595 3.231a1.513 1.513 0 0 0 2.26-1.115 1.52 1.52 0 0 0-.746-1.51l-5.595-3.23 5.595-3.231a1.514 1.514 0 0 0 .551-2.068m-16.743-9.84a1.514 1.514 0 0 0 3.027 0v-6.458l5.596 3.23a1.516 1.516 0 0 0 1.514-2.624l-5.596-3.23 5.596-3.231a1.517 1.517 0 0 0-1.514-2.625L35.12 7.975V1.514a1.514 1.514 0 0 0-3.027 0v6.464l-5.599-3.23a1.515 1.515 0 1 0-1.514 2.625l5.596 3.23-5.596 3.23a1.515 1.515 0 0 0 1.514 2.626l5.599-3.24zm38.9-.2a1.515 1.515 0 1 0 1.514-2.624l-5.595-3.231 5.595-3.23a1.517 1.517 0 0 0-1.513-2.626l-5.596 3.234V4.542a1.514 1.514 0 1 0-3.027 0v6.464l-5.599-3.23a1.515 1.515 0 1 0-1.514 2.624l5.596 3.231-5.596 3.23a1.515 1.515 0 0 0 1.514 2.626l5.599-3.24v6.461a1.514 1.514 0 0 0 3.027 0V16.25zm31.792-5.652-5.595-3.23 5.595-3.231a1.516 1.516 0 0 0-1.514-2.625l-5.595 3.233V1.514a1.514 1.514 0 0 0-3.028 0v6.464l-5.598-3.23a1.515 1.515 0 1 0-1.514 2.625l5.595 3.23-5.595 3.23a1.515 1.515 0 0 0 1.514 2.626l5.598-3.24v6.462a1.513 1.513 0 1 0 3.028 0v-6.459l5.595 3.23a1.52 1.52 0 0 0 2.008-.59 1.515 1.515 0 0 0-.494-2.034M88.197 29.52a1.514 1.514 0 0 0-2.068-.554l-5.592 3.23v-6.46a1.514 1.514 0 0 0-3.028 0V32.2l-5.598-3.23a1.515 1.515 0 1 0-1.514 2.625l5.595 3.23-5.595 3.231a1.515 1.515 0 1 0 1.514 2.625l5.598-3.24v6.462a1.514 1.514 0 0 0 3.028 0v-6.459l5.595 3.231a1.513 1.513 0 0 0 2.26-1.115 1.51 1.51 0 0 0-.746-1.51l-5.595-3.23 5.595-3.231a1.514 1.514 0 0 0 .551-2.068"/></svg>