<svg xmlns="http://www.w3.org/2000/svg" fill="none" overflow="visible" preserveAspectRatio="none" style="display:block" viewBox="0 0 110 110"><path fill="var(--fill-0, #ffac33)" d="M48.889 6.111S48.889 0 55 0s6.111 6.111 6.111 6.111v6.111s0 6.111-6.111 6.111-6.111-6.11-6.111-6.11zm55 42.778S110 48.889 110 55s-6.111 6.111-6.111 6.111h-6.111s-6.111 0-6.111-6.111 6.11-6.111 6.11-6.111zm-91.667 0s6.111 0 6.111 6.111-6.11 6.111-6.11 6.111H6.11S0 61.111 0 55s6.111-6.111 6.111-6.111zM27.87 22.284s4.32 4.32 0 8.641-8.641 0-8.641 0l-4.324-4.317s-4.32-4.32 0-8.644c4.324-4.32 8.644 0 8.644 0zm64.166 64.167s4.32 4.32 0 8.64c-4.32 4.322-8.64 0-8.64 0l-4.321-4.32s-4.32-4.32 0-8.64 8.64 0 8.64 0zm-1.262-55.526s-4.32 4.32-8.64 0 0-8.64 0-8.64l4.32-4.321s4.32-4.32 8.641 0 0 8.64 0 8.64zM26.608 95.092s-4.32 4.32-8.641 0 0-8.641 0-8.641l4.32-4.32s4.32-4.321 8.641 0 0 8.64 0 8.64zm22.28 2.686s0-6.111 6.112-6.111c6.111 0 6.111 6.11 6.111 6.11v6.112S61.111 110 55 110s-6.111-6.111-6.111-6.111z"/></svg>