<svg preserveAspectRatio="none" width="100%" height="100%" overflow="visible" style="display: block;" viewBox="0 0 28.1336 40.7509" fill="none" xmlns="http://www.w3.org/2000/svg">
<g id="Union">
<path d="M13.2268 1.00344C13.7009 1.01174 13.9562 1.02491 14.4358 1.02492C17.3194 1.02504 20.779 2.05169 23.3928 5.43801C25.1071 7.65923 25.8852 10.2696 26.3079 12.3843C26.7333 14.5131 26.896 16.7108 27.0305 18.187C27.2118 20.1766 27.1886 23.2016 26.677 26.3482C26.1786 29.4132 25.1213 33.2023 22.803 36.2134C21.8796 37.4127 20.4062 38.4866 18.7493 39.1177C16.9525 39.8019 14.5094 40.1216 11.9299 39.0835C10.9337 38.6826 10.2401 38.4291 9.6809 38.2232C9.22544 38.0554 8.50028 37.7964 7.84692 37.4478C6.1545 36.5445 5.14587 35.097 4.57544 34.395C3.12856 32.6146 2.09722 29.846 1.53344 26.8823C0.935506 23.7389 0.755839 19.8318 1.43676 15.4204C1.48697 15.0953 1.56958 14.7822 1.677 14.4839C1.68255 14.2153 1.70851 13.9432 1.75903 13.6704C2.13583 11.6364 2.86164 9.31437 3.91821 7.03273C4.49555 5.78609 5.22838 4.54929 6.43383 3.59133C6.98279 3.15513 7.50851 2.88293 7.63794 2.81301C7.64078 2.81151 7.64408 2.81053 7.64673 2.8091C8.63643 2.07574 9.85079 1.33582 11.5198 1.09133C12.2154 0.989441 12.8484 0.996811 13.2268 1.00344Z" fill="var(--fill-0, #FFFEEF)"/>
<path d="M13.2268 1.00344L13.2443 0.00358863L13.2443 0.00358846L13.2268 1.00344ZM14.4358 1.02492L14.4358 0.0249196H14.4358L14.4358 1.02492ZM23.3928 5.43801L24.1845 4.82702L24.1844 4.82699L23.3928 5.43801ZM26.3079 12.3843L27.2885 12.1883L27.2885 12.1883L26.3079 12.3843ZM27.0305 18.187L26.0346 18.2777L26.0346 18.2778L27.0305 18.187ZM26.677 26.3482L27.664 26.5087L27.664 26.5087L26.677 26.3482ZM22.803 36.2134L23.5953 36.8235L23.5953 36.8234L22.803 36.2134ZM18.7493 39.1177L19.1052 40.0522L19.1052 40.0522L18.7493 39.1177ZM11.9299 39.0835L12.3033 38.1558H12.3033L11.9299 39.0835ZM9.6809 38.2232L9.33524 39.1615H9.33524L9.6809 38.2232ZM7.84692 37.4478L7.37606 38.33L7.37613 38.33L7.84692 37.4478ZM4.57544 34.395L5.35149 33.7644L5.35149 33.7644L4.57544 34.395ZM1.53344 26.8823L0.551058 27.0692L0.551061 27.0692L1.53344 26.8823ZM1.43676 15.4204L0.448483 15.2678L0.448468 15.2679L1.43676 15.4204ZM1.677 14.4839L2.61785 14.8227L2.6734 14.6685L2.67678 14.5046L1.677 14.4839ZM1.75903 13.6704L0.775759 13.4883L0.775748 13.4883L1.75903 13.6704ZM3.91821 7.03273L3.0108 6.61249L3.01078 6.61253L3.91821 7.03273ZM6.43383 3.59133L5.81173 2.80839L5.81168 2.80843L6.43383 3.59133ZM7.63794 2.81301L7.17236 1.92793L7.16259 1.93321L7.63794 2.81301ZM7.64673 2.8091L8.12315 3.68832L8.18529 3.65464L8.24208 3.61256L7.64673 2.8091ZM11.5198 1.09133L11.3749 0.101881L11.3748 0.101887L11.5198 1.09133ZM13.2268 1.00344L13.2093 2.00328C13.6524 2.01104 13.9474 2.02491 14.4358 2.02492L14.4358 1.02492L14.4358 0.0249196C13.965 0.024914 13.7493 0.0124341 13.2443 0.00358863L13.2268 1.00344ZM14.4358 1.02492L14.4357 2.02492C17.0775 2.02503 20.2148 2.95724 22.6012 6.04903L23.3928 5.43801L24.1844 4.82699C21.3433 1.14614 17.5613 0.0250455 14.4358 0.0249196L14.4358 1.02492ZM23.3928 5.43801L22.6012 6.04899C24.1786 8.0928 24.9171 10.5283 25.3273 12.5803L26.3079 12.3843L27.2885 12.1883C26.8533 10.0109 26.0357 7.22566 24.1845 4.82702L23.3928 5.43801ZM26.3079 12.3843L25.3272 12.5803C25.7397 14.6441 25.898 16.7776 26.0346 18.2777L27.0305 18.187L28.0264 18.0963C27.8941 16.644 27.7269 14.3821 27.2885 12.1883L26.3079 12.3843ZM27.0305 18.187L26.0346 18.2778C26.2084 20.1855 26.1878 23.1261 25.69 26.1877L26.677 26.3482L27.664 26.5087C28.1895 23.2771 28.2151 20.1676 28.0264 18.0963L27.0305 18.187ZM26.677 26.3482L25.69 26.1877C25.2028 29.1836 24.1821 32.7829 22.0106 35.6034L22.803 36.2134L23.5953 36.8234C26.0604 33.6216 27.1544 29.6428 27.664 26.5087L26.677 26.3482ZM22.803 36.2134L22.0106 35.6033C21.2126 36.6398 19.8981 37.6101 18.3933 38.1832L18.7493 39.1177L19.1052 40.0522C20.9143 39.3632 22.5465 38.1856 23.5953 36.8235L22.803 36.2134ZM18.7493 39.1177L18.3934 38.1832C16.7754 38.7993 14.5985 39.0795 12.3033 38.1558L11.9299 39.0835L11.5566 40.0112C14.4202 41.1636 17.1297 40.8045 19.1052 40.0522L18.7493 39.1177ZM11.9299 39.0835L12.3033 38.1558C11.292 37.7488 10.5861 37.4909 10.0266 37.2848L9.6809 38.2232L9.33524 39.1615C9.89403 39.3674 10.5754 39.6163 11.5566 40.0112L11.9299 39.0835ZM9.6809 38.2232L10.0266 37.2848C9.55428 37.1108 8.89857 36.8755 8.31771 36.5655L7.84692 37.4478L7.37613 38.33C8.10199 38.7174 8.89661 38.9999 9.33524 39.1615L9.6809 38.2232ZM7.84692 37.4478L8.31778 36.5656C6.84424 35.7791 5.97277 34.5289 5.35149 33.7644L4.57544 34.395L3.79938 35.0257C4.31896 35.6651 5.46476 37.3099 7.37606 38.33L7.84692 37.4478ZM4.57544 34.395L5.35149 33.7644C4.05357 32.1673 3.06525 29.5836 2.51583 26.6955L1.53344 26.8823L0.551061 27.0692C1.12919 30.1083 2.20355 33.062 3.79939 35.0257L4.57544 34.395ZM1.53344 26.8823L2.51583 26.6955C1.93905 23.6632 1.76164 19.871 2.42506 15.573L1.43676 15.4204L0.448468 15.2679C-0.249962 19.7927 -0.0680348 23.8145 0.551058 27.0692L1.53344 26.8823ZM1.43676 15.4204L2.42505 15.5731C2.46478 15.3158 2.53062 15.0649 2.61785 14.8227L1.677 14.4839L0.736144 14.1451C0.608528 14.4995 0.509167 14.8749 0.448483 15.2678L1.43676 15.4204ZM1.677 14.4839L2.67678 14.5046C2.6813 14.2864 2.70232 14.0685 2.74231 13.8525L1.75903 13.6704L0.775748 13.4883C0.714712 13.8179 0.683808 14.1442 0.677212 14.4632L1.677 14.4839ZM1.75903 13.6704L2.7423 13.8526C3.10312 11.9048 3.80244 9.66252 4.82564 7.45294L3.91821 7.03273L3.01078 6.61253C1.92085 8.96622 1.16853 11.368 0.775759 13.4883L1.75903 13.6704ZM3.91821 7.03273L4.82562 7.45297C5.37603 6.26448 6.02843 5.19081 7.05599 4.37422L6.43383 3.59133L5.81168 2.80843C4.42834 3.90776 3.61507 5.3077 3.0108 6.61249L3.91821 7.03273ZM6.43383 3.59133L7.05594 4.37426C7.5279 3.99925 7.98179 3.76385 8.11328 3.6928L7.63794 2.81301L7.16259 1.93321C7.03524 2.00201 6.43768 2.31102 5.81173 2.80839L6.43383 3.59133ZM7.63794 2.81301L8.10349 3.69803C8.08855 3.70588 8.07526 3.71238 8.06426 3.71755C8.05328 3.72271 8.04389 3.72686 8.03682 3.72992C8.02981 3.73295 8.0242 3.73527 8.02106 3.73656C8.01827 3.73771 8.01581 3.7387 8.01691 3.73825C8.017 3.73822 8.02047 3.73682 8.02454 3.73514C8.02888 3.73335 8.03586 3.73045 8.04436 3.72674C8.05289 3.72302 8.06406 3.71801 8.07699 3.71183C8.08993 3.70565 8.1056 3.69783 8.12315 3.68832L7.64673 2.8091L7.1703 1.92988C7.18719 1.92073 7.20218 1.91325 7.21442 1.9074C7.22665 1.90155 7.23711 1.89687 7.24492 1.89347C7.25269 1.89008 7.25893 1.88748 7.26252 1.886C7.26585 1.88463 7.26856 1.88354 7.2679 1.8838C7.26789 1.88381 7.26787 1.88381 7.26784 1.88383C7.26782 1.88384 7.26778 1.88385 7.26774 1.88387C7.26766 1.8839 7.26754 1.88395 7.26739 1.88401C7.26711 1.88412 7.26668 1.8843 7.26615 1.88451C7.26512 1.88493 7.26348 1.8856 7.26149 1.88641C7.25759 1.88802 7.25122 1.89065 7.24345 1.89401C7.23563 1.89739 7.2255 1.90188 7.21378 1.90739C7.20205 1.9129 7.18803 1.91975 7.17238 1.92798L7.63794 2.81301ZM7.64673 2.8091L8.24208 3.61256C9.17131 2.92401 10.2291 2.29107 11.6647 2.08077L11.5198 1.09133L11.3748 0.101887C9.47246 0.380575 8.10155 1.22746 7.05137 2.00564L7.64673 2.8091ZM11.5198 1.09133L11.6647 2.08077C12.2746 1.99145 12.8385 1.99679 13.2093 2.00328L13.2268 1.00344L13.2443 0.00358846C12.8582 -0.00317 12.1563 -0.0125699 11.3749 0.101881L11.5198 1.09133Z" fill="var(--stroke-0, #F4C280)"/>
</g>
</svg>
