<svg xmlns="http://www.w3.org/2000/svg" fill="none" overflow="visible" preserveAspectRatio="none" style="display:block" viewBox="0 0 28.134 40.751"><path fill="var(--fill-0, #fffeef)" d="M13.227 1.003c.474.009.73.022 1.209.022 2.883 0 6.343 1.027 8.957 4.413 1.714 2.221 2.492 4.832 2.915 6.946.425 2.13.588 4.327.723 5.803.18 1.99.158 5.014-.354 8.161-.498 3.065-1.556 6.854-3.874 9.865-.923 1.2-2.397 2.274-4.054 2.905-1.796.684-4.24 1.003-6.819-.035-.996-.4-1.69-.654-2.25-.86-.454-.168-1.18-.427-1.833-.775-1.692-.904-2.701-2.351-3.272-3.053-1.446-1.78-2.478-4.549-3.042-7.513-.598-3.143-.777-7.05-.096-11.462.05-.325.133-.638.24-.936q.008-.403.082-.814c.377-2.034 1.103-4.356 2.16-6.637.577-1.247 1.31-2.484 2.515-3.442.549-.436 1.075-.708 1.204-.778l.009-.004c.99-.733 2.204-1.473 3.873-1.718a10.4 10.4 0 0 1 1.707-.088"/><path fill="var(--stroke-0, #f4c280)" d="m13.227 1.003.017-1zm1.209.022v-1zm8.957 4.413.791-.611zm2.915 6.946.98-.196zm.723 5.803-.996.09zm-.354 8.161.987.16zm-3.874 9.865.792.61zm-4.054 2.905.356.934zm-6.819-.035-.373.928zm-2.25-.86-.345.938zm-1.833-.775-.47.882zm-3.272-3.053.777-.63zm-3.042-7.513-.982.187zM1.437 15.42l-.988-.152zm.24-.936.94.339.056-.155.004-.163zm.082-.814-.983-.182zm2.16-6.637-.908-.42zM6.433 3.59l-.622-.783zm1.204-.778-.462-.887-.007.004-.006.003zm.009-.004.476.88.062-.034.057-.042zm3.873-1.718L11.374.1zm1.707-.088-.018 1c.443.008.739.022 1.227.022v-2c-.47 0-.687-.013-1.192-.021zm1.209.022v1c2.642 0 5.779.932 8.165 4.024l.792-.611.791-.611C21.343 1.146 17.56.024 14.435.024zm8.957 4.413-.792.611c1.578 2.044 2.316 4.48 2.726 6.531l.98-.196.982-.196c-.436-2.177-1.253-4.962-3.105-7.361zm2.915 6.946-.98.196c.412 2.064.57 4.198.707 5.698l.995-.091.996-.09c-.132-1.453-.299-3.715-.738-5.909zm.723 5.803-.996.09c.174 1.909.153 4.849-.345 7.91l.987.161.987.16c.526-3.231.551-6.34.362-8.412zm-.354 8.161-.987-.16c-.487 2.996-1.508 6.595-3.68 9.415l.793.61.792.61c2.466-3.201 3.56-7.18 4.07-10.314zm-3.874 9.865-.792-.61c-.798 1.037-2.113 2.007-3.618 2.58l.356.935.356.934c1.81-.689 3.442-1.867 4.49-3.228zm-4.054 2.905-.356-.935c-1.617.616-3.795.896-6.09-.027l-.373.928-.373.927c2.863 1.152 5.573.793 7.548.041zm-6.819-.035.373-.927c-1.01-.407-1.717-.665-2.276-.871l-.346.938-.346.938c.559.206 1.24.455 2.222.85zm-2.25-.86.347-.938c-.473-.174-1.128-.41-1.71-.72l-.47.883-.47.882c.725.387 1.52.67 1.958.831zm-1.833-.775.47-.883c-1.473-.786-2.344-2.036-2.965-2.8l-.777.63-.776.63c.52.64 1.666 2.285 3.577 3.305zm-3.272-3.053.776-.63c-1.297-1.598-2.286-4.181-2.835-7.07l-.983.187-.982.187c.578 3.04 1.652 5.993 3.248 7.957zm-3.042-7.513.983-.187c-.577-3.032-.754-6.824-.09-11.122l-.99-.153-.988-.152c-.698 4.525-.516 8.546.103 11.801zM1.437 15.42l.988.153a4 4 0 0 1 .193-.75l-.941-.34-.94-.338c-.128.354-.228.73-.288 1.123zm.24-.936 1 .02q.006-.327.065-.652l-.983-.182-.983-.182q-.09.496-.099.975zm.082-.814.983.183c.361-1.948 1.06-4.19 2.084-6.4l-.908-.42-.907-.42C1.92 8.966 1.169 11.368.776 13.488zm2.16-6.637.907.42c.55-1.189 1.202-2.262 2.23-3.079l-.622-.783-.622-.783c-1.384 1.1-2.197 2.5-2.801 3.805zM6.433 3.59l.622.783c.472-.375.926-.61 1.057-.681l-.475-.88-.475-.88c-.128.069-.725.378-1.351.875zm1.204-.778L8.1 3.7l-.078.036-.004.002a1 1 0 0 0 .105-.05l-.476-.879-.477-.88a1 1 0 0 1 .097-.045l-.006.003a1 1 0 0 0-.085.04zm.009-.004.595.804c.93-.689 1.987-1.322 3.423-1.532l-.145-.99-.145-.99C9.473.382 8.102 1.228 7.05 2.007zm3.873-1.718.145.99a9.4 9.4 0 0 1 1.544-.078l.018-1 .017-1a11.4 11.4 0 0 0-1.87.099z"/><ellipse cx="16.682" cy="18.175" fill="var(--fill-0, #424242)" rx="7.122" ry="11.534"/><path fill="var(--fill-0, white)" d="m12.825 23.942.333 1.55h1.078l-.872.957.333 1.55-.872-.958-.872.958.333-1.55-.872-.957h1.078z"/><path fill="var(--stroke-0, white)" d="m12.874 24.047-.136.063zm.024.052.136-.063zm.027.11-.15.006zm.002.056.15-.006zm.003.057-.15.007zm.02.11.143-.046zm.018.055-.143.047zm.018.053-.143.047zm.024.11-.149.018zm.014.112.149-.018zm0 .115-.148-.014zm-.01.118-.15-.015zm.01.113.144-.041zm.03.108-.145.04zm.033.108-.143.046zm.11.171-.023.148zm.232 0-.066-.134zm.056-.027-.066-.134zm.056-.028.067.135zm.226.045-.06.138zm.112.03.016-.149zm.056.007-.016.149zm.056.006-.016.149zm.097.002.016.149zm.04-.004.016.149zm.04-.005-.015-.149zm.005.04-.116-.096zm-.036.043.115.096zm-.105.133-.122-.087zm-.033.046.123.087zm-.032.046.122.087zm-.09.07-.058-.14zm-.116.047.056.139zm-.069.09-.148-.024zm-.021.132.148.024zm-.105.134.087.122zm-.046.033-.088-.122zm-.05.072-.15-.011zm-.003.038.15.011zm-.003.039-.15-.011zm.006.094.148-.024zm.018.111-.148.024zm.014.112.15-.01zm.004.057-.15.01zm.004.057.15-.011zm-.015.118.143.044zm-.038.123-.144-.044zm.01.113.13-.077zm.061.102-.129.076zm.055.103-.136.063zm.048.105.136-.063zm.04.106-.143.044zm.034.108.143-.043zm-.004.078.113.098zm-.02.023-.114-.098zm-.02.023-.114-.098zm-.046-.03.136-.063zm-.05-.107-.135.063zm-.084-.075.049-.141zm-.121-.042-.05.142zm-.08-.08-.142.048zm-.039-.116.143-.047zm-.059-.099-.107.106zm-.04-.04.108-.105zm-.039-.04-.107.105zm-.097-.063-.056.139zm-.058-.024-.056.14zm-.058-.023.056-.14zm-.082-.026-.013.15zm-.047-.004.014-.15zm-.07.032.09.12zm-.178.142-.106-.106zm-.04.04.106.106zm-.04.04.106.106zm-.073.086.123.086zm-.065.092-.123-.086zm-.084.228-.145-.042zm-.08.079.043.144zm-.126.038-.043-.143zm-.041-.012.124.085zm.021-.03.124.084zm.022-.032.123.085zm.03-.087-.148-.024zm.034-.222.15.016zm.007-.057-.15-.016zm.006-.056.15.017zm.065-.216-.141-.051zm.005-.114.147-.033zm-.027-.12-.146.033zm.027-.11-.114-.097zm.083-.097.114.097zm.042-.106-.15-.002zm0-.058.15.002zm.001-.057-.15-.002zm-.02-.109.138-.058zm-.043-.103-.139.057zm-.059-.094-.113.099zm-.037-.042-.113.099zm-.037-.043.113-.099zm-.089-.07-.073.13zm-.103-.059-.074.131zm-.092-.069-.106.106zm-.079-.08-.107.106zm-.069-.089-.129.077zm-.06-.098-.128.077zm-.063-.097-.121.089zm-.07-.095.121-.088zm.022-.045-.007.15zm.112.005.007-.15zm.113.018.04-.144zm.45.014-.064.136zm.056.027-.063.136zm.056.026.063-.136zm.107-.007.083.125zm.101-.067-.083-.125zm.056-.09.15.014zm.01-.113.15.014zm.033-.108-.134-.069zm.026-.052.134.069zm.028-.397.147.028zm.02-.11-.147-.028zm.022-.11-.147-.031zm.023-.111-.147-.03zm.019-.111-.149-.02zm.015-.112.149.02zm.025-.097-.139-.058zm.017-.042.139.058zm.018-.041.138.058zm.022-.041-.032.146zm.01.002.031-.147zm.03.053-.137.064zm.024.053-.136.063.024.052.136-.063.136-.063-.025-.053zm.024.052-.136.063a.14.14 0 0 1 .013.053l.15-.007.15-.006a.4.4 0 0 0-.041-.166zm.027.11-.15.006.002.057.15-.007.15-.006-.002-.058zm.002.056-.15.007.003.057.15-.007.15-.006-.003-.057zm.003.057-.15.007a.6.6 0 0 0 .028.15l.142-.046.143-.047a.3.3 0 0 1-.013-.07zm.02.11-.142.048.017.054.143-.047.142-.047-.017-.054zm.018.055-.143.047.018.053.143-.047.142-.047-.018-.053zm.018.053-.143.047a.4.4 0 0 1 .018.081l.15-.018.148-.018a.7.7 0 0 0-.03-.139zm.024.11-.149.018.007.056.149-.018.149-.018-.007-.056zm.007.056-.149.018.007.056.149-.018.149-.018-.007-.056zm.007.056-.15.018a.4.4 0 0 1 .002.083l.149.014.15.014a.7.7 0 0 0-.002-.147zm0 .115-.148-.014-.006.059.15.014.149.014.005-.059zm-.005.059-.149-.014-.006.058.15.015.15.014.005-.059zm-.005.059-.15-.015a.5.5 0 0 0 .015.168l.144-.04.145-.041a.2.2 0 0 1-.005-.058zm.01.113-.145.04.015.054.145-.04.144-.04-.015-.055zm.015.054-.145.04.015.055.145-.04.144-.041-.015-.055zm.015.054-.145.04.035.114.143-.046.142-.046-.03-.102zm.033.108-.143.046.017.054.143-.046.143-.047-.018-.053zm.017.054-.143.046.018.054.143-.046.142-.047-.017-.054zm.018.054-.143.046a.24.24 0 0 0 .195.165l.024-.148.024-.148c.001 0 .012.002.023.012a.1.1 0 0 1 .02.026zm.076.063-.024.148.058.01.024-.148.024-.149-.058-.01zm.058.01-.024.148.058.009.024-.148.024-.148-.058-.01zm.058.009-.024.148q.11.017.205-.032l-.066-.134-.066-.135q-.017.008-.024.005zm.115-.018.066.134.057-.027-.067-.135-.066-.134-.056.027zm.056-.028.067.134.056-.027-.067-.135-.066-.134-.056.027zm.056-.028.067.135h-.013l.059-.138.06-.138a.28.28 0 0 0-.239.007zm.113-.003-.06.137.057.025.06-.138.059-.138-.057-.024zm.056.024-.059.138.056.024.06-.138.059-.138-.056-.024zm.056.024-.059.138q.075.032.156.042l.016-.15.016-.149a.2.2 0 0 1-.07-.019zm.113.03-.016.15.056.006.016-.15.017-.148-.057-.007zm.056.007-.016.149.056.006.017-.15.016-.148-.056-.006zm.056.006-.016.149a.6.6 0 0 0 .129.002l-.016-.15-.016-.148a.3.3 0 0 1-.064-.002zm.097.002.016.149.04-.004-.016-.15-.015-.149-.04.005zm.04-.004.016.149.04-.004-.015-.15-.016-.149-.04.004zm.04-.005.016.15s-.022.003-.051-.008a.14.14 0 0 1-.092-.118c-.005-.042.012-.072.013-.074l.003-.006.116.096.115.095a.3.3 0 0 0 .03-.043.17.17 0 0 0 .02-.1.16.16 0 0 0-.103-.132.2.2 0 0 0-.082-.009zm.005.04-.116-.096-.036.043.116.096.115.096.036-.044zm-.036.043-.116-.096-.036.043.116.096.115.096.036-.043zm-.036.043-.116-.096-.075.099.122.087.123.087q.03-.042.061-.081zm-.069.09-.122-.087-.033.046.122.087.123.087.033-.047zm-.033.046-.122-.087-.033.046.123.087.122.087.033-.046zm-.032.046-.123-.087a.05.05 0 0 1-.024.018l.056.139.057.139a.35.35 0 0 0 .156-.122zm-.09.07-.058-.14-.057.024.056.14.057.138.058-.023zm-.059.023-.056-.139-.058.024.057.139.056.139.058-.024zm-.057.024-.057-.14a.26.26 0 0 0-.16.206l.148.024.148.023-.006.012a.04.04 0 0 1-.017.014zm-.069.09-.148-.024-.01.066.147.024.149.024.01-.067zm-.01.066-.149-.024-.01.067.148.023.148.024.01-.066zm-.011.066-.148-.023-.002.007.005-.006.087.122.087.122a.3.3 0 0 0 .119-.198zm-.058.1-.087-.122-.047.034.087.122.087.122.047-.034zm-.047.034-.087-.122-.046.033.087.122.087.122.046-.033zm-.046.033-.088-.122a.25.25 0 0 0-.112.183l.15.01.15.012a.1.1 0 0 1-.013.037q-.008.009 0 .002zm-.05.072-.15-.011-.002.038.149.011.15.011.002-.038zm-.003.038-.15-.01-.002.038.15.01.149.012.003-.039zm-.003.039-.15-.011a.6.6 0 0 0 .008.129l.148-.024.148-.024a.3.3 0 0 1-.004-.06zm.006.094-.148.024.01.056.147-.024.149-.025-.01-.055zm.01.056-.149.024.01.055.148-.024.147-.024-.008-.056zm.008.055-.148.024q.009.05.012.099l.15-.01.15-.011a1 1 0 0 0-.015-.126zm.014.112-.15.011.004.057.15-.011.15-.01-.005-.057zm.004.057-.15.01.004.057.15-.01.15-.011-.005-.057zm.004.057-.15.01a.2.2 0 0 1-.009.064l.144.044.143.044a.5.5 0 0 0 .021-.173zm-.015.118-.144-.044-.019.061.144.045.143.044.019-.062zm-.02.062-.143-.045-.019.062.144.044.143.044.019-.061zm-.018.061-.144-.044a.28.28 0 0 0 .026.233l.129-.076.129-.077.002.008q0 .007.001 0zm.01.113-.128.076.03.051.13-.076.128-.077-.03-.05zm.031.05-.129.077.03.051.13-.076.129-.077-.03-.05zm.03.052-.129.076q.027.045.048.09l.136-.063.136-.063a1 1 0 0 0-.061-.117zm.055.103-.136.063.024.052.136-.062.136-.063-.024-.053zm.024.053-.136.062.024.053.136-.063.136-.063-.024-.052zm.024.052-.136.063a1 1 0 0 1 .033.087l.144-.044.143-.043a1 1 0 0 0-.048-.126zm.04.106-.143.044.017.054.143-.044.144-.043-.017-.054zm.017.054-.143.044.016.054.143-.044.144-.043-.016-.054zm.016.054-.143.044q.002.012 0-.005a.1.1 0 0 1 .026-.06l.114.099.113.098c.068-.078.048-.174.034-.22zm-.003.078-.114-.099-.02.024.114.098.113.098.02-.023zm-.02.023-.114-.098-.02.023.113.098.114.098.02-.023zm-.02.023-.114-.098a.136.136 0 0 1 .176-.022c.018.012.026.025.028.027q.003.005 0 0l-.136.063-.136.063c.01.02.032.066.076.096a.164.164 0 0 0 .219-.03zm-.046-.03.136-.063-.024-.054-.136.063-.137.063.025.054zm-.024-.054.136-.062-.025-.054-.136.063-.136.063.024.053zm-.025-.053.136-.063a.3.3 0 0 0-.172-.153l-.05.141-.049.142q.006.003.002 0l-.002-.003-.001-.001zm-.085-.075.049-.141-.06-.021-.05.141-.05.142.061.021zm-.06-.02.049-.142-.06-.021-.05.141-.05.142.06.02zm-.061-.022.05-.141q-.004-.002.005.005l.007.01-.142.047-.142.047a.27.27 0 0 0 .172.174zm-.08-.08.142-.046-.02-.059-.141.047-.143.048.02.058zm-.02-.058.143-.047-.02-.058-.142.047-.142.047.02.059zm-.019-.058.143-.047a.4.4 0 0 0-.095-.157l-.107.105-.107.106a.1.1 0 0 1 .024.04zm-.059-.099.107-.105-.04-.04-.106.105-.107.105.04.04zm-.04-.04.108-.105-.04-.04-.107.105-.107.105.04.04zm-.039-.04.107-.105a.4.4 0 0 0-.148-.098l-.056.14-.056.139a.1.1 0 0 1 .046.03zm-.097-.063.056-.14-.058-.023-.056.14-.056.138.058.024zm-.058-.024.056-.139-.058-.023-.056.139-.056.139.058.023zm-.058-.023.056-.14a.5.5 0 0 0-.124-.035l-.013.15-.014.149-.006-.001.007.002.038.014zm-.082-.026.014-.15-.024-.001-.014.149-.013.15.024.002zm-.024-.002.014-.15-.024-.002-.013.15-.014.15.024.001zm-.023-.002.014-.15a.2.2 0 0 0-.106.02.4.4 0 0 0-.068.041l.09.12.09.121.013-.009-.013.004a.1.1 0 0 1-.034.002zm-.07.032-.09-.12-.046.034.09.12.09.12.045-.034zm-.046.034-.09-.12-.046.034.09.12.09.12.045-.034zm-.046.034-.09-.12a1 1 0 0 0-.102.088l.106.106.106.107a1 1 0 0 1 .07-.06zm-.086.074-.106-.106-.04.04.106.106.106.106.04-.04zm-.04.04-.106-.106-.04.04.106.106.106.106.04-.04zm-.04.04-.106-.107a1 1 0 0 0-.09.106l.123.087.123.086.056-.066zm-.073.086-.122-.087-.033.046.123.087.122.086.033-.046zm-.032.046-.123-.087-.033.047.123.086.123.087.032-.047zm-.033.046-.123-.086a.5.5 0 0 0-.071.152l.144.04.144.042a.2.2 0 0 1 .029-.061zm-.05.107-.144-.041-.017.06.144.041.144.041.017-.06zm-.017.06-.144-.04-.018.06.145.04.144.042.017-.06zm-.017.06-.145-.04a.04.04 0 0 1 .01-.016l.011-.008.044.144.043.144a.26.26 0 0 0 .18-.182zm-.08.08-.044-.143-.063.018.044.144.044.144.062-.02zm-.063.02-.044-.145-.062.02.043.143.044.144.063-.02zm-.063.018-.043-.143-.006.001h.013q.01-.001.037.005a.143.143 0 0 1 .082.21l-.124-.085-.124-.085c-.006.01-.03.045-.031.095a.155.155 0 0 0 .113.153c.036.01.069.005.08.004l.047-.011zm-.041-.012.124.085.021-.031-.124-.085-.123-.085-.022.031zm.021-.03.124.084.021-.031-.123-.085-.124-.085-.021.031zm.022-.032.123.085a.4.4 0 0 0 .055-.147l-.148-.025-.148-.024-.006.024q-.002.007 0 .002zm.03-.087.148.025.01-.055-.149-.025-.147-.025-.01.056zm.01-.055.147.025.01-.056-.148-.025-.148-.024-.01.055zm.009-.056.148.025q.01-.06.016-.12l-.149-.016-.149-.017q-.005.053-.014.104zm.015-.111.15.016.006-.056-.15-.017-.148-.016-.007.056zm.007-.057.149.017.006-.056-.149-.017-.149-.016-.006.056zm.006-.056.15.017a.3.3 0 0 1 .017-.075l-.141-.051-.141-.052a.6.6 0 0 0-.034.145zm.026-.11.14.052.02-.053-.14-.052-.142-.05-.02.052zm.02-.053.14.052.02-.054-.141-.05-.141-.052-.02.053zm.019-.053.14.051a.35.35 0 0 0 .012-.198l-.147.033-.146.034a.05.05 0 0 1 0 .029zm.005-.114.147-.033-.014-.06-.146.033-.147.033.014.06zm-.013-.06.146-.034-.014-.06-.146.033-.146.034.013.06zm-.014-.06.146-.034v.012l-.004.01-.115-.098-.114-.097a.27.27 0 0 0-.06.24zm.027-.11.115.097.041-.049-.114-.097-.115-.097-.04.049zm.042-.049.114.098.041-.05-.114-.096-.114-.097-.042.048zm.041-.048.114.097a.3.3 0 0 0 .078-.202l-.15-.001-.15-.002v.002l-.006.009zm.042-.106.15.001v-.057l-.15-.002-.15-.001v.057zm0-.058.15.002.001-.058-.15-.001-.15-.002v.058zm.001-.057.15.002a.4.4 0 0 0-.032-.169l-.139.058-.138.058q.01.021.01.05zm-.02-.109.138-.058-.021-.051-.139.057-.138.058.02.052zm-.022-.052.139-.057-.022-.052-.138.058-.139.057.022.052zm-.021-.051.138-.058a.5.5 0 0 0-.084-.135l-.113.099-.113.099a.2.2 0 0 1 .033.052zm-.059-.094.113-.099-.037-.042-.113.099-.113.099.037.042zm-.037-.042.113-.1-.037-.042-.113.1-.113.098.037.043zm-.037-.043.113-.099a.5.5 0 0 0-.129-.103l-.073.131-.073.131q.03.017.05.04zm-.089-.07.073-.132-.051-.029-.074.131-.073.131.052.029zm-.052-.03.074-.13-.052-.03-.073.131-.074.131.052.03zm-.051-.029.073-.13a.3.3 0 0 1-.058-.044l-.107.105-.106.106a.6.6 0 0 0 .124.094zm-.092-.069.107-.105-.04-.04-.106.105-.107.106.04.04zm-.04-.04.107-.105-.04-.04-.106.105-.107.106.04.04zm-.039-.04.107-.105a.3.3 0 0 1-.047-.061l-.129.077-.129.077a.6.6 0 0 0 .091.118zm-.069-.089.129-.077-.03-.05-.129.078-.128.077.03.05zm-.03-.05.129-.076-.03-.05-.128.078-.129.077.03.049zm-.03-.048.13-.078a1 1 0 0 0-.072-.108l-.121.089-.121.089q.03.042.056.085zm-.063-.097.12-.089-.034-.047-.121.089-.121.088.035.048zm-.035-.047.12-.09-.034-.046-.12.088-.122.089.035.047zm-.035-.048.121-.088.01.019a.13.13 0 0 1-.008.099.13.13 0 0 1-.102.075h-.006l.007-.15.006-.15q-.027-.002-.072.008a.17.17 0 0 0-.103.088.17.17 0 0 0-.006.127.2.2 0 0 0 .032.06zm.022-.045-.007.15.056.002.007-.15.006-.15-.056-.002zm.056.003-.007.15.056.002.007-.15.007-.15-.056-.002zm.056.002-.007.15a.4.4 0 0 1 .08.013l.04-.145.04-.144a.7.7 0 0 0-.146-.024zm.113.018-.04.145.055.016.04-.145.041-.144-.056-.016zm.056.016-.04.145.056.015.04-.144.04-.145-.056-.015zm.056.016-.04.144a.36.36 0 0 0 .19.002l-.037-.145-.039-.145a.06.06 0 0 1-.034 0zm.113 0 .038.146.056-.015-.038-.145-.038-.145-.057.015zm.056-.014.038.145.056-.015-.038-.145-.038-.145-.056.015zm.056-.015.038.145h.003l.008.002.064-.136.063-.136a.3.3 0 0 0-.214-.02zm.113.011-.064.136.057.027.063-.136.063-.136-.056-.026zm.056.027-.063.136.056.026.063-.136.063-.136-.056-.026zm.056.026-.063.136a.25.25 0 0 0 .253-.018l-.083-.125-.083-.126.02-.006a.04.04 0 0 1 .02.003zm.107-.007.083.125.05-.034-.082-.125-.083-.125-.05.033zm.05-.034.083.125.05-.033-.082-.125-.083-.125-.05.033zm.051-.033.083.125a.27.27 0 0 0 .122-.2l-.15-.015-.148-.014q0-.005.005-.015l.005-.006zm.056-.09.15.014.005-.056-.15-.014-.149-.015-.005.057zm.005-.056.15.014.005-.057-.15-.014-.149-.014-.005.056zm.006-.057.149.014a.14.14 0 0 1 .016-.053l-.133-.07-.134-.068a.5.5 0 0 0-.048.163zm.032-.108.133.069.027-.052-.134-.069-.133-.069-.027.052zm.026-.052.134.069.026-.052-.133-.069-.133-.068-.027.052zm.027-.052.133.069a.33.33 0 0 0 .033-.203l-.149.023-.148.023a.03.03 0 0 1-.002.02zm.017-.111.149-.023-.01-.06-.148.024-.148.022.01.06zm-.009-.06.149-.022-.01-.06-.148.023-.148.023.01.06zm-.009-.059.149-.023a.2.2 0 0 1 0-.064l-.147-.028-.148-.027a.5.5 0 0 0-.002.165zm.002-.115.147.028.01-.056-.147-.027-.148-.028-.01.056zm.01-.055.147.027.01-.055-.147-.027-.147-.028-.01.055zm.01-.055.148.027.02-.107-.146-.03-.147-.031-.022.113zm.022-.11.147.03.011-.055-.147-.03-.146-.031-.012.055zm.011-.056.147.03.012-.054-.147-.031-.147-.03-.011.055zm.012-.055.147.03q.012-.06.02-.121l-.148-.02-.149-.02q-.006.05-.017.1zm.019-.111.148.02.008-.056-.149-.02-.148-.02-.008.056zm.007-.056.149.02.008-.056-.15-.02-.148-.02-.007.056zm.008-.056.149.02a.2.2 0 0 1 .014-.06l-.138-.057-.139-.058a.5.5 0 0 0-.035.135zm.025-.097.138.058.018-.042-.139-.058-.138-.058-.018.042zm.017-.042.139.058.017-.041-.138-.058-.139-.059-.017.042zm.018-.041.138.058.007-.017-.002.004-.01.012a.15.15 0 0 1-.143.048l.032-.146.032-.147a.15.15 0 0 0-.15.053l-.021.031-.022.045zm.022-.041-.032.146.005.002.032-.147.032-.147h-.005zm.005 0-.032.148h.005l.032-.146.031-.147h-.005zm.005.002-.032.147a.15.15 0 0 1-.087-.057l-.003-.004.015.03.136-.063.136-.063-.039-.073-.018-.021c-.003-.003-.03-.033-.077-.043zm.03.053-.137.064.025.052.136-.063.135-.064-.024-.052z"/><ellipse cx="11.935" cy="11.767" fill="var(--fill-0, white)" rx="3.561" ry="3.845"/><path fill="var(--stroke-0, white)" d="m15.48 12.333-.5-.014zm-.052.373.485.122zm-.093.368-.485-.122zm-.095.377.485.122zm-.097.386-.485-.122zm-.135.383-.455-.206zm-.172.381.456.206zm-.285.269-.184-.465zm-.199.078.184.465zm-.199.079.184.465zm-.415.062-.038.498zm-.217-.017-.038.499zm-.217-.016.038-.499zm-.344.228-.443-.232zm-.127.244-.443-.231zm-.127.244.444.23zm-.33.078-.317.386zm-.203-.167-.317.386zm-.203-.167.317-.386zm-.414-.052-.238-.44zm-.211.115.238.44zm-.535.008.446-.226zm-.225-.442-.446.226zm-.258-.312.263-.425zm-.292-.181-.263.425zm-.244-.233.412-.283zm-.196-.285-.412.284zm-.31-.224.178-.467zm-.426-.163-.18.466zm-.177-.294-.493-.083zM8.28 11.98l-.476-.154zm.088-.785-.457.202zm.073-.935-.31-.392zm.498-.415-.341-.365zm.138-.128.341.365zm.137-.129-.341-.365zm.238-.28-.416-.277zm.101-.151-.416-.277zm.33-.442-.366-.34zm.26-.28-.367-.34zm.276-.311-.38-.324zm.146-.172.381.324zm.147-.172-.38-.325zm1.199.147.105-.488zm1.494.195-.44.238zm.666.746.203-.456zm.173.077-.203.457zm.327.2-.31.391zm.309.244-.31.392zm.148.334.5.014zm-.005.212.5.014zm-.006.211-.5-.014zm.106.37.408-.29zm.226.316-.408.29zm.235.346-.417.274zm.247.375.418-.275zm.009.194.03.499zm-.115.007-.03-.5zm-.235.202.5.014zm-.005.189-.5-.014-.005.188.5.014.5.014.005-.189zm-.005.188-.5-.014a1.2 1.2 0 0 1-.037.265l.485.122.485.122q.06-.237.067-.481zm-.052.373-.485-.122-.046.184.485.122.485.122.046-.184zm-.046.184-.485-.122-.047.184.485.122.485.122.046-.184zm-.047.184-.485-.122-.095.377.485.122.485.122.095-.377zm-.095.377-.485-.122-.048.193.485.122.485.122.048-.193zm-.048.193-.485-.122-.049.193.485.122.485.122.049-.193zm-.049.193-.485-.122q-.037.147-.105.3l.455.205.456.207q.105-.23.164-.468zm-.135.383-.455-.206-.086.19.455.207.456.206.086-.19zm-.086.19-.455-.206-.086.19.455.207.456.206.086-.19zm-.086.191-.455-.206-.004.006.002-.001q0-.002 0 0l-.011.005.183.465.184.465c.25-.099.444-.28.557-.528zm-.285.269-.184-.465-.199.078.184.465.184.465.199-.078zm-.199.078-.184-.465-.198.079.183.465.184.465.199-.079zm-.199.079-.184-.465a.4.4 0 0 1-.193.028l-.038.499-.038.498c.218.017.433-.014.637-.095zm-.415.062.038-.499-.217-.016-.038.498-.038.499.216.017zm-.217-.017.038-.498-.216-.017-.039.499-.038.498.217.017zm-.217-.016.038-.499a.8.8 0 0 0-.508.13.96.96 0 0 0-.317.365l.444.232.443.23c.016-.03.015-.014-.018.007a.2.2 0 0 1-.12.033zm-.344.228-.443-.232-.127.245.443.23.444.232.127-.245zm-.127.244-.443-.231-.127.244.443.23.444.232.127-.244zm-.127.244-.443-.231c-.017.031.028-.078.182-.114.165-.04.263.048.248.036l-.317.387-.317.386c.12.1.34.229.615.164.265-.062.407-.265.476-.397zm-.33.078.317-.387-.203-.166-.317.386-.317.386.203.167zm-.203-.167.317-.386-.203-.167-.317.386-.317.387.203.166zm-.203-.167.317-.386a.84.84 0 0 0-.97-.105l.239.44.238.44a.1.1 0 0 1-.03.009.2.2 0 0 1-.061.002c-.046-.005-.063-.024-.05-.013zm-.414-.052-.238-.44-.212.115.239.44.238.44.211-.115zm-.211.115-.239-.44-.211.115.238.44.238.44.212-.115zm-.212.114-.238-.44a.2.2 0 0 1 .058-.017.3.3 0 0 1 .15.013c.12.04.157.121.153.112l-.446.226-.447.226c.07.138.2.311.427.386a.73.73 0 0 0 .581-.066zm-.323-.106.446-.226-.112-.221-.446.226-.447.226.113.22zm-.112-.221.446-.226-.112-.221-.447.226-.446.226.113.22zm-.113-.221.447-.226a1.25 1.25 0 0 0-.442-.511l-.263.425-.263.425c-.008-.005.025.013.075.113zm-.258-.312.263-.425-.146-.09-.263.424-.263.426.146.09zm-.146-.09.263-.426-.146-.09-.263.425-.263.425.146.09zm-.146-.091.263-.425a.3.3 0 0 1-.095-.091l-.412.283-.412.284q.157.227.393.374zm-.244-.233.412-.283-.098-.143-.412.284-.412.283.098.143zm-.098-.142.412-.284-.098-.142-.412.283-.412.284.098.142zm-.098-.143.412-.283a1.14 1.14 0 0 0-.544-.408l-.179.467-.18.467c.078.03.086.052.079.04zm-.31-.224.178-.467-.212-.081-.18.466-.179.467.213.082zm-.214-.082.18-.466-.213-.082-.18.467-.179.466.213.082zm-.212-.081.18-.467.008.004.023.015a.3.3 0 0 1 .066.075.25.25 0 0 1 .039.162l-.493-.083-.493-.083a.75.75 0 0 0 .09.52.8.8 0 0 0 .4.323zm-.177-.294.493.083.035-.212-.493-.083-.493-.083-.035.212zm.035-.212.493.083.036-.212-.493-.083-.493-.083-.036.212zm.036-.212.493.083a.93.93 0 0 0-.225-.787l-.375.33-.375.33q.002.004 0 0a.1.1 0 0 1-.011-.037v-.002zm-.107-.374.375-.33-.142-.162-.376.33-.375.33.143.163zm-.143-.162.376-.33L8.736 12l-.375.33-.375.331.142.162zm-.142-.161.375-.33c-.003-.005.012.012.02.048a.2.2 0 0 1 0 .084l-.476-.154-.476-.154c-.1.31-.019.609.182.836zm-.081-.352.475.154.062-.19-.476-.154-.476-.153-.061.19zm.061-.19.476.154.061-.19-.476-.153-.475-.154-.062.19zm.062-.19.475.155a1.05 1.05 0 0 0-.053-.763l-.457.203-.457.202c.013.03.015.046.015.05v.002-.002zm-.035-.405.457-.203-.096-.216-.457.202-.457.203.096.216zm-.096-.217.457-.202-.096-.217-.457.203-.457.202.096.217zm-.096-.216.457-.203s.02.046.003.12a.2.2 0 0 1-.065.116l-.31-.392-.31-.392a.8.8 0 0 0-.289.438.8.8 0 0 0 .057.515zm.084-.36.31.393.181-.143-.31-.392-.31-.392-.18.143zm.18-.142.311.392.18-.143-.31-.392-.31-.392-.18.143zm.181-.143.31.392q.195-.154.35-.298l-.342-.366-.341-.365a5 5 0 0 1-.287.245zm.318-.272.342.366.137-.129-.341-.365-.342-.365-.137.128zm.138-.128.341.365.138-.129-.342-.365-.341-.365-.138.129zm.137-.129.342.365q.178-.166.313-.368l-.417-.277-.416-.277q-.068.102-.163.192zm.238-.28.417.277.1-.151-.416-.277-.416-.277-.101.151zm.101-.151.416.277.101-.152-.416-.277-.417-.276-.1.15zm.1-.152.417.277q.078-.116.18-.227l-.366-.34-.367-.34q-.155.167-.28.354zm.23-.29.368.34.129-.14-.367-.34-.366-.34-.13.14zm.13-.14.367.34.13-.14-.367-.34-.367-.34-.13.14zm.13-.14.366.34q.139-.149.29-.327l-.38-.324-.38-.324q-.142.165-.263.295zm.276-.311.38.324.147-.172-.38-.324-.381-.324-.147.172zm.146-.172.381.324.147-.172-.381-.324-.38-.325-.147.173zm.147-.172.38.324a.2.2 0 0 1-.08.045.2.2 0 0 1-.09.004l.153-.475.154-.476a.84.84 0 0 0-.488-.015.83.83 0 0 0-.41.268zm.364-.102-.154.475.217.07.154-.476.153-.475-.217-.07zm.216.07-.153.475.217.07.153-.476.154-.475-.217-.07zm.217.07-.153.475q.236.077.45.123l.105-.489.105-.488a4 4 0 0 1-.353-.097zm.402.11-.106.488.184.04.106-.489.106-.489-.185-.04zm.184.039-.106.489.185.04.105-.49.106-.488-.184-.04zm.184.04-.105.489q.284.059.57.015l-.072-.495-.072-.495a.6.6 0 0 1-.215-.003zm.393.01.072.494.209-.03-.072-.495-.073-.495-.208.03zm.209-.031.072.494.208-.03-.072-.495-.072-.495-.209.03zm.208-.03.072.494a.2.2 0 0 1-.123-.026c-.055-.03-.074-.065-.073-.064l.44-.238.44-.238a.83.83 0 0 0-.339-.344.8.8 0 0 0-.49-.08zm.316.166-.44.238.107.198.44-.238.44-.238-.108-.198zm.107.198-.44.238.107.197.44-.238.44-.238-.108-.197zm.106.197-.44.238c.114.21.283.39.517.494l.203-.457.203-.457-.009-.007a.2.2 0 0 1-.034-.049zm.28.275-.203.457.173.076.203-.457.203-.456-.173-.077zm.173.076-.203.457.173.077.203-.457.203-.457-.173-.076zm.173.077-.203.457q.112.05.22.134l.31-.391.31-.392a2 2 0 0 0-.434-.265zm.327.2-.31.391.154.123.31-.392.311-.392-.154-.122zm.154.122-.31.392.154.122.31-.392.311-.391-.154-.123zm.155.122-.31.392a.1.1 0 0 1-.033-.044c-.01-.022-.008-.035-.008-.027l.5.013.5.014a.89.89 0 0 0-.339-.74zm.148.334-.5-.013-.005.211.5.014.5.014.005-.212zm-.005.212-.5-.014-.006.212.5.013.5.014.005-.211zm-.006.211-.5-.014c-.007.24.055.472.2.674l.406-.29.408-.29c-.006-.009-.016-.023-.014-.066zm.106.37-.407.29.113.158.407-.29.407-.29-.112-.158zm.113.158-.407.29.112.158.407-.29.408-.29-.113-.158zm.112.158-.407.29q.106.15.226.33l.417-.274.418-.275a12 12 0 0 0-.246-.36zm.236.346-.417.274.123.188.418-.275.417-.275-.123-.187zm.124.187-.418.275.123.188.418-.275.418-.275-.124-.188zm.123.188-.418.274c.012.018.012.021.009.013a.4.4 0 0 1-.027-.123.455.455 0 0 1 .415-.47l.03.5.03.499a.545.545 0 0 0 .525-.573.7.7 0 0 0-.061-.243 1 1 0 0 0-.085-.152zm.009.194-.03-.5-.115.008.03.499.03.499.114-.007zm-.115.007-.03-.5-.114.007.03.5.029.498.114-.006zm-.115.006-.03-.499a.6.6 0 0 0-.483.29.8.8 0 0 0-.106.39l.5.015.5.014c0-.026.005.028-.042.104a.4.4 0 0 1-.31.185zm-.12.196-.5-.014-.005.188.5.014.5.014.005-.188z"/></svg>