<svg preserveAspectRatio="none" width="100%" height="100%" overflow="visible" style="display: block;" viewBox="0 0 80 80" fill="none" xmlns="http://www.w3.org/2000/svg">
<g id="&#235;&#169;&#139;&#236;&#167;&#132;">
<circle id="Ellipse 26" cx="40" cy="40" r="40" fill="url(#paint0_radial_1027_4224)"/>
<g id="Group 19">
<path id="Vector 14" d="M43.1172 65.5897C40.0967 66.8976 35.6561 67.382 32.1185 66.7896C28.1699 66.1284 25.3759 64.1961 24.7764 63.0895C24.6485 62.848 24.5154 62.6527 24.3782 62.4516" stroke="var(--stroke-0, #F4C280)" stroke-width="4" stroke-linecap="round"/>
</g>
<g id="Group 23">
<g id="Union">
<path d="M27.2265 20.003C27.7005 20.0113 27.9561 20.0245 28.4355 20.0245C31.3191 20.0246 34.7788 21.0515 37.3926 24.4376C39.1068 26.6588 39.8849 29.2692 40.3076 31.3839C40.7331 33.5127 40.8958 35.7104 41.0303 37.1866C41.2115 39.1762 41.1884 42.2012 40.6767 45.3478C40.1783 48.4129 39.1211 52.2019 36.8027 55.213C35.8793 56.4123 34.406 57.4862 32.749 58.1173C30.9523 58.8015 28.509 59.1212 25.9297 58.0831C24.9337 57.6823 24.2397 57.4287 23.6807 57.2228C23.2252 57.055 22.4998 56.7959 21.8467 56.4474C20.1545 55.5441 19.1456 54.0965 18.5752 53.3946C17.1284 51.6142 16.0969 48.8454 15.5332 45.882C14.9353 42.7385 14.7556 38.8314 15.4365 34.42C15.4867 34.0949 15.5693 33.7818 15.6767 33.4835C15.6823 33.2149 15.7083 32.9428 15.7588 32.67C16.1356 30.636 16.8614 28.314 17.918 26.0323C18.4953 24.7857 19.2281 23.5489 20.4336 22.5909C20.9825 22.1548 21.508 21.8827 21.6377 21.8126C21.6405 21.8111 21.6438 21.8101 21.6465 21.8087C22.6362 21.0753 23.8506 20.3355 25.5195 20.0909C26.215 19.9891 26.848 19.9964 27.2265 20.003Z" fill="var(--fill-0, #FFFEEF)"/>
<path d="M27.2266 20.003L27.2441 19.0032L27.244 19.0032L27.2266 20.003ZM28.4355 20.0245L28.4356 19.0245H28.4356L28.4355 20.0245ZM37.3926 24.4376L38.1842 23.8266L38.1842 23.8266L37.3926 24.4376ZM40.3076 31.3839L41.2882 31.1879L41.2882 31.1879L40.3076 31.3839ZM41.0303 37.1866L40.0344 37.2774V37.2774L41.0303 37.1866ZM40.6767 45.3478L41.6638 45.5083L41.6638 45.5083L40.6767 45.3478ZM36.8027 55.213L37.5951 55.8231L37.5951 55.8231L36.8027 55.213ZM32.749 58.1173L33.1049 59.0518L33.1049 59.0518L32.749 58.1173ZM25.9297 58.0831L26.303 57.1554L26.303 57.1554L25.9297 58.0831ZM23.6807 57.2228L24.0263 56.2844L24.0263 56.2844L23.6807 57.2228ZM21.8467 56.4474L21.3758 57.3296L21.3759 57.3296L21.8467 56.4474ZM18.5752 53.3946L17.7991 54.0253L17.7991 54.0253L18.5752 53.3946ZM15.5332 45.882L14.5508 46.0688L14.5508 46.0688L15.5332 45.882ZM15.4365 34.42L14.4482 34.2674L14.4482 34.2675L15.4365 34.42ZM15.6767 33.4835L16.6176 33.8223L16.6731 33.6681L16.6765 33.5042L15.6767 33.4835ZM15.7588 32.67L14.7755 32.4879L14.7755 32.4879L15.7588 32.67ZM17.918 26.0323L17.0105 25.6121L17.0105 25.6121L17.918 26.0323ZM20.4336 22.5909L19.8114 21.808L19.8114 21.808L20.4336 22.5909ZM21.6377 21.8126L22.113 22.6924L22.1131 22.6924L21.6377 21.8126ZM21.6465 21.8087L22.1165 22.6914L22.1821 22.6564L22.2418 22.6122L21.6465 21.8087ZM25.5195 20.0909L25.3746 19.1015L25.3745 19.1015L25.5195 20.0909ZM27.2266 20.003L27.209 21.0029C27.6521 21.0107 27.9473 21.0245 28.4355 21.0245L28.4355 20.0245L28.4356 19.0245C27.9649 19.0245 27.749 19.012 27.2441 19.0032L27.2266 20.003ZM28.4355 20.0245L28.4355 21.0245C31.0771 21.0246 34.2145 21.957 36.601 25.0487L37.3926 24.4376L38.1842 23.8266C35.3431 20.146 31.5611 19.0246 28.4356 19.0245L28.4355 20.0245ZM37.3926 24.4376L36.6009 25.0486C38.1783 27.0924 38.9169 29.5279 39.327 31.5799L40.3076 31.3839L41.2882 31.1879C40.853 29.0106 40.0354 26.2252 38.1842 23.8266L37.3926 24.4376ZM40.3076 31.3839L39.327 31.5799C39.7394 33.6436 39.8977 35.7772 40.0344 37.2774L41.0303 37.1866L42.0261 37.0959C41.8938 35.6436 41.7267 33.3817 41.2882 31.1879L40.3076 31.3839ZM41.0303 37.1866L40.0344 37.2774C40.2082 39.1852 40.1875 42.1257 39.6897 45.1873L40.6767 45.3478L41.6638 45.5083C42.1892 42.2767 42.2148 39.1672 42.0261 37.0959L41.0303 37.1866ZM40.6767 45.3478L39.6897 45.1873C39.2025 48.1833 38.1819 51.7825 36.0104 54.6029L36.8027 55.213L37.5951 55.8231C40.0603 52.6212 41.1541 48.6424 41.6638 45.5083L40.6767 45.3478ZM36.8027 55.213L36.0104 54.6029C35.2123 55.6394 33.8979 56.6097 32.3931 57.1828L32.749 58.1173L33.1049 59.0518C34.9141 58.3628 36.5462 57.1852 37.5951 55.8231L36.8027 55.213ZM32.749 58.1173L32.3931 57.1828C30.7752 57.7989 28.5982 58.0791 26.303 57.1554L25.9297 58.0831L25.5563 59.0108C28.4198 60.1632 31.1294 59.8041 33.1049 59.0518L32.749 58.1173ZM25.9297 58.0831L26.303 57.1554C25.292 56.7486 24.5858 56.4905 24.0263 56.2844L23.6807 57.2228L23.335 58.1611C23.8937 58.3669 24.5754 58.6161 25.5563 59.0108L25.9297 58.0831ZM23.6807 57.2228L24.0263 56.2844C23.554 56.1104 22.8981 55.875 22.3175 55.5651L21.8467 56.4474L21.3759 57.3296C22.1015 57.7168 22.8963 57.9995 23.335 58.1611L23.6807 57.2228ZM21.8467 56.4474L22.3176 55.5652C20.8442 54.7787 19.9724 53.5284 19.3512 52.764L18.5752 53.3946L17.7991 54.0253C18.3187 54.6647 19.4648 56.3095 21.3758 57.3296L21.8467 56.4474ZM18.5752 53.3946L19.3513 52.764C18.0534 51.1669 17.065 48.5831 16.5156 45.6951L15.5332 45.882L14.5508 46.0688C15.1289 49.1078 16.2034 52.0616 17.7991 54.0253L18.5752 53.3946ZM15.5332 45.882L16.5156 45.6951C15.9388 42.6629 15.7614 38.8705 16.4248 34.5726L15.4365 34.42L14.4482 34.2675C13.7498 38.7922 13.9317 42.8142 14.5508 46.0688L15.5332 45.882ZM15.4365 34.42L16.4248 34.5727C16.4645 34.3154 16.5304 34.0646 16.6176 33.8223L15.6767 33.4835L14.7359 33.1447C14.6083 33.4991 14.5089 33.8745 14.4482 34.2674L15.4365 34.42ZM15.6767 33.4835L16.6765 33.5042C16.681 33.286 16.7021 33.0681 16.7421 32.8521L15.7588 32.67L14.7755 32.4879C14.7145 32.8175 14.6836 33.1438 14.677 33.4628L15.6767 33.4835ZM15.7588 32.67L16.742 32.8522C17.1029 30.9044 17.8022 28.6621 18.8254 26.4525L17.918 26.0323L17.0105 25.6121C15.9206 27.9658 15.1683 30.3676 14.7755 32.4879L15.7588 32.67ZM17.918 26.0323L18.8254 26.4526C19.3758 25.2641 20.0281 24.1905 21.0557 23.3738L20.4336 22.5909L19.8114 21.808C18.4281 22.9074 17.6148 24.3073 17.0105 25.6121L17.918 26.0323ZM20.4336 22.5909L21.0557 23.3738C21.5276 22.9989 21.9813 22.7636 22.113 22.6924L21.6377 21.8126L21.1624 20.9328C21.0348 21.0017 20.4373 21.3107 19.8114 21.808L20.4336 22.5909ZM21.6377 21.8126L22.1131 22.6924C22.0972 22.701 22.083 22.7081 22.0709 22.7139C22.0588 22.7197 22.0484 22.7243 22.0403 22.7279C22.0322 22.7314 22.0257 22.7341 22.0216 22.7358C22.0196 22.7367 22.0179 22.7373 22.0168 22.7378C22.0163 22.738 22.0159 22.7382 22.0156 22.7383C22.0153 22.7384 22.0151 22.7385 22.0151 22.7385C22.0143 22.7388 22.0176 22.7375 22.0209 22.7361C22.0248 22.7345 22.0314 22.7318 22.0395 22.7283C22.0477 22.7248 22.0586 22.72 22.0712 22.714C22.0839 22.7081 22.0993 22.7005 22.1165 22.6914L21.6465 21.8087L21.1765 20.926C21.193 20.9172 21.2077 20.91 21.2196 20.9044C21.2316 20.8988 21.2418 20.8943 21.2492 20.8911C21.2566 20.8879 21.2625 20.8855 21.2656 20.8842C21.2682 20.8832 21.2708 20.8821 21.2692 20.8828C21.2687 20.883 21.265 20.8845 21.2604 20.8863C21.2556 20.8883 21.2483 20.8914 21.2395 20.8952C21.2306 20.8991 21.2194 20.9041 21.2067 20.9102C21.1938 20.9164 21.1789 20.9239 21.1623 20.9328L21.6377 21.8126ZM21.6465 21.8087L22.2418 22.6122C23.171 21.9236 24.2289 21.2907 25.6645 21.0804L25.5195 20.0909L25.3745 19.1015C23.4723 19.3803 22.1013 20.227 21.0511 21.0053L21.6465 21.8087ZM25.5195 20.0909L25.6644 21.0804C26.2741 20.9911 26.8382 20.9964 27.2091 21.0029L27.2266 20.003L27.244 19.0032C26.8579 18.9964 26.1559 18.9871 25.3746 19.1015L25.5195 20.0909Z" fill="var(--stroke-0, #F4C280)"/>
</g>
<ellipse id="Ellipse 20" cx="30.6829" cy="37.1751" rx="7.12151" ry="11.534" fill="var(--fill-0, #424242)"/>
<g id="Star 4">
<path d="M26.8252 42.9421L27.1583 44.4918H28.2363L27.3642 45.4495L27.6973 46.9992L26.8252 46.0414L25.9532 46.9992L26.2863 45.4495L25.4142 44.4918H26.4921L26.8252 42.9421Z" fill="var(--fill-0, white)"/>
<path d="M26.874 43.0467L26.738 43.11L26.874 43.0467ZM26.8984 43.099L27.0343 43.0356L26.8984 43.099ZM26.9253 43.2082L26.7754 43.215L26.9253 43.2082ZM26.9279 43.2652L27.0777 43.2585L26.9279 43.2652ZM26.9304 43.3222L26.7806 43.3289L26.9304 43.3222ZM26.9507 43.4329L27.0931 43.386L26.9507 43.4329ZM26.9684 43.4867L26.8259 43.5336L26.9684 43.4867ZM26.9861 43.5404L26.8436 43.5873L26.9861 43.5404ZM27.0106 43.6502L26.8617 43.6682L27.0106 43.6502ZM27.0242 43.7623L27.1731 43.7443L27.0242 43.7623ZM27.0254 43.8771L26.8761 43.863L27.0254 43.8771ZM27.0142 43.9946L26.8649 43.9804L27.0142 43.9946ZM27.0239 44.1076L27.1683 44.067V44.067L27.0239 44.1076ZM27.0544 44.2161L26.91 44.2567V44.2567L27.0544 44.2161ZM27.0872 44.3241L26.9445 44.3705L27.0872 44.3241ZM27.198 44.495L27.1739 44.643L27.198 44.495ZM27.4295 44.4957L27.3632 44.3612L27.4295 44.4957ZM27.4858 44.468L27.4194 44.3335L27.4858 44.468ZM27.542 44.4403L27.6084 44.5748L27.542 44.4403ZM27.767 44.4851L27.7077 44.6229L27.767 44.4851ZM27.8795 44.5155L27.8959 44.3664L27.8795 44.5155ZM27.9358 44.5217L27.9194 44.6708L27.9358 44.5217ZM27.992 44.5279L27.9756 44.677L27.992 44.5279ZM28.0885 44.5299L28.1042 44.6791L28.0885 44.5299ZM28.1288 44.5256L28.1444 44.6748L28.1288 44.5256ZM28.169 44.5214L28.1534 44.3722L28.169 44.5214ZM28.1733 44.5605L28.0579 44.4647L28.1733 44.5605ZM28.1374 44.6039L28.2528 44.6997L28.1374 44.6039ZM28.0326 44.7367L27.9103 44.65L28.0326 44.7367ZM27.9999 44.783L28.1222 44.8697L27.9999 44.783ZM27.9671 44.8292L28.0894 44.916L27.9671 44.8292ZM27.8765 44.8989L27.82 44.76L27.8765 44.8989ZM27.761 44.9459L27.8176 45.0848L27.761 44.9459ZM27.6926 45.0357L27.5445 45.0119L27.6926 45.0357ZM27.6713 45.1684L27.8194 45.1923L27.6713 45.1684ZM27.5669 45.3016L27.654 45.4237L27.5669 45.3016ZM27.5201 45.3351L27.4329 45.213L27.5201 45.3351ZM27.4704 45.4069L27.3208 45.3958L27.4704 45.4069ZM27.4675 45.4454L27.6171 45.4565L27.4675 45.4454ZM27.4647 45.4839L27.3151 45.4728L27.4647 45.4839ZM27.4709 45.5779L27.6189 45.5538L27.4709 45.5779ZM27.489 45.6891L27.3409 45.7132L27.489 45.6891ZM27.5021 45.8013L27.6517 45.7906V45.7906L27.5021 45.8013ZM27.5061 45.858L27.3565 45.8687L27.5061 45.858ZM27.5102 45.9147L27.6598 45.904L27.5102 45.9147ZM27.4952 46.033L27.6385 46.0772L27.4952 46.033ZM27.4572 46.1562L27.3138 46.112L27.4572 46.1562ZM27.4684 46.2689L27.5974 46.1923V46.1923L27.4684 46.2689ZM27.529 46.3709L27.4 46.4475V46.4475L27.529 46.3709ZM27.5834 46.4743L27.4472 46.5371L27.5834 46.4743ZM27.6317 46.579L27.7679 46.5161L27.6317 46.579ZM27.6722 46.6853L27.5287 46.7288L27.6722 46.6853ZM27.705 46.7934L27.8485 46.7499L27.705 46.7934ZM27.7011 46.8707L27.8145 46.9689L27.7011 46.8707ZM27.681 46.8939L27.5676 46.7957L27.681 46.8939ZM27.6608 46.9172L27.5474 46.819L27.6608 46.9172ZM27.6158 46.887L27.752 46.824L27.6158 46.887ZM27.5663 46.7799L27.4302 46.8429L27.5663 46.7799ZM27.4811 46.7053L27.5304 46.5637L27.4811 46.7053ZM27.3602 46.6633L27.3109 46.8049L27.3602 46.6633ZM27.2804 46.5838L27.138 46.631L27.2804 46.5838ZM27.2416 46.4669L27.384 46.4197L27.2416 46.4669ZM27.1828 46.3684L27.0759 46.4736L27.1828 46.3684ZM27.1433 46.3282L27.2503 46.223L27.1433 46.3282ZM27.1038 46.2881L26.9969 46.3933L27.1038 46.2881ZM27.0065 46.2246L26.9503 46.3637L27.0065 46.2246ZM26.9486 46.2012L26.8924 46.3403L26.9486 46.2012ZM26.8907 46.1778L26.9469 46.0388L26.8907 46.1778ZM26.8089 46.1523L26.7951 46.3016L26.8089 46.1523ZM26.7611 46.1478L26.7749 45.9985L26.7611 46.1478ZM26.6912 46.1798L26.7808 46.3001L26.6912 46.1798ZM26.5134 46.3222L26.4076 46.2158L26.5134 46.3222ZM26.4734 46.3619L26.5792 46.4683L26.4734 46.3619ZM26.4335 46.4016L26.5392 46.508L26.4335 46.4016ZM26.3608 46.4876L26.4834 46.5741L26.3608 46.4876ZM26.2955 46.5802L26.1729 46.4937L26.2955 46.5802ZM26.211 46.8076L26.0668 46.7664L26.211 46.8076ZM26.1311 46.887L26.1747 47.0306L26.1311 46.887ZM26.0058 46.9251L25.9622 46.7816L26.0058 46.9251ZM25.9645 46.9131L26.0882 46.9979L25.9645 46.9131ZM25.9858 46.8821L26.1095 46.9669L25.9858 46.8821ZM26.007 46.851L26.1307 46.9358L26.007 46.851ZM26.0376 46.7645L25.8897 46.7397L26.0376 46.7645ZM26.0719 46.5417L26.2209 46.5585L26.0719 46.5417ZM26.0782 46.4855L25.9292 46.4687L26.0782 46.4855ZM26.0846 46.4294L26.2336 46.4462L26.0846 46.4294ZM26.1492 46.2131L26.0083 46.1618L26.1492 46.2131ZM26.1549 46.0993L26.3011 46.066L26.1549 46.0993ZM26.1273 45.9783L25.9811 46.0116L26.1273 45.9783ZM26.1549 45.8691L26.0405 45.772L26.1549 45.8691ZM26.2375 45.7718L26.3518 45.8689L26.2375 45.7718ZM26.2794 45.6657L26.1294 45.6641L26.2794 45.6657ZM26.2801 45.6083L26.43 45.61L26.2801 45.6083ZM26.2807 45.5509L26.1307 45.5493L26.2807 45.5509ZM26.2599 45.442L26.3984 45.3845L26.2599 45.442ZM26.2171 45.3389L26.0785 45.3965L26.2171 45.3389ZM26.1586 45.2451L26.0458 45.3439L26.1586 45.2451ZM26.1215 45.2027L26.0087 45.3016L26.1215 45.2027ZM26.0844 45.1604L26.1972 45.0616L26.0844 45.1604ZM25.9956 45.0892L25.9223 45.2201L25.9956 45.0892ZM25.8921 45.0312L25.8188 45.1621L25.8921 45.0312ZM25.8008 44.9623L25.6941 45.0677L25.8008 44.9623ZM25.7216 44.8822L25.6149 44.9877L25.7216 44.8822ZM25.6525 44.793L25.5239 44.8702L25.6525 44.793ZM25.5934 44.6946L25.4648 44.7719L25.5934 44.6946ZM25.5291 44.598L25.4081 44.6867L25.5291 44.598ZM25.4596 44.5032L25.5806 44.4145L25.4596 44.5032ZM25.4811 44.4582L25.4744 44.6081L25.4811 44.4582ZM25.5936 44.4632L25.6002 44.3134L25.5936 44.4632ZM25.7061 44.4814L25.7465 44.337L25.7061 44.4814ZM26.1561 44.4955L26.0928 44.6315L26.1561 44.4955ZM26.2123 44.5217L26.1491 44.6577L26.2123 44.5217ZM26.2686 44.5478L26.3318 44.4118L26.2686 44.5478ZM26.3754 44.5406L26.4581 44.6657L26.3754 44.5406ZM26.4765 44.4737L26.3938 44.3486L26.4765 44.4737ZM26.5324 44.3839L26.6817 44.3981L26.5324 44.3839ZM26.5431 44.2711L26.6925 44.2853L26.5431 44.2711ZM26.5751 44.1629L26.4417 44.0944L26.5751 44.1629ZM26.6017 44.1111L26.7352 44.1797L26.6017 44.1111ZM26.629 43.7142L26.7765 43.7417L26.629 43.7142ZM26.6496 43.6036L26.5022 43.5761L26.6496 43.6036ZM26.6714 43.4932L26.5245 43.4627L26.6714 43.4932ZM26.6943 43.383L26.5474 43.3525L26.6943 43.383ZM26.7132 43.2721L26.5646 43.2521L26.7132 43.2721ZM26.7283 43.1602L26.8769 43.1802L26.7283 43.1602ZM26.7533 43.0627L26.6149 43.0047L26.7533 43.0627ZM26.7707 43.0211L26.909 43.0791L26.7707 43.0211ZM26.7882 42.9795L26.9265 43.0375L26.7882 42.9795ZM26.8105 42.9389L26.779 43.0856L26.8105 42.9389ZM26.8203 42.941L26.8519 42.7944L26.8203 42.941ZM26.8496 42.9944L26.7137 43.0577L26.8496 42.9944ZM26.874 43.0467L26.738 43.11L26.7624 43.1623L26.8984 43.099L27.0343 43.0356L27.0099 42.9833L26.874 43.0467ZM26.8984 43.099L26.7624 43.1623C26.7705 43.1796 26.7746 43.1968 26.7754 43.215L26.9253 43.2082L27.0751 43.2015C27.0726 43.1437 27.0588 43.088 27.0343 43.0356L26.8984 43.099ZM26.9253 43.2082L26.7754 43.215L26.778 43.2719L26.9279 43.2652L27.0777 43.2585L27.0751 43.2015L26.9253 43.2082ZM26.9279 43.2652L26.778 43.2719L26.7806 43.3289L26.9304 43.3222L27.0803 43.3155L27.0777 43.2585L26.9279 43.2652ZM26.9304 43.3222L26.7806 43.3289C26.7829 43.3805 26.7921 43.4309 26.8082 43.4799L26.9507 43.4329L27.0931 43.386C27.0857 43.3633 27.0814 43.3399 27.0803 43.3155L26.9304 43.3222ZM26.9507 43.4329L26.8082 43.4799L26.8259 43.5336L26.9684 43.4867L27.1108 43.4397L27.0931 43.386L26.9507 43.4329ZM26.9684 43.4867L26.8259 43.5336L26.8436 43.5873L26.9861 43.5404L27.1286 43.4934L27.1108 43.4397L26.9684 43.4867ZM26.9861 43.5404L26.8436 43.5873C26.8523 43.6138 26.8583 43.6407 26.8617 43.6682L27.0106 43.6502L27.1595 43.6321C27.1538 43.5849 27.1435 43.5386 27.1286 43.4934L26.9861 43.5404ZM27.0106 43.6502L26.8617 43.6682L26.8685 43.7243L27.0174 43.7063L27.1663 43.6882L27.1595 43.6321L27.0106 43.6502ZM27.0174 43.7063L26.8685 43.7243L26.8753 43.7804L27.0242 43.7623L27.1731 43.7443L27.1663 43.6882L27.0174 43.7063ZM27.0242 43.7623L26.8753 43.7804C26.8784 43.8066 26.8788 43.834 26.8761 43.863L27.0254 43.8771L27.1747 43.8913C27.1794 43.8419 27.179 43.7928 27.1731 43.7443L27.0242 43.7623ZM27.0254 43.8771L26.8761 43.863L26.8705 43.9217L27.0198 43.9359L27.1691 43.9501L27.1747 43.8913L27.0254 43.8771ZM27.0198 43.9359L26.8705 43.9217L26.8649 43.9804L27.0142 43.9946L27.1636 44.0088L27.1691 43.9501L27.0198 43.9359ZM27.0142 43.9946L26.8649 43.9804C26.8595 44.0371 26.8641 44.0934 26.8795 44.1482L27.0239 44.1076L27.1683 44.067C27.1634 44.0495 27.1615 44.0304 27.1636 44.0088L27.0142 43.9946ZM27.0239 44.1076L26.8795 44.1482L26.8948 44.2025L27.0392 44.1619L27.1836 44.1213L27.1683 44.067L27.0239 44.1076ZM27.0392 44.1619L26.8948 44.2025L26.91 44.2567L27.0544 44.2161L27.1988 44.1755L27.1836 44.1213L27.0392 44.1619ZM27.0544 44.2161L26.91 44.2567C26.9207 44.2948 26.9322 44.3328 26.9445 44.3705L27.0872 44.3241L27.2298 44.2778C27.2188 44.2438 27.2084 44.2097 27.1988 44.1755L27.0544 44.2161ZM27.0872 44.3241L26.9445 44.3705L26.962 44.4243L27.1046 44.3779L27.2473 44.3315L27.2298 44.2778L27.0872 44.3241ZM27.1046 44.3779L26.962 44.4243L26.9795 44.4781L27.1221 44.4317L27.2648 44.3853L27.2473 44.3315L27.1046 44.3779ZM27.1221 44.4317L26.9795 44.4781C26.9928 44.5189 27.0165 44.5585 27.0538 44.5896C27.0908 44.6205 27.1332 44.6364 27.1739 44.643L27.198 44.495L27.2221 44.3469C27.2239 44.3472 27.2342 44.3494 27.2459 44.3592C27.258 44.3692 27.2632 44.3803 27.2648 44.3853L27.1221 44.4317ZM27.198 44.495L27.1739 44.643L27.2323 44.6525L27.2564 44.5045L27.2805 44.3564L27.2221 44.3469L27.198 44.495ZM27.2564 44.5045L27.2323 44.6525L27.2908 44.662L27.3149 44.514L27.3389 44.3659L27.2805 44.3564L27.2564 44.5045ZM27.3149 44.514L27.2908 44.662C27.3624 44.6737 27.4321 44.6617 27.4959 44.6303L27.4295 44.4957L27.3632 44.3612C27.3519 44.3668 27.3452 44.3669 27.3389 44.3659L27.3149 44.514ZM27.4295 44.4957L27.4959 44.6303L27.5521 44.6025L27.4858 44.468L27.4194 44.3335L27.3632 44.3612L27.4295 44.4957ZM27.4858 44.468L27.5521 44.6025L27.6084 44.5748L27.542 44.4403L27.4757 44.3057L27.4194 44.3335L27.4858 44.468ZM27.542 44.4403L27.6084 44.5748C27.6101 44.5739 27.608 44.5753 27.603 44.5754C27.5979 44.5756 27.5948 44.5743 27.5952 44.5745L27.6545 44.4367L27.7138 44.2989C27.6349 44.265 27.5514 44.2683 27.4757 44.3057L27.542 44.4403ZM27.6545 44.4367L27.5952 44.5745L27.6514 44.5987L27.7108 44.4609L27.7701 44.3232L27.7138 44.2989L27.6545 44.4367ZM27.7108 44.4609L27.6514 44.5987L27.7077 44.6229L27.767 44.4851L27.8263 44.3474L27.7701 44.3232L27.7108 44.4609ZM27.767 44.4851L27.7077 44.6229C27.7577 44.6445 27.8097 44.6588 27.8631 44.6646L27.8795 44.5155L27.8959 44.3664C27.8743 44.3641 27.8513 44.3581 27.8263 44.3474L27.767 44.4851ZM27.8795 44.5155L27.8631 44.6646L27.9194 44.6708L27.9358 44.5217L27.9521 44.3726L27.8959 44.3664L27.8795 44.5155ZM27.9358 44.5217L27.9194 44.6708L27.9756 44.677L27.992 44.5279L28.0084 44.3788L27.9521 44.3726L27.9358 44.5217ZM27.992 44.5279L27.9756 44.677C28.0199 44.6819 28.0634 44.6833 28.1042 44.6791L28.0885 44.5299L28.0729 44.3807C28.06 44.382 28.0391 44.3822 28.0084 44.3788L27.992 44.5279ZM28.0885 44.5299L28.1042 44.6791L28.1444 44.6748L28.1288 44.5256L28.1131 44.3765L28.0729 44.3807L28.0885 44.5299ZM28.1288 44.5256L28.1444 44.6748L28.1847 44.6706L28.169 44.5214L28.1534 44.3722L28.1131 44.3765L28.1288 44.5256ZM28.169 44.5214L28.1847 44.6706C28.184 44.6707 28.162 44.6737 28.1334 44.6634C28.117 44.6574 28.0943 44.6456 28.0747 44.6226C28.0541 44.5986 28.0439 44.5708 28.0411 44.5455C28.0364 44.5026 28.053 44.4734 28.0544 44.4708C28.0582 44.4637 28.0607 44.4613 28.0579 44.4647L28.1733 44.5605L28.2887 44.6563C28.2979 44.6453 28.3092 44.6304 28.3186 44.6129C28.3257 44.5998 28.3448 44.5621 28.3393 44.5127C28.3362 44.4841 28.3249 44.4536 28.3024 44.4273C28.2807 44.4021 28.2553 44.3884 28.2354 44.3812C28.1998 44.3683 28.1674 44.3708 28.1534 44.3722L28.169 44.5214ZM28.1733 44.5605L28.0579 44.4647L28.0219 44.5081L28.1374 44.6039L28.2528 44.6997L28.2887 44.6563L28.1733 44.5605ZM28.1374 44.6039L28.0219 44.5081L27.986 44.5514L28.1014 44.6472L28.2168 44.743L28.2528 44.6997L28.1374 44.6039ZM28.1014 44.6472L27.986 44.5514C27.9596 44.5832 27.9343 44.6161 27.9103 44.65L28.0326 44.7367L28.155 44.8235C28.1747 44.7958 28.1953 44.7689 28.2168 44.743L28.1014 44.6472ZM28.0326 44.7367L27.9103 44.65L27.8775 44.6962L27.9999 44.783L28.1222 44.8697L28.155 44.8235L28.0326 44.7367ZM27.9999 44.783L27.8775 44.6962L27.8447 44.7424L27.9671 44.8292L28.0894 44.916L28.1222 44.8697L27.9999 44.783ZM27.9671 44.8292L27.8447 44.7424C27.841 44.7476 27.8348 44.7539 27.82 44.76L27.8765 44.8989L27.9331 45.0378C27.9953 45.0125 28.0494 44.9724 28.0894 44.916L27.9671 44.8292ZM27.8765 44.8989L27.82 44.76L27.7623 44.7834L27.8188 44.9224L27.8753 45.0613L27.9331 45.0378L27.8765 44.8989ZM27.8188 44.9224L27.7623 44.7834L27.7045 44.8069L27.761 44.9459L27.8176 45.0848L27.8753 45.0613L27.8188 44.9224ZM27.761 44.9459L27.7045 44.8069C27.6131 44.8441 27.5592 44.9208 27.5445 45.0119L27.6926 45.0357L27.8407 45.0595C27.8411 45.0572 27.8406 45.0629 27.8344 45.071C27.8279 45.0795 27.8205 45.0836 27.8176 45.0848L27.761 44.9459ZM27.6926 45.0357L27.5445 45.0119L27.5338 45.0783L27.6819 45.1021L27.83 45.1259L27.8407 45.0595L27.6926 45.0357ZM27.6819 45.1021L27.5338 45.0783L27.5232 45.1446L27.6713 45.1684L27.8194 45.1923L27.83 45.1259L27.6819 45.1021ZM27.6713 45.1684L27.5232 45.1446C27.522 45.1517 27.5207 45.1532 27.5216 45.1517C27.5227 45.1497 27.5247 45.1475 27.5266 45.1461L27.6138 45.2682L27.7009 45.3903C27.7702 45.3408 27.807 45.2689 27.8194 45.1923L27.6713 45.1684ZM27.6138 45.2682L27.5266 45.1461L27.4798 45.1795L27.5669 45.3016L27.654 45.4237L27.7009 45.3903L27.6138 45.2682ZM27.5669 45.3016L27.4798 45.1795L27.4329 45.213L27.5201 45.3351L27.6072 45.4572L27.654 45.4237L27.5669 45.3016ZM27.5201 45.3351L27.4329 45.213C27.3837 45.2481 27.3273 45.3074 27.3208 45.3958L27.4704 45.4069L27.62 45.418C27.6187 45.4352 27.6124 45.448 27.6076 45.455C27.6034 45.4611 27.6015 45.4612 27.6072 45.4572L27.5201 45.3351ZM27.4704 45.4069L27.3208 45.3958L27.3179 45.4343L27.4675 45.4454L27.6171 45.4565L27.62 45.418L27.4704 45.4069ZM27.4675 45.4454L27.3179 45.4343L27.3151 45.4728L27.4647 45.4839L27.6143 45.4949L27.6171 45.4565L27.4675 45.4454ZM27.4647 45.4839L27.3151 45.4728C27.312 45.5142 27.3157 45.5581 27.3228 45.602L27.4709 45.5779L27.6189 45.5538C27.614 45.5236 27.6135 45.5048 27.6143 45.4949L27.4647 45.4839ZM27.4709 45.5779L27.3228 45.602L27.3319 45.6576L27.4799 45.6335L27.628 45.6094L27.6189 45.5538L27.4709 45.5779ZM27.4799 45.6335L27.3319 45.6576L27.3409 45.7132L27.489 45.6891L27.637 45.665L27.628 45.6094L27.4799 45.6335ZM27.489 45.6891L27.3409 45.7132C27.3462 45.7458 27.3501 45.7787 27.3525 45.812L27.5021 45.8013L27.6517 45.7906C27.6487 45.7484 27.6438 45.7065 27.637 45.665L27.489 45.6891ZM27.5021 45.8013L27.3525 45.812L27.3565 45.8687L27.5061 45.858L27.6557 45.8473L27.6517 45.7906L27.5021 45.8013ZM27.5061 45.858L27.3565 45.8687L27.3606 45.9254L27.5102 45.9147L27.6598 45.904L27.6557 45.8473L27.5061 45.858ZM27.5102 45.9147L27.3606 45.9254C27.3618 45.9423 27.3598 45.963 27.3519 45.9887L27.4952 46.033L27.6385 46.0772C27.656 46.0207 27.664 45.9626 27.6598 45.904L27.5102 45.9147ZM27.4952 46.033L27.3519 45.9887L27.3329 46.0503L27.4762 46.0946L27.6195 46.1388L27.6385 46.0772L27.4952 46.033ZM27.4762 46.0946L27.3329 46.0503L27.3138 46.112L27.4572 46.1562L27.6005 46.2004L27.6195 46.1388L27.4762 46.0946ZM27.4572 46.1562L27.3138 46.112C27.2899 46.1896 27.2956 46.2716 27.3394 46.3454L27.4684 46.2689L27.5974 46.1923C27.5979 46.1932 27.5993 46.1962 27.5997 46.2003C27.6001 46.204 27.5992 46.2045 27.6005 46.2004L27.4572 46.1562ZM27.4684 46.2689L27.3394 46.3454L27.3697 46.3964L27.4987 46.3199L27.6277 46.2433L27.5974 46.1923L27.4684 46.2689ZM27.4987 46.3199L27.3697 46.3964L27.4 46.4475L27.529 46.3709L27.658 46.2943L27.6277 46.2433L27.4987 46.3199ZM27.529 46.3709L27.4 46.4475C27.4176 46.4772 27.4333 46.507 27.4472 46.5371L27.5834 46.4743L27.7196 46.4114C27.7013 46.3717 27.6807 46.3327 27.658 46.2943L27.529 46.3709ZM27.5834 46.4743L27.4472 46.5371L27.4714 46.5895L27.6076 46.5266L27.7438 46.4638L27.7196 46.4114L27.5834 46.4743ZM27.6076 46.5266L27.4714 46.5895L27.4955 46.6418L27.6317 46.579L27.7679 46.5161L27.7438 46.4638L27.6076 46.5266ZM27.6317 46.579L27.4955 46.6418C27.5088 46.6706 27.5198 46.6996 27.5287 46.7288L27.6722 46.6853L27.8158 46.6418C27.8028 46.5991 27.7869 46.5571 27.7679 46.5161L27.6317 46.579ZM27.6722 46.6853L27.5287 46.7288L27.5451 46.7828L27.6886 46.7393L27.8322 46.6958L27.8158 46.6418L27.6722 46.6853ZM27.6886 46.7393L27.5451 46.7828L27.5614 46.8368L27.705 46.7934L27.8485 46.7499L27.8322 46.6958L27.6886 46.7393ZM27.705 46.7934L27.5614 46.8368C27.564 46.8452 27.5619 46.8425 27.5624 46.8323C27.563 46.8204 27.5675 46.7959 27.5878 46.7724L27.7011 46.8707L27.8145 46.9689C27.8821 46.8909 27.8622 46.7951 27.8485 46.7499L27.705 46.7934ZM27.7011 46.8707L27.5878 46.7724L27.5676 46.7957L27.681 46.8939L27.7943 46.9922L27.8145 46.9689L27.7011 46.8707ZM27.681 46.8939L27.5676 46.7957L27.5474 46.819L27.6608 46.9172L27.7741 47.0155L27.7943 46.9922L27.681 46.8939ZM27.6608 46.9172L27.5474 46.819C27.5571 46.8078 27.5813 46.7846 27.6222 46.7767C27.6666 46.7682 27.7027 46.783 27.7232 46.7968C27.7411 46.8089 27.7499 46.8216 27.7515 46.8239C27.7539 46.8274 27.7539 46.8281 27.752 46.824L27.6158 46.887L27.4797 46.95C27.4888 46.9697 27.511 47.0157 27.5557 47.0458C27.5837 47.0646 27.6271 47.0812 27.6786 47.0714C27.7266 47.0622 27.7577 47.0344 27.7741 47.0155L27.6608 46.9172ZM27.6158 46.887L27.752 46.824L27.7272 46.7705L27.5911 46.8334L27.4549 46.8964L27.4797 46.95L27.6158 46.887ZM27.5911 46.8334L27.7272 46.7705L27.7024 46.7169L27.5663 46.7799L27.4302 46.8429L27.4549 46.8964L27.5911 46.8334ZM27.5663 46.7799L27.7024 46.7169C27.6673 46.641 27.6055 46.5898 27.5304 46.5637L27.4811 46.7053L27.4318 46.847C27.4361 46.8485 27.4359 46.8492 27.4338 46.8474C27.4329 46.8466 27.432 46.8456 27.4312 46.8445C27.4305 46.8435 27.4301 46.8429 27.4302 46.8429L27.5663 46.7799ZM27.4811 46.7053L27.5304 46.5637L27.47 46.5426L27.4207 46.6843L27.3713 46.826L27.4318 46.847L27.4811 46.7053ZM27.4207 46.6843L27.47 46.5426L27.4095 46.5216L27.3602 46.6633L27.3109 46.8049L27.3713 46.826L27.4207 46.6843ZM27.3602 46.6633L27.4095 46.5216C27.4077 46.521 27.4112 46.5219 27.4159 46.5266C27.4181 46.5287 27.4198 46.531 27.4211 46.5331C27.4223 46.5352 27.4227 46.5365 27.4228 46.5366L27.2804 46.5838L27.138 46.631C27.1663 46.7162 27.2286 46.7763 27.3109 46.8049L27.3602 46.6633ZM27.2804 46.5838L27.4228 46.5366L27.4034 46.4781L27.261 46.5254L27.1187 46.5726L27.138 46.631L27.2804 46.5838ZM27.261 46.5254L27.4034 46.4781L27.384 46.4197L27.2416 46.4669L27.0993 46.5141L27.1187 46.5726L27.261 46.5254ZM27.2416 46.4669L27.384 46.4197C27.3646 46.361 27.3336 46.3078 27.2897 46.2632L27.1828 46.3684L27.0759 46.4736C27.0846 46.4825 27.0929 46.4949 27.0993 46.5141L27.2416 46.4669ZM27.1828 46.3684L27.2897 46.2632L27.2503 46.223L27.1433 46.3282L27.0364 46.4334L27.0759 46.4736L27.1828 46.3684ZM27.1433 46.3282L27.2503 46.223L27.2108 46.1829L27.1038 46.2881L26.9969 46.3933L27.0364 46.4334L27.1433 46.3282ZM27.1038 46.2881L27.2108 46.1829C27.1685 46.14 27.1182 46.108 27.0627 46.0855L27.0065 46.2246L26.9503 46.3637C26.9719 46.3724 26.9865 46.3827 26.9969 46.3933L27.1038 46.2881ZM27.0065 46.2246L27.0627 46.0855L27.0048 46.0621L26.9486 46.2012L26.8924 46.3403L26.9503 46.3637L27.0065 46.2246ZM26.9486 46.2012L27.0048 46.0621L26.9469 46.0388L26.8907 46.1778L26.8346 46.3169L26.8924 46.3403L26.9486 46.2012ZM26.8907 46.1778L26.9469 46.0388C26.9097 46.0237 26.8635 46.0067 26.8228 46.0029L26.8089 46.1523L26.7951 46.3016C26.7903 46.3012 26.788 46.3006 26.7892 46.3008C26.79 46.301 26.7924 46.3016 26.7966 46.3029C26.805 46.3056 26.8175 46.31 26.8346 46.3169L26.8907 46.1778ZM26.8089 46.1523L26.8228 46.0029L26.7989 46.0007L26.785 46.15L26.7712 46.2994L26.7951 46.3016L26.8089 46.1523ZM26.785 46.15L26.7989 46.0007L26.7749 45.9985L26.7611 46.1478L26.7472 46.2972L26.7712 46.2994L26.785 46.15ZM26.7611 46.1478L26.7749 45.9985C26.7296 45.9942 26.6918 46.008 26.6692 46.0183C26.6445 46.0296 26.6217 46.0446 26.6016 46.0595L26.6912 46.1798L26.7808 46.3001C26.7913 46.2923 26.7955 46.2905 26.7941 46.2911C26.7932 46.2915 26.789 46.2934 26.7819 46.295C26.775 46.2967 26.7629 46.2986 26.7472 46.2972L26.7611 46.1478ZM26.6912 46.1798L26.6016 46.0595L26.5557 46.0937L26.6452 46.214L26.7348 46.3344L26.7808 46.3001L26.6912 46.1798ZM26.6452 46.214L26.5557 46.0937L26.5097 46.128L26.5993 46.2483L26.6889 46.3686L26.7348 46.3344L26.6452 46.214ZM26.5993 46.2483L26.5097 46.128C26.4734 46.1549 26.4394 46.1842 26.4076 46.2158L26.5134 46.3222L26.6191 46.4286C26.6406 46.4072 26.6638 46.3872 26.6889 46.3686L26.5993 46.2483ZM26.5134 46.3222L26.4076 46.2158L26.3677 46.2555L26.4734 46.3619L26.5792 46.4683L26.6191 46.4286L26.5134 46.3222ZM26.4734 46.3619L26.3677 46.2555L26.3277 46.2952L26.4335 46.4016L26.5392 46.508L26.5792 46.4683L26.4734 46.3619ZM26.4335 46.4016L26.3277 46.2952C26.2949 46.3278 26.2651 46.3632 26.2383 46.4011L26.3608 46.4876L26.4834 46.5741C26.5002 46.5503 26.5188 46.5283 26.5392 46.508L26.4335 46.4016ZM26.3608 46.4876L26.2383 46.4011L26.2056 46.4474L26.3282 46.5339L26.4507 46.6204L26.4834 46.5741L26.3608 46.4876ZM26.3282 46.5339L26.2056 46.4474L26.1729 46.4937L26.2955 46.5802L26.418 46.6667L26.4507 46.6204L26.3282 46.5339ZM26.2955 46.5802L26.1729 46.4937C26.1404 46.5398 26.1169 46.591 26.1013 46.6457L26.2455 46.6869L26.3898 46.7281C26.3971 46.7023 26.4069 46.6824 26.418 46.6667L26.2955 46.5802ZM26.2455 46.6869L26.1013 46.6457L26.0841 46.7061L26.2283 46.7473L26.3725 46.7885L26.3898 46.7281L26.2455 46.6869ZM26.2283 46.7473L26.0841 46.7061L26.0668 46.7664L26.211 46.8076L26.3553 46.8488L26.3725 46.7885L26.2283 46.7473ZM26.211 46.8076L26.0668 46.7664C26.0673 46.7648 26.0698 46.7581 26.0767 46.7513C26.0834 46.7446 26.0888 46.7431 26.0875 46.7435L26.1311 46.887L26.1747 47.0306C26.2627 47.0038 26.3291 46.9406 26.3553 46.8488L26.211 46.8076ZM26.1311 46.887L26.0875 46.7435L26.0249 46.7626L26.0685 46.9061L26.1121 47.0496L26.1747 47.0306L26.1311 46.887ZM26.0685 46.9061L26.0249 46.7626L25.9622 46.7816L26.0058 46.9251L26.0494 47.0686L26.1121 47.0496L26.0685 46.9061ZM26.0058 46.9251L25.9622 46.7816C25.9553 46.7837 25.954 46.7837 25.9566 46.7833C25.958 46.7831 25.9626 46.7824 25.9694 46.7823C25.9755 46.7823 25.989 46.7826 26.006 46.7876C26.0232 46.7926 26.0517 46.8046 26.0757 46.8334C26.1014 46.8644 26.1095 46.8997 26.1091 46.9279C26.1087 46.953 26.1017 46.9715 26.098 46.98C26.0939 46.9893 26.0899 46.9955 26.0882 46.9979L25.9645 46.9131L25.8408 46.8283C25.8346 46.8372 25.8099 46.8729 25.8091 46.9231C25.8086 46.9544 25.8176 46.9923 25.845 47.0252C25.8706 47.0561 25.9017 47.0697 25.9224 47.0757C25.9588 47.0862 25.9912 47.0815 26.0029 47.0797C26.0195 47.0771 26.0355 47.0729 26.0494 47.0686L26.0058 46.9251ZM25.9645 46.9131L26.0882 46.9979L26.1095 46.9669L25.9858 46.8821L25.862 46.7973L25.8408 46.8283L25.9645 46.9131ZM25.9858 46.8821L26.1095 46.9669L26.1307 46.9358L26.007 46.851L25.8833 46.7662L25.862 46.7973L25.9858 46.8821ZM26.007 46.851L26.1307 46.9358C26.1619 46.8905 26.1774 46.8381 26.1855 46.7893L26.0376 46.7645L25.8897 46.7397C25.8877 46.7515 25.8855 46.7593 25.8839 46.7639C25.8822 46.7686 25.8816 46.7687 25.8833 46.7662L26.007 46.851ZM26.0376 46.7645L26.1855 46.7893L26.1949 46.7337L26.0469 46.7089L25.899 46.6841L25.8897 46.7397L26.0376 46.7645ZM26.0469 46.7089L26.1949 46.7337L26.2042 46.6782L26.0562 46.6534L25.9083 46.6286L25.899 46.6841L26.0469 46.7089ZM26.0562 46.6534L26.2042 46.6782C26.2108 46.6385 26.2164 46.5986 26.2209 46.5585L26.0719 46.5417L25.9228 46.5248C25.9189 46.5596 25.914 46.5942 25.9083 46.6286L26.0562 46.6534ZM26.0719 46.5417L26.2209 46.5585L26.2273 46.5024L26.0782 46.4855L25.9292 46.4687L25.9228 46.5248L26.0719 46.5417ZM26.0782 46.4855L26.2273 46.5024L26.2336 46.4462L26.0846 46.4294L25.9355 46.4125L25.9292 46.4687L26.0782 46.4855ZM26.0846 46.4294L26.2336 46.4462C26.2365 46.4206 26.2424 46.3956 26.2513 46.3711L26.1104 46.3198L25.9694 46.2685C25.9524 46.3152 25.9411 46.3632 25.9355 46.4125L26.0846 46.4294ZM26.1104 46.3198L26.2513 46.3711L26.2707 46.3178L26.1298 46.2665L25.9888 46.2151L25.9694 46.2685L26.1104 46.3198ZM26.1298 46.2665L26.2707 46.3178L26.2902 46.2644L26.1492 46.2131L26.0083 46.1618L25.9888 46.2151L26.1298 46.2665ZM26.1492 46.2131L26.2902 46.2644C26.3139 46.1992 26.3161 46.1317 26.3011 46.066L26.1549 46.0993L26.0086 46.1326C26.012 46.1475 26.0104 46.1558 26.0083 46.1618L26.1492 46.2131ZM26.1549 46.0993L26.3011 46.066L26.2874 46.0055L26.1411 46.0388L25.9948 46.0721L26.0086 46.1326L26.1549 46.0993ZM26.1411 46.0388L26.2874 46.0055L26.2736 45.945L26.1273 45.9783L25.9811 46.0116L25.9948 46.0721L26.1411 46.0388ZM26.1273 45.9783L26.2736 45.945C26.2736 45.945 26.2739 45.9463 26.2739 45.9487C26.2739 45.9513 26.2736 45.9543 26.2728 45.9574C26.271 45.9643 26.2683 45.9673 26.2692 45.9662L26.1549 45.8691L26.0405 45.772C25.9834 45.8392 25.961 45.9236 25.9811 46.0116L26.1273 45.9783ZM26.1549 45.8691L26.2692 45.9662L26.3105 45.9175L26.1962 45.8205L26.0818 45.7234L26.0405 45.772L26.1549 45.8691ZM26.1962 45.8205L26.3105 45.9175L26.3518 45.8689L26.2375 45.7718L26.1232 45.6747L26.0818 45.7234L26.1962 45.8205ZM26.2375 45.7718L26.3518 45.8689C26.3993 45.813 26.4286 45.7446 26.4294 45.6674L26.2794 45.6657L26.1294 45.6641C26.1294 45.6651 26.1294 45.6653 26.1292 45.6658C26.1289 45.6665 26.1276 45.6695 26.1232 45.6747L26.2375 45.7718ZM26.2794 45.6657L26.4294 45.6674L26.43 45.61L26.2801 45.6083L26.1301 45.6067L26.1294 45.6641L26.2794 45.6657ZM26.2801 45.6083L26.43 45.61L26.4307 45.5526L26.2807 45.5509L26.1307 45.5493L26.1301 45.6067L26.2801 45.6083ZM26.2807 45.5509L26.4307 45.5526C26.4313 45.4946 26.4207 45.4381 26.3984 45.3845L26.2599 45.442L26.1214 45.4995C26.1276 45.5146 26.1309 45.5308 26.1307 45.5493L26.2807 45.5509ZM26.2599 45.442L26.3984 45.3845L26.377 45.3329L26.2385 45.3905L26.0999 45.448L26.1214 45.4995L26.2599 45.442ZM26.2385 45.3905L26.377 45.3329L26.3556 45.2814L26.2171 45.3389L26.0785 45.3965L26.0999 45.448L26.2385 45.3905ZM26.2171 45.3389L26.3556 45.2814C26.335 45.2318 26.3068 45.1866 26.2714 45.1462L26.1586 45.2451L26.0458 45.3439C26.0598 45.3599 26.0706 45.3773 26.0785 45.3965L26.2171 45.3389ZM26.1586 45.2451L26.2714 45.1462L26.2343 45.1039L26.1215 45.2027L26.0087 45.3016L26.0458 45.3439L26.1586 45.2451ZM26.1215 45.2027L26.2343 45.1039L26.1972 45.0616L26.0844 45.1604L25.9716 45.2593L26.0087 45.3016L26.1215 45.2027ZM26.0844 45.1604L26.1972 45.0616C26.1606 45.0198 26.1174 44.9854 26.0688 44.9583L25.9956 45.0892L25.9223 45.2201C25.9427 45.2315 25.9587 45.2446 25.9716 45.2593L26.0844 45.1604ZM25.9956 45.0892L26.0688 44.9583L26.0171 44.9293L25.9438 45.0602L25.8706 45.1911L25.9223 45.2201L25.9956 45.0892ZM25.9438 45.0602L26.0171 44.9293L25.9653 44.9003L25.8921 45.0312L25.8188 45.1621L25.8706 45.1911L25.9438 45.0602ZM25.8921 45.0312L25.9653 44.9003C25.9425 44.8875 25.9234 44.8729 25.9074 44.8568L25.8008 44.9623L25.6941 45.0677C25.7309 45.1049 25.7727 45.1363 25.8188 45.1621L25.8921 45.0312ZM25.8008 44.9623L25.9074 44.8568L25.8678 44.8168L25.7612 44.9222L25.6545 45.0277L25.6941 45.0677L25.8008 44.9623ZM25.7612 44.9222L25.8678 44.8168L25.8282 44.7767L25.7216 44.8822L25.6149 44.9877L25.6545 45.0277L25.7612 44.9222ZM25.7216 44.8822L25.8282 44.7767C25.8104 44.7587 25.7947 44.7385 25.781 44.7158L25.6525 44.793L25.5239 44.8702C25.5496 44.9131 25.58 44.9523 25.6149 44.9877L25.7216 44.8822ZM25.6525 44.793L25.781 44.7158L25.7515 44.6666L25.6229 44.7438L25.4943 44.821L25.5239 44.8702L25.6525 44.793ZM25.6229 44.7438L25.7515 44.6666L25.722 44.6174L25.5934 44.6946L25.4648 44.7719L25.4943 44.821L25.6229 44.7438ZM25.5934 44.6946L25.722 44.6174C25.6999 44.5806 25.6759 44.5446 25.6501 44.5094L25.5291 44.598L25.4081 44.6867C25.4286 44.7147 25.4475 44.7431 25.4648 44.7719L25.5934 44.6946ZM25.5291 44.598L25.6501 44.5094L25.6153 44.4619L25.4943 44.5506L25.3733 44.6392L25.4081 44.6867L25.5291 44.598ZM25.4943 44.5506L25.6153 44.4619L25.5806 44.4145L25.4596 44.5032L25.3386 44.5918L25.3733 44.6392L25.4943 44.5506ZM25.4596 44.5032L25.5806 44.4145C25.5791 44.4125 25.5848 44.4195 25.5898 44.4338C25.5944 44.4474 25.6048 44.4872 25.5829 44.5329C25.56 44.5808 25.5196 44.5984 25.5015 44.6038C25.492 44.6067 25.4847 44.6075 25.4809 44.6079C25.477 44.6082 25.4746 44.6081 25.4744 44.6081L25.4811 44.4582L25.4877 44.3084C25.4705 44.3076 25.4442 44.3079 25.4158 44.3163C25.3865 44.3251 25.3387 44.3481 25.3123 44.4035C25.2868 44.4567 25.2974 44.5061 25.306 44.5313C25.3149 44.5573 25.3285 44.578 25.3386 44.5918L25.4596 44.5032ZM25.4811 44.4582L25.4744 44.6081L25.5307 44.6106L25.5373 44.4607L25.544 44.3109L25.4877 44.3084L25.4811 44.4582ZM25.5373 44.4607L25.5307 44.6106L25.5869 44.6131L25.5936 44.4632L25.6002 44.3134L25.544 44.3109L25.5373 44.4607ZM25.5936 44.4632L25.5869 44.6131C25.6126 44.6142 25.6388 44.6184 25.6657 44.6259L25.7061 44.4814L25.7465 44.337C25.6984 44.3235 25.6496 44.3155 25.6002 44.3134L25.5936 44.4632ZM25.7061 44.4814L25.6657 44.6259L25.7219 44.6416L25.7623 44.4972L25.8027 44.3527L25.7465 44.337L25.7061 44.4814ZM25.7623 44.4972L25.7219 44.6416L25.7782 44.6574L25.8186 44.5129L25.859 44.3684L25.8027 44.3527L25.7623 44.4972ZM25.8186 44.5129L25.7782 44.6574C25.8413 44.675 25.9059 44.6756 25.9693 44.6589L25.9311 44.5138L25.8929 44.3688C25.8813 44.3718 25.8709 44.3718 25.859 44.3684L25.8186 44.5129ZM25.9311 44.5138L25.9693 44.6589L26.0255 44.644L25.9873 44.499L25.9491 44.3539L25.8929 44.3688L25.9311 44.5138ZM25.9873 44.499L26.0255 44.644L26.0818 44.6292L26.0436 44.4842L26.0054 44.3391L25.9491 44.3539L25.9873 44.499ZM26.0436 44.4842L26.0818 44.6292C26.0837 44.6287 26.0844 44.6288 26.0848 44.6288C26.0853 44.6289 26.0878 44.6292 26.0928 44.6315L26.1561 44.4955L26.2193 44.3595C26.1524 44.3283 26.079 44.3197 26.0054 44.3391L26.0436 44.4842ZM26.1561 44.4955L26.0928 44.6315L26.1491 44.6577L26.2123 44.5217L26.2756 44.3856L26.2193 44.3595L26.1561 44.4955ZM26.2123 44.5217L26.1491 44.6577L26.2053 44.6838L26.2686 44.5478L26.3318 44.4118L26.2756 44.3856L26.2123 44.5217ZM26.2686 44.5478L26.2053 44.6838C26.2887 44.7226 26.3797 44.7175 26.4581 44.6657L26.3754 44.5406L26.2927 44.4154C26.2945 44.4142 26.3018 44.4102 26.3132 44.4094C26.3244 44.4087 26.3313 44.4116 26.3318 44.4118L26.2686 44.5478ZM26.3754 44.5406L26.4581 44.6657L26.5087 44.6322L26.4259 44.5071L26.3432 44.382L26.2927 44.4154L26.3754 44.5406ZM26.4259 44.5071L26.5087 44.6322L26.5592 44.5988L26.4765 44.4737L26.3938 44.3486L26.3432 44.382L26.4259 44.5071ZM26.4765 44.4737L26.5592 44.5988C26.6277 44.5535 26.6735 44.4843 26.6817 44.3981L26.5324 44.3839L26.3831 44.3697C26.3833 44.3671 26.3846 44.3614 26.3884 44.3552C26.3921 44.3494 26.3953 44.3476 26.3938 44.3486L26.4765 44.4737ZM26.5324 44.3839L26.6817 44.3981L26.6871 44.3417L26.5378 44.3275L26.3884 44.3133L26.3831 44.3697L26.5324 44.3839ZM26.5378 44.3275L26.6871 44.3417L26.6925 44.2853L26.5431 44.2711L26.3938 44.2569L26.3884 44.3133L26.5378 44.3275ZM26.5431 44.2711L26.6925 44.2853C26.6942 44.2672 26.6992 44.2496 26.7085 44.2315L26.5751 44.1629L26.4417 44.0944C26.4155 44.1454 26.3992 44.1998 26.3938 44.2569L26.5431 44.2711ZM26.5751 44.1629L26.7085 44.2315L26.7352 44.1797L26.6017 44.1111L26.4683 44.0426L26.4417 44.0944L26.5751 44.1629ZM26.6017 44.1111L26.7352 44.1797L26.7618 44.1279L26.6284 44.0593L26.4949 43.9907L26.4683 44.0426L26.6017 44.1111ZM26.6284 44.0593L26.7618 44.1279C26.7945 44.0643 26.8048 43.9952 26.7942 43.9254L26.6459 43.948L26.4976 43.9706C26.4991 43.9802 26.4978 43.9852 26.4949 43.9907L26.6284 44.0593ZM26.6459 43.948L26.7942 43.9254L26.7852 43.8659L26.6369 43.8885L26.4886 43.9111L26.4976 43.9706L26.6459 43.948ZM26.6369 43.8885L26.7852 43.8659L26.7761 43.8064L26.6278 43.829L26.4795 43.8516L26.4886 43.9111L26.6369 43.8885ZM26.6278 43.829L26.7761 43.8064C26.7724 43.7822 26.7729 43.7609 26.7765 43.7417L26.629 43.7142L26.4816 43.6868C26.4714 43.7413 26.4711 43.7965 26.4795 43.8516L26.6278 43.829ZM26.629 43.7142L26.7765 43.7417L26.7868 43.6864L26.6393 43.6589L26.4919 43.6315L26.4816 43.6868L26.629 43.7142ZM26.6393 43.6589L26.7868 43.6864L26.7971 43.631L26.6496 43.6036L26.5022 43.5761L26.4919 43.6315L26.6393 43.6589ZM26.6496 43.6036L26.7971 43.631C26.8038 43.5952 26.8108 43.5594 26.8182 43.5237L26.6714 43.4932L26.5245 43.4627C26.5167 43.5004 26.5092 43.5382 26.5022 43.5761L26.6496 43.6036ZM26.6714 43.4932L26.8182 43.5237L26.8297 43.4687L26.6828 43.4381L26.536 43.4076L26.5245 43.4627L26.6714 43.4932ZM26.6828 43.4381L26.8297 43.4687L26.8411 43.4136L26.6943 43.383L26.5474 43.3525L26.536 43.4076L26.6828 43.4381ZM26.6943 43.383L26.8411 43.4136C26.8495 43.3734 26.8564 43.3328 26.8619 43.292L26.7132 43.2721L26.5646 43.2521C26.56 43.2858 26.5543 43.3193 26.5474 43.3525L26.6943 43.383ZM26.7132 43.2721L26.8619 43.292L26.8694 43.2361L26.7208 43.2161L26.5721 43.1962L26.5646 43.2521L26.7132 43.2721ZM26.7208 43.2161L26.8694 43.2361L26.8769 43.1802L26.7283 43.1602L26.5796 43.1402L26.5721 43.1962L26.7208 43.2161ZM26.7283 43.1602L26.8769 43.1802C26.8806 43.1529 26.8861 43.1337 26.8916 43.1207L26.7533 43.0627L26.6149 43.0047C26.5971 43.0472 26.586 43.093 26.5796 43.1402L26.7283 43.1602ZM26.7533 43.0627L26.8916 43.1207L26.909 43.0791L26.7707 43.0211L26.6324 42.963L26.6149 43.0047L26.7533 43.0627ZM26.7707 43.0211L26.909 43.0791L26.9265 43.0375L26.7882 42.9795L26.6499 42.9214L26.6324 42.963L26.7707 43.0211ZM26.7882 42.9795L26.9265 43.0375C26.9318 43.0249 26.9341 43.0205 26.9339 43.021C26.9336 43.0214 26.9327 43.023 26.9313 43.0253C26.93 43.0273 26.927 43.0318 26.9224 43.0373C26.9187 43.0417 26.9085 43.0534 26.8919 43.0644C26.8768 43.0744 26.8351 43.0976 26.779 43.0856L26.8105 42.9389L26.8421 42.7923C26.7852 42.78 26.7425 42.8035 26.7264 42.8142C26.7086 42.8259 26.6973 42.8388 26.6922 42.8448C26.6816 42.8576 26.6745 42.8701 26.6711 42.8761C26.6634 42.8901 26.6562 42.9063 26.6499 42.9214L26.7882 42.9795ZM26.8105 42.9389L26.779 43.0856L26.7839 43.0866L26.8154 42.94L26.847 42.7933L26.8421 42.7923L26.8105 42.9389ZM26.8154 42.94L26.7839 43.0866L26.7888 43.0877L26.8203 42.941L26.8519 42.7944L26.847 42.7933L26.8154 42.94ZM26.8203 42.941L26.7888 43.0877C26.7625 43.082 26.7442 43.0706 26.7354 43.0645C26.7256 43.0577 26.7188 43.0512 26.7149 43.0473C26.7074 43.0396 26.7028 43.0331 26.7014 43.0312C26.6982 43.0266 26.6971 43.0243 26.6986 43.027C26.7011 43.0315 26.7059 43.0412 26.7137 43.0577L26.8496 42.9944L26.9856 42.931C26.9771 42.9127 26.9689 42.896 26.9616 42.8827C26.9582 42.8766 26.9531 42.8675 26.9466 42.8583C26.9436 42.8541 26.9376 42.8458 26.9288 42.8369C26.9257 42.8337 26.8986 42.8044 26.8519 42.7944L26.8203 42.941ZM26.8496 42.9944L26.7137 43.0577L26.738 43.11L26.874 43.0467L27.0099 42.9833L26.9856 42.931L26.8496 42.9944Z" fill="var(--stroke-0, white)"/>
</g>
</g>
<g id="Group 24">
<g id="Union_2">
<path d="M50.5933 20.0035C51.0671 20.0118 51.3227 20.025 51.8022 20.025C54.6859 20.0252 58.1455 21.0517 60.7593 24.4381C62.4736 26.6594 63.2517 29.2697 63.6743 31.3844C64.0998 33.5133 64.2625 35.7109 64.397 37.1871C64.5782 39.1767 64.5551 42.2016 64.0434 45.3483C63.545 48.4133 62.4878 52.2023 60.1694 55.2135C59.246 56.4127 57.7726 57.4867 56.1157 58.1178C54.3191 58.802 51.8757 59.1215 49.2964 58.0836C48.3003 57.6828 47.6065 57.4292 47.0474 57.2233C46.592 57.0555 45.8667 56.7964 45.2134 56.4479C43.5211 55.5447 42.5124 54.0972 41.9419 53.3951C40.4949 51.6148 39.4637 48.8461 38.8999 45.8824C38.3019 42.7389 38.1223 38.8321 38.8032 34.4205C38.8534 34.0953 38.936 33.7824 39.0434 33.484C39.049 33.2153 39.0749 32.9434 39.1255 32.6705C39.5023 30.6364 40.228 28.3146 41.2847 26.0328C41.862 24.7861 42.5947 23.5495 43.8003 22.5914C44.3493 22.1552 44.875 21.883 45.0044 21.8131C45.0072 21.8116 45.0105 21.8106 45.0132 21.8092C46.0029 21.0758 47.2172 20.3359 48.8862 20.0914C49.5818 19.9896 50.2148 19.9969 50.5933 20.0035Z" fill="var(--fill-0, #FFFEEF)"/>
<path d="M50.5933 20.0035L50.6108 19.0037L50.6108 19.0037L50.5933 20.0035ZM51.8022 20.025L51.8023 19.025H51.8022L51.8022 20.025ZM60.7593 24.4381L61.5509 23.8271L61.5509 23.8271L60.7593 24.4381ZM63.6743 31.3844L64.6549 31.1884V31.1884L63.6743 31.3844ZM64.397 37.1871L65.3928 37.0964V37.0964L64.397 37.1871ZM64.0434 45.3483L65.0305 45.5088L65.0305 45.5088L64.0434 45.3483ZM60.1694 55.2135L60.9618 55.8236L60.9618 55.8235L60.1694 55.2135ZM56.1157 58.1178L56.4716 59.0523L56.4716 59.0523L56.1157 58.1178ZM49.2964 58.0836L48.923 59.0113L48.9231 59.0113L49.2964 58.0836ZM47.0474 57.2233L46.7017 58.1616L46.7017 58.1616L47.0474 57.2233ZM45.2134 56.4479L44.7425 57.3301L44.7426 57.3301L45.2134 56.4479ZM41.9419 53.3951L42.718 52.7645L42.7179 52.7644L41.9419 53.3951ZM38.8999 45.8824L37.9175 46.0693L37.9175 46.0693L38.8999 45.8824ZM38.8032 34.4205L37.8149 34.268L37.8149 34.268L38.8032 34.4205ZM39.0434 33.484L39.9843 33.8228L40.0399 33.6685L40.0432 33.5046L39.0434 33.484ZM39.1255 32.6705L38.1422 32.4884L38.1422 32.4884L39.1255 32.6705ZM41.2847 26.0328L40.3772 25.6126L40.3772 25.6126L41.2847 26.0328ZM43.8003 22.5914L43.1782 21.8085L43.1781 21.8085L43.8003 22.5914ZM45.0044 21.8131L44.5397 20.9275L44.529 20.9333L45.0044 21.8131ZM45.0132 21.8092L45.4896 22.6884L45.5517 22.6547L45.6085 22.6127L45.0132 21.8092ZM48.8862 20.0914L48.7413 19.102L48.7413 19.102L48.8862 20.0914ZM50.5933 20.0035L50.5757 21.0034C51.0187 21.0111 51.3139 21.025 51.8022 21.025L51.8022 20.025L51.8022 19.025C51.3315 19.025 51.1156 19.0125 50.6108 19.0037L50.5933 20.0035ZM51.8022 20.025L51.8022 21.025C54.444 21.0252 57.5813 21.9573 59.9676 25.0491L60.7593 24.4381L61.5509 23.8271C58.7098 20.1462 54.9278 19.0252 51.8023 19.025L51.8022 20.025ZM60.7593 24.4381L59.9676 25.0491C61.545 27.093 62.2836 29.5284 62.6937 31.5804L63.6743 31.3844L64.6549 31.1884C64.2197 29.011 63.4021 26.2258 61.5509 23.8271L60.7593 24.4381ZM63.6743 31.3844L62.6937 31.5804C63.1062 33.6443 63.2644 35.7777 63.4011 37.2778L64.397 37.1871L65.3928 37.0964C65.2605 35.6441 65.0934 33.3824 64.6549 31.1884L63.6743 31.3844ZM64.397 37.1871L63.4011 37.2778C63.5749 39.1857 63.5543 42.1262 63.0564 45.1878L64.0434 45.3483L65.0305 45.5088C65.556 42.2771 65.5815 39.1677 65.3928 37.0964L64.397 37.1871ZM64.0434 45.3483L63.0564 45.1877C62.5692 48.1837 61.5486 51.783 59.3771 54.6034L60.1694 55.2135L60.9618 55.8235C63.427 52.6217 64.5208 48.6429 65.0305 45.5088L64.0434 45.3483ZM60.1694 55.2135L59.3771 54.6034C58.5791 55.6398 57.2645 56.6102 55.7598 57.1833L56.1157 58.1178L56.4716 59.0523C58.2807 58.3633 59.913 57.1856 60.9618 55.8236L60.1694 55.2135ZM56.1157 58.1178L55.7598 57.1833C54.142 57.7994 51.9649 58.0795 49.6697 57.1559L49.2964 58.0836L48.9231 59.0113C51.7865 60.1636 54.4962 59.8046 56.4716 59.0523L56.1157 58.1178ZM49.2964 58.0836L49.6697 57.1559C48.6586 56.749 47.9525 56.491 47.393 56.2849L47.0474 57.2233L46.7017 58.1616C47.2604 58.3674 47.942 58.6165 48.923 59.0113L49.2964 58.0836ZM47.0474 57.2233L47.393 56.2849C46.9209 56.111 46.265 55.8755 45.6841 55.5656L45.2134 56.4479L44.7426 57.3301C45.4684 57.7174 46.2631 58 46.7017 58.1616L47.0474 57.2233ZM45.2134 56.4479L45.6842 55.5657C44.2108 54.7793 43.3392 53.5291 42.718 52.7645L41.9419 53.3951L41.1658 54.0258C41.6855 54.6653 42.8313 56.3101 44.7425 57.3301L45.2134 56.4479ZM41.9419 53.3951L42.7179 52.7644C41.42 51.1674 40.4317 48.5838 39.8823 45.6956L38.8999 45.8824L37.9175 46.0693C38.4957 49.1084 39.5699 52.0621 41.1659 54.0258L41.9419 53.3951ZM38.8999 45.8824L39.8823 45.6956C39.3054 42.6633 39.1281 38.8712 39.7915 34.5731L38.8032 34.4205L37.8149 34.268C37.1165 38.7929 37.2984 42.8146 37.9175 46.0693L38.8999 45.8824ZM38.8032 34.4205L39.7915 34.5731C39.8312 34.3158 39.897 34.0652 39.9843 33.8228L39.0434 33.484L38.1026 33.1452C37.975 33.4996 37.8756 33.8748 37.8149 34.268L38.8032 34.4205ZM39.0434 33.484L40.0432 33.5046C40.0477 33.2864 40.0687 33.0688 40.1088 32.8526L39.1255 32.6705L38.1422 32.4884C38.0811 32.8181 38.0502 33.1441 38.0437 33.4634L39.0434 33.484ZM39.1255 32.6705L40.1088 32.8527C40.4695 30.9048 41.1688 28.6628 42.1921 26.453L41.2847 26.0328L40.3772 25.6126C39.2872 27.9664 38.535 30.368 38.1422 32.4884L39.1255 32.6705ZM41.2847 26.0328L42.1921 26.4531C42.7425 25.2645 43.3948 24.191 44.4224 23.3743L43.8003 22.5914L43.1781 21.8085C41.7947 22.9079 40.9815 24.3077 40.3772 25.6126L41.2847 26.0328ZM43.8003 22.5914L44.4224 23.3743C44.8944 22.9993 45.3482 22.764 45.4797 22.6929L45.0044 21.8131L44.529 20.9333C44.4017 21.0021 43.8042 21.3111 43.1782 21.8085L43.8003 22.5914ZM45.0044 21.8131L45.469 22.6986C45.4542 22.7064 45.441 22.7128 45.4302 22.7179C45.4193 22.723 45.4101 22.7271 45.4031 22.7301C45.3962 22.7331 45.3907 22.7353 45.3877 22.7366C45.385 22.7377 45.3826 22.7387 45.3837 22.7382C45.3839 22.7381 45.3873 22.7367 45.3914 22.7351C45.3957 22.7333 45.4027 22.7304 45.4111 22.7267C45.4196 22.723 45.4307 22.718 45.4436 22.7118C45.4565 22.7057 45.4721 22.6979 45.4896 22.6884L45.0132 21.8092L44.5367 20.93C44.5536 20.9208 44.5685 20.9134 44.5807 20.9076C44.5929 20.9018 44.6033 20.8971 44.611 20.8937C44.6188 20.8903 44.625 20.8877 44.6286 20.8863C44.6319 20.8849 44.6346 20.8838 44.634 20.884C44.634 20.8841 44.634 20.8841 44.6339 20.8841C44.6339 20.8841 44.6339 20.8841 44.6338 20.8841C44.6338 20.8841 44.6336 20.8842 44.6335 20.8842C44.6332 20.8843 44.6328 20.8845 44.6323 20.8847C44.6313 20.8851 44.6297 20.8858 44.6278 20.8866C44.624 20.8881 44.6177 20.8907 44.6101 20.894C44.6024 20.8974 44.5924 20.9018 44.5808 20.9072C44.5692 20.9127 44.5553 20.9194 44.5398 20.9276L45.0044 21.8131ZM45.0132 21.8092L45.6085 22.6127C46.5378 21.9241 47.5955 21.2912 49.0312 21.0809L48.8862 20.0914L48.7413 19.102C46.8389 19.3807 45.468 20.2275 44.4178 21.0057L45.0132 21.8092ZM48.8862 20.0914L49.0311 21.0809C49.6409 20.9916 50.205 20.9969 50.5757 21.0034L50.5933 20.0035L50.6108 19.0037C50.2247 18.9969 49.5227 18.9876 48.7413 19.102L48.8862 20.0914Z" fill="var(--stroke-0, #F4C280)"/>
</g>
<ellipse id="Ellipse 20_2" cx="54.0488" cy="37.1751" rx="7.12151" ry="11.534" fill="var(--fill-0, #424242)"/>
<g id="Star 4_2">
<path d="M50.1912 42.942L50.5243 44.4917H51.6022L50.7302 45.4495L51.0633 46.9992L50.1912 46.0414L49.3191 46.9992L49.6522 45.4495L48.7802 44.4917H49.8581L50.1912 42.942Z" fill="var(--fill-0, white)"/>
<path d="M50.2399 43.0466L50.104 43.11L50.2399 43.0466ZM50.2643 43.0989L50.4003 43.0356L50.2643 43.0989ZM50.2912 43.2082L50.1414 43.2149L50.2912 43.2082ZM50.2938 43.2652L50.4437 43.2585L50.2938 43.2652ZM50.2964 43.3222L50.1465 43.3289L50.2964 43.3222ZM50.3166 43.4329L50.4591 43.3859L50.3166 43.4329ZM50.3343 43.4866L50.1919 43.5336L50.3343 43.4866ZM50.352 43.5403L50.2096 43.5873L50.352 43.5403ZM50.3766 43.6501L50.2276 43.6682L50.3766 43.6501ZM50.3901 43.7623L50.539 43.7443L50.3901 43.7623ZM50.3913 43.8771L50.242 43.8629L50.3913 43.8771ZM50.3802 43.9946L50.2309 43.9804L50.3802 43.9946ZM50.3899 44.1076L50.5343 44.067V44.067L50.3899 44.1076ZM50.4204 44.2161L50.276 44.2567V44.2567L50.4204 44.2161ZM50.4531 44.3241L50.3105 44.3705L50.4531 44.3241ZM50.564 44.4949L50.5399 44.643L50.564 44.4949ZM50.7955 44.4957L50.7291 44.3612L50.7955 44.4957ZM50.8517 44.468L50.7854 44.3334L50.8517 44.468ZM50.908 44.4402L50.9743 44.5747L50.908 44.4402ZM51.133 44.4851L51.0737 44.6229L51.133 44.4851ZM51.2455 44.5155L51.2618 44.3664L51.2455 44.5155ZM51.3017 44.5217L51.2853 44.6708L51.3017 44.5217ZM51.358 44.5279L51.3416 44.677L51.358 44.5279ZM51.4545 44.5298L51.4701 44.679L51.4545 44.5298ZM51.4947 44.5256L51.5104 44.6748L51.4947 44.5256ZM51.535 44.5214L51.5193 44.3722L51.535 44.5214ZM51.5393 44.5605L51.4239 44.4647L51.5393 44.5605ZM51.5033 44.6038L51.6187 44.6996L51.5033 44.6038ZM51.3986 44.7367L51.2763 44.6499L51.3986 44.7367ZM51.3658 44.7829L51.4882 44.8697L51.3658 44.7829ZM51.333 44.8291L51.4554 44.9159L51.333 44.8291ZM51.2425 44.8989L51.186 44.7599L51.2425 44.8989ZM51.127 44.9458L51.1835 45.0848L51.127 44.9458ZM51.0586 45.0357L50.9105 45.0119L51.0586 45.0357ZM51.0372 45.1684L51.1853 45.1922L51.0372 45.1684ZM50.9329 45.3016L51.02 45.4237L50.9329 45.3016ZM50.886 45.335L50.7989 45.2129L50.886 45.335ZM50.8363 45.4069L50.6867 45.3958L50.8363 45.4069ZM50.8335 45.4454L50.9831 45.4565L50.8335 45.4454ZM50.8306 45.4838L50.681 45.4727L50.8306 45.4838ZM50.8368 45.5779L50.9849 45.5538L50.8368 45.5779ZM50.8549 45.6891L50.7069 45.7132L50.8549 45.6891ZM50.868 45.8013L51.0176 45.7906V45.7906L50.868 45.8013ZM50.8721 45.858L50.7225 45.8687L50.8721 45.858ZM50.8761 45.9146L51.0257 45.9039L50.8761 45.9146ZM50.8612 46.0329L51.0045 46.0772L50.8612 46.0329ZM50.8231 46.1562L50.6798 46.1119L50.8231 46.1562ZM50.8344 46.2688L50.9634 46.1923V46.1923L50.8344 46.2688ZM50.8949 46.3709L50.7659 46.4474V46.4474L50.8949 46.3709ZM50.9494 46.4742L50.8132 46.5371L50.9494 46.4742ZM50.9977 46.5789L51.1339 46.5161L50.9977 46.5789ZM51.0382 46.6853L50.8946 46.7288L51.0382 46.6853ZM51.0709 46.7933L51.2145 46.7498L51.0709 46.7933ZM51.0671 46.8706L51.1804 46.9689L51.0671 46.8706ZM51.0469 46.8939L50.9336 46.7956L51.0469 46.8939ZM51.0267 46.9172L50.9134 46.8189L51.0267 46.9172ZM50.9818 46.8869L51.1179 46.824L50.9818 46.8869ZM50.9322 46.7799L50.7961 46.8429L50.9322 46.7799ZM50.8471 46.7053L50.8964 46.5637L50.8471 46.7053ZM50.7262 46.6632L50.6769 46.8049L50.7262 46.6632ZM50.6464 46.5838L50.504 46.631L50.6464 46.5838ZM50.6076 46.4669L50.75 46.4197L50.6076 46.4669ZM50.5487 46.3683L50.4418 46.4735L50.5487 46.3683ZM50.5093 46.3282L50.6162 46.223L50.5093 46.3282ZM50.4698 46.2881L50.3629 46.3933L50.4698 46.2881ZM50.3724 46.2246L50.3163 46.3636L50.3724 46.2246ZM50.3146 46.2012L50.2584 46.3403L50.3146 46.2012ZM50.2567 46.1778L50.3129 46.0387L50.2567 46.1778ZM50.1749 46.1522L50.161 46.3016L50.1749 46.1522ZM50.127 46.1478L50.1409 45.9984L50.127 46.1478ZM50.0572 46.1798L50.1467 46.3001L50.0572 46.1798ZM49.8793 46.3222L49.7736 46.2158L49.8793 46.3222ZM49.8394 46.3619L49.9451 46.4682L49.8394 46.3619ZM49.7994 46.4016L49.9052 46.5079L49.7994 46.4016ZM49.7268 46.4876L49.8493 46.5741L49.7268 46.4876ZM49.6614 46.5802L49.5389 46.4937L49.6614 46.5802ZM49.577 46.8076L49.4328 46.7664L49.577 46.8076ZM49.4971 46.887L49.5407 47.0305L49.4971 46.887ZM49.3718 46.9251L49.3282 46.7816L49.3718 46.9251ZM49.3304 46.9131L49.4541 46.9979L49.3304 46.9131ZM49.3517 46.882L49.4754 46.9669L49.3517 46.882ZM49.373 46.851L49.4967 46.9358L49.373 46.851ZM49.4036 46.7644L49.2556 46.7396L49.4036 46.7644ZM49.4378 46.5417L49.5869 46.5585L49.4378 46.5417ZM49.4442 46.4855L49.2951 46.4686L49.4442 46.4855ZM49.4505 46.4293L49.5996 46.4462L49.4505 46.4293ZM49.5152 46.2131L49.3742 46.1618L49.5152 46.2131ZM49.5208 46.0992L49.6671 46.0659L49.5208 46.0992ZM49.4933 45.9782L49.347 46.0115L49.4933 45.9782ZM49.5208 45.8691L49.4065 45.772L49.5208 45.8691ZM49.6035 45.7718L49.7178 45.8689L49.6035 45.7718ZM49.6454 45.6657L49.4954 45.6641L49.6454 45.6657ZM49.646 45.6083L49.796 45.6099L49.646 45.6083ZM49.6466 45.5509L49.4966 45.5493L49.6466 45.5509ZM49.6258 45.442L49.7644 45.3844L49.6258 45.442ZM49.583 45.3389L49.4445 45.3964L49.583 45.3389ZM49.5245 45.245L49.4117 45.3439L49.5245 45.245ZM49.4874 45.2027L49.3746 45.3016L49.4874 45.2027ZM49.4504 45.1604L49.5632 45.0615L49.4504 45.1604ZM49.3615 45.0891L49.2883 45.22L49.3615 45.0891ZM49.258 45.0312L49.1848 45.1621L49.258 45.0312ZM49.1667 44.9622L49.0601 45.0677L49.1667 44.9622ZM49.0875 44.8822L48.9809 44.9876L49.0875 44.8822ZM49.0184 44.793L48.8898 44.8702L49.0184 44.793ZM48.9593 44.6946L48.8307 44.7718L48.9593 44.6946ZM48.895 44.598L48.774 44.6866L48.895 44.598ZM48.8255 44.5031L48.9465 44.4145L48.8255 44.5031ZM48.847 44.4582L48.8404 44.608L48.847 44.4582ZM48.9595 44.4632L48.9662 44.3133L48.9595 44.4632ZM49.072 44.4814L49.1124 44.3369L49.072 44.4814ZM49.522 44.4955L49.4588 44.6315L49.522 44.4955ZM49.5783 44.5216L49.515 44.6576L49.5783 44.5216ZM49.6345 44.5478L49.6978 44.4118L49.6345 44.5478ZM49.7413 44.5405L49.8241 44.6656L49.7413 44.5405ZM49.8425 44.4737L49.7597 44.3485L49.8425 44.4737ZM49.8984 44.3839L50.0477 44.398L49.8984 44.3839ZM49.9091 44.2711L50.0584 44.2853L49.9091 44.2711ZM49.9411 44.1629L49.8077 44.0943L49.9411 44.1629ZM49.9677 44.1111L50.1011 44.1796L49.9677 44.1111ZM49.995 43.7142L50.1425 43.7416L49.995 43.7142ZM50.0156 43.6036L49.8681 43.5761L50.0156 43.6036ZM50.0373 43.4932L49.8905 43.4626L50.0373 43.4932ZM50.0602 43.383L49.9134 43.3525L50.0602 43.383ZM50.0792 43.272L49.9305 43.252L50.0792 43.272ZM50.0942 43.1602L50.2429 43.1802L50.0942 43.1602ZM50.1192 43.0627L49.9809 43.0046L50.1192 43.0627ZM50.1367 43.021L50.275 43.0791L50.1367 43.021ZM50.1541 42.9794L50.2924 43.0375L50.1541 42.9794ZM50.1765 42.9389L50.145 43.0855L50.1765 42.9389ZM50.1863 42.941L50.2178 42.7943L50.1863 42.941ZM50.2156 42.9943L50.0796 43.0577L50.2156 42.9943ZM50.2399 43.0466L50.104 43.11L50.1284 43.1623L50.2643 43.0989L50.4003 43.0356L50.3759 42.9833L50.2399 43.0466ZM50.2643 43.0989L50.1284 43.1623C50.1364 43.1796 50.1406 43.1968 50.1414 43.2149L50.2912 43.2082L50.4411 43.2015C50.4385 43.1437 50.4247 43.088 50.4003 43.0356L50.2643 43.0989ZM50.2912 43.2082L50.1414 43.2149L50.144 43.2719L50.2938 43.2652L50.4437 43.2585L50.4411 43.2015L50.2912 43.2082ZM50.2938 43.2652L50.144 43.2719L50.1465 43.3289L50.2964 43.3222L50.4462 43.3155L50.4437 43.2585L50.2938 43.2652ZM50.2964 43.3222L50.1465 43.3289C50.1488 43.3805 50.158 43.4309 50.1742 43.4798L50.3166 43.4329L50.4591 43.3859C50.4516 43.3632 50.4473 43.3399 50.4462 43.3155L50.2964 43.3222ZM50.3166 43.4329L50.1742 43.4798L50.1919 43.5336L50.3343 43.4866L50.4768 43.4397L50.4591 43.3859L50.3166 43.4329ZM50.3343 43.4866L50.1919 43.5336L50.2096 43.5873L50.352 43.5403L50.4945 43.4934L50.4768 43.4397L50.3343 43.4866ZM50.352 43.5403L50.2096 43.5873C50.2183 43.6137 50.2243 43.6407 50.2276 43.6682L50.3766 43.6501L50.5255 43.6321C50.5197 43.5849 50.5094 43.5386 50.4945 43.4934L50.352 43.5403ZM50.3766 43.6501L50.2276 43.6682L50.2344 43.7243L50.3833 43.7062L50.5323 43.6882L50.5255 43.6321L50.3766 43.6501ZM50.3833 43.7062L50.2344 43.7243L50.2412 43.7803L50.3901 43.7623L50.539 43.7443L50.5323 43.6882L50.3833 43.7062ZM50.3901 43.7623L50.2412 43.7803C50.2444 43.8066 50.2448 43.834 50.242 43.8629L50.3913 43.8771L50.5407 43.8913C50.5454 43.8419 50.5449 43.7928 50.539 43.7443L50.3901 43.7623ZM50.3913 43.8771L50.242 43.8629L50.2364 43.9217L50.3858 43.9358L50.5351 43.95L50.5407 43.8913L50.3913 43.8771ZM50.3858 43.9358L50.2364 43.9217L50.2309 43.9804L50.3802 43.9946L50.5295 44.0088L50.5351 43.95L50.3858 43.9358ZM50.3802 43.9946L50.2309 43.9804C50.2255 44.0371 50.2301 44.0934 50.2455 44.1482L50.3899 44.1076L50.5343 44.067C50.5293 44.0494 50.5275 44.0304 50.5295 44.0088L50.3802 43.9946ZM50.3899 44.1076L50.2455 44.1482L50.2607 44.2024L50.4051 44.1618L50.5495 44.1212L50.5343 44.067L50.3899 44.1076ZM50.4051 44.1618L50.2607 44.2024L50.276 44.2567L50.4204 44.2161L50.5648 44.1755L50.5495 44.1212L50.4051 44.1618ZM50.4204 44.2161L50.276 44.2567C50.2867 44.2948 50.2982 44.3327 50.3105 44.3705L50.4531 44.3241L50.5958 44.2777C50.5847 44.2438 50.5744 44.2097 50.5648 44.1755L50.4204 44.2161ZM50.4531 44.3241L50.3105 44.3705L50.328 44.4243L50.4706 44.3779L50.6132 44.3315L50.5958 44.2777L50.4531 44.3241ZM50.4706 44.3779L50.328 44.4243L50.3454 44.4781L50.4881 44.4317L50.6307 44.3853L50.6132 44.3315L50.4706 44.3779ZM50.4881 44.4317L50.3454 44.4781C50.3587 44.5189 50.3824 44.5584 50.4198 44.5896C50.4568 44.6204 50.4992 44.6364 50.5399 44.643L50.564 44.4949L50.5881 44.3469C50.5899 44.3472 50.6002 44.3494 50.6119 44.3592C50.6239 44.3692 50.6291 44.3803 50.6307 44.3853L50.4881 44.4317ZM50.564 44.4949L50.5399 44.643L50.5983 44.6525L50.6224 44.5044L50.6465 44.3564L50.5881 44.3469L50.564 44.4949ZM50.6224 44.5044L50.5983 44.6525L50.6567 44.662L50.6808 44.514L50.7049 44.3659L50.6465 44.3564L50.6224 44.5044ZM50.6808 44.514L50.6567 44.662C50.7284 44.6737 50.7981 44.6617 50.8618 44.6302L50.7955 44.4957L50.7291 44.3612C50.7178 44.3667 50.7111 44.3669 50.7049 44.3659L50.6808 44.514ZM50.7955 44.4957L50.8618 44.6302L50.9181 44.6025L50.8517 44.468L50.7854 44.3334L50.7291 44.3612L50.7955 44.4957ZM50.8517 44.468L50.9181 44.6025L50.9743 44.5747L50.908 44.4402L50.8416 44.3057L50.7854 44.3334L50.8517 44.468ZM50.908 44.4402L50.9743 44.5747C50.9761 44.5739 50.9739 44.5752 50.9689 44.5754C50.9638 44.5756 50.9608 44.5743 50.9612 44.5745L51.0205 44.4367L51.0798 44.2989C51.0008 44.2649 50.9174 44.2683 50.8416 44.3057L50.908 44.4402ZM51.0205 44.4367L50.9612 44.5745L51.0174 44.5987L51.0767 44.4609L51.136 44.3231L51.0798 44.2989L51.0205 44.4367ZM51.0767 44.4609L51.0174 44.5987L51.0737 44.6229L51.133 44.4851L51.1923 44.3473L51.136 44.3231L51.0767 44.4609ZM51.133 44.4851L51.0737 44.6229C51.1237 44.6444 51.1756 44.6587 51.2291 44.6646L51.2455 44.5155L51.2618 44.3664C51.2403 44.364 51.2172 44.3581 51.1923 44.3473L51.133 44.4851ZM51.2455 44.5155L51.2291 44.6646L51.2853 44.6708L51.3017 44.5217L51.3181 44.3726L51.2618 44.3664L51.2455 44.5155ZM51.3017 44.5217L51.2853 44.6708L51.3416 44.677L51.358 44.5279L51.3743 44.3788L51.3181 44.3726L51.3017 44.5217ZM51.358 44.5279L51.3416 44.677C51.3859 44.6818 51.4294 44.6833 51.4701 44.679L51.4545 44.5298L51.4388 44.3807C51.4259 44.382 51.4051 44.3822 51.3743 44.3788L51.358 44.5279ZM51.4545 44.5298L51.4701 44.679L51.5104 44.6748L51.4947 44.5256L51.4791 44.3764L51.4388 44.3807L51.4545 44.5298ZM51.4947 44.5256L51.5104 44.6748L51.5506 44.6706L51.535 44.5214L51.5193 44.3722L51.4791 44.3764L51.4947 44.5256ZM51.535 44.5214L51.5506 44.6706C51.55 44.6706 51.5279 44.6736 51.4993 44.6633C51.4829 44.6574 51.4603 44.6455 51.4406 44.6226C51.42 44.5986 51.4099 44.5708 51.4071 44.5454C51.4024 44.5025 51.419 44.4734 51.4204 44.4708C51.4242 44.4637 51.4267 44.4613 51.4239 44.4647L51.5393 44.5605L51.6547 44.6563C51.6639 44.6453 51.6752 44.6304 51.6846 44.6129C51.6916 44.5998 51.7107 44.5621 51.7053 44.5127C51.7021 44.4841 51.6909 44.4535 51.6683 44.4273C51.6467 44.402 51.6213 44.3884 51.6013 44.3812C51.5657 44.3683 51.5334 44.3707 51.5193 44.3722L51.535 44.5214ZM51.5393 44.5605L51.4239 44.4647L51.3879 44.508L51.5033 44.6038L51.6187 44.6996L51.6547 44.6563L51.5393 44.5605ZM51.5033 44.6038L51.3879 44.508L51.3519 44.5514L51.4674 44.6472L51.5828 44.743L51.6187 44.6996L51.5033 44.6038ZM51.4674 44.6472L51.3519 44.5514C51.3255 44.5832 51.3003 44.616 51.2763 44.6499L51.3986 44.7367L51.5209 44.8235C51.5406 44.7958 51.5612 44.7689 51.5828 44.743L51.4674 44.6472ZM51.3986 44.7367L51.2763 44.6499L51.2435 44.6961L51.3658 44.7829L51.4882 44.8697L51.5209 44.8235L51.3986 44.7367ZM51.3658 44.7829L51.2435 44.6961L51.2107 44.7424L51.333 44.8291L51.4554 44.9159L51.4882 44.8697L51.3658 44.7829ZM51.333 44.8291L51.2107 44.7424C51.207 44.7476 51.2008 44.7539 51.186 44.7599L51.2425 44.8989L51.299 45.0378C51.3612 45.0125 51.4154 44.9724 51.4554 44.9159L51.333 44.8291ZM51.2425 44.8989L51.186 44.7599L51.1282 44.7834L51.1847 44.9224L51.2413 45.0613L51.299 45.0378L51.2425 44.8989ZM51.1847 44.9224L51.1282 44.7834L51.0705 44.8069L51.127 44.9458L51.1835 45.0848L51.2413 45.0613L51.1847 44.9224ZM51.127 44.9458L51.0705 44.8069C50.979 44.8441 50.9251 44.9208 50.9105 45.0119L51.0586 45.0357L51.2067 45.0595C51.207 45.0571 51.2065 45.0628 51.2003 45.0709C51.1938 45.0795 51.1865 45.0836 51.1835 45.0848L51.127 44.9458ZM51.0586 45.0357L50.9105 45.0119L50.8998 45.0782L51.0479 45.102L51.196 45.1259L51.2067 45.0595L51.0586 45.0357ZM51.0479 45.102L50.8998 45.0782L50.8891 45.1446L51.0372 45.1684L51.1853 45.1922L51.196 45.1259L51.0479 45.102ZM51.0372 45.1684L50.8891 45.1446C50.888 45.1517 50.8867 45.1532 50.8876 45.1516C50.8887 45.1496 50.8907 45.1474 50.8926 45.1461L50.9797 45.2682L51.0668 45.3903C51.1362 45.3408 51.173 45.2689 51.1853 45.1922L51.0372 45.1684ZM50.9797 45.2682L50.8926 45.1461L50.8457 45.1795L50.9329 45.3016L51.02 45.4237L51.0668 45.3903L50.9797 45.2682ZM50.9329 45.3016L50.8457 45.1795L50.7989 45.2129L50.886 45.335L50.9731 45.4571L51.02 45.4237L50.9329 45.3016ZM50.886 45.335L50.7989 45.2129C50.7496 45.2481 50.6933 45.3074 50.6867 45.3958L50.8363 45.4069L50.9859 45.418C50.9846 45.4352 50.9784 45.448 50.9736 45.455C50.9694 45.461 50.9674 45.4612 50.9731 45.4571L50.886 45.335ZM50.8363 45.4069L50.6867 45.3958L50.6839 45.4343L50.8335 45.4454L50.9831 45.4565L50.9859 45.418L50.8363 45.4069ZM50.8335 45.4454L50.6839 45.4343L50.681 45.4727L50.8306 45.4838L50.9802 45.4949L50.9831 45.4565L50.8335 45.4454ZM50.8306 45.4838L50.681 45.4727C50.678 45.5142 50.6816 45.5581 50.6888 45.602L50.8368 45.5779L50.9849 45.5538C50.9799 45.5235 50.9795 45.5048 50.9802 45.4949L50.8306 45.4838ZM50.8368 45.5779L50.6888 45.602L50.6978 45.6576L50.8459 45.6335L50.9939 45.6094L50.9849 45.5538L50.8368 45.5779ZM50.8459 45.6335L50.6978 45.6576L50.7069 45.7132L50.8549 45.6891L51.003 45.6649L50.9939 45.6094L50.8459 45.6335ZM50.8549 45.6891L50.7069 45.7132C50.7122 45.7457 50.716 45.7787 50.7184 45.812L50.868 45.8013L51.0176 45.7906C51.0146 45.7484 51.0097 45.7065 51.003 45.6649L50.8549 45.6891ZM50.868 45.8013L50.7184 45.812L50.7225 45.8687L50.8721 45.858L51.0217 45.8473L51.0176 45.7906L50.868 45.8013ZM50.8721 45.858L50.7225 45.8687L50.7265 45.9253L50.8761 45.9146L51.0257 45.9039L51.0217 45.8473L50.8721 45.858ZM50.8761 45.9146L50.7265 45.9253C50.7277 45.9422 50.7258 45.963 50.7178 45.9887L50.8612 46.0329L51.0045 46.0772C51.0219 46.0207 51.0299 45.9626 51.0257 45.9039L50.8761 45.9146ZM50.8612 46.0329L50.7178 45.9887L50.6988 46.0503L50.8421 46.0945L50.9855 46.1388L51.0045 46.0772L50.8612 46.0329ZM50.8421 46.0945L50.6988 46.0503L50.6798 46.1119L50.8231 46.1562L50.9664 46.2004L50.9855 46.1388L50.8421 46.0945ZM50.8231 46.1562L50.6798 46.1119C50.6558 46.1895 50.6615 46.2715 50.7054 46.3454L50.8344 46.2688L50.9634 46.1923C50.9639 46.1931 50.9653 46.1962 50.9657 46.2002C50.966 46.204 50.9652 46.2045 50.9664 46.2004L50.8231 46.1562ZM50.8344 46.2688L50.7054 46.3454L50.7357 46.3964L50.8647 46.3198L50.9936 46.2433L50.9634 46.1923L50.8344 46.2688ZM50.8647 46.3198L50.7357 46.3964L50.7659 46.4474L50.8949 46.3709L51.0239 46.2943L50.9936 46.2433L50.8647 46.3198ZM50.8949 46.3709L50.7659 46.4474C50.7836 46.4771 50.7993 46.507 50.8132 46.5371L50.9494 46.4742L51.0856 46.4114C51.0672 46.3717 51.0467 46.3326 51.0239 46.2943L50.8949 46.3709ZM50.9494 46.4742L50.8132 46.5371L50.8373 46.5894L50.9735 46.5266L51.1097 46.4637L51.0856 46.4114L50.9494 46.4742ZM50.9735 46.5266L50.8373 46.5894L50.8615 46.6418L50.9977 46.5789L51.1339 46.5161L51.1097 46.4637L50.9735 46.5266ZM50.9977 46.5789L50.8615 46.6418C50.8747 46.6705 50.8858 46.6995 50.8946 46.7288L51.0382 46.6853L51.1817 46.6418C51.1688 46.599 51.1528 46.5571 51.1339 46.5161L50.9977 46.5789ZM51.0382 46.6853L50.8946 46.7288L50.911 46.7828L51.0546 46.7393L51.1981 46.6958L51.1817 46.6418L51.0382 46.6853ZM51.0546 46.7393L50.911 46.7828L50.9274 46.8368L51.0709 46.7933L51.2145 46.7498L51.1981 46.6958L51.0546 46.7393ZM51.0709 46.7933L50.9274 46.8368C50.9299 46.8452 50.9278 46.8425 50.9283 46.8322C50.9289 46.8203 50.9334 46.7958 50.9538 46.7723L51.0671 46.8706L51.1804 46.9689C51.2481 46.8909 51.2282 46.7951 51.2145 46.7498L51.0709 46.7933ZM51.0671 46.8706L50.9538 46.7723L50.9336 46.7956L51.0469 46.8939L51.1602 46.9922L51.1804 46.9689L51.0671 46.8706ZM51.0469 46.8939L50.9336 46.7956L50.9134 46.8189L51.0267 46.9172L51.14 47.0155L51.1602 46.9922L51.0469 46.8939ZM51.0267 46.9172L50.9134 46.8189C50.9231 46.8078 50.9472 46.7845 50.9882 46.7767C51.0326 46.7682 51.0686 46.783 51.0891 46.7968C51.1071 46.8089 51.1158 46.8215 51.1174 46.8239C51.1198 46.8273 51.1198 46.8281 51.1179 46.824L50.9818 46.8869L50.8456 46.9499C50.8548 46.9696 50.8769 47.0156 50.9217 47.0457C50.9497 47.0646 50.993 47.0812 51.0445 47.0714C51.0925 47.0622 51.1236 47.0344 51.14 47.0155L51.0267 46.9172ZM50.9818 46.8869L51.1179 46.824L51.0932 46.7704L50.957 46.8334L50.8209 46.8964L50.8456 46.9499L50.9818 46.8869ZM50.957 46.8334L51.0932 46.7704L51.0684 46.7169L50.9322 46.7799L50.7961 46.8429L50.8209 46.8964L50.957 46.8334ZM50.9322 46.7799L51.0684 46.7169C51.0333 46.641 50.9715 46.5898 50.8964 46.5637L50.8471 46.7053L50.7977 46.847C50.802 46.8485 50.8018 46.8491 50.7998 46.8473C50.7988 46.8465 50.7979 46.8455 50.7972 46.8445C50.7964 46.8435 50.7961 46.8428 50.7961 46.8429L50.9322 46.7799ZM50.8471 46.7053L50.8964 46.5637L50.8359 46.5426L50.7866 46.6843L50.7373 46.8259L50.7977 46.847L50.8471 46.7053ZM50.7866 46.6843L50.8359 46.5426L50.7755 46.5216L50.7262 46.6632L50.6769 46.8049L50.7373 46.8259L50.7866 46.6843ZM50.7262 46.6632L50.7755 46.5216C50.7737 46.5209 50.7771 46.5219 50.7818 46.5265C50.784 46.5287 50.7857 46.531 50.787 46.5331C50.7883 46.5351 50.7887 46.5364 50.7887 46.5365L50.6464 46.5838L50.504 46.631C50.5322 46.7162 50.5946 46.7762 50.6769 46.8049L50.7262 46.6632ZM50.6464 46.5838L50.7887 46.5365L50.7694 46.4781L50.627 46.5253L50.4846 46.5725L50.504 46.631L50.6464 46.5838ZM50.627 46.5253L50.7694 46.4781L50.75 46.4197L50.6076 46.4669L50.4652 46.5141L50.4846 46.5725L50.627 46.5253ZM50.6076 46.4669L50.75 46.4197C50.7305 46.361 50.6996 46.3077 50.6557 46.2631L50.5487 46.3683L50.4418 46.4735C50.4506 46.4824 50.4588 46.4949 50.4652 46.5141L50.6076 46.4669ZM50.5487 46.3683L50.6557 46.2631L50.6162 46.223L50.5093 46.3282L50.4023 46.4334L50.4418 46.4735L50.5487 46.3683ZM50.5093 46.3282L50.6162 46.223L50.5767 46.1829L50.4698 46.2881L50.3629 46.3933L50.4023 46.4334L50.5093 46.3282ZM50.4698 46.2881L50.5767 46.1829C50.5345 46.1399 50.4842 46.1079 50.4286 46.0855L50.3724 46.2246L50.3163 46.3636C50.3379 46.3724 50.3525 46.3827 50.3629 46.3933L50.4698 46.2881ZM50.3724 46.2246L50.4286 46.0855L50.3707 46.0621L50.3146 46.2012L50.2584 46.3403L50.3163 46.3636L50.3724 46.2246ZM50.3146 46.2012L50.3707 46.0621L50.3129 46.0387L50.2567 46.1778L50.2005 46.3169L50.2584 46.3403L50.3146 46.2012ZM50.2567 46.1778L50.3129 46.0387C50.2756 46.0237 50.2294 46.0066 50.1888 46.0029L50.1749 46.1522L50.161 46.3016C50.1563 46.3011 50.154 46.3005 50.1551 46.3008C50.156 46.301 50.1583 46.3016 50.1625 46.3029C50.171 46.3055 50.1834 46.31 50.2005 46.3169L50.2567 46.1778ZM50.1749 46.1522L50.1888 46.0029L50.1648 46.0006L50.151 46.15L50.1371 46.2994L50.161 46.3016L50.1749 46.1522ZM50.151 46.15L50.1648 46.0006L50.1409 45.9984L50.127 46.1478L50.1132 46.2971L50.1371 46.2994L50.151 46.15ZM50.127 46.1478L50.1409 45.9984C50.0956 45.9942 50.0578 46.0079 50.0352 46.0183C50.0105 46.0296 49.9877 46.0445 49.9676 46.0595L50.0572 46.1798L50.1467 46.3001C50.1573 46.2922 50.1614 46.2904 50.1601 46.291C50.1591 46.2915 50.1549 46.2934 50.1479 46.295C50.1409 46.2966 50.1288 46.2986 50.1132 46.2971L50.127 46.1478ZM50.0572 46.1798L49.9676 46.0595L49.9216 46.0937L50.0112 46.214L50.1008 46.3343L50.1467 46.3001L50.0572 46.1798ZM50.0112 46.214L49.9216 46.0937L49.8756 46.1279L49.9652 46.2482L50.0548 46.3685L50.1008 46.3343L50.0112 46.214ZM49.9652 46.2482L49.8756 46.1279C49.8394 46.1549 49.8053 46.1842 49.7736 46.2158L49.8793 46.3222L49.9851 46.4285C50.0066 46.4072 50.0298 46.3872 50.0548 46.3685L49.9652 46.2482ZM49.8793 46.3222L49.7736 46.2158L49.7336 46.2555L49.8394 46.3619L49.9451 46.4682L49.9851 46.4285L49.8793 46.3222ZM49.8394 46.3619L49.7336 46.2555L49.6937 46.2952L49.7994 46.4016L49.9052 46.5079L49.9451 46.4682L49.8394 46.3619ZM49.7994 46.4016L49.6937 46.2952C49.6609 46.3278 49.631 46.3631 49.6043 46.4011L49.7268 46.4876L49.8493 46.5741C49.8662 46.5503 49.8848 46.5283 49.9052 46.5079L49.7994 46.4016ZM49.7268 46.4876L49.6043 46.4011L49.5716 46.4474L49.6941 46.5339L49.8166 46.6204L49.8493 46.5741L49.7268 46.4876ZM49.6941 46.5339L49.5716 46.4474L49.5389 46.4937L49.6614 46.5802L49.784 46.6667L49.8166 46.6204L49.6941 46.5339ZM49.6614 46.5802L49.5389 46.4937C49.5064 46.5397 49.4829 46.5909 49.4672 46.6457L49.6115 46.6869L49.7557 46.7281C49.7631 46.7023 49.7729 46.6824 49.784 46.6667L49.6614 46.5802ZM49.6115 46.6869L49.4672 46.6457L49.45 46.706L49.5942 46.7472L49.7385 46.7884L49.7557 46.7281L49.6115 46.6869ZM49.5942 46.7472L49.45 46.706L49.4328 46.7664L49.577 46.8076L49.7212 46.8488L49.7385 46.7884L49.5942 46.7472ZM49.577 46.8076L49.4328 46.7664C49.4332 46.7648 49.4358 46.7581 49.4427 46.7513C49.4493 46.7446 49.4548 46.7431 49.4535 46.7435L49.4971 46.887L49.5407 47.0305C49.6287 47.0038 49.695 46.9405 49.7212 46.8488L49.577 46.8076ZM49.4971 46.887L49.4535 46.7435L49.3908 46.7625L49.4344 46.906L49.478 47.0496L49.5407 47.0305L49.4971 46.887ZM49.4344 46.906L49.3908 46.7625L49.3282 46.7816L49.3718 46.9251L49.4154 47.0686L49.478 47.0496L49.4344 46.906ZM49.3718 46.9251L49.3282 46.7816C49.3212 46.7837 49.3199 46.7837 49.3226 46.7833C49.324 46.783 49.3286 46.7824 49.3354 46.7823C49.3414 46.7823 49.355 46.7826 49.3719 46.7875C49.3891 46.7925 49.4177 46.8046 49.4416 46.8334C49.4673 46.8643 49.4755 46.8997 49.475 46.9279C49.4746 46.953 49.4676 46.9715 49.464 46.9799C49.4599 46.9892 49.4558 46.9954 49.4541 46.9979L49.3304 46.9131L49.2067 46.8283C49.2006 46.8372 49.1759 46.8728 49.1751 46.9231C49.1746 46.9543 49.1835 46.9922 49.2109 47.0252C49.2366 47.0561 49.2677 47.0697 49.2883 47.0756C49.3247 47.0862 49.3571 47.0815 49.3689 47.0797C49.3854 47.0771 49.4015 47.0728 49.4154 47.0686L49.3718 46.9251ZM49.3304 46.9131L49.4541 46.9979L49.4754 46.9669L49.3517 46.882L49.228 46.7972L49.2067 46.8283L49.3304 46.9131ZM49.3517 46.882L49.4754 46.9669L49.4967 46.9358L49.373 46.851L49.2493 46.7662L49.228 46.7972L49.3517 46.882ZM49.373 46.851L49.4967 46.9358C49.5278 46.8904 49.5433 46.838 49.5515 46.7892L49.4036 46.7644L49.2556 46.7396C49.2537 46.7514 49.2515 46.7592 49.2498 46.7639C49.2482 46.7686 49.2475 46.7687 49.2493 46.7662L49.373 46.851ZM49.4036 46.7644L49.5515 46.7892L49.5608 46.7337L49.4129 46.7089L49.2649 46.6841L49.2556 46.7396L49.4036 46.7644ZM49.4129 46.7089L49.5608 46.7337L49.5701 46.6782L49.4222 46.6534L49.2742 46.6286L49.2649 46.6841L49.4129 46.7089ZM49.4222 46.6534L49.5701 46.6782C49.5768 46.6385 49.5824 46.5986 49.5869 46.5585L49.4378 46.5417L49.2888 46.5248C49.2849 46.5596 49.28 46.5942 49.2742 46.6286L49.4222 46.6534ZM49.4378 46.5417L49.5869 46.5585L49.5932 46.5023L49.4442 46.4855L49.2951 46.4686L49.2888 46.5248L49.4378 46.5417ZM49.4442 46.4855L49.5932 46.5023L49.5996 46.4462L49.4505 46.4293L49.3015 46.4125L49.2951 46.4686L49.4442 46.4855ZM49.4505 46.4293L49.5996 46.4462C49.6025 46.4205 49.6083 46.3956 49.6173 46.3711L49.4763 46.3198L49.3354 46.2685C49.3184 46.3151 49.3071 46.3632 49.3015 46.4125L49.4505 46.4293ZM49.4763 46.3198L49.6173 46.3711L49.6367 46.3177L49.4957 46.2664L49.3548 46.2151L49.3354 46.2685L49.4763 46.3198ZM49.4957 46.2664L49.6367 46.3177L49.6561 46.2644L49.5152 46.2131L49.3742 46.1618L49.3548 46.2151L49.4957 46.2664ZM49.5152 46.2131L49.6561 46.2644C49.6799 46.1992 49.6821 46.1317 49.6671 46.0659L49.5208 46.0992L49.3746 46.1325C49.378 46.1474 49.3764 46.1558 49.3742 46.1618L49.5152 46.2131ZM49.5208 46.0992L49.6671 46.0659L49.6533 46.0054L49.5071 46.0387L49.3608 46.072L49.3746 46.1325L49.5208 46.0992ZM49.5071 46.0387L49.6533 46.0054L49.6395 45.9449L49.4933 45.9782L49.347 46.0115L49.3608 46.072L49.5071 46.0387ZM49.4933 45.9782L49.6395 45.9449C49.6395 45.9449 49.6398 45.9463 49.6398 45.9487C49.6398 45.9512 49.6395 45.9542 49.6387 45.9574C49.637 45.9643 49.6342 45.9673 49.6352 45.9662L49.5208 45.8691L49.4065 45.772C49.3494 45.8392 49.327 45.9236 49.347 46.0115L49.4933 45.9782ZM49.5208 45.8691L49.6352 45.9662L49.6765 45.9175L49.5621 45.8204L49.4478 45.7233L49.4065 45.772L49.5208 45.8691ZM49.5621 45.8204L49.6765 45.9175L49.7178 45.8689L49.6035 45.7718L49.4891 45.6747L49.4478 45.7233L49.5621 45.8204ZM49.6035 45.7718L49.7178 45.8689C49.7653 45.8129 49.7945 45.7446 49.7954 45.6673L49.6454 45.6657L49.4954 45.6641C49.4954 45.665 49.4953 45.6653 49.4951 45.6658C49.4948 45.6665 49.4935 45.6695 49.4891 45.6747L49.6035 45.7718ZM49.6454 45.6657L49.7954 45.6673L49.796 45.6099L49.646 45.6083L49.496 45.6067L49.4954 45.6641L49.6454 45.6657ZM49.646 45.6083L49.796 45.6099L49.7966 45.5525L49.6466 45.5509L49.4966 45.5493L49.496 45.6067L49.646 45.6083ZM49.6466 45.5509L49.7966 45.5525C49.7972 45.4946 49.7866 45.4381 49.7644 45.3844L49.6258 45.442L49.4873 45.4995C49.4936 45.5146 49.4968 45.5307 49.4966 45.5493L49.6466 45.5509ZM49.6258 45.442L49.7644 45.3844L49.7429 45.3329L49.6044 45.3904L49.4659 45.448L49.4873 45.4995L49.6258 45.442ZM49.6044 45.3904L49.7429 45.3329L49.7215 45.2813L49.583 45.3389L49.4445 45.3964L49.4659 45.448L49.6044 45.3904ZM49.583 45.3389L49.7215 45.2813C49.7009 45.2318 49.6727 45.1866 49.6373 45.1462L49.5245 45.245L49.4117 45.3439C49.4258 45.3599 49.4365 45.3773 49.4445 45.3964L49.583 45.3389ZM49.5245 45.245L49.6373 45.1462L49.6003 45.1038L49.4874 45.2027L49.3746 45.3016L49.4117 45.3439L49.5245 45.245ZM49.4874 45.2027L49.6003 45.1038L49.5632 45.0615L49.4504 45.1604L49.3376 45.2592L49.3746 45.3016L49.4874 45.2027ZM49.4504 45.1604L49.5632 45.0615C49.5266 45.0198 49.4834 44.9854 49.4348 44.9582L49.3615 45.0891L49.2883 45.22C49.3087 45.2314 49.3247 45.2446 49.3376 45.2592L49.4504 45.1604ZM49.3615 45.0891L49.4348 44.9582L49.383 44.9293L49.3098 45.0602L49.2365 45.1911L49.2883 45.22L49.3615 45.0891ZM49.3098 45.0602L49.383 44.9293L49.3313 44.9003L49.258 45.0312L49.1848 45.1621L49.2365 45.1911L49.3098 45.0602ZM49.258 45.0312L49.3313 44.9003C49.3084 44.8875 49.2894 44.8729 49.2734 44.8567L49.1667 44.9622L49.0601 45.0677C49.0969 45.1049 49.1387 45.1363 49.1848 45.1621L49.258 45.0312ZM49.1667 44.9622L49.2734 44.8567L49.2338 44.8167L49.1271 44.9222L49.0205 45.0277L49.0601 45.0677L49.1667 44.9622ZM49.1271 44.9222L49.2338 44.8167L49.1942 44.7767L49.0875 44.8822L48.9809 44.9876L49.0205 45.0277L49.1271 44.9222ZM49.0875 44.8822L49.1942 44.7767C49.1764 44.7587 49.1607 44.7384 49.147 44.7157L49.0184 44.793L48.8898 44.8702C48.9156 44.913 48.9459 44.9523 48.9809 44.9876L49.0875 44.8822ZM49.0184 44.793L49.147 44.7157L49.1175 44.6665L48.9889 44.7438L48.8603 44.821L48.8898 44.8702L49.0184 44.793ZM48.9889 44.7438L49.1175 44.6665L49.0879 44.6174L48.9593 44.6946L48.8307 44.7718L48.8603 44.821L48.9889 44.7438ZM48.9593 44.6946L49.0879 44.6174C49.0658 44.5806 49.0418 44.5446 49.016 44.5093L48.895 44.598L48.774 44.6866C48.7946 44.7147 48.8135 44.7431 48.8307 44.7718L48.9593 44.6946ZM48.895 44.598L49.016 44.5093L48.9813 44.4619L48.8603 44.5506L48.7393 44.6392L48.774 44.6866L48.895 44.598ZM48.8603 44.5506L48.9813 44.4619L48.9465 44.4145L48.8255 44.5031L48.7045 44.5918L48.7393 44.6392L48.8603 44.5506ZM48.8255 44.5031L48.9465 44.4145C48.945 44.4124 48.9508 44.4195 48.9557 44.4338C48.9604 44.4474 48.9707 44.4872 48.9488 44.5329C48.9259 44.5808 48.8856 44.5984 48.8674 44.6038C48.858 44.6066 48.8506 44.6075 48.8469 44.6078C48.8429 44.6082 48.8406 44.608 48.8404 44.608L48.847 44.4582L48.8537 44.3083C48.8365 44.3076 48.8101 44.3078 48.7817 44.3163C48.7524 44.325 48.7047 44.3481 48.6782 44.4034C48.6528 44.4567 48.6633 44.506 48.672 44.5313C48.6809 44.5572 48.6944 44.578 48.7045 44.5918L48.8255 44.5031ZM48.847 44.4582L48.8404 44.608L48.8966 44.6105L48.9033 44.4607L48.9099 44.3108L48.8537 44.3083L48.847 44.4582ZM48.9033 44.4607L48.8966 44.6105L48.9529 44.613L48.9595 44.4632L48.9662 44.3133L48.9099 44.3108L48.9033 44.4607ZM48.9595 44.4632L48.9529 44.613C48.9785 44.6142 49.0047 44.6183 49.0316 44.6259L49.072 44.4814L49.1124 44.3369C49.0643 44.3235 49.0155 44.3155 48.9662 44.3133L48.9595 44.4632ZM49.072 44.4814L49.0316 44.6259L49.0879 44.6416L49.1283 44.4971L49.1687 44.3527L49.1124 44.3369L49.072 44.4814ZM49.1283 44.4971L49.0879 44.6416L49.1441 44.6573L49.1845 44.5129L49.2249 44.3684L49.1687 44.3527L49.1283 44.4971ZM49.1845 44.5129L49.1441 44.6573C49.2072 44.675 49.2718 44.6755 49.3352 44.6588L49.297 44.5138L49.2588 44.3687C49.2472 44.3718 49.2368 44.3717 49.2249 44.3684L49.1845 44.5129ZM49.297 44.5138L49.3352 44.6588L49.3915 44.644L49.3533 44.4989L49.3151 44.3539L49.2588 44.3687L49.297 44.5138ZM49.3533 44.4989L49.3915 44.644L49.4477 44.6292L49.4095 44.4841L49.3713 44.3391L49.3151 44.3539L49.3533 44.4989ZM49.4095 44.4841L49.4477 44.6292C49.4496 44.6287 49.4504 44.6288 49.4507 44.6288C49.4512 44.6288 49.4538 44.6291 49.4588 44.6315L49.522 44.4955L49.5853 44.3595C49.5183 44.3283 49.445 44.3197 49.3713 44.3391L49.4095 44.4841ZM49.522 44.4955L49.4588 44.6315L49.515 44.6576L49.5783 44.5216L49.6415 44.3856L49.5853 44.3595L49.522 44.4955ZM49.5783 44.5216L49.515 44.6576L49.5713 44.6838L49.6345 44.5478L49.6978 44.4118L49.6415 44.3856L49.5783 44.5216ZM49.6345 44.5478L49.5713 44.6838C49.6547 44.7226 49.7457 44.7175 49.8241 44.6656L49.7413 44.5405L49.6586 44.4154C49.6605 44.4141 49.6678 44.4102 49.6792 44.4094C49.6904 44.4086 49.6973 44.4115 49.6978 44.4118L49.6345 44.5478ZM49.7413 44.5405L49.8241 44.6656L49.8746 44.6322L49.7919 44.5071L49.7092 44.382L49.6586 44.4154L49.7413 44.5405ZM49.7919 44.5071L49.8746 44.6322L49.9252 44.5988L49.8425 44.4737L49.7597 44.3485L49.7092 44.382L49.7919 44.5071ZM49.8425 44.4737L49.9252 44.5988C49.9937 44.5535 50.0395 44.4843 50.0477 44.398L49.8984 44.3839L49.749 44.3697C49.7493 44.367 49.7506 44.3613 49.7544 44.3552C49.758 44.3494 49.7612 44.3476 49.7597 44.3485L49.8425 44.4737ZM49.8984 44.3839L50.0477 44.398L50.0531 44.3417L49.9037 44.3275L49.7544 44.3133L49.749 44.3697L49.8984 44.3839ZM49.9037 44.3275L50.0531 44.3417L50.0584 44.2853L49.9091 44.2711L49.7598 44.2569L49.7544 44.3133L49.9037 44.3275ZM49.9091 44.2711L50.0584 44.2853C50.0601 44.2672 50.0652 44.2495 50.0745 44.2314L49.9411 44.1629L49.8077 44.0943C49.7815 44.1453 49.7652 44.1998 49.7598 44.2569L49.9091 44.2711ZM49.9411 44.1629L50.0745 44.2314L50.1011 44.1796L49.9677 44.1111L49.8343 44.0425L49.8077 44.0943L49.9411 44.1629ZM49.9677 44.1111L50.1011 44.1796L50.1277 44.1278L49.9943 44.0593L49.8609 43.9907L49.8343 44.0425L49.9677 44.1111ZM49.9943 44.0593L50.1277 44.1278C50.1604 44.0642 50.1708 43.9951 50.1602 43.9254L50.0119 43.948L49.8636 43.9706C49.865 43.9801 49.8637 43.9852 49.8609 43.9907L49.9943 44.0593ZM50.0119 43.948L50.1602 43.9254L50.1511 43.8659L50.0028 43.8885L49.8545 43.9111L49.8636 43.9706L50.0119 43.948ZM50.0028 43.8885L50.1511 43.8659L50.142 43.8064L49.9938 43.829L49.8455 43.8516L49.8545 43.9111L50.0028 43.8885ZM49.9938 43.829L50.142 43.8064C50.1384 43.7822 50.1389 43.7609 50.1425 43.7416L49.995 43.7142L49.8475 43.6868C49.8374 43.7413 49.8371 43.7965 49.8455 43.8516L49.9938 43.829ZM49.995 43.7142L50.1425 43.7416L50.1528 43.6863L50.0053 43.6589L49.8578 43.6314L49.8475 43.6868L49.995 43.7142ZM50.0053 43.6589L50.1528 43.6863L50.163 43.631L50.0156 43.6036L49.8681 43.5761L49.8578 43.6314L50.0053 43.6589ZM50.0156 43.6036L50.163 43.631C50.1697 43.5952 50.1768 43.5594 50.1842 43.5237L50.0373 43.4932L49.8905 43.4626C49.8826 43.5004 49.8752 43.5382 49.8681 43.5761L50.0156 43.6036ZM50.0373 43.4932L50.1842 43.5237L50.1956 43.4686L50.0488 43.4381L49.9019 43.4076L49.8905 43.4626L50.0373 43.4932ZM50.0488 43.4381L50.1956 43.4686L50.2071 43.4135L50.0602 43.383L49.9134 43.3525L49.9019 43.4076L50.0488 43.4381ZM50.0602 43.383L50.2071 43.4135C50.2154 43.3733 50.2224 43.3328 50.2279 43.292L50.0792 43.272L49.9305 43.252C49.926 43.2858 49.9203 43.3193 49.9134 43.3525L50.0602 43.383ZM50.0792 43.272L50.2279 43.292L50.2354 43.2361L50.0867 43.2161L49.9381 43.1961L49.9305 43.252L50.0792 43.272ZM50.0867 43.2161L50.2354 43.2361L50.2429 43.1802L50.0942 43.1602L49.9456 43.1402L49.9381 43.1961L50.0867 43.2161ZM50.0942 43.1602L50.2429 43.1802C50.2466 43.1529 50.2521 43.1337 50.2575 43.1207L50.1192 43.0627L49.9809 43.0046C49.9631 43.0471 49.9519 43.0929 49.9456 43.1402L50.0942 43.1602ZM50.1192 43.0627L50.2575 43.1207L50.275 43.0791L50.1367 43.021L49.9984 42.963L49.9809 43.0046L50.1192 43.0627ZM50.1367 43.021L50.275 43.0791L50.2924 43.0375L50.1541 42.9794L50.0158 42.9214L49.9984 42.963L50.1367 43.021ZM50.1541 42.9794L50.2924 43.0375C50.2977 43.0248 50.3 43.0205 50.2998 43.0209C50.2996 43.0214 50.2987 43.0229 50.2972 43.0252C50.2959 43.0273 50.2929 43.0317 50.2883 43.0373C50.2846 43.0417 50.2745 43.0534 50.2578 43.0644C50.2427 43.0744 50.201 43.0976 50.145 43.0855L50.1765 42.9389L50.208 42.7922C50.1511 42.78 50.1085 42.8035 50.0923 42.8142C50.0746 42.8259 50.0632 42.8388 50.0582 42.8448C50.0475 42.8575 50.0404 42.8701 50.0371 42.8761C50.0294 42.89 50.0222 42.9063 50.0158 42.9214L50.1541 42.9794ZM50.1765 42.9389L50.145 43.0855L50.1499 43.0866L50.1814 42.9399L50.2129 42.7933L50.208 42.7922L50.1765 42.9389ZM50.1814 42.9399L50.1499 43.0866L50.1548 43.0876L50.1863 42.941L50.2178 42.7943L50.2129 42.7933L50.1814 42.9399ZM50.1863 42.941L50.1548 43.0876C50.1285 43.082 50.1102 43.0706 50.1013 43.0645C50.0916 43.0577 50.0847 43.0511 50.0809 43.0472C50.0734 43.0396 50.0687 43.0331 50.0673 43.0311C50.0642 43.0266 50.0631 43.0243 50.0646 43.027C50.067 43.0315 50.0719 43.0411 50.0796 43.0577L50.2156 42.9943L50.3515 42.931C50.343 42.9127 50.3349 42.896 50.3276 42.8827C50.3242 42.8765 50.319 42.8674 50.3126 42.8583C50.3096 42.854 50.3035 42.8458 50.2948 42.8369C50.2917 42.8337 50.2645 42.8044 50.2178 42.7943L50.1863 42.941ZM50.2156 42.9943L50.0796 43.0577L50.104 43.11L50.2399 43.0466L50.3759 42.9833L50.3515 42.931L50.2156 42.9943Z" fill="var(--stroke-0, white)"/>
</g>
</g>
<path id="Vector 43" d="M45.6934 19.9619C45.7856 19.8697 47.7855 18.3313 50 17.5C52.2145 16.6687 54.1145 16 59.5 16" stroke="var(--stroke-0, #B08144)" stroke-width="2" stroke-linecap="round"/>
<path id="Vector 44" d="M32.8066 19.9619C32.7144 19.8697 30.7145 18.3313 28.5 17.5C26.2855 16.6687 24.3855 16 19 16" stroke="var(--stroke-0, #B08144)" stroke-width="2" stroke-linecap="round"/>
</g>
<defs>
<radialGradient id="paint0_radial_1027_4224" cx="0" cy="0" r="1" gradientUnits="userSpaceOnUse" gradientTransform="translate(40.5333 40.5333) rotate(90.7742) scale(39.4703 40.537)">
<stop stop-color="#FFFED8"/>
<stop offset="1" stop-color="#FCF3A6"/>
</radialGradient>
</defs>
</svg>
