<svg xmlns="http://www.w3.org/2000/svg" fill="none" overflow="visible" preserveAspectRatio="none" style="display:block" viewBox="0 0 17 4.202"><path stroke="var(--stroke-0, #b08144)" stroke-linecap="round" stroke-width="2" d="M1 3.202c1.997-.394 3.993-.788 5.289-1.075s1.83-.456 2.161-.613c.332-.157.444-.298.263-.37-.18-.073-.659-.073-1.692.068-1.034.14-2.609.422-2.689.412s1.382-.32 2.937-.479 3.158-.159 4.152-.13c2.032.057 3.377.595 4.064.822.24.08.427.284.513.483.065.151-1.183.228-2.773.257-.578.01-.69-.028-2.365-.043s-4.91-.014-6.59-.056-1.708-.127-1.666-.24c.467-.54 1.007-.882 1.276-.981.129-.043.241-.072.443-.1"/></svg>