<svg preserveAspectRatio="none" width="100%" height="100%" overflow="visible" style="display: block;" viewBox="0 0 3.044 4.29352" fill="none" xmlns="http://www.w3.org/2000/svg">
<g id="Star 4">
<path d="M1.52895 0.15325L1.86205 1.70294H2.93998L2.06791 2.6607L2.40101 4.21039L1.52895 3.25263L0.656879 4.21039L0.989979 2.6607L0.117913 1.70294H1.19585L1.52895 0.15325Z" fill="var(--fill-0, white)"/>
<path d="M1.57769 0.257841L1.44174 0.32121L1.57769 0.257841ZM1.60207 0.310137L1.73803 0.246768L1.60207 0.310137ZM1.629 0.419418L1.47915 0.426141L1.629 0.419418ZM1.63156 0.476403L1.78141 0.46968L1.63156 0.476403ZM1.63411 0.533388L1.48426 0.540111L1.63411 0.533388ZM1.65438 0.644102L1.79684 0.597144L1.65438 0.644102ZM1.67209 0.69783L1.52963 0.744787L1.67209 0.69783ZM1.6898 0.751558L1.54734 0.798515L1.6898 0.751558ZM1.7143 0.861361L1.56539 0.8794L1.7143 0.861361ZM1.72789 0.97351L1.8768 0.95547L1.72789 0.97351ZM1.7291 1.08832L1.57977 1.07413L1.7291 1.08832ZM1.71794 1.20579L1.56861 1.1916L1.71794 1.20579ZM1.72761 1.31878L1.87201 1.27818V1.27818L1.72761 1.31878ZM1.75812 1.42729L1.61372 1.46789V1.46789L1.75812 1.42729ZM1.79087 1.53532L1.64822 1.58171L1.79087 1.53532ZM1.90174 1.70615L1.87765 1.8542L1.90174 1.70615ZM2.13321 1.70692L2.06686 1.5724L2.13321 1.70692ZM2.18946 1.67918L2.12311 1.54465L2.18946 1.67918ZM2.24571 1.65143L2.31207 1.78596L2.24571 1.65143ZM2.47071 1.69633L2.4114 1.8341L2.47071 1.69633ZM2.58321 1.72672L2.5996 1.57762L2.58321 1.72672ZM2.63946 1.73291L2.62307 1.88201L2.63946 1.73291ZM2.69571 1.73909L2.67933 1.88819L2.69571 1.73909ZM2.79222 1.74105L2.80787 1.89023L2.79222 1.74105ZM2.83248 1.73683L2.84812 1.88601L2.83248 1.73683ZM2.87273 1.7326L2.85709 1.58342L2.87273 1.7326ZM2.87703 1.77171L2.76161 1.67591L2.87703 1.77171ZM2.84106 1.81504L2.95649 1.91084L2.84106 1.81504ZM2.73635 1.94792L2.61401 1.86113L2.73635 1.94792ZM2.70357 1.99414L2.82591 2.08092L2.70357 1.99414ZM2.67078 2.04036L2.79312 2.12715L2.67078 2.04036ZM2.58024 2.11007L2.52372 1.97113L2.58024 2.11007ZM2.46474 2.15706L2.52126 2.296L2.46474 2.15706ZM2.39632 2.2469L2.24822 2.22308L2.39632 2.2469ZM2.37498 2.37962L2.52307 2.40344L2.37498 2.37962ZM2.27062 2.51282L2.35774 2.63492L2.27062 2.51282ZM2.22377 2.54624L2.13665 2.42413L2.22377 2.54624ZM2.17408 2.61812L2.02449 2.60703L2.17408 2.61812ZM2.17123 2.65658L2.32081 2.66767L2.17123 2.65658ZM2.16837 2.69504L2.01878 2.68394L2.16837 2.69504ZM2.17457 2.78908L2.32262 2.76498L2.17457 2.78908ZM2.19268 2.90026L2.04463 2.92437L2.19268 2.90026ZM2.20578 3.01252L2.3554 3.00182V3.00182L2.20578 3.01252ZM2.20983 3.06918L2.06021 3.07987L2.20983 3.06918ZM2.21388 3.12584L2.3635 3.11515L2.21388 3.12584ZM2.19891 3.24413L2.34223 3.28837L2.19891 3.24413ZM2.16086 3.36738L2.01753 3.32314L2.16086 3.36738ZM2.17212 3.48003L2.30112 3.40347V3.40347L2.17212 3.48003ZM2.23269 3.58208L2.10369 3.65863V3.65863L2.23269 3.58208ZM2.28712 3.68545L2.15092 3.74829L2.28712 3.68545ZM2.33543 3.79013L2.47163 3.72729L2.33543 3.79013ZM2.37595 3.89649L2.23239 3.93999L2.37595 3.89649ZM2.40868 4.00453L2.55223 3.96103L2.40868 4.00453ZM2.40485 4.08183L2.51818 4.1801L2.40485 4.08183ZM2.38466 4.10511L2.27134 4.00684L2.38466 4.10511ZM2.36447 4.1284L2.25115 4.03013L2.36447 4.1284ZM2.31952 4.09815L2.45566 4.03518L2.31952 4.09815ZM2.27 3.99109L2.13386 4.05407L2.27 3.99109ZM2.1848 3.91652L2.23413 3.77486L2.1848 3.91652ZM2.06393 3.87443L2.0146 4.01609L2.06393 3.87443ZM1.98411 3.79496L1.84174 3.84218L1.98411 3.79496ZM1.94535 3.6781L2.08773 3.63088L1.94535 3.6781ZM1.8865 3.57954L1.77956 3.68473L1.8865 3.57954ZM1.84702 3.53941L1.95396 3.43423L1.84702 3.53941ZM1.80755 3.49928L1.70061 3.60447L1.80755 3.49928ZM1.7102 3.43577L1.65402 3.57486L1.7102 3.43577ZM1.65232 3.4124L1.59615 3.55148L1.65232 3.4124ZM1.59444 3.38902L1.65062 3.24994L1.59444 3.38902ZM1.51264 3.36343L1.49879 3.51279L1.51264 3.36343ZM1.4648 3.35899L1.47865 3.20963L1.4648 3.35899ZM1.39491 3.39099L1.48449 3.5113L1.39491 3.39099ZM1.21708 3.53337L1.11133 3.42698L1.21708 3.53337ZM1.17713 3.57307L1.28288 3.67946L1.17713 3.57307ZM1.13719 3.61277L1.24293 3.71916L1.13719 3.61277ZM1.06455 3.69879L1.18709 3.7853L1.06455 3.69879ZM0.999169 3.7914L0.87663 3.70489L0.999169 3.7914ZM0.914742 4.01882L0.770511 3.97762L0.914742 4.01882ZM0.834848 4.09822L0.878446 4.24175L0.834848 4.09822ZM0.709551 4.13629L0.665953 3.99276L0.709551 4.13629ZM0.668179 4.12428L0.791897 4.2091L0.668179 4.12428ZM0.689456 4.09325L0.813174 4.17806L0.689456 4.09325ZM0.710733 4.06221L0.834451 4.14703L0.710733 4.06221ZM0.741317 3.97564L0.59338 3.95085L0.741317 3.97564ZM0.775588 3.75287L0.924638 3.76972L0.775588 3.75287ZM0.781939 3.6967L0.632888 3.67984L0.781939 3.6967ZM0.78829 3.64053L0.93734 3.65738L0.78829 3.64053ZM0.852926 3.42428L0.711978 3.37296L0.852926 3.42428ZM0.85858 3.31043L1.00484 3.27713L0.85858 3.31043ZM0.831033 3.18944L0.684776 3.22274L0.831033 3.18944ZM0.858575 3.08029L0.744238 2.98319L0.858575 3.08029ZM0.941207 2.98298L1.05554 3.08007L0.941207 2.98298ZM0.983142 2.87692L0.833151 2.87531L0.983142 2.87692ZM0.983761 2.81952L1.13375 2.82114L0.983761 2.81952ZM0.98438 2.76212L0.834388 2.7605L0.98438 2.76212ZM0.963587 2.65317L1.10211 2.59563L0.963587 2.65317ZM0.920763 2.55009L0.78224 2.60763L0.920763 2.55009ZM0.862275 2.45623L0.749457 2.55508L0.862275 2.45623ZM0.825198 2.41391L0.71238 2.51277L0.825198 2.41391ZM0.788121 2.3716L0.900939 2.27274L0.788121 2.3716ZM0.699295 2.30033L0.62605 2.43123L0.699295 2.30033ZM0.595798 2.24242L0.522553 2.37332L0.595798 2.24242ZM0.504463 2.17343L0.397808 2.27891L0.504463 2.17343ZM0.425289 2.09337L0.318635 2.19885L0.425289 2.09337ZM0.356164 2.00417L0.227577 2.0814L0.356164 2.00417ZM0.297087 1.90581L0.168499 1.98304L0.297087 1.90581ZM0.232793 1.8092L0.111797 1.89786L0.232793 1.8092ZM0.163283 1.71433L0.284279 1.62568L0.163283 1.71433ZM0.184778 1.6694L0.178135 1.81925L0.184778 1.6694ZM0.297278 1.67438L0.303921 1.52453L0.297278 1.67438ZM0.409778 1.69261L0.450177 1.54815L0.409778 1.69261ZM0.859778 1.70667L0.796523 1.84268L0.859778 1.70667ZM0.916028 1.73283L0.852773 1.86884L0.916028 1.73283ZM0.972278 1.75899L1.03553 1.62298L0.972278 1.75899ZM1.07909 1.75173L1.16181 1.87685L1.07909 1.75173ZM1.18021 1.68487L1.09748 1.55975L1.18021 1.68487ZM1.23612 1.59506L1.38545 1.60925L1.23612 1.59506ZM1.24684 1.4823L1.39617 1.49649L1.24684 1.4823ZM1.27882 1.3741L1.14541 1.30554L1.27882 1.3741ZM1.30545 1.32229L1.43886 1.39085L1.30545 1.32229ZM1.33274 0.925411L1.4802 0.95286L1.33274 0.925411ZM1.35333 0.814768L1.20586 0.787319L1.35333 0.814768ZM1.37508 0.704373L1.22822 0.673841L1.37508 0.704373ZM1.39798 0.594226L1.25112 0.563693L1.39798 0.594226ZM1.41695 0.483234L1.26828 0.463247L1.41695 0.483234ZM1.43198 0.371396L1.58065 0.391383L1.43198 0.371396ZM1.45696 0.273867L1.31864 0.215828L1.45696 0.273867ZM1.47442 0.232257L1.61274 0.290296L1.47442 0.232257ZM1.49188 0.190647L1.6302 0.248686L1.49188 0.190647ZM1.51424 0.15009L1.48272 0.29674L1.51424 0.15009ZM1.52404 0.152197L1.55557 0.00554633L1.52404 0.152197ZM1.55332 0.205546L1.41736 0.268914L1.55332 0.205546ZM1.57769 0.257841L1.44174 0.32121L1.46611 0.373506L1.60207 0.310137L1.73803 0.246768L1.71365 0.194473L1.57769 0.257841ZM1.60207 0.310137L1.46611 0.373506C1.47417 0.390788 1.47834 0.407989 1.47915 0.426141L1.629 0.419418L1.77885 0.412695C1.77626 0.354866 1.76247 0.299214 1.73803 0.246768L1.60207 0.310137ZM1.629 0.419418L1.47915 0.426141L1.48171 0.483126L1.63156 0.476403L1.78141 0.46968L1.77885 0.412695L1.629 0.419418ZM1.63156 0.476403L1.48171 0.483126L1.48426 0.540111L1.63411 0.533388L1.78396 0.526665L1.78141 0.46968L1.63156 0.476403ZM1.63411 0.533388L1.48426 0.540111C1.48658 0.591672 1.49579 0.64212 1.51192 0.691059L1.65438 0.644102L1.79684 0.597144C1.78936 0.574446 1.78506 0.551085 1.78396 0.526665L1.63411 0.533388ZM1.65438 0.644102L1.51192 0.691059L1.52963 0.744787L1.67209 0.69783L1.81455 0.650872L1.79684 0.597144L1.65438 0.644102ZM1.67209 0.69783L1.52963 0.744787L1.54734 0.798515L1.6898 0.751558L1.83226 0.704601L1.81455 0.650872L1.67209 0.69783ZM1.6898 0.751558L1.54734 0.798515C1.55605 0.824946 1.56205 0.851861 1.56539 0.8794L1.7143 0.861361L1.86321 0.843321C1.85749 0.796094 1.84716 0.749807 1.83226 0.704601L1.6898 0.751558ZM1.7143 0.861361L1.56539 0.8794L1.57218 0.935475L1.7211 0.917435L1.87001 0.899395L1.86321 0.843321L1.7143 0.861361ZM1.7211 0.917435L1.57218 0.935475L1.57898 0.99155L1.72789 0.97351L1.8768 0.95547L1.87001 0.899395L1.7211 0.917435ZM1.72789 0.97351L1.57898 0.99155C1.58215 1.01777 1.58252 1.04522 1.57977 1.07413L1.7291 1.08832L1.87843 1.10251C1.88312 1.0531 1.88268 1.00401 1.8768 0.95547L1.72789 0.97351ZM1.7291 1.08832L1.57977 1.07413L1.57419 1.13286L1.72352 1.14705L1.87285 1.16124L1.87843 1.10251L1.7291 1.08832ZM1.72352 1.14705L1.57419 1.13286L1.56861 1.1916L1.71794 1.20579L1.86727 1.21998L1.87285 1.16124L1.72352 1.14705ZM1.71794 1.20579L1.56861 1.1916C1.56322 1.24829 1.5678 1.30458 1.58321 1.35938L1.72761 1.31878L1.87201 1.27818C1.86708 1.26064 1.86521 1.2416 1.86727 1.21998L1.71794 1.20579ZM1.72761 1.31878L1.58321 1.35938L1.59847 1.41363L1.74287 1.37303L1.88727 1.33243L1.87201 1.27818L1.72761 1.31878ZM1.74287 1.37303L1.59847 1.41363L1.61372 1.46789L1.75812 1.42729L1.90252 1.38669L1.88727 1.33243L1.74287 1.37303ZM1.75812 1.42729L1.61372 1.46789C1.62444 1.50601 1.63594 1.54395 1.64822 1.58171L1.79087 1.53532L1.93351 1.48893C1.92247 1.45499 1.91214 1.42091 1.90252 1.38669L1.75812 1.42729ZM1.79087 1.53532L1.64822 1.58171L1.66571 1.63549L1.80835 1.5891L1.951 1.5427L1.93351 1.48893L1.79087 1.53532ZM1.80835 1.5891L1.66571 1.63549L1.6832 1.68926L1.82584 1.64287L1.96849 1.59648L1.951 1.5427L1.80835 1.5891ZM1.82584 1.64287L1.6832 1.68926C1.69647 1.73008 1.72016 1.76965 1.7575 1.80079C1.79451 1.83164 1.83694 1.84758 1.87765 1.8542L1.90174 1.70615L1.92584 1.5581C1.9276 1.55839 1.93792 1.56061 1.94962 1.57037C1.96167 1.58042 1.96687 1.59151 1.96849 1.59648L1.82584 1.64287ZM1.90174 1.70615L1.87765 1.8542L1.93605 1.86371L1.96015 1.71566L1.98424 1.56761L1.92584 1.5581L1.90174 1.70615ZM1.96015 1.71566L1.93605 1.86371L1.99446 1.87322L2.01856 1.72516L2.04265 1.57711L1.98424 1.56761L1.96015 1.71566ZM2.01856 1.72516L1.99446 1.87322C2.06612 1.88488 2.13584 1.87288 2.19957 1.84145L2.13321 1.70692L2.06686 1.5724C2.05558 1.57796 2.04886 1.57812 2.04265 1.57711L2.01856 1.72516ZM2.13321 1.70692L2.19957 1.84145L2.25582 1.8137L2.18946 1.67918L2.12311 1.54465L2.06686 1.5724L2.13321 1.70692ZM2.18946 1.67918L2.25582 1.8137L2.31207 1.78596L2.24571 1.65143L2.17936 1.51691L2.12311 1.54465L2.18946 1.67918ZM2.24571 1.65143L2.31207 1.78596C2.31382 1.78509 2.31167 1.78644 2.30667 1.7866C2.30157 1.78676 2.29854 1.78552 2.2989 1.78568L2.35821 1.6479L2.41752 1.51012C2.33857 1.47613 2.25515 1.47952 2.17936 1.51691L2.24571 1.65143ZM2.35821 1.6479L2.2989 1.78568L2.35515 1.80989L2.41446 1.67211L2.47377 1.53434L2.41752 1.51012L2.35821 1.6479ZM2.41446 1.67211L2.35515 1.80989L2.4114 1.8341L2.47071 1.69633L2.53002 1.55855L2.47377 1.53434L2.41446 1.67211ZM2.47071 1.69633L2.4114 1.8341C2.46145 1.85565 2.51337 1.86995 2.56682 1.87582L2.58321 1.72672L2.5996 1.57762C2.57805 1.57525 2.55497 1.56929 2.53002 1.55855L2.47071 1.69633ZM2.58321 1.72672L2.56682 1.87582L2.62307 1.88201L2.63946 1.73291L2.65585 1.5838L2.5996 1.57762L2.58321 1.72672ZM2.63946 1.73291L2.62307 1.88201L2.67933 1.88819L2.69571 1.73909L2.7121 1.58999L2.65585 1.5838L2.63946 1.73291ZM2.69571 1.73909L2.67933 1.88819C2.72361 1.89306 2.76711 1.8945 2.80787 1.89023L2.79222 1.74105L2.77657 1.59187C2.76366 1.59322 2.74282 1.59336 2.7121 1.58999L2.69571 1.73909ZM2.79222 1.74105L2.80787 1.89023L2.84812 1.88601L2.83248 1.73683L2.81683 1.58764L2.77657 1.59187L2.79222 1.74105ZM2.83248 1.73683L2.84812 1.88601L2.88838 1.88179L2.87273 1.7326L2.85709 1.58342L2.81683 1.58764L2.83248 1.73683ZM2.87273 1.7326L2.88838 1.88179C2.88774 1.88185 2.86567 1.88486 2.8371 1.87453C2.82069 1.8686 2.79805 1.85674 2.77836 1.83379C2.75776 1.80977 2.74762 1.782 2.74483 1.75664C2.74012 1.71375 2.75675 1.68456 2.75814 1.68197C2.76194 1.67491 2.76443 1.67251 2.76161 1.67591L2.87703 1.77171L2.99245 1.86751C3.00162 1.85647 3.01292 1.84161 3.02235 1.82406C3.02938 1.811 3.04846 1.77331 3.04304 1.7239C3.0399 1.69529 3.0286 1.66475 3.00606 1.63846C2.98442 1.61324 2.95904 1.59961 2.9391 1.5924C2.90346 1.57951 2.87114 1.58195 2.85709 1.58342L2.87273 1.7326ZM2.87703 1.77171L2.76161 1.67591L2.72564 1.71924L2.84106 1.81504L2.95649 1.91084L2.99245 1.86751L2.87703 1.77171ZM2.84106 1.81504L2.72564 1.71924L2.68968 1.76257L2.8051 1.85837L2.92052 1.95417L2.95649 1.91084L2.84106 1.81504ZM2.8051 1.85837L2.68968 1.76257C2.66327 1.79439 2.63804 1.82725 2.61401 1.86113L2.73635 1.94792L2.8587 2.0347C2.87838 2.00696 2.89898 1.98012 2.92052 1.95417L2.8051 1.85837ZM2.73635 1.94792L2.61401 1.86113L2.58122 1.90735L2.70357 1.99414L2.82591 2.08092L2.8587 2.0347L2.73635 1.94792ZM2.70357 1.99414L2.58122 1.90735L2.54843 1.95357L2.67078 2.04036L2.79312 2.12715L2.82591 2.08092L2.70357 1.99414ZM2.67078 2.04036L2.54843 1.95357C2.54474 1.95878 2.53851 1.96511 2.52372 1.97113L2.58024 2.11007L2.63676 2.24902C2.69897 2.22371 2.7531 2.18357 2.79312 2.12715L2.67078 2.04036ZM2.58024 2.11007L2.52372 1.97113L2.46597 1.99462L2.52249 2.13356L2.57901 2.27251L2.63676 2.24902L2.58024 2.11007ZM2.52249 2.13356L2.46597 1.99462L2.40822 2.01811L2.46474 2.15706L2.52126 2.296L2.57901 2.27251L2.52249 2.13356ZM2.46474 2.15706L2.40822 2.01811C2.31678 2.05531 2.26288 2.13198 2.24822 2.22308L2.39632 2.2469L2.54442 2.27072C2.5448 2.26836 2.54426 2.27405 2.5381 2.28214C2.53158 2.29069 2.52421 2.2948 2.52126 2.296L2.46474 2.15706ZM2.39632 2.2469L2.24822 2.22308L2.23755 2.28944L2.38565 2.31326L2.53374 2.33708L2.54442 2.27072L2.39632 2.2469ZM2.38565 2.31326L2.23755 2.28944L2.22688 2.3558L2.37498 2.37962L2.52307 2.40344L2.53374 2.33708L2.38565 2.31326ZM2.37498 2.37962L2.22688 2.3558C2.22574 2.36288 2.22441 2.36438 2.22531 2.36283C2.22644 2.36085 2.22845 2.35864 2.23034 2.35729L2.31746 2.47939L2.40458 2.6015C2.47394 2.55201 2.51075 2.48008 2.52307 2.40344L2.37498 2.37962ZM2.31746 2.47939L2.23034 2.35729L2.1835 2.39071L2.27062 2.51282L2.35774 2.63492L2.40458 2.6015L2.31746 2.47939ZM2.27062 2.51282L2.1835 2.39071L2.13665 2.42413L2.22377 2.54624L2.31089 2.66834L2.35774 2.63492L2.27062 2.51282ZM2.22377 2.54624L2.13665 2.42413C2.08736 2.4593 2.03104 2.51862 2.02449 2.60703L2.17408 2.61812L2.32367 2.62921C2.32239 2.64641 2.31615 2.65922 2.31131 2.66622C2.30715 2.67223 2.30518 2.67242 2.31089 2.66834L2.22377 2.54624ZM2.17408 2.61812L2.02449 2.60703L2.02164 2.64549L2.17123 2.65658L2.32081 2.66767L2.32367 2.62921L2.17408 2.61812ZM2.17123 2.65658L2.02164 2.64549L2.01878 2.68394L2.16837 2.69504L2.31796 2.70613L2.32081 2.66767L2.17123 2.65658ZM2.16837 2.69504L2.01878 2.68394C2.01571 2.72536 2.01938 2.76931 2.02652 2.81319L2.17457 2.78908L2.32262 2.76498C2.3177 2.73474 2.31723 2.71599 2.31796 2.70613L2.16837 2.69504ZM2.17457 2.78908L2.02652 2.81319L2.03557 2.86878L2.18362 2.84467L2.33167 2.82057L2.32262 2.76498L2.17457 2.78908ZM2.18362 2.84467L2.03557 2.86878L2.04463 2.92437L2.19268 2.90026L2.34073 2.87616L2.33167 2.82057L2.18362 2.84467ZM2.19268 2.90026L2.04463 2.92437C2.04993 2.95694 2.05378 2.98989 2.05616 3.02321L2.20578 3.01252L2.3554 3.00182C2.35238 2.95959 2.34749 2.9177 2.34073 2.87616L2.19268 2.90026ZM2.20578 3.01252L2.05616 3.02321L2.06021 3.07987L2.20983 3.06918L2.35945 3.05849L2.3554 3.00182L2.20578 3.01252ZM2.20983 3.06918L2.06021 3.07987L2.06426 3.13654L2.21388 3.12584L2.3635 3.11515L2.35945 3.05849L2.20983 3.06918ZM2.21388 3.12584L2.06426 3.13654C2.06547 3.15344 2.06351 3.17419 2.05558 3.19989L2.19891 3.24413L2.34223 3.28837C2.35966 3.23191 2.36769 3.1738 2.3635 3.11515L2.21388 3.12584ZM2.19891 3.24413L2.05558 3.19989L2.03656 3.26151L2.17988 3.30576L2.32321 3.35L2.34223 3.28837L2.19891 3.24413ZM2.17988 3.30576L2.03656 3.26151L2.01753 3.32314L2.16086 3.36738L2.30419 3.41162L2.32321 3.35L2.17988 3.30576ZM2.16086 3.36738L2.01753 3.32314C1.99357 3.40076 1.9993 3.48273 2.04313 3.55658L2.17212 3.48003L2.30112 3.40347C2.30164 3.40436 2.30302 3.40738 2.30342 3.41143C2.3038 3.41516 2.30293 3.41569 2.30419 3.41162L2.16086 3.36738ZM2.17212 3.48003L2.04313 3.55658L2.07341 3.60761L2.2024 3.53105L2.3314 3.4545L2.30112 3.40347L2.17212 3.48003ZM2.2024 3.53105L2.07341 3.60761L2.10369 3.65863L2.23269 3.58208L2.36168 3.50552L2.3314 3.4545L2.2024 3.53105ZM2.23269 3.58208L2.10369 3.65863C2.12132 3.68834 2.13705 3.71822 2.15092 3.74829L2.28712 3.68545L2.42332 3.6226C2.40499 3.58288 2.38443 3.54385 2.36168 3.50552L2.23269 3.58208ZM2.28712 3.68545L2.15092 3.74829L2.17507 3.80064L2.31127 3.73779L2.44747 3.67495L2.42332 3.6226L2.28712 3.68545ZM2.31127 3.73779L2.17507 3.80064L2.19923 3.85298L2.33543 3.79013L2.47163 3.72729L2.44747 3.67495L2.31127 3.73779ZM2.33543 3.79013L2.19923 3.85298C2.2125 3.88174 2.22352 3.91073 2.23239 3.93999L2.37595 3.89649L2.5195 3.853C2.50654 3.81024 2.49056 3.76832 2.47163 3.72729L2.33543 3.79013ZM2.37595 3.89649L2.23239 3.93999L2.24876 3.99401L2.39231 3.95051L2.53587 3.90702L2.5195 3.853L2.37595 3.89649ZM2.39231 3.95051L2.24876 3.99401L2.26512 4.04802L2.40868 4.00453L2.55223 3.96103L2.53587 3.90702L2.39231 3.95051ZM2.40868 4.00453L2.26512 4.04802C2.26766 4.05641 2.26558 4.05372 2.26609 4.04345C2.26668 4.03155 2.27116 4.00705 2.29153 3.98356L2.40485 4.08183L2.51818 4.1801C2.58584 4.10207 2.56594 4.00628 2.55223 3.96103L2.40868 4.00453ZM2.40485 4.08183L2.29153 3.98356L2.27134 4.00684L2.38466 4.10511L2.49799 4.20338L2.51818 4.1801L2.40485 4.08183ZM2.38466 4.10511L2.27134 4.00684L2.25115 4.03013L2.36447 4.1284L2.4778 4.22667L2.49799 4.20338L2.38466 4.10511ZM2.36447 4.1284L2.25115 4.03013C2.26082 4.01897 2.285 3.99574 2.32591 3.98791C2.3703 3.97942 2.40636 3.99422 2.42688 4.00803C2.44485 4.02012 2.45359 4.03275 2.45519 4.03509C2.45758 4.03856 2.45757 4.0393 2.45566 4.03518L2.31952 4.09815L2.18338 4.16113C2.19251 4.18086 2.21468 4.22684 2.2594 4.25693C2.28741 4.27577 2.33077 4.29242 2.38228 4.28257C2.4303 4.27338 2.4614 4.24558 2.4778 4.22667L2.36447 4.1284ZM2.31952 4.09815L2.45566 4.03518L2.4309 3.98165L2.29476 4.04462L2.15862 4.1076L2.18338 4.16113L2.31952 4.09815ZM2.29476 4.04462L2.4309 3.98165L2.40614 3.92812L2.27 3.99109L2.13386 4.05407L2.15862 4.1076L2.29476 4.04462ZM2.27 3.99109L2.40614 3.92812C2.37101 3.85218 2.3092 3.80101 2.23413 3.77486L2.1848 3.91652L2.13548 4.05818C2.1398 4.05969 2.13958 4.06036 2.13753 4.05856C2.13659 4.05774 2.13568 4.05675 2.13491 4.05572C2.13416 4.05471 2.13385 4.05405 2.13386 4.05407L2.27 3.99109ZM2.1848 3.91652L2.23413 3.77486L2.17369 3.75382L2.12437 3.89548L2.07504 4.03714L2.13548 4.05818L2.1848 3.91652ZM2.12437 3.89548L2.17369 3.75382L2.11325 3.73278L2.06393 3.87443L2.0146 4.01609L2.07504 4.03714L2.12437 3.89548ZM2.06393 3.87443L2.11325 3.73278C2.11145 3.73215 2.1149 3.73308 2.11959 3.73775C2.12176 3.73991 2.1235 3.7422 2.12477 3.74429C2.126 3.74634 2.12646 3.74765 2.12648 3.74774L1.98411 3.79496L1.84174 3.84218C1.86999 3.92736 1.93235 3.98745 2.0146 4.01609L2.06393 3.87443ZM1.98411 3.79496L2.12648 3.74774L2.1071 3.68931L1.96473 3.73653L1.82236 3.78375L1.84174 3.84218L1.98411 3.79496ZM1.96473 3.73653L2.1071 3.68931L2.08773 3.63088L1.94535 3.6781L1.80298 3.72533L1.82236 3.78375L1.96473 3.73653ZM1.94535 3.6781L2.08773 3.63088C2.06827 3.57222 2.0373 3.51896 1.99344 3.47436L1.8865 3.57954L1.77956 3.68473C1.78832 3.69364 1.7966 3.70608 1.80298 3.72533L1.94535 3.6781ZM1.8865 3.57954L1.99344 3.47436L1.95396 3.43423L1.84702 3.53941L1.74009 3.6446L1.77956 3.68473L1.8865 3.57954ZM1.84702 3.53941L1.95396 3.43423L1.91449 3.39409L1.80755 3.49928L1.70061 3.60447L1.74009 3.6446L1.84702 3.53941ZM1.80755 3.49928L1.91449 3.39409C1.87225 3.35116 1.82194 3.31913 1.76637 3.29669L1.7102 3.43577L1.65402 3.57486C1.67563 3.58358 1.69021 3.59389 1.70061 3.60447L1.80755 3.49928ZM1.7102 3.43577L1.76637 3.29669L1.7085 3.27331L1.65232 3.4124L1.59615 3.55148L1.65402 3.57486L1.7102 3.43577ZM1.65232 3.4124L1.7085 3.27331L1.65062 3.24994L1.59444 3.38902L1.53827 3.52811L1.59615 3.55148L1.65232 3.4124ZM1.59444 3.38902L1.65062 3.24994C1.61339 3.2349 1.56716 3.21784 1.5265 3.21407L1.51264 3.36343L1.49879 3.51279C1.49404 3.51235 1.49175 3.51173 1.49287 3.51199C1.49372 3.51219 1.49609 3.51279 1.50026 3.51409C1.50875 3.51675 1.5212 3.52121 1.53827 3.52811L1.59444 3.38902ZM1.51264 3.36343L1.5265 3.21407L1.50258 3.21185L1.48872 3.36121L1.47486 3.51057L1.49879 3.51279L1.51264 3.36343ZM1.48872 3.36121L1.50258 3.21185L1.47865 3.20963L1.4648 3.35899L1.45094 3.50835L1.47486 3.51057L1.48872 3.36121ZM1.4648 3.35899L1.47865 3.20963C1.43333 3.20542 1.39551 3.21915 1.37291 3.2295C1.34824 3.24079 1.32541 3.25573 1.30533 3.27068L1.39491 3.39099L1.48449 3.5113C1.49505 3.50344 1.49919 3.50163 1.49782 3.50226C1.49688 3.50269 1.49266 3.50456 1.48565 3.50621C1.4787 3.50783 1.46658 3.5098 1.45094 3.50835L1.4648 3.35899ZM1.39491 3.39099L1.30533 3.27068L1.25936 3.3049L1.34895 3.42522L1.43853 3.54553L1.48449 3.5113L1.39491 3.39099ZM1.34895 3.42522L1.25936 3.3049L1.2134 3.33913L1.30298 3.45944L1.39257 3.57975L1.43853 3.54553L1.34895 3.42522ZM1.30298 3.45944L1.2134 3.33913C1.17715 3.36612 1.1431 3.39541 1.11133 3.42698L1.21708 3.53337L1.32282 3.63975C1.34432 3.61839 1.36754 3.59839 1.39257 3.57975L1.30298 3.45944ZM1.21708 3.53337L1.11133 3.42698L1.07139 3.46668L1.17713 3.57307L1.28288 3.67946L1.32282 3.63975L1.21708 3.53337ZM1.17713 3.57307L1.07139 3.46668L1.03144 3.50639L1.13719 3.61277L1.24293 3.71916L1.28288 3.67946L1.17713 3.57307ZM1.13719 3.61277L1.03144 3.50639C0.998612 3.53902 0.968788 3.57435 0.942014 3.61227L1.06455 3.69879L1.18709 3.7853C1.20391 3.76148 1.22251 3.73946 1.24293 3.71916L1.13719 3.61277ZM1.06455 3.69879L0.942014 3.61227L0.909322 3.65858L1.03186 3.74509L1.1544 3.8316L1.18709 3.7853L1.06455 3.69879ZM1.03186 3.74509L0.909322 3.65858L0.87663 3.70489L0.999169 3.7914L1.12171 3.87791L1.1544 3.8316L1.03186 3.74509ZM0.999169 3.7914L0.87663 3.70489C0.844119 3.75094 0.820634 3.80215 0.805001 3.85688L0.949232 3.89808L1.09346 3.93928C1.10082 3.91351 1.11063 3.8936 1.12171 3.87791L0.999169 3.7914ZM0.949232 3.89808L0.805001 3.85688L0.787756 3.91725L0.931987 3.95845L1.07622 3.99965L1.09346 3.93928L0.949232 3.89808ZM0.931987 3.95845L0.787756 3.91725L0.770511 3.97762L0.914742 4.01882L1.05897 4.06002L1.07622 3.99965L0.931987 3.95845ZM0.914742 4.01882L0.770511 3.97762C0.770982 3.97597 0.773509 3.96932 0.780407 3.96247C0.787092 3.95582 0.792522 3.95431 0.79125 3.9547L0.834848 4.09822L0.878446 4.24175C0.966442 4.21502 1.03278 4.15173 1.05897 4.06002L0.914742 4.01882ZM0.834848 4.09822L0.79125 3.9547L0.728601 3.97373L0.7722 4.11726L0.815798 4.26078L0.878446 4.24175L0.834848 4.09822ZM0.7722 4.11726L0.728601 3.97373L0.665953 3.99276L0.709551 4.13629L0.753149 4.27981L0.815798 4.26078L0.7722 4.11726ZM0.709551 4.13629L0.665953 3.99276C0.658981 3.99488 0.65766 3.99489 0.660303 3.99447C0.661741 3.99425 0.666341 3.99358 0.673136 3.99352C0.679194 3.99347 0.692712 3.99382 0.709686 3.99874C0.726872 4.00373 0.755403 4.0158 0.77936 4.04461C0.80507 4.07553 0.813217 4.11088 0.812767 4.13906C0.812366 4.16421 0.805388 4.18267 0.801705 4.19113C0.797648 4.20045 0.793586 4.20663 0.791897 4.2091L0.668179 4.12428L0.544461 4.03947C0.53834 4.04839 0.513607 4.08406 0.512805 4.13428C0.512306 4.16555 0.521278 4.20346 0.548687 4.23642C0.574343 4.26728 0.605448 4.28087 0.626081 4.28686C0.662467 4.29742 0.694885 4.29271 0.706641 4.29087C0.723173 4.28829 0.739238 4.28404 0.753149 4.27981L0.709551 4.13629ZM0.668179 4.12428L0.791897 4.2091L0.813174 4.17806L0.689456 4.09325L0.565738 4.00843L0.544461 4.03947L0.668179 4.12428ZM0.689456 4.09325L0.813174 4.17806L0.834451 4.14703L0.710733 4.06221L0.587015 3.97739L0.565738 4.00843L0.689456 4.09325ZM0.710733 4.06221L0.834451 4.14703C0.86556 4.10165 0.881075 4.04924 0.889254 4.00043L0.741317 3.97564L0.59338 3.95085C0.591404 3.96264 0.589227 3.97043 0.587584 3.97508C0.585928 3.97977 0.585296 3.9799 0.587015 3.97739L0.710733 4.06221ZM0.741317 3.97564L0.889254 4.00043L0.898561 3.9449L0.750623 3.92011L0.602686 3.89531L0.59338 3.95085L0.741317 3.97564ZM0.750623 3.92011L0.898561 3.9449L0.907867 3.88936L0.75993 3.86457L0.611993 3.83978L0.602686 3.89531L0.750623 3.92011ZM0.75993 3.86457L0.907867 3.88936C0.914515 3.84969 0.920105 3.80981 0.924638 3.76972L0.775588 3.75287L0.626537 3.73601C0.622602 3.77081 0.617754 3.8054 0.611993 3.83978L0.75993 3.86457ZM0.775588 3.75287L0.924638 3.76972L0.930989 3.71355L0.781939 3.6967L0.632888 3.67984L0.626537 3.73601L0.775588 3.75287ZM0.781939 3.6967L0.930989 3.71355L0.93734 3.65738L0.78829 3.64053L0.639239 3.62367L0.632888 3.67984L0.781939 3.6967ZM0.78829 3.64053L0.93734 3.65738C0.940237 3.63176 0.946098 3.60681 0.955017 3.58232L0.814069 3.531L0.673121 3.47968C0.656136 3.52633 0.64481 3.57441 0.639239 3.62367L0.78829 3.64053ZM0.814069 3.531L0.955017 3.58232L0.974445 3.52896L0.833498 3.47764L0.69255 3.42632L0.673121 3.47968L0.814069 3.531ZM0.833498 3.47764L0.974445 3.52896L0.993874 3.4756L0.852926 3.42428L0.711978 3.37296L0.69255 3.42632L0.833498 3.47764ZM0.852926 3.42428L0.993874 3.4756C1.01761 3.41042 1.01981 3.34288 1.00484 3.27713L0.85858 3.31043L0.712323 3.34373C0.715718 3.35864 0.71415 3.367 0.711978 3.37296L0.852926 3.42428ZM0.85858 3.31043L1.00484 3.27713L0.991063 3.21663L0.844807 3.24993L0.69855 3.28323L0.712323 3.34373L0.85858 3.31043ZM0.844807 3.24993L0.991063 3.21663L0.97729 3.15614L0.831033 3.18944L0.684776 3.22274L0.69855 3.28323L0.844807 3.24993ZM0.831033 3.18944L0.97729 3.15614C0.977288 3.15613 0.977589 3.15747 0.977589 3.15993C0.977589 3.16244 0.977272 3.16543 0.976472 3.1686C0.974739 3.17547 0.971989 3.17847 0.972912 3.17738L0.858575 3.08029L0.744238 2.98319C0.687148 3.05042 0.664755 3.1348 0.684776 3.22274L0.831033 3.18944ZM0.858575 3.08029L0.972912 3.17738L1.01423 3.12873L0.899891 3.03163L0.785554 2.93454L0.744238 2.98319L0.858575 3.08029ZM0.899891 3.03163L1.01423 3.12873L1.05554 3.08007L0.941207 2.98298L0.82687 2.88589L0.785554 2.93454L0.899891 3.03163ZM0.941207 2.98298L1.05554 3.08007C1.10305 3.02413 1.1323 2.95578 1.13313 2.87854L0.983142 2.87692L0.833151 2.87531C0.833141 2.87623 0.833057 2.87648 0.832857 2.87698C0.832576 2.87769 0.831275 2.8807 0.82687 2.88589L0.941207 2.98298ZM0.983142 2.87692L1.13313 2.87854L1.13375 2.82114L0.983761 2.81952L0.833769 2.8179L0.833151 2.87531L0.983142 2.87692ZM0.983761 2.81952L1.13375 2.82114L1.13437 2.76374L0.98438 2.76212L0.834388 2.7605L0.833769 2.8179L0.983761 2.81952ZM0.98438 2.76212L1.13437 2.76374C1.135 2.70577 1.12439 2.64927 1.10211 2.59563L0.963587 2.65317L0.825063 2.71072C0.831328 2.7258 0.834588 2.74194 0.834388 2.7605L0.98438 2.76212ZM0.963587 2.65317L1.10211 2.59563L1.0807 2.54409L0.942175 2.60163L0.803651 2.65917L0.825063 2.71072L0.963587 2.65317ZM0.942175 2.60163L1.0807 2.54409L1.05929 2.49254L0.920763 2.55009L0.78224 2.60763L0.803651 2.65917L0.942175 2.60163ZM0.920763 2.55009L1.05929 2.49254C1.0387 2.44298 1.01048 2.39776 0.975093 2.35737L0.862275 2.45623L0.749457 2.55508C0.763502 2.57111 0.774279 2.58847 0.78224 2.60763L0.920763 2.55009ZM0.862275 2.45623L0.975093 2.35737L0.938015 2.31506L0.825198 2.41391L0.71238 2.51277L0.749457 2.55508L0.862275 2.45623ZM0.825198 2.41391L0.938015 2.31506L0.900939 2.27274L0.788121 2.3716L0.675303 2.47045L0.71238 2.51277L0.825198 2.41391ZM0.788121 2.3716L0.900939 2.27274C0.864355 2.23099 0.821147 2.19662 0.77254 2.16943L0.699295 2.30033L0.62605 2.43123C0.646441 2.44264 0.66245 2.45578 0.675303 2.47045L0.788121 2.3716ZM0.699295 2.30033L0.77254 2.16943L0.720791 2.14047L0.647546 2.27137L0.574302 2.40227L0.62605 2.43123L0.699295 2.30033ZM0.647546 2.27137L0.720791 2.14047L0.669043 2.11152L0.595798 2.24242L0.522553 2.37332L0.574302 2.40227L0.647546 2.27137ZM0.595798 2.24242L0.669043 2.11152C0.646162 2.09871 0.627104 2.08412 0.611117 2.06796L0.504463 2.17343L0.397808 2.27891C0.434603 2.31611 0.476436 2.34751 0.522553 2.37332L0.595798 2.24242ZM0.504463 2.17343L0.611117 2.06796L0.57153 2.02793L0.464876 2.1334L0.358222 2.23888L0.397808 2.27891L0.504463 2.17343ZM0.464876 2.1334L0.57153 2.02793L0.531943 1.9879L0.425289 2.09337L0.318635 2.19885L0.358222 2.23888L0.464876 2.1334ZM0.425289 2.09337L0.531943 1.9879C0.514122 1.96988 0.498402 1.94966 0.484751 1.92693L0.356164 2.00417L0.227577 2.0814C0.25331 2.12424 0.283674 2.1635 0.318635 2.19885L0.425289 2.09337ZM0.356164 2.00417L0.484751 1.92693L0.455213 1.87775L0.326625 1.95499L0.198038 2.03222L0.227577 2.0814L0.356164 2.00417ZM0.326625 1.95499L0.455213 1.87775L0.425674 1.82857L0.297087 1.90581L0.168499 1.98304L0.198038 2.03222L0.326625 1.95499ZM0.297087 1.90581L0.425674 1.82857C0.403568 1.79177 0.379595 1.75576 0.353789 1.72054L0.232793 1.8092L0.111797 1.89786C0.132331 1.92588 0.15122 1.95428 0.168499 1.98304L0.297087 1.90581ZM0.232793 1.8092L0.353789 1.72054L0.319034 1.67311L0.198038 1.76177L0.0770424 1.85042L0.111797 1.89786L0.232793 1.8092ZM0.198038 1.76177L0.319034 1.67311L0.284279 1.62568L0.163283 1.71433L0.0422874 1.80299L0.0770424 1.85042L0.198038 1.76177ZM0.163283 1.71433L0.284279 1.62568C0.2828 1.62366 0.288537 1.63068 0.29346 1.64502C0.29812 1.65858 0.308471 1.69838 0.286596 1.74411C0.263687 1.792 0.223341 1.80961 0.2052 1.81502C0.195734 1.81784 0.188397 1.81872 0.184619 1.81903C0.180658 1.81936 0.178322 1.81926 0.178135 1.81925L0.184778 1.6694L0.191421 1.51954C0.17424 1.51878 0.147874 1.51906 0.119482 1.52752C0.0901745 1.53626 0.0424537 1.55927 0.0159623 1.61466C-0.00949502 1.66788 0.00106592 1.71724 0.00972714 1.74246C0.0186509 1.76845 0.0321812 1.7892 0.0422874 1.80299L0.163283 1.71433ZM0.184778 1.6694L0.178135 1.81925L0.234385 1.82174L0.241028 1.67189L0.247671 1.52204L0.191421 1.51954L0.184778 1.6694ZM0.241028 1.67189L0.234385 1.82174L0.290635 1.82424L0.297278 1.67438L0.303921 1.52453L0.247671 1.52204L0.241028 1.67189ZM0.297278 1.67438L0.290635 1.82424C0.316295 1.82537 0.342477 1.82954 0.369379 1.83706L0.409778 1.69261L0.450177 1.54815C0.402079 1.5347 0.353261 1.52672 0.303921 1.52453L0.297278 1.67438ZM0.409778 1.69261L0.369379 1.83706L0.425629 1.8528L0.466028 1.70834L0.506427 1.56388L0.450177 1.54815L0.409778 1.69261ZM0.466028 1.70834L0.425629 1.8528L0.481879 1.86853L0.522278 1.72407L0.562677 1.57961L0.506427 1.56388L0.466028 1.70834ZM0.522278 1.72407L0.481879 1.86853C0.544956 1.88617 0.609594 1.88673 0.672998 1.87003L0.634778 1.72498L0.596558 1.57993C0.584962 1.58298 0.5746 1.58295 0.562677 1.57961L0.522278 1.72407ZM0.634778 1.72498L0.672998 1.87003L0.729248 1.85521L0.691028 1.71016L0.652808 1.56511L0.596558 1.57993L0.634778 1.72498ZM0.691028 1.71016L0.729248 1.85521L0.785498 1.84038L0.747278 1.69533L0.709058 1.55029L0.652808 1.56511L0.691028 1.71016ZM0.747278 1.69533L0.785498 1.84038C0.787399 1.83988 0.788116 1.83996 0.788486 1.84C0.788992 1.84005 0.791515 1.84035 0.796523 1.84268L0.859778 1.70667L0.923033 1.57066C0.856073 1.53952 0.78275 1.53087 0.709058 1.55029L0.747278 1.69533ZM0.859778 1.70667L0.796523 1.84268L0.852773 1.86884L0.916028 1.73283L0.979283 1.59682L0.923033 1.57066L0.859778 1.70667ZM0.916028 1.73283L0.852773 1.86884L0.909023 1.895L0.972278 1.75899L1.03553 1.62298L0.979283 1.59682L0.916028 1.73283ZM0.972278 1.75899L0.909023 1.895C0.992414 1.93379 1.08341 1.92869 1.16181 1.87685L1.07909 1.75173L0.99636 1.6266C0.998245 1.62536 1.00555 1.62138 1.01692 1.6206C1.02811 1.61984 1.03502 1.62274 1.03553 1.62298L0.972278 1.75899ZM1.07909 1.75173L1.16181 1.87685L1.21237 1.84342L1.12965 1.7183L1.04692 1.59317L0.99636 1.6266L1.07909 1.75173ZM1.12965 1.7183L1.21237 1.84342L1.26293 1.81L1.18021 1.68487L1.09748 1.55975L1.04692 1.59317L1.12965 1.7183ZM1.18021 1.68487L1.26293 1.81C1.33142 1.76472 1.37725 1.6955 1.38545 1.60925L1.23612 1.59506L1.0868 1.58087C1.08705 1.57823 1.08832 1.57254 1.09213 1.56642C1.09576 1.56059 1.09896 1.55877 1.09748 1.55975L1.18021 1.68487ZM1.23612 1.59506L1.38545 1.60925L1.39081 1.55287L1.24148 1.53868L1.09215 1.52449L1.0868 1.58087L1.23612 1.59506ZM1.24148 1.53868L1.39081 1.55287L1.39617 1.49649L1.24684 1.4823L1.09751 1.4681L1.09215 1.52449L1.24148 1.53868ZM1.24684 1.4823L1.39617 1.49649C1.39788 1.47841 1.40294 1.46075 1.41224 1.44266L1.27882 1.3741L1.14541 1.30554C1.1192 1.35654 1.10294 1.411 1.09751 1.4681L1.24684 1.4823ZM1.27882 1.3741L1.41224 1.44266L1.43886 1.39085L1.30545 1.32229L1.17203 1.25373L1.14541 1.30554L1.27882 1.3741ZM1.30545 1.32229L1.43886 1.39085L1.46549 1.33903L1.33207 1.27048L1.19865 1.20192L1.17203 1.25373L1.30545 1.32229ZM1.33207 1.27048L1.46549 1.33903C1.49816 1.27546 1.50855 1.20634 1.49792 1.13659L1.34963 1.15918L1.20134 1.18178C1.2028 1.19134 1.20148 1.19641 1.19865 1.20192L1.33207 1.27048ZM1.34963 1.15918L1.49792 1.13659L1.48886 1.0771L1.34057 1.0997L1.19228 1.12229L1.20134 1.18178L1.34963 1.15918ZM1.34057 1.0997L1.48886 1.0771L1.47979 1.01762L1.3315 1.04022L1.18322 1.06281L1.19228 1.12229L1.34057 1.0997ZM1.3315 1.04022L1.47979 1.01762C1.4761 0.99342 1.47662 0.972113 1.4802 0.95286L1.33274 0.925411L1.18527 0.897962C1.17512 0.952471 1.17482 1.0077 1.18322 1.06281L1.3315 1.04022ZM1.33274 0.925411L1.4802 0.95286L1.4905 0.897538L1.34303 0.87009L1.19557 0.842641L1.18527 0.897962L1.33274 0.925411ZM1.34303 0.87009L1.4905 0.897538L1.5008 0.842217L1.35333 0.814768L1.20586 0.787319L1.19557 0.842641L1.34303 0.87009ZM1.35333 0.814768L1.5008 0.842217C1.50747 0.806366 1.51452 0.770595 1.52194 0.734906L1.37508 0.704373L1.22822 0.673841C1.22037 0.711582 1.21292 0.749409 1.20586 0.787319L1.35333 0.814768ZM1.37508 0.704373L1.52194 0.734906L1.53339 0.679832L1.38653 0.6493L1.23967 0.618767L1.22822 0.673841L1.37508 0.704373ZM1.38653 0.6493L1.53339 0.679832L1.54484 0.624759L1.39798 0.594226L1.25112 0.563693L1.23967 0.618767L1.38653 0.6493ZM1.39798 0.594226L1.54484 0.624759C1.5532 0.584539 1.56012 0.544024 1.56561 0.50322L1.41695 0.483234L1.26828 0.463247C1.26375 0.497001 1.25802 0.530481 1.25112 0.563693L1.39798 0.594226ZM1.41695 0.483234L1.56561 0.50322L1.57313 0.447301L1.42446 0.427315L1.2758 0.407328L1.26828 0.463247L1.41695 0.483234ZM1.42446 0.427315L1.57313 0.447301L1.58065 0.391383L1.43198 0.371396L1.28332 0.351409L1.2758 0.407328L1.42446 0.427315ZM1.43198 0.371396L1.58065 0.391383C1.58432 0.364074 1.58983 0.344881 1.59528 0.331906L1.45696 0.273867L1.31864 0.215828C1.30081 0.258333 1.28967 0.304159 1.28332 0.351409L1.43198 0.371396ZM1.45696 0.273867L1.59528 0.331906L1.61274 0.290296L1.47442 0.232257L1.3361 0.174218L1.31864 0.215828L1.45696 0.273867ZM1.47442 0.232257L1.61274 0.290296L1.6302 0.248686L1.49188 0.190647L1.35356 0.132607L1.3361 0.174218L1.47442 0.232257ZM1.49188 0.190647L1.6302 0.248686C1.6355 0.236052 1.6378 0.231693 1.63756 0.232127C1.63732 0.232566 1.63644 0.234134 1.63497 0.236431C1.63366 0.238467 1.63068 0.242953 1.62606 0.248473C1.62239 0.252862 1.61224 0.264579 1.59556 0.275608C1.58049 0.285575 1.53879 0.308792 1.48272 0.29674L1.51424 0.15009L1.54576 0.00343934C1.48888 -0.00878805 1.44623 0.0146984 1.43008 0.0253778C1.41232 0.0371205 1.40097 0.049995 1.39595 0.055986C1.38527 0.0687584 1.37816 0.0812669 1.37484 0.0872773C1.36715 0.101231 1.3599 0.117501 1.35356 0.132607L1.49188 0.190647ZM1.51424 0.15009L1.48272 0.29674L1.48762 0.297794L1.51914 0.151143L1.55067 0.00449283L1.54576 0.00343934L1.51424 0.15009ZM1.51914 0.151143L1.48762 0.297794L1.49252 0.298847L1.52404 0.152197L1.55557 0.00554633L1.55067 0.00449283L1.51914 0.151143ZM1.52404 0.152197L1.49252 0.298847C1.46624 0.293198 1.44792 0.281815 1.43907 0.275665C1.42933 0.268884 1.42246 0.262331 1.41863 0.258439C1.41111 0.250795 1.40648 0.244293 1.4051 0.242329C1.40192 0.237826 1.40081 0.235493 1.40231 0.238223C1.40478 0.242724 1.40963 0.252331 1.41736 0.268914L1.55332 0.205546L1.68928 0.142177C1.68076 0.123897 1.6726 0.10718 1.66532 0.0938985C1.66193 0.0877373 1.65676 0.078648 1.65033 0.0695231C1.64732 0.0652491 1.64126 0.0569701 1.63252 0.0480831C1.62941 0.0449163 1.60228 0.0155864 1.55557 0.00554633L1.52404 0.152197ZM1.55332 0.205546L1.41736 0.268914L1.44174 0.32121L1.57769 0.257841L1.71365 0.194473L1.68928 0.142177L1.55332 0.205546Z" fill="var(--stroke-0, white)"/>
</g>
</svg>
