<svg xmlns="http://www.w3.org/2000/svg" fill="none" overflow="visible" preserveAspectRatio="none" style="display:block" viewBox="0 0 28.134 40.751"><path fill="var(--fill-0, #fffeef)" d="M13.227 1.003c.474.009.73.022 1.209.022 2.884 0 6.343 1.027 8.957 4.413 1.714 2.221 2.492 4.832 2.915 6.946.425 2.13.588 4.327.723 5.803.18 1.99.158 5.015-.354 8.161-.498 3.065-1.556 6.854-3.874 9.865-.924 1.2-2.397 2.274-4.054 2.905-1.796.684-4.24 1.003-6.82-.035-.995-.4-1.689-.654-2.248-.86-.456-.168-1.18-.427-1.834-.775-1.692-.904-2.701-2.351-3.272-3.053-1.446-1.78-2.478-4.55-3.042-7.513-.598-3.143-.777-7.05-.096-11.462.05-.325.133-.638.24-.936q.008-.403.082-.814c.377-2.033 1.103-4.356 2.16-6.637.576-1.247 1.31-2.484 2.515-3.442.548-.435 1.074-.708 1.204-.778l.009-.004c.99-.733 2.204-1.473 3.873-1.718a10.4 10.4 0 0 1 1.707-.088"/><path fill="var(--stroke-0, #f4c280)" d="m13.227 1.003.017-1zm1.209.022v-1zm8.957 4.413.791-.611zm2.915 6.946.98-.196zm.723 5.803.995-.09zm-.354 8.161.987.16zm-3.874 9.865.792.61zm-4.054 2.905.356.934zm-6.82-.035.374-.927zm-2.248-.86.346-.938zm-1.834-.775-.471.882zm-3.272-3.053.776-.63zm-3.042-7.513-.982.187zM1.437 15.42l-.989-.152zm.24-.936.94.339.056-.155.004-.163zm.082-.814-.983-.182zm2.16-6.637-.908-.42zM6.433 3.59l-.622-.783zm1.204-.778.475.88zm.009-.004L8.1 3.7l.075-.038.067-.05zm3.873-1.718L11.374.1zm1.707-.088-.018 1c.443.008.739.022 1.227.022v-2c-.47 0-.687-.013-1.192-.021zm1.209.022v1c2.642 0 5.779.932 8.165 4.024l.792-.611.791-.611C21.344 1.146 17.561.025 14.436.025zm8.957 4.413-.792.611c1.578 2.044 2.316 4.48 2.726 6.531l.98-.196.982-.196c-.436-2.177-1.253-4.962-3.105-7.361zm2.915 6.946-.98.196c.412 2.064.57 4.198.707 5.698l.995-.091.996-.09c-.132-1.453-.3-3.715-.738-5.909zm.723 5.803-.996.09c.173 1.909.153 4.85-.345 7.91l.987.161.987.16c.525-3.23.551-6.34.362-8.412zm-.354 8.161-.987-.16c-.487 2.996-1.508 6.595-3.68 9.415l.793.61.792.61c2.466-3.201 3.56-7.18 4.069-10.314zm-3.874 9.865-.792-.61c-.799 1.037-2.113 2.007-3.618 2.58l.356.935.356.934c1.81-.689 3.442-1.867 4.49-3.228zm-4.054 2.905-.356-.935c-1.618.616-3.795.896-6.09-.027l-.373.928-.373.927c2.863 1.153 5.573.793 7.548.041zm-6.82-.035.374-.927c-1.011-.407-1.717-.665-2.276-.871l-.346.938-.346.938c.559.206 1.24.455 2.222.85zm-2.248-.86.346-.938c-.473-.174-1.129-.41-1.71-.72l-.47.883-.47.882c.725.387 1.52.67 1.958.831zm-1.834-.775.47-.882c-1.473-.787-2.344-2.037-2.966-2.802l-.776.631-.776.63c.52.64 1.666 2.285 3.577 3.305zm-3.272-3.053.776-.63c-1.297-1.598-2.286-4.181-2.835-7.07l-.983.187-.982.187c.578 3.04 1.652 5.993 3.248 7.957zm-3.042-7.513.983-.187c-.577-3.032-.754-6.824-.09-11.122l-.99-.153-.988-.152c-.698 4.525-.516 8.547.103 11.801zM1.437 15.42l.988.153q.061-.386.193-.75l-.941-.34-.94-.338a6 6 0 0 0-.289 1.123zm.24-.936 1 .02q.006-.326.065-.652l-.983-.182-.983-.182q-.09.496-.099.975zm.082-.814.983.183c.361-1.948 1.06-4.19 2.084-6.4l-.908-.42-.907-.42C1.92 8.966 1.168 11.368.776 13.488zm2.16-6.637.907.42c.55-1.188 1.203-2.262 2.23-3.079l-.622-.783-.622-.783c-1.384 1.1-2.197 2.5-2.801 3.805zM6.433 3.59l.622.783c.471-.374.925-.61 1.057-.681l-.475-.88-.475-.88c-.129.07-.726.378-1.351.875zm1.204-.778.475.88a1 1 0 0 1-.092.043h.003L8.1 3.7l-.453-.89-.454-.892.059-.028.011-.004s.003-.002 0 0l-.009.003a1 1 0 0 0-.091.044zm.009-.004.595.804c.93-.689 1.987-1.322 3.423-1.532l-.145-.99-.145-.99C9.473.382 8.102 1.228 7.05 2.007zm3.873-1.718.145.99a9.4 9.4 0 0 1 1.544-.078l.018-1 .017-1a11.4 11.4 0 0 0-1.87.099z"/><ellipse cx="16.683" cy="18.175" fill="var(--fill-0, #424242)" rx="7.122" ry="11.534"/><path fill="var(--fill-0, white)" d="m12.826 23.942.333 1.55h1.077l-.872.957.333 1.55-.871-.958-.873.958.334-1.55-.873-.958h1.078z"/><path fill="var(--stroke-0, white)" d="m12.874 24.046-.136.064zm.025.053.136-.064zm.027.109-.15.007zm.002.057.15-.007zm.003.057-.15.006zm.02.11.142-.046zm.018.054-.143.047zm.017.054-.142.047zm.025.11-.15.018zm.013.112.15-.018zm.002.115-.15-.014zm-.011.117-.15-.014zm.01.113.143-.04zm.03.109-.145.04zm.032.108-.142.046zm.111.17-.024.149zm.232.001-.067-.134zm.056-.027-.066-.135zm.056-.028.067.134zm.225.045-.06.137zm.113.03.016-.149zm.056.006-.016.15zm.056.006-.016.15zm.097.002.015.15zm.04-.004.016.15zm.04-.004-.015-.15zm.005.04-.116-.097zm-.036.042.115.096zm-.105.133-.122-.087zm-.033.046.122.087zm-.033.047.123.087zm-.09.07-.057-.14zm-.116.046.057.14zm-.068.09-.148-.024zm-.021.133.148.024zm-.105.133.087.122zm-.047.034-.087-.123zm-.05.072-.149-.012zm-.002.038.15.011zm-.003.038-.15-.01zm.006.094.148-.024zm.018.112-.148.024zm.013.112.15-.01zm.004.057-.15.01zm.004.056.15-.01zm-.015.118.144.045zm-.038.124-.143-.044zm.012.112.129-.076zm.06.102-.129.077zm.055.104-.137.063zm.048.104.136-.062zm.04.107-.143.043zm.033.108.144-.044zm-.004.077.114.098zm-.02.023-.113-.098zm-.02.024-.113-.099zm-.045-.03.136-.064zm-.05-.108-.136.063zm-.085-.074.05-.142zm-.12-.042-.05.141zm-.08-.08-.143.048zm-.04-.116.143-.048zm-.058-.1-.107.106zm-.04-.04.107-.104zm-.039-.04-.107.106zm-.097-.063-.056.14zm-.058-.023-.056.139zm-.058-.024.056-.139zm-.082-.025-.014.15zm-.048-.005.014-.149zm-.07.032.09.12zm-.177.143-.106-.107zm-.04.04.105.106zm-.04.04.106.105zm-.073.085.123.087zm-.065.093-.123-.087zm-.085.227-.144-.041zm-.08.08.044.143zm-.125.038-.043-.144zm-.041-.012.123.084zm.021-.031.124.084zm.021-.031.124.084zm.03-.087-.147-.025zm.035-.223.15.017zm.007-.056-.15-.017zm.006-.056.149.017zm.064-.216-.14-.052zm.006-.114.146-.034zm-.027-.121-.147.033zm.027-.11-.114-.096zm.083-.097.114.097zm.042-.106-.15-.001zm0-.057.15.002zm0-.058-.15-.001zm-.02-.108.139-.058zm-.043-.104-.138.058zm-.058-.093-.113.098zm-.037-.043-.113.1zm-.037-.042.112-.099zm-.09-.071-.072.13zm-.103-.058-.073.13zm-.091-.07-.107.106zm-.08-.08-.106.106zm-.068-.088-.129.077zm-.06-.099-.128.077zm-.064-.096-.12.088zm-.07-.095.122-.089zm.022-.045-.006.15zm.113.005.006-.15zm.112.018.04-.145zm.45.014-.063.136zm.057.026-.064.136zm.056.026.063-.136zm.107-.007.082.125zm.1-.067-.082-.125zm.057-.09.149.015zm.01-.112.15.014zm.032-.108-.133-.07zm.027-.052.133.068zm.027-.397.148.027zm.02-.11-.147-.028zm.023-.111-.147-.03zm.022-.11-.146-.031zm.02-.111-.15-.02zm.014-.112.15.02zm.026-.098-.139-.058zm.017-.041.138.058zm.017-.042.139.058zm.023-.04-.032.146zm.01.002.031-.147zm.029.053-.136.063zm.024.052-.136.064.025.052.136-.063.136-.064-.025-.052zm.025.053-.136.063a.14.14 0 0 1 .013.053l.15-.007.15-.007a.4.4 0 0 0-.042-.166zm.027.109-.15.007.002.056.15-.006.15-.007-.003-.057zm.002.057-.15.006.003.057.15-.006.15-.007-.003-.057zm.003.057-.15.006a.6.6 0 0 0 .027.151l.143-.046.142-.047a.3.3 0 0 1-.012-.071zm.02.11-.143.047.018.054.143-.047.142-.047-.018-.053zm.018.054-.143.047.018.054.142-.047.143-.047-.018-.054zm.017.054-.142.047a.4.4 0 0 1 .018.08l.149-.017.149-.018a.7.7 0 0 0-.031-.139zm.025.11-.15.018.008.056.149-.018.148-.018-.006-.056zm.007.056-.15.018.008.056.148-.018.15-.018-.008-.056zm.006.056-.148.018a.4.4 0 0 1 0 .082l.15.015.149.014a.7.7 0 0 0-.002-.147zm.002.115-.15-.014-.005.058.149.014.15.015.005-.06zm-.006.058-.15-.014-.005.059.15.014.149.014.005-.058zm-.005.06-.15-.015a.5.5 0 0 0 .015.168l.144-.04.145-.041a.2.2 0 0 1-.005-.059zm.01.112-.145.04.015.055.144-.04.145-.041-.015-.054zm.014.054-.144.041.015.054.145-.04.144-.041-.015-.054zm.016.055-.145.04q.016.057.035.114l.142-.046.143-.047-.031-.102zm.032.108-.142.046.017.054.143-.047.143-.046-.018-.054zm.018.053-.143.047.018.054.142-.047.143-.046-.018-.054zm.017.054-.142.047a.24.24 0 0 0 .194.165l.024-.149.024-.148q.005-.001.024.013a.1.1 0 0 1 .019.026zm.076.063-.024.149.059.01.024-.149.024-.148-.059-.01zm.059.01-.024.148.058.01.024-.148.024-.148-.058-.01zm.058.01-.024.148q.108.016.205-.032l-.066-.135-.067-.134q-.015.006-.024.005zm.115-.019.066.135.056-.028-.066-.134-.066-.135-.057.028zm.056-.027.066.134.057-.028-.067-.134-.066-.135-.056.028zm.056-.028.067.134-.006.001-.008-.001.06-.138.059-.137a.28.28 0 0 0-.238.006zm.113-.004-.06.138.057.024.059-.137.06-.138-.057-.024zm.056.024-.06.138.057.024.06-.137.058-.138-.056-.024zm.056.025-.06.137q.076.033.156.042l.017-.149.016-.149a.3.3 0 0 1-.07-.02zm.113.03-.017.15.057.005.016-.149.016-.149-.056-.006zm.056.006-.016.15.056.006.016-.15.017-.149-.057-.006zm.056.006-.016.15a.6.6 0 0 0 .128.002l-.015-.15-.016-.149a.3.3 0 0 1-.064-.002zm.097.002.015.15.04-.005-.015-.149-.016-.149-.04.004zm.04-.004.016.15.04-.005-.016-.149-.015-.15-.04.005zm.04-.004.016.15s-.023.002-.051-.008a.14.14 0 0 1-.093-.118.13.13 0 0 1 .014-.075l.003-.006.116.096.115.096a.3.3 0 0 0 .03-.044.17.17 0 0 0 .02-.1.16.16 0 0 0-.103-.131.2.2 0 0 0-.082-.01zm.005.04-.116-.097-.036.044.116.095.115.096.036-.043zm-.036.042-.116-.095-.036.043.116.096.115.096.036-.044zm-.036.044-.116-.096-.075.099.122.086.122.087q.03-.042.062-.08zm-.07.09-.121-.087-.033.046.122.086.122.087.033-.046zm-.032.046-.122-.087-.033.046.122.087.123.087.032-.047zm-.033.046-.122-.087a.05.05 0 0 1-.025.017l.057.14.056.138a.35.35 0 0 0 .157-.121zm-.09.07-.057-.14-.058.024.057.139.056.139.058-.024zm-.058.023-.057-.139-.057.023.056.14.057.138.058-.023zm-.058.023-.056-.139a.26.26 0 0 0-.16.205l.148.024.148.024-.006.011-.017.014zm-.068.09-.148-.024-.01.067.147.024.148.023.01-.066zm-.01.067-.149-.024-.01.066.148.024.148.024.01-.067zm-.011.066-.149-.024-.001.007.005-.005.087.122.087.122a.3.3 0 0 0 .119-.198zm-.058.1-.087-.122-.047.033.087.122.087.122.047-.033zm-.047.033-.087-.122-.047.034.087.122.087.122.047-.034zm-.047.034-.087-.123a.25.25 0 0 0-.112.183l.15.012.15.01a.1.1 0 0 1-.013.038q-.007.009 0 .002zm-.05.072-.149-.012-.003.039.15.01.15.012.002-.038zm-.002.038-.15-.011-.003.038.15.011.15.011.002-.038zm-.003.038-.15-.01a.6.6 0 0 0 .008.129l.148-.025.148-.024a.3.3 0 0 1-.005-.059zm.006.094-.148.024.01.056.147-.024.148-.024-.009-.056zm.01.056-.149.024.01.056.147-.024.148-.024-.009-.056zm.008.056-.148.024q.009.048.012.099l.15-.011.149-.01a1 1 0 0 0-.015-.127zm.013.112-.15.01.005.057.15-.01.149-.011-.004-.057zm.004.057-.15.01.005.057.15-.01.149-.011-.004-.057zm.004.056-.15.01a.2.2 0 0 1-.008.064l.143.044.144.045a.5.5 0 0 0 .021-.174zm-.015.118-.143-.044-.019.062.143.044.144.044.019-.061zm-.019.062-.143-.044-.019.061.143.045.144.044.019-.062zm-.019.062-.143-.044a.28.28 0 0 0 .026.233l.129-.077.129-.076.002.008q0 .005 0 0zm.012.112-.13.077.03.051.13-.077.129-.076-.03-.051zm.03.051-.13.077.031.051.13-.077.128-.076-.03-.051zm.03.051-.129.077q.027.045.047.09l.137-.063.136-.063a1 1 0 0 0-.062-.117zm.055.104-.137.063.025.052.136-.063.136-.063-.024-.052zm.024.052-.136.063.024.052.136-.062.136-.063-.024-.053zm.024.052-.136.063a1 1 0 0 1 .033.087l.143-.043.144-.044a1 1 0 0 0-.048-.125zm.04.107-.143.043.016.054.144-.043.143-.044-.016-.054zm.017.054-.144.043.017.054.143-.043.144-.044-.017-.054zm.016.054-.143.043q.002.012 0-.004a.1.1 0 0 1 .026-.06l.113.098.114.098c.067-.078.048-.173.034-.219zm-.004.077-.113-.098-.02.023.113.098.114.099.02-.024zm-.02.023-.113-.098-.02.023.113.099.113.098.02-.023zm-.02.024-.113-.099a.136.136 0 0 1 .176-.022c.017.012.026.025.028.027q.003.007 0 0l-.136.064-.136.063c.009.02.031.065.076.095a.164.164 0 0 0 .218-.03zm-.045-.03.136-.064-.025-.053-.136.063-.136.063.025.053zm-.025-.054.136-.063-.024-.053-.136.062-.137.063.025.054zm-.024-.054.136-.062a.3.3 0 0 0-.172-.154l-.05.142-.049.142q.005.002.002 0l-.003-.003v-.002zm-.086-.074.05-.142-.06-.02-.05.14-.05.143.061.02zm-.06-.021.05-.142-.061-.02-.05.14-.049.142.06.022zm-.06-.021.049-.142.006.005.005.007.002.003-.142.047-.143.048a.27.27 0 0 0 .173.173zm-.08-.08.142-.047-.02-.058-.142.047-.142.047.02.059zm-.02-.058.143-.047-.02-.059-.142.047-.143.048.02.058zm-.02-.058.143-.048a.4.4 0 0 0-.094-.156l-.107.105-.107.105a.1.1 0 0 1 .024.04zm-.058-.1.107-.104-.04-.04-.107.105-.106.105.04.04zm-.04-.04.107-.104-.039-.04-.107.105-.107.105.04.04zm-.039-.04.107-.105a.4.4 0 0 0-.148-.097l-.056.14-.056.138a.1.1 0 0 1 .046.03zm-.097-.063.056-.139-.058-.023-.056.139-.056.139.057.023zm-.058-.023.056-.14-.058-.023-.056.14-.056.139.058.023zm-.058-.024.056-.139a.5.5 0 0 0-.124-.036l-.014.15-.014.15-.006-.002.008.002.038.015zm-.082-.025.014-.15-.024-.002-.014.15-.014.149.024.002zm-.024-.002L12.8 27l-.024-.002-.014.15-.013.149.023.002zm-.024-.003.014-.149a.2.2 0 0 0-.106.02.4.4 0 0 0-.067.041l.09.12.089.12.013-.008-.012.004a.1.1 0 0 1-.034.002zm-.07.032-.09-.12-.045.034.09.12.09.12.045-.033zm-.046.035-.09-.12-.045.034.09.12.09.12.045-.034zm-.045.034-.09-.12a1 1 0 0 0-.102.087l.106.107.105.106a1 1 0 0 1 .07-.06zm-.086.074-.106-.107-.04.04.106.106.105.107.04-.04zm-.04.04-.106-.107-.04.04.106.106.106.107.04-.04zm-.04.04-.106-.107a1 1 0 0 0-.09.106l.123.086.123.087.056-.067zm-.073.085-.123-.086-.032.046.122.086.123.087.033-.046zm-.033.046-.122-.086-.033.046.123.087.122.086.033-.046zm-.032.047-.123-.087a.5.5 0 0 0-.072.152l.145.041.144.042a.2.2 0 0 1 .028-.062zm-.05.106-.145-.04-.017.06.145.04.144.042.017-.06zm-.018.06-.144-.04-.017.06.144.041.144.041.018-.06zm-.017.061-.144-.041a.04.04 0 0 1 .01-.015l.01-.008.044.144.044.143a.26.26 0 0 0 .18-.182zm-.08.08-.043-.144-.063.02.044.143.043.143.063-.019zm-.062.019-.044-.144-.062.02.043.143.044.143.062-.019zm-.063.019-.043-.144-.006.002.013-.001q.01-.001.036.005a.143.143 0 0 1 .082.21l-.123-.084-.124-.085c-.006.009-.03.044-.032.095a.156.156 0 0 0 .114.152.2.2 0 0 0 .08.004l.047-.01zm-.041-.012.123.084.022-.03-.124-.085-.124-.085-.021.03zm.021-.031.124.084.021-.03-.124-.085-.123-.085-.022.03zm.021-.031.124.084a.4.4 0 0 0 .055-.146l-.148-.025-.148-.025-.006.024q-.003.007 0 .003zm.03-.087.149.025.01-.056-.149-.024-.148-.025-.01.055zm.01-.055.148.024.01-.055-.149-.025-.147-.025-.01.056zm.01-.056.147.025q.01-.06.017-.12l-.149-.017-.149-.017-.014.104zm.015-.112.15.017.005-.056-.149-.017-.149-.017-.006.056zm.007-.056.148.017.007-.056-.15-.017-.148-.017-.007.056zm.006-.056.149.017a.3.3 0 0 1 .018-.075l-.141-.052-.141-.051a.6.6 0 0 0-.034.144zm.026-.11.14.052.02-.054-.141-.051-.14-.051-.02.053zm.019-.053.141.051.02-.053-.142-.051-.14-.052-.02.054zm.02-.053.14.051a.35.35 0 0 0 .011-.198l-.146.033-.146.033a.05.05 0 0 1 0 .03zm.005-.114.146-.034-.013-.06-.147.033-.146.034.014.06zm-.014-.06.147-.034-.014-.06-.146.033-.147.033.014.06zm-.013-.061.146-.034v.004l-.001.009-.004.009-.114-.097-.114-.098a.27.27 0 0 0-.06.24zm.027-.11.114.098.042-.049-.115-.097-.114-.097-.041.049zm.041-.048.115.097.041-.049-.114-.097-.115-.097-.04.049zm.042-.049.114.097a.3.3 0 0 0 .078-.201l-.15-.002-.15-.001v.001l-.007.01zm.042-.106.15.002v-.058l-.15-.001-.15-.002v.058zm0-.057.15.002v-.058l-.15-.002-.15-.001v.057zm0-.058.15.002a.4.4 0 0 0-.031-.168l-.139.058-.138.057q.01.022.009.05zm-.02-.108.139-.058-.022-.052-.138.058-.139.058.022.051zm-.021-.052.138-.058-.021-.051-.139.057-.138.058.021.052zm-.022-.052.139-.057a.5.5 0 0 0-.084-.135l-.113.099-.113.098a.2.2 0 0 1 .033.053zm-.058-.093.113-.1-.037-.042-.113.1-.113.098.037.042zm-.037-.043.113-.099-.037-.042-.113.099-.113.099.037.042zm-.037-.042.112-.099a.5.5 0 0 0-.128-.103l-.073.13-.073.132q.03.017.049.039zm-.09-.071.074-.131-.052-.03-.073.132-.073.13.052.03zm-.05-.03.072-.13-.051-.03-.074.132-.073.13.052.03zm-.053-.028.074-.131a.3.3 0 0 1-.058-.044l-.107.106-.107.105a.6.6 0 0 0 .125.095zm-.091-.07.107-.105-.04-.04-.107.106-.106.105.04.04zm-.04-.04.107-.105-.04-.04-.106.106-.107.105.04.04zm-.04-.04.107-.105a.3.3 0 0 1-.047-.06l-.128.076-.129.078a.6.6 0 0 0 .091.117zm-.068-.088.128-.078-.03-.049-.128.077-.128.078.03.049zm-.03-.05.129-.077-.03-.05-.128.078-.129.077.03.05zm-.03-.049.13-.077a1 1 0 0 0-.073-.108l-.12.088-.122.09q.03.041.057.084zm-.064-.096.121-.09-.034-.046-.121.088-.121.089.034.047zm-.034-.048.12-.088-.034-.048-.121.089-.121.088.035.048zm-.035-.047.12-.089q.001-.003.01.02a.13.13 0 0 1-.007.098.13.13 0 0 1-.102.075h-.006l.006-.15.007-.15a.2.2 0 0 0-.072.009.17.17 0 0 0-.104.087.17.17 0 0 0-.006.128.2.2 0 0 0 .033.06zm.021-.045-.006.15.056.002.007-.15.006-.15-.056-.002zm.057.002-.007.15.056.003.007-.15.006-.15-.056-.003zm.056.003-.007.15a.4.4 0 0 1 .079.012l.04-.144.04-.145a.7.7 0 0 0-.146-.023zm.112.018-.04.144.056.016.04-.144.04-.145-.055-.015zm.057.016-.04.144.055.016.04-.145.041-.144-.056-.016zm.056.015-.04.145a.36.36 0 0 0 .19.001l-.038-.145-.038-.145a.1.1 0 0 1-.034 0zm.112.001.039.145.056-.014-.038-.145-.039-.145-.056.014zm.057-.015.038.146.056-.015-.038-.145-.038-.145-.057.015zm.056-.014.038.145h.003l.008.002.063-.136.064-.136a.3.3 0 0 0-.214-.02zm.112.011-.063.136.056.026.064-.136.063-.136-.056-.026zm.057.026-.064.136.057.026.063-.136.063-.136-.056-.026zm.056.026-.063.136a.25.25 0 0 0 .252-.018l-.082-.125-.083-.125a.04.04 0 0 1 .02-.006l.02.002zm.107-.007.082.125.05-.033-.082-.125-.083-.126-.05.034zm.05-.033.083.125.05-.034-.082-.125-.083-.125-.05.034zm.05-.034.083.125a.27.27 0 0 0 .123-.2l-.15-.015-.149-.014q0-.004.006-.014l.005-.007zm.057-.09.149.015.005-.057-.149-.014-.15-.014-.005.056zm.005-.056.15.014.005-.056-.15-.014-.149-.015-.005.057zm.005-.056.15.014a.2.2 0 0 1 .016-.054l-.134-.069-.133-.068a.5.5 0 0 0-.048.162zm.032-.108.134.068.026-.052-.133-.068-.133-.069-.027.052zm.027-.052.133.068.027-.052-.133-.068-.134-.069-.026.052zm.027-.052.133.068a.33.33 0 0 0 .032-.202l-.148.023-.148.022a.03.03 0 0 1-.003.02zm.017-.111.148-.023-.009-.06-.148.023-.148.023.009.06zm-.009-.06.148-.023-.009-.059-.148.023-.148.022.009.06zm-.009-.06.148-.022a.2.2 0 0 1 0-.065l-.147-.027-.147-.028a.5.5 0 0 0-.002.165zm.001-.114.148.027.01-.055-.147-.028-.148-.027-.01.055zm.01-.056.148.028.01-.055-.147-.028-.148-.027-.01.055zm.01-.055.148.028.021-.108-.146-.03-.147-.03-.023.113zm.023-.11.146.03.012-.055-.147-.03-.147-.03-.011.054zm.011-.055.147.03.011-.055-.146-.03-.147-.031-.012.055zm.011-.055.147.03q.014-.06.021-.121l-.149-.02-.148-.02q-.007.05-.017.1zm.02-.111.148.02.008-.056-.149-.02-.149-.02-.007.056zm.007-.056.149.02.007-.056-.149-.02-.148-.02-.008.056zm.008-.056.148.02a.2.2 0 0 1 .015-.06l-.138-.058-.139-.058a.5.5 0 0 0-.035.136zm.025-.098.138.058.017-.041-.138-.058-.138-.058-.018.041zm.017-.041.138.058.018-.042-.139-.058-.138-.058-.017.042zm.017-.042.139.058.007-.017-.002.005-.01.012a.15.15 0 0 1-.143.048l.032-.147.031-.146a.15.15 0 0 0-.15.052l-.02.032-.022.045zm.023-.04-.032.146.005.001.032-.146.031-.147-.005-.001zm.005 0-.032.147.005.001.032-.146.031-.147-.005-.001zm.005.002-.032.146a.15.15 0 0 1-.074-.04l-.013-.016-.003-.004.015.03.136-.063.136-.064-.04-.072-.017-.022c-.003-.003-.03-.032-.077-.042zm.029.053-.136.063.024.053.136-.064.136-.063-.024-.053z"/><ellipse cx="11.935" cy="11.767" fill="var(--fill-0, white)" rx="3.561" ry="3.845"/><path fill="var(--stroke-0, white)" d="m15.48 12.333-.5-.014zm-.051.372.485.123zm-.093.369-.485-.123zm-.095.377.485.122zm-.097.386-.485-.122zm-.135.383-.455-.206zm-.172.38.455.207zm-.285.27-.184-.466zm-.2.078.184.465zm-.198.079.184.465zm-.416.062-.038.498zm-.216-.017-.038.498zm-.217-.017.038-.498zm-.344.228-.443-.231zm-.127.244-.443-.23zm-.127.244.443.232zm-.33.078-.318.386zm-.203-.167-.317.387zm-.203-.166.317-.386zm-.414-.052-.239-.44zm-.212.114.238.44zm-.535.008.446-.226zm-.224-.442-.446.226zm-.258-.312.263-.425zm-.292-.18-.264.425zm-.245-.233.412-.284zm-.196-.285-.411.283zm-.31-.224.18-.467zm-.426-.164-.179.467zm-.177-.293-.493-.083zM8.28 11.98l-.475-.154zm.089-.786-.457.203zm.073-.935-.31-.392zm.498-.414-.342-.365zm.137-.129.342.366zm.138-.128-.342-.365zm.238-.28-.416-.277zm.1-.152-.416-.277zm.332-.442-.367-.34zm.259-.279-.367-.34zm.276-.312-.381-.324zm.146-.172.38.324zm.147-.172-.381-.324zm1.199.148.105-.489zm1.493.195-.44.238zm.667.746.203-.457zm.172.077-.203.457zm.328.199-.311.392zm.309.245-.311.392zm.148.334.5.014zm-.006.211.5.014zm-.005.212-.5-.014zm.106.37.407-.29zm.225.316-.407.29zm.236.345-.418.275zm.247.375.417-.275zm.008.194.03.5zm-.114.007-.03-.499zm-.235.202.5.014zm-.005.189-.5-.014-.005.189.5.014.5.014.005-.19zm-.006.189-.5-.014a1.2 1.2 0 0 1-.036.264l.485.122.485.123q.06-.237.066-.481zm-.051.372-.485-.122-.046.184.484.123.485.122.047-.184zm-.047.185-.484-.123-.047.184.485.123.485.122.046-.184zm-.046.184-.485-.123-.095.378.485.122.485.122.095-.377zm-.095.377-.485-.122-.049.193.485.122.485.122.049-.193zm-.049.193-.485-.122-.048.193.485.122.485.122.048-.193zm-.048.193-.485-.122q-.038.147-.105.299l.455.206.456.206q.104-.228.164-.467zm-.135.383-.455-.206-.086.19.455.206.456.206.086-.19zm-.086.19-.455-.206-.087.19.456.207.455.206.087-.19zm-.086.19-.456-.206-.003.007.002-.002-.012.005.184.465.183.465a1 1 0 0 0 .557-.527zm-.285.27-.184-.466-.199.079.184.465.183.465.2-.079zm-.2.078-.183-.465-.199.078.184.466.184.465.198-.079zm-.198.079-.184-.466a.4.4 0 0 1-.194.029l-.038.498-.038.499q.33.025.638-.095zm-.416.062.038-.5-.216-.016-.038.499-.038.498.216.017zm-.216-.017.038-.499-.217-.016-.038.498-.038.499.217.016zm-.217-.017.038-.498a.8.8 0 0 0-.508.13.96.96 0 0 0-.317.365l.443.231.444.231c.016-.03.015-.015-.018.007a.2.2 0 0 1-.12.033zm-.344.228-.443-.231-.127.244.443.231.443.231.128-.244zm-.127.244-.443-.23-.128.243.444.231.443.232.127-.245zm-.127.244-.444-.23c-.016.03.028-.078.183-.115.165-.039.262.049.248.037l-.317.386-.318.386c.121.1.341.23.616.165.265-.063.407-.266.475-.397zm-.33.078.317-.386-.203-.167-.317.386-.317.387.202.166zm-.203-.167.317-.386-.203-.166-.317.386-.317.386.203.167zm-.203-.166.317-.386a.84.84 0 0 0-.97-.105l.239.439.238.44a.1.1 0 0 1-.03.01.2.2 0 0 1-.061.002c-.046-.006-.064-.024-.05-.014zm-.414-.052-.239-.44-.211.115.238.44.238.44.212-.115zm-.212.114-.238-.44-.211.115.238.44.238.44.211-.115zm-.211.115-.238-.44a.2.2 0 0 1 .057-.017.3.3 0 0 1 .15.013c.12.04.158.121.153.111l-.446.226-.446.226c.07.138.2.312.427.387a.73.73 0 0 0 .58-.066zm-.324-.107.446-.226-.112-.22-.446.225-.446.226.112.221zm-.112-.22.446-.227-.112-.22-.446.225-.446.226.112.221zm-.112-.222.446-.226a1.25 1.25 0 0 0-.44-.51l-.264.425-.263.425c-.008-.005.025.012.075.112zm-.258-.312.263-.425-.146-.09-.263.425-.263.425.146.09zm-.146-.09.263-.425-.146-.09-.263.425-.264.425.147.09zm-.146-.09.263-.426a.3.3 0 0 1-.096-.09l-.412.283-.412.283q.158.229.393.375zm-.245-.233.412-.284-.098-.142-.412.283-.412.284.098.142zm-.098-.143.412-.283-.098-.143-.412.284-.411.283.097.143zm-.098-.142.412-.284a1.14 1.14 0 0 0-.543-.407l-.18.467-.179.466c.078.03.086.052.079.041zm-.31-.224.18-.467-.214-.082-.179.467-.18.467.213.081zm-.213-.082.18-.467-.213-.082-.18.467-.179.467.213.082zm-.213-.082.18-.466.009.004.023.015a.3.3 0 0 1 .066.075.25.25 0 0 1 .038.161l-.493-.082-.493-.083a.75.75 0 0 0 .092.52.8.8 0 0 0 .4.323zm-.177-.293.493.082.036-.212-.493-.082-.493-.083-.036.212zm.036-.212.493.082.036-.212-.494-.083-.493-.082-.035.212zm.035-.213.494.083a.93.93 0 0 0-.225-.787l-.375.33-.376.331q.004.005 0-.001a.1.1 0 0 1-.01-.036v-.002zm-.106-.373.375-.33-.143-.162-.375.33-.375.33.142.162zm-.143-.162.375-.33L8.737 12l-.375.33-.376.33.143.162zm-.142-.162.375-.33c-.004-.004.012.012.02.049a.2.2 0 0 1 0 .084l-.477-.154-.475-.154c-.1.31-.019.608.181.836zm-.082-.351.476.154.062-.19-.476-.154-.476-.154-.061.19zm.062-.19.476.154.06-.19-.475-.154-.476-.154-.06.19zm.061-.19.476.154c.086-.265.05-.528-.053-.762l-.457.202-.457.203c.013.03.015.045.015.05v.001-.002zm-.034-.406.457-.203-.096-.216-.457.203-.457.203.096.216zm-.096-.216.457-.203-.096-.216-.457.202-.457.203.096.216zm-.096-.217.457-.202c0-.001.02.046.003.119a.2.2 0 0 1-.065.116l-.31-.392-.311-.392a.8.8 0 0 0-.288.439.8.8 0 0 0 .057.515zm.084-.359.31.392.18-.143-.31-.392-.31-.392-.18.143zm.18-.143.31.392.181-.143-.31-.391-.31-.393-.18.143zm.181-.143.31.393q.195-.154.35-.299l-.342-.365-.342-.365q-.12.111-.286.244zm.318-.271.341.365.138-.128-.342-.366-.341-.365-.138.129zm.137-.129.342.366.137-.129-.341-.365-.342-.365-.137.128zm.138-.128.341.365q.18-.167.313-.368l-.416-.277-.416-.277q-.068.1-.164.192zm.238-.28.416.277.101-.152-.416-.277-.417-.277-.1.152zm.1-.152.417.277.1-.151-.416-.277-.416-.277-.1.151zm.101-.15.417.276q.077-.117.18-.228l-.366-.34-.367-.34q-.156.168-.28.354zm.23-.292.367.34.13-.14-.367-.34-.366-.34-.13.14zm.13-.14.367.34.13-.139-.367-.34-.367-.34-.13.14zm.13-.139.366.34q.138-.149.29-.327l-.38-.325-.381-.324a9 9 0 0 1-.262.296zm.276-.312.38.325.147-.173-.38-.324-.382-.324-.146.172zm.146-.172.38.324.147-.172-.38-.324-.381-.324-.147.172zm.147-.172.38.324a.2.2 0 0 1-.081.046.2.2 0 0 1-.09.004l.154-.476.154-.476a.84.84 0 0 0-.488-.015.83.83 0 0 0-.41.269zm.363-.102-.153.476.217.07.153-.476.154-.476-.217-.07zm.217.07-.153.476.217.07.153-.476.154-.476-.217-.07zm.217.07-.153.476q.236.076.449.123l.106-.49.105-.488a4 4 0 0 1-.353-.097zm.402.11-.106.489.184.04.106-.49.105-.488-.184-.04zm.184.04-.106.488.184.04.106-.489.106-.488-.185-.04zm.184.04-.106.488q.283.058.571.015l-.072-.494-.073-.495a.6.6 0 0 1-.214-.003zm.393.009.072.494.209-.03-.073-.495-.072-.495-.209.031zm.208-.03.073.494.208-.03-.072-.495-.072-.495-.209.03zm.209-.031.072.495a.2.2 0 0 1-.123-.027c-.055-.029-.074-.065-.073-.063l.44-.238.439-.238a.83.83 0 0 0-.338-.345.8.8 0 0 0-.49-.079zm.315.167-.44.238.107.197.44-.238.44-.238-.107-.197zm.107.197-.44.238.107.198.44-.238.44-.238-.107-.198zm.107.198-.44.238c.114.21.283.39.517.493l.203-.457.203-.457q-.001.001-.01-.007a.2.2 0 0 1-.033-.048zm.28.274-.203.457.172.077.204-.457.203-.457-.173-.077zm.173.077-.203.457.172.077.203-.457.204-.457-.173-.077zm.172.077-.203.457q.113.049.22.134l.31-.392.311-.392a2 2 0 0 0-.434-.264zm.328.199-.311.392.155.122.31-.392.31-.391-.154-.123zm.154.122-.31.392.154.123.31-.392.311-.392-.154-.122zm.154.123-.31.392a.1.1 0 0 1-.032-.044c-.01-.023-.008-.036-.009-.028l.5.014.5.014a.89.89 0 0 0-.338-.74zm.15.334-.5-.014-.006.212.5.013.5.014.005-.211zm-.007.211-.5-.013-.005.211.5.014.5.014.005-.212zm-.005.212-.5-.014c-.007.24.055.471.199.673l.407-.29.407-.29c-.006-.008-.015-.022-.014-.065zm.106.37-.407.29.112.158.408-.29.407-.29-.113-.158zm.113.158-.408.29.113.158.407-.29.408-.29-.113-.158zm.112.158-.407.29q.106.15.225.33l.418-.275.418-.275q-.127-.194-.246-.36zm.236.345-.418.275.124.188.417-.275.418-.275-.123-.188zm.123.188-.417.274.123.188.418-.275.417-.275-.123-.187zm.124.187-.418.275q.016.026.008.012c-.001-.003-.023-.049-.026-.122a.455.455 0 0 1 .415-.47l.03.5.029.498a.545.545 0 0 0 .525-.573.7.7 0 0 0-.06-.242 1 1 0 0 0-.086-.153zm.008.194-.03-.499-.114.007.03.5.03.498.114-.007zm-.114.007-.03-.499-.114.007.029.499.03.5.114-.008zm-.115.007-.03-.5a.6.6 0 0 0-.483.29.8.8 0 0 0-.107.391l.5.014.5.014c0-.025.005.03-.041.105a.4.4 0 0 1-.31.185zm-.12.195-.5-.014-.005.19.5.013.5.014.005-.189z"/></svg>