<svg preserveAspectRatio="none" width="100%" height="100%" overflow="visible" style="display: block;" viewBox="0 0 28.1336 40.7508" fill="none" xmlns="http://www.w3.org/2000/svg">
<g id="Group 18">
<g id="Union">
<path d="M13.2268 1.00343C13.7007 1.01173 13.9563 1.02491 14.4358 1.02491C17.3194 1.0251 20.7791 2.05164 23.3928 5.438C25.1072 7.65931 25.8852 10.2696 26.3079 12.3843C26.7334 14.5133 26.8961 16.7108 27.0305 18.187C27.2118 20.1766 27.1887 23.2015 26.677 26.3482C26.1786 29.4132 25.1213 33.2023 22.803 36.2134C21.8796 37.4126 20.4062 38.4866 18.7493 39.1177C16.9526 39.8019 14.5093 40.1214 11.93 39.0835C10.9339 38.6826 10.24 38.4291 9.68093 38.2232C9.22554 38.0554 8.50027 37.7964 7.84695 37.4478C6.15459 36.5445 5.14593 35.097 4.57546 34.395C3.12851 32.6146 2.09727 29.846 1.53347 26.8823C0.935481 23.7388 0.755842 19.832 1.43679 15.4204C1.487 15.0952 1.56957 14.7823 1.67703 14.4839C1.68257 14.2152 1.70852 13.9433 1.75906 13.6704C2.13584 11.6364 2.86162 9.31446 3.91824 7.03273C4.49559 5.78603 5.22836 4.54933 6.43386 3.59132C6.98282 3.15513 7.50854 2.88292 7.63796 2.813C7.64079 2.81153 7.64413 2.81051 7.64675 2.80909C8.63646 2.07574 9.85083 1.33582 11.5198 1.09132C12.2154 0.989471 12.8484 0.996806 13.2268 1.00343Z" fill="var(--fill-0, #FFFEEF)"/>
<path d="M13.2268 1.00343L13.2444 0.00358335L13.2443 0.00358305L13.2268 1.00343ZM14.4358 1.02491L14.4359 0.0249142H14.4358L14.4358 1.02491ZM23.3928 5.438L24.1845 4.82703L24.1845 4.827L23.3928 5.438ZM26.3079 12.3843L27.2885 12.1883V12.1883L26.3079 12.3843ZM27.0305 18.187L26.0347 18.2777V18.2778L27.0305 18.187ZM26.677 26.3482L27.6641 26.5087L27.6641 26.5087L26.677 26.3482ZM22.803 36.2134L23.5953 36.8235L23.5954 36.8234L22.803 36.2134ZM18.7493 39.1177L19.1052 40.0522L19.1052 40.0522L18.7493 39.1177ZM11.93 39.0835L11.5566 40.0112L11.5566 40.0112L11.93 39.0835ZM9.68093 38.2232L9.33527 39.1615L9.33527 39.1615L9.68093 38.2232ZM7.84695 37.4478L7.3761 38.33L7.3762 38.33L7.84695 37.4478ZM4.57546 34.395L5.35153 33.7644L5.35149 33.7643L4.57546 34.395ZM1.53347 26.8823L0.551089 27.0692L0.55109 27.0692L1.53347 26.8823ZM1.43679 15.4204L0.448502 15.2678L0.448496 15.2679L1.43679 15.4204ZM1.67703 14.4839L2.61788 14.8227L2.67344 14.6684L2.67681 14.5045L1.67703 14.4839ZM1.75906 13.6704L0.775785 13.4883L0.775776 13.4883L1.75906 13.6704ZM3.91824 7.03273L3.01082 6.6125L3.01081 6.61252L3.91824 7.03273ZM6.43386 3.59132L5.81176 2.80839L5.8117 2.80843L6.43386 3.59132ZM7.63796 2.813L7.17591 1.92615L7.16924 1.92962L7.16262 1.9332L7.63796 2.813ZM7.64675 2.80909L8.12318 3.68831L8.18532 3.65464L8.24211 3.61256L7.64675 2.80909ZM11.5198 1.09132L11.3749 0.101871L11.3749 0.101881L11.5198 1.09132ZM13.2268 1.00343L13.2093 2.00328C13.6523 2.01104 13.9475 2.02491 14.4358 2.02491L14.4358 1.02491L14.4358 0.0249142C13.9651 0.0249086 13.7492 0.0124287 13.2444 0.00358335L13.2268 1.00343ZM14.4358 1.02491L14.4358 2.02491C17.0776 2.02508 20.2149 2.95721 22.6012 6.04901L23.3928 5.438L24.1845 4.827C21.3434 1.14606 17.5613 0.0251124 14.4359 0.0249142L14.4358 1.02491ZM23.3928 5.438L22.6012 6.04897C24.1786 8.09288 24.9172 10.5283 25.3273 12.5803L26.3079 12.3843L27.2885 12.1883C26.8533 10.0109 26.0357 7.22574 24.1845 4.82703L23.3928 5.438ZM26.3079 12.3843L25.3273 12.5803C25.7398 14.6442 25.898 16.7776 26.0347 18.2777L27.0305 18.187L28.0264 18.0963C27.8941 16.644 27.727 14.3823 27.2885 12.1883L26.3079 12.3843ZM27.0305 18.187L26.0347 18.2778C26.2085 20.1856 26.1878 23.126 25.69 26.1877L26.677 26.3482L27.6641 26.5087C28.1896 23.277 28.2151 20.1676 28.0264 18.0963L27.0305 18.187ZM26.677 26.3482L25.69 26.1876C25.2028 29.1836 24.1821 32.7829 22.0106 35.6033L22.803 36.2134L23.5954 36.8234C26.0605 33.6216 27.1544 29.6428 27.6641 26.5087L26.677 26.3482ZM22.803 36.2134L22.0107 35.6033C21.2126 36.6397 19.8981 37.6101 18.3934 38.1832L18.7493 39.1177L19.1052 40.0522C20.9143 39.3632 22.5466 38.1855 23.5953 36.8235L22.803 36.2134ZM18.7493 39.1177L18.3934 38.1832C16.7755 38.7993 14.5985 39.0794 12.3033 38.1558L11.93 39.0835L11.5566 40.0112C14.4201 41.1635 17.1297 40.8045 19.1052 40.0522L18.7493 39.1177ZM11.93 39.0835L12.3033 38.1558C11.2922 37.7489 10.5861 37.4909 10.0266 37.2848L9.68093 38.2232L9.33527 39.1615C9.89402 39.3673 10.5756 39.6164 11.5566 40.0112L11.93 39.0835ZM9.68093 38.2232L10.0266 37.2848C9.55442 37.1109 8.89855 36.8754 8.3177 36.5655L7.84695 37.4478L7.3762 38.33C8.10198 38.7173 8.89666 38.9999 9.33527 39.1615L9.68093 38.2232ZM7.84695 37.4478L8.31779 36.5655C6.84433 35.7792 5.97283 34.5289 5.35153 33.7644L4.57546 34.395L3.7994 35.0257C4.31902 35.6651 5.46485 37.3099 7.3761 38.33L7.84695 37.4478ZM4.57546 34.395L5.35149 33.7643C4.05353 32.1673 3.0653 29.5837 2.51585 26.6955L1.53347 26.8823L0.55109 27.0692C1.12923 30.1084 2.20349 33.062 3.79943 35.0257L4.57546 34.395ZM1.53347 26.8823L2.51586 26.6955C1.93902 23.6632 1.76164 19.8711 2.42509 15.573L1.43679 15.4204L0.448496 15.2679C-0.249958 19.7928 -0.068062 23.8145 0.551089 27.0692L1.53347 26.8823ZM1.43679 15.4204L2.42508 15.573C2.46481 15.3157 2.5306 15.0651 2.61788 14.8227L1.67703 14.4839L0.736172 14.1451C0.60854 14.4995 0.50919 14.8748 0.448502 15.2678L1.43679 15.4204ZM1.67703 14.4839L2.67681 14.5045C2.68131 14.2863 2.70232 14.0686 2.74234 13.8525L1.75906 13.6704L0.775776 13.4883C0.714726 13.818 0.683819 14.144 0.677239 14.4633L1.67703 14.4839ZM1.75906 13.6704L2.74233 13.8526C3.10313 11.9048 3.80242 9.66262 4.82567 7.45293L3.91824 7.03273L3.01081 6.61252C1.92083 8.96631 1.16854 11.368 0.775785 13.4883L1.75906 13.6704ZM3.91824 7.03273L4.82566 7.45296C5.37607 6.26442 6.0284 5.19085 7.05602 4.37421L6.43386 3.59132L5.8117 2.80843C4.42831 3.9078 3.61511 5.30763 3.01082 6.6125L3.91824 7.03273ZM6.43386 3.59132L7.05597 4.37425C7.52792 3.99924 7.98182 3.76384 8.11331 3.6928L7.63796 2.813L7.16262 1.9332C7.03527 2.00201 6.43771 2.31102 5.81176 2.80839L6.43386 3.59132ZM7.63796 2.813L8.10002 3.69985C8.08553 3.7074 8.07271 3.71362 8.06224 3.71851C8.05178 3.72339 8.04288 3.72732 8.03628 3.73017C8.02973 3.73299 8.02452 3.73515 8.02171 3.73631C8.01928 3.73731 8.017 3.73823 8.01828 3.73771C8.01858 3.73759 8.02201 3.7362 8.0261 3.73451C8.03042 3.73272 8.03728 3.72985 8.04561 3.7262C8.05397 3.72254 8.06492 3.71762 8.07761 3.71154C8.0903 3.70547 8.10578 3.69774 8.12318 3.68831L7.64675 2.80909L7.17033 1.92988C7.18707 1.92081 7.20187 1.91342 7.21387 1.90767C7.22586 1.90193 7.2361 1.89733 7.24374 1.89399C7.25134 1.89066 7.25746 1.8881 7.26103 1.88662C7.26438 1.88524 7.26705 1.88416 7.26659 1.88435C7.26657 1.88436 7.26656 1.88436 7.26648 1.88439C7.26643 1.88441 7.26632 1.88445 7.26621 1.8845C7.26598 1.88459 7.26559 1.88475 7.26513 1.88494C7.26422 1.88531 7.26272 1.88592 7.26089 1.88667C7.25731 1.88814 7.25135 1.89062 7.24404 1.89377C7.23669 1.89694 7.22705 1.9012 7.21585 1.90643C7.20465 1.91166 7.19111 1.91823 7.17591 1.92615L7.63796 2.813ZM7.64675 2.80909L8.24211 3.61256C9.17134 2.92401 10.2292 2.29107 11.6647 2.08076L11.5198 1.09132L11.3749 0.101881C9.4725 0.380568 8.10158 1.22746 7.0514 2.00563L7.64675 2.80909ZM11.5198 1.09132L11.6647 2.08077C12.2745 1.99148 12.8386 1.99679 13.2093 2.00328L13.2268 1.00343L13.2443 0.00358305C12.8583 -0.00317534 12.1563 -0.0125372 11.3749 0.101871L11.5198 1.09132Z" fill="var(--stroke-0, #F4C280)"/>
</g>
<ellipse id="Ellipse 20" cx="16.6824" cy="18.1751" rx="7.12151" ry="11.534" fill="var(--fill-0, #424242)"/>
<g id="Star 4">
<path d="M12.8248 23.9421L13.1579 25.4917H14.2358L13.3637 26.4495L13.6968 27.9992L12.8248 27.0414L11.9527 27.9992L12.2858 26.4495L11.4137 25.4917H12.4917L12.8248 23.9421Z" fill="var(--fill-0, white)"/>
<path d="M12.8735 24.0466L12.7376 24.11L12.8735 24.0466ZM12.8979 24.0989L13.0338 24.0356L12.8979 24.0989ZM12.9248 24.2082L12.775 24.2149L12.9248 24.2082ZM12.9274 24.2652L13.0772 24.2585L12.9274 24.2652ZM12.9299 24.3222L12.7801 24.3289L12.9299 24.3222ZM12.9502 24.4329L13.0927 24.3859L12.9502 24.4329ZM12.9679 24.4866L12.8254 24.5336L12.9679 24.4866ZM12.9856 24.5404L12.8432 24.5873L12.9856 24.5404ZM13.0101 24.6502L12.8612 24.6682L13.0101 24.6502ZM13.0237 24.7623L13.1726 24.7443L13.0237 24.7623ZM13.0249 24.8771L12.8756 24.8629L13.0249 24.8771ZM13.0138 24.9946L12.8644 24.9804L13.0138 24.9946ZM13.0234 25.1076L13.1678 25.067V25.067L13.0234 25.1076ZM13.0539 25.2161L12.9095 25.2567V25.2567L13.0539 25.2161ZM13.0867 25.3241L12.944 25.3705L13.0867 25.3241ZM13.1976 25.495L13.1735 25.643L13.1976 25.495ZM13.429 25.4957L13.3627 25.3612L13.429 25.4957ZM13.4853 25.468L13.4189 25.3335L13.4853 25.468ZM13.5415 25.4402L13.6079 25.5748L13.5415 25.4402ZM13.7665 25.4851L13.7072 25.6229L13.7665 25.4851ZM13.879 25.5155L13.8954 25.3664L13.879 25.5155ZM13.9353 25.5217L13.9189 25.6708L13.9353 25.5217ZM13.9915 25.5279L13.9751 25.677L13.9915 25.5279ZM14.088 25.5299L14.1037 25.679L14.088 25.5299ZM14.1283 25.5256L14.1439 25.6748L14.1283 25.5256ZM14.1685 25.5214L14.1529 25.3722L14.1685 25.5214ZM14.1728 25.5605L14.0574 25.4647L14.1728 25.5605ZM14.1369 25.6038L14.2523 25.6996L14.1369 25.6038ZM14.0322 25.7367L13.9098 25.6499L14.0322 25.7367ZM13.9994 25.7829L14.1217 25.8697L13.9994 25.7829ZM13.9666 25.8292L14.0889 25.916L13.9666 25.8292ZM13.8761 25.8989L13.8195 25.7599L13.8761 25.8989ZM13.7606 25.9459L13.8171 26.0848L13.7606 25.9459ZM13.6921 26.0357L13.544 26.0119L13.6921 26.0357ZM13.6708 26.1684L13.8189 26.1922L13.6708 26.1684ZM13.5664 26.3016L13.6535 26.4237L13.5664 26.3016ZM13.5196 26.335L13.4325 26.2129L13.5196 26.335ZM13.4699 26.4069L13.3203 26.3958L13.4699 26.4069ZM13.467 26.4454L13.6166 26.4565L13.467 26.4454ZM13.4642 26.4838L13.3146 26.4727L13.4642 26.4838ZM13.4704 26.5779L13.6184 26.5538L13.4704 26.5779ZM13.4885 26.6891L13.3404 26.7132L13.4885 26.6891ZM13.5016 26.8013L13.6512 26.7906V26.7906L13.5016 26.8013ZM13.5056 26.858L13.356 26.8687L13.5056 26.858ZM13.5097 26.9146L13.6593 26.904L13.5097 26.9146ZM13.4947 27.0329L13.638 27.0772L13.4947 27.0329ZM13.4567 27.1562L13.3133 27.1119L13.4567 27.1562ZM13.4679 27.2688L13.5969 27.1923V27.1923L13.4679 27.2688ZM13.5285 27.3709L13.3995 27.4474V27.4474L13.5285 27.3709ZM13.5829 27.4743L13.4467 27.5371L13.5829 27.4743ZM13.6312 27.5789L13.7674 27.5161L13.6312 27.5789ZM13.6718 27.6853L13.5282 27.7288L13.6718 27.6853ZM13.7045 27.7933L13.848 27.7498L13.7045 27.7933ZM13.7007 27.8706L13.814 27.9689L13.7007 27.8706ZM13.6805 27.8939L13.5671 27.7956L13.6805 27.8939ZM13.6603 27.9172L13.547 27.8189L13.6603 27.9172ZM13.6153 27.887L13.7515 27.824L13.6153 27.887ZM13.5658 27.7799L13.4297 27.8429L13.5658 27.7799ZM13.4806 27.7053L13.5299 27.5637L13.4806 27.7053ZM13.3597 27.6632L13.3104 27.8049L13.3597 27.6632ZM13.2799 27.5838L13.1376 27.631L13.2799 27.5838ZM13.2412 27.4669L13.3835 27.4197L13.2412 27.4669ZM13.1823 27.3683L13.0754 27.4735L13.1823 27.3683ZM13.1428 27.3282L13.2498 27.223L13.1428 27.3282ZM13.1034 27.2881L12.9964 27.3933L13.1034 27.2881ZM13.006 27.2246L12.9498 27.3637L13.006 27.2246ZM12.9481 27.2012L12.892 27.3403L12.9481 27.2012ZM12.8903 27.1778L12.9464 27.0387L12.8903 27.1778ZM12.8085 27.1522L12.7946 27.3016L12.8085 27.1522ZM12.7606 27.1478L12.7745 26.9984L12.7606 27.1478ZM12.6907 27.1798L12.7803 27.3001L12.6907 27.1798ZM12.5129 27.3222L12.4071 27.2158L12.5129 27.3222ZM12.4729 27.3619L12.5787 27.4683L12.4729 27.3619ZM12.433 27.4016L12.5387 27.508L12.433 27.4016ZM12.3604 27.4876L12.4829 27.5741L12.3604 27.4876ZM12.295 27.5802L12.1724 27.4937L12.295 27.5802ZM12.2106 27.8076L12.0663 27.7664L12.2106 27.8076ZM12.1307 27.887L12.1743 28.0306L12.1307 27.887ZM12.0054 27.9251L11.9618 27.7816L12.0054 27.9251ZM11.964 27.9131L12.0877 27.9979L11.964 27.9131ZM11.9853 27.8821L12.109 27.9669L11.9853 27.8821ZM12.0065 27.851L12.1303 27.9358L12.0065 27.851ZM12.0371 27.7644L11.8892 27.7397L12.0371 27.7644ZM12.0714 27.5417L12.2205 27.5585L12.0714 27.5417ZM12.0778 27.4855L11.9287 27.4686L12.0778 27.4855ZM12.0841 27.4293L12.2332 27.4462L12.0841 27.4293ZM12.1487 27.2131L12.0078 27.1618L12.1487 27.2131ZM12.1544 27.0992L12.3007 27.0659L12.1544 27.0992ZM12.1268 26.9782L11.9806 27.0115L12.1268 26.9782ZM12.1544 26.8691L12.0401 26.772L12.1544 26.8691ZM12.237 26.7718L12.3514 26.8689L12.237 26.7718ZM12.279 26.6657L12.129 26.6641L12.279 26.6657ZM12.2796 26.6083L12.4296 26.6099L12.2796 26.6083ZM12.2802 26.5509L12.1302 26.5493L12.2802 26.5509ZM12.2594 26.442L12.3979 26.3844L12.2594 26.442ZM12.2166 26.3389L12.0781 26.3964L12.2166 26.3389ZM12.1581 26.245L12.0453 26.3439L12.1581 26.245ZM12.121 26.2027L12.0082 26.3016L12.121 26.2027ZM12.0839 26.1604L12.1968 26.0615L12.0839 26.1604ZM11.9951 26.0891L11.9219 26.22L11.9951 26.0891ZM11.8916 26.0312L11.8184 26.1621L11.8916 26.0312ZM11.8003 25.9622L11.6936 26.0677L11.8003 25.9622ZM11.7211 25.8822L11.6144 25.9877L11.7211 25.8822ZM11.652 25.793L11.5234 25.8702L11.652 25.793ZM11.5929 25.6946L11.4643 25.7718L11.5929 25.6946ZM11.5286 25.598L11.4076 25.6867L11.5286 25.598ZM11.4591 25.5031L11.5801 25.4145L11.4591 25.5031ZM11.4806 25.4582L11.4739 25.6081L11.4806 25.4582ZM11.5931 25.4632L11.5997 25.3133L11.5931 25.4632ZM11.7056 25.4814L11.746 25.337L11.7056 25.4814ZM12.1556 25.4955L12.0923 25.6315L12.1556 25.4955ZM12.2118 25.5216L12.1486 25.6576L12.2118 25.5216ZM12.2681 25.5478L12.3313 25.4118L12.2681 25.5478ZM12.3749 25.5405L12.4576 25.6657L12.3749 25.5405ZM12.476 25.4737L12.3933 25.3486L12.476 25.4737ZM12.5319 25.3839L12.6813 25.3981L12.5319 25.3839ZM12.5427 25.2711L12.692 25.2853L12.5427 25.2711ZM12.5746 25.1629L12.4412 25.0943L12.5746 25.1629ZM12.6013 25.1111L12.7347 25.1797L12.6013 25.1111ZM12.6286 24.7142L12.776 24.7417L12.6286 24.7142ZM12.6491 24.6036L12.5017 24.5761L12.6491 24.6036ZM12.6709 24.4932L12.524 24.4626L12.6709 24.4932ZM12.6938 24.383L12.5469 24.3525L12.6938 24.383ZM12.7128 24.272L12.5641 24.2521L12.7128 24.272ZM12.7278 24.1602L12.8765 24.1802L12.7278 24.1602ZM12.7528 24.0627L12.6145 24.0046L12.7528 24.0627ZM12.7702 24.0211L12.9086 24.0791L12.7702 24.0211ZM12.7877 23.9795L12.926 24.0375L12.7877 23.9795ZM12.8101 23.9389L12.7785 24.0855L12.8101 23.9389ZM12.8199 23.941L12.8514 23.7944L12.8199 23.941ZM12.8491 23.9944L12.7132 24.0577L12.8491 23.9944ZM12.8735 24.0466L12.7376 24.11L12.7619 24.1623L12.8979 24.0989L13.0338 24.0356L13.0095 23.9833L12.8735 24.0466ZM12.8979 24.0989L12.7619 24.1623C12.77 24.1796 12.7742 24.1968 12.775 24.2149L12.9248 24.2082L13.0747 24.2015C13.0721 24.1437 13.0583 24.088 13.0338 24.0356L12.8979 24.0989ZM12.9248 24.2082L12.775 24.2149L12.7775 24.2719L12.9274 24.2652L13.0772 24.2585L13.0747 24.2015L12.9248 24.2082ZM12.9274 24.2652L12.7775 24.2719L12.7801 24.3289L12.9299 24.3222L13.0798 24.3155L13.0772 24.2585L12.9274 24.2652ZM12.9299 24.3222L12.7801 24.3289C12.7824 24.3805 12.7916 24.4309 12.8077 24.4799L12.9502 24.4329L13.0927 24.3859C13.0852 24.3633 13.0809 24.3399 13.0798 24.3155L12.9299 24.3222ZM12.9502 24.4329L12.8077 24.4799L12.8254 24.5336L12.9679 24.4866L13.1104 24.4397L13.0927 24.3859L12.9502 24.4329ZM12.9679 24.4866L12.8254 24.5336L12.8432 24.5873L12.9856 24.5404L13.1281 24.4934L13.1104 24.4397L12.9679 24.4866ZM12.9856 24.5404L12.8432 24.5873C12.8519 24.6138 12.8579 24.6407 12.8612 24.6682L13.0101 24.6502L13.159 24.6321C13.1533 24.5849 13.143 24.5386 13.1281 24.4934L12.9856 24.5404ZM13.0101 24.6502L12.8612 24.6682L12.868 24.7243L13.0169 24.7062L13.1658 24.6882L13.159 24.6321L13.0101 24.6502ZM13.0169 24.7062L12.868 24.7243L12.8748 24.7804L13.0237 24.7623L13.1726 24.7443L13.1658 24.6882L13.0169 24.7062ZM13.0237 24.7623L12.8748 24.7804C12.878 24.8066 12.8783 24.834 12.8756 24.8629L13.0249 24.8771L13.1742 24.8913C13.1789 24.8419 13.1785 24.7928 13.1726 24.7443L13.0237 24.7623ZM13.0249 24.8771L12.8756 24.8629L12.87 24.9217L13.0193 24.9359L13.1687 24.95L13.1742 24.8913L13.0249 24.8771ZM13.0193 24.9359L12.87 24.9217L12.8644 24.9804L13.0138 24.9946L13.1631 25.0088L13.1687 24.95L13.0193 24.9359ZM13.0138 24.9946L12.8644 24.9804C12.859 25.0371 12.8636 25.0934 12.879 25.1482L13.0234 25.1076L13.1678 25.067C13.1629 25.0494 13.161 25.0304 13.1631 25.0088L13.0138 24.9946ZM13.0234 25.1076L12.879 25.1482L12.8943 25.2024L13.0387 25.1618L13.1831 25.1212L13.1678 25.067L13.0234 25.1076ZM13.0387 25.1618L12.8943 25.2024L12.9095 25.2567L13.0539 25.2161L13.1983 25.1755L13.1831 25.1212L13.0387 25.1618ZM13.0539 25.2161L12.9095 25.2567C12.9203 25.2948 12.9318 25.3328 12.944 25.3705L13.0867 25.3241L13.2293 25.2777C13.2183 25.2438 13.208 25.2097 13.1983 25.1755L13.0539 25.2161ZM13.0867 25.3241L12.944 25.3705L12.9615 25.4243L13.1042 25.3779L13.2468 25.3315L13.2293 25.2777L13.0867 25.3241ZM13.1042 25.3779L12.9615 25.4243L12.979 25.4781L13.1217 25.4317L13.2643 25.3853L13.2468 25.3315L13.1042 25.3779ZM13.1217 25.4317L12.979 25.4781C12.9923 25.5189 13.016 25.5585 13.0533 25.5896C13.0903 25.6204 13.1328 25.6364 13.1735 25.643L13.1976 25.495L13.2217 25.3469C13.2234 25.3472 13.2337 25.3494 13.2454 25.3592C13.2575 25.3692 13.2627 25.3803 13.2643 25.3853L13.1217 25.4317ZM13.1976 25.495L13.1735 25.643L13.2319 25.6525L13.256 25.5045L13.2801 25.3564L13.2217 25.3469L13.1976 25.495ZM13.256 25.5045L13.2319 25.6525L13.2903 25.662L13.3144 25.514L13.3385 25.3659L13.2801 25.3564L13.256 25.5045ZM13.3144 25.514L13.2903 25.662C13.3619 25.6737 13.4317 25.6617 13.4954 25.6303L13.429 25.4957L13.3627 25.3612C13.3514 25.3668 13.3447 25.3669 13.3385 25.3659L13.3144 25.514ZM13.429 25.4957L13.4954 25.6303L13.5516 25.6025L13.4853 25.468L13.4189 25.3335L13.3627 25.3612L13.429 25.4957ZM13.4853 25.468L13.5516 25.6025L13.6079 25.5748L13.5415 25.4402L13.4752 25.3057L13.4189 25.3335L13.4853 25.468ZM13.5415 25.4402L13.6079 25.5748C13.6096 25.5739 13.6075 25.5752 13.6025 25.5754C13.5974 25.5756 13.5944 25.5743 13.5947 25.5745L13.654 25.4367L13.7133 25.2989C13.6344 25.2649 13.551 25.2683 13.4752 25.3057L13.5415 25.4402ZM13.654 25.4367L13.5947 25.5745L13.651 25.5987L13.7103 25.4609L13.7696 25.3231L13.7133 25.2989L13.654 25.4367ZM13.7103 25.4609L13.651 25.5987L13.7072 25.6229L13.7665 25.4851L13.8258 25.3474L13.7696 25.3231L13.7103 25.4609ZM13.7665 25.4851L13.7072 25.6229C13.7573 25.6445 13.8092 25.6588 13.8626 25.6646L13.879 25.5155L13.8954 25.3664C13.8739 25.3641 13.8508 25.3581 13.8258 25.3474L13.7665 25.4851ZM13.879 25.5155L13.8626 25.6646L13.9189 25.6708L13.9353 25.5217L13.9517 25.3726L13.8954 25.3664L13.879 25.5155ZM13.9353 25.5217L13.9189 25.6708L13.9751 25.677L13.9915 25.5279L14.0079 25.3788L13.9517 25.3726L13.9353 25.5217ZM13.9915 25.5279L13.9751 25.677C14.0194 25.6819 14.0629 25.6833 14.1037 25.679L14.088 25.5299L14.0724 25.3807C14.0595 25.382 14.0386 25.3822 14.0079 25.3788L13.9915 25.5279ZM14.088 25.5299L14.1037 25.679L14.1439 25.6748L14.1283 25.5256L14.1126 25.3764L14.0724 25.3807L14.088 25.5299ZM14.1283 25.5256L14.1439 25.6748L14.1842 25.6706L14.1685 25.5214L14.1529 25.3722L14.1126 25.3764L14.1283 25.5256ZM14.1685 25.5214L14.1842 25.6706C14.1836 25.6707 14.1615 25.6737 14.1329 25.6633C14.1165 25.6574 14.0939 25.6455 14.0742 25.6226C14.0536 25.5986 14.0434 25.5708 14.0406 25.5454C14.0359 25.5026 14.0526 25.4734 14.054 25.4708C14.0578 25.4637 14.0602 25.4613 14.0574 25.4647L14.1728 25.5605L14.2883 25.6563C14.2974 25.6453 14.3087 25.6304 14.3182 25.6129C14.3252 25.5998 14.3443 25.5621 14.3389 25.5127C14.3357 25.4841 14.3244 25.4536 14.3019 25.4273C14.2802 25.402 14.2549 25.3884 14.2349 25.3812C14.1993 25.3683 14.167 25.3708 14.1529 25.3722L14.1685 25.5214ZM14.1728 25.5605L14.0574 25.4647L14.0215 25.508L14.1369 25.6038L14.2523 25.6996L14.2883 25.6563L14.1728 25.5605ZM14.1369 25.6038L14.0215 25.508L13.9855 25.5514L14.1009 25.6472L14.2163 25.743L14.2523 25.6996L14.1369 25.6038ZM14.1009 25.6472L13.9855 25.5514C13.9591 25.5832 13.9339 25.6161 13.9098 25.6499L14.0322 25.7367L14.1545 25.8235C14.1742 25.7958 14.1948 25.7689 14.2163 25.743L14.1009 25.6472ZM14.0322 25.7367L13.9098 25.6499L13.877 25.6962L13.9994 25.7829L14.1217 25.8697L14.1545 25.8235L14.0322 25.7367ZM13.9994 25.7829L13.877 25.6962L13.8442 25.7424L13.9666 25.8292L14.0889 25.916L14.1217 25.8697L13.9994 25.7829ZM13.9666 25.8292L13.8442 25.7424C13.8406 25.7476 13.8343 25.7539 13.8195 25.7599L13.8761 25.8989L13.9326 26.0378C13.9948 26.0125 14.0489 25.9724 14.0889 25.916L13.9666 25.8292ZM13.8761 25.8989L13.8195 25.7599L13.7618 25.7834L13.8183 25.9224L13.8748 26.0613L13.9326 26.0378L13.8761 25.8989ZM13.8183 25.9224L13.7618 25.7834L13.704 25.8069L13.7606 25.9459L13.8171 26.0848L13.8748 26.0613L13.8183 25.9224ZM13.7606 25.9459L13.704 25.8069C13.6126 25.8441 13.5587 25.9208 13.544 26.0119L13.6921 26.0357L13.8402 26.0595C13.8406 26.0572 13.8401 26.0629 13.8339 26.0709C13.8274 26.0795 13.82 26.0836 13.8171 26.0848L13.7606 25.9459ZM13.6921 26.0357L13.544 26.0119L13.5334 26.0782L13.6815 26.1021L13.8296 26.1259L13.8402 26.0595L13.6921 26.0357ZM13.6815 26.1021L13.5334 26.0782L13.5227 26.1446L13.6708 26.1684L13.8189 26.1922L13.8296 26.1259L13.6815 26.1021ZM13.6708 26.1684L13.5227 26.1446C13.5216 26.1517 13.5202 26.1532 13.5211 26.1516C13.5223 26.1497 13.5243 26.1474 13.5262 26.1461L13.6133 26.2682L13.7004 26.3903C13.7698 26.3408 13.8066 26.2689 13.8189 26.1922L13.6708 26.1684ZM13.6133 26.2682L13.5262 26.1461L13.4793 26.1795L13.5664 26.3016L13.6535 26.4237L13.7004 26.3903L13.6133 26.2682ZM13.5664 26.3016L13.4793 26.1795L13.4325 26.2129L13.5196 26.335L13.6067 26.4571L13.6535 26.4237L13.5664 26.3016ZM13.5196 26.335L13.4325 26.2129C13.3832 26.2481 13.3269 26.3074 13.3203 26.3958L13.4699 26.4069L13.6195 26.418C13.6182 26.4352 13.612 26.448 13.6071 26.455C13.603 26.461 13.601 26.4612 13.6067 26.4571L13.5196 26.335ZM13.4699 26.4069L13.3203 26.3958L13.3175 26.4343L13.467 26.4454L13.6166 26.4565L13.6195 26.418L13.4699 26.4069ZM13.467 26.4454L13.3175 26.4343L13.3146 26.4727L13.4642 26.4838L13.6138 26.4949L13.6166 26.4565L13.467 26.4454ZM13.4642 26.4838L13.3146 26.4727C13.3115 26.5142 13.3152 26.5581 13.3223 26.602L13.4704 26.5779L13.6184 26.5538C13.6135 26.5235 13.613 26.5048 13.6138 26.4949L13.4642 26.4838ZM13.4704 26.5779L13.3223 26.602L13.3314 26.6576L13.4794 26.6335L13.6275 26.6094L13.6184 26.5538L13.4704 26.5779ZM13.4794 26.6335L13.3314 26.6576L13.3404 26.7132L13.4885 26.6891L13.6365 26.665L13.6275 26.6094L13.4794 26.6335ZM13.4885 26.6891L13.3404 26.7132C13.3457 26.7457 13.3496 26.7787 13.352 26.812L13.5016 26.8013L13.6512 26.7906C13.6482 26.7484 13.6433 26.7065 13.6365 26.665L13.4885 26.6891ZM13.5016 26.8013L13.352 26.812L13.356 26.8687L13.5056 26.858L13.6553 26.8473L13.6512 26.7906L13.5016 26.8013ZM13.5056 26.858L13.356 26.8687L13.3601 26.9253L13.5097 26.9146L13.6593 26.904L13.6553 26.8473L13.5056 26.858ZM13.5097 26.9146L13.3601 26.9253C13.3613 26.9422 13.3593 26.963 13.3514 26.9887L13.4947 27.0329L13.638 27.0772C13.6555 27.0207 13.6635 26.9626 13.6593 26.904L13.5097 26.9146ZM13.4947 27.0329L13.3514 26.9887L13.3324 27.0503L13.4757 27.0946L13.619 27.1388L13.638 27.0772L13.4947 27.0329ZM13.4757 27.0946L13.3324 27.0503L13.3133 27.1119L13.4567 27.1562L13.6 27.2004L13.619 27.1388L13.4757 27.0946ZM13.4567 27.1562L13.3133 27.1119C13.2894 27.1896 13.2951 27.2715 13.3389 27.3454L13.4679 27.2688L13.5969 27.1923C13.5975 27.1932 13.5988 27.1962 13.5992 27.2002C13.5996 27.204 13.5987 27.2045 13.6 27.2004L13.4567 27.1562ZM13.4679 27.2688L13.3389 27.3454L13.3692 27.3964L13.4982 27.3199L13.6272 27.2433L13.5969 27.1923L13.4679 27.2688ZM13.4982 27.3199L13.3692 27.3964L13.3995 27.4474L13.5285 27.3709L13.6575 27.2943L13.6272 27.2433L13.4982 27.3199ZM13.5285 27.3709L13.3995 27.4474C13.4171 27.4771 13.4329 27.507 13.4467 27.5371L13.5829 27.4743L13.7191 27.4114C13.7008 27.3717 13.6802 27.3327 13.6575 27.2943L13.5285 27.3709ZM13.5829 27.4743L13.4467 27.5371L13.4709 27.5894L13.6071 27.5266L13.7433 27.4638L13.7191 27.4114L13.5829 27.4743ZM13.6071 27.5266L13.4709 27.5894L13.495 27.6418L13.6312 27.5789L13.7674 27.5161L13.7433 27.4638L13.6071 27.5266ZM13.6312 27.5789L13.495 27.6418C13.5083 27.6705 13.5193 27.6995 13.5282 27.7288L13.6718 27.6853L13.8153 27.6418C13.8024 27.599 13.7864 27.5571 13.7674 27.5161L13.6312 27.5789ZM13.6718 27.6853L13.5282 27.7288L13.5446 27.7828L13.6881 27.7393L13.8317 27.6958L13.8153 27.6418L13.6718 27.6853ZM13.6881 27.7393L13.5446 27.7828L13.5609 27.8368L13.7045 27.7933L13.848 27.7498L13.8317 27.6958L13.6881 27.7393ZM13.7045 27.7933L13.5609 27.8368C13.5635 27.8452 13.5614 27.8425 13.5619 27.8323C13.5625 27.8204 13.567 27.7959 13.5873 27.7724L13.7007 27.8706L13.814 27.9689C13.8817 27.8909 13.8618 27.7951 13.848 27.7498L13.7045 27.7933ZM13.7007 27.8706L13.5873 27.7724L13.5671 27.7956L13.6805 27.8939L13.7938 27.9922L13.814 27.9689L13.7007 27.8706ZM13.6805 27.8939L13.5671 27.7956L13.547 27.8189L13.6603 27.9172L13.7736 28.0155L13.7938 27.9922L13.6805 27.8939ZM13.6603 27.9172L13.547 27.8189C13.5566 27.8078 13.5808 27.7845 13.6217 27.7767C13.6661 27.7682 13.7022 27.783 13.7227 27.7968C13.7407 27.8089 13.7494 27.8216 13.751 27.8239C13.7534 27.8274 13.7534 27.8281 13.7515 27.824L13.6153 27.887L13.4792 27.9499C13.4883 27.9697 13.5105 28.0156 13.5552 28.0457C13.5832 28.0646 13.6266 28.0812 13.6781 28.0714C13.7261 28.0622 13.7572 28.0344 13.7736 28.0155L13.6603 27.9172ZM13.6153 27.887L13.7515 27.824L13.7267 27.7705L13.5906 27.8334L13.4544 27.8964L13.4792 27.9499L13.6153 27.887ZM13.5906 27.8334L13.7267 27.7705L13.702 27.7169L13.5658 27.7799L13.4297 27.8429L13.4544 27.8964L13.5906 27.8334ZM13.5658 27.7799L13.702 27.7169C13.6668 27.641 13.605 27.5898 13.5299 27.5637L13.4806 27.7053L13.4313 27.847C13.4356 27.8485 13.4354 27.8492 13.4333 27.8474C13.4324 27.8465 13.4315 27.8456 13.4307 27.8445C13.43 27.8435 13.4297 27.8429 13.4297 27.8429L13.5658 27.7799ZM13.4806 27.7053L13.5299 27.5637L13.4695 27.5426L13.4202 27.6843L13.3709 27.8259L13.4313 27.847L13.4806 27.7053ZM13.4202 27.6843L13.4695 27.5426L13.4091 27.5216L13.3597 27.6632L13.3104 27.8049L13.3709 27.8259L13.4202 27.6843ZM13.3597 27.6632L13.4091 27.5216C13.4073 27.521 13.4107 27.5219 13.4154 27.5266C13.4176 27.5287 13.4193 27.531 13.4206 27.5331C13.4218 27.5351 13.4223 27.5365 13.4223 27.5365L13.2799 27.5838L13.1376 27.631C13.1658 27.7162 13.2282 27.7763 13.3104 27.8049L13.3597 27.6632ZM13.2799 27.5838L13.4223 27.5365L13.4029 27.4781L13.2605 27.5253L13.1182 27.5726L13.1376 27.631L13.2799 27.5838ZM13.2605 27.5253L13.4029 27.4781L13.3835 27.4197L13.2412 27.4669L13.0988 27.5141L13.1182 27.5726L13.2605 27.5253ZM13.2412 27.4669L13.3835 27.4197C13.3641 27.361 13.3331 27.3078 13.2893 27.2632L13.1823 27.3683L13.0754 27.4735C13.0841 27.4824 13.0924 27.4949 13.0988 27.5141L13.2412 27.4669ZM13.1823 27.3683L13.2893 27.2632L13.2498 27.223L13.1428 27.3282L13.0359 27.4334L13.0754 27.4735L13.1823 27.3683ZM13.1428 27.3282L13.2498 27.223L13.2103 27.1829L13.1034 27.2881L12.9964 27.3933L13.0359 27.4334L13.1428 27.3282ZM13.1034 27.2881L13.2103 27.1829C13.1681 27.14 13.1178 27.1079 13.0622 27.0855L13.006 27.2246L12.9498 27.3637C12.9714 27.3724 12.986 27.3827 12.9964 27.3933L13.1034 27.2881ZM13.006 27.2246L13.0622 27.0855L13.0043 27.0621L12.9481 27.2012L12.892 27.3403L12.9498 27.3637L13.006 27.2246ZM12.9481 27.2012L13.0043 27.0621L12.9464 27.0387L12.8903 27.1778L12.8341 27.3169L12.892 27.3403L12.9481 27.2012ZM12.8903 27.1778L12.9464 27.0387C12.9092 27.0237 12.863 27.0066 12.8223 27.0029L12.8085 27.1522L12.7946 27.3016C12.7899 27.3012 12.7876 27.3005 12.7887 27.3008C12.7895 27.301 12.7919 27.3016 12.7961 27.3029C12.8046 27.3056 12.817 27.31 12.8341 27.3169L12.8903 27.1778ZM12.8085 27.1522L12.8223 27.0029L12.7984 27.0007L12.7845 27.15L12.7707 27.2994L12.7946 27.3016L12.8085 27.1522ZM12.7845 27.15L12.7984 27.0007L12.7745 26.9984L12.7606 27.1478L12.7468 27.2972L12.7707 27.2994L12.7845 27.15ZM12.7606 27.1478L12.7745 26.9984C12.7291 26.9942 12.6913 27.008 12.6687 27.0183C12.6441 27.0296 12.6212 27.0445 12.6011 27.0595L12.6907 27.1798L12.7803 27.3001C12.7909 27.2922 12.795 27.2904 12.7936 27.2911C12.7927 27.2915 12.7885 27.2934 12.7815 27.295C12.7745 27.2966 12.7624 27.2986 12.7468 27.2972L12.7606 27.1478ZM12.6907 27.1798L12.6011 27.0595L12.5552 27.0937L12.6448 27.214L12.7343 27.3343L12.7803 27.3001L12.6907 27.1798ZM12.6448 27.214L12.5552 27.0937L12.5092 27.1279L12.5988 27.2482L12.6884 27.3686L12.7343 27.3343L12.6448 27.214ZM12.5988 27.2482L12.5092 27.1279C12.473 27.1549 12.4389 27.1842 12.4071 27.2158L12.5129 27.3222L12.6186 27.4286C12.6401 27.4072 12.6634 27.3872 12.6884 27.3686L12.5988 27.2482ZM12.5129 27.3222L12.4071 27.2158L12.3672 27.2555L12.4729 27.3619L12.5787 27.4683L12.6186 27.4286L12.5129 27.3222ZM12.4729 27.3619L12.3672 27.2555L12.3273 27.2952L12.433 27.4016L12.5387 27.508L12.5787 27.4683L12.4729 27.3619ZM12.433 27.4016L12.3273 27.2952C12.2944 27.3278 12.2646 27.3632 12.2378 27.4011L12.3604 27.4876L12.4829 27.5741C12.4997 27.5503 12.5183 27.5283 12.5387 27.508L12.433 27.4016ZM12.3604 27.4876L12.2378 27.4011L12.2051 27.4474L12.3277 27.5339L12.4502 27.6204L12.4829 27.5741L12.3604 27.4876ZM12.3277 27.5339L12.2051 27.4474L12.1724 27.4937L12.295 27.5802L12.4175 27.6667L12.4502 27.6204L12.3277 27.5339ZM12.295 27.5802L12.1724 27.4937C12.1399 27.5397 12.1164 27.591 12.1008 27.6457L12.245 27.6869L12.3893 27.7281C12.3966 27.7023 12.4064 27.6824 12.4175 27.6667L12.295 27.5802ZM12.245 27.6869L12.1008 27.6457L12.0836 27.7061L12.2278 27.7473L12.372 27.7885L12.3893 27.7281L12.245 27.6869ZM12.2278 27.7473L12.0836 27.7061L12.0663 27.7664L12.2106 27.8076L12.3548 27.8488L12.372 27.7885L12.2278 27.7473ZM12.2106 27.8076L12.0663 27.7664C12.0668 27.7648 12.0693 27.7581 12.0762 27.7513C12.0829 27.7446 12.0883 27.7431 12.0871 27.7435L12.1307 27.887L12.1743 28.0306C12.2623 28.0038 12.3286 27.9405 12.3548 27.8488L12.2106 27.8076ZM12.1307 27.887L12.0871 27.7435L12.0244 27.7625L12.068 27.9061L12.1116 28.0496L12.1743 28.0306L12.1307 27.887ZM12.068 27.9061L12.0244 27.7625L11.9618 27.7816L12.0054 27.9251L12.049 28.0686L12.1116 28.0496L12.068 27.9061ZM12.0054 27.9251L11.9618 27.7816C11.9548 27.7837 11.9535 27.7837 11.9561 27.7833C11.9576 27.7831 11.9622 27.7824 11.969 27.7823C11.975 27.7823 11.9885 27.7826 12.0055 27.7875C12.0227 27.7925 12.0512 27.8046 12.0752 27.8334C12.1009 27.8643 12.109 27.8997 12.1086 27.9279C12.1082 27.953 12.1012 27.9715 12.0975 27.9799C12.0935 27.9893 12.0894 27.9954 12.0877 27.9979L11.964 27.9131L11.8403 27.8283C11.8342 27.8372 11.8094 27.8729 11.8086 27.9231C11.8081 27.9544 11.8171 27.9923 11.8445 28.0252C11.8702 28.0561 11.9013 28.0697 11.9219 28.0757C11.9583 28.0862 11.9907 28.0815 12.0025 28.0797C12.019 28.0771 12.0351 28.0728 12.049 28.0686L12.0054 27.9251ZM11.964 27.9131L12.0877 27.9979L12.109 27.9669L11.9853 27.8821L11.8616 27.7972L11.8403 27.8283L11.964 27.9131ZM11.9853 27.8821L12.109 27.9669L12.1303 27.9358L12.0065 27.851L11.8828 27.7662L11.8616 27.7972L11.9853 27.8821ZM12.0065 27.851L12.1303 27.9358C12.1614 27.8905 12.1769 27.838 12.1851 27.7892L12.0371 27.7644L11.8892 27.7397C11.8872 27.7514 11.885 27.7592 11.8834 27.7639C11.8817 27.7686 11.8811 27.7687 11.8828 27.7662L12.0065 27.851ZM12.0371 27.7644L12.1851 27.7892L12.1944 27.7337L12.0464 27.7089L11.8985 27.6841L11.8892 27.7397L12.0371 27.7644ZM12.0464 27.7089L12.1944 27.7337L12.2037 27.6782L12.0557 27.6534L11.9078 27.6286L11.8985 27.6841L12.0464 27.7089ZM12.0557 27.6534L12.2037 27.6782C12.2103 27.6385 12.2159 27.5986 12.2205 27.5585L12.0714 27.5417L11.9224 27.5248C11.9184 27.5596 11.9136 27.5942 11.9078 27.6286L12.0557 27.6534ZM12.0714 27.5417L12.2205 27.5585L12.2268 27.5024L12.0778 27.4855L11.9287 27.4686L11.9224 27.5248L12.0714 27.5417ZM12.0778 27.4855L12.2268 27.5024L12.2332 27.4462L12.0841 27.4293L11.9351 27.4125L11.9287 27.4686L12.0778 27.4855ZM12.0841 27.4293L12.2332 27.4462C12.2361 27.4206 12.2419 27.3956 12.2508 27.3711L12.1099 27.3198L11.9689 27.2685C11.952 27.3151 11.9406 27.3632 11.9351 27.4125L12.0841 27.4293ZM12.1099 27.3198L12.2508 27.3711L12.2703 27.3178L12.1293 27.2664L11.9884 27.2151L11.9689 27.2685L12.1099 27.3198ZM12.1293 27.2664L12.2703 27.3178L12.2897 27.2644L12.1487 27.2131L12.0078 27.1618L11.9884 27.2151L12.1293 27.2664ZM12.1487 27.2131L12.2897 27.2644C12.3134 27.1992 12.3156 27.1317 12.3007 27.0659L12.1544 27.0992L12.0081 27.1325C12.0115 27.1474 12.01 27.1558 12.0078 27.1618L12.1487 27.2131ZM12.1544 27.0992L12.3007 27.0659L12.2869 27.0054L12.1406 27.0387L11.9944 27.072L12.0081 27.1325L12.1544 27.0992ZM12.1406 27.0387L12.2869 27.0054L12.2731 26.9449L12.1268 26.9782L11.9806 27.0115L11.9944 27.072L12.1406 27.0387ZM12.1268 26.9782L12.2731 26.9449C12.2731 26.9449 12.2734 26.9463 12.2734 26.9487C12.2734 26.9512 12.2731 26.9542 12.2723 26.9574C12.2706 26.9643 12.2678 26.9673 12.2687 26.9662L12.1544 26.8691L12.0401 26.772C11.983 26.8392 11.9606 26.9236 11.9806 27.0115L12.1268 26.9782ZM12.1544 26.8691L12.2687 26.9662L12.31 26.9175L12.1957 26.8204L12.0814 26.7233L12.0401 26.772L12.1544 26.8691ZM12.1957 26.8204L12.31 26.9175L12.3514 26.8689L12.237 26.7718L12.1227 26.6747L12.0814 26.7233L12.1957 26.8204ZM12.237 26.7718L12.3514 26.8689C12.3989 26.8129 12.4281 26.7446 12.4289 26.6673L12.279 26.6657L12.129 26.6641C12.129 26.665 12.1289 26.6653 12.1287 26.6658C12.1284 26.6665 12.1271 26.6695 12.1227 26.6747L12.237 26.7718ZM12.279 26.6657L12.4289 26.6673L12.4296 26.6099L12.2796 26.6083L12.1296 26.6067L12.129 26.6641L12.279 26.6657ZM12.2796 26.6083L12.4296 26.6099L12.4302 26.5525L12.2802 26.5509L12.1302 26.5493L12.1296 26.6067L12.2796 26.6083ZM12.2802 26.5509L12.4302 26.5525C12.4308 26.4946 12.4202 26.4381 12.3979 26.3844L12.2594 26.442L12.1209 26.4995C12.1271 26.5146 12.1304 26.5307 12.1302 26.5493L12.2802 26.5509ZM12.2594 26.442L12.3979 26.3844L12.3765 26.3329L12.238 26.3904L12.0995 26.448L12.1209 26.4995L12.2594 26.442ZM12.238 26.3904L12.3765 26.3329L12.3551 26.2813L12.2166 26.3389L12.0781 26.3964L12.0995 26.448L12.238 26.3904ZM12.2166 26.3389L12.3551 26.2813C12.3345 26.2318 12.3063 26.1866 12.2709 26.1462L12.1581 26.245L12.0453 26.3439C12.0593 26.3599 12.0701 26.3773 12.0781 26.3964L12.2166 26.3389ZM12.1581 26.245L12.2709 26.1462L12.2338 26.1039L12.121 26.2027L12.0082 26.3016L12.0453 26.3439L12.1581 26.245ZM12.121 26.2027L12.2338 26.1039L12.1968 26.0615L12.0839 26.1604L11.9711 26.2593L12.0082 26.3016L12.121 26.2027ZM12.0839 26.1604L12.1968 26.0615C12.1602 26.0198 12.117 25.9854 12.0684 25.9582L11.9951 26.0891L11.9219 26.22C11.9423 26.2314 11.9583 26.2446 11.9711 26.2593L12.0839 26.1604ZM11.9951 26.0891L12.0684 25.9582L12.0166 25.9293L11.9434 26.0602L11.8701 26.1911L11.9219 26.22L11.9951 26.0891ZM11.9434 26.0602L12.0166 25.9293L11.9649 25.9003L11.8916 26.0312L11.8184 26.1621L11.8701 26.1911L11.9434 26.0602ZM11.8916 26.0312L11.9649 25.9003C11.942 25.8875 11.9229 25.8729 11.9069 25.8568L11.8003 25.9622L11.6936 26.0677C11.7304 26.1049 11.7722 26.1363 11.8184 26.1621L11.8916 26.0312ZM11.8003 25.9622L11.9069 25.8568L11.8673 25.8167L11.7607 25.9222L11.654 26.0277L11.6936 26.0677L11.8003 25.9622ZM11.7607 25.9222L11.8673 25.8167L11.8278 25.7767L11.7211 25.8822L11.6144 25.9877L11.654 26.0277L11.7607 25.9222ZM11.7211 25.8822L11.8278 25.7767C11.8099 25.7587 11.7942 25.7385 11.7806 25.7157L11.652 25.793L11.5234 25.8702C11.5491 25.913 11.5795 25.9523 11.6144 25.9877L11.7211 25.8822ZM11.652 25.793L11.7806 25.7157L11.751 25.6666L11.6224 25.7438L11.4939 25.821L11.5234 25.8702L11.652 25.793ZM11.6224 25.7438L11.751 25.6666L11.7215 25.6174L11.5929 25.6946L11.4643 25.7718L11.4939 25.821L11.6224 25.7438ZM11.5929 25.6946L11.7215 25.6174C11.6994 25.5806 11.6754 25.5446 11.6496 25.5093L11.5286 25.598L11.4076 25.6867C11.4281 25.7147 11.447 25.7431 11.4643 25.7718L11.5929 25.6946ZM11.5286 25.598L11.6496 25.5093L11.6148 25.4619L11.4939 25.5506L11.3729 25.6392L11.4076 25.6867L11.5286 25.598ZM11.4939 25.5506L11.6148 25.4619L11.5801 25.4145L11.4591 25.5031L11.3381 25.5918L11.3729 25.6392L11.4939 25.5506ZM11.4591 25.5031L11.5801 25.4145C11.5786 25.4125 11.5844 25.4195 11.5893 25.4338C11.5939 25.4474 11.6043 25.4872 11.5824 25.5329C11.5595 25.5808 11.5192 25.5984 11.501 25.6038C11.4915 25.6066 11.4842 25.6075 11.4804 25.6078C11.4765 25.6082 11.4741 25.6081 11.4739 25.6081L11.4806 25.4582L11.4872 25.3083C11.4701 25.3076 11.4437 25.3079 11.4153 25.3163C11.386 25.3251 11.3383 25.3481 11.3118 25.4035C11.2863 25.4567 11.2969 25.506 11.3055 25.5313C11.3145 25.5573 11.328 25.578 11.3381 25.5918L11.4591 25.5031ZM11.4806 25.4582L11.4739 25.6081L11.5302 25.6105L11.5368 25.4607L11.5435 25.3108L11.4872 25.3083L11.4806 25.4582ZM11.5368 25.4607L11.5302 25.6105L11.5864 25.613L11.5931 25.4632L11.5997 25.3133L11.5435 25.3108L11.5368 25.4607ZM11.5931 25.4632L11.5864 25.613C11.6121 25.6142 11.6383 25.6183 11.6652 25.6259L11.7056 25.4814L11.746 25.337C11.6979 25.3235 11.6491 25.3155 11.5997 25.3133L11.5931 25.4632ZM11.7056 25.4814L11.6652 25.6259L11.7214 25.6416L11.7618 25.4971L11.8022 25.3527L11.746 25.337L11.7056 25.4814ZM11.7618 25.4971L11.7214 25.6416L11.7777 25.6573L11.8181 25.5129L11.8585 25.3684L11.8022 25.3527L11.7618 25.4971ZM11.8181 25.5129L11.7777 25.6573C11.8408 25.675 11.9054 25.6755 11.9688 25.6588L11.9306 25.5138L11.8924 25.3687C11.8808 25.3718 11.8704 25.3718 11.8585 25.3684L11.8181 25.5129ZM11.9306 25.5138L11.9688 25.6588L12.0251 25.644L11.9868 25.499L11.9486 25.3539L11.8924 25.3687L11.9306 25.5138ZM11.9868 25.499L12.0251 25.644L12.0813 25.6292L12.0431 25.4841L12.0049 25.3391L11.9486 25.3539L11.9868 25.499ZM12.0431 25.4841L12.0813 25.6292C12.0832 25.6287 12.0839 25.6288 12.0843 25.6288C12.0848 25.6289 12.0873 25.6292 12.0923 25.6315L12.1556 25.4955L12.2188 25.3595C12.1519 25.3283 12.0786 25.3197 12.0049 25.3391L12.0431 25.4841ZM12.1556 25.4955L12.0923 25.6315L12.1486 25.6576L12.2118 25.5216L12.2751 25.3856L12.2188 25.3595L12.1556 25.4955ZM12.2118 25.5216L12.1486 25.6576L12.2048 25.6838L12.2681 25.5478L12.3313 25.4118L12.2751 25.3856L12.2118 25.5216ZM12.2681 25.5478L12.2048 25.6838C12.2882 25.7226 12.3792 25.7175 12.4576 25.6657L12.3749 25.5405L12.2922 25.4154C12.2941 25.4142 12.3014 25.4102 12.3127 25.4094C12.3239 25.4086 12.3308 25.4115 12.3313 25.4118L12.2681 25.5478ZM12.3749 25.5405L12.4576 25.6657L12.5082 25.6322L12.4255 25.5071L12.3427 25.382L12.2922 25.4154L12.3749 25.5405ZM12.4255 25.5071L12.5082 25.6322L12.5587 25.5988L12.476 25.4737L12.3933 25.3486L12.3427 25.382L12.4255 25.5071ZM12.476 25.4737L12.5587 25.5988C12.6272 25.5535 12.6731 25.4843 12.6813 25.3981L12.5319 25.3839L12.3826 25.3697C12.3829 25.367 12.3841 25.3613 12.3879 25.3552C12.3916 25.3494 12.3948 25.3476 12.3933 25.3486L12.476 25.4737ZM12.5319 25.3839L12.6813 25.3981L12.6866 25.3417L12.5373 25.3275L12.388 25.3133L12.3826 25.3697L12.5319 25.3839ZM12.5373 25.3275L12.6866 25.3417L12.692 25.2853L12.5427 25.2711L12.3933 25.2569L12.388 25.3133L12.5373 25.3275ZM12.5427 25.2711L12.692 25.2853C12.6937 25.2672 12.6988 25.2495 12.7081 25.2315L12.5746 25.1629L12.4412 25.0943C12.415 25.1453 12.3988 25.1998 12.3933 25.2569L12.5427 25.2711ZM12.5746 25.1629L12.7081 25.2315L12.7347 25.1797L12.6013 25.1111L12.4678 25.0425L12.4412 25.0943L12.5746 25.1629ZM12.6013 25.1111L12.7347 25.1797L12.7613 25.1278L12.6279 25.0593L12.4945 24.9907L12.4678 25.0425L12.6013 25.1111ZM12.6279 25.0593L12.7613 25.1278C12.794 25.0643 12.8044 24.9951 12.7937 24.9254L12.6454 24.948L12.4972 24.9706C12.4986 24.9801 12.4973 24.9852 12.4945 24.9907L12.6279 25.0593ZM12.6454 24.948L12.7937 24.9254L12.7847 24.8659L12.6364 24.8885L12.4881 24.9111L12.4972 24.9706L12.6454 24.948ZM12.6364 24.8885L12.7847 24.8659L12.7756 24.8064L12.6273 24.829L12.479 24.8516L12.4881 24.9111L12.6364 24.8885ZM12.6273 24.829L12.7756 24.8064C12.7719 24.7822 12.7724 24.7609 12.776 24.7417L12.6286 24.7142L12.4811 24.6868C12.4709 24.7413 12.4706 24.7965 12.479 24.8516L12.6273 24.829ZM12.6286 24.7142L12.776 24.7417L12.7863 24.6863L12.6388 24.6589L12.4914 24.6314L12.4811 24.6868L12.6286 24.7142ZM12.6388 24.6589L12.7863 24.6863L12.7966 24.631L12.6491 24.6036L12.5017 24.5761L12.4914 24.6314L12.6388 24.6589ZM12.6491 24.6036L12.7966 24.631C12.8033 24.5952 12.8103 24.5594 12.8178 24.5237L12.6709 24.4932L12.524 24.4626C12.5162 24.5004 12.5087 24.5382 12.5017 24.5761L12.6491 24.6036ZM12.6709 24.4932L12.8178 24.5237L12.8292 24.4686L12.6823 24.4381L12.5355 24.4076L12.524 24.4626L12.6709 24.4932ZM12.6823 24.4381L12.8292 24.4686L12.8407 24.4136L12.6938 24.383L12.5469 24.3525L12.5355 24.4076L12.6823 24.4381ZM12.6938 24.383L12.8407 24.4136C12.849 24.3733 12.8559 24.3328 12.8614 24.292L12.7128 24.272L12.5641 24.2521C12.5596 24.2858 12.5538 24.3193 12.5469 24.3525L12.6938 24.383ZM12.7128 24.272L12.8614 24.292L12.8689 24.2361L12.7203 24.2161L12.5716 24.1961L12.5641 24.2521L12.7128 24.272ZM12.7203 24.2161L12.8689 24.2361L12.8765 24.1802L12.7278 24.1602L12.5791 24.1402L12.5716 24.1961L12.7203 24.2161ZM12.7278 24.1602L12.8765 24.1802C12.8801 24.1529 12.8856 24.1337 12.8911 24.1207L12.7528 24.0627L12.6145 24.0046C12.5966 24.0471 12.5855 24.093 12.5791 24.1402L12.7278 24.1602ZM12.7528 24.0627L12.8911 24.1207L12.9086 24.0791L12.7702 24.0211L12.6319 23.963L12.6145 24.0046L12.7528 24.0627ZM12.7702 24.0211L12.9086 24.0791L12.926 24.0375L12.7877 23.9795L12.6494 23.9214L12.6319 23.963L12.7702 24.0211ZM12.7877 23.9795L12.926 24.0375C12.9313 24.0249 12.9336 24.0205 12.9334 24.0209C12.9331 24.0214 12.9323 24.0229 12.9308 24.0252C12.9295 24.0273 12.9265 24.0318 12.9219 24.0373C12.9182 24.0417 12.9081 24.0534 12.8914 24.0644C12.8763 24.0744 12.8346 24.0976 12.7785 24.0855L12.8101 23.9389L12.8416 23.7922C12.7847 23.78 12.742 23.8035 12.7259 23.8142C12.7081 23.8259 12.6968 23.8388 12.6918 23.8448C12.6811 23.8576 12.674 23.8701 12.6707 23.8761C12.663 23.89 12.6557 23.9063 12.6494 23.9214L12.7877 23.9795ZM12.8101 23.9389L12.7785 24.0855L12.7834 24.0866L12.815 23.9399L12.8465 23.7933L12.8416 23.7922L12.8101 23.9389ZM12.815 23.9399L12.7834 24.0866L12.7883 24.0877L12.8199 23.941L12.8514 23.7944L12.8465 23.7933L12.815 23.9399ZM12.8199 23.941L12.7883 24.0877C12.7621 24.082 12.7437 24.0706 12.7349 24.0645C12.7251 24.0577 12.7183 24.0511 12.7144 24.0472C12.7069 24.0396 12.7023 24.0331 12.7009 24.0311C12.6977 24.0266 12.6966 24.0243 12.6981 24.027C12.7006 24.0315 12.7054 24.0411 12.7132 24.0577L12.8491 23.9944L12.9851 23.931C12.9766 23.9127 12.9684 23.896 12.9611 23.8827C12.9577 23.8765 12.9526 23.8675 12.9461 23.8583C12.9431 23.8541 12.9371 23.8458 12.9283 23.8369C12.9252 23.8337 12.8981 23.8044 12.8514 23.7944L12.8199 23.941ZM12.8491 23.9944L12.7132 24.0577L12.7376 24.11L12.8735 24.0466L13.0095 23.9833L12.9851 23.931L12.8491 23.9944Z" fill="var(--stroke-0, white)"/>
</g>
<g id="Ellipse 21">
<ellipse cx="11.9348" cy="11.7672" rx="3.56076" ry="3.84468" fill="var(--fill-0, white)"/>
<path d="M15.4797 12.3331L14.9799 12.3191L15.4797 12.3331ZM15.4281 12.7059L15.9129 12.8281L15.4281 12.7059ZM15.3352 13.0742L14.8504 12.952L15.3352 13.0742ZM15.2403 13.4513L15.7251 13.5732L15.2403 13.4513ZM15.1432 13.8371L14.6583 13.7152L15.1432 13.8371ZM15.0085 14.2204L14.553 14.0141L15.0085 14.2204ZM14.8362 14.601L15.2917 14.8072L14.8362 14.601ZM14.5511 14.8698L14.3675 14.4048L14.5511 14.8698ZM14.3521 14.9484L14.5357 15.4134L14.3521 14.9484ZM14.1532 15.0269L14.3368 15.492L14.1532 15.0269ZM13.7376 15.0889L13.6995 15.5875L13.7376 15.0889ZM13.521 15.0724L13.4829 15.5709L13.521 15.0724ZM13.3044 15.0558L13.3425 14.5573L13.3044 15.0558ZM12.9605 15.2835L12.5171 15.0524L12.9605 15.2835ZM12.8333 15.5277L12.3899 15.2966L12.8333 15.5277ZM12.706 15.7719L13.1495 16.0029L12.706 15.7719ZM12.3759 15.8495L12.0587 16.236L12.3759 15.8495ZM12.1731 15.683L11.8558 16.0694L12.1731 15.683ZM11.9702 15.5164L12.2875 15.13L11.9702 15.5164ZM11.5559 15.4644L11.3177 15.0248L11.5559 15.4644ZM11.3445 15.579L11.5826 16.0186L11.3445 15.579ZM10.8096 15.5869L11.2556 15.361L10.8096 15.5869ZM10.5855 15.1446L10.1395 15.3705L10.5855 15.1446ZM10.3273 14.8329L10.5904 14.4078L10.3273 14.8329ZM10.0349 14.6519L9.77172 15.0771L10.0349 14.6519ZM9.79068 14.4191L10.2026 14.1357L9.79068 14.4191ZM9.59475 14.1343L9.18282 14.4177L9.59475 14.1343ZM9.2841 13.9101L9.46343 13.4434L9.2841 13.9101ZM8.85874 13.7467L8.6794 14.2134L8.85874 13.7467ZM8.68162 13.453L8.18851 13.3703L8.68162 13.453ZM8.27974 11.9802L7.80402 11.8263L8.27974 11.9802ZM8.36792 11.1947L7.91084 11.3973L8.36792 11.1947ZM8.44085 10.2598L8.13047 9.86776L8.44085 10.2598ZM8.93913 9.84549L8.59757 9.48034L8.93913 9.84549ZM9.07661 9.71689L9.41818 10.082L9.07661 9.71689ZM9.2141 9.58828L8.87253 9.22313L9.2141 9.58828ZM9.4523 9.30829L9.03601 9.03133L9.4523 9.30829ZM9.55302 9.1569L9.13673 8.87994L9.55302 9.1569ZM9.88393 8.71457L9.51739 8.37449L9.88393 8.71457ZM10.1429 8.43547L9.77633 8.0954L10.1429 8.43547ZM10.4189 8.12383L10.0382 7.79967L10.4189 8.12383ZM10.5654 7.95174L10.9461 8.2759L10.5654 7.95174ZM10.712 7.77964L10.3313 7.45549L10.712 7.77964ZM11.9107 7.92723L12.0163 7.4385L11.9107 7.92723ZM13.4046 8.12228L12.9649 8.36031L13.4046 8.12228ZM14.0709 8.86848L14.274 8.41158L14.0709 8.86848ZM14.2437 8.94527L14.0406 9.40217L14.2437 8.94527ZM14.5709 9.1445L14.2603 9.53633L14.5709 9.1445ZM14.8798 9.38938L14.5693 9.78122L14.8798 9.38938ZM15.0285 9.72333L15.5283 9.73715L15.0285 9.72333ZM15.0226 9.93483L15.5224 9.94865L15.0226 9.93483ZM15.0168 10.1463L14.517 10.1325L15.0168 10.1463ZM15.1234 10.5159L15.5308 10.226L15.1234 10.5159ZM15.3485 10.8321L14.9411 11.1221L15.3485 10.8321ZM15.5844 11.1777L15.1667 11.4525L15.5844 11.1777ZM15.831 11.5526L16.2487 11.2778L15.831 11.5526ZM15.8397 11.7469L15.8692 12.246L15.8397 11.7469ZM15.725 11.7536L15.6955 11.2545L15.725 11.7536ZM15.4903 11.9558L15.9901 11.9698L15.4903 11.9558ZM15.485 12.1445L14.9852 12.1305L14.9799 12.3191L15.4797 12.3331L15.9796 12.347L15.9848 12.1584L15.485 12.1445ZM15.4797 12.3331L14.9799 12.3191C14.9775 12.4081 14.9653 12.4961 14.9432 12.5836L15.4281 12.7059L15.9129 12.8281C15.9527 12.6701 15.975 12.5096 15.9796 12.347L15.4797 12.3331ZM15.4281 12.7059L14.9432 12.5836L14.8968 12.7678L15.3816 12.89L15.8665 13.0123L15.9129 12.8281L15.4281 12.7059ZM15.3816 12.89L14.8968 12.7678L14.8504 12.952L15.3352 13.0742L15.82 13.1964L15.8665 13.0123L15.3816 12.89ZM15.3352 13.0742L14.8504 12.952C14.8194 13.0748 14.7877 13.2006 14.7554 13.3293L15.2403 13.4513L15.7251 13.5732C15.7575 13.4447 15.7891 13.3191 15.82 13.1964L15.3352 13.0742ZM15.2403 13.4513L14.7554 13.3293L14.7068 13.5222L15.1917 13.6442L15.6766 13.7662L15.7251 13.5732L15.2403 13.4513ZM15.1917 13.6442L14.7068 13.5222L14.6583 13.7152L15.1432 13.8371L15.6281 13.9591L15.6766 13.7662L15.1917 13.6442ZM15.1432 13.8371L14.6583 13.7152C14.6336 13.8135 14.5988 13.9131 14.553 14.0141L15.0085 14.2204L15.464 14.4266C15.5331 14.2739 15.5881 14.118 15.6281 13.9591L15.1432 13.8371ZM15.0085 14.2204L14.553 14.0141L14.4669 14.2044L14.9223 14.4107L15.3778 14.6169L15.464 14.4266L15.0085 14.2204ZM14.9223 14.4107L14.4669 14.2044L14.3807 14.3947L14.8362 14.601L15.2917 14.8072L15.3778 14.6169L14.9223 14.4107ZM14.8362 14.601L14.3807 14.3947C14.3786 14.3993 14.3773 14.4011 14.3773 14.4012C14.3773 14.4012 14.3778 14.4005 14.3788 14.3996C14.3798 14.3986 14.38 14.3986 14.3789 14.3993C14.3777 14.4001 14.3742 14.4021 14.3675 14.4048L14.5511 14.8698L14.7347 15.3349C14.9849 15.2361 15.1792 15.0555 15.2917 14.8072L14.8362 14.601ZM14.5511 14.8698L14.3675 14.4048L14.1685 14.4833L14.3521 14.9484L14.5357 15.4134L14.7347 15.3349L14.5511 14.8698ZM14.3521 14.9484L14.1685 14.4833L13.9695 14.5618L14.1532 15.0269L14.3368 15.492L14.5357 15.4134L14.3521 14.9484ZM14.1532 15.0269L13.9695 14.5618C13.9084 14.586 13.8458 14.5957 13.7757 14.5904L13.7376 15.0889L13.6995 15.5875C13.9182 15.6042 14.1326 15.5726 14.3368 15.492L14.1532 15.0269ZM13.7376 15.0889L13.7757 14.5904L13.5591 14.5738L13.521 15.0724L13.4829 15.5709L13.6995 15.5875L13.7376 15.0889ZM13.521 15.0724L13.5591 14.5738L13.3425 14.5573L13.3044 15.0558L13.2663 15.5544L13.4829 15.5709L13.521 15.0724ZM13.3044 15.0558L13.3425 14.5573C13.1658 14.5438 12.9893 14.5848 12.8341 14.6876C12.6864 14.7854 12.5861 14.9202 12.5171 15.0524L12.9605 15.2835L13.404 15.5145C13.4199 15.484 13.4192 15.4995 13.3862 15.5214C13.3689 15.5328 13.3474 15.5428 13.3231 15.5489C13.2992 15.5549 13.2792 15.5554 13.2663 15.5544L13.3044 15.0558ZM12.9605 15.2835L12.5171 15.0524L12.3899 15.2966L12.8333 15.5277L13.2767 15.7587L13.404 15.5145L12.9605 15.2835ZM12.8333 15.5277L12.3899 15.2966L12.2626 15.5408L12.706 15.7719L13.1495 16.0029L13.2767 15.7587L12.8333 15.5277ZM12.706 15.7719L12.2626 15.5408C12.2464 15.572 12.2906 15.4631 12.4454 15.4267C12.6104 15.3879 12.7077 15.475 12.6932 15.4631L12.3759 15.8495L12.0587 16.236C12.1794 16.3351 12.3993 16.4648 12.6744 16.4001C12.9392 16.3378 13.0809 16.1345 13.1495 16.0029L12.706 15.7719ZM12.3759 15.8495L12.6932 15.4631L12.4903 15.2965L12.1731 15.683L11.8558 16.0694L12.0587 16.236L12.3759 15.8495ZM12.1731 15.683L12.4903 15.2965L12.2875 15.13L11.9702 15.5164L11.6529 15.9029L11.8558 16.0694L12.1731 15.683ZM11.9702 15.5164L12.2875 15.13C12.1656 15.0299 12.0115 14.9472 11.8275 14.9241C11.6397 14.9005 11.4656 14.9447 11.3177 15.0248L11.5559 15.4644L11.7941 15.9041C11.7922 15.9051 11.7822 15.9102 11.7646 15.9139C11.7463 15.9178 11.725 15.919 11.7029 15.9163C11.657 15.9105 11.6396 15.8919 11.6529 15.9029L11.9702 15.5164ZM11.5559 15.4644L11.3177 15.0248L11.1063 15.1393L11.3445 15.579L11.5826 16.0186L11.7941 15.9041L11.5559 15.4644ZM11.3445 15.579L11.1063 15.1393L10.8949 15.2539L11.133 15.6935L11.3712 16.1331L11.5826 16.0186L11.3445 15.579ZM11.133 15.6935L10.8949 15.2539C10.896 15.2533 10.916 15.2424 10.9526 15.2364C10.9921 15.2299 11.0453 15.2302 11.103 15.2493C11.2222 15.2886 11.2604 15.3704 11.2556 15.361L10.8096 15.5869L10.3635 15.8128C10.4334 15.9508 10.5629 16.1242 10.7899 16.199C11.021 16.2752 11.2306 16.2093 11.3712 16.1331L11.133 15.6935ZM10.8096 15.5869L11.2556 15.361L11.1436 15.1398L10.6976 15.3657L10.2515 15.5917L10.3635 15.8128L10.8096 15.5869ZM10.6976 15.3657L11.1436 15.1398L11.0316 14.9186L10.5855 15.1446L10.1395 15.3705L10.2515 15.5917L10.6976 15.3657ZM10.5855 15.1446L11.0316 14.9186C10.9327 14.7234 10.7932 14.5333 10.5904 14.4078L10.3273 14.8329L10.0641 15.2581C10.0563 15.2532 10.089 15.2708 10.1395 15.3705L10.5855 15.1446ZM10.3273 14.8329L10.5904 14.4078L10.4442 14.3173L10.1811 14.7424L9.91793 15.1676L10.0641 15.2581L10.3273 14.8329ZM10.1811 14.7424L10.4442 14.3173L10.298 14.2268L10.0349 14.6519L9.77172 15.0771L9.91793 15.1676L10.1811 14.7424ZM10.0349 14.6519L10.298 14.2268C10.2597 14.2031 10.2289 14.1738 10.2026 14.1357L9.79068 14.4191L9.37875 14.7025C9.4831 14.8541 9.61506 14.9801 9.77172 15.0771L10.0349 14.6519ZM9.79068 14.4191L10.2026 14.1357L10.1046 13.9933L9.69271 14.2767L9.28079 14.5601L9.37875 14.7025L9.79068 14.4191ZM9.69271 14.2767L10.1046 13.9933L10.0067 13.8509L9.59475 14.1343L9.18282 14.4177L9.28079 14.5601L9.69271 14.2767ZM9.59475 14.1343L10.0067 13.8509C9.86845 13.65 9.66988 13.5227 9.46343 13.4434L9.2841 13.9101L9.10477 14.3769C9.18189 14.4065 9.19041 14.4287 9.18282 14.4177L9.59475 14.1343ZM9.2841 13.9101L9.46343 13.4434L9.25075 13.3617L9.07142 13.8284L8.89208 14.2952L9.10477 14.3769L9.2841 13.9101ZM9.07142 13.8284L9.25075 13.3617L9.03807 13.28L8.85874 13.7467L8.6794 14.2134L8.89208 14.2952L9.07142 13.8284ZM8.85874 13.7467L9.03807 13.28C9.03823 13.28 9.04141 13.2813 9.04686 13.2842C9.05233 13.2872 9.06043 13.292 9.07015 13.2994C9.09035 13.3147 9.11514 13.3391 9.1363 13.3742C9.18283 13.4514 9.17746 13.5194 9.17473 13.5357L8.68162 13.453L8.18851 13.3703C8.16207 13.5279 8.17436 13.7155 8.27994 13.8906C8.38326 14.062 8.53874 14.1594 8.6794 14.2134L8.85874 13.7467ZM8.68162 13.453L9.17473 13.5357L9.21029 13.3237L8.71718 13.241L8.22407 13.1583L8.18851 13.3703L8.68162 13.453ZM8.71718 13.241L9.21029 13.3237L9.24586 13.1117L8.75275 13.029L8.25964 12.9462L8.22407 13.1583L8.71718 13.241ZM8.75275 13.029L9.24586 13.1117C9.29456 12.8214 9.2152 12.5451 9.02102 12.3247L8.64583 12.6552L8.27063 12.9857C8.273 12.9884 8.27219 12.988 8.27007 12.9842C8.26787 12.9803 8.26519 12.9744 8.26308 12.967C8.26098 12.9597 8.26012 12.9532 8.25991 12.9485C8.2597 12.944 8.26019 12.943 8.25964 12.9462L8.75275 13.029ZM8.64583 12.6552L9.02102 12.3247L8.87853 12.1629L8.50334 12.4934L8.12814 12.8239L8.27063 12.9857L8.64583 12.6552ZM8.50334 12.4934L8.87853 12.1629L8.73604 12.0012L8.36085 12.3317L7.98565 12.6622L8.12814 12.8239L8.50334 12.4934ZM8.36085 12.3317L8.73604 12.0012C8.73272 11.9974 8.74806 12.0138 8.75652 12.0505C8.76545 12.0892 8.75983 12.1206 8.75546 12.1341L8.27974 11.9802L7.80402 11.8263C7.70364 12.1365 7.78548 12.4349 7.98565 12.6622L8.36085 12.3317ZM8.27974 11.9802L8.75546 12.1341L8.81684 11.9444L8.34112 11.7905L7.8654 11.6366L7.80402 11.8263L8.27974 11.9802ZM8.34112 11.7905L8.81684 11.9444L8.87822 11.7547L8.4025 11.6008L7.92678 11.4469L7.8654 11.6366L8.34112 11.7905ZM8.4025 11.6008L8.87822 11.7547C8.9639 11.4899 8.929 11.2265 8.82501 10.992L8.36792 11.1947L7.91084 11.3973C7.92388 11.4267 7.92599 11.4426 7.92635 11.4468C7.92653 11.449 7.92638 11.4494 7.92648 11.4485C7.92652 11.4481 7.92658 11.4477 7.92666 11.4473C7.92675 11.447 7.92681 11.4468 7.92678 11.4469L8.4025 11.6008ZM8.36792 11.1947L8.82501 10.992L8.72905 10.7756L8.27197 10.9782L7.81489 11.1809L7.91084 11.3973L8.36792 11.1947ZM8.27197 10.9782L8.72905 10.7756L8.6331 10.5592L8.17602 10.7618L7.71893 10.9645L7.81489 11.1809L8.27197 10.9782ZM8.17602 10.7618L8.6331 10.5592C8.6327 10.5583 8.65303 10.6053 8.63588 10.6782C8.61832 10.753 8.57677 10.7899 8.57084 10.7946L8.26046 10.4026L7.95008 10.0106C7.82388 10.1105 7.70813 10.2549 7.66242 10.4494C7.61712 10.6421 7.65536 10.8211 7.71893 10.9645L8.17602 10.7618ZM8.26046 10.4026L8.57084 10.7946L8.75123 10.6518L8.44085 10.2598L8.13047 9.86776L7.95008 10.0106L8.26046 10.4026ZM8.44085 10.2598L8.75123 10.6518L8.93163 10.5089L8.62125 10.1169L8.31087 9.72493L8.13047 9.86776L8.44085 10.2598ZM8.62125 10.1169L8.93163 10.5089C9.06039 10.407 9.17711 10.3075 9.28069 10.2106L8.93913 9.84549L8.59757 9.48034C8.51784 9.55492 8.42264 9.63643 8.31087 9.72493L8.62125 10.1169ZM8.93913 9.84549L9.28069 10.2106L9.41818 10.082L9.07661 9.71689L8.73505 9.35174L8.59757 9.48034L8.93913 9.84549ZM9.07661 9.71689L9.41818 10.082L9.55566 9.95343L9.2141 9.58828L8.87253 9.22313L8.73505 9.35174L9.07661 9.71689ZM9.2141 9.58828L9.55566 9.95343C9.67455 9.84222 9.77928 9.71948 9.86859 9.58524L9.4523 9.30829L9.03601 9.03133C8.99102 9.09895 8.93695 9.16288 8.87253 9.22313L9.2141 9.58828ZM9.4523 9.30829L9.86859 9.58524L9.96931 9.43385L9.55302 9.1569L9.13673 8.87994L9.03601 9.03133L9.4523 9.30829ZM9.55302 9.1569L9.96931 9.43385L10.07 9.28246L9.65374 9.0055L9.23745 8.72855L9.13673 8.87994L9.55302 9.1569ZM9.65374 9.0055L10.07 9.28246C10.1216 9.20489 10.1816 9.12891 10.2505 9.05464L9.88393 8.71457L9.51739 8.37449C9.41368 8.48628 9.32014 8.60427 9.23745 8.72855L9.65374 9.0055ZM9.88393 8.71457L10.2505 9.05464L10.3799 8.91509L10.0134 8.57502L9.64686 8.23495L9.51739 8.37449L9.88393 8.71457ZM10.0134 8.57502L10.3799 8.91509L10.5094 8.77554L10.1429 8.43547L9.77633 8.0954L9.64686 8.23495L10.0134 8.57502ZM10.1429 8.43547L10.5094 8.77554C10.6013 8.67645 10.6981 8.56716 10.7996 8.44799L10.4189 8.12383L10.0382 7.79967C9.94428 7.90996 9.85703 8.00843 9.77633 8.0954L10.1429 8.43547ZM10.4189 8.12383L10.7996 8.44799L10.9461 8.2759L10.5654 7.95174L10.1847 7.62758L10.0382 7.79967L10.4189 8.12383ZM10.5654 7.95174L10.9461 8.2759L11.0926 8.1038L10.712 7.77964L10.3313 7.45549L10.1847 7.62758L10.5654 7.95174ZM10.712 7.77964L11.0926 8.1038C11.09 8.1069 11.0639 8.13467 11.0113 8.14943C10.9592 8.16409 10.9236 8.15391 10.9221 8.15339L11.0755 7.67752L11.2289 7.20164C11.0827 7.15449 10.9143 7.138 10.7409 7.1867C10.5672 7.2355 10.4316 7.33766 10.3313 7.45549L10.712 7.77964ZM11.0755 7.67752L10.9221 8.15339L11.1391 8.22336L11.2925 7.74749L11.4459 7.27161L11.2289 7.20164L11.0755 7.67752ZM11.2925 7.74749L11.1391 8.22336L11.3561 8.29333L11.5095 7.81746L11.6629 7.34158L11.4459 7.27161L11.2925 7.74749ZM11.5095 7.81746L11.3561 8.29333C11.5133 8.34404 11.6633 8.3853 11.8052 8.41595L11.9107 7.92723L12.0163 7.4385C11.9126 7.41609 11.795 7.38416 11.6629 7.34158L11.5095 7.81746ZM11.9107 7.92723L11.8052 8.41595L11.9894 8.45575L12.095 7.96703L12.2006 7.4783L12.0163 7.4385L11.9107 7.92723ZM12.095 7.96703L11.9894 8.45575L12.1737 8.49556L12.2793 8.00683L12.3848 7.5181L12.2006 7.4783L12.095 7.96703ZM12.2793 8.00683L12.1737 8.49556C12.3615 8.53612 12.5531 8.53885 12.7443 8.5109L12.672 8.01616L12.5997 7.52141C12.513 7.53409 12.4427 7.53061 12.3848 7.5181L12.2793 8.00683ZM12.672 8.01616L12.7443 8.5109L12.9529 8.48043L12.8806 7.98568L12.8083 7.49094L12.5997 7.52141L12.672 8.01616ZM12.8806 7.98568L12.9529 8.48043L13.1614 8.44995L13.0891 7.95521L13.0168 7.46046L12.8083 7.49094L12.8806 7.98568ZM13.0891 7.95521L13.1614 8.44995C13.1454 8.4523 13.0956 8.454 13.0382 8.4236C12.9835 8.39464 12.964 8.35879 12.9649 8.36031L13.4046 8.12228L13.8443 7.88424C13.7738 7.75406 13.6661 7.62452 13.5062 7.53988C13.3437 7.45378 13.1719 7.4378 13.0168 7.46046L13.0891 7.95521ZM13.4046 8.12228L12.9649 8.36031L13.0718 8.55786L13.5115 8.31982L13.9512 8.08179L13.8443 7.88424L13.4046 8.12228ZM13.5115 8.31982L13.0718 8.55786L13.1787 8.7554L13.6184 8.51737L14.0582 8.27934L13.9512 8.08179L13.5115 8.31982ZM13.6184 8.51737L13.1787 8.7554C13.2924 8.96527 13.461 9.14457 13.6951 9.2486L13.8981 8.7917L14.1012 8.3348C14.1002 8.33434 14.0975 8.33319 14.092 8.32776C14.0858 8.32168 14.0735 8.3076 14.0582 8.27934L13.6184 8.51737ZM13.8981 8.7917L13.6951 9.2486L13.8678 9.32539L14.0709 8.86848L14.274 8.41158L14.1012 8.3348L13.8981 8.7917ZM14.0709 8.86848L13.8678 9.32539L14.0406 9.40217L14.2437 8.94527L14.4467 8.48836L14.274 8.41158L14.0709 8.86848ZM14.2437 8.94527L14.0406 9.40217C14.1157 9.43557 14.1889 9.47971 14.2603 9.53633L14.5709 9.1445L14.8815 8.75266C14.747 8.64602 14.602 8.55735 14.4467 8.48836L14.2437 8.94527ZM14.5709 9.1445L14.2603 9.53633L14.4148 9.65877L14.7254 9.26694L15.036 8.87511L14.8815 8.75266L14.5709 9.1445ZM14.7254 9.26694L14.4148 9.65877L14.5693 9.78122L14.8798 9.38938L15.1904 8.99755L15.036 8.87511L14.7254 9.26694ZM14.8798 9.38938L14.5693 9.78122C14.5626 9.77594 14.548 9.76117 14.5374 9.73739C14.5274 9.71482 14.5289 9.70194 14.5287 9.70951L15.0285 9.72333L15.5283 9.73715C15.5362 9.45211 15.427 9.1851 15.1904 8.99755L14.8798 9.38938ZM15.0285 9.72333L14.5287 9.70951L14.5228 9.92101L15.0226 9.93483L15.5224 9.94865L15.5283 9.73715L15.0285 9.72333ZM15.0226 9.93483L14.5228 9.92101L14.517 10.1325L15.0168 10.1463L15.5166 10.1602L15.5224 9.94865L15.0226 9.93483ZM15.0168 10.1463L14.517 10.1325C14.5103 10.3717 14.5723 10.6038 14.7161 10.8059L15.1234 10.5159L15.5308 10.226C15.5246 10.2172 15.5154 10.2029 15.5166 10.1602L15.0168 10.1463ZM15.1234 10.5159L14.7161 10.8059L14.8286 10.964L15.236 10.674L15.6433 10.3841L15.5308 10.226L15.1234 10.5159ZM15.236 10.674L14.8286 10.964L14.9411 11.1221L15.3485 10.8321L15.7558 10.5422L15.6433 10.3841L15.236 10.674ZM15.3485 10.8321L14.9411 11.1221C15.0121 11.2218 15.0873 11.3319 15.1667 11.4525L15.5844 11.1777L16.002 10.9029C15.917 10.7736 15.8349 10.6533 15.7558 10.5422L15.3485 10.8321ZM15.5844 11.1777L15.1667 11.4525L15.29 11.64L15.7077 11.3652L16.1254 11.0903L16.002 10.9029L15.5844 11.1777ZM15.7077 11.3652L15.29 11.64L15.4134 11.8275L15.831 11.5526L16.2487 11.2778L16.1254 11.0903L15.7077 11.3652ZM15.831 11.5526L15.4134 11.8275C15.425 11.8452 15.4255 11.8484 15.4216 11.8397C15.4202 11.8365 15.3986 11.7904 15.3954 11.7171C15.3916 11.6319 15.4143 11.4859 15.5395 11.3681C15.65 11.264 15.7702 11.2501 15.8102 11.2477L15.8397 11.7469L15.8692 12.246C15.9474 12.2414 16.0959 12.2176 16.2248 12.0963C16.3685 11.9611 16.3996 11.7903 16.3944 11.6727C16.3897 11.567 16.3568 11.4811 16.334 11.4304C16.3089 11.3743 16.2782 11.3226 16.2487 11.2778L15.831 11.5526ZM15.8397 11.7469L15.8102 11.2477L15.6955 11.2545L15.725 11.7536L15.7545 12.2528L15.8692 12.246L15.8397 11.7469ZM15.725 11.7536L15.6955 11.2545L15.5808 11.2613L15.6103 11.7604L15.6397 12.2595L15.7545 12.2528L15.725 11.7536ZM15.6103 11.7604L15.5808 11.2613C15.3799 11.2731 15.2025 11.3789 15.0968 11.551C15.0103 11.6919 14.9933 11.8418 14.9905 11.9419L15.4903 11.9558L15.9901 11.9698C15.9908 11.944 15.9955 11.9985 15.949 12.0743C15.9222 12.1179 15.8793 12.1666 15.8164 12.2043C15.7535 12.2419 15.6904 12.2565 15.6397 12.2595L15.6103 11.7604ZM15.4903 11.9558L14.9905 11.9419L14.9852 12.1305L15.485 12.1445L15.9848 12.1584L15.9901 11.9698L15.4903 11.9558Z" fill="var(--stroke-0, white)"/>
</g>
</g>
</svg>
