<svg preserveAspectRatio="none" width="100%" height="100%" overflow="visible" style="display: block;" viewBox="0 0 28.1335 40.7508" fill="none" xmlns="http://www.w3.org/2000/svg">
<g id="Group 13">
<g id="Union">
<path d="M13.2268 1.00344C13.7008 1.01174 13.9562 1.02492 14.4358 1.02492C17.3195 1.02504 20.779 2.05154 23.3928 5.43801C25.107 7.65928 25.8852 10.2697 26.3078 12.3843C26.7333 14.5131 26.896 16.7109 27.0305 18.187C27.2117 20.1767 27.1886 23.2017 26.677 26.3482C26.1785 29.4132 25.1213 33.2024 22.803 36.2134C21.8795 37.4126 20.4061 38.4867 18.7493 39.1177C16.9526 39.8019 14.5092 40.1215 11.9299 39.0835C10.9338 38.6826 10.24 38.4291 9.68089 38.2232C9.2255 38.0554 8.50022 37.7964 7.84691 37.4478C6.1547 36.5446 5.14591 35.0971 4.57542 34.395C3.12855 32.6147 2.09725 29.8459 1.53343 26.8823C0.935461 23.7389 0.755884 19.8318 1.43675 15.4204C1.48693 15.0953 1.56959 14.7822 1.67699 14.4839C1.68252 14.2153 1.70853 13.9432 1.75902 13.6704C2.13577 11.6364 2.86165 9.3144 3.9182 7.03273C4.49553 5.78604 5.22836 4.54936 6.43382 3.59133C6.98268 3.15517 7.50827 2.88305 7.63792 2.81301C7.64079 2.81146 7.64403 2.81053 7.64671 2.8091C8.63646 2.07568 9.85065 1.33585 11.5198 1.09133C12.2155 0.989427 12.8483 0.996813 13.2268 1.00344Z" fill="var(--fill-0, #FFFEEF)"/>
<path d="M13.2268 1.00344L13.2443 0.00359128L13.2443 0.0035911L13.2268 1.00344ZM14.4358 1.02492L14.4358 0.0249223H14.4358L14.4358 1.02492ZM23.3928 5.43801L24.1845 4.82705L24.1844 4.827L23.3928 5.43801ZM26.3078 12.3843L27.2885 12.1883L27.2885 12.1883L26.3078 12.3843ZM27.0305 18.187L28.0264 18.0963L28.0264 18.0963L27.0305 18.187ZM26.677 26.3482L27.664 26.5087L27.664 26.5087L26.677 26.3482ZM22.803 36.2134L23.5953 36.8235L23.5953 36.8235L22.803 36.2134ZM18.7493 39.1177L19.1051 40.0522L19.1052 40.0522L18.7493 39.1177ZM11.9299 39.0835L11.5566 40.0112L11.5566 40.0112L11.9299 39.0835ZM9.68089 38.2232L9.33523 39.1615L9.33523 39.1615L9.68089 38.2232ZM7.84691 37.4478L7.37606 38.33L7.37616 38.33L7.84691 37.4478ZM4.57542 34.395L5.35151 33.7644L5.35145 33.7643L4.57542 34.395ZM1.53343 26.8823L0.551048 27.0692L0.551052 27.0692L1.53343 26.8823ZM1.43675 15.4204L0.448458 15.2679L0.448454 15.2679L1.43675 15.4204ZM1.67699 14.4839L2.61787 14.8226L2.6734 14.6684L2.67677 14.5045L1.67699 14.4839ZM1.75902 13.6704L0.775743 13.4883L0.775718 13.4884L1.75902 13.6704ZM3.9182 7.03273L3.01078 6.61251L3.01076 6.61254L3.9182 7.03273ZM6.43382 3.59133L5.81168 2.80843L5.81164 2.80846L6.43382 3.59133ZM7.63792 2.81301L8.11323 3.69283L8.1133 3.69279L7.63792 2.81301ZM7.64671 2.8091L8.11672 3.69176L8.18235 3.65682L8.24208 3.61255L7.64671 2.8091ZM11.5198 1.09133L11.3748 0.101886L11.3748 0.101889L11.5198 1.09133ZM13.2268 1.00344L13.2093 2.00328C13.6524 2.01105 13.9474 2.02492 14.4358 2.02492L14.4358 1.02492L14.4358 0.0249223C13.965 0.0249167 13.7493 0.0124368 13.2443 0.00359128L13.2268 1.00344ZM14.4358 1.02492L14.4357 2.02492C17.0776 2.02503 20.2147 2.9571 22.6012 6.04901L23.3928 5.43801L24.1844 4.827C21.3433 1.14597 17.5614 0.0250513 14.4358 0.0249223L14.4358 1.02492ZM23.3928 5.43801L22.6011 6.04896C24.1785 8.09285 24.9171 10.5284 25.3272 12.5803L26.3078 12.3843L27.2885 12.1883C26.8533 10.0109 26.0356 7.2257 24.1845 4.82705L23.3928 5.43801ZM26.3078 12.3843L25.3272 12.5803C25.7397 14.6441 25.898 16.7777 26.0346 18.2778L27.0305 18.187L28.0264 18.0963C27.8941 16.6441 27.7269 14.3822 27.2885 12.1883L26.3078 12.3843ZM27.0305 18.187L26.0346 18.2777C26.2084 20.1856 26.1878 23.1263 25.69 26.1877L26.677 26.3482L27.664 26.5087C28.1895 23.2772 28.215 20.1677 28.0264 18.0963L27.0305 18.187ZM26.677 26.3482L25.69 26.1876C25.2027 29.1836 24.1821 32.783 22.0106 35.6033L22.803 36.2134L23.5953 36.8235C26.0605 33.6217 27.1543 29.6428 27.664 26.5087L26.677 26.3482ZM22.803 36.2134L22.0107 35.6033C21.2125 36.6397 19.898 37.6101 18.3933 38.1832L18.7493 39.1177L19.1052 40.0522C20.9143 39.3632 22.5465 38.1855 23.5953 36.8235L22.803 36.2134ZM18.7493 39.1177L18.3934 38.1832C16.7755 38.7993 14.5984 39.0794 12.3032 38.1558L11.9299 39.0835L11.5566 40.0112C14.42 41.1635 17.1297 40.8045 19.1051 40.0522L18.7493 39.1177ZM11.9299 39.0835L12.3033 38.1558C11.2921 37.7489 10.586 37.4909 10.0266 37.2848L9.68089 38.2232L9.33523 39.1615C9.89399 39.3674 10.5755 39.6164 11.5566 40.0112L11.9299 39.0835ZM9.68089 38.2232L10.0266 37.2848C9.55438 37.1109 8.89851 36.8754 8.31766 36.5655L7.84691 37.4478L7.37616 38.33C8.10194 38.7173 8.89662 39 9.33523 39.1615L9.68089 38.2232ZM7.84691 37.4478L8.31775 36.5656C6.84444 35.7792 5.97279 34.529 5.35151 33.7644L4.57542 34.395L3.79934 35.0257C4.31904 35.6652 5.46496 37.31 7.37606 38.33L7.84691 37.4478ZM4.57542 34.395L5.35145 33.7643C4.05357 32.1674 3.06528 29.5836 2.51581 26.6954L1.53343 26.8823L0.551052 27.0692C1.12921 30.1082 2.20352 33.0621 3.79939 35.0257L4.57542 34.395ZM1.53343 26.8823L2.51581 26.6955C1.93901 23.6633 1.76168 19.871 2.42505 15.573L1.43675 15.4204L0.448454 15.2679C-0.249914 19.7927 -0.068084 23.8146 0.551048 27.0692L1.53343 26.8823ZM1.43675 15.4204L2.42505 15.573C2.46474 15.3159 2.5306 15.065 2.61787 14.8226L1.67699 14.4839L0.736105 14.1452C0.608576 14.4994 0.509133 14.8748 0.448458 15.2679L1.43675 15.4204ZM1.67699 14.4839L2.67677 14.5045C2.68126 14.2865 2.70231 14.0686 2.74232 13.8524L1.75902 13.6704L0.775718 13.4884C0.714749 13.8178 0.683774 14.1441 0.677198 14.4633L1.67699 14.4839ZM1.75902 13.6704L2.74229 13.8526C3.10307 11.9048 3.80244 9.66256 4.82563 7.45293L3.9182 7.03273L3.01076 6.61254C1.92087 8.96623 1.16848 11.368 0.775743 13.4883L1.75902 13.6704ZM3.9182 7.03273L4.82562 7.45296C5.376 6.26447 6.0284 5.19089 7.05601 4.3742L6.43382 3.59133L5.81164 2.80846C4.42833 3.90783 3.61507 5.30761 3.01078 6.61251L3.9182 7.03273ZM6.43382 3.59133L7.05597 4.37423C7.5278 3.99928 7.98153 3.76397 8.11323 3.69283L7.63792 2.81301L7.16262 1.93319C7.035 2.00213 6.43757 2.31106 5.81168 2.80843L6.43382 3.59133ZM7.63792 2.81301L8.1133 3.69279C8.09746 3.70135 8.0832 3.70849 8.07113 3.71427C8.05908 3.72005 8.04865 3.72474 8.04054 3.72828C8.03248 3.7318 8.02592 3.73454 8.02187 3.7362C8.0198 3.73705 8.01813 3.73773 8.01707 3.73816C8.01653 3.73838 8.0161 3.73855 8.01582 3.73867C8.01555 3.73878 8.01535 3.73886 8.01533 3.73886C8.01449 3.7392 8.01784 3.73786 8.02118 3.7365C8.025 3.73494 8.03162 3.73222 8.03975 3.72872C8.04796 3.72519 8.05883 3.72039 8.07149 3.71443C8.08418 3.70846 8.09952 3.70092 8.11672 3.69176L7.64671 2.8091L7.1767 1.92644C7.19323 1.91764 7.20789 1.91044 7.21987 1.90481C7.23183 1.89918 7.24199 1.8947 7.24946 1.89148C7.25687 1.88829 7.26276 1.88587 7.26584 1.88462C7.26843 1.88356 7.27103 1.88252 7.26944 1.88316C7.26896 1.88335 7.2652 1.88486 7.26064 1.88674C7.25584 1.88871 7.24853 1.89176 7.23972 1.89561C7.23085 1.89948 7.21968 1.90451 7.2069 1.91064C7.19409 1.91677 7.17911 1.92428 7.16255 1.93322L7.63792 2.81301ZM7.64671 2.8091L8.24208 3.61255C9.17134 2.92396 10.229 2.2911 11.6647 2.08077L11.5198 1.09133L11.3748 0.101889C9.47232 0.380597 8.10158 1.22741 7.05134 2.00565L7.64671 2.8091ZM11.5198 1.09133L11.6647 2.08077C12.2746 1.99144 12.8384 1.99679 13.2093 2.00328L13.2268 1.00344L13.2443 0.0035911C12.8582 -0.00316741 12.1564 -0.012586 11.3748 0.101886L11.5198 1.09133Z" fill="var(--stroke-0, #F4C280)"/>
</g>
<ellipse id="Ellipse 20" cx="14" cy="18.4994" rx="6" ry="9.5" fill="var(--fill-0, #424242)"/>
<g id="Star 4">
<path d="M12.825 23.9415L13.1581 25.4912H14.236L13.364 26.449L13.6971 27.9987L12.825 27.0409L11.9529 27.9987L12.286 26.449L11.414 25.4912H12.4919L12.825 23.9415Z" fill="var(--fill-0, white)"/>
<path d="M12.8737 24.0461L12.7378 24.1095L12.8737 24.0461ZM12.8981 24.0984L13.0341 24.0351L12.8981 24.0984ZM12.925 24.2077L12.7752 24.2144L12.925 24.2077ZM12.9276 24.2647L13.0774 24.258L12.9276 24.2647ZM12.9302 24.3217L12.7803 24.3284L12.9302 24.3217ZM12.9504 24.4324L13.0929 24.3854L12.9504 24.4324ZM12.9681 24.4861L12.8257 24.5331L12.9681 24.4861ZM12.9858 24.5399L12.8434 24.5868L12.9858 24.5399ZM13.0103 24.6497L12.8614 24.6677L13.0103 24.6497ZM13.0239 24.7618L13.1728 24.7438L13.0239 24.7618ZM13.0251 24.8766L12.8758 24.8624L13.0251 24.8766ZM13.014 24.9941L12.8647 24.9799L13.014 24.9941ZM13.0237 25.1071L13.1681 25.0665V25.0665L13.0237 25.1071ZM13.0542 25.2156L12.9098 25.2562V25.2562L13.0542 25.2156ZM13.0869 25.3236L12.9443 25.37L13.0869 25.3236ZM13.1978 25.4944L13.1737 25.6425L13.1978 25.4944ZM13.4293 25.4952L13.3629 25.3607L13.4293 25.4952ZM13.4855 25.4675L13.4191 25.3329L13.4855 25.4675ZM13.5418 25.4397L13.6081 25.5742L13.5418 25.4397ZM13.7668 25.4846L13.7074 25.6224L13.7668 25.4846ZM13.8793 25.515L13.8956 25.3659L13.8793 25.515ZM13.9355 25.5212L13.9191 25.6703L13.9355 25.5212ZM13.9918 25.5274L13.9754 25.6765L13.9918 25.5274ZM14.0883 25.5293L14.1039 25.6785L14.0883 25.5293ZM14.1285 25.5251L14.1442 25.6743L14.1285 25.5251ZM14.1688 25.5209L14.1531 25.3717L14.1688 25.5209ZM14.1731 25.56L14.0576 25.4642L14.1731 25.56ZM14.1371 25.6033L14.2525 25.6991L14.1371 25.6033ZM14.0324 25.7362L13.91 25.6494L14.0324 25.7362ZM13.9996 25.7824L14.122 25.8692L13.9996 25.7824ZM13.9668 25.8287L14.0892 25.9154L13.9668 25.8287ZM13.8763 25.8984L13.8198 25.7594L13.8763 25.8984ZM13.7608 25.9453L13.8173 26.0843L13.7608 25.9453ZM13.6924 26.0352L13.5443 26.0114L13.6924 26.0352ZM13.671 26.1679L13.8191 26.1917L13.671 26.1679ZM13.5667 26.3011L13.6538 26.4232L13.5667 26.3011ZM13.5198 26.3345L13.4327 26.2124L13.5198 26.3345ZM13.4701 26.4064L13.3205 26.3953L13.4701 26.4064ZM13.4673 26.4449L13.6169 26.456L13.4673 26.4449ZM13.4644 26.4833L13.3148 26.4722L13.4644 26.4833ZM13.4706 26.5774L13.6187 26.5533L13.4706 26.5774ZM13.4887 26.6886L13.3407 26.7127L13.4887 26.6886ZM13.5018 26.8008L13.6514 26.7901V26.7901L13.5018 26.8008ZM13.5059 26.8575L13.3563 26.8682L13.5059 26.8575ZM13.5099 26.9141L13.6595 26.9034L13.5099 26.9141ZM13.4949 27.0324L13.6383 27.0767L13.4949 27.0324ZM13.4569 27.1557L13.3136 27.1114L13.4569 27.1557ZM13.4682 27.2683L13.5972 27.1918V27.1918L13.4682 27.2683ZM13.5287 27.3704L13.3997 27.4469V27.4469L13.5287 27.3704ZM13.5832 27.4737L13.447 27.5366L13.5832 27.4737ZM13.6315 27.5784L13.7677 27.5156L13.6315 27.5784ZM13.672 27.6848L13.5284 27.7283L13.672 27.6848ZM13.7047 27.7928L13.8483 27.7493L13.7047 27.7928ZM13.7009 27.8701L13.8142 27.9684L13.7009 27.8701ZM13.6807 27.8934L13.5674 27.7951L13.6807 27.8934ZM13.6605 27.9167L13.5472 27.8184L13.6605 27.9167ZM13.6156 27.8864L13.7517 27.8235L13.6156 27.8864ZM13.566 27.7794L13.4299 27.8424L13.566 27.7794ZM13.4808 27.7048L13.5302 27.5632L13.4808 27.7048ZM13.36 27.6627L13.3106 27.8044L13.36 27.6627ZM13.2802 27.5833L13.1378 27.6305L13.2802 27.5833ZM13.2414 27.4664L13.3838 27.4192L13.2414 27.4664ZM13.1825 27.3678L13.0756 27.473L13.1825 27.3678ZM13.1431 27.3277L13.25 27.2225L13.1431 27.3277ZM13.1036 27.2876L12.9967 27.3928L13.1036 27.2876ZM13.0062 27.2241L12.9501 27.3632L13.0062 27.2241ZM12.9484 27.2007L12.8922 27.3398L12.9484 27.2007ZM12.8905 27.1773L12.9467 27.0382L12.8905 27.1773ZM12.8087 27.1517L12.7948 27.3011L12.8087 27.1517ZM12.7608 27.1473L12.7747 26.9979L12.7608 27.1473ZM12.691 27.1793L12.7805 27.2996L12.691 27.1793ZM12.5131 27.3217L12.4074 27.2153L12.5131 27.3217ZM12.4732 27.3614L12.5789 27.4677L12.4732 27.3614ZM12.4332 27.4011L12.539 27.5075L12.4332 27.4011ZM12.3606 27.4871L12.4831 27.5736L12.3606 27.4871ZM12.2952 27.5797L12.1727 27.4932L12.2952 27.5797ZM12.2108 27.8071L12.0666 27.7659L12.2108 27.8071ZM12.1309 27.8865L12.1745 28.03L12.1309 27.8865ZM12.0056 27.9246L11.962 27.7811L12.0056 27.9246ZM11.9642 27.9126L12.0879 27.9974L11.9642 27.9126ZM11.9855 27.8815L12.1092 27.9664L11.9855 27.8815ZM12.0068 27.8505L12.1305 27.9353L12.0068 27.8505ZM12.0374 27.7639L11.8894 27.7391L12.0374 27.7639ZM12.0716 27.5412L12.2207 27.558L12.0716 27.5412ZM12.078 27.485L11.9289 27.4681L12.078 27.485ZM12.0843 27.4288L12.2334 27.4457L12.0843 27.4288ZM12.149 27.2126L12.008 27.1613L12.149 27.2126ZM12.1546 27.0987L12.3009 27.0654L12.1546 27.0987ZM12.1271 26.9777L11.9808 27.011L12.1271 26.9777ZM12.1546 26.8686L12.0403 26.7715L12.1546 26.8686ZM12.2372 26.7713L12.3516 26.8684L12.2372 26.7713ZM12.2792 26.6652L12.1292 26.6636L12.2792 26.6652ZM12.2798 26.6078L12.4298 26.6094L12.2798 26.6078ZM12.2804 26.5504L12.1304 26.5488L12.2804 26.5504ZM12.2596 26.4415L12.3982 26.3839L12.2596 26.4415ZM12.2168 26.3384L12.0783 26.3959L12.2168 26.3384ZM12.1583 26.2445L12.0455 26.3434L12.1583 26.2445ZM12.1212 26.2022L12.0084 26.3011L12.1212 26.2022ZM12.0842 26.1599L12.197 26.061L12.0842 26.1599ZM11.9953 26.0886L11.9221 26.2195L11.9953 26.0886ZM11.8918 26.0307L11.8186 26.1616L11.8918 26.0307ZM11.8005 25.9617L11.6939 26.0672L11.8005 25.9617ZM11.7213 25.8817L11.6147 25.9871L11.7213 25.8817ZM11.6522 25.7925L11.5236 25.8697L11.6522 25.7925ZM11.5931 25.6941L11.4645 25.7713L11.5931 25.6941ZM11.5288 25.5975L11.4078 25.6861L11.5288 25.5975ZM11.4593 25.5026L11.5803 25.414L11.4593 25.5026ZM11.4808 25.4577L11.4742 25.6075L11.4808 25.4577ZM11.5933 25.4627L11.6 25.3128L11.5933 25.4627ZM11.7058 25.4809L11.7462 25.3364L11.7058 25.4809ZM12.1558 25.495L12.0926 25.631L12.1558 25.495ZM12.2121 25.5211L12.1488 25.6571L12.2121 25.5211ZM12.2683 25.5473L12.3316 25.4113L12.2683 25.5473ZM12.3751 25.54L12.4579 25.6651L12.3751 25.54ZM12.4762 25.4732L12.3935 25.348L12.4762 25.4732ZM12.5322 25.3834L12.6815 25.3975L12.5322 25.3834ZM12.5429 25.2706L12.6922 25.2848L12.5429 25.2706ZM12.5749 25.1624L12.4414 25.0938L12.5749 25.1624ZM12.6015 25.1106L12.7349 25.1791L12.6015 25.1106ZM12.6288 24.7137L12.7762 24.7412L12.6288 24.7137ZM12.6494 24.6031L12.5019 24.5756L12.6494 24.6031ZM12.6711 24.4927L12.5243 24.4621L12.6711 24.4927ZM12.694 24.3825L12.5472 24.352L12.694 24.3825ZM12.713 24.2715L12.5643 24.2515L12.713 24.2715ZM12.728 24.1597L12.8767 24.1797L12.728 24.1597ZM12.753 24.0622L12.6147 24.0041L12.753 24.0622ZM12.7705 24.0205L12.9088 24.0786L12.7705 24.0205ZM12.7879 23.9789L12.9262 24.037L12.7879 23.9789ZM12.8103 23.9384L12.7788 24.085L12.8103 23.9384ZM12.8201 23.9405L12.8516 23.7938L12.8201 23.9405ZM12.8494 23.9938L12.7134 24.0572L12.8494 23.9938ZM12.8737 24.0461L12.7378 24.1095L12.7622 24.1618L12.8981 24.0984L13.0341 24.0351L13.0097 23.9828L12.8737 24.0461ZM12.8981 24.0984L12.7622 24.1618C12.7702 24.1791 12.7744 24.1963 12.7752 24.2144L12.925 24.2077L13.0749 24.201C13.0723 24.1432 13.0585 24.0875 13.0341 24.0351L12.8981 24.0984ZM12.925 24.2077L12.7752 24.2144L12.7778 24.2714L12.9276 24.2647L13.0774 24.258L13.0749 24.201L12.925 24.2077ZM12.9276 24.2647L12.7778 24.2714L12.7803 24.3284L12.9302 24.3217L13.08 24.315L13.0774 24.258L12.9276 24.2647ZM12.9302 24.3217L12.7803 24.3284C12.7826 24.38 12.7918 24.4304 12.808 24.4794L12.9504 24.4324L13.0929 24.3854C13.0854 24.3627 13.0811 24.3394 13.08 24.315L12.9302 24.3217ZM12.9504 24.4324L12.808 24.4794L12.8257 24.5331L12.9681 24.4861L13.1106 24.4392L13.0929 24.3854L12.9504 24.4324ZM12.9681 24.4861L12.8257 24.5331L12.8434 24.5868L12.9858 24.5399L13.1283 24.4929L13.1106 24.4392L12.9681 24.4861ZM12.9858 24.5399L12.8434 24.5868C12.8521 24.6132 12.8581 24.6402 12.8614 24.6677L13.0103 24.6497L13.1593 24.6316C13.1535 24.5844 13.1432 24.5381 13.1283 24.4929L12.9858 24.5399ZM13.0103 24.6497L12.8614 24.6677L12.8682 24.7238L13.0171 24.7057L13.166 24.6877L13.1593 24.6316L13.0103 24.6497ZM13.0171 24.7057L12.8682 24.7238L12.875 24.7798L13.0239 24.7618L13.1728 24.7438L13.166 24.6877L13.0171 24.7057ZM13.0239 24.7618L12.875 24.7798C12.8782 24.8061 12.8786 24.8335 12.8758 24.8624L13.0251 24.8766L13.1745 24.8908C13.1792 24.8414 13.1787 24.7923 13.1728 24.7438L13.0239 24.7618ZM13.0251 24.8766L12.8758 24.8624L12.8702 24.9212L13.0196 24.9353L13.1689 24.9495L13.1745 24.8908L13.0251 24.8766ZM13.0196 24.9353L12.8702 24.9212L12.8647 24.9799L13.014 24.9941L13.1633 25.0083L13.1689 24.9495L13.0196 24.9353ZM13.014 24.9941L12.8647 24.9799C12.8593 25.0366 12.8638 25.0929 12.8793 25.1477L13.0237 25.1071L13.1681 25.0665C13.1631 25.0489 13.1613 25.0299 13.1633 25.0083L13.014 24.9941ZM13.0237 25.1071L12.8793 25.1477L12.8945 25.2019L13.0389 25.1613L13.1833 25.1207L13.1681 25.0665L13.0237 25.1071ZM13.0389 25.1613L12.8945 25.2019L12.9098 25.2562L13.0542 25.2156L13.1986 25.175L13.1833 25.1207L13.0389 25.1613ZM13.0542 25.2156L12.9098 25.2562C12.9205 25.2943 12.932 25.3322 12.9443 25.37L13.0869 25.3236L13.2296 25.2772C13.2185 25.2433 13.2082 25.2092 13.1986 25.175L13.0542 25.2156ZM13.0869 25.3236L12.9443 25.37L12.9618 25.4238L13.1044 25.3774L13.247 25.331L13.2296 25.2772L13.0869 25.3236ZM13.1044 25.3774L12.9618 25.4238L12.9792 25.4776L13.1219 25.4312L13.2645 25.3848L13.247 25.331L13.1044 25.3774ZM13.1219 25.4312L12.9792 25.4776C12.9925 25.5184 13.0162 25.5579 13.0535 25.5891C13.0906 25.6199 13.133 25.6359 13.1737 25.6425L13.1978 25.4944L13.2219 25.3464C13.2236 25.3467 13.234 25.3489 13.2457 25.3587C13.2577 25.3687 13.2629 25.3798 13.2645 25.3848L13.1219 25.4312ZM13.1978 25.4944L13.1737 25.6425L13.2321 25.652L13.2562 25.504L13.2803 25.3559L13.2219 25.3464L13.1978 25.4944ZM13.2562 25.504L13.2321 25.652L13.2905 25.6615L13.3146 25.5135L13.3387 25.3654L13.2803 25.3559L13.2562 25.504ZM13.3146 25.5135L13.2905 25.6615C13.3622 25.6732 13.4319 25.6612 13.4956 25.6297L13.4293 25.4952L13.3629 25.3607C13.3516 25.3663 13.3449 25.3664 13.3387 25.3654L13.3146 25.5135ZM13.4293 25.4952L13.4956 25.6297L13.5519 25.602L13.4855 25.4675L13.4191 25.3329L13.3629 25.3607L13.4293 25.4952ZM13.4855 25.4675L13.5519 25.602L13.6081 25.5742L13.5418 25.4397L13.4754 25.3052L13.4191 25.3329L13.4855 25.4675ZM13.5418 25.4397L13.6081 25.5742C13.6099 25.5734 13.6077 25.5747 13.6027 25.5749C13.5976 25.5751 13.5946 25.5738 13.5949 25.574L13.6543 25.4362L13.7136 25.2984C13.6346 25.2644 13.5512 25.2678 13.4754 25.3052L13.5418 25.4397ZM13.6543 25.4362L13.5949 25.574L13.6512 25.5982L13.7105 25.4604L13.7698 25.3226L13.7136 25.2984L13.6543 25.4362ZM13.7105 25.4604L13.6512 25.5982L13.7074 25.6224L13.7668 25.4846L13.8261 25.3468L13.7698 25.3226L13.7105 25.4604ZM13.7668 25.4846L13.7074 25.6224C13.7575 25.6439 13.8094 25.6582 13.8629 25.6641L13.8793 25.515L13.8956 25.3659C13.8741 25.3635 13.851 25.3576 13.8261 25.3468L13.7668 25.4846ZM13.8793 25.515L13.8629 25.6641L13.9191 25.6703L13.9355 25.5212L13.9519 25.3721L13.8956 25.3659L13.8793 25.515ZM13.9355 25.5212L13.9191 25.6703L13.9754 25.6765L13.9918 25.5274L14.0081 25.3783L13.9519 25.3721L13.9355 25.5212ZM13.9918 25.5274L13.9754 25.6765C14.0197 25.6813 14.0632 25.6828 14.1039 25.6785L14.0883 25.5293L14.0726 25.3802C14.0597 25.3815 14.0389 25.3817 14.0081 25.3783L13.9918 25.5274ZM14.0883 25.5293L14.1039 25.6785L14.1442 25.6743L14.1285 25.5251L14.1129 25.3759L14.0726 25.3802L14.0883 25.5293ZM14.1285 25.5251L14.1442 25.6743L14.1844 25.6701L14.1688 25.5209L14.1531 25.3717L14.1129 25.3759L14.1285 25.5251ZM14.1688 25.5209L14.1844 25.6701C14.1838 25.6701 14.1617 25.6732 14.1331 25.6628C14.1167 25.6569 14.0941 25.645 14.0744 25.6221C14.0538 25.5981 14.0437 25.5703 14.0409 25.5449C14.0362 25.502 14.0528 25.4729 14.0542 25.4703C14.058 25.4632 14.0605 25.4608 14.0576 25.4642L14.1731 25.56L14.2885 25.6558C14.2977 25.6448 14.309 25.6299 14.3184 25.6124C14.3254 25.5993 14.3445 25.5616 14.3391 25.5122C14.3359 25.4836 14.3246 25.453 14.3021 25.4268C14.2805 25.4015 14.2551 25.3879 14.2351 25.3807C14.1995 25.3678 14.1672 25.3702 14.1531 25.3717L14.1688 25.5209ZM14.1731 25.56L14.0576 25.4642L14.0217 25.5075L14.1371 25.6033L14.2525 25.6991L14.2885 25.6558L14.1731 25.56ZM14.1371 25.6033L14.0217 25.5075L13.9857 25.5509L14.1011 25.6467L14.2166 25.7425L14.2525 25.6991L14.1371 25.6033ZM14.1011 25.6467L13.9857 25.5509C13.9593 25.5827 13.9341 25.6155 13.91 25.6494L14.0324 25.7362L14.1547 25.823C14.1744 25.7953 14.195 25.7684 14.2166 25.7425L14.1011 25.6467ZM14.0324 25.7362L13.91 25.6494L13.8773 25.6956L13.9996 25.7824L14.122 25.8692L14.1547 25.823L14.0324 25.7362ZM13.9996 25.7824L13.8773 25.6956L13.8445 25.7419L13.9668 25.8287L14.0892 25.9154L14.122 25.8692L13.9996 25.7824ZM13.9668 25.8287L13.8445 25.7419C13.8408 25.7471 13.8346 25.7534 13.8198 25.7594L13.8763 25.8984L13.9328 26.0373C13.995 26.012 14.0491 25.9719 14.0892 25.9154L13.9668 25.8287ZM13.8763 25.8984L13.8198 25.7594L13.762 25.7829L13.8185 25.9219L13.8751 26.0608L13.9328 26.0373L13.8763 25.8984ZM13.8185 25.9219L13.762 25.7829L13.7043 25.8064L13.7608 25.9453L13.8173 26.0843L13.8751 26.0608L13.8185 25.9219ZM13.7608 25.9453L13.7043 25.8064C13.6128 25.8436 13.5589 25.9203 13.5443 26.0114L13.6924 26.0352L13.8405 26.059C13.8408 26.0567 13.8403 26.0623 13.8341 26.0704C13.8276 26.079 13.8203 26.0831 13.8173 26.0843L13.7608 25.9453ZM13.6924 26.0352L13.5443 26.0114L13.5336 26.0777L13.6817 26.1016L13.8298 26.1254L13.8405 26.059L13.6924 26.0352ZM13.6817 26.1016L13.5336 26.0777L13.5229 26.1441L13.671 26.1679L13.8191 26.1917L13.8298 26.1254L13.6817 26.1016ZM13.671 26.1679L13.5229 26.1441C13.5218 26.1512 13.5204 26.1527 13.5213 26.1511C13.5225 26.1491 13.5245 26.1469 13.5264 26.1456L13.6135 26.2677L13.7006 26.3898C13.77 26.3403 13.8068 26.2684 13.8191 26.1917L13.671 26.1679ZM13.6135 26.2677L13.5264 26.1456L13.4795 26.179L13.5667 26.3011L13.6538 26.4232L13.7006 26.3898L13.6135 26.2677ZM13.5667 26.3011L13.4795 26.179L13.4327 26.2124L13.5198 26.3345L13.6069 26.4566L13.6538 26.4232L13.5667 26.3011ZM13.5198 26.3345L13.4327 26.2124C13.3834 26.2476 13.3271 26.3069 13.3205 26.3953L13.4701 26.4064L13.6197 26.4175C13.6184 26.4347 13.6122 26.4475 13.6074 26.4545C13.6032 26.4605 13.6012 26.4607 13.6069 26.4566L13.5198 26.3345ZM13.4701 26.4064L13.3205 26.3953L13.3177 26.4338L13.4673 26.4449L13.6169 26.456L13.6197 26.4175L13.4701 26.4064ZM13.4673 26.4449L13.3177 26.4338L13.3148 26.4722L13.4644 26.4833L13.614 26.4944L13.6169 26.456L13.4673 26.4449ZM13.4644 26.4833L13.3148 26.4722C13.3118 26.5137 13.3154 26.5576 13.3226 26.6015L13.4706 26.5774L13.6187 26.5533C13.6137 26.523 13.6133 26.5043 13.614 26.4944L13.4644 26.4833ZM13.4706 26.5774L13.3226 26.6015L13.3316 26.6571L13.4797 26.633L13.6277 26.6089L13.6187 26.5533L13.4706 26.5774ZM13.4797 26.633L13.3316 26.6571L13.3407 26.7127L13.4887 26.6886L13.6368 26.6644L13.6277 26.6089L13.4797 26.633ZM13.4887 26.6886L13.3407 26.7127C13.346 26.7452 13.3498 26.7782 13.3522 26.8115L13.5018 26.8008L13.6514 26.7901C13.6484 26.7479 13.6435 26.706 13.6368 26.6644L13.4887 26.6886ZM13.5018 26.8008L13.3522 26.8115L13.3563 26.8682L13.5059 26.8575L13.6555 26.8468L13.6514 26.7901L13.5018 26.8008ZM13.5059 26.8575L13.3563 26.8682L13.3603 26.9248L13.5099 26.9141L13.6595 26.9034L13.6555 26.8468L13.5059 26.8575ZM13.5099 26.9141L13.3603 26.9248C13.3615 26.9417 13.3596 26.9625 13.3516 26.9882L13.4949 27.0324L13.6383 27.0767C13.6557 27.0202 13.6637 26.9621 13.6595 26.9034L13.5099 26.9141ZM13.4949 27.0324L13.3516 26.9882L13.3326 27.0498L13.4759 27.094L13.6193 27.1383L13.6383 27.0767L13.4949 27.0324ZM13.4759 27.094L13.3326 27.0498L13.3136 27.1114L13.4569 27.1557L13.6002 27.1999L13.6193 27.1383L13.4759 27.094ZM13.4569 27.1557L13.3136 27.1114C13.2896 27.1891 13.2953 27.271 13.3392 27.3449L13.4682 27.2683L13.5972 27.1918C13.5977 27.1926 13.5991 27.1957 13.5995 27.1997C13.5998 27.2035 13.599 27.204 13.6002 27.1999L13.4569 27.1557ZM13.4682 27.2683L13.3392 27.3449L13.3695 27.3959L13.4984 27.3193L13.6274 27.2428L13.5972 27.1918L13.4682 27.2683ZM13.4984 27.3193L13.3695 27.3959L13.3997 27.4469L13.5287 27.3704L13.6577 27.2938L13.6274 27.2428L13.4984 27.3193ZM13.5287 27.3704L13.3997 27.4469C13.4174 27.4766 13.4331 27.5065 13.447 27.5366L13.5832 27.4737L13.7194 27.4109C13.701 27.3712 13.6805 27.3321 13.6577 27.2938L13.5287 27.3704ZM13.5832 27.4737L13.447 27.5366L13.4711 27.5889L13.6073 27.5261L13.7435 27.4632L13.7194 27.4109L13.5832 27.4737ZM13.6073 27.5261L13.4711 27.5889L13.4953 27.6413L13.6315 27.5784L13.7677 27.5156L13.7435 27.4632L13.6073 27.5261ZM13.6315 27.5784L13.4953 27.6413C13.5085 27.67 13.5196 27.699 13.5284 27.7283L13.672 27.6848L13.8155 27.6413C13.8026 27.5985 13.7866 27.5566 13.7677 27.5156L13.6315 27.5784ZM13.672 27.6848L13.5284 27.7283L13.5448 27.7823L13.6884 27.7388L13.8319 27.6953L13.8155 27.6413L13.672 27.6848ZM13.6884 27.7388L13.5448 27.7823L13.5612 27.8363L13.7047 27.7928L13.8483 27.7493L13.8319 27.6953L13.6884 27.7388ZM13.7047 27.7928L13.5612 27.8363C13.5637 27.8447 13.5616 27.842 13.5621 27.8317C13.5627 27.8198 13.5672 27.7953 13.5876 27.7719L13.7009 27.8701L13.8142 27.9684C13.8819 27.8904 13.862 27.7946 13.8483 27.7493L13.7047 27.7928ZM13.7009 27.8701L13.5876 27.7719L13.5674 27.7951L13.6807 27.8934L13.794 27.9917L13.8142 27.9684L13.7009 27.8701ZM13.6807 27.8934L13.5674 27.7951L13.5472 27.8184L13.6605 27.9167L13.7738 28.015L13.794 27.9917L13.6807 27.8934ZM13.6605 27.9167L13.5472 27.8184C13.5569 27.8073 13.581 27.784 13.622 27.7762C13.6663 27.7677 13.7024 27.7825 13.7229 27.7963C13.7409 27.8084 13.7496 27.821 13.7512 27.8234C13.7536 27.8268 13.7536 27.8276 13.7517 27.8235L13.6156 27.8864L13.4794 27.9494C13.4886 27.9692 13.5107 28.0151 13.5554 28.0452C13.5835 28.0641 13.6268 28.0807 13.6783 28.0709C13.7263 28.0617 13.7574 28.0339 13.7738 28.015L13.6605 27.9167ZM13.6156 27.8864L13.7517 27.8235L13.7269 27.7699L13.5908 27.8329L13.4547 27.8959L13.4794 27.9494L13.6156 27.8864ZM13.5908 27.8329L13.7269 27.7699L13.7022 27.7164L13.566 27.7794L13.4299 27.8424L13.4547 27.8959L13.5908 27.8329ZM13.566 27.7794L13.7022 27.7164C13.6671 27.6405 13.6052 27.5893 13.5302 27.5632L13.4808 27.7048L13.4315 27.8465C13.4358 27.848 13.4356 27.8487 13.4336 27.8469C13.4326 27.846 13.4317 27.845 13.431 27.844C13.4302 27.843 13.4299 27.8423 13.4299 27.8424L13.566 27.7794ZM13.4808 27.7048L13.5302 27.5632L13.4697 27.5421L13.4204 27.6838L13.3711 27.8254L13.4315 27.8465L13.4808 27.7048ZM13.4204 27.6838L13.4697 27.5421L13.4093 27.5211L13.36 27.6627L13.3106 27.8044L13.3711 27.8254L13.4204 27.6838ZM13.36 27.6627L13.4093 27.5211C13.4075 27.5204 13.4109 27.5214 13.4156 27.526C13.4178 27.5282 13.4195 27.5305 13.4208 27.5326C13.422 27.5346 13.4225 27.5359 13.4225 27.536L13.2802 27.5833L13.1378 27.6305C13.166 27.7157 13.2284 27.7757 13.3106 27.8044L13.36 27.6627ZM13.2802 27.5833L13.4225 27.536L13.4031 27.4776L13.2608 27.5248L13.1184 27.572L13.1378 27.6305L13.2802 27.5833ZM13.2608 27.5248L13.4031 27.4776L13.3838 27.4192L13.2414 27.4664L13.099 27.5136L13.1184 27.572L13.2608 27.5248ZM13.2414 27.4664L13.3838 27.4192C13.3643 27.3605 13.3333 27.3072 13.2895 27.2626L13.1825 27.3678L13.0756 27.473C13.0844 27.4819 13.0926 27.4944 13.099 27.5136L13.2414 27.4664ZM13.1825 27.3678L13.2895 27.2626L13.25 27.2225L13.1431 27.3277L13.0361 27.4329L13.0756 27.473L13.1825 27.3678ZM13.1431 27.3277L13.25 27.2225L13.2105 27.1824L13.1036 27.2876L12.9967 27.3928L13.0361 27.4329L13.1431 27.3277ZM13.1036 27.2876L13.2105 27.1824C13.1683 27.1395 13.118 27.1074 13.0624 27.085L13.0062 27.2241L12.9501 27.3632C12.9717 27.3719 12.9863 27.3822 12.9967 27.3928L13.1036 27.2876ZM13.0062 27.2241L13.0624 27.085L13.0045 27.0616L12.9484 27.2007L12.8922 27.3398L12.9501 27.3632L13.0062 27.2241ZM12.9484 27.2007L13.0045 27.0616L12.9467 27.0382L12.8905 27.1773L12.8343 27.3164L12.8922 27.3398L12.9484 27.2007ZM12.8905 27.1773L12.9467 27.0382C12.9094 27.0232 12.8632 27.0061 12.8225 27.0024L12.8087 27.1517L12.7948 27.3011C12.7901 27.3006 12.7878 27.3 12.7889 27.3003C12.7898 27.3005 12.7921 27.3011 12.7963 27.3024C12.8048 27.305 12.8172 27.3095 12.8343 27.3164L12.8905 27.1773ZM12.8087 27.1517L12.8225 27.0024L12.7986 27.0001L12.7848 27.1495L12.7709 27.2989L12.7948 27.3011L12.8087 27.1517ZM12.7848 27.1495L12.7986 27.0001L12.7747 26.9979L12.7608 27.1473L12.747 27.2966L12.7709 27.2989L12.7848 27.1495ZM12.7608 27.1473L12.7747 26.9979C12.7294 26.9937 12.6916 27.0074 12.669 27.0178C12.6443 27.0291 12.6215 27.044 12.6014 27.059L12.691 27.1793L12.7805 27.2996C12.7911 27.2917 12.7952 27.2899 12.7939 27.2906C12.7929 27.291 12.7887 27.2929 12.7817 27.2945C12.7747 27.2961 12.7626 27.2981 12.747 27.2966L12.7608 27.1473ZM12.691 27.1793L12.6014 27.059L12.5554 27.0932L12.645 27.2135L12.7346 27.3338L12.7805 27.2996L12.691 27.1793ZM12.645 27.2135L12.5554 27.0932L12.5094 27.1274L12.599 27.2477L12.6886 27.368L12.7346 27.3338L12.645 27.2135ZM12.599 27.2477L12.5094 27.1274C12.4732 27.1544 12.4391 27.1837 12.4074 27.2153L12.5131 27.3217L12.6189 27.428C12.6404 27.4067 12.6636 27.3867 12.6886 27.368L12.599 27.2477ZM12.5131 27.3217L12.4074 27.2153L12.3674 27.255L12.4732 27.3614L12.5789 27.4677L12.6189 27.428L12.5131 27.3217ZM12.4732 27.3614L12.3674 27.255L12.3275 27.2947L12.4332 27.4011L12.539 27.5075L12.5789 27.4677L12.4732 27.3614ZM12.4332 27.4011L12.3275 27.2947C12.2947 27.3273 12.2648 27.3626 12.2381 27.4006L12.3606 27.4871L12.4831 27.5736C12.5 27.5498 12.5186 27.5278 12.539 27.5075L12.4332 27.4011ZM12.3606 27.4871L12.2381 27.4006L12.2054 27.4469L12.3279 27.5334L12.4504 27.6199L12.4831 27.5736L12.3606 27.4871ZM12.3279 27.5334L12.2054 27.4469L12.1727 27.4932L12.2952 27.5797L12.4178 27.6662L12.4504 27.6199L12.3279 27.5334ZM12.2952 27.5797L12.1727 27.4932C12.1402 27.5392 12.1167 27.5904 12.101 27.6452L12.2453 27.6864L12.3895 27.7276C12.3969 27.7018 12.4067 27.6819 12.4178 27.6662L12.2952 27.5797ZM12.2453 27.6864L12.101 27.6452L12.0838 27.7055L12.228 27.7467L12.3723 27.7879L12.3895 27.7276L12.2453 27.6864ZM12.228 27.7467L12.0838 27.7055L12.0666 27.7659L12.2108 27.8071L12.355 27.8483L12.3723 27.7879L12.228 27.7467ZM12.2108 27.8071L12.0666 27.7659C12.067 27.7643 12.0696 27.7576 12.0764 27.7508C12.0831 27.7441 12.0886 27.7426 12.0873 27.743L12.1309 27.8865L12.1745 28.03C12.2625 28.0033 12.3288 27.94 12.355 27.8483L12.2108 27.8071ZM12.1309 27.8865L12.0873 27.743L12.0246 27.762L12.0682 27.9055L12.1118 28.0491L12.1745 28.03L12.1309 27.8865ZM12.0682 27.9055L12.0246 27.762L11.962 27.7811L12.0056 27.9246L12.0492 28.0681L12.1118 28.0491L12.0682 27.9055ZM12.0056 27.9246L11.962 27.7811C11.955 27.7832 11.9537 27.7832 11.9563 27.7828C11.9578 27.7825 11.9624 27.7819 11.9692 27.7818C11.9752 27.7818 11.9888 27.7821 12.0057 27.787C12.0229 27.792 12.0514 27.8041 12.0754 27.8329C12.1011 27.8638 12.1093 27.8992 12.1088 27.9274C12.1084 27.9525 12.1014 27.971 12.0977 27.9794C12.0937 27.9887 12.0896 27.9949 12.0879 27.9974L11.9642 27.9126L11.8405 27.8278C11.8344 27.8367 11.8096 27.8723 11.8088 27.9226C11.8083 27.9538 11.8173 27.9918 11.8447 28.0247C11.8704 28.0556 11.9015 28.0692 11.9221 28.0752C11.9585 28.0857 11.9909 28.081 12.0027 28.0792C12.0192 28.0766 12.0353 28.0723 12.0492 28.0681L12.0056 27.9246ZM11.9642 27.9126L12.0879 27.9974L12.1092 27.9664L11.9855 27.8815L11.8618 27.7967L11.8405 27.8278L11.9642 27.9126ZM11.9855 27.8815L12.1092 27.9664L12.1305 27.9353L12.0068 27.8505L11.8831 27.7657L11.8618 27.7967L11.9855 27.8815ZM12.0068 27.8505L12.1305 27.9353C12.1616 27.8899 12.1771 27.8375 12.1853 27.7887L12.0374 27.7639L11.8894 27.7391C11.8874 27.7509 11.8853 27.7587 11.8836 27.7634C11.882 27.7681 11.8813 27.7682 11.8831 27.7657L12.0068 27.8505ZM12.0374 27.7639L12.1853 27.7887L12.1946 27.7332L12.0467 27.7084L11.8987 27.6836L11.8894 27.7391L12.0374 27.7639ZM12.0467 27.7084L12.1946 27.7332L12.2039 27.6777L12.056 27.6529L11.908 27.6281L11.8987 27.6836L12.0467 27.7084ZM12.056 27.6529L12.2039 27.6777C12.2106 27.638 12.2161 27.5981 12.2207 27.558L12.0716 27.5412L11.9226 27.5243C11.9186 27.5591 11.9138 27.5937 11.908 27.6281L12.056 27.6529ZM12.0716 27.5412L12.2207 27.558L12.227 27.5018L12.078 27.485L11.9289 27.4681L11.9226 27.5243L12.0716 27.5412ZM12.078 27.485L12.227 27.5018L12.2334 27.4457L12.0843 27.4288L11.9353 27.412L11.9289 27.4681L12.078 27.485ZM12.0843 27.4288L12.2334 27.4457C12.2363 27.42 12.2421 27.3951 12.2511 27.3706L12.1101 27.3193L11.9692 27.268C11.9522 27.3146 11.9409 27.3627 11.9353 27.412L12.0843 27.4288ZM12.1101 27.3193L12.2511 27.3706L12.2705 27.3173L12.1295 27.2659L11.9886 27.2146L11.9692 27.268L12.1101 27.3193ZM12.1295 27.2659L12.2705 27.3173L12.2899 27.2639L12.149 27.2126L12.008 27.1613L11.9886 27.2146L12.1295 27.2659ZM12.149 27.2126L12.2899 27.2639C12.3136 27.1987 12.3159 27.1312 12.3009 27.0654L12.1546 27.0987L12.0084 27.132C12.0118 27.1469 12.0102 27.1553 12.008 27.1613L12.149 27.2126ZM12.1546 27.0987L12.3009 27.0654L12.2871 27.0049L12.1408 27.0382L11.9946 27.0715L12.0084 27.132L12.1546 27.0987ZM12.1408 27.0382L12.2871 27.0049L12.2733 26.9444L12.1271 26.9777L11.9808 27.011L11.9946 27.0715L12.1408 27.0382ZM12.1271 26.9777L12.2733 26.9444C12.2733 26.9444 12.2736 26.9458 12.2736 26.9482C12.2736 26.9507 12.2733 26.9537 12.2725 26.9569C12.2708 26.9638 12.268 26.9668 12.269 26.9657L12.1546 26.8686L12.0403 26.7715C11.9832 26.8387 11.9608 26.9231 11.9808 27.011L12.1271 26.9777ZM12.1546 26.8686L12.269 26.9657L12.3103 26.917L12.1959 26.8199L12.0816 26.7228L12.0403 26.7715L12.1546 26.8686ZM12.1959 26.8199L12.3103 26.917L12.3516 26.8684L12.2372 26.7713L12.1229 26.6742L12.0816 26.7228L12.1959 26.8199ZM12.2372 26.7713L12.3516 26.8684C12.3991 26.8124 12.4283 26.7441 12.4292 26.6668L12.2792 26.6652L12.1292 26.6636C12.1292 26.6645 12.1291 26.6648 12.1289 26.6653C12.1286 26.666 12.1273 26.669 12.1229 26.6742L12.2372 26.7713ZM12.2792 26.6652L12.4292 26.6668L12.4298 26.6094L12.2798 26.6078L12.1298 26.6062L12.1292 26.6636L12.2792 26.6652ZM12.2798 26.6078L12.4298 26.6094L12.4304 26.552L12.2804 26.5504L12.1304 26.5488L12.1298 26.6062L12.2798 26.6078ZM12.2804 26.5504L12.4304 26.552C12.431 26.4941 12.4204 26.4376 12.3982 26.3839L12.2596 26.4415L12.1211 26.499C12.1274 26.5141 12.1306 26.5302 12.1304 26.5488L12.2804 26.5504ZM12.2596 26.4415L12.3982 26.3839L12.3767 26.3324L12.2382 26.3899L12.0997 26.4475L12.1211 26.499L12.2596 26.4415ZM12.2382 26.3899L12.3767 26.3324L12.3553 26.2808L12.2168 26.3384L12.0783 26.3959L12.0997 26.4475L12.2382 26.3899ZM12.2168 26.3384L12.3553 26.2808C12.3347 26.2313 12.3065 26.1861 12.2711 26.1457L12.1583 26.2445L12.0455 26.3434C12.0595 26.3594 12.0703 26.3768 12.0783 26.3959L12.2168 26.3384ZM12.1583 26.2445L12.2711 26.1457L12.2341 26.1034L12.1212 26.2022L12.0084 26.3011L12.0455 26.3434L12.1583 26.2445ZM12.1212 26.2022L12.2341 26.1034L12.197 26.061L12.0842 26.1599L11.9713 26.2587L12.0084 26.3011L12.1212 26.2022ZM12.0842 26.1599L12.197 26.061C12.1604 26.0193 12.1172 25.9849 12.0686 25.9577L11.9953 26.0886L11.9221 26.2195C11.9425 26.2309 11.9585 26.2441 11.9713 26.2587L12.0842 26.1599ZM11.9953 26.0886L12.0686 25.9577L12.0168 25.9288L11.9436 26.0597L11.8703 26.1906L11.9221 26.2195L11.9953 26.0886ZM11.9436 26.0597L12.0168 25.9288L11.9651 25.8998L11.8918 26.0307L11.8186 26.1616L11.8703 26.1906L11.9436 26.0597ZM11.8918 26.0307L11.9651 25.8998C11.9422 25.887 11.9231 25.8724 11.9072 25.8562L11.8005 25.9617L11.6939 26.0672C11.7306 26.1044 11.7725 26.1358 11.8186 26.1616L11.8918 26.0307ZM11.8005 25.9617L11.9072 25.8562L11.8676 25.8162L11.7609 25.9217L11.6543 26.0272L11.6939 26.0672L11.8005 25.9617ZM11.7609 25.9217L11.8676 25.8162L11.828 25.7762L11.7213 25.8817L11.6147 25.9871L11.6543 26.0272L11.7609 25.9217ZM11.7213 25.8817L11.828 25.7762C11.8102 25.7582 11.7944 25.738 11.7808 25.7152L11.6522 25.7925L11.5236 25.8697C11.5494 25.9125 11.5797 25.9518 11.6147 25.9871L11.7213 25.8817ZM11.6522 25.7925L11.7808 25.7152L11.7513 25.666L11.6227 25.7433L11.4941 25.8205L11.5236 25.8697L11.6522 25.7925ZM11.6227 25.7433L11.7513 25.666L11.7217 25.6169L11.5931 25.6941L11.4645 25.7713L11.4941 25.8205L11.6227 25.7433ZM11.5931 25.6941L11.7217 25.6169C11.6996 25.5801 11.6756 25.5441 11.6498 25.5088L11.5288 25.5975L11.4078 25.6861C11.4284 25.7142 11.4473 25.7426 11.4645 25.7713L11.5931 25.6941ZM11.5288 25.5975L11.6498 25.5088L11.6151 25.4614L11.4941 25.5501L11.3731 25.6387L11.4078 25.6861L11.5288 25.5975ZM11.4941 25.5501L11.6151 25.4614L11.5803 25.414L11.4593 25.5026L11.3383 25.5913L11.3731 25.6387L11.4941 25.5501ZM11.4593 25.5026L11.5803 25.414C11.5788 25.412 11.5846 25.419 11.5895 25.4333C11.5942 25.4469 11.6045 25.4867 11.5826 25.5324C11.5597 25.5803 11.5194 25.5979 11.5012 25.6033C11.4918 25.6061 11.4844 25.607 11.4807 25.6073C11.4767 25.6077 11.4744 25.6075 11.4742 25.6075L11.4808 25.4577L11.4875 25.3078C11.4703 25.3071 11.4439 25.3073 11.4155 25.3158C11.3862 25.3246 11.3385 25.3476 11.312 25.403C11.2865 25.4562 11.2971 25.5055 11.3058 25.5308C11.3147 25.5567 11.3282 25.5775 11.3383 25.5913L11.4593 25.5026ZM11.4808 25.4577L11.4742 25.6075L11.5304 25.61L11.5371 25.4602L11.5437 25.3103L11.4875 25.3078L11.4808 25.4577ZM11.5371 25.4602L11.5304 25.61L11.5867 25.6125L11.5933 25.4627L11.6 25.3128L11.5437 25.3103L11.5371 25.4602ZM11.5933 25.4627L11.5867 25.6125C11.6123 25.6137 11.6385 25.6178 11.6654 25.6254L11.7058 25.4809L11.7462 25.3364C11.6981 25.323 11.6493 25.315 11.6 25.3128L11.5933 25.4627ZM11.7058 25.4809L11.6654 25.6254L11.7217 25.6411L11.7621 25.4966L11.8025 25.3522L11.7462 25.3364L11.7058 25.4809ZM11.7621 25.4966L11.7217 25.6411L11.7779 25.6568L11.8183 25.5124L11.8587 25.3679L11.8025 25.3522L11.7621 25.4966ZM11.8183 25.5124L11.7779 25.6568C11.841 25.6745 11.9056 25.675 11.969 25.6583L11.9308 25.5133L11.8926 25.3682C11.881 25.3713 11.8706 25.3712 11.8587 25.3679L11.8183 25.5124ZM11.9308 25.5133L11.969 25.6583L12.0253 25.6435L11.9871 25.4984L11.9489 25.3534L11.8926 25.3682L11.9308 25.5133ZM11.9871 25.4984L12.0253 25.6435L12.0815 25.6287L12.0433 25.4836L12.0051 25.3386L11.9489 25.3534L11.9871 25.4984ZM12.0433 25.4836L12.0815 25.6287C12.0834 25.6282 12.0842 25.6283 12.0845 25.6283C12.085 25.6283 12.0876 25.6286 12.0926 25.631L12.1558 25.495L12.2191 25.359C12.1521 25.3278 12.0788 25.3192 12.0051 25.3386L12.0433 25.4836ZM12.1558 25.495L12.0926 25.631L12.1488 25.6571L12.2121 25.5211L12.2753 25.3851L12.2191 25.359L12.1558 25.495ZM12.2121 25.5211L12.1488 25.6571L12.2051 25.6833L12.2683 25.5473L12.3316 25.4113L12.2753 25.3851L12.2121 25.5211ZM12.2683 25.5473L12.2051 25.6833C12.2885 25.7221 12.3794 25.717 12.4579 25.6651L12.3751 25.54L12.2924 25.4149C12.2943 25.4136 12.3016 25.4097 12.313 25.4089C12.3242 25.4081 12.3311 25.411 12.3316 25.4113L12.2683 25.5473ZM12.3751 25.54L12.4579 25.6651L12.5084 25.6317L12.4257 25.5066L12.343 25.3815L12.2924 25.4149L12.3751 25.54ZM12.4257 25.5066L12.5084 25.6317L12.559 25.5983L12.4762 25.4732L12.3935 25.348L12.343 25.3815L12.4257 25.5066ZM12.4762 25.4732L12.559 25.5983C12.6275 25.553 12.6733 25.4838 12.6815 25.3975L12.5322 25.3834L12.3828 25.3692C12.3831 25.3665 12.3844 25.3608 12.3882 25.3547C12.3918 25.3489 12.395 25.3471 12.3935 25.348L12.4762 25.4732ZM12.5322 25.3834L12.6815 25.3975L12.6869 25.3412L12.5375 25.327L12.3882 25.3128L12.3828 25.3692L12.5322 25.3834ZM12.5375 25.327L12.6869 25.3412L12.6922 25.2848L12.5429 25.2706L12.3936 25.2564L12.3882 25.3128L12.5375 25.327ZM12.5429 25.2706L12.6922 25.2848C12.6939 25.2667 12.699 25.249 12.7083 25.2309L12.5749 25.1624L12.4414 25.0938C12.4152 25.1448 12.399 25.1993 12.3936 25.2564L12.5429 25.2706ZM12.5749 25.1624L12.7083 25.2309L12.7349 25.1791L12.6015 25.1106L12.4681 25.042L12.4414 25.0938L12.5749 25.1624ZM12.6015 25.1106L12.7349 25.1791L12.7615 25.1273L12.6281 25.0588L12.4947 24.9902L12.4681 25.042L12.6015 25.1106ZM12.6281 25.0588L12.7615 25.1273C12.7942 25.0637 12.8046 24.9946 12.794 24.9249L12.6457 24.9475L12.4974 24.9701C12.4988 24.9796 12.4975 24.9847 12.4947 24.9902L12.6281 25.0588ZM12.6457 24.9475L12.794 24.9249L12.7849 24.8654L12.6366 24.888L12.4883 24.9106L12.4974 24.9701L12.6457 24.9475ZM12.6366 24.888L12.7849 24.8654L12.7758 24.8059L12.6275 24.8285L12.4793 24.8511L12.4883 24.9106L12.6366 24.888ZM12.6275 24.8285L12.7758 24.8059C12.7721 24.7817 12.7727 24.7604 12.7762 24.7412L12.6288 24.7137L12.4813 24.6863C12.4712 24.7408 12.4709 24.796 12.4793 24.8511L12.6275 24.8285ZM12.6288 24.7137L12.7762 24.7412L12.7865 24.6858L12.6391 24.6584L12.4916 24.6309L12.4813 24.6863L12.6288 24.7137ZM12.6391 24.6584L12.7865 24.6858L12.7968 24.6305L12.6494 24.6031L12.5019 24.5756L12.4916 24.6309L12.6391 24.6584ZM12.6494 24.6031L12.7968 24.6305C12.8035 24.5947 12.8106 24.5589 12.818 24.5232L12.6711 24.4927L12.5243 24.4621C12.5164 24.4999 12.509 24.5377 12.5019 24.5756L12.6494 24.6031ZM12.6711 24.4927L12.818 24.5232L12.8294 24.4681L12.6826 24.4376L12.5357 24.4071L12.5243 24.4621L12.6711 24.4927ZM12.6826 24.4376L12.8294 24.4681L12.8409 24.4131L12.694 24.3825L12.5472 24.352L12.5357 24.4071L12.6826 24.4376ZM12.694 24.3825L12.8409 24.4131C12.8492 24.3728 12.8562 24.3323 12.8617 24.2915L12.713 24.2715L12.5643 24.2515C12.5598 24.2853 12.5541 24.3188 12.5472 24.352L12.694 24.3825ZM12.713 24.2715L12.8617 24.2915L12.8692 24.2356L12.7205 24.2156L12.5718 24.1956L12.5643 24.2515L12.713 24.2715ZM12.7205 24.2156L12.8692 24.2356L12.8767 24.1797L12.728 24.1597L12.5794 24.1397L12.5718 24.1956L12.7205 24.2156ZM12.728 24.1597L12.8767 24.1797C12.8804 24.1524 12.8859 24.1332 12.8913 24.1202L12.753 24.0622L12.6147 24.0041C12.5969 24.0466 12.5857 24.0925 12.5794 24.1397L12.728 24.1597ZM12.753 24.0622L12.8913 24.1202L12.9088 24.0786L12.7705 24.0205L12.6321 23.9625L12.6147 24.0041L12.753 24.0622ZM12.7705 24.0205L12.9088 24.0786L12.9262 24.037L12.7879 23.9789L12.6496 23.9209L12.6321 23.9625L12.7705 24.0205ZM12.7879 23.9789L12.9262 24.037C12.9315 24.0243 12.9338 24.02 12.9336 24.0204C12.9334 24.0209 12.9325 24.0224 12.931 24.0247C12.9297 24.0268 12.9267 24.0312 12.9221 24.0368C12.9184 24.0412 12.9083 24.0529 12.8916 24.0639C12.8765 24.0739 12.8348 24.0971 12.7788 24.085L12.8103 23.9384L12.8418 23.7917C12.7849 23.7795 12.7423 23.803 12.7261 23.8137C12.7084 23.8254 12.697 23.8383 12.692 23.8443C12.6813 23.8571 12.6742 23.8696 12.6709 23.8756C12.6632 23.8895 12.6559 23.9058 12.6496 23.9209L12.7879 23.9789ZM12.8103 23.9384L12.7788 24.085L12.7837 24.0861L12.8152 23.9394L12.8467 23.7928L12.8418 23.7917L12.8103 23.9384ZM12.8152 23.9394L12.7837 24.0861L12.7886 24.0871L12.8201 23.9405L12.8516 23.7938L12.8467 23.7928L12.8152 23.9394ZM12.8201 23.9405L12.7886 24.0871C12.7623 24.0815 12.744 24.0701 12.7351 24.064C12.7254 24.0572 12.7185 24.0506 12.7147 24.0467C12.7072 24.0391 12.7025 24.0326 12.7011 24.0306C12.698 24.0261 12.6969 24.0238 12.6984 24.0265C12.7008 24.031 12.7057 24.0406 12.7134 24.0572L12.8494 23.9938L12.9853 23.9305C12.9768 23.9122 12.9686 23.8955 12.9614 23.8822C12.958 23.876 12.9528 23.8669 12.9464 23.8578C12.9434 23.8535 12.9373 23.8453 12.9286 23.8364C12.9254 23.8332 12.8983 23.8039 12.8516 23.7938L12.8201 23.9405ZM12.8494 23.9938L12.7134 24.0572L12.7378 24.1095L12.8737 24.0461L13.0097 23.9828L12.9853 23.9305L12.8494 23.9938Z" fill="var(--stroke-0, white)"/>
</g>
<g id="Ellipse 21">
<ellipse cx="11.935" cy="11.7667" rx="3.56076" ry="3.84468" fill="var(--fill-0, white)"/>
<path d="M15.48 12.3326L14.9802 12.3186L15.48 12.3326ZM15.4283 12.7054L15.9131 12.8276L15.4283 12.7054ZM15.3354 13.0737L14.8506 12.9514L15.3354 13.0737ZM15.2405 13.4508L15.7254 13.5727L15.2405 13.4508ZM15.1434 13.8366L14.6585 13.7147L15.1434 13.8366ZM15.0087 14.2198L14.5533 14.0136L15.0087 14.2198ZM14.8364 14.6005L15.2919 14.8067L14.8364 14.6005ZM14.5513 14.8693L14.3677 14.4042L14.5513 14.8693ZM14.3523 14.9479L14.5359 15.4129L14.3523 14.9479ZM14.1534 15.0264L14.337 15.4915L14.1534 15.0264ZM13.7378 15.0884L13.6997 15.5869L13.7378 15.0884ZM13.5212 15.0719L13.4831 15.5704L13.5212 15.0719ZM13.3046 15.0553L13.3427 14.5568L13.3046 15.0553ZM12.9608 15.283L12.5174 15.0519L12.9608 15.283ZM12.8335 15.5272L12.3901 15.2961L12.8335 15.5272ZM12.7063 15.7714L13.1497 16.0024L12.7063 15.7714ZM12.3762 15.849L12.0589 16.2355L12.3762 15.849ZM12.1733 15.6825L11.856 16.0689L12.1733 15.6825ZM11.9704 15.5159L12.2877 15.1295L11.9704 15.5159ZM11.5561 15.4639L11.318 15.0243L11.5561 15.4639ZM11.3447 15.5785L11.5829 16.0181L11.3447 15.5785ZM10.8098 15.5864L11.2558 15.3604L10.8098 15.5864ZM10.5857 15.1441L10.1397 15.37L10.5857 15.1441ZM10.3275 14.8324L10.5906 14.4073L10.3275 14.8324ZM10.0351 14.6514L9.77195 15.0766L10.0351 14.6514ZM9.79091 14.4185L10.2028 14.1351L9.79091 14.4185ZM9.59497 14.1338L9.18305 14.4172L9.59497 14.1338ZM9.28433 13.9096L9.46366 13.4429L9.28433 13.9096ZM8.85896 13.7462L8.67963 14.2129L8.85896 13.7462ZM8.68185 13.4525L8.18874 13.3698L8.68185 13.4525ZM8.27997 11.9797L7.80424 11.8258L8.27997 11.9797ZM8.36815 11.1941L7.91107 11.3968L8.36815 11.1941ZM8.44108 10.2592L8.1307 9.86725L8.44108 10.2592ZM8.93936 9.84498L8.59779 9.47983L8.93936 9.84498ZM9.07684 9.71637L9.41841 10.0815L9.07684 9.71637ZM9.21432 9.58777L8.87276 9.22262L9.21432 9.58777ZM9.45253 9.30777L9.03624 9.03082L9.45253 9.30777ZM9.55325 9.15638L9.13696 8.87943L9.55325 9.15638ZM9.88416 8.71405L9.51762 8.37398L9.88416 8.71405ZM10.1431 8.43496L9.77656 8.09489L10.1431 8.43496ZM10.4191 8.12332L10.0384 7.79916L10.4191 8.12332ZM10.5656 7.95122L10.9463 8.27538L10.5656 7.95122ZM10.7122 7.77913L10.3315 7.45497L10.7122 7.77913ZM11.911 7.92671L12.0165 7.43798L11.911 7.92671ZM13.4048 8.12176L12.9651 8.3598L13.4048 8.12176ZM14.0711 8.86797L14.2742 8.41107L14.0711 8.86797ZM14.2439 8.94475L14.0408 9.40166L14.2439 8.94475ZM14.5711 9.14398L14.2605 9.53581L14.5711 9.14398ZM14.8801 9.38887L14.5695 9.7807L14.8801 9.38887ZM15.0287 9.72282L15.5285 9.73663L15.0287 9.72282ZM15.0228 9.93432L15.5227 9.94814L15.0228 9.93432ZM15.017 10.1458L14.5172 10.132L15.017 10.1458ZM15.1237 10.5154L15.531 10.2255L15.1237 10.5154ZM15.3487 10.8316L14.9414 11.1215L15.3487 10.8316ZM15.5846 11.1772L15.1669 11.452L15.5846 11.1772ZM15.8313 11.5521L16.249 11.2773L15.8313 11.5521ZM15.8399 11.7463L15.8694 12.2455L15.8399 11.7463ZM15.7252 11.7531L15.6957 11.254L15.7252 11.7531ZM15.4905 11.9553L15.9903 11.9692L15.4905 11.9553ZM15.4852 12.1439L14.9854 12.13L14.9802 12.3186L15.48 12.3326L15.9798 12.3465L15.985 12.1579L15.4852 12.1439ZM15.48 12.3326L14.9802 12.3186C14.9777 12.4076 14.9655 12.4956 14.9435 12.5831L15.4283 12.7054L15.9131 12.8276C15.9529 12.6696 15.9752 12.509 15.9798 12.3465L15.48 12.3326ZM15.4283 12.7054L14.9435 12.5831L14.897 12.7673L15.3819 12.8895L15.8667 13.0118L15.9131 12.8276L15.4283 12.7054ZM15.3819 12.8895L14.897 12.7673L14.8506 12.9514L15.3354 13.0737L15.8203 13.1959L15.8667 13.0118L15.3819 12.8895ZM15.3354 13.0737L14.8506 12.9514C14.8196 13.0743 14.788 13.2001 14.7556 13.3288L15.2405 13.4508L15.7254 13.5727C15.7577 13.4442 15.7893 13.3186 15.8203 13.1959L15.3354 13.0737ZM15.2405 13.4508L14.7556 13.3288L14.7071 13.5217L15.192 13.6437L15.6769 13.7656L15.7254 13.5727L15.2405 13.4508ZM15.192 13.6437L14.7071 13.5217L14.6585 13.7147L15.1434 13.8366L15.6283 13.9586L15.6769 13.7656L15.192 13.6437ZM15.1434 13.8366L14.6585 13.7147C14.6338 13.813 14.599 13.9126 14.5533 14.0136L15.0087 14.2198L15.4642 14.4261C15.5334 14.2734 15.5884 14.1175 15.6283 13.9586L15.1434 13.8366ZM15.0087 14.2198L14.5533 14.0136L14.4671 14.2039L14.9226 14.4102L15.3781 14.6164L15.4642 14.4261L15.0087 14.2198ZM14.9226 14.4102L14.4671 14.2039L14.3809 14.3942L14.8364 14.6005L15.2919 14.8067L15.3781 14.6164L14.9226 14.4102ZM14.8364 14.6005L14.3809 14.3942C14.3789 14.3988 14.3775 14.4006 14.3775 14.4007C14.3775 14.4007 14.378 14.4 14.379 14.399C14.38 14.3981 14.3803 14.3981 14.3791 14.3988C14.3779 14.3995 14.3744 14.4016 14.3677 14.4042L14.5513 14.8693L14.7349 15.3344C14.9851 15.2356 15.1795 15.055 15.2919 14.8067L14.8364 14.6005ZM14.5513 14.8693L14.3677 14.4042L14.1687 14.4828L14.3523 14.9479L14.5359 15.4129L14.7349 15.3344L14.5513 14.8693ZM14.3523 14.9479L14.1687 14.4828L13.9698 14.5613L14.1534 15.0264L14.337 15.4915L14.5359 15.4129L14.3523 14.9479ZM14.1534 15.0264L13.9698 14.5613C13.9087 14.5855 13.846 14.5952 13.7759 14.5899L13.7378 15.0884L13.6997 15.5869C13.9184 15.6037 14.1328 15.5721 14.337 15.4915L14.1534 15.0264ZM13.7378 15.0884L13.7759 14.5899L13.5593 14.5733L13.5212 15.0719L13.4831 15.5704L13.6997 15.5869L13.7378 15.0884ZM13.5212 15.0719L13.5593 14.5733L13.3427 14.5568L13.3046 15.0553L13.2665 15.5539L13.4831 15.5704L13.5212 15.0719ZM13.3046 15.0553L13.3427 14.5568C13.166 14.5433 12.9895 14.5843 12.8343 14.687C12.6866 14.7848 12.5863 14.9196 12.5174 15.0519L12.9608 15.283L13.4042 15.514C13.4201 15.4835 13.4195 15.499 13.3864 15.5209C13.3692 15.5323 13.3476 15.5423 13.3234 15.5484C13.2994 15.5544 13.2795 15.5548 13.2665 15.5539L13.3046 15.0553ZM12.9608 15.283L12.5174 15.0519L12.3901 15.2961L12.8335 15.5272L13.2769 15.7582L13.4042 15.514L12.9608 15.283ZM12.8335 15.5272L12.3901 15.2961L12.2629 15.5403L12.7063 15.7714L13.1497 16.0024L13.2769 15.7582L12.8335 15.5272ZM12.7063 15.7714L12.2629 15.5403C12.2466 15.5715 12.2909 15.4626 12.4456 15.4262C12.6106 15.3873 12.7079 15.4745 12.6934 15.4626L12.3762 15.849L12.0589 16.2355C12.1796 16.3346 12.3996 16.4643 12.6746 16.3996C12.9394 16.3373 13.0811 16.134 13.1497 16.0024L12.7063 15.7714ZM12.3762 15.849L12.6934 15.4626L12.4906 15.296L12.1733 15.6825L11.856 16.0689L12.0589 16.2355L12.3762 15.849ZM12.1733 15.6825L12.4906 15.296L12.2877 15.1295L11.9704 15.5159L11.6532 15.9024L11.856 16.0689L12.1733 15.6825ZM11.9704 15.5159L12.2877 15.1295C12.1658 15.0294 12.0118 14.9466 11.8277 14.9235C11.6399 14.9 11.4658 14.9442 11.318 15.0243L11.5561 15.4639L11.7943 15.9035C11.7924 15.9046 11.7824 15.9097 11.7648 15.9134C11.7466 15.9172 11.7252 15.9185 11.7032 15.9158C11.6572 15.91 11.6398 15.8914 11.6532 15.9024L11.9704 15.5159ZM11.5561 15.4639L11.318 15.0243L11.1065 15.1388L11.3447 15.5785L11.5829 16.0181L11.7943 15.9035L11.5561 15.4639ZM11.3447 15.5785L11.1065 15.1388L10.8951 15.2534L11.1333 15.693L11.3714 16.1326L11.5829 16.0181L11.3447 15.5785ZM11.1333 15.693L10.8951 15.2534C10.8962 15.2528 10.9162 15.2419 10.9528 15.2359C10.9923 15.2294 11.0455 15.2297 11.1032 15.2488C11.2225 15.2881 11.2606 15.3699 11.2558 15.3604L10.8098 15.5864L10.3638 15.8123C10.4337 15.9503 10.5631 16.1236 10.7902 16.1985C11.0213 16.2747 11.2308 16.2088 11.3714 16.1326L11.1333 15.693ZM10.8098 15.5864L11.2558 15.3604L11.1438 15.1393L10.6978 15.3652L10.2517 15.5912L10.3638 15.8123L10.8098 15.5864ZM10.6978 15.3652L11.1438 15.1393L11.0318 14.9181L10.5857 15.1441L10.1397 15.37L10.2517 15.5912L10.6978 15.3652ZM10.5857 15.1441L11.0318 14.9181C10.9329 14.7229 10.7934 14.5328 10.5906 14.4073L10.3275 14.8324L10.0644 15.2576C10.0565 15.2527 10.0892 15.2703 10.1397 15.37L10.5857 15.1441ZM10.3275 14.8324L10.5906 14.4073L10.4444 14.3168L10.1813 14.7419L9.91816 15.1671L10.0644 15.2576L10.3275 14.8324ZM10.1813 14.7419L10.4444 14.3168L10.2982 14.2263L10.0351 14.6514L9.77195 15.0766L9.91816 15.1671L10.1813 14.7419ZM10.0351 14.6514L10.2982 14.2263C10.2599 14.2026 10.2291 14.1733 10.2028 14.1351L9.79091 14.4185L9.37898 14.7019C9.48333 14.8536 9.61529 14.9796 9.77195 15.0766L10.0351 14.6514ZM9.79091 14.4185L10.2028 14.1351L10.1049 13.9927L9.69294 14.2761L9.28102 14.5595L9.37898 14.7019L9.79091 14.4185ZM9.69294 14.2761L10.1049 13.9927L10.0069 13.8503L9.59497 14.1338L9.18305 14.4172L9.28102 14.5595L9.69294 14.2761ZM9.59497 14.1338L10.0069 13.8503C9.86868 13.6494 9.67011 13.5222 9.46366 13.4429L9.28433 13.9096L9.10499 14.3764C9.18212 14.406 9.19064 14.4282 9.18305 14.4172L9.59497 14.1338ZM9.28433 13.9096L9.46366 13.4429L9.25098 13.3612L9.07164 13.8279L8.89231 14.2947L9.10499 14.3764L9.28433 13.9096ZM9.07164 13.8279L9.25098 13.3612L9.0383 13.2795L8.85896 13.7462L8.67963 14.2129L8.89231 14.2947L9.07164 13.8279ZM8.85896 13.7462L9.0383 13.2795C9.03846 13.2795 9.04164 13.2808 9.04708 13.2837C9.05256 13.2866 9.06066 13.2915 9.07038 13.2989C9.09058 13.3142 9.11536 13.3386 9.13652 13.3737C9.18306 13.4509 9.17769 13.5189 9.17496 13.5352L8.68185 13.4525L8.18874 13.3698C8.1623 13.5274 8.17459 13.715 8.28016 13.8901C8.38349 14.0615 8.53897 14.1589 8.67963 14.2129L8.85896 13.7462ZM8.68185 13.4525L9.17496 13.5352L9.21052 13.3232L8.71741 13.2405L8.2243 13.1577L8.18874 13.3698L8.68185 13.4525ZM8.71741 13.2405L9.21052 13.3232L9.24609 13.1112L8.75298 13.0285L8.25987 12.9457L8.2243 13.1577L8.71741 13.2405ZM8.75298 13.0285L9.24609 13.1112C9.29478 12.8209 9.21543 12.5446 9.02125 12.3242L8.64605 12.6547L8.27086 12.9852C8.27323 12.9879 8.27242 12.9875 8.2703 12.9837C8.26809 12.9798 8.26542 12.9739 8.26331 12.9665C8.26121 12.9592 8.26034 12.9527 8.26013 12.948C8.25993 12.9435 8.26041 12.9425 8.25987 12.9457L8.75298 13.0285ZM8.64605 12.6547L9.02125 12.3242L8.87876 12.1624L8.50356 12.4929L8.12837 12.8234L8.27086 12.9852L8.64605 12.6547ZM8.50356 12.4929L8.87876 12.1624L8.73627 12.0007L8.36107 12.3312L7.98588 12.6617L8.12837 12.8234L8.50356 12.4929ZM8.36107 12.3312L8.73627 12.0007C8.73295 11.9969 8.74828 12.0133 8.75675 12.05C8.76568 12.0887 8.76006 12.1201 8.75569 12.1336L8.27997 11.9797L7.80424 11.8258C7.70387 12.136 7.78571 12.4344 7.98588 12.6617L8.36107 12.3312ZM8.27997 11.9797L8.75569 12.1336L8.81707 11.9439L8.34135 11.79L7.86563 11.6361L7.80424 11.8258L8.27997 11.9797ZM8.34135 11.79L8.81707 11.9439L8.87845 11.7542L8.40273 11.6003L7.92701 11.4463L7.86563 11.6361L8.34135 11.79ZM8.40273 11.6003L8.87845 11.7542C8.96413 11.4893 8.92923 11.226 8.82524 10.9915L8.36815 11.1941L7.91107 11.3968C7.92411 11.4262 7.92622 11.4421 7.92658 11.4463C7.92676 11.4485 7.92661 11.4488 7.9267 11.448C7.92674 11.4476 7.92681 11.4472 7.92689 11.4468C7.92697 11.4464 7.92703 11.4463 7.92701 11.4463L8.40273 11.6003ZM8.36815 11.1941L8.82524 10.9915L8.72928 10.7751L8.2722 10.9777L7.81512 11.1804L7.91107 11.3968L8.36815 11.1941ZM8.2722 10.9777L8.72928 10.7751L8.63333 10.5587L8.17624 10.7613L7.71916 10.964L7.81512 11.1804L8.2722 10.9777ZM8.17624 10.7613L8.63333 10.5587C8.63293 10.5578 8.65326 10.6048 8.63611 10.6777C8.61854 10.7525 8.577 10.7894 8.57107 10.7941L8.26069 10.4021L7.95031 10.0101C7.82411 10.11 7.70836 10.2544 7.66264 10.4489C7.61735 10.6416 7.65559 10.8206 7.71916 10.964L8.17624 10.7613ZM8.26069 10.4021L8.57107 10.7941L8.75146 10.6512L8.44108 10.2592L8.1307 9.86725L7.95031 10.0101L8.26069 10.4021ZM8.44108 10.2592L8.75146 10.6512L8.93186 10.5084L8.62148 10.1164L8.3111 9.72441L8.1307 9.86725L8.44108 10.2592ZM8.62148 10.1164L8.93186 10.5084C9.06062 10.4065 9.17734 10.307 9.28092 10.2101L8.93936 9.84498L8.59779 9.47983C8.51807 9.5544 8.42287 9.63592 8.3111 9.72441L8.62148 10.1164ZM8.93936 9.84498L9.28092 10.2101L9.41841 10.0815L9.07684 9.71637L8.73528 9.35122L8.59779 9.47983L8.93936 9.84498ZM9.07684 9.71637L9.41841 10.0815L9.55589 9.95292L9.21432 9.58777L8.87276 9.22262L8.73528 9.35122L9.07684 9.71637ZM9.21432 9.58777L9.55589 9.95292C9.67478 9.84171 9.77951 9.71896 9.86882 9.58473L9.45253 9.30777L9.03624 9.03082C8.99125 9.09844 8.93718 9.16236 8.87276 9.22262L9.21432 9.58777ZM9.45253 9.30777L9.86882 9.58473L9.96954 9.43334L9.55325 9.15638L9.13696 8.87943L9.03624 9.03082L9.45253 9.30777ZM9.55325 9.15638L9.96954 9.43334L10.0703 9.28195L9.65397 9.00499L9.23768 8.72804L9.13696 8.87943L9.55325 9.15638ZM9.65397 9.00499L10.0703 9.28195C10.1219 9.20437 10.1818 9.1284 10.2507 9.05412L9.88416 8.71405L9.51762 8.37398C9.41391 8.48577 9.32037 8.60375 9.23768 8.72804L9.65397 9.00499ZM9.88416 8.71405L10.2507 9.05412L10.3802 8.91458L10.0136 8.57451L9.64709 8.23443L9.51762 8.37398L9.88416 8.71405ZM10.0136 8.57451L10.3802 8.91458L10.5096 8.77503L10.1431 8.43496L9.77656 8.09489L9.64709 8.23443L10.0136 8.57451ZM10.1431 8.43496L10.5096 8.77503C10.6016 8.67594 10.6983 8.56664 10.7998 8.44748L10.4191 8.12332L10.0384 7.79916C9.94451 7.90945 9.85725 8.00791 9.77656 8.09489L10.1431 8.43496ZM10.4191 8.12332L10.7998 8.44748L10.9463 8.27538L10.5656 7.95122L10.185 7.62707L10.0384 7.79916L10.4191 8.12332ZM10.5656 7.95122L10.9463 8.27538L11.0929 8.10329L10.7122 7.77913L10.3315 7.45497L10.185 7.62707L10.5656 7.95122ZM10.7122 7.77913L11.0929 8.10329C11.0902 8.10639 11.0641 8.13416 11.0116 8.14892C10.9594 8.16358 10.9239 8.15339 10.9223 8.15288L11.0757 7.67701L11.2292 7.20113C11.0829 7.15397 10.9145 7.13748 10.7411 7.18619C10.5674 7.23499 10.4318 7.33714 10.3315 7.45497L10.7122 7.77913ZM11.0757 7.67701L10.9223 8.15288L11.1393 8.22285L11.2927 7.74697L11.4462 7.2711L11.2292 7.20113L11.0757 7.67701ZM11.2927 7.74697L11.1393 8.22285L11.3563 8.29282L11.5097 7.81694L11.6632 7.34107L11.4462 7.2711L11.2927 7.74697ZM11.5097 7.81694L11.3563 8.29282C11.5136 8.34353 11.6635 8.38478 11.8054 8.41544L11.911 7.92671L12.0165 7.43798C11.9128 7.41557 11.7952 7.38365 11.6632 7.34107L11.5097 7.81694ZM11.911 7.92671L11.8054 8.41544L11.9897 8.45524L12.0952 7.96651L12.2008 7.47779L12.0165 7.43798L11.911 7.92671ZM12.0952 7.96651L11.9897 8.45524L12.1739 8.49504L12.2795 8.00632L12.3851 7.51759L12.2008 7.47779L12.0952 7.96651ZM12.2795 8.00632L12.1739 8.49504C12.3617 8.53561 12.5533 8.53834 12.7446 8.51039L12.6723 8.01564L12.6 7.5209C12.5132 7.53358 12.443 7.53009 12.3851 7.51759L12.2795 8.00632ZM12.6723 8.01564L12.7446 8.51039L12.9531 8.47991L12.8808 7.98517L12.8085 7.49042L12.6 7.5209L12.6723 8.01564ZM12.8808 7.98517L12.9531 8.47991L13.1616 8.44944L13.0893 7.95469L13.017 7.45995L12.8085 7.49042L12.8808 7.98517ZM13.0893 7.95469L13.1616 8.44944C13.1456 8.45178 13.0959 8.45349 13.0384 8.42308C12.9838 8.39413 12.9643 8.35828 12.9651 8.3598L13.4048 8.12176L13.8445 7.88373C13.774 7.75355 13.6663 7.62401 13.5065 7.53936C13.3439 7.45327 13.1721 7.43729 13.017 7.45995L13.0893 7.95469ZM13.4048 8.12176L12.9651 8.3598L13.072 8.55734L13.5117 8.31931L13.9514 8.08128L13.8445 7.88373L13.4048 8.12176ZM13.5117 8.31931L13.072 8.55734L13.179 8.75489L13.6187 8.51686L14.0584 8.27882L13.9514 8.08128L13.5117 8.31931ZM13.6187 8.51686L13.179 8.75489C13.2926 8.96476 13.4612 9.14405 13.6953 9.24809L13.8984 8.79119L14.1014 8.33428C14.1004 8.33382 14.0977 8.33267 14.0922 8.32725C14.086 8.32117 14.0737 8.30709 14.0584 8.27882L13.6187 8.51686ZM13.8984 8.79119L13.6953 9.24809L13.8681 9.32487L14.0711 8.86797L14.2742 8.41107L14.1014 8.33428L13.8984 8.79119ZM14.0711 8.86797L13.8681 9.32487L14.0408 9.40166L14.2439 8.94475L14.447 8.48785L14.2742 8.41107L14.0711 8.86797ZM14.2439 8.94475L14.0408 9.40166C14.116 9.43505 14.1891 9.4792 14.2605 9.53581L14.5711 9.14398L14.8817 8.75215C14.7472 8.64551 14.6022 8.55684 14.447 8.48785L14.2439 8.94475ZM14.5711 9.14398L14.2605 9.53581L14.415 9.65826L14.7256 9.26643L15.0362 8.87459L14.8817 8.75215L14.5711 9.14398ZM14.7256 9.26643L14.415 9.65826L14.5695 9.7807L14.8801 9.38887L15.1907 8.99704L15.0362 8.87459L14.7256 9.26643ZM14.8801 9.38887L14.5695 9.7807C14.5628 9.77542 14.5482 9.76065 14.5377 9.73688C14.5276 9.71431 14.5291 9.70143 14.5289 9.709L15.0287 9.72282L15.5285 9.73663C15.5364 9.4516 15.4273 9.18459 15.1907 8.99704L14.8801 9.38887ZM15.0287 9.72282L14.5289 9.709L14.523 9.9205L15.0228 9.93432L15.5227 9.94814L15.5285 9.73663L15.0287 9.72282ZM15.0228 9.93432L14.523 9.9205L14.5172 10.132L15.017 10.1458L15.5168 10.1596L15.5227 9.94814L15.0228 9.93432ZM15.017 10.1458L14.5172 10.132C14.5106 10.3712 14.5725 10.6033 14.7163 10.8053L15.1237 10.5154L15.531 10.2255C15.5248 10.2167 15.5156 10.2024 15.5168 10.1596L15.017 10.1458ZM15.1237 10.5154L14.7163 10.8053L14.8288 10.9634L15.2362 10.6735L15.6436 10.3836L15.531 10.2255L15.1237 10.5154ZM15.2362 10.6735L14.8288 10.9634L14.9414 11.1215L15.3487 10.8316L15.7561 10.5417L15.6436 10.3836L15.2362 10.6735ZM15.3487 10.8316L14.9414 11.1215C15.0123 11.2213 15.0875 11.3314 15.1669 11.452L15.5846 11.1772L16.0023 10.9023C15.9172 10.773 15.8351 10.6528 15.7561 10.5417L15.3487 10.8316ZM15.5846 11.1772L15.1669 11.452L15.2902 11.6395L15.7079 11.3646L16.1256 11.0898L16.0023 10.9023L15.5846 11.1772ZM15.7079 11.3646L15.2902 11.6395L15.4136 11.8269L15.8313 11.5521L16.249 11.2773L16.1256 11.0898L15.7079 11.3646ZM15.8313 11.5521L15.4136 11.8269C15.4252 11.8447 15.4258 11.8479 15.4219 11.8392C15.4204 11.8359 15.3989 11.7899 15.3956 11.7166C15.3918 11.6314 15.4145 11.4854 15.5397 11.3675C15.6503 11.2635 15.7705 11.2496 15.8104 11.2472L15.8399 11.7463L15.8694 12.2455C15.9476 12.2409 16.0961 12.2171 16.2251 12.0958C16.3687 11.9606 16.3998 11.7897 16.3946 11.6722C16.3899 11.5665 16.357 11.4806 16.3343 11.4299C16.3091 11.3738 16.2784 11.322 16.249 11.2773L15.8313 11.5521ZM15.8399 11.7463L15.8104 11.2472L15.6957 11.254L15.7252 11.7531L15.7547 12.2522L15.8694 12.2455L15.8399 11.7463ZM15.7252 11.7531L15.6957 11.254L15.581 11.2608L15.6105 11.7599L15.64 12.259L15.7547 12.2522L15.7252 11.7531ZM15.6105 11.7599L15.581 11.2608C15.3801 11.2726 15.2027 11.3784 15.097 11.5505C15.0105 11.6914 14.9935 11.8413 14.9907 11.9414L15.4905 11.9553L15.9903 11.9692C15.991 11.9435 15.9957 11.998 15.9492 12.0737C15.9225 12.1174 15.8795 12.1661 15.8166 12.2038C15.7537 12.2414 15.6906 12.256 15.64 12.259L15.6105 11.7599ZM15.4905 11.9553L14.9907 11.9414L14.9854 12.13L15.4852 12.1439L15.985 12.1579L15.9903 11.9692L15.4905 11.9553Z" fill="var(--stroke-0, white)"/>
</g>
</g>
</svg>
