<svg preserveAspectRatio="none" width="100%" height="100%" overflow="visible" style="display: block;" viewBox="0 0 28.1335 40.7508" fill="none" xmlns="http://www.w3.org/2000/svg">
<g id="Group 18">
<g id="Union">
<path d="M13.2268 1.00343C13.7008 1.01173 13.9564 1.0249 14.4358 1.02492C17.3195 1.02501 20.779 2.0515 23.3928 5.438C25.1072 7.65933 25.8852 10.2696 26.3078 12.3843C26.7333 14.5132 26.896 16.7109 27.0305 18.187C27.2117 20.1766 27.1886 23.2017 26.677 26.3482C26.1785 29.4132 25.1213 33.2024 22.803 36.2134C21.8795 37.4125 20.406 38.4867 18.7493 39.1177C16.9526 39.8018 14.5091 40.1215 11.9299 39.0835C10.9337 38.6826 10.24 38.4291 9.68089 38.2232C9.22542 38.0554 8.5002 37.7964 7.84691 37.4478C6.15455 36.5445 5.14586 35.097 4.57542 34.395C3.12852 32.6147 2.09724 29.8459 1.53343 26.8823C0.935461 23.7389 0.755885 19.8318 1.43675 15.4204C1.48693 15.0954 1.56961 14.7822 1.67699 14.4839C1.68252 14.2153 1.70853 13.9432 1.75902 13.6704C2.13577 11.6365 2.86169 9.31435 3.9182 7.03273C4.49549 5.78612 5.22852 4.54933 6.43382 3.59132C6.9822 3.15555 7.50768 2.88334 7.63792 2.813C7.64067 2.81152 7.64411 2.81042 7.64671 2.8091C8.63638 2.07574 9.85087 1.33591 11.5198 1.09132C12.2153 0.989452 12.8483 0.996809 13.2268 1.00343Z" fill="var(--fill-0, #FFFEEF)"/>
<path d="M13.2268 1.00343L13.2443 0.00358625L13.2443 0.00358601L13.2268 1.00343ZM14.4358 1.02492L14.4358 0.0249173H14.4358L14.4358 1.02492ZM23.3928 5.438L24.1845 4.82702L24.1844 4.827L23.3928 5.438ZM26.3078 12.3843L27.2885 12.1883L27.2885 12.1883L26.3078 12.3843ZM27.0305 18.187L28.0264 18.0963L28.0264 18.0963L27.0305 18.187ZM26.677 26.3482L27.664 26.5087L27.664 26.5087L26.677 26.3482ZM22.803 36.2134L23.5952 36.8236L23.5953 36.8235L22.803 36.2134ZM18.7493 39.1177L19.1051 40.0522L19.1052 40.0522L18.7493 39.1177ZM11.9299 39.0835L12.3033 38.1558L12.3033 38.1558L11.9299 39.0835ZM9.68089 38.2232L10.0266 37.2848V37.2848L9.68089 38.2232ZM7.84691 37.4478L7.37604 38.33L7.37612 38.33L7.84691 37.4478ZM4.57542 34.395L5.35148 33.7644L5.35145 33.7643L4.57542 34.395ZM1.53343 26.8823L0.551047 27.0692L0.55105 27.0692L1.53343 26.8823ZM1.43675 15.4204L0.448457 15.2679L0.448453 15.2679L1.43675 15.4204ZM1.67699 14.4839L2.61787 14.8226L2.6734 14.6684L2.67677 14.5045L1.67699 14.4839ZM1.75902 13.6704L0.775742 13.4883L0.775716 13.4884L1.75902 13.6704ZM3.9182 7.03273L3.01077 6.61251L3.01076 6.61254L3.9182 7.03273ZM6.43382 3.59132L5.81168 2.80842L5.8116 2.80848L6.43382 3.59132ZM7.63792 2.813L8.11312 3.69288L8.1133 3.69279L7.63792 2.813ZM7.64671 2.8091L8.10006 3.70043L8.17475 3.66244L8.24208 3.61255L7.64671 2.8091ZM11.5198 1.09132L11.3748 0.101881L11.3748 0.101893L11.5198 1.09132ZM13.2268 1.00343L13.2093 2.00328C13.6524 2.01104 13.9476 2.0249 14.4357 2.02492L14.4358 1.02492L14.4358 0.0249173C13.9652 0.0249048 13.7492 0.0124289 13.2443 0.00358625L13.2268 1.00343ZM14.4358 1.02492L14.4357 2.02492C17.0776 2.02501 20.2147 2.95706 22.6012 6.04901L23.3928 5.438L24.1844 4.827C21.3433 1.14593 17.5614 0.0250217 14.4358 0.0249173L14.4358 1.02492ZM23.3928 5.438L22.6012 6.04898C24.1786 8.0929 24.9171 10.5282 25.3272 12.5803L26.3078 12.3843L27.2885 12.1883C26.8533 10.0109 26.0358 7.22576 24.1845 4.82702L23.3928 5.438ZM26.3078 12.3843L25.3272 12.5803C25.7397 14.6442 25.898 16.7776 26.0346 18.2778L27.0305 18.187L28.0264 18.0963C27.8941 16.6441 27.7269 14.3822 27.2885 12.1883L26.3078 12.3843ZM27.0305 18.187L26.0346 18.2777C26.2084 20.1856 26.1878 23.1262 25.6899 26.1877L26.677 26.3482L27.664 26.5087C28.1895 23.2771 28.215 20.1677 28.0264 18.0963L27.0305 18.187ZM26.677 26.3482L25.69 26.1876C25.2027 29.1836 24.1821 32.783 22.0106 35.6033L22.803 36.2134L23.5953 36.8235C26.0605 33.6217 27.1543 29.6428 27.664 26.5087L26.677 26.3482ZM22.803 36.2134L22.0107 35.6032C21.2125 36.6397 19.8979 37.6102 18.3933 38.1832L18.7493 39.1177L19.1052 40.0522C20.9142 39.3633 22.5465 38.1854 23.5952 36.8236L22.803 36.2134ZM18.7493 39.1177L18.3934 38.1831C16.7754 38.7992 14.5983 39.0794 12.3033 38.1558L11.9299 39.0835L11.5566 40.0112C14.42 41.1636 17.1297 40.8044 19.1051 40.0522L18.7493 39.1177ZM11.9299 39.0835L12.3033 38.1558C11.292 37.7489 10.586 37.4909 10.0266 37.2848L9.68089 38.2232L9.33523 39.1615C9.89399 39.3673 10.5755 39.6164 11.5566 40.0112L11.9299 39.0835ZM9.68089 38.2232L10.0266 37.2848C9.55427 37.1108 8.89849 36.8754 8.3177 36.5655L7.84691 37.4478L7.37612 38.33C8.1019 38.7173 8.89658 38.9999 9.33523 39.1615L9.68089 38.2232ZM7.84691 37.4478L8.31777 36.5656C6.84429 35.7791 5.97275 34.5289 5.35148 33.7644L4.57542 34.395L3.79936 35.0257C4.31896 35.6651 5.46482 37.3099 7.37604 38.33L7.84691 37.4478ZM4.57542 34.395L5.35145 33.7643C4.05354 32.1673 3.06528 29.5836 2.51581 26.6954L1.53343 26.8823L0.55105 27.0692C1.1292 30.1082 2.2035 33.0621 3.79939 35.0257L4.57542 34.395ZM1.53343 26.8823L2.51581 26.6955C1.93901 23.6633 1.76168 19.871 2.42505 15.573L1.43675 15.4204L0.448453 15.2679C-0.249913 19.7927 -0.0680844 23.8146 0.551047 27.0692L1.53343 26.8823ZM1.43675 15.4204L2.42504 15.573C2.46473 15.3159 2.53062 15.065 2.61787 14.8226L1.67699 14.4839L0.736097 14.1452C0.608596 14.4994 0.509128 14.8748 0.448457 15.2679L1.43675 15.4204ZM1.67699 14.4839L2.67677 14.5045C2.68126 14.2865 2.70232 14.0685 2.74232 13.8524L1.75902 13.6704L0.775716 13.4884C0.714752 13.8178 0.683774 14.1441 0.677197 14.4633L1.67699 14.4839ZM1.75902 13.6704L2.74229 13.8526C3.10306 11.9049 3.80247 9.66252 4.82563 7.45292L3.9182 7.03273L3.01076 6.61254C1.9209 8.96618 1.16847 11.3681 0.775742 13.4883L1.75902 13.6704ZM3.9182 7.03273L4.82562 7.45295C5.37593 6.2646 6.02854 5.19085 7.05604 4.37417L6.43382 3.59132L5.8116 2.80848C4.4285 3.9078 3.61505 5.30764 3.01077 6.61251L3.9182 7.03273ZM6.43382 3.59132L7.05597 4.37423C7.52736 3.99963 7.98109 3.76419 8.11312 3.69288L7.63792 2.813L7.16273 1.93312C7.03427 2.0025 6.43704 2.31147 5.81168 2.80842L6.43382 3.59132ZM7.63792 2.813L8.1133 3.69279C8.09807 3.70102 8.08456 3.70779 8.07348 3.71314C8.06239 3.71849 8.05283 3.72284 8.04548 3.7261C8.03814 3.72935 8.03213 3.7319 8.02824 3.73354C8.02447 3.73512 8.0216 3.7363 8.02115 3.73648C8.02114 3.73648 8.02051 3.73674 8.02134 3.7364C8.02175 3.73623 8.02279 3.73581 8.02405 3.73529C8.02649 3.73429 8.03135 3.73228 8.03738 3.7297C8.04346 3.7271 8.05202 3.72338 8.06215 3.71874C8.07226 3.71411 8.08521 3.70798 8.10006 3.70043L7.64671 2.8091L7.19337 1.91776C7.20757 1.91054 7.21983 1.90474 7.22925 1.90043C7.23868 1.8961 7.24652 1.8927 7.25187 1.89042C7.25717 1.88815 7.26129 1.88645 7.26296 1.88576C7.26366 1.88548 7.26628 1.8844 7.26359 1.8855C7.26238 1.886 7.25874 1.88749 7.2542 1.8894C7.24955 1.89135 7.24278 1.89422 7.23469 1.89781C7.21936 1.90461 7.19351 1.91649 7.16255 1.93322L7.63792 2.813ZM7.64671 2.8091L8.24208 3.61255C9.1712 2.92406 10.2292 2.29115 11.6648 2.08075L11.5198 1.09132L11.3748 0.101893C9.47256 0.380668 8.10155 1.22743 7.05134 2.00564L7.64671 2.8091ZM11.5198 1.09132L11.6647 2.08077C12.2744 1.99146 12.8384 1.99679 13.2093 2.00328L13.2268 1.00343L13.2443 0.00358601C12.8582 -0.00317089 12.1561 -0.0125601 11.3748 0.101881L11.5198 1.09132Z" fill="var(--stroke-0, #F4C280)"/>
</g>
<ellipse id="Ellipse 20" cx="16.6831" cy="18.1747" rx="7.12151" ry="11.534" fill="var(--fill-0, #424242)"/>
<g id="Star 4">
<path d="M12.8255 23.9416L13.1586 25.4913H14.2365L13.3644 26.449L13.6975 27.9987L12.8255 27.041L11.9534 27.9987L12.2865 26.449L11.4144 25.4913H12.4924L12.8255 23.9416Z" fill="var(--fill-0, white)"/>
<path d="M12.8742 24.0462L12.7383 24.1096L12.8742 24.0462ZM12.8986 24.0985L13.0345 24.0351L12.8986 24.0985ZM12.9255 24.2078L12.7757 24.2145L12.9255 24.2078ZM12.9281 24.2648L13.0779 24.258L12.9281 24.2648ZM12.9306 24.3217L12.7808 24.3285L12.9306 24.3217ZM12.9509 24.4325L13.0934 24.3855L12.9509 24.4325ZM12.9686 24.4862L12.8262 24.5331L12.9686 24.4862ZM12.9863 24.5399L12.8439 24.5869L12.9863 24.5399ZM13.0108 24.6497L12.8619 24.6678L13.0108 24.6497ZM13.0244 24.7619L13.1733 24.7438L13.0244 24.7619ZM13.0256 24.8767L12.8763 24.8625L13.0256 24.8767ZM13.0145 24.9941L12.8651 24.9799L13.0145 24.9941ZM13.0241 25.1071L13.1685 25.0665V25.0665L13.0241 25.1071ZM13.0546 25.2156L12.9102 25.2562V25.2562L13.0546 25.2156ZM13.0874 25.3237L12.9447 25.3701L13.0874 25.3237ZM13.1983 25.4945L13.1742 25.6426L13.1983 25.4945ZM13.4297 25.4953L13.3634 25.3607L13.4297 25.4953ZM13.486 25.4675L13.4196 25.333L13.486 25.4675ZM13.5422 25.4398L13.6086 25.5743L13.5422 25.4398ZM13.7672 25.4847L13.7079 25.6225L13.7672 25.4847ZM13.8797 25.5151L13.8961 25.366L13.8797 25.5151ZM13.936 25.5213L13.9196 25.6704L13.936 25.5213ZM13.9922 25.5274L13.9758 25.6765L13.9922 25.5274ZM14.0887 25.5294L14.1044 25.6786L14.0887 25.5294ZM14.129 25.5252L14.1446 25.6744L14.129 25.5252ZM14.1693 25.521L14.1536 25.3718L14.1693 25.521ZM14.1736 25.5601L14.0581 25.4643L14.1736 25.5601ZM14.1376 25.6034L14.253 25.6992L14.1376 25.6034ZM14.0329 25.7363L13.9105 25.6495L14.0329 25.7363ZM14.0001 25.7825L14.1224 25.8693L14.0001 25.7825ZM13.9673 25.8287L14.0896 25.9155L13.9673 25.8287ZM13.8768 25.8984L13.8202 25.7595L13.8768 25.8984ZM13.7613 25.9454L13.8178 26.0843L13.7613 25.9454ZM13.6928 26.0353L13.5447 26.0114L13.6928 26.0353ZM13.6715 26.168L13.8196 26.1918L13.6715 26.168ZM13.5671 26.3012L13.6543 26.4233L13.5671 26.3012ZM13.5203 26.3346L13.4332 26.2125L13.5203 26.3346ZM13.4706 26.4065L13.321 26.3954L13.4706 26.4065ZM13.4677 26.4449L13.6173 26.456L13.4677 26.4449ZM13.4649 26.4834L13.3153 26.4723L13.4649 26.4834ZM13.4711 26.5774L13.6191 26.5533L13.4711 26.5774ZM13.4892 26.6886L13.3411 26.7127L13.4892 26.6886ZM13.5023 26.8009L13.6519 26.7902V26.7902L13.5023 26.8009ZM13.5063 26.8575L13.3567 26.8682L13.5063 26.8575ZM13.5104 26.9142L13.66 26.9035L13.5104 26.9142ZM13.4954 27.0325L13.6388 27.0767L13.4954 27.0325ZM13.4574 27.1557L13.3141 27.1115L13.4574 27.1557ZM13.4686 27.2684L13.5976 27.1918V27.1918L13.4686 27.2684ZM13.5292 27.3704L13.4002 27.447V27.447L13.5292 27.3704ZM13.5836 27.4738L13.4474 27.5366L13.5836 27.4738ZM13.6319 27.5785L13.7681 27.5156L13.6319 27.5785ZM13.6725 27.6848L13.5289 27.7283L13.6725 27.6848ZM13.7052 27.7929L13.8488 27.7494L13.7052 27.7929ZM13.7014 27.8702L13.8147 27.9684L13.7014 27.8702ZM13.6812 27.8935L13.5679 27.7952L13.6812 27.8935ZM13.661 27.9167L13.5477 27.8185L13.661 27.9167ZM13.616 27.8865L13.7522 27.8235L13.616 27.8865ZM13.5665 27.7794L13.4304 27.8424L13.5665 27.7794ZM13.4813 27.7049L13.5306 27.5632L13.4813 27.7049ZM13.3604 27.6628L13.3111 27.8044L13.3604 27.6628ZM13.2806 27.5833L13.1383 27.6305L13.2806 27.5833ZM13.2419 27.4665L13.3842 27.4192L13.2419 27.4665ZM13.183 27.3679L13.0761 27.4731L13.183 27.3679ZM13.1435 27.3278L13.2505 27.2226L13.1435 27.3278ZM13.1041 27.2876L12.9971 27.3928L13.1041 27.2876ZM13.0067 27.2241L12.9505 27.3632L13.0067 27.2241ZM12.9488 27.2007L12.8927 27.3398L12.9488 27.2007ZM12.891 27.1774L12.9471 27.0383L12.891 27.1774ZM12.8092 27.1518L12.7953 27.3011L12.8092 27.1518ZM12.7613 27.1473L12.7752 26.998L12.7613 27.1473ZM12.6914 27.1793L12.781 27.2997L12.6914 27.1793ZM12.5136 27.3217L12.4079 27.2153L12.5136 27.3217ZM12.4737 27.3614L12.5794 27.4678L12.4737 27.3614ZM12.4337 27.4011L12.5395 27.5075L12.4337 27.4011ZM12.3611 27.4871L12.4836 27.5736L12.3611 27.4871ZM12.2957 27.5797L12.1732 27.4932L12.2957 27.5797ZM12.2113 27.8072L12.067 27.766L12.2113 27.8072ZM12.1314 27.8866L12.175 28.0301L12.1314 27.8866ZM12.0061 27.9246L11.9625 27.7811L12.0061 27.9246ZM11.9647 27.9126L12.0884 27.9974L11.9647 27.9126ZM11.986 27.8816L12.1097 27.9664L11.986 27.8816ZM12.0073 27.8506L12.131 27.9354L12.0073 27.8506ZM12.0378 27.764L11.8899 27.7392L12.0378 27.764ZM12.0721 27.5412L12.2212 27.5581L12.0721 27.5412ZM12.0785 27.485L11.9294 27.4682L12.0785 27.485ZM12.0848 27.4289L12.2339 27.4457L12.0848 27.4289ZM12.1494 27.2126L12.0085 27.1613L12.1494 27.2126ZM12.1551 27.0988L12.3014 27.0655L12.1551 27.0988ZM12.1276 26.9778L11.9813 27.0111L12.1276 26.9778ZM12.1551 26.8686L12.0408 26.7715L12.1551 26.8686ZM12.2377 26.7713L12.3521 26.8684L12.2377 26.7713ZM12.2797 26.6653L12.1297 26.6637L12.2797 26.6653ZM12.2803 26.6079L12.4303 26.6095L12.2803 26.6079ZM12.2809 26.5505L12.1309 26.5489L12.2809 26.5505ZM12.2601 26.4415L12.3986 26.384L12.2601 26.4415ZM12.2173 26.3384L12.0788 26.396L12.2173 26.3384ZM12.1588 26.2446L12.046 26.3434L12.1588 26.2446ZM12.1217 26.2023L12.0089 26.3011L12.1217 26.2023ZM12.0846 26.1599L12.1975 26.0611L12.0846 26.1599ZM11.9958 26.0887L11.9226 26.2196L11.9958 26.0887ZM11.8923 26.0308L11.8191 26.1617L11.8923 26.0308ZM11.801 25.9618L11.6943 26.0673L11.801 25.9618ZM11.7218 25.8817L11.6152 25.9872L11.7218 25.8817ZM11.6527 25.7925L11.5241 25.8698L11.6527 25.7925ZM11.5936 25.6942L11.465 25.7714L11.5936 25.6942ZM11.5293 25.5975L11.4083 25.6862L11.5293 25.5975ZM11.4598 25.5027L11.5808 25.414L11.4598 25.5027ZM11.4813 25.4577L11.4747 25.6076L11.4813 25.4577ZM11.5938 25.4627L11.6004 25.3129L11.5938 25.4627ZM11.7063 25.481L11.7467 25.3365L11.7063 25.481ZM12.1563 25.495L12.093 25.631L12.1563 25.495ZM12.2126 25.5212L12.1493 25.6572L12.2126 25.5212ZM12.2688 25.5473L12.3321 25.4113L12.2688 25.5473ZM12.3756 25.5401L12.4583 25.6652L12.3756 25.5401ZM12.4767 25.4732L12.394 25.3481L12.4767 25.4732ZM12.5326 25.3834L12.682 25.3976L12.5326 25.3834ZM12.5434 25.2706L12.6927 25.2848L12.5434 25.2706ZM12.5753 25.1625L12.4419 25.0939L12.5753 25.1625ZM12.602 25.1106L12.7354 25.1792L12.602 25.1106ZM12.6293 24.7138L12.7767 24.7412L12.6293 24.7138ZM12.6499 24.6031L12.5024 24.5757L12.6499 24.6031ZM12.6716 24.4927L12.5247 24.4622L12.6716 24.4927ZM12.6945 24.3826L12.5476 24.352L12.6945 24.3826ZM12.7135 24.2716L12.5648 24.2516L12.7135 24.2716ZM12.7285 24.1597L12.8772 24.1797L12.7285 24.1597ZM12.7535 24.0622L12.6152 24.0042L12.7535 24.0622ZM12.7709 24.0206L12.9093 24.0786L12.7709 24.0206ZM12.7884 23.979L12.9267 24.037L12.7884 23.979ZM12.8108 23.9384L12.7792 24.0851L12.8108 23.9384ZM12.8206 23.9405L12.8521 23.7939L12.8206 23.9405ZM12.8498 23.9939L12.7139 24.0573L12.8498 23.9939ZM12.8742 24.0462L12.7383 24.1096L12.7626 24.1619L12.8986 24.0985L13.0345 24.0351L13.0102 23.9828L12.8742 24.0462ZM12.8986 24.0985L12.7626 24.1619C12.7707 24.1791 12.7749 24.1963 12.7757 24.2145L12.9255 24.2078L13.0754 24.201C13.0728 24.1432 13.059 24.0876 13.0345 24.0351L12.8986 24.0985ZM12.9255 24.2078L12.7757 24.2145L12.7782 24.2715L12.9281 24.2648L13.0779 24.258L13.0754 24.201L12.9255 24.2078ZM12.9281 24.2648L12.7782 24.2715L12.7808 24.3285L12.9306 24.3217L13.0805 24.315L13.0779 24.258L12.9281 24.2648ZM12.9306 24.3217L12.7808 24.3285C12.7831 24.38 12.7923 24.4305 12.8084 24.4794L12.9509 24.4325L13.0934 24.3855C13.0859 24.3628 13.0816 24.3394 13.0805 24.315L12.9306 24.3217ZM12.9509 24.4325L12.8084 24.4794L12.8262 24.5331L12.9686 24.4862L13.1111 24.4392L13.0934 24.3855L12.9509 24.4325ZM12.9686 24.4862L12.8262 24.5331L12.8439 24.5869L12.9863 24.5399L13.1288 24.493L13.1111 24.4392L12.9686 24.4862ZM12.9863 24.5399L12.8439 24.5869C12.8526 24.6133 12.8586 24.6402 12.8619 24.6678L13.0108 24.6497L13.1597 24.6317C13.154 24.5844 13.1437 24.5382 13.1288 24.493L12.9863 24.5399ZM13.0108 24.6497L12.8619 24.6678L12.8687 24.7238L13.0176 24.7058L13.1665 24.6877L13.1597 24.6317L13.0108 24.6497ZM13.0176 24.7058L12.8687 24.7238L12.8755 24.7799L13.0244 24.7619L13.1733 24.7438L13.1665 24.6877L13.0176 24.7058ZM13.0244 24.7619L12.8755 24.7799C12.8787 24.8061 12.879 24.8336 12.8763 24.8625L13.0256 24.8767L13.175 24.8909C13.1796 24.8415 13.1792 24.7924 13.1733 24.7438L13.0244 24.7619ZM13.0256 24.8767L12.8763 24.8625L12.8707 24.9212L13.02 24.9354L13.1694 24.9496L13.175 24.8909L13.0256 24.8767ZM13.02 24.9354L12.8707 24.9212L12.8651 24.9799L13.0145 24.9941L13.1638 25.0083L13.1694 24.9496L13.02 24.9354ZM13.0145 24.9941L12.8651 24.9799C12.8597 25.0366 12.8643 25.0929 12.8797 25.1477L13.0241 25.1071L13.1685 25.0665C13.1636 25.049 13.1617 25.0299 13.1638 25.0083L13.0145 24.9941ZM13.0241 25.1071L12.8797 25.1477L12.895 25.202L13.0394 25.1614L13.1838 25.1208L13.1685 25.0665L13.0241 25.1071ZM13.0394 25.1614L12.895 25.202L12.9102 25.2562L13.0546 25.2156L13.199 25.175L13.1838 25.1208L13.0394 25.1614ZM13.0546 25.2156L12.9102 25.2562C12.921 25.2944 12.9325 25.3323 12.9447 25.3701L13.0874 25.3237L13.23 25.2773C13.219 25.2433 13.2087 25.2093 13.199 25.175L13.0546 25.2156ZM13.0874 25.3237L12.9447 25.3701L12.9622 25.4238L13.1049 25.3774L13.2475 25.3311L13.23 25.2773L13.0874 25.3237ZM13.1049 25.3774L12.9622 25.4238L12.9797 25.4776L13.1224 25.4312L13.265 25.3848L13.2475 25.3311L13.1049 25.3774ZM13.1224 25.4312L12.9797 25.4776C12.993 25.5184 13.0167 25.558 13.054 25.5891C13.091 25.62 13.1335 25.6359 13.1742 25.6426L13.1983 25.4945L13.2224 25.3465C13.2241 25.3467 13.2344 25.349 13.2461 25.3587C13.2582 25.3688 13.2634 25.3799 13.265 25.3848L13.1224 25.4312ZM13.1983 25.4945L13.1742 25.6426L13.2326 25.6521L13.2567 25.504L13.2808 25.356L13.2224 25.3465L13.1983 25.4945ZM13.2567 25.504L13.2326 25.6521L13.291 25.6616L13.3151 25.5135L13.3392 25.3655L13.2808 25.356L13.2567 25.504ZM13.3151 25.5135L13.291 25.6616C13.3626 25.6732 13.4324 25.6612 13.4961 25.6298L13.4297 25.4953L13.3634 25.3607C13.3521 25.3663 13.3454 25.3665 13.3392 25.3655L13.3151 25.5135ZM13.4297 25.4953L13.4961 25.6298L13.5523 25.6021L13.486 25.4675L13.4196 25.333L13.3634 25.3607L13.4297 25.4953ZM13.486 25.4675L13.5523 25.6021L13.6086 25.5743L13.5422 25.4398L13.4759 25.3053L13.4196 25.333L13.486 25.4675ZM13.5422 25.4398L13.6086 25.5743C13.6103 25.5734 13.6082 25.5748 13.6032 25.575C13.5981 25.5751 13.5951 25.5739 13.5954 25.574L13.6547 25.4362L13.714 25.2985C13.6351 25.2645 13.5517 25.2679 13.4759 25.3053L13.5422 25.4398ZM13.6547 25.4362L13.5954 25.574L13.6517 25.5982L13.711 25.4605L13.7703 25.3227L13.714 25.2985L13.6547 25.4362ZM13.711 25.4605L13.6517 25.5982L13.7079 25.6225L13.7672 25.4847L13.8265 25.3469L13.7703 25.3227L13.711 25.4605ZM13.7672 25.4847L13.7079 25.6225C13.758 25.644 13.8099 25.6583 13.8633 25.6642L13.8797 25.5151L13.8961 25.366C13.8746 25.3636 13.8515 25.3576 13.8265 25.3469L13.7672 25.4847ZM13.8797 25.5151L13.8633 25.6642L13.9196 25.6704L13.936 25.5213L13.9524 25.3722L13.8961 25.366L13.8797 25.5151ZM13.936 25.5213L13.9196 25.6704L13.9758 25.6765L13.9922 25.5274L14.0086 25.3783L13.9524 25.3722L13.936 25.5213ZM13.9922 25.5274L13.9758 25.6765C14.0201 25.6814 14.0636 25.6829 14.1044 25.6786L14.0887 25.5294L14.0731 25.3802C14.0602 25.3816 14.0393 25.3817 14.0086 25.3783L13.9922 25.5274ZM14.0887 25.5294L14.1044 25.6786L14.1446 25.6744L14.129 25.5252L14.1134 25.376L14.0731 25.3802L14.0887 25.5294ZM14.129 25.5252L14.1446 25.6744L14.1849 25.6701L14.1693 25.521L14.1536 25.3718L14.1134 25.376L14.129 25.5252ZM14.1693 25.521L14.1849 25.6701C14.1843 25.6702 14.1622 25.6732 14.1336 25.6629C14.1172 25.6569 14.0946 25.6451 14.0749 25.6221C14.0543 25.5981 14.0441 25.5703 14.0414 25.545C14.0366 25.5021 14.0533 25.4729 14.0547 25.4703C14.0585 25.4633 14.0609 25.4609 14.0581 25.4643L14.1736 25.5601L14.289 25.6559C14.2981 25.6448 14.3094 25.63 14.3189 25.6124C14.3259 25.5993 14.345 25.5617 14.3396 25.5122C14.3364 25.4836 14.3251 25.4531 14.3026 25.4268C14.2809 25.4016 14.2556 25.388 14.2356 25.3808C14.2 25.3679 14.1677 25.3703 14.1536 25.3718L14.1693 25.521ZM14.1736 25.5601L14.0581 25.4643L14.0222 25.5076L14.1376 25.6034L14.253 25.6992L14.289 25.6559L14.1736 25.5601ZM14.1376 25.6034L14.0222 25.5076L13.9862 25.5509L14.1016 25.6467L14.217 25.7425L14.253 25.6992L14.1376 25.6034ZM14.1016 25.6467L13.9862 25.5509C13.9598 25.5827 13.9346 25.6156 13.9105 25.6495L14.0329 25.7363L14.1552 25.8231C14.1749 25.7953 14.1955 25.7685 14.217 25.7425L14.1016 25.6467ZM14.0329 25.7363L13.9105 25.6495L13.8777 25.6957L14.0001 25.7825L14.1224 25.8693L14.1552 25.8231L14.0329 25.7363ZM14.0001 25.7825L13.8777 25.6957L13.845 25.7419L13.9673 25.8287L14.0896 25.9155L14.1224 25.8693L14.0001 25.7825ZM13.9673 25.8287L13.845 25.7419C13.8413 25.7471 13.835 25.7535 13.8202 25.7595L13.8768 25.8984L13.9333 26.0374C13.9955 26.0121 14.0496 25.9719 14.0896 25.9155L13.9673 25.8287ZM13.8768 25.8984L13.8202 25.7595L13.7625 25.783L13.819 25.9219L13.8755 26.0609L13.9333 26.0374L13.8768 25.8984ZM13.819 25.9219L13.7625 25.783L13.7047 25.8065L13.7613 25.9454L13.8178 26.0843L13.8755 26.0609L13.819 25.9219ZM13.7613 25.9454L13.7047 25.8065C13.6133 25.8437 13.5594 25.9203 13.5447 26.0114L13.6928 26.0353L13.8409 26.0591C13.8413 26.0567 13.8408 26.0624 13.8346 26.0705C13.8281 26.079 13.8207 26.0831 13.8178 26.0843L13.7613 25.9454ZM13.6928 26.0353L13.5447 26.0114L13.5341 26.0778L13.6822 26.1016L13.8303 26.1254L13.8409 26.0591L13.6928 26.0353ZM13.6822 26.1016L13.5341 26.0778L13.5234 26.1441L13.6715 26.168L13.8196 26.1918L13.8303 26.1254L13.6822 26.1016ZM13.6715 26.168L13.5234 26.1441C13.5223 26.1512 13.5209 26.1527 13.5218 26.1512C13.523 26.1492 13.525 26.147 13.5269 26.1456L13.614 26.2677L13.7011 26.3899C13.7705 26.3404 13.8073 26.2684 13.8196 26.1918L13.6715 26.168ZM13.614 26.2677L13.5269 26.1456L13.48 26.1791L13.5671 26.3012L13.6543 26.4233L13.7011 26.3899L13.614 26.2677ZM13.5671 26.3012L13.48 26.1791L13.4332 26.2125L13.5203 26.3346L13.6074 26.4567L13.6543 26.4233L13.5671 26.3012ZM13.5203 26.3346L13.4332 26.2125C13.3839 26.2476 13.3276 26.307 13.321 26.3954L13.4706 26.4065L13.6202 26.4176C13.6189 26.4348 13.6127 26.4476 13.6078 26.4546C13.6037 26.4606 13.6017 26.4608 13.6074 26.4567L13.5203 26.3346ZM13.4706 26.4065L13.321 26.3954L13.3182 26.4338L13.4677 26.4449L13.6173 26.456L13.6202 26.4176L13.4706 26.4065ZM13.4677 26.4449L13.3182 26.4338L13.3153 26.4723L13.4649 26.4834L13.6145 26.4945L13.6173 26.456L13.4677 26.4449ZM13.4649 26.4834L13.3153 26.4723C13.3122 26.5137 13.3159 26.5577 13.323 26.6015L13.4711 26.5774L13.6191 26.5533C13.6142 26.5231 13.6138 26.5043 13.6145 26.4945L13.4649 26.4834ZM13.4711 26.5774L13.323 26.6015L13.3321 26.6571L13.4801 26.633L13.6282 26.6089L13.6191 26.5533L13.4711 26.5774ZM13.4801 26.633L13.3321 26.6571L13.3411 26.7127L13.4892 26.6886L13.6372 26.6645L13.6282 26.6089L13.4801 26.633ZM13.4892 26.6886L13.3411 26.7127C13.3465 26.7453 13.3503 26.7782 13.3527 26.8116L13.5023 26.8009L13.6519 26.7902C13.6489 26.7479 13.644 26.706 13.6372 26.6645L13.4892 26.6886ZM13.5023 26.8009L13.3527 26.8116L13.3567 26.8682L13.5063 26.8575L13.656 26.8468L13.6519 26.7902L13.5023 26.8009ZM13.5063 26.8575L13.3567 26.8682L13.3608 26.9249L13.5104 26.9142L13.66 26.9035L13.656 26.8468L13.5063 26.8575ZM13.5104 26.9142L13.3608 26.9249C13.362 26.9418 13.36 26.9625 13.3521 26.9882L13.4954 27.0325L13.6388 27.0767C13.6562 27.0203 13.6642 26.9622 13.66 26.9035L13.5104 26.9142ZM13.4954 27.0325L13.3521 26.9882L13.3331 27.0499L13.4764 27.0941L13.6197 27.1383L13.6388 27.0767L13.4954 27.0325ZM13.4764 27.0941L13.3331 27.0499L13.3141 27.1115L13.4574 27.1557L13.6007 27.2L13.6197 27.1383L13.4764 27.0941ZM13.4574 27.1557L13.3141 27.1115C13.2901 27.1891 13.2958 27.2711 13.3397 27.3449L13.4686 27.2684L13.5976 27.1918C13.5982 27.1927 13.5995 27.1957 13.5999 27.1998C13.6003 27.2035 13.5995 27.204 13.6007 27.2L13.4574 27.1557ZM13.4686 27.2684L13.3397 27.3449L13.3699 27.396L13.4989 27.3194L13.6279 27.2428L13.5976 27.1918L13.4686 27.2684ZM13.4989 27.3194L13.3699 27.396L13.4002 27.447L13.5292 27.3704L13.6582 27.2939L13.6279 27.2428L13.4989 27.3194ZM13.5292 27.3704L13.4002 27.447C13.4178 27.4767 13.4336 27.5066 13.4474 27.5366L13.5836 27.4738L13.7198 27.411C13.7015 27.3712 13.681 27.3322 13.6582 27.2939L13.5292 27.3704ZM13.5836 27.4738L13.4474 27.5366L13.4716 27.589L13.6078 27.5261L13.744 27.4633L13.7198 27.411L13.5836 27.4738ZM13.6078 27.5261L13.4716 27.589L13.4957 27.6413L13.6319 27.5785L13.7681 27.5156L13.744 27.4633L13.6078 27.5261ZM13.6319 27.5785L13.4957 27.6413C13.509 27.6701 13.52 27.6991 13.5289 27.7283L13.6725 27.6848L13.816 27.6414C13.8031 27.5986 13.7871 27.5567 13.7681 27.5156L13.6319 27.5785ZM13.6725 27.6848L13.5289 27.7283L13.5453 27.7824L13.6888 27.7389L13.8324 27.6954L13.816 27.6414L13.6725 27.6848ZM13.6888 27.7389L13.5453 27.7824L13.5616 27.8364L13.7052 27.7929L13.8488 27.7494L13.8324 27.6954L13.6888 27.7389ZM13.7052 27.7929L13.5616 27.8364C13.5642 27.8448 13.5621 27.8421 13.5626 27.8318C13.5632 27.8199 13.5677 27.7954 13.588 27.7719L13.7014 27.8702L13.8147 27.9684C13.8824 27.8904 13.8625 27.7946 13.8488 27.7494L13.7052 27.7929ZM13.7014 27.8702L13.588 27.7719L13.5679 27.7952L13.6812 27.8935L13.7945 27.9917L13.8147 27.9684L13.7014 27.8702ZM13.6812 27.8935L13.5679 27.7952L13.5477 27.8185L13.661 27.9167L13.7743 28.015L13.7945 27.9917L13.6812 27.8935ZM13.661 27.9167L13.5477 27.8185C13.5573 27.8073 13.5815 27.7841 13.6224 27.7763C13.6668 27.7678 13.7029 27.7826 13.7234 27.7964C13.7414 27.8085 13.7501 27.8211 13.7517 27.8234C13.7541 27.8269 13.7541 27.8276 13.7522 27.8235L13.616 27.8865L13.4799 27.9495C13.489 27.9692 13.5112 28.0152 13.5559 28.0453C13.5839 28.0641 13.6273 28.0808 13.6788 28.0709C13.7268 28.0617 13.7579 28.0339 13.7743 28.015L13.661 27.9167ZM13.616 27.8865L13.7522 27.8235L13.7274 27.77L13.5913 27.833L13.4551 27.8959L13.4799 27.9495L13.616 27.8865ZM13.5913 27.833L13.7274 27.77L13.7027 27.7165L13.5665 27.7794L13.4304 27.8424L13.4551 27.8959L13.5913 27.833ZM13.5665 27.7794L13.7027 27.7165C13.6675 27.6405 13.6057 27.5894 13.5306 27.5632L13.4813 27.7049L13.432 27.8465C13.4363 27.848 13.4361 27.8487 13.434 27.8469C13.4331 27.8461 13.4322 27.8451 13.4314 27.8441C13.4307 27.8431 13.4304 27.8424 13.4304 27.8424L13.5665 27.7794ZM13.4813 27.7049L13.5306 27.5632L13.4702 27.5422L13.4209 27.6838L13.3716 27.8255L13.432 27.8465L13.4813 27.7049ZM13.4209 27.6838L13.4702 27.5422L13.4098 27.5211L13.3604 27.6628L13.3111 27.8044L13.3716 27.8255L13.4209 27.6838ZM13.3604 27.6628L13.4098 27.5211C13.408 27.5205 13.4114 27.5214 13.4161 27.5261C13.4183 27.5283 13.42 27.5305 13.4213 27.5326C13.4225 27.5347 13.423 27.536 13.423 27.5361L13.2806 27.5833L13.1383 27.6305C13.1665 27.7157 13.2289 27.7758 13.3111 27.8044L13.3604 27.6628ZM13.2806 27.5833L13.423 27.5361L13.4036 27.4777L13.2613 27.5249L13.1189 27.5721L13.1383 27.6305L13.2806 27.5833ZM13.2613 27.5249L13.4036 27.4777L13.3842 27.4192L13.2419 27.4665L13.0995 27.5137L13.1189 27.5721L13.2613 27.5249ZM13.2419 27.4665L13.3842 27.4192C13.3648 27.3606 13.3338 27.3073 13.29 27.2627L13.183 27.3679L13.0761 27.4731C13.0848 27.482 13.0931 27.4944 13.0995 27.5137L13.2419 27.4665ZM13.183 27.3679L13.29 27.2627L13.2505 27.2226L13.1435 27.3278L13.0366 27.4329L13.0761 27.4731L13.183 27.3679ZM13.1435 27.3278L13.2505 27.2226L13.211 27.1824L13.1041 27.2876L12.9971 27.3928L13.0366 27.4329L13.1435 27.3278ZM13.1041 27.2876L13.211 27.1824C13.1688 27.1395 13.1185 27.1075 13.0629 27.085L13.0067 27.2241L12.9505 27.3632C12.9721 27.3719 12.9867 27.3822 12.9971 27.3928L13.1041 27.2876ZM13.0067 27.2241L13.0629 27.085L13.005 27.0617L12.9488 27.2007L12.8927 27.3398L12.9505 27.3632L13.0067 27.2241ZM12.9488 27.2007L13.005 27.0617L12.9471 27.0383L12.891 27.1774L12.8348 27.3165L12.8927 27.3398L12.9488 27.2007ZM12.891 27.1774L12.9471 27.0383C12.9099 27.0233 12.8637 27.0062 12.823 27.0024L12.8092 27.1518L12.7953 27.3011C12.7906 27.3007 12.7883 27.3001 12.7894 27.3003C12.7902 27.3005 12.7926 27.3011 12.7968 27.3024C12.8053 27.3051 12.8177 27.3096 12.8348 27.3165L12.891 27.1774ZM12.8092 27.1518L12.823 27.0024L12.7991 27.0002L12.7852 27.1496L12.7714 27.2989L12.7953 27.3011L12.8092 27.1518ZM12.7852 27.1496L12.7991 27.0002L12.7752 26.998L12.7613 27.1473L12.7475 27.2967L12.7714 27.2989L12.7852 27.1496ZM12.7613 27.1473L12.7752 26.998C12.7299 26.9938 12.692 27.0075 12.6694 27.0178C12.6448 27.0291 12.6219 27.0441 12.6018 27.059L12.6914 27.1793L12.781 27.2997C12.7916 27.2918 12.7957 27.29 12.7943 27.2906C12.7934 27.291 12.7892 27.2929 12.7822 27.2946C12.7752 27.2962 12.7631 27.2981 12.7475 27.2967L12.7613 27.1473ZM12.6914 27.1793L12.6018 27.059L12.5559 27.0933L12.6455 27.2136L12.7351 27.3339L12.781 27.2997L12.6914 27.1793ZM12.6455 27.2136L12.5559 27.0933L12.5099 27.1275L12.5995 27.2478L12.6891 27.3681L12.7351 27.3339L12.6455 27.2136ZM12.5995 27.2478L12.5099 27.1275C12.4737 27.1545 12.4396 27.1838 12.4079 27.2153L12.5136 27.3217L12.6193 27.4281C12.6408 27.4067 12.6641 27.3867 12.6891 27.3681L12.5995 27.2478ZM12.5136 27.3217L12.4079 27.2153L12.3679 27.255L12.4737 27.3614L12.5794 27.4678L12.6193 27.4281L12.5136 27.3217ZM12.4737 27.3614L12.3679 27.255L12.328 27.2947L12.4337 27.4011L12.5395 27.5075L12.5794 27.4678L12.4737 27.3614ZM12.4337 27.4011L12.328 27.2947C12.2951 27.3274 12.2653 27.3627 12.2385 27.4006L12.3611 27.4871L12.4836 27.5736C12.5004 27.5498 12.519 27.5278 12.5395 27.5075L12.4337 27.4011ZM12.3611 27.4871L12.2385 27.4006L12.2058 27.4469L12.3284 27.5334L12.4509 27.62L12.4836 27.5736L12.3611 27.4871ZM12.3284 27.5334L12.2058 27.4469L12.1732 27.4932L12.2957 27.5797L12.4182 27.6663L12.4509 27.62L12.3284 27.5334ZM12.2957 27.5797L12.1732 27.4932C12.1406 27.5393 12.1172 27.5905 12.1015 27.6452L12.2458 27.6864L12.39 27.7276C12.3973 27.7019 12.4072 27.682 12.4182 27.6663L12.2957 27.5797ZM12.2458 27.6864L12.1015 27.6452L12.0843 27.7056L12.2285 27.7468L12.3727 27.788L12.39 27.7276L12.2458 27.6864ZM12.2285 27.7468L12.0843 27.7056L12.067 27.766L12.2113 27.8072L12.3555 27.8484L12.3727 27.788L12.2285 27.7468ZM12.2113 27.8072L12.067 27.766C12.0675 27.7643 12.07 27.7577 12.0769 27.7508C12.0836 27.7442 12.089 27.7427 12.0878 27.7431L12.1314 27.8866L12.175 28.0301C12.263 28.0034 12.3293 27.9401 12.3555 27.8484L12.2113 27.8072ZM12.1314 27.8866L12.0878 27.7431L12.0251 27.7621L12.0687 27.9056L12.1123 28.0491L12.175 28.0301L12.1314 27.8866ZM12.0687 27.9056L12.0251 27.7621L11.9625 27.7811L12.0061 27.9246L12.0497 28.0682L12.1123 28.0491L12.0687 27.9056ZM12.0061 27.9246L11.9625 27.7811C11.9555 27.7832 11.9542 27.7832 11.9568 27.7828C11.9583 27.7826 11.9629 27.7819 11.9697 27.7819C11.9757 27.7818 11.9892 27.7822 12.0062 27.7871C12.0234 27.7921 12.0519 27.8042 12.0759 27.833C12.1016 27.8639 12.1097 27.8992 12.1093 27.9274C12.1089 27.9526 12.1019 27.971 12.0982 27.9795C12.0942 27.9888 12.0901 27.995 12.0884 27.9974L11.9647 27.9126L11.841 27.8278C11.8349 27.8367 11.8101 27.8724 11.8093 27.9226C11.8088 27.9539 11.8178 27.9918 11.8452 28.0248C11.8709 28.0556 11.902 28.0692 11.9226 28.0752C11.959 28.0858 11.9914 28.0811 12.0032 28.0792C12.0197 28.0766 12.0358 28.0724 12.0497 28.0682L12.0061 27.9246ZM11.9647 27.9126L12.0884 27.9974L12.1097 27.9664L11.986 27.8816L11.8623 27.7968L11.841 27.8278L11.9647 27.9126ZM11.986 27.8816L12.1097 27.9664L12.131 27.9354L12.0073 27.8506L11.8835 27.7657L11.8623 27.7968L11.986 27.8816ZM12.0073 27.8506L12.131 27.9354C12.1621 27.89 12.1776 27.8376 12.1858 27.7888L12.0378 27.764L11.8899 27.7392C11.8879 27.751 11.8857 27.7588 11.8841 27.7634C11.8825 27.7681 11.8818 27.7683 11.8835 27.7657L12.0073 27.8506ZM12.0378 27.764L12.1858 27.7888L12.1951 27.7332L12.0471 27.7085L11.8992 27.6837L11.8899 27.7392L12.0378 27.764ZM12.0471 27.7085L12.1951 27.7332L12.2044 27.6777L12.0565 27.6529L11.9085 27.6281L11.8992 27.6837L12.0471 27.7085ZM12.0565 27.6529L12.2044 27.6777C12.211 27.638 12.2166 27.5982 12.2212 27.5581L12.0721 27.5412L11.9231 27.5244C11.9191 27.5592 11.9143 27.5938 11.9085 27.6281L12.0565 27.6529ZM12.0721 27.5412L12.2212 27.5581L12.2275 27.5019L12.0785 27.485L11.9294 27.4682L11.9231 27.5244L12.0721 27.5412ZM12.0785 27.485L12.2275 27.5019L12.2339 27.4457L12.0848 27.4289L11.9358 27.412L11.9294 27.4682L12.0785 27.485ZM12.0848 27.4289L12.2339 27.4457C12.2368 27.4201 12.2426 27.3952 12.2515 27.3707L12.1106 27.3193L11.9696 27.268C11.9527 27.3147 11.9413 27.3628 11.9358 27.412L12.0848 27.4289ZM12.1106 27.3193L12.2515 27.3707L12.271 27.3173L12.13 27.266L11.9891 27.2147L11.9696 27.268L12.1106 27.3193ZM12.13 27.266L12.271 27.3173L12.2904 27.264L12.1494 27.2126L12.0085 27.1613L11.9891 27.2147L12.13 27.266ZM12.1494 27.2126L12.2904 27.264C12.3141 27.1988 12.3163 27.1312 12.3014 27.0655L12.1551 27.0988L12.0088 27.1321C12.0122 27.147 12.0107 27.1553 12.0085 27.1613L12.1494 27.2126ZM12.1551 27.0988L12.3014 27.0655L12.2876 27.005L12.1413 27.0383L11.9951 27.0716L12.0088 27.1321L12.1551 27.0988ZM12.1413 27.0383L12.2876 27.005L12.2738 26.9445L12.1276 26.9778L11.9813 27.0111L11.9951 27.0716L12.1413 27.0383ZM12.1276 26.9778L12.2738 26.9445C12.2738 26.9445 12.2741 26.9458 12.2741 26.9483C12.2741 26.9508 12.2738 26.9538 12.273 26.957C12.2713 26.9638 12.2685 26.9668 12.2694 26.9657L12.1551 26.8686L12.0408 26.7715C11.9837 26.8388 11.9613 26.9232 11.9813 27.0111L12.1276 26.9778ZM12.1551 26.8686L12.2694 26.9657L12.3108 26.9171L12.1964 26.82L12.0821 26.7229L12.0408 26.7715L12.1551 26.8686ZM12.1964 26.82L12.3108 26.9171L12.3521 26.8684L12.2377 26.7713L12.1234 26.6742L12.0821 26.7229L12.1964 26.82ZM12.2377 26.7713L12.3521 26.8684C12.3996 26.8125 12.4288 26.7441 12.4297 26.6669L12.2797 26.6653L12.1297 26.6637C12.1297 26.6646 12.1296 26.6648 12.1294 26.6653C12.1291 26.666 12.1278 26.669 12.1234 26.6742L12.2377 26.7713ZM12.2797 26.6653L12.4297 26.6669L12.4303 26.6095L12.2803 26.6079L12.1303 26.6063L12.1297 26.6637L12.2797 26.6653ZM12.2803 26.6079L12.4303 26.6095L12.4309 26.5521L12.2809 26.5505L12.1309 26.5489L12.1303 26.6063L12.2803 26.6079ZM12.2809 26.5505L12.4309 26.5521C12.4315 26.4941 12.4209 26.4376 12.3986 26.384L12.2601 26.4415L12.1216 26.4991C12.1279 26.5141 12.1311 26.5303 12.1309 26.5489L12.2809 26.5505ZM12.2601 26.4415L12.3986 26.384L12.3772 26.3324L12.2387 26.39L12.1002 26.4475L12.1216 26.4991L12.2601 26.4415ZM12.2387 26.39L12.3772 26.3324L12.3558 26.2809L12.2173 26.3384L12.0788 26.396L12.1002 26.4475L12.2387 26.39ZM12.2173 26.3384L12.3558 26.2809C12.3352 26.2313 12.307 26.1861 12.2716 26.1457L12.1588 26.2446L12.046 26.3434C12.06 26.3595 12.0708 26.3768 12.0788 26.396L12.2173 26.3384ZM12.1588 26.2446L12.2716 26.1457L12.2345 26.1034L12.1217 26.2023L12.0089 26.3011L12.046 26.3434L12.1588 26.2446ZM12.1217 26.2023L12.2345 26.1034L12.1975 26.0611L12.0846 26.1599L11.9718 26.2588L12.0089 26.3011L12.1217 26.2023ZM12.0846 26.1599L12.1975 26.0611C12.1609 26.0193 12.1177 25.985 12.0691 25.9578L11.9958 26.0887L11.9226 26.2196C11.943 26.231 11.959 26.2441 11.9718 26.2588L12.0846 26.1599ZM11.9958 26.0887L12.0691 25.9578L12.0173 25.9288L11.9441 26.0597L11.8708 26.1906L11.9226 26.2196L11.9958 26.0887ZM11.9441 26.0597L12.0173 25.9288L11.9656 25.8999L11.8923 26.0308L11.8191 26.1617L11.8708 26.1906L11.9441 26.0597ZM11.8923 26.0308L11.9656 25.8999C11.9427 25.8871 11.9236 25.8725 11.9076 25.8563L11.801 25.9618L11.6943 26.0673C11.7311 26.1045 11.773 26.1359 11.8191 26.1617L11.8923 26.0308ZM11.801 25.9618L11.9076 25.8563L11.8681 25.8163L11.7614 25.9218L11.6547 26.0272L11.6943 26.0673L11.801 25.9618ZM11.7614 25.9218L11.8681 25.8163L11.8285 25.7762L11.7218 25.8817L11.6152 25.9872L11.6547 26.0272L11.7614 25.9218ZM11.7218 25.8817L11.8285 25.7762C11.8106 25.7582 11.7949 25.738 11.7813 25.7153L11.6527 25.7925L11.5241 25.8698C11.5498 25.9126 11.5802 25.9518 11.6152 25.9872L11.7218 25.8817ZM11.6527 25.7925L11.7813 25.7153L11.7517 25.6661L11.6231 25.7433L11.4946 25.8206L11.5241 25.8698L11.6527 25.7925ZM11.6231 25.7433L11.7517 25.6661L11.7222 25.6169L11.5936 25.6942L11.465 25.7714L11.4946 25.8206L11.6231 25.7433ZM11.5936 25.6942L11.7222 25.6169C11.7001 25.5801 11.6761 25.5441 11.6503 25.5089L11.5293 25.5975L11.4083 25.6862C11.4289 25.7142 11.4477 25.7426 11.465 25.7714L11.5936 25.6942ZM11.5293 25.5975L11.6503 25.5089L11.6156 25.4615L11.4946 25.5501L11.3736 25.6388L11.4083 25.6862L11.5293 25.5975ZM11.4946 25.5501L11.6156 25.4615L11.5808 25.414L11.4598 25.5027L11.3388 25.5913L11.3736 25.6388L11.4946 25.5501ZM11.4598 25.5027L11.5808 25.414C11.5793 25.412 11.5851 25.419 11.59 25.4334C11.5946 25.4469 11.605 25.4867 11.5831 25.5325C11.5602 25.5804 11.5199 25.598 11.5017 25.6034C11.4923 25.6062 11.4849 25.6071 11.4811 25.6074C11.4772 25.6077 11.4748 25.6076 11.4747 25.6076L11.4813 25.4577L11.4879 25.3079C11.4708 25.3071 11.4444 25.3074 11.416 25.3159C11.3867 25.3246 11.339 25.3476 11.3125 25.403C11.287 25.4562 11.2976 25.5056 11.3062 25.5308C11.3152 25.5568 11.3287 25.5775 11.3388 25.5913L11.4598 25.5027ZM11.4813 25.4577L11.4747 25.6076L11.5309 25.6101L11.5376 25.4602L11.5442 25.3104L11.4879 25.3079L11.4813 25.4577ZM11.5376 25.4602L11.5309 25.6101L11.5872 25.6126L11.5938 25.4627L11.6004 25.3129L11.5442 25.3104L11.5376 25.4602ZM11.5938 25.4627L11.5872 25.6126C11.6128 25.6137 11.639 25.6179 11.6659 25.6254L11.7063 25.481L11.7467 25.3365C11.6986 25.323 11.6498 25.3151 11.6004 25.3129L11.5938 25.4627ZM11.7063 25.481L11.6659 25.6254L11.7222 25.6411L11.7626 25.4967L11.8029 25.3522L11.7467 25.3365L11.7063 25.481ZM11.7626 25.4967L11.7222 25.6411L11.7784 25.6569L11.8188 25.5124L11.8592 25.368L11.8029 25.3522L11.7626 25.4967ZM11.8188 25.5124L11.7784 25.6569C11.8415 25.6745 11.9061 25.6751 11.9695 25.6584L11.9313 25.5133L11.8931 25.3683C11.8815 25.3713 11.8711 25.3713 11.8592 25.368L11.8188 25.5124ZM11.9313 25.5133L11.9695 25.6584L12.0258 25.6436L11.9876 25.4985L11.9493 25.3535L11.8931 25.3683L11.9313 25.5133ZM11.9876 25.4985L12.0258 25.6436L12.082 25.6287L12.0438 25.4837L12.0056 25.3386L11.9493 25.3535L11.9876 25.4985ZM12.0438 25.4837L12.082 25.6287C12.0839 25.6282 12.0846 25.6283 12.085 25.6284C12.0855 25.6284 12.088 25.6287 12.093 25.631L12.1563 25.495L12.2196 25.359C12.1526 25.3279 12.0793 25.3192 12.0056 25.3386L12.0438 25.4837ZM12.1563 25.495L12.093 25.631L12.1493 25.6572L12.2126 25.5212L12.2758 25.3852L12.2196 25.359L12.1563 25.495ZM12.2126 25.5212L12.1493 25.6572L12.2055 25.6834L12.2688 25.5473L12.3321 25.4113L12.2758 25.3852L12.2126 25.5212ZM12.2688 25.5473L12.2055 25.6834C12.2889 25.7221 12.3799 25.717 12.4583 25.6652L12.3756 25.5401L12.2929 25.415C12.2948 25.4137 12.3021 25.4097 12.3134 25.409C12.3246 25.4082 12.3315 25.4111 12.3321 25.4113L12.2688 25.5473ZM12.3756 25.5401L12.4583 25.6652L12.5089 25.6318L12.4262 25.5066L12.3434 25.3815L12.2929 25.415L12.3756 25.5401ZM12.4262 25.5066L12.5089 25.6318L12.5595 25.5983L12.4767 25.4732L12.394 25.3481L12.3434 25.3815L12.4262 25.5066ZM12.4767 25.4732L12.5595 25.5983C12.6279 25.5531 12.6738 25.4838 12.682 25.3976L12.5326 25.3834L12.3833 25.3692C12.3836 25.3666 12.3848 25.3609 12.3887 25.3548C12.3923 25.3489 12.3955 25.3471 12.394 25.3481L12.4767 25.4732ZM12.5326 25.3834L12.682 25.3976L12.6873 25.3412L12.538 25.327L12.3887 25.3128L12.3833 25.3692L12.5326 25.3834ZM12.538 25.327L12.6873 25.3412L12.6927 25.2848L12.5434 25.2706L12.394 25.2565L12.3887 25.3128L12.538 25.327ZM12.5434 25.2706L12.6927 25.2848C12.6944 25.2668 12.6995 25.2491 12.7088 25.231L12.5753 25.1625L12.4419 25.0939C12.4157 25.1449 12.3995 25.1994 12.394 25.2565L12.5434 25.2706ZM12.5753 25.1625L12.7088 25.231L12.7354 25.1792L12.602 25.1106L12.4686 25.0421L12.4419 25.0939L12.5753 25.1625ZM12.602 25.1106L12.7354 25.1792L12.762 25.1274L12.6286 25.0588L12.4952 24.9903L12.4686 25.0421L12.602 25.1106ZM12.6286 25.0588L12.762 25.1274C12.7947 25.0638 12.8051 24.9947 12.7944 24.9249L12.6462 24.9475L12.4979 24.9701C12.4993 24.9797 12.498 24.9848 12.4952 24.9903L12.6286 25.0588ZM12.6462 24.9475L12.7944 24.9249L12.7854 24.8655L12.6371 24.888L12.4888 24.9106L12.4979 24.9701L12.6462 24.9475ZM12.6371 24.888L12.7854 24.8655L12.7763 24.806L12.628 24.8286L12.4797 24.8512L12.4888 24.9106L12.6371 24.888ZM12.628 24.8286L12.7763 24.806C12.7726 24.7818 12.7731 24.7605 12.7767 24.7412L12.6293 24.7138L12.4818 24.6863C12.4716 24.7408 12.4713 24.7961 12.4797 24.8512L12.628 24.8286ZM12.6293 24.7138L12.7767 24.7412L12.787 24.6859L12.6396 24.6584L12.4921 24.631L12.4818 24.6863L12.6293 24.7138ZM12.6396 24.6584L12.787 24.6859L12.7973 24.6306L12.6499 24.6031L12.5024 24.5757L12.4921 24.631L12.6396 24.6584ZM12.6499 24.6031L12.7973 24.6306C12.804 24.5947 12.811 24.5589 12.8185 24.5233L12.6716 24.4927L12.5247 24.4622C12.5169 24.4999 12.5094 24.5378 12.5024 24.5757L12.6499 24.6031ZM12.6716 24.4927L12.8185 24.5233L12.8299 24.4682L12.6831 24.4376L12.5362 24.4071L12.5247 24.4622L12.6716 24.4927ZM12.6831 24.4376L12.8299 24.4682L12.8414 24.4131L12.6945 24.3826L12.5476 24.352L12.5362 24.4071L12.6831 24.4376ZM12.6945 24.3826L12.8414 24.4131C12.8497 24.3729 12.8566 24.3324 12.8621 24.2916L12.7135 24.2716L12.5648 24.2516C12.5603 24.2854 12.5545 24.3188 12.5476 24.352L12.6945 24.3826ZM12.7135 24.2716L12.8621 24.2916L12.8696 24.2357L12.721 24.2157L12.5723 24.1957L12.5648 24.2516L12.7135 24.2716ZM12.721 24.2157L12.8696 24.2357L12.8772 24.1797L12.7285 24.1597L12.5798 24.1398L12.5723 24.1957L12.721 24.2157ZM12.7285 24.1597L12.8772 24.1797C12.8808 24.1524 12.8864 24.1332 12.8918 24.1203L12.7535 24.0622L12.6152 24.0042C12.5973 24.0467 12.5862 24.0925 12.5798 24.1398L12.7285 24.1597ZM12.7535 24.0622L12.8918 24.1203L12.9093 24.0786L12.7709 24.0206L12.6326 23.9626L12.6152 24.0042L12.7535 24.0622ZM12.7709 24.0206L12.9093 24.0786L12.9267 24.037L12.7884 23.979L12.6501 23.921L12.6326 23.9626L12.7709 24.0206ZM12.7884 23.979L12.9267 24.037C12.932 24.0244 12.9343 24.02 12.9341 24.0205C12.9338 24.0209 12.933 24.0225 12.9315 24.0248C12.9302 24.0268 12.9272 24.0313 12.9226 24.0368C12.9189 24.0412 12.9088 24.0529 12.8921 24.064C12.877 24.0739 12.8353 24.0971 12.7792 24.0851L12.8108 23.9384L12.8423 23.7918C12.7854 23.7796 12.7428 23.803 12.7266 23.8137C12.7088 23.8255 12.6975 23.8383 12.6925 23.8443C12.6818 23.8571 12.6747 23.8696 12.6714 23.8756C12.6637 23.8896 12.6564 23.9059 12.6501 23.921L12.7884 23.979ZM12.8108 23.9384L12.7792 24.0851L12.7841 24.0861L12.8157 23.9395L12.8472 23.7928L12.8423 23.7918L12.8108 23.9384ZM12.8157 23.9395L12.7841 24.0861L12.789 24.0872L12.8206 23.9405L12.8521 23.7939L12.8472 23.7928L12.8157 23.9395ZM12.8206 23.9405L12.789 24.0872C12.7628 24.0815 12.7444 24.0702 12.7356 24.064C12.7258 24.0572 12.719 24.0507 12.7151 24.0468C12.7076 24.0391 12.703 24.0326 12.7016 24.0307C12.6984 24.0262 12.6973 24.0238 12.6988 24.0266C12.7013 24.0311 12.7062 24.0407 12.7139 24.0573L12.8498 23.9939L12.9858 23.9305C12.9773 23.9122 12.9691 23.8955 12.9618 23.8822C12.9585 23.8761 12.9533 23.867 12.9469 23.8579C12.9438 23.8536 12.9378 23.8453 12.929 23.8364C12.9259 23.8333 12.8988 23.8039 12.8521 23.7939L12.8206 23.9405ZM12.8498 23.9939L12.7139 24.0573L12.7383 24.1096L12.8742 24.0462L13.0102 23.9828L12.9858 23.9305L12.8498 23.9939Z" fill="var(--stroke-0, white)"/>
</g>
<g id="Ellipse 21">
<ellipse cx="11.9355" cy="11.7667" rx="3.56076" ry="3.84468" fill="var(--fill-0, white)"/>
<path d="M15.4805 12.3326L14.9807 12.3187L15.4805 12.3326ZM15.4288 12.7054L15.9136 12.8277L15.4288 12.7054ZM15.3359 13.0737L14.8511 12.9515L15.3359 13.0737ZM15.241 13.4508L15.7259 13.5728L15.241 13.4508ZM15.1439 13.8367L14.659 13.7147L15.1439 13.8367ZM15.0092 14.2199L14.5537 14.0137L15.0092 14.2199ZM14.8369 14.6005L15.2924 14.8067L14.8369 14.6005ZM14.5518 14.8694L14.3682 14.4043L14.5518 14.8694ZM14.3528 14.9479L14.5364 15.413L14.3528 14.9479ZM14.1539 15.0265L14.3375 15.4915L14.1539 15.0265ZM13.7383 15.0885L13.7002 15.587L13.7383 15.0885ZM13.5217 15.0719L13.4836 15.5705L13.5217 15.0719ZM13.3051 15.0554L13.3432 14.5568L13.3051 15.0554ZM12.9613 15.283L12.5178 15.052L12.9613 15.283ZM12.834 15.5272L12.3906 15.2962L12.834 15.5272ZM12.7067 15.7714L13.1502 16.0025L12.7067 15.7714ZM12.3766 15.8491L12.0594 16.2355L12.3766 15.8491ZM12.1738 15.6825L11.8565 16.069L12.1738 15.6825ZM11.9709 15.516L12.2882 15.1295L11.9709 15.516ZM11.5566 15.464L11.3185 15.0243L11.5566 15.464ZM11.3452 15.5785L11.5834 16.0182L11.3452 15.5785ZM10.8103 15.5864L11.2563 15.3605L10.8103 15.5864ZM10.5862 15.1441L10.1402 15.3701L10.5862 15.1441ZM10.328 14.8325L10.5911 14.4073L10.328 14.8325ZM10.0356 14.6515L9.77243 15.0766L10.0356 14.6515ZM9.79139 14.4186L10.2033 14.1352L9.79139 14.4186ZM9.59545 14.1338L9.18353 14.4172L9.59545 14.1338ZM9.2848 13.9097L9.46414 13.443L9.2848 13.9097ZM8.85944 13.7463L8.68011 14.213L8.85944 13.7463ZM8.68233 13.4525L8.18922 13.3698L8.68233 13.4525ZM8.28044 11.9798L7.80472 11.8258L8.28044 11.9798ZM8.36863 11.1942L7.91155 11.3969L8.36863 11.1942ZM8.44156 10.2593L8.13118 9.86731L8.44156 10.2593ZM8.93984 9.84504L8.59827 9.47989L8.93984 9.84504ZM9.07732 9.71643L9.41888 10.0816L9.07732 9.71643ZM9.2148 9.58783L8.87324 9.22268L9.2148 9.58783ZM9.45301 9.30783L9.03672 9.03088L9.45301 9.30783ZM9.55373 9.15644L9.13744 8.87949L9.55373 9.15644ZM9.88464 8.71411L9.5181 8.37404L9.88464 8.71411ZM10.1436 8.43502L9.77704 8.09495L10.1436 8.43502ZM10.4196 8.12338L10.0389 7.79922L10.4196 8.12338ZM10.5661 7.95128L10.9468 8.27544L10.5661 7.95128ZM10.7127 7.77919L10.332 7.45503L10.7127 7.77919ZM11.9115 7.92677L12.017 7.43804L11.9115 7.92677ZM13.4053 8.12182L12.9656 8.35986L13.4053 8.12182ZM14.0716 8.86803L14.2747 8.41113L14.0716 8.86803ZM14.2444 8.94481L14.0413 9.40172L14.2444 8.94481ZM14.5716 9.14404L14.261 9.53587L14.5716 9.14404ZM14.8805 9.38893L14.57 9.78076L14.8805 9.38893ZM15.0292 9.72288L15.529 9.73669L15.0292 9.72288ZM15.0233 9.93438L15.5231 9.9482L15.0233 9.93438ZM15.0175 10.1459L14.5177 10.1321L15.0175 10.1459ZM15.1242 10.5155L15.5315 10.2256L15.1242 10.5155ZM15.3492 10.8317L14.9418 11.1216L15.3492 10.8317ZM15.5851 11.1772L15.1674 11.4521L15.5851 11.1772ZM15.8318 11.5522L16.2494 11.2773L15.8318 11.5522ZM15.8404 11.7464L15.8699 12.2455L15.8404 11.7464ZM15.7257 11.7532L15.6962 11.254L15.7257 11.7532ZM15.491 11.9554L15.9908 11.9693L15.491 11.9554ZM15.4857 12.144L14.9859 12.1301L14.9807 12.3187L15.4805 12.3326L15.9803 12.3466L15.9855 12.1579L15.4857 12.144ZM15.4805 12.3326L14.9807 12.3187C14.9782 12.4077 14.966 12.4956 14.9439 12.5832L15.4288 12.7054L15.9136 12.8277C15.9534 12.6697 15.9757 12.5091 15.9803 12.3466L15.4805 12.3326ZM15.4288 12.7054L14.9439 12.5832L14.8975 12.7673L15.3823 12.8896L15.8672 13.0118L15.9136 12.8277L15.4288 12.7054ZM15.3823 12.8896L14.8975 12.7673L14.8511 12.9515L15.3359 13.0737L15.8207 13.196L15.8672 13.0118L15.3823 12.8896ZM15.3359 13.0737L14.8511 12.9515C14.8201 13.0744 14.7884 13.2002 14.7561 13.3289L15.241 13.4508L15.7259 13.5728C15.7582 13.4442 15.7898 13.3186 15.8207 13.196L15.3359 13.0737ZM15.241 13.4508L14.7561 13.3289L14.7075 13.5218L15.1924 13.6437L15.6773 13.7657L15.7259 13.5728L15.241 13.4508ZM15.1924 13.6437L14.7075 13.5218L14.659 13.7147L15.1439 13.8367L15.6288 13.9586L15.6773 13.7657L15.1924 13.6437ZM15.1439 13.8367L14.659 13.7147C14.6343 13.813 14.5995 13.9126 14.5537 14.0137L15.0092 14.2199L15.4647 14.4261C15.5338 14.2735 15.5888 14.1176 15.6288 13.9586L15.1439 13.8367ZM15.0092 14.2199L14.5537 14.0137L14.4676 14.204L14.9231 14.4102L15.3785 14.6164L15.4647 14.4261L15.0092 14.2199ZM14.9231 14.4102L14.4676 14.204L14.3814 14.3943L14.8369 14.6005L15.2924 14.8067L15.3785 14.6164L14.9231 14.4102ZM14.8369 14.6005L14.3814 14.3943C14.3793 14.3988 14.378 14.4007 14.378 14.4008C14.378 14.4008 14.3785 14.4 14.3795 14.3991C14.3805 14.3982 14.3808 14.3981 14.3796 14.3988C14.3784 14.3996 14.3749 14.4016 14.3682 14.4043L14.5518 14.8694L14.7354 15.3344C14.9856 15.2356 15.18 15.055 15.2924 14.8067L14.8369 14.6005ZM14.5518 14.8694L14.3682 14.4043L14.1692 14.4828L14.3528 14.9479L14.5364 15.413L14.7354 15.3344L14.5518 14.8694ZM14.3528 14.9479L14.1692 14.4828L13.9703 14.5614L14.1539 15.0265L14.3375 15.4915L14.5364 15.413L14.3528 14.9479ZM14.1539 15.0265L13.9703 14.5614C13.9092 14.5855 13.8465 14.5953 13.7764 14.5899L13.7383 15.0885L13.7002 15.587C13.9189 15.6037 14.1333 15.5721 14.3375 15.4915L14.1539 15.0265ZM13.7383 15.0885L13.7764 14.5899L13.5598 14.5734L13.5217 15.0719L13.4836 15.5705L13.7002 15.587L13.7383 15.0885ZM13.5217 15.0719L13.5598 14.5734L13.3432 14.5568L13.3051 15.0554L13.267 15.5539L13.4836 15.5705L13.5217 15.0719ZM13.3051 15.0554L13.3432 14.5568C13.1665 14.5433 12.99 14.5843 12.8348 14.6871C12.6871 14.7849 12.5868 14.9197 12.5178 15.052L12.9613 15.283L13.4047 15.5141C13.4206 15.4835 13.42 15.499 13.3869 15.5209C13.3696 15.5323 13.3481 15.5423 13.3238 15.5484C13.2999 15.5544 13.2799 15.5549 13.267 15.5539L13.3051 15.0554ZM12.9613 15.283L12.5178 15.052L12.3906 15.2962L12.834 15.5272L13.2774 15.7583L13.4047 15.5141L12.9613 15.283ZM12.834 15.5272L12.3906 15.2962L12.2633 15.5404L12.7067 15.7714L13.1502 16.0025L13.2774 15.7583L12.834 15.5272ZM12.7067 15.7714L12.2633 15.5404C12.2471 15.5716 12.2913 15.4626 12.4461 15.4262C12.6111 15.3874 12.7084 15.4745 12.6939 15.4626L12.3766 15.8491L12.0594 16.2355C12.1801 16.3347 12.4 16.4643 12.6751 16.3996C12.9399 16.3374 13.0816 16.1341 13.1502 16.0025L12.7067 15.7714ZM12.3766 15.8491L12.6939 15.4626L12.491 15.2961L12.1738 15.6825L11.8565 16.069L12.0594 16.2355L12.3766 15.8491ZM12.1738 15.6825L12.491 15.2961L12.2882 15.1295L11.9709 15.516L11.6536 15.9024L11.8565 16.069L12.1738 15.6825ZM11.9709 15.516L12.2882 15.1295C12.1663 15.0294 12.0122 14.9467 11.8282 14.9236C11.6404 14.9 11.4663 14.9443 11.3185 15.0243L11.5566 15.464L11.7948 15.9036C11.7929 15.9046 11.7829 15.9097 11.7653 15.9134C11.747 15.9173 11.7257 15.9186 11.7036 15.9158C11.6577 15.91 11.6403 15.8915 11.6536 15.9024L11.9709 15.516ZM11.5566 15.464L11.3185 15.0243L11.107 15.1389L11.3452 15.5785L11.5834 16.0182L11.7948 15.9036L11.5566 15.464ZM11.3452 15.5785L11.107 15.1389L10.8956 15.2534L11.1338 15.6931L11.3719 16.1327L11.5834 16.0182L11.3452 15.5785ZM11.1338 15.6931L10.8956 15.2534C10.8967 15.2528 10.9167 15.242 10.9533 15.236C10.9928 15.2295 11.046 15.2298 11.1037 15.2488C11.2229 15.2881 11.2611 15.37 11.2563 15.3605L10.8103 15.5864L10.3643 15.8124C10.4341 15.9504 10.5636 16.1237 10.7906 16.1986C11.0217 16.2747 11.2313 16.2089 11.3719 16.1327L11.1338 15.6931ZM10.8103 15.5864L11.2563 15.3605L11.1443 15.1393L10.6983 15.3653L10.2522 15.5912L10.3643 15.8124L10.8103 15.5864ZM10.6983 15.3653L11.1443 15.1393L11.0323 14.9182L10.5862 15.1441L10.1402 15.3701L10.2522 15.5912L10.6983 15.3653ZM10.5862 15.1441L11.0323 14.9182C10.9334 14.723 10.7939 14.5328 10.5911 14.4073L10.328 14.8325L10.0649 15.2576C10.057 15.2528 10.0897 15.2704 10.1402 15.3701L10.5862 15.1441ZM10.328 14.8325L10.5911 14.4073L10.4449 14.3168L10.1818 14.742L9.91864 15.1671L10.0649 15.2576L10.328 14.8325ZM10.1818 14.742L10.4449 14.3168L10.2987 14.2263L10.0356 14.6515L9.77243 15.0766L9.91864 15.1671L10.1818 14.742ZM10.0356 14.6515L10.2987 14.2263C10.2604 14.2026 10.2296 14.1734 10.2033 14.1352L9.79139 14.4186L9.37946 14.702C9.48381 14.8537 9.61576 14.9797 9.77243 15.0766L10.0356 14.6515ZM9.79139 14.4186L10.2033 14.1352L10.1053 13.9928L9.69342 14.2762L9.28149 14.5596L9.37946 14.702L9.79139 14.4186ZM9.69342 14.2762L10.1053 13.9928L10.0074 13.8504L9.59545 14.1338L9.18353 14.4172L9.28149 14.5596L9.69342 14.2762ZM9.59545 14.1338L10.0074 13.8504C9.86916 13.6495 9.67059 13.5223 9.46414 13.443L9.2848 13.9097L9.10547 14.3764C9.1826 14.4061 9.19112 14.4283 9.18353 14.4172L9.59545 14.1338ZM9.2848 13.9097L9.46414 13.443L9.25146 13.3612L9.07212 13.828L8.89279 14.2947L9.10547 14.3764L9.2848 13.9097ZM9.07212 13.828L9.25146 13.3612L9.03878 13.2795L8.85944 13.7463L8.68011 14.213L8.89279 14.2947L9.07212 13.828ZM8.85944 13.7463L9.03878 13.2795C9.03894 13.2796 9.04212 13.2808 9.04756 13.2838C9.05304 13.2867 9.06114 13.2916 9.07086 13.2989C9.09105 13.3143 9.11584 13.3387 9.137 13.3738C9.18354 13.451 9.17817 13.519 9.17544 13.5353L8.68233 13.4525L8.18922 13.3698C8.16278 13.5274 8.17507 13.7151 8.28064 13.8902C8.38397 14.0615 8.53945 14.1589 8.68011 14.213L8.85944 13.7463ZM8.68233 13.4525L9.17544 13.5353L9.211 13.3232L8.71789 13.2405L8.22478 13.1578L8.18922 13.3698L8.68233 13.4525ZM8.71789 13.2405L9.211 13.3232L9.24657 13.1112L8.75346 13.0285L8.26035 12.9458L8.22478 13.1578L8.71789 13.2405ZM8.75346 13.0285L9.24657 13.1112C9.29526 12.8209 9.21591 12.5447 9.02173 12.3242L8.64653 12.6547L8.27134 12.9852C8.27371 12.9879 8.2729 12.9875 8.27078 12.9837C8.26857 12.9798 8.2659 12.9739 8.26379 12.9666C8.26169 12.9592 8.26082 12.9527 8.26061 12.9481C8.26041 12.9436 8.26089 12.9425 8.26035 12.9458L8.75346 13.0285ZM8.64653 12.6547L9.02173 12.3242L8.87924 12.1625L8.50404 12.493L8.12885 12.8235L8.27134 12.9852L8.64653 12.6547ZM8.50404 12.493L8.87924 12.1625L8.73675 12.0007L8.36155 12.3312L7.98636 12.6617L8.12885 12.8235L8.50404 12.493ZM8.36155 12.3312L8.73675 12.0007C8.73343 11.997 8.74876 12.0134 8.75723 12.05C8.76616 12.0888 8.76054 12.1202 8.75617 12.1337L8.28044 11.9798L7.80472 11.8258C7.70435 12.1361 7.78619 12.4345 7.98636 12.6617L8.36155 12.3312ZM8.28044 11.9798L8.75617 12.1337L8.81755 11.944L8.34183 11.79L7.8661 11.6361L7.80472 11.8258L8.28044 11.9798ZM8.34183 11.79L8.81755 11.944L8.87893 11.7542L8.40321 11.6003L7.92749 11.4464L7.8661 11.6361L8.34183 11.79ZM8.40321 11.6003L8.87893 11.7542C8.96461 11.4894 8.92971 11.2261 8.82572 10.9915L8.36863 11.1942L7.91155 11.3969C7.92459 11.4263 7.92669 11.4421 7.92705 11.4463C7.92724 11.4485 7.92708 11.4489 7.92718 11.448C7.92722 11.4477 7.92729 11.4473 7.92737 11.4469C7.92745 11.4465 7.92751 11.4463 7.92749 11.4464L8.40321 11.6003ZM8.36863 11.1942L8.82572 10.9915L8.72976 10.7751L8.27268 10.9778L7.81559 11.1805L7.91155 11.3969L8.36863 11.1942ZM8.27268 10.9778L8.72976 10.7751L8.63381 10.5587L8.17672 10.7614L7.71964 10.9641L7.81559 11.1805L8.27268 10.9778ZM8.17672 10.7614L8.63381 10.5587C8.63341 10.5578 8.65374 10.6048 8.63659 10.6778C8.61902 10.7525 8.57748 10.7894 8.57155 10.7941L8.26117 10.4021L7.95079 10.0101C7.82459 10.1101 7.70884 10.2545 7.66312 10.449C7.61783 10.6417 7.65607 10.8207 7.71964 10.9641L8.17672 10.7614ZM8.26117 10.4021L8.57155 10.7941L8.75194 10.6513L8.44156 10.2593L8.13118 9.86731L7.95079 10.0101L8.26117 10.4021ZM8.44156 10.2593L8.75194 10.6513L8.93234 10.5085L8.62196 10.1165L8.31158 9.72447L8.13118 9.86731L8.44156 10.2593ZM8.62196 10.1165L8.93234 10.5085C9.0611 10.4065 9.17782 10.3071 9.2814 10.2102L8.93984 9.84504L8.59827 9.47989C8.51855 9.55446 8.42335 9.63598 8.31158 9.72447L8.62196 10.1165ZM8.93984 9.84504L9.2814 10.2102L9.41888 10.0816L9.07732 9.71643L8.73576 9.35128L8.59827 9.47989L8.93984 9.84504ZM9.07732 9.71643L9.41888 10.0816L9.55637 9.95298L9.2148 9.58783L8.87324 9.22268L8.73576 9.35128L9.07732 9.71643ZM9.2148 9.58783L9.55637 9.95298C9.67526 9.84177 9.77999 9.71902 9.8693 9.58479L9.45301 9.30783L9.03672 9.03088C8.99173 9.0985 8.93766 9.16242 8.87324 9.22268L9.2148 9.58783ZM9.45301 9.30783L9.8693 9.58479L9.97002 9.4334L9.55373 9.15644L9.13744 8.87949L9.03672 9.03088L9.45301 9.30783ZM9.55373 9.15644L9.97002 9.4334L10.0707 9.28201L9.65445 9.00505L9.23816 8.7281L9.13744 8.87949L9.55373 9.15644ZM9.65445 9.00505L10.0707 9.28201C10.1223 9.20443 10.1823 9.12846 10.2512 9.05418L9.88464 8.71411L9.5181 8.37404C9.41439 8.48583 9.32085 8.60381 9.23816 8.7281L9.65445 9.00505ZM9.88464 8.71411L10.2512 9.05418L10.3806 8.91464L10.0141 8.57456L9.64757 8.23449L9.5181 8.37404L9.88464 8.71411ZM10.0141 8.57456L10.3806 8.91464L10.5101 8.77509L10.1436 8.43502L9.77704 8.09495L9.64757 8.23449L10.0141 8.57456ZM10.1436 8.43502L10.5101 8.77509C10.6021 8.676 10.6988 8.5667 10.8003 8.44753L10.4196 8.12338L10.0389 7.79922C9.94499 7.90951 9.85773 8.00797 9.77704 8.09495L10.1436 8.43502ZM10.4196 8.12338L10.8003 8.44753L10.9468 8.27544L10.5661 7.95128L10.1854 7.62713L10.0389 7.79922L10.4196 8.12338ZM10.5661 7.95128L10.9468 8.27544L11.0934 8.10335L10.7127 7.77919L10.332 7.45503L10.1854 7.62713L10.5661 7.95128ZM10.7127 7.77919L11.0934 8.10335C11.0907 8.10645 11.0646 8.13422 11.012 8.14898C10.9599 8.16364 10.9244 8.15345 10.9228 8.15294L11.0762 7.67706L11.2296 7.20119C11.0834 7.15403 10.915 7.13754 10.7416 7.18625C10.5679 7.23505 10.4323 7.3372 10.332 7.45503L10.7127 7.77919ZM11.0762 7.67706L10.9228 8.15294L11.1398 8.22291L11.2932 7.74703L11.4466 7.27116L11.2296 7.20119L11.0762 7.67706ZM11.2932 7.74703L11.1398 8.22291L11.3568 8.29288L11.5102 7.817L11.6636 7.34113L11.4466 7.27116L11.2932 7.74703ZM11.5102 7.817L11.3568 8.29288C11.514 8.34358 11.664 8.38484 11.8059 8.4155L11.9115 7.92677L12.017 7.43804C11.9133 7.41563 11.7957 7.38371 11.6636 7.34113L11.5102 7.817ZM11.9115 7.92677L11.8059 8.4155L11.9901 8.4553L12.0957 7.96657L12.2013 7.47785L12.017 7.43804L11.9115 7.92677ZM12.0957 7.96657L11.9901 8.4553L12.1744 8.4951L12.28 8.00637L12.3855 7.51765L12.2013 7.47785L12.0957 7.96657ZM12.28 8.00637L12.1744 8.4951C12.3622 8.53566 12.5538 8.5384 12.7451 8.51045L12.6728 8.0157L12.6004 7.52096C12.5137 7.53364 12.4434 7.53015 12.3855 7.51765L12.28 8.00637ZM12.6728 8.0157L12.7451 8.51045L12.9536 8.47997L12.8813 7.98523L12.809 7.49048L12.6004 7.52096L12.6728 8.0157ZM12.8813 7.98523L12.9536 8.47997L13.1621 8.4495L13.0898 7.95475L13.0175 7.46001L12.809 7.49048L12.8813 7.98523ZM13.0898 7.95475L13.1621 8.4495C13.1461 8.45184 13.0963 8.45355 13.0389 8.42314C12.9842 8.39419 12.9647 8.35834 12.9656 8.35986L13.4053 8.12182L13.845 7.88379C13.7745 7.75361 13.6668 7.62407 13.5069 7.53942C13.3444 7.45333 13.1726 7.43735 13.0175 7.46001L13.0898 7.95475ZM13.4053 8.12182L12.9656 8.35986L13.0725 8.5574L13.5122 8.31937L13.9519 8.08134L13.845 7.88379L13.4053 8.12182ZM13.5122 8.31937L13.0725 8.5574L13.1794 8.75495L13.6192 8.51691L14.0589 8.27888L13.9519 8.08134L13.5122 8.31937ZM13.6192 8.51691L13.1794 8.75495C13.2931 8.96482 13.4617 9.14411 13.6958 9.24815L13.8989 8.79124L14.1019 8.33434C14.1009 8.33388 14.0982 8.33273 14.0927 8.32731C14.0865 8.32123 14.0742 8.30715 14.0589 8.27888L13.6192 8.51691ZM13.8989 8.79124L13.6958 9.24815L13.8685 9.32493L14.0716 8.86803L14.2747 8.41113L14.1019 8.33434L13.8989 8.79124ZM14.0716 8.86803L13.8685 9.32493L14.0413 9.40172L14.2444 8.94481L14.4475 8.48791L14.2747 8.41113L14.0716 8.86803ZM14.2444 8.94481L14.0413 9.40172C14.1164 9.43511 14.1896 9.47926 14.261 9.53587L14.5716 9.14404L14.8822 8.75221C14.7477 8.64557 14.6027 8.5569 14.4475 8.48791L14.2444 8.94481ZM14.5716 9.14404L14.261 9.53587L14.4155 9.65832L14.7261 9.26649L15.0367 8.87465L14.8822 8.75221L14.5716 9.14404ZM14.7261 9.26649L14.4155 9.65832L14.57 9.78076L14.8805 9.38893L15.1911 8.9971L15.0367 8.87465L14.7261 9.26649ZM14.8805 9.38893L14.57 9.78076C14.5633 9.77548 14.5487 9.76071 14.5381 9.73694C14.5281 9.71436 14.5296 9.70149 14.5294 9.70906L15.0292 9.72288L15.529 9.73669C15.5369 9.45166 15.4277 9.18465 15.1911 8.9971L14.8805 9.38893ZM15.0292 9.72288L14.5294 9.70906L14.5235 9.92056L15.0233 9.93438L15.5231 9.9482L15.529 9.73669L15.0292 9.72288ZM15.0233 9.93438L14.5235 9.92056L14.5177 10.1321L15.0175 10.1459L15.5173 10.1597L15.5231 9.9482L15.0233 9.93438ZM15.0175 10.1459L14.5177 10.1321C14.5111 10.3713 14.573 10.6034 14.7168 10.8054L15.1242 10.5155L15.5315 10.2256C15.5253 10.2168 15.5161 10.2025 15.5173 10.1597L15.0175 10.1459ZM15.1242 10.5155L14.7168 10.8054L14.8293 10.9635L15.2367 10.6736L15.644 10.3837L15.5315 10.2256L15.1242 10.5155ZM15.2367 10.6736L14.8293 10.9635L14.9418 11.1216L15.3492 10.8317L15.7566 10.5418L15.644 10.3837L15.2367 10.6736ZM15.3492 10.8317L14.9418 11.1216C15.0128 11.2213 15.088 11.3314 15.1674 11.4521L15.5851 11.1772L16.0028 10.9024C15.9177 10.7731 15.8356 10.6528 15.7566 10.5418L15.3492 10.8317ZM15.5851 11.1772L15.1674 11.4521L15.2907 11.6395L15.7084 11.3647L16.1261 11.0899L16.0028 10.9024L15.5851 11.1772ZM15.7084 11.3647L15.2907 11.6395L15.4141 11.827L15.8318 11.5522L16.2494 11.2773L16.1261 11.0899L15.7084 11.3647ZM15.8318 11.5522L15.4141 11.827C15.4257 11.8447 15.4263 11.8479 15.4224 11.8393C15.4209 11.836 15.3993 11.79 15.3961 11.7167C15.3923 11.6315 15.415 11.4855 15.5402 11.3676C15.6507 11.2636 15.7709 11.2496 15.8109 11.2473L15.8404 11.7464L15.8699 12.2455C15.9481 12.2409 16.0966 12.2172 16.2255 12.0958C16.3692 11.9607 16.4003 11.7898 16.3951 11.6723C16.3904 11.5665 16.3575 11.4806 16.3348 11.4299C16.3096 11.3738 16.2789 11.3221 16.2494 11.2773L15.8318 11.5522ZM15.8404 11.7464L15.8109 11.2473L15.6962 11.254L15.7257 11.7532L15.7552 12.2523L15.8699 12.2455L15.8404 11.7464ZM15.7257 11.7532L15.6962 11.254L15.5815 11.2608L15.611 11.76L15.6404 12.2591L15.7552 12.2523L15.7257 11.7532ZM15.611 11.76L15.5815 11.2608C15.3806 11.2727 15.2032 11.3784 15.0975 11.5506C15.011 11.6915 14.994 11.8414 14.9912 11.9414L15.491 11.9554L15.9908 11.9693C15.9915 11.9436 15.9962 11.9981 15.9497 12.0738C15.9229 12.1174 15.88 12.1662 15.8171 12.2038C15.7542 12.2414 15.6911 12.2561 15.6404 12.2591L15.611 11.76ZM15.491 11.9554L14.9912 11.9414L14.9859 12.1301L15.4857 12.144L15.9855 12.1579L15.9908 11.9693L15.491 11.9554Z" fill="var(--stroke-0, white)"/>
</g>
</g>
</svg>
