<svg xmlns="http://www.w3.org/2000/svg" fill="none" overflow="visible" preserveAspectRatio="none" style="display:block" viewBox="0 0 28.134 40.751"><path fill="var(--fill-0, #fffeef)" d="M13.227 1.003c.474.009.73.022 1.209.022 2.884 0 6.343 1.027 8.957 4.413 1.714 2.221 2.492 4.832 2.915 6.946.425 2.13.588 4.327.723 5.803.18 1.99.158 5.014-.354 8.161-.498 3.065-1.556 6.854-3.874 9.865-.924 1.2-2.397 2.274-4.054 2.905-1.796.684-4.24 1.004-6.819-.035-.996-.4-1.69-.654-2.25-.86-.455-.168-1.18-.427-1.833-.775-1.692-.904-2.701-2.351-3.272-3.053-1.446-1.78-2.478-4.549-3.042-7.513-.598-3.143-.777-7.05-.096-11.462.05-.325.133-.638.24-.936q.008-.403.082-.814c.377-2.034 1.103-4.356 2.16-6.637.577-1.247 1.31-2.484 2.515-3.442.549-.436 1.074-.708 1.204-.778l.009-.004c.99-.733 2.204-1.473 3.873-1.718a10.4 10.4 0 0 1 1.707-.088"/><path fill="var(--stroke-0, #f4c280)" d="m13.227 1.003.017-1zm1.209.022v-1zm8.957 4.413.791-.611zm2.915 6.946.98-.196zm.723 5.803-.996.09zm-.354 8.161.987.16zm-3.874 9.865.792.61zm-4.054 2.905.356.934zm-6.819-.035.373-.927zm-2.25-.86-.345.938zm-1.833-.775-.47.882zm-3.272-3.053.777-.63zm-3.042-7.513-.982.187zM1.437 15.42l-.989-.152zm.24-.936.94.339.056-.155.004-.163zm.082-.814-.983-.182zm2.16-6.637-.908-.42zM6.433 3.59l-.622-.783zm1.204-.778.475.88zm.009-.004.47.882.066-.034.06-.044zm3.873-1.718L11.374.1zm1.707-.088-.018 1c.443.008.738.022 1.227.022v-2c-.471 0-.687-.013-1.192-.021zm1.209.022v1c2.642 0 5.779.932 8.165 4.024l.792-.611.791-.611C21.345 1.146 17.562.025 14.437.025zm8.957 4.413-.792.611c1.578 2.044 2.316 4.48 2.726 6.531l.98-.196.982-.196c-.436-2.177-1.253-4.962-3.105-7.361zm2.915 6.946-.98.196c.412 2.064.57 4.198.707 5.698l.995-.091.996-.09c-.132-1.453-.299-3.715-.738-5.909zm.723 5.803-.996.09c.174 1.909.153 4.849-.345 7.91l.987.161.987.16c.526-3.231.551-6.34.362-8.412zm-.354 8.161-.987-.16c-.487 2.996-1.508 6.595-3.68 9.415l.793.61.792.61c2.466-3.201 3.56-7.18 4.07-10.314zm-3.874 9.865-.792-.61c-.798 1.037-2.113 2.007-3.618 2.58l.356.935.356.934c1.81-.689 3.442-1.866 4.49-3.228zm-4.054 2.905-.356-.935c-1.618.616-3.795.897-6.09-.027l-.373.928-.373.927c2.863 1.153 5.573.793 7.548.041zm-6.819-.035.373-.927c-1.011-.407-1.717-.665-2.276-.871l-.346.938-.346.938c.559.206 1.24.455 2.222.85zm-2.25-.86.347-.938c-.473-.174-1.128-.41-1.71-.72l-.47.883-.47.882c.725.387 1.52.67 1.958.831zm-1.833-.775.47-.882c-1.473-.787-2.344-2.037-2.965-2.802l-.777.631-.776.63c.52.64 1.666 2.285 3.577 3.305zm-3.272-3.053.776-.63c-1.297-1.598-2.286-4.181-2.835-7.07l-.983.187-.982.187c.578 3.04 1.653 5.993 3.248 7.957zm-3.042-7.513.983-.187c-.577-3.032-.754-6.824-.09-11.122l-.99-.153-.988-.152c-.698 4.525-.516 8.546.103 11.801zM1.437 15.42l.988.153q.061-.386.193-.75l-.941-.34-.94-.338a6 6 0 0 0-.289 1.123zm.24-.936 1 .02q.006-.327.065-.652l-.983-.182-.983-.182q-.09.496-.099.975zm.082-.814.983.183c.361-1.948 1.06-4.19 2.084-6.4l-.908-.42-.907-.42C1.92 8.966 1.169 11.368.776 13.488zm2.16-6.637.907.42c.55-1.189 1.202-2.262 2.23-3.079l-.622-.783-.622-.783c-1.384 1.1-2.197 2.5-2.801 3.805zM6.433 3.59l.622.783c.472-.375.926-.61 1.057-.681l-.475-.88-.475-.88c-.128.07-.725.378-1.351.875zm1.204-.778.475.88a1 1 0 0 1-.091.043l-.005.002h-.001v.001l.005-.002a1 1 0 0 0 .096-.046l-.47-.882-.471-.882a1 1 0 0 1 .09-.042l.004-.002-.009.004a1 1 0 0 0-.098.046zm.009-.004.595.804c.93-.689 1.987-1.322 3.423-1.532l-.145-.99-.145-.99C9.472.382 8.102 1.228 7.05 2.007zm3.873-1.718.145.99a9.4 9.4 0 0 1 1.544-.078l.018-1 .017-1a11.4 11.4 0 0 0-1.87.099z"/><ellipse cx="14.634" cy="19" fill="var(--fill-0, #424242)" rx="6" ry="9"/><path fill="var(--fill-0, white)" d="m12.825 23.942.333 1.55h1.078l-.872.957.333 1.55-.872-.958-.872.958.333-1.55-.872-.957h1.078z"/><path fill="var(--stroke-0, white)" d="m12.874 24.047-.136.063zm.024.052.136-.064zm.027.11-.15.006zm.003.056.15-.007zm.002.057-.15.007zm.02.11.143-.046zm.018.055-.142.047zm.018.053-.142.047zm.025.11-.15.018zm.013.112.15-.018zm.001.115-.149-.014zm-.01.117-.15-.014zm.009.114.144-.041zm.03.108-.144.04zm.033.108-.143.046zm.111.17-.024.149zm.232.002-.067-.135zm.056-.028-.067-.135zm.056-.028.066.135zm.225.045-.06.138zm.113.03.016-.149zm.056.007-.017.149zm.056.006-.016.149zm.096.002.016.149zm.04-.004.016.149zm.041-.005-.016-.149zm.004.04-.115-.096zm-.036.043.116.096zm-.104.133-.123-.087zm-.033.046.122.087zm-.033.046.122.087zm-.09.07-.057-.14zm-.116.047.057.139zm-.068.09-.149-.024zm-.022.132.148.024zm-.104.134.087.122zm-.047.033-.087-.122zm-.05.072-.15-.011zm-.003.038.15.011zm-.002.039-.15-.011zm.006.094.148-.024zm.018.111-.148.024zm.013.112.15-.01zm.004.057-.15.01zm.004.057.15-.011zm-.015.118.144.044zm-.038.123-.143-.044zm.011.113.13-.077zm.061.102-.129.076zm.054.103-.136.063zm.049.105.136-.063zm.04.106-.143.044zm.033.108.143-.043zm-.004.078.114.098zm-.02.023-.113-.098zm-.02.023-.114-.098zm-.045-.03.136-.063zm-.05-.107-.136.063zm-.085-.075.05-.141zm-.12-.042-.05.142zm-.08-.08-.143.048zm-.04-.116.143-.047zm-.058-.099-.107.106zm-.04-.04.107-.105zm-.04-.04-.106.105zm-.096-.064-.057.14zm-.058-.023-.056.14zm-.058-.023.056-.14zm-.082-.026-.014.15zm-.048-.004.014-.15zm-.07.032.09.12zm-.178.142-.105-.106zm-.04.04.106.106zm-.04.04.106.106zm-.072.085.122.087zm-.066.093-.122-.086zm-.084.228-.144-.042zm-.08.079.044.143zm-.125.038-.044-.143zm-.042-.012.124.085zm.022-.031.123.085zm.021-.031.124.085zm.03-.087-.147-.024zm.035-.222.149.016zm.006-.057-.149-.016zm.007-.056.149.017zm.064-.216-.14-.051zm.006-.114.146-.033zm-.028-.12-.146.033zm.028-.11-.114-.097zm.083-.097.114.097zm.041-.106-.15-.002zm.001-.058.15.002zm0-.057-.15-.002zm-.02-.11.138-.057zm-.043-.102-.139.057zm-.058-.094-.113.099zm-.038-.042-.112.099zm-.037-.043.113-.099zm-.088-.07-.074.13zm-.104-.059-.073.131zm-.091-.069-.107.106zm-.08-.08-.106.106zm-.069-.09-.128.078zm-.059-.097-.128.077zm-.064-.097-.12.089zm-.07-.095.122-.089zm.022-.045-.007.15zm.113.005.006-.15zm.112.018.04-.144zm.45.014-.063.136zm.056.027-.063.136zm.057.026.063-.136zm.106-.007.083.125zm.101-.067-.082-.125zm.056-.09.15.014zm.011-.113.15.014zm.032-.108-.133-.069zm.027-.052.133.069zm.027-.397.148.028zm.02-.11-.147-.028zm.022-.11-.146-.031zm.023-.111-.147-.03zm.02-.111-.15-.02zm.014-.112.149.02zm.025-.097-.138-.058zm.018-.042.138.058zm.017-.042.139.058zm.022-.04-.031.146zm.01.002.032-.147zm.03.053-.136.064zm.024.053-.136.063.024.052.136-.063.136-.064-.024-.052zm.024.052-.136.063a.14.14 0 0 1 .013.053l.15-.007.15-.007a.4.4 0 0 0-.04-.166zm.027.11-.15.006.003.057.15-.007.15-.007-.003-.057zm.003.056-.15.007.003.057.15-.007.15-.007-.003-.057zm.002.057-.15.007a.6.6 0 0 0 .028.15l.143-.046.142-.047a.3.3 0 0 1-.013-.07zm.02.11-.142.048.018.053.142-.046.143-.047-.018-.054zm.018.055-.142.047.018.053.142-.047.143-.047-.018-.053zm.018.053-.142.047a.4.4 0 0 1 .018.081l.149-.018.149-.018a.7.7 0 0 0-.031-.139zm.025.11-.15.018.007.056.15-.018.148-.018-.007-.056zm.006.056-.149.018.007.056.15-.018.148-.018-.007-.056zm.007.056-.149.018a.4.4 0 0 1 .001.083l.15.014.149.014a.7.7 0 0 0-.002-.147zm.001.115-.149-.014-.005.059.149.014.15.014.005-.059zm-.005.059-.15-.014-.005.058.15.014.149.015.005-.059zm-.006.058-.15-.014a.5.5 0 0 0 .015.168l.145-.04.144-.041a.2.2 0 0 1-.004-.058zm.01.114-.144.04.015.054.144-.04.145-.04-.016-.055zm.015.054-.144.04.015.055.144-.041.145-.04-.015-.055zm.015.054-.144.04q.015.059.034.114l.143-.046.143-.046-.031-.103zm.033.108-.143.046.018.054.143-.046.142-.047-.017-.053zm.018.054-.143.046.018.054.142-.046.143-.047-.018-.054zm.017.054-.143.046a.24.24 0 0 0 .195.165l.024-.148.024-.148q.005-.002.024.012a.1.1 0 0 1 .019.026zm.076.063-.024.148.058.01.025-.149.024-.148-.059-.01zm.059.01-.025.148.059.009.024-.148.024-.148-.058-.01zm.058.009-.024.148q.108.017.205-.032l-.066-.134-.067-.135q-.016.008-.024.005zm.115-.018.066.134.056-.027-.066-.135-.067-.135-.056.028zm.056-.028.066.134.056-.027-.066-.135-.066-.134-.057.027zm.056-.028.066.135h-.013l.06-.138.059-.138a.28.28 0 0 0-.238.007zm.113-.003-.06.137.056.025.06-.138.06-.138-.057-.024zm.056.024-.06.138.057.024.059-.138.06-.138-.057-.024zm.056.024-.06.138q.076.032.156.042l.017-.15.016-.149a.3.3 0 0 1-.07-.019zm.113.03-.017.15.056.006.017-.15.016-.148-.056-.007zm.056.007-.017.149.057.006.016-.15.016-.148-.056-.006zm.056.006-.016.149a.6.6 0 0 0 .128.002l-.015-.15-.016-.148a.3.3 0 0 1-.065-.002zm.096.002.016.149.04-.004-.015-.15-.016-.149-.04.005zm.04-.004.016.149.04-.005-.015-.149-.016-.149-.04.004zm.041-.005.016.15c-.001 0-.023.003-.052-.008a.14.14 0 0 1-.092-.118c-.005-.043.012-.072.013-.074l.004-.006.115.096.116.095a.3.3 0 0 0 .03-.043.17.17 0 0 0 .02-.1.16.16 0 0 0-.104-.132.2.2 0 0 0-.082-.009zm.004.04-.115-.096-.036.043.115.096.116.096.036-.044zm-.036.043-.115-.096-.036.043.115.096.116.096.036-.043zm-.036.043-.115-.096-.076.099.123.087.122.087q.03-.042.062-.081zm-.068.09-.123-.087-.033.046.123.087.122.087.033-.047zm-.033.046-.123-.087-.032.046.122.087.122.087.033-.046zm-.033.046-.122-.087a.05.05 0 0 1-.025.018l.056.139.057.139a.35.35 0 0 0 .156-.122zm-.09.07-.057-.14-.058.024.057.14.056.138.058-.023zm-.058.023-.057-.139-.058.024.057.139.057.139.057-.024zm-.058.024-.056-.14a.26.26 0 0 0-.16.206l.148.024.148.023-.007.012-.016.014zm-.068.09-.149-.024-.01.066.148.024.148.024.01-.067zm-.011.066-.148-.024-.01.067.147.023.148.024.011-.066zm-.01.066-.149-.023-.001.007.005-.006.087.122.087.122a.3.3 0 0 0 .118-.198zm-.058.1-.087-.122-.047.034.087.122.087.122.047-.034zm-.047.034-.087-.122-.047.033.087.122.087.122.047-.033zm-.047.033-.087-.122a.25.25 0 0 0-.112.183l.15.01.149.012a.1.1 0 0 1-.012.037q-.009.009 0 .002zm-.05.072-.15-.011-.002.038.15.011.15.011.002-.038zm-.003.038-.15-.01-.002.038.15.01.15.012.002-.039zm-.002.039-.15-.011a.6.6 0 0 0 .008.129l.148-.024.148-.024a.3.3 0 0 1-.005-.06zm.006.094-.148.024.009.055.148-.024.148-.024-.01-.055zm.009.055-.148.024.009.056.148-.024.148-.024-.009-.056zm.009.056-.148.024q.009.05.011.099l.15-.01.15-.011a1 1 0 0 0-.015-.126zm.013.112-.15.011.005.057.15-.011.149-.01-.004-.057zm.004.057-.15.01.005.057.15-.01.149-.011-.004-.057zm.004.057-.15.01a.2.2 0 0 1-.008.064l.143.044.144.044a.5.5 0 0 0 .02-.173zm-.015.118-.143-.044-.02.061.144.044.143.045.02-.062zm-.019.061-.143-.044-.02.062.144.044.143.044.02-.061zm-.019.062-.143-.044a.28.28 0 0 0 .025.233l.13-.076.128-.077.003.008q0 .006 0 0zm.011.113-.129.076.03.051.13-.076.129-.077-.03-.05zm.03.05-.128.077.03.051.129-.076.129-.077-.03-.05zm.031.052-.129.076q.027.045.047.09l.136-.063.137-.063a1 1 0 0 0-.062-.117zm.054.103-.136.063.024.052.137-.062.136-.063-.024-.053zm.025.052-.137.063.024.053.137-.063.136-.063-.024-.052zm.024.053-.136.063a1 1 0 0 1 .033.087l.143-.044.144-.043a1 1 0 0 0-.048-.126zm.04.106-.143.044.016.054.144-.044.143-.043-.016-.054zm.017.054-.144.044.016.054.144-.044.143-.043-.016-.054zm.016.054-.144.044c.003.008 0 .006.001-.005a.1.1 0 0 1 .026-.06l.113.099.114.098c.067-.078.047-.174.034-.22zm-.004.078-.113-.099-.02.024.113.098.113.098.02-.023zm-.02.023-.113-.098-.02.023.113.098.113.098.02-.023zm-.02.023-.114-.098a.136.136 0 0 1 .176-.022.1.1 0 0 1 .028.027q.004.005.001 0l-.136.063-.136.063c.009.02.031.066.076.096a.164.164 0 0 0 .218-.03zm-.045-.03.136-.063-.025-.054-.136.063-.136.063.025.054zm-.025-.054.136-.063-.025-.053-.136.063-.136.063.025.053zm-.025-.053.136-.063a.3.3 0 0 0-.172-.153l-.049.141-.05.142q.007.002.003 0l-.003-.003v-.001zm-.085-.075.05-.141-.061-.021-.05.141-.049.142.06.02zm-.06-.02.049-.142-.06-.021-.05.141-.05.142.061.02zm-.06-.022.049-.142.006.005.005.007.002.003-.143.048-.142.047a.27.27 0 0 0 .173.174zm-.08-.08.142-.046-.02-.059-.142.047-.142.048.019.058zm-.02-.058.142-.047-.019-.058-.142.047-.143.047.02.059zm-.02-.058.143-.047a.4.4 0 0 0-.094-.157l-.107.105-.107.106a.1.1 0 0 1 .023.04zm-.058-.099.107-.105-.04-.04-.107.105-.107.105.04.04zm-.04-.04.107-.105-.04-.04-.106.105-.107.105.04.04zm-.04-.04.108-.105a.4.4 0 0 0-.148-.098l-.056.14-.057.139a.1.1 0 0 1 .047.03zm-.096-.064.056-.139-.058-.023-.056.14-.056.138.057.024zm-.058-.023.056-.139-.058-.023-.056.139-.056.139.057.023zm-.058-.023.056-.14a.5.5 0 0 0-.124-.035l-.014.15-.014.149-.006-.001.008.002.038.014zm-.082-.026.014-.15-.024-.001-.014.149-.014.15.024.002zm-.024-.002.014-.15-.024-.002-.014.15-.014.15.024.001zm-.024-.002.014-.15a.2.2 0 0 0-.106.02.4.4 0 0 0-.067.041l.09.12.089.121.013-.009-.012.004a.1.1 0 0 1-.035.002zm-.07.032-.09-.12-.045.034.09.12.089.12.046-.034zm-.046.034-.09-.12-.045.034.09.12.089.12.046-.034zm-.046.034-.09-.12a1 1 0 0 0-.101.088l.105.106.106.107a1 1 0 0 1 .07-.06zm-.086.074-.105-.106-.04.04.105.106.106.106.04-.04zm-.04.04-.105-.107-.04.04.106.106.105.107.04-.04zm-.04.04-.105-.107a1 1 0 0 0-.09.106l.123.087.122.086.056-.066zm-.072.085-.123-.086-.032.046.122.087.123.086.032-.046zm-.033.047-.122-.087-.033.047.123.086.122.087.033-.047zm-.032.046-.123-.086a.5.5 0 0 0-.072.152l.144.04.145.042a.2.2 0 0 1 .028-.061zm-.05.107-.145-.041-.017.06.144.041.145.041.017-.06zm-.018.06-.144-.041-.017.06.144.042.144.04.018-.06zm-.017.06-.144-.04a.04.04 0 0 1 .01-.016c.006-.006.012-.008.01-.008l.044.144.044.143a.26.26 0 0 0 .18-.181zm-.08.08-.043-.143-.063.018.043.144.044.143.063-.018zm-.062.019-.044-.143-.063.018.044.144.043.144.063-.02zm-.063.019-.044-.143-.005.001h.012q.011-.001.037.005a.143.143 0 0 1 .082.21l-.123-.085-.124-.085a.17.17 0 0 0-.032.095.156.156 0 0 0 .113.153c.037.01.07.005.08.004l.047-.011zm-.042-.012.124.085.022-.031-.124-.085-.124-.085-.021.031zm.022-.031.123.085.022-.031-.124-.085-.124-.085-.021.031zm.021-.031.124.085a.4.4 0 0 0 .055-.147l-.148-.025-.148-.024-.006.024q-.003.007 0 .002zm.03-.087.149.025.009-.055-.148-.025-.148-.025-.01.056zm.01-.055.148.025.01-.056-.149-.025-.148-.024-.009.055zm.01-.056.147.025q.01-.06.017-.12l-.15-.016-.148-.017q-.006.053-.015.104zm.015-.111.149.016.006-.056-.149-.017-.149-.016-.006.056zm.006-.057.15.017.006-.056-.15-.017-.149-.017-.006.057zm.007-.056.149.017a.3.3 0 0 1 .017-.075l-.14-.051-.142-.052a.6.6 0 0 0-.034.144zm.025-.11.141.052.02-.053-.141-.052-.141-.05-.02.052zm.02-.053.14.052.02-.054-.14-.051-.142-.051-.02.053zm.02-.053.14.051a.35.35 0 0 0 .011-.198l-.146.033-.146.034a.05.05 0 0 1 0 .029zm.005-.114.146-.033-.014-.06-.146.033-.146.033.014.06zm-.014-.06.146-.034-.013-.06-.147.033-.146.034.014.06zm-.014-.06.147-.034v.004l-.001.008-.004.01-.114-.098-.114-.097a.27.27 0 0 0-.06.24zm.028-.11.114.097.041-.049-.114-.097-.114-.097-.042.049zm.041-.049.114.098.042-.05-.114-.096-.115-.097-.041.048zm.042-.048.114.097a.3.3 0 0 0 .077-.202l-.15-.001-.15-.002v.002l-.006.009zm.041-.106.15.001.001-.057-.15-.002-.15-.001v.057zm.001-.058.15.002v-.058l-.15-.001-.15-.002v.058zm0-.057.15.002a.4.4 0 0 0-.032-.169l-.138.058-.139.058q.01.021.01.05zm-.02-.11.138-.057-.021-.051-.139.057-.138.058.021.052zm-.021-.05.138-.058-.021-.052-.139.058-.139.057.022.052zm-.022-.052.139-.058a.5.5 0 0 0-.085-.135l-.112.099-.113.099a.2.2 0 0 1 .033.052zm-.058-.094.112-.099-.037-.042-.113.099-.112.099.037.042zm-.038-.042.113-.1-.037-.042-.113.1-.112.098.037.043zm-.037-.043.113-.099a.5.5 0 0 0-.128-.103l-.073.131-.074.131q.03.016.05.04zm-.088-.07.073-.132-.052-.029-.073.131-.073.131.051.029zm-.052-.03.073-.13-.052-.03-.073.131-.073.131.052.029zm-.052-.029.073-.13a.3.3 0 0 1-.058-.044l-.106.105-.107.106a.6.6 0 0 0 .125.094zm-.091-.069.106-.105-.04-.04-.106.105-.106.106.04.04zm-.04-.04.107-.105-.04-.04-.106.105-.107.106.04.04zm-.04-.04.107-.105a.3.3 0 0 1-.047-.061l-.129.077-.128.077a.6.6 0 0 0 .09.118zm-.069-.09.13-.076-.03-.05-.13.078-.128.077.03.05zm-.03-.048.13-.078-.03-.049-.129.078-.128.077.03.049zm-.029-.05.129-.077a1 1 0 0 0-.072-.108l-.12.089-.122.089q.03.042.057.085zm-.064-.096.121-.089-.035-.047-.12.088-.122.09.035.047zm-.035-.047.121-.09-.034-.047-.121.09-.121.088.034.047zm-.034-.048.12-.089q.001-.003.01.02a.13.13 0 0 1-.007.099.13.13 0 0 1-.102.075h-.007l.007-.15.007-.15q-.029-.002-.072.008a.17.17 0 0 0-.104.087.17.17 0 0 0-.006.128.2.2 0 0 0 .033.06zm.021-.045-.007.15.057.002.006-.15.007-.15-.056-.002zm.056.003-.006.15.056.002.007-.15.006-.15-.056-.002zm.057.002-.007.15a.4.4 0 0 1 .079.013l.04-.145.04-.144a.7.7 0 0 0-.146-.024zm.112.018-.04.145.056.015.04-.144.04-.144-.056-.016zm.056.016-.04.145.056.015.04-.144.041-.145-.056-.015zm.057.016-.04.144a.36.36 0 0 0 .19.002l-.038-.145-.038-.145a.1.1 0 0 1-.034 0zm.112 0 .038.146.057-.015-.039-.145-.038-.145-.056.015zm.056-.014.039.145.056-.015-.038-.145-.039-.145-.056.015zm.057-.015.038.145h.003l.008.002.063-.136.063-.136a.3.3 0 0 0-.214-.02zm.112.011-.063.136.056.027.063-.136.064-.136-.057-.027zm.056.027-.063.136.056.026.064-.136.063-.136-.056-.026zm.057.026-.064.136a.25.25 0 0 0 .253-.018l-.083-.125-.082-.126a.04.04 0 0 1 .02-.006q.017.001.019.003zm.106-.007.083.125.05-.034-.082-.125-.083-.125-.05.033zm.051-.034.083.125.05-.033-.082-.125-.083-.125-.05.033zm.05-.033.083.125a.27.27 0 0 0 .123-.201l-.15-.014-.149-.014.005-.015q.007-.009.006-.006zm.056-.09.15.014.005-.056-.15-.015-.149-.014-.005.057zm.006-.057.15.015.005-.057-.15-.014-.15-.014-.005.056zm.005-.056.15.014a.2.2 0 0 1 .016-.054l-.134-.068-.133-.069a.5.5 0 0 0-.048.163zm.032-.108.134.068.026-.051-.133-.069-.134-.069-.026.052zm.027-.052.133.069.027-.052-.134-.069-.133-.068-.027.052zm.026-.052.134.069a.33.33 0 0 0 .032-.203l-.148.023-.148.023a.03.03 0 0 1-.003.02zm.018-.111.148-.023-.009-.06-.148.024-.148.022.009.06zm-.01-.06.15-.022-.01-.06-.148.023-.149.023.01.059zm-.008-.059.148-.023a.2.2 0 0 1 0-.064l-.147-.028-.147-.027a.5.5 0 0 0-.002.165zm.001-.115.148.028.01-.056-.148-.027-.147-.028-.01.056zm.01-.055.148.027.01-.055-.147-.027-.148-.028-.01.055zm.01-.055.148.027.021-.107-.147-.03-.146-.031-.023.113zm.022-.11.147.03.012-.055-.147-.03-.147-.032-.011.056zm.012-.056.147.03.011-.055-.147-.03-.147-.03-.011.054zm.011-.055.147.03q.013-.06.02-.121l-.148-.02-.148-.02q-.007.05-.018.1zm.02-.111.148.02.007-.056-.148-.02-.149-.02-.007.056zm.007-.056.148.02.008-.056-.149-.02-.148-.02-.008.056zm.007-.056.149.02a.2.2 0 0 1 .015-.06l-.139-.057-.138-.058a.5.5 0 0 0-.035.135zm.025-.097.139.058.017-.042-.138-.058-.139-.058-.017.042zm.018-.042.138.058.018-.042-.139-.058-.138-.058-.018.042zm.017-.042.139.058.007-.016-.003.004-.009.012a.15.15 0 0 1-.143.049l.031-.147.032-.147a.15.15 0 0 0-.15.053l-.02.031-.022.045zm.022-.04-.031.146.005.002.031-.147.032-.147h-.005zm.005 0-.031.148h.005l.031-.146.032-.147h-.005zm.005.002-.031.147a.14.14 0 0 1-.074-.04l-.014-.017-.002-.004.015.03.136-.063.136-.063-.04-.073-.017-.021c-.003-.003-.03-.033-.077-.043zm.03.053-.136.064.024.052.136-.063.136-.064-.024-.052z"/><ellipse cx="11.935" cy="11.767" fill="var(--fill-0, white)" rx="3.561" ry="3.845"/><path fill="var(--stroke-0, white)" d="m15.48 12.333-.5-.014zm-.051.373.484.122zm-.093.368-.485-.122zm-.095.377.485.122zm-.097.386-.485-.122zm-.135.383-.456-.206zm-.172.38.455.207zm-.285.27-.184-.465zm-.2.078.184.465zm-.198.079.183.465zm-.416.062-.038.498zm-.216-.017-.039.499zm-.217-.016.038-.499zm-.344.227-.443-.23zm-.127.245-.444-.231zm-.127.244.443.23zm-.33.078-.318.386zm-.203-.167-.318.386zm-.203-.167.317-.386zm-.415-.052-.238-.44zm-.211.115.238.44zm-.535.008.446-.226zm-.224-.442-.446.226zm-.258-.312.263-.425zm-.293-.181-.263.425zm-.244-.233.412-.283zm-.196-.285-.412.284zm-.31-.224.179-.467zm-.426-.163-.18.466zm-.177-.294-.493-.083zM8.28 11.98l-.475-.154zm.088-.785-.457.202zm.073-.935-.31-.392zm.499-.415-.342-.365zm.137-.128.342.365zm.138-.129-.342-.365zm.238-.28-.416-.277zm.1-.151-.416-.277zm.331-.442-.366-.34zm.26-.28-.367-.34zm.275-.311-.38-.324zm.147-.172.38.324zm.146-.172-.38-.325zm1.2.147.105-.489zm1.493.195-.44.238zm.666.746.204-.456zm.173.077-.203.457zm.327.2-.31.391zm.31.244-.311.392zm.148.334.5.014zm-.006.212.5.014zm-.006.211-.5-.014zm.107.37.407-.29zm.225.316-.407.29zm.236.346-.418.274zm.246.375.418-.275zm.01.194.029.499zm-.115.007-.03-.5zm-.235.202.5.014zm-.005.188-.5-.014-.006.19.5.013.5.014.005-.189zm-.006.189-.5-.014a1.2 1.2 0 0 1-.036.265l.485.122.484.122q.06-.237.067-.481zm-.051.373-.485-.122-.047.184.485.122.485.122.046-.184zm-.047.184-.485-.122-.046.184.485.122.484.122.047-.184zm-.046.184-.485-.122-.095.377.485.122.485.122.094-.377zm-.095.377-.485-.122-.049.193.485.122.485.122.049-.193zm-.049.193-.485-.122-.048.193.485.122.485.122.048-.193zm-.048.193-.485-.122q-.037.147-.106.3l.456.205.455.207q.105-.23.165-.468zm-.135.383-.456-.206-.086.19.456.207.455.206.086-.19zm-.086.19-.456-.206-.086.19.456.207.455.206.086-.19zm-.086.19-.456-.205-.003.006.001-.002q.002 0 0 0l-.011.006.184.465.183.465c.25-.099.445-.28.557-.528zm-.285.27-.184-.465-.199.078.184.465.183.465.2-.078zm-.2.078-.183-.465-.199.079.184.465.183.465.2-.079zm-.198.079-.184-.465a.4.4 0 0 1-.194.028l-.038.499-.038.498q.33.026.637-.095zm-.416.062.038-.499-.216-.016-.039.498-.038.499.217.016zm-.216-.017.038-.498-.217-.017-.038.499-.038.498.216.017zm-.217-.016.038-.499a.8.8 0 0 0-.508.13.96.96 0 0 0-.317.365l.443.231.443.232c.016-.031.016-.016-.017.006a.2.2 0 0 1-.12.033zm-.344.227-.443-.23-.128.244.444.23.443.232.127-.245zm-.127.245-.444-.231-.127.244.444.23.443.232.127-.244zm-.127.244-.444-.231c-.016.031.028-.078.183-.114.165-.04.262.048.248.036l-.318.387-.317.386c.12.1.34.229.616.164.265-.062.406-.265.475-.397zm-.33.078.317-.387-.203-.166-.317.386-.318.386.203.167zm-.203-.167.317-.386-.203-.167-.317.386-.318.387.203.166zm-.203-.167.317-.386a.84.84 0 0 0-.97-.105l.238.44.239.439a.1.1 0 0 1-.03.01.2.2 0 0 1-.062.002c-.045-.006-.063-.024-.05-.013zm-.415-.052-.238-.44-.211.115.238.44.238.44.212-.115zm-.211.115-.238-.44-.212.115.239.44.238.44.211-.115zm-.212.114-.238-.44a.2.2 0 0 1 .058-.017.3.3 0 0 1 .15.013c.12.04.158.121.153.112l-.446.226-.446.226c.07.138.2.311.426.386a.73.73 0 0 0 .582-.066zm-.323-.106.446-.226-.112-.221-.446.226-.446.226.112.22zm-.112-.221.446-.226-.112-.221-.446.226-.446.226.112.22zm-.112-.221.446-.226a1.25 1.25 0 0 0-.441-.511l-.263.425-.263.425c-.008-.005.024.013.075.113zm-.258-.312.263-.425-.146-.09-.263.424-.264.425.147.091zm-.146-.09.263-.426-.146-.09-.264.425-.263.425.146.09zm-.147-.091.264-.425a.3.3 0 0 1-.096-.091l-.412.283-.412.283q.158.229.393.375zm-.244-.233.412-.283-.098-.143-.412.284-.412.283.098.142zm-.098-.142.412-.284-.098-.142-.412.283-.412.284.098.142zm-.098-.143.412-.283a1.14 1.14 0 0 0-.543-.408l-.18.467-.179.467c.077.03.086.052.078.04zm-.31-.224.179-.467-.213-.081-.18.466-.178.467.212.082zm-.213-.082.18-.466-.213-.082-.18.467-.18.466.214.082zm-.213-.081.18-.467.008.004.024.015a.3.3 0 0 1 .066.075.25.25 0 0 1 .038.162l-.493-.083-.493-.083a.75.75 0 0 0 .091.52.8.8 0 0 0 .4.323zm-.177-.294.493.083.036-.212-.493-.083-.493-.083-.036.212zm.036-.212.493.083.035-.212-.493-.083-.493-.083-.035.212zm.035-.212.493.083a.93.93 0 0 0-.224-.787l-.376.33-.375.33q.003.005 0 0a.1.1 0 0 1-.01-.037v-.002zm-.107-.374.376-.33-.143-.162-.375.33-.375.33.142.163zm-.142-.162.375-.33L8.737 12l-.376.33-.375.331.143.162zm-.143-.161.376-.33c-.004-.005.012.012.02.048a.2.2 0 0 1-.001.084l-.476-.154-.475-.154c-.1.31-.019.609.181.836zm-.08-.352.475.154.061-.19-.475-.154-.476-.153-.061.19zm.06-.19.476.154.062-.19-.476-.153-.476-.154-.061.19zm.062-.19.476.155c.085-.265.05-.529-.053-.763l-.458.203-.457.202c.013.03.015.046.016.05v.001-.001zm-.035-.405.457-.203-.095-.217-.458.203-.457.203.096.216zm-.096-.217.458-.203-.096-.216-.457.203-.458.202.096.217zm-.095-.216.457-.203s.02.046.002.12a.2.2 0 0 1-.065.115l-.31-.392-.31-.391a.8.8 0 0 0-.288.438.8.8 0 0 0 .056.515zm.084-.36.31.393.18-.143-.31-.392-.31-.392-.18.143zm.18-.142.31.392.181-.143-.31-.392-.31-.392-.181.143zm.18-.143.311.392q.194-.154.35-.298l-.342-.366-.342-.365a5 5 0 0 1-.287.245zm.319-.272.341.366.138-.129-.342-.365-.341-.365-.138.128zm.137-.128.342.365.137-.129-.341-.365-.342-.365-.137.129zm.138-.129.341.365q.18-.166.313-.368l-.416-.277-.416-.277q-.068.102-.164.192zm.238-.28.416.277.1-.151-.415-.277-.417-.277-.1.151zm.1-.151.417.277.1-.152-.416-.277-.416-.277-.1.152zm.101-.152.416.277q.078-.116.181-.227l-.367-.34-.366-.34q-.156.167-.28.354zm.23-.29.367.34.13-.14-.367-.34-.367-.34-.13.14zm.13-.14.366.34.13-.14-.367-.34-.366-.34-.13.14zm.13-.14.366.34q.138-.149.29-.327l-.38-.324-.381-.324q-.14.165-.262.295zm.275-.311.381.324.147-.172-.381-.324-.38-.324-.147.172zm.147-.172.38.324.147-.172-.38-.324-.381-.325-.147.173zm.146-.172.381.324a.2.2 0 0 1-.081.045.2.2 0 0 1-.09.004l.154-.476.153-.475a.84.84 0 0 0-.488-.015.83.83 0 0 0-.41.268zm.364-.103-.153.476.216.07.154-.476.153-.475-.217-.07zm.217.07-.153.476.216.07.154-.476.153-.475-.217-.07zm.217.07-.153.476q.236.076.449.123l.105-.489.106-.489a4 4 0 0 1-.354-.096zm.401.11-.105.489.184.04.105-.489.106-.489-.184-.04zm.184.04-.105.489.184.04.106-.49.105-.488-.184-.04zm.185.04-.106.489q.284.058.57.015l-.072-.495-.072-.495a.6.6 0 0 1-.215-.003zm.393.01.072.494.208-.03-.072-.495-.072-.495-.209.03zm.208-.031.072.494.209-.03-.072-.495-.073-.495-.208.03zm.209-.03.072.494a.2.2 0 0 1-.123-.026c-.055-.03-.075-.065-.074-.064l.44-.238.44-.238a.83.83 0 0 0-.338-.344.8.8 0 0 0-.49-.08zm.315.166-.44.238.107.198.44-.238.44-.238-.107-.198zm.107.198-.44.238.107.197.44-.238.44-.238-.107-.197zm.107.197-.44.238c.114.21.282.39.517.494l.203-.457.203-.457-.01-.007a.2.2 0 0 1-.033-.049zm.28.275-.203.457.172.076.203-.457.204-.456-.173-.077zm.172.076-.203.457.173.077.203-.457.203-.457-.172-.076zm.173.077-.203.457q.112.05.22.134l.31-.392.311-.391a2 2 0 0 0-.435-.265zm.327.2-.31.391.154.123.31-.392.312-.392-.155-.122zm.155.122-.31.392.154.122.31-.392.31-.391-.153-.123zm.154.122-.31.392a.1.1 0 0 1-.032-.044c-.01-.022-.009-.035-.009-.028l.5.014.5.014a.89.89 0 0 0-.338-.74zm.149.334-.5-.014-.006.212.5.014.5.014.006-.212zm-.006.212-.5-.014-.005.212.5.013.5.014.005-.211zm-.006.211-.5-.014c-.006.24.056.472.2.674l.407-.29.407-.29c-.006-.009-.015-.023-.014-.066zm.107.37-.407.29.112.158.407-.29.408-.29-.113-.158zm.112.158-.407.29.113.158.407-.29.407-.29-.112-.158zm.113.158-.407.29q.106.15.225.33l.418-.274.418-.275q-.128-.195-.247-.36zm.236.346-.418.274.123.188.418-.275.418-.275-.123-.187zm.123.187-.418.275.124.187.418-.274.417-.275-.123-.188zm.123.188-.417.274.008.013c-.001-.004-.023-.05-.026-.123a.455.455 0 0 1 .415-.47l.03.5.029.499a.545.545 0 0 0 .525-.573.7.7 0 0 0-.06-.243 1 1 0 0 0-.086-.152zm.01.194-.03-.5-.115.008.03.499.029.499.115-.007zm-.115.007-.03-.5-.115.007.03.5.03.498.114-.006zm-.115.006-.03-.499a.6.6 0 0 0-.484.29.8.8 0 0 0-.106.39l.5.015.5.014c0-.026.005.028-.041.104a.4.4 0 0 1-.31.185zm-.12.196-.5-.014-.005.188.5.014.5.014.005-.188z"/></svg>