<svg xmlns="http://www.w3.org/2000/svg" fill="none" overflow="visible" preserveAspectRatio="none" style="display:block" viewBox="0 0 28.134 40.751"><path fill="var(--fill-0, #fffeef)" d="M13.227 1.003c.474.009.73.022 1.209.022 2.884 0 6.343 1.027 8.957 4.413 1.714 2.221 2.492 4.832 2.915 6.946.425 2.13.588 4.327.723 5.803.18 1.99.158 5.015-.354 8.161-.498 3.065-1.556 6.854-3.874 9.865-.924 1.2-2.397 2.274-4.054 2.905-1.796.684-4.24 1.003-6.82-.035-.995-.4-1.689-.654-2.248-.86-.455-.168-1.18-.427-1.834-.775-1.692-.903-2.701-2.35-3.272-3.053-1.446-1.78-2.478-4.55-3.042-7.513-.598-3.143-.777-7.05-.096-11.462a5 5 0 0 1 .24-.936q.008-.403.082-.814c.377-2.034 1.103-4.356 2.16-6.637.577-1.247 1.31-2.484 2.515-3.442.549-.436 1.074-.708 1.204-.778l.009-.004c.99-.733 2.204-1.473 3.873-1.718a10.4 10.4 0 0 1 1.707-.088"/><path fill="var(--stroke-0, #f4c280)" d="m13.227 1.003.017-1zm1.209.022v-1zm8.957 4.413.791-.61v-.001zm2.915 6.946.98-.196zm.723 5.803.995-.09zm-.354 8.161.987.16zm-3.874 9.865.792.61zm-4.054 2.905.356.934zm-6.82-.035-.372.928zm-2.248-.86-.346.938zm-1.834-.775-.47.882zm-3.272-3.053.777-.63zm-3.042-7.513-.982.187zM1.437 15.42l-.989-.152zm.24-.936.94.339.056-.155.004-.163zm.082-.814-.983-.182zm2.16-6.637-.908-.42zM6.433 3.59l-.622-.783zm1.204-.778.475.88zm.009-.004.47.883.065-.035.06-.044zm3.873-1.718L11.374.1zm1.707-.088-.018 1c.443.008.738.022 1.227.022v-2c-.471 0-.687-.013-1.192-.021zm1.209.022v1c2.642 0 5.779.932 8.165 4.024l.792-.611.791-.611C21.344 1.146 17.561.025 14.436.025zm8.957 4.413-.792.611c1.578 2.044 2.316 4.48 2.726 6.531l.98-.196.982-.196c-.436-2.177-1.253-4.962-3.105-7.361zm2.915 6.946-.98.196c.412 2.064.57 4.198.707 5.698l.995-.091.996-.09c-.132-1.453-.3-3.715-.738-5.909zm.723 5.803-.996.09c.173 1.909.153 4.85-.345 7.91l.987.161.987.16c.525-3.23.551-6.34.362-8.412zm-.354 8.161-.987-.16c-.487 2.996-1.508 6.595-3.68 9.415l.793.61.792.61c2.466-3.201 3.56-7.18 4.069-10.314zm-3.874 9.865-.792-.61c-.799 1.037-2.113 2.007-3.618 2.58l.356.935.356.934c1.81-.689 3.442-1.867 4.49-3.228zm-4.054 2.905-.356-.935c-1.617.616-3.795.896-6.09-.027l-.373.928-.373.927c2.863 1.152 5.573.793 7.548.041zm-6.82-.035.374-.927c-1.01-.407-1.717-.665-2.276-.871l-.346.938-.346.938c.559.206 1.24.455 2.222.85zm-2.248-.86.346-.938c-.473-.174-1.128-.41-1.71-.72l-.47.883-.47.882c.725.387 1.52.67 1.958.831zm-1.834-.775.47-.882c-1.473-.787-2.344-2.037-2.965-2.802l-.777.631-.776.63c.52.64 1.666 2.285 3.577 3.305zm-3.272-3.053.776-.63c-1.297-1.598-2.286-4.181-2.835-7.07l-.983.187-.982.187c.578 3.04 1.653 5.993 3.248 7.957zm-3.042-7.513.983-.187c-.577-3.032-.754-6.824-.09-11.122l-.99-.153-.988-.152c-.698 4.525-.516 8.547.103 11.801zM1.437 15.42l.988.153q.061-.386.193-.75l-.941-.34-.94-.338a6 6 0 0 0-.289 1.123zm.24-.936 1 .02q.006-.326.065-.652l-.983-.182-.983-.182q-.09.496-.099.975zm.082-.814.983.183c.361-1.948 1.06-4.19 2.084-6.4l-.908-.42-.907-.42C1.92 8.966 1.168 11.368.776 13.488zm2.16-6.637.907.42c.55-1.189 1.202-2.262 2.23-3.079l-.622-.783-.622-.783c-1.384 1.1-2.197 2.5-2.801 3.805zM6.433 3.59l.622.783c.472-.375.926-.61 1.057-.681l-.475-.88-.475-.88c-.128.07-.725.378-1.351.875zm1.204-.778.475.88a1 1 0 0 1-.096.045h-.001a1 1 0 0 0 .1-.046l-.47-.883-.47-.883a1 1 0 0 1 .09-.041l.003-.002a1 1 0 0 0-.106.05zm.009-.004.595.804c.93-.689 1.987-1.322 3.423-1.532l-.145-.99-.145-.99C9.472.382 8.102 1.228 7.05 2.007zm3.873-1.718.145.99a9.4 9.4 0 0 1 1.544-.078l.018-1 .017-1a11.4 11.4 0 0 0-1.87.099z"/><ellipse cx="16.683" cy="18.175" fill="var(--fill-0, #424242)" rx="7.122" ry="11.534"/><path fill="var(--fill-0, white)" d="m12.825 23.942.333 1.55h1.078l-.872.957.333 1.55-.872-.958-.872.958.333-1.55-.872-.958h1.078z"/><path fill="var(--stroke-0, white)" d="m12.874 24.046-.136.064zm.024.052.136-.063zm.027.11-.15.006zm.003.057.15-.007zm.002.057-.15.006zm.02.11.143-.047zm.018.054-.142.047zm.018.054-.143.047zm.024.11-.149.018zm.014.112.149-.018zm.001.115-.15-.015zm-.011.117-.15-.014zm.01.113.144-.04zm.03.109-.144.04zm.033.108-.143.046zm.11.17-.023.148zm.232.001-.066-.134zm.056-.027-.066-.135zm.057-.028.066.134zm.225.045-.06.137zm.112.03.017-.15zm.056.006-.016.15zm.057.006-.017.15zm.096.002.016.15zm.04-.004.016.15zm.04-.004-.015-.15zm.005.039-.115-.096zm-.036.043.115.096zm-.105.133-.122-.087zm-.032.046.122.087zm-.033.047.122.086zm-.09.07-.057-.14zm-.116.046.056.14zm-.069.09-.148-.024zm-.021.133.148.024zm-.104.133.087.122zm-.047.034-.087-.123zm-.05.071-.15-.01zm-.003.039.15.011zm-.003.038-.15-.01zm.007.094.148-.024zm.018.112-.148.024zm.013.112.15-.01zm.004.057-.15.01zm.004.056.15-.01zm-.015.118.143.045zm-.038.124-.143-.045zm.011.112.13-.076zm.06.102-.128.077zm.055.104-.136.063zm.049.104.136-.062zm.04.107-.144.043zm.033.108.143-.044zm-.004.077.113.098zm-.02.023-.114-.098zm-.02.024-.114-.099zm-.045-.03.136-.064zm-.05-.108-.136.063zm-.085-.074.05-.142zm-.121-.042-.05.141zm-.08-.08-.142.048zm-.039-.117.143-.047zm-.059-.098-.106.105zm-.039-.04.107-.105zm-.04-.04-.106.105zm-.097-.064-.056.14zm-.058-.023-.056.139zm-.058-.024.057-.139zm-.081-.025-.014.15zm-.048-.005.014-.15zm-.07.032.09.12zm-.178.143-.106-.107zm-.04.04.106.106zm-.04.04.106.105zm-.072.085.122.087zm-.066.093-.122-.087zm-.084.227-.144-.041zm-.08.08.043.143zm-.125.038-.044-.144zm-.042-.012.124.084zm.021-.032.124.085zm.022-.03.123.084zm.03-.087-.148-.025zm.035-.223.149.017zm.006-.056-.15-.017zm.006-.056.15.017zm.065-.216-.141-.052zm.006-.114.146-.034zm-.028-.121-.146.033zm.028-.11-.115-.096zm.082-.097.115.097zm.042-.106-.15-.001zm0-.057.15.001zm.001-.058-.15-.001zm-.02-.108.138-.058zm-.043-.104-.139.058zm-.059-.094-.112.1zm-.037-.042-.113.1zm-.037-.042.113-.099zm-.089-.071-.073.13zm-.103-.058-.073.13zm-.091-.07-.107.106zm-.08-.08-.106.106zm-.069-.088-.128.077zm-.059-.099-.129.077zm-.064-.096-.121.088zm-.07-.095.121-.089zm.022-.045-.007.15zm.112.005.007-.15zm.113.018.04-.145zm.45.014-.063.136zm.056.026-.063.136zm.056.026.064-.136zm.107-.007.083.125zm.101-.067-.083-.125zm.056-.09.15.015zm.01-.112.15.014zm.033-.109-.134-.068zm.027-.051.133.068zm.027-.397.147.027zm.02-.11-.147-.028zm.022-.111-.147-.03zm.023-.11-.147-.031zm.019-.111-.149-.02zm.015-.112.149.02zm.025-.098-.138-.058zm.018-.042.138.059zm.017-.041.138.058zm.022-.04-.031.146zm.01.002.032-.147zm.03.053-.137.063zm.024.052-.136.064.024.052.136-.064.136-.063-.024-.052zm.024.052-.136.064a.14.14 0 0 1 .013.052l.15-.006.15-.007a.4.4 0 0 0-.04-.166zm.027.11-.15.006.003.057.15-.006.15-.007-.003-.057zm.003.057-.15.006.002.057.15-.006.15-.007-.003-.057zm.002.057-.15.006a.6.6 0 0 0 .028.151l.142-.047.143-.047a.3.3 0 0 1-.013-.07zm.02.11-.142.047.018.054.142-.047.143-.047-.018-.054zm.018.054-.142.047.017.054.143-.047.142-.047-.017-.054zm.018.054-.143.047a.4.4 0 0 1 .018.08l.15-.017.148-.018a1 1 0 0 0-.03-.14zm.024.11-.149.018.007.056.15-.018.148-.018-.007-.056zm.007.056-.149.018.007.056.149-.018.149-.018-.007-.056zm.007.056-.149.018a.4.4 0 0 1 0 .082l.15.015.15.014a.7.7 0 0 0-.002-.147zm.001.115-.15-.015-.005.06.15.013.149.015.005-.06zm-.005.058-.15-.014-.005.059.149.014.15.014.005-.058zm-.006.06-.15-.015a.5.5 0 0 0 .015.168l.145-.04.144-.041a.2.2 0 0 1-.005-.059zm.01.112-.145.04.016.055.144-.04.144-.041-.015-.054zm.015.054-.144.04.015.055.144-.04.145-.041-.016-.054zm.015.055-.144.04q.015.057.034.114l.143-.046.143-.047-.031-.102zm.033.108-.143.046.018.054.142-.047.143-.046-.017-.054zm.017.053-.142.047.017.054.143-.047.143-.046-.018-.054zm.018.054-.143.047a.24.24 0 0 0 .195.164l.024-.148.024-.148q.005-.001.024.013a.1.1 0 0 1 .018.026zm.076.063-.024.148.058.01.024-.148.024-.148-.058-.01zm.058.01-.024.148.059.01.024-.148.024-.149-.059-.01zm.059.01-.024.148q.107.016.205-.032l-.067-.135-.066-.134q-.016.006-.024.004zm.114-.019.067.135.056-.028-.066-.134-.067-.135-.056.028zm.056-.027.067.134.056-.028-.066-.134-.067-.135-.056.028zm.057-.028.066.134h-.013l.06-.138.059-.138a.28.28 0 0 0-.239.007zm.112-.004-.06.138.057.024.06-.138.059-.137-.056-.025zm.056.024-.059.138.056.024.06-.137.06-.138-.057-.024zm.057.025-.06.137q.075.033.156.042l.016-.149.017-.15a.2.2 0 0 1-.07-.018zm.112.03-.016.15.056.005.016-.149.017-.149-.056-.006zm.056.006-.016.15.056.006.017-.15.016-.149-.056-.006zm.057.006-.017.15a.6.6 0 0 0 .129.002l-.016-.15-.015-.149a.3.3 0 0 1-.065-.002zm.096.002.016.15.04-.005-.015-.149-.016-.15-.04.005zm.04-.004.016.15.04-.005-.015-.15-.016-.148-.04.004zm.04-.004.016.15s-.022.002-.05-.008a.14.14 0 0 1-.093-.118c-.005-.043.012-.072.013-.075l.004-.006.115.096.116.096a.3.3 0 0 0 .03-.044.17.17 0 0 0 .02-.1.16.16 0 0 0-.104-.131.2.2 0 0 0-.082-.01zm.005.039-.115-.096-.036.044.115.095.115.096.037-.043zm-.036.043-.115-.096-.036.044.115.096.116.096.035-.044zm-.036.044-.115-.096-.076.098.122.087.123.087q.03-.042.062-.08zm-.069.09-.122-.088-.033.047.123.086.122.087.033-.046zm-.032.045-.123-.086-.033.046.123.087.122.086.033-.046zm-.033.047-.123-.087a.05.05 0 0 1-.024.017l.056.14.057.138a.35.35 0 0 0 .156-.122zm-.09.07-.057-.14-.058.024.056.139.057.139.058-.024zm-.059.023-.056-.14-.058.024.057.14.056.138.058-.023zm-.057.023-.057-.139a.26.26 0 0 0-.16.205l.148.024.149.024-.007.011a.04.04 0 0 1-.017.014zm-.069.09-.148-.024-.01.067.148.024.148.023.01-.066zm-.01.067-.148-.024-.011.066.148.024.148.024.01-.067zm-.011.066-.148-.024-.002.007.005-.005.088.122.087.122a.3.3 0 0 0 .118-.198zm-.057.1-.088-.122-.046.033.087.122.087.122.047-.033zm-.047.033-.088-.122-.046.033.087.122.087.123.047-.034zm-.047.034-.087-.123a.25.25 0 0 0-.113.183l.15.011.15.012a.1.1 0 0 1-.013.037q-.007.009 0 .002zm-.05.071-.15-.01-.002.038.15.01.149.012.003-.038zm-.003.039-.15-.011-.002.038.15.011.149.011.003-.038zm-.003.038-.15-.01a.6.6 0 0 0 .009.129l.148-.025.148-.024a.3.3 0 0 1-.005-.059zm.007.094-.148.024.009.056.148-.024.148-.024-.01-.056zm.009.056-.148.024.009.056.148-.024.148-.025-.01-.055zm.009.056-.148.024q.008.048.011.098l.15-.01.15-.01a1 1 0 0 0-.015-.127zm.013.112-.15.01.004.057.15-.01.15-.011-.005-.057zm.004.057-.15.01.004.057.15-.01.15-.012-.005-.056zm.004.056-.15.01a.2.2 0 0 1-.008.064l.143.044.143.045a.5.5 0 0 0 .021-.174zm-.015.118-.143-.044-.02.062.144.044.143.044.02-.061zm-.02.062-.142-.044-.02.061.144.045.143.044.02-.062zm-.018.062-.143-.045a.28.28 0 0 0 .025.234l.13-.077.128-.076.003.008q0 .005 0 0zm.011.112-.129.077.03.05.13-.076.128-.076-.03-.051zm.03.051-.128.077.03.05.129-.076.129-.076-.03-.051zm.03.051-.128.077q.026.045.047.09l.136-.063.136-.063a1 1 0 0 0-.061-.117zm.055.104-.136.063.024.052.136-.063.136-.063-.024-.052zm.024.052-.136.063.024.052.137-.063.136-.062-.025-.053zm.025.052-.137.063a1 1 0 0 1 .033.087l.144-.043.143-.044a1 1 0 0 0-.047-.125zm.04.107-.144.043.017.054.143-.043.144-.044-.017-.054zm.016.054-.143.043.016.054.144-.043.143-.044-.016-.054zm.017.054-.144.043c.003.009 0 .006.001-.004 0-.012.005-.037.026-.06l.113.098.113.098c.068-.078.048-.173.034-.219zm-.004.077-.113-.098-.02.023.113.098.113.099.02-.024zm-.02.023-.114-.098-.02.023.114.099.113.098.02-.023zm-.02.024-.114-.099a.136.136 0 0 1 .176-.022.1.1 0 0 1 .028.027q.005.007 0 0l-.135.063-.137.063a.23.23 0 0 0 .076.096.164.164 0 0 0 .219-.03zm-.045-.03.136-.064-.025-.053-.136.063-.136.063.024.053zm-.025-.054.136-.063-.025-.054-.136.063-.136.063.025.054zm-.025-.054.136-.063a.3.3 0 0 0-.172-.153l-.05.142-.049.142q.007.002.003 0l-.003-.003-.001-.002zm-.085-.074.05-.142-.061-.02-.05.14-.049.142.06.021zm-.06-.021.049-.142-.06-.02-.05.14-.05.142.061.021zm-.061-.021.05-.142q-.003-.001.006.005l.006.01-.142.047-.142.048c.028.085.09.145.173.173zm-.08-.08.143-.047-.02-.058-.142.047-.143.047.02.059zm-.02-.058.143-.047-.02-.059-.142.047-.142.048.02.058zm-.019-.059.143-.047a.4.4 0 0 0-.095-.156l-.107.105-.106.105a.1.1 0 0 1 .023.04zm-.059-.098.107-.105-.039-.04-.107.105-.107.105.04.04zm-.039-.04.107-.105-.04-.04-.106.105-.107.105.04.04zm-.04-.04.107-.106a.4.4 0 0 0-.148-.097l-.056.14-.056.138a.1.1 0 0 1 .047.03zm-.097-.064.056-.139-.057-.023-.057.139-.056.139.058.023zm-.058-.023.056-.14-.057-.023-.056.14-.057.138.058.024zm-.058-.024.057-.139a.5.5 0 0 0-.124-.036l-.014.15-.014.15-.006-.002.007.002.038.014zm-.081-.025.014-.15-.024-.002-.014.15-.014.149.024.002zm-.024-.003.014-.149-.024-.002-.014.15-.014.149.024.002zm-.024-.002.014-.15a.2.2 0 0 0-.106.02.4.4 0 0 0-.068.042l.09.12.09.12.013-.008-.012.003a.1.1 0 0 1-.035.003zm-.07.032-.09-.12-.046.034.09.12.09.12.046-.033zm-.046.035-.09-.12-.046.033.09.12.09.121.046-.034zm-.046.034-.09-.12a1 1 0 0 0-.102.087l.106.107.106.106a1 1 0 0 1 .07-.06zm-.086.074-.106-.107-.04.04.106.106.106.107.04-.04zm-.04.04-.106-.107-.04.04.106.106.106.107.04-.04zm-.04.04-.105-.107a1 1 0 0 0-.09.106l.123.086.122.087.056-.067zm-.072.085-.123-.086-.033.046.123.086.122.087.033-.046zm-.033.046-.123-.086-.032.046.122.087.123.086.032-.046zm-.033.047-.122-.087a.5.5 0 0 0-.072.152l.144.041.145.042a.2.2 0 0 1 .028-.062zm-.05.106-.144-.04-.017.06.144.04.144.042.018-.06zm-.017.06-.144-.04-.017.06.144.041.144.041.017-.06zm-.017.061-.144-.041q0-.004.01-.015t.01-.008l.044.144.043.143a.26.26 0 0 0 .181-.182zm-.08.08-.044-.144-.062.019.043.143.044.144.063-.019zm-.063.018-.043-.143-.063.02.044.143.043.143.063-.019zm-.062.02-.044-.144-.006.002.013-.001q.01-.001.037.005a.143.143 0 0 1 .082.21l-.124-.084-.123-.085a.17.17 0 0 0-.032.095.16.16 0 0 0 .113.152.2.2 0 0 0 .08.004l.047-.01zm-.042-.012.124.084.021-.03-.123-.085-.124-.085-.021.03zm.021-.032.124.085.021-.03-.123-.085-.124-.085-.021.03zm.022-.03.123.084a.4.4 0 0 0 .055-.146l-.148-.025-.148-.025-.005.024q-.004.007 0 .003zm.03-.087.148.025.01-.056-.148-.025-.148-.024-.01.055zm.01-.056.148.025.009-.055-.148-.025-.148-.025-.01.056zm.009-.055.148.025q.01-.06.017-.12l-.15-.017-.148-.017-.015.104zm.016-.112.149.017.006-.056-.149-.017-.15-.017-.005.056zm.006-.056.149.017.006-.056-.149-.017-.149-.017-.006.056zm.006-.056.15.017a.3.3 0 0 1 .017-.075l-.14-.052-.142-.051a.6.6 0 0 0-.034.144zm.026-.11.141.052.02-.054-.142-.051-.14-.051-.02.053zm.02-.053.14.051.02-.053-.141-.051-.141-.052-.02.054zm.019-.053.14.05a.35.35 0 0 0 .012-.198l-.146.034-.147.033a.05.05 0 0 1 0 .03zm.006-.114.146-.034-.014-.06-.146.033-.146.034.013.06zm-.014-.06.146-.034-.014-.06-.146.033-.146.033.014.06zm-.014-.061.146-.034v.013l-.004.009-.114-.097-.115-.098a.27.27 0 0 0-.06.24zm.028-.11.114.098.041-.049-.114-.097-.114-.097-.042.049zm.04-.048.115.097.042-.049-.115-.097-.114-.097-.041.049zm.042-.049.115.097a.3.3 0 0 0 .077-.201l-.15-.002-.15-.001v.001l-.006.01zm.042-.106.15.002v-.058l-.15-.001-.15-.002v.058zm0-.057.15.001.001-.057-.15-.002-.15-.001v.057zm.001-.058.15.002a.4.4 0 0 0-.032-.168l-.138.058-.139.057q.01.022.01.05zm-.02-.108.138-.058-.021-.052-.139.058-.138.058.021.051zm-.022-.052.139-.058-.022-.051-.138.057-.139.058.022.052zm-.021-.052.138-.057a.5.5 0 0 0-.084-.135l-.113.098-.112.1a.2.2 0 0 1 .032.052zm-.059-.094.113-.098-.037-.043-.113.1-.113.098.038.042zm-.037-.042.113-.099-.037-.042-.113.099-.113.099.037.042zm-.037-.042.113-.099a.5.5 0 0 0-.128-.103l-.074.13-.073.131q.03.018.05.04zm-.089-.071.074-.131-.052-.03-.073.132-.074.13.052.03zm-.051-.03.073-.13-.052-.03-.073.132-.073.13.051.03zm-.052-.028.073-.131a.3.3 0 0 1-.058-.044l-.107.106-.106.105a.6.6 0 0 0 .125.095zm-.091-.07.106-.105-.04-.04-.106.106-.107.105.04.04zm-.04-.04.107-.105-.04-.04-.107.106-.106.105.04.04zm-.04-.04.107-.105a.3.3 0 0 1-.047-.06l-.129.076-.128.078a.6.6 0 0 0 .09.117zm-.069-.088.129-.078-.03-.049-.128.077-.129.078.03.049zm-.03-.05.13-.077-.03-.05-.129.078-.129.077.03.05zm-.029-.049.129-.077a1 1 0 0 0-.072-.108l-.121.088-.121.09q.031.041.056.084zm-.064-.096.12-.09-.034-.047-.12.09-.122.088.035.047zm-.035-.048.121-.089-.035-.047-.12.089-.122.088.035.048zm-.035-.047.121-.089q0-.003.01.02a.13.13 0 0 1-.007.098.13.13 0 0 1-.102.075h-.007l.007-.15.007-.15a.2.2 0 0 0-.072.009.17.17 0 0 0-.104.087.17.17 0 0 0-.006.128.2.2 0 0 0 .032.06zm.022-.045-.007.15.056.002.007-.15.007-.15-.056-.002zm.056.002-.007.15.057.003.006-.15.007-.15-.056-.003zm.056.003-.006.15a.4.4 0 0 1 .078.012l.04-.144.041-.145a.7.7 0 0 0-.146-.023zm.113.018-.04.144.056.016.04-.144.04-.145-.056-.016zm.056.016-.04.144.056.016.04-.145.04-.144-.056-.016zm.056.015-.04.145a.36.36 0 0 0 .191.001l-.038-.145-.038-.145a.1.1 0 0 1-.034 0zm.113.001.038.145.056-.015-.038-.145-.038-.145-.056.015zm.056-.015.038.145.056-.014-.038-.145-.038-.145-.056.014zm.056-.014.039.145h.002l.009.002.063-.136.063-.136a.3.3 0 0 0-.214-.02zm.113.011-.063.136.056.026.063-.136.063-.136-.056-.026zm.056.026-.063.136.056.026.063-.136.064-.136-.057-.026zm.056.026-.063.136a.25.25 0 0 0 .253-.018l-.083-.125-.083-.125.021-.006a.04.04 0 0 1 .019.002zm.107-.007.083.125.05-.033-.082-.125-.083-.126-.05.034zm.05-.033.083.125.051-.034-.083-.125-.083-.125-.05.034zm.051-.034.083.125a.27.27 0 0 0 .123-.2l-.15-.015-.15-.014q0-.005.006-.014l.005-.007zm.056-.09.15.015.005-.057-.15-.014-.149-.014-.005.056zm.005-.056.15.014.005-.056-.15-.014-.148-.015-.006.057zm.006-.056.15.014a.2.2 0 0 1 .015-.054l-.133-.069-.134-.068a.5.5 0 0 0-.047.162zm.032-.109.133.069.027-.052-.133-.068-.134-.069-.027.052zm.027-.051.133.068.027-.052-.134-.068-.133-.069-.027.052zm.026-.052.133.068a.33.33 0 0 0 .033-.202l-.148.023-.149.022a.03.03 0 0 1-.002.02zm.018-.111.148-.023-.01-.06-.147.023-.149.023.01.06zm-.01-.06.149-.023-.01-.06-.148.023-.148.023.01.06zm-.008-.06.148-.022a.2.2 0 0 1 0-.065l-.147-.027-.148-.028a.5.5 0 0 0-.002.165zm0-.114.148.027.01-.055-.147-.028-.147-.027-.01.055zm.011-.056.148.028.01-.055-.148-.028-.147-.027-.01.055zm.01-.055.148.027.021-.107-.147-.03-.147-.03-.022.113zm.022-.11.147.03.011-.055-.146-.03-.147-.03-.012.054zm.012-.055.146.03.012-.055-.147-.03-.147-.031-.011.055zm.011-.055.147.03q.012-.06.02-.122l-.148-.02-.149-.02q-.006.051-.017.101zm.019-.111.149.02.007-.056-.149-.02-.148-.02-.008.055zm.008-.056.148.02.008-.056-.149-.02-.149-.02-.007.056zm.007-.056.149.02a.2.2 0 0 1 .014-.06l-.138-.058-.138-.058a.5.5 0 0 0-.036.136zm.025-.098.138.058.018-.041-.139-.059-.138-.058-.017.042zm.018-.042.138.059.017-.042-.138-.058-.138-.058-.018.041zm.017-.041.138.058.008-.017-.003.005-.009.012a.15.15 0 0 1-.143.048l.031-.147.032-.146a.15.15 0 0 0-.15.052l-.021.032-.021.045zm.022-.04-.031.146.005.001.031-.147.032-.146-.005-.001zm.005 0-.031.147.005.001.031-.146.032-.147-.005-.001zm.005.002-.031.146a.15.15 0 0 1-.088-.056l-.003-.005.015.031.136-.063.136-.064-.039-.072-.017-.022c-.004-.003-.03-.032-.077-.042zm.03.053-.137.063.025.053.136-.064.136-.063-.025-.053z"/><ellipse cx="11.935" cy="11.767" fill="var(--fill-0, white)" rx="3.561" ry="3.845"/><path fill="var(--stroke-0, white)" d="m15.48 12.333-.5-.014zm-.052.372.485.123zm-.093.369-.484-.123zm-.095.377.485.122zm-.097.386-.485-.122zm-.134.383-.456-.206zm-.173.38.456.207zm-.285.27-.183-.466zm-.199.078.184.465zm-.199.078.184.466zm-.415.062-.038.499zm-.217-.016-.038.498zm-.216-.017.038-.498zm-.344.228-.444-.231zm-.127.244-.444-.23zm-.128.244.444.231zm-.33.078-.317.386zm-.203-.167-.317.387zm-.203-.166.318-.386zm-.414-.052-.238-.44zm-.211.114.238.44zm-.535.008.446-.226zm-.224-.442-.446.226zm-.258-.312.263-.425zm-.293-.18-.263.425zm-.244-.233.412-.284zm-.196-.285-.412.283zm-.31-.224.179-.467zm-.426-.164-.18.467zm-.177-.293-.493-.083zM8.28 11.98l-.476-.154zm.088-.786-.457.203zm.073-.935-.31-.392zm.498-.414-.341-.365zm.138-.129.341.366zm.137-.128-.341-.365zm.239-.28-.417-.277zm.1-.152-.416-.277zm.331-.442-.366-.34zm.26-.279-.367-.34zm.275-.312-.38-.324zm.147-.172.38.324zm.146-.172-.38-.324zm1.199.148.106-.489zm1.494.195-.44.238zm.666.746.203-.457zm.173.077-.203.457zm.327.199-.31.392zm.31.245-.312.392zm.148.334.5.014zm-.006.211.5.014zm-.006.212-.5-.014zm.107.37.407-.29zm.225.316-.408.29zm.236.345-.418.275zm.246.375.418-.275zm.009.194.03.5zm-.115.007-.03-.499zm-.234.202.5.014zm-.006.189-.5-.014-.005.189.5.014.5.014.005-.19zm-.005.189-.5-.014a1.2 1.2 0 0 1-.037.264l.485.122.485.123q.06-.238.067-.481zm-.052.372-.485-.122-.046.184.485.123.485.122.046-.184zm-.046.184-.485-.122-.046.184.484.123.485.122.047-.184zm-.047.185-.484-.123-.095.378.485.122.484.122.095-.377zm-.095.377-.484-.122-.049.193.485.122.485.122.048-.193zm-.048.193-.485-.122-.049.193.485.122.485.122.049-.193zm-.049.193-.485-.122q-.036.147-.105.299l.456.206.455.206a3 3 0 0 0 .164-.467zm-.134.383-.456-.206-.086.19.456.206.455.206.086-.19zm-.086.19-.456-.206-.086.19.455.207.456.206.086-.19zm-.087.19-.455-.206-.004.007.002-.002q.002 0 0 0l-.011.005.183.465.184.465a1 1 0 0 0 .557-.527zm-.285.27-.183-.466-.2.079.184.465.184.465.199-.079zm-.199.078-.183-.465-.2.078.184.465.184.466.199-.08zm-.199.078-.183-.465a.4.4 0 0 1-.194.029l-.038.498-.038.499q.329.025.637-.095zm-.415.062.038-.498-.217-.017-.038.499-.038.498.217.017zm-.217-.016.038-.499-.216-.016-.038.498-.038.499.216.016zm-.216-.017.038-.498a.8.8 0 0 0-.509.13.96.96 0 0 0-.317.365l.444.231.443.231c.016-.03.015-.015-.018.007a.2.2 0 0 1-.12.033zm-.344.228-.444-.231-.127.244.444.231.443.231.127-.244zm-.127.244-.444-.23-.127.243.443.231.444.231.127-.244zm-.128.244-.443-.23c-.016.03.028-.078.183-.115.165-.039.262.049.247.037l-.317.386-.317.386c.12.1.34.23.616.165.264-.063.406-.266.475-.398zm-.33.078.317-.386-.202-.167-.318.386-.317.387.203.166zm-.203-.167.318-.386-.203-.166-.318.386-.317.386.203.167zm-.203-.166.318-.386a.84.84 0 0 0-.97-.105l.238.439.238.44a.1.1 0 0 1-.03.01.2.2 0 0 1-.06.002c-.047-.006-.064-.025-.05-.014zm-.414-.052-.238-.44-.211.115.238.44.238.44.211-.115zm-.211.114-.239-.44-.21.115.237.44.238.44.212-.115zm-.212.115-.238-.44a.2.2 0 0 1 .058-.017.3.3 0 0 1 .15.013c.12.04.158.12.153.111l-.446.226-.446.226c.07.138.2.312.426.386a.73.73 0 0 0 .581-.065zm-.323-.107.446-.226-.112-.22-.446.225-.446.226.112.221zm-.112-.22.446-.227-.112-.22-.446.225-.446.226.112.221zm-.112-.222.446-.226a1.25 1.25 0 0 0-.441-.51l-.263.424-.264.426c-.008-.005.025.012.076.112zm-.258-.312.263-.425-.147-.09-.263.425-.263.425.146.09zm-.147-.09.263-.425-.146-.09-.263.424-.263.426.146.09zm-.146-.09.263-.426a.3.3 0 0 1-.095-.09l-.412.283-.412.283q.157.229.393.375zm-.244-.233.412-.284-.098-.142-.412.283-.412.284.098.142zm-.098-.143.412-.283-.098-.143-.412.284-.412.283.098.143zm-.098-.142.412-.284a1.14 1.14 0 0 0-.543-.407l-.18.467-.179.466c.077.03.086.052.078.041zm-.31-.224.179-.467-.213-.082-.18.467-.179.467.213.081zm-.213-.082.179-.467-.213-.082-.179.467-.18.467.213.082zm-.213-.082.18-.466.008.004.023.015q.032.023.067.075a.25.25 0 0 1 .038.161l-.493-.082-.493-.083a.75.75 0 0 0 .091.52.8.8 0 0 0 .4.323zm-.177-.293.493.082.036-.212-.494-.082-.493-.083-.035.212zm.035-.212.494.082.035-.212-.493-.083-.493-.082-.036.212zm.036-.213.493.083a.93.93 0 0 0-.225-.787l-.375.33-.375.331q.002.005 0-.001a.1.1 0 0 1-.01-.036q0-.007-.001-.002zm-.107-.373.375-.33-.142-.163-.375.33-.376.331.143.162zm-.142-.162.375-.33L8.736 12l-.375.33-.375.33.142.162zm-.143-.162.375-.33c-.003-.004.012.012.02.049a.2.2 0 0 1 0 .084l-.476-.154-.476-.154c-.1.31-.018.608.182.836zm-.081-.351.476.154.061-.19-.476-.154-.475-.154-.062.19zm.061-.19.476.154.061-.19-.475-.154-.476-.154-.061.19zm.062-.19.475.154a1.05 1.05 0 0 0-.053-.762l-.457.202-.457.203c.013.03.015.045.016.05v.001-.001zm-.035-.406.457-.203-.096-.216-.457.203-.457.202.096.217zm-.096-.216.457-.203-.096-.216-.457.202-.457.203.096.216zm-.096-.217.457-.202c0-.001.02.046.003.119a.2.2 0 0 1-.065.116l-.31-.392-.31-.392a.8.8 0 0 0-.288.439.8.8 0 0 0 .056.515zm.085-.359.31.392.18-.143-.31-.392-.31-.392-.18.143zm.18-.143.31.392.18-.143-.31-.392-.31-.392-.18.143zm.18-.143.31.392q.194-.152.35-.298l-.342-.365-.341-.365q-.12.112-.287.244zm.318-.271.342.365.137-.129-.341-.365-.342-.365-.137.129zm.138-.129.341.366.138-.13-.342-.364-.341-.365-.138.128zm.137-.128.342.365q.179-.167.313-.368l-.416-.277-.417-.277q-.067.1-.163.192zm.239-.28.416.277.1-.152-.416-.277-.416-.277-.1.152zm.1-.152.417.277.1-.151-.416-.277-.416-.277-.101.151zm.101-.151.416.277q.078-.117.18-.228l-.366-.34-.366-.34q-.156.168-.28.354zm.23-.291.367.34.13-.14-.367-.34-.367-.34-.13.14zm.13-.14.366.34.13-.139-.367-.34-.366-.34-.13.14zm.13-.139.366.34q.138-.149.29-.328l-.38-.324-.382-.324q-.14.165-.261.296zm.275-.312.38.324.147-.172-.38-.324-.381-.324-.147.172zm.147-.172.38.324.147-.172-.38-.324-.381-.324-.147.172zm.146-.172.38.324a.2.2 0 0 1-.08.046.2.2 0 0 1-.09.004l.154-.476.153-.476a.84.84 0 0 0-.488-.015.83.83 0 0 0-.41.269zm.364-.102-.154.476.217.07.154-.476.153-.476-.217-.07zm.217.07-.154.476.217.07.154-.476.153-.476-.217-.07zm.217.07-.154.476q.237.076.45.122l.105-.488.106-.489a4 4 0 0 1-.354-.097zm.401.11-.106.488.185.04.105-.488.106-.49-.184-.039zm.184.04-.105.488.184.04.106-.489.105-.488-.184-.04zm.184.04-.105.488q.284.058.57.015l-.072-.494-.072-.495a.6.6 0 0 1-.215-.003zm.393.009.073.494.208-.03-.072-.495-.072-.495-.209.03zm.209-.03.072.494.209-.03-.073-.495-.072-.495-.208.03zm.208-.031.073.494a.2.2 0 0 1-.124-.026c-.054-.029-.074-.065-.073-.063l.44-.238.44-.238a.83.83 0 0 0-.338-.345.8.8 0 0 0-.49-.079zm.316.167-.44.238.107.197.44-.238.44-.238-.107-.197zm.107.197-.44.238.107.198.44-.238.44-.238-.108-.198zm.107.198-.44.238c.114.21.282.389.516.493l.203-.457.203-.457-.009-.007a.2.2 0 0 1-.034-.048zm.28.274-.204.457.173.077.203-.457.203-.457-.173-.077zm.172.077-.203.457.173.077.203-.457.203-.457-.173-.077zm.173.077-.203.457q.112.049.22.134l.31-.392.31-.392a2 2 0 0 0-.434-.264zm.327.199-.31.392.154.122.31-.392.311-.391-.154-.123zm.155.122-.311.392.155.123.31-.392.31-.392-.154-.122zm.154.123-.31.392a.1.1 0 0 1-.032-.044c-.01-.023-.009-.036-.01-.028l.5.014.5.014a.89.89 0 0 0-.337-.74zm.149.334-.5-.014-.006.212.5.013.5.014.005-.211zm-.006.211-.5-.013-.006.211.5.014.5.014.006-.212zm-.006.212-.5-.014c-.006.24.056.471.2.673l.407-.29.407-.29c-.006-.008-.015-.023-.014-.065zm.107.37-.408.29.113.157.407-.29.408-.29-.113-.157zm.112.158-.407.29.112.157.408-.29.407-.29-.112-.157zm.113.158-.408.29q.106.15.226.33l.418-.275.417-.275q-.128-.194-.246-.36zm.236.345-.418.275.123.188.418-.275.418-.275-.124-.188zm.123.188-.418.274.124.188.417-.275.418-.275-.123-.187zm.123.187-.417.275q.015.025.008.012a.3.3 0 0 1-.026-.122.455.455 0 0 1 .414-.47l.03.5.03.498a.545.545 0 0 0 .525-.573.7.7 0 0 0-.06-.242 1 1 0 0 0-.086-.153zm.009.194-.03-.499-.114.007.03.5.029.498.114-.007zm-.115.007-.03-.499-.114.007.03.499.029.499.115-.007zm-.114.007-.03-.5a.6.6 0 0 0-.484.29.8.8 0 0 0-.106.391l.5.014.5.014c0-.025.005.029-.042.105a.39.39 0 0 1-.309.185zm-.12.195-.5-.014-.006.189.5.014.5.014.005-.189z"/></svg>