<svg preserveAspectRatio="none" width="100%" height="100%" overflow="visible" style="display: block;" viewBox="0 0 28.1336 40.7509" fill="none" xmlns="http://www.w3.org/2000/svg">
<g id="Group 18">
<g id="Union">
<path d="M13.2268 1.00344C13.7009 1.01174 13.9562 1.02491 14.4358 1.02492C17.3195 1.02502 20.779 2.05154 23.3928 5.43801C25.1073 7.65935 25.8852 10.2695 26.3079 12.3843C26.7334 14.5133 26.8961 16.7108 27.0305 18.187C27.2118 20.1766 27.1887 23.2015 26.677 26.3482C26.1786 29.4133 25.1214 33.2022 22.803 36.2134C21.8795 37.4127 20.4063 38.4867 18.7493 39.1177C16.9526 39.8019 14.5093 40.1216 11.93 39.0835C10.9337 38.6826 10.2401 38.4291 9.68093 38.2232C9.22547 38.0554 8.50028 37.7964 7.84694 37.4478C6.15452 36.5445 5.14589 35.097 4.57546 34.395C3.12853 32.6146 2.09726 29.846 1.53347 26.8823C0.93548 23.7388 0.755845 19.832 1.43679 15.4204C1.48699 15.0952 1.56957 14.7823 1.67702 14.4839C1.68256 14.2152 1.70852 13.9433 1.75905 13.6704C2.13583 11.6364 2.86162 9.31449 3.91823 7.03273C4.49558 5.78601 5.22835 4.54937 6.43386 3.59133C6.98274 3.15515 7.50833 2.88304 7.63796 2.81301C7.64083 2.81146 7.64406 2.81054 7.64675 2.8091C8.63647 2.0757 9.85075 1.33586 11.5198 1.09133C12.2154 0.989434 12.8483 0.996812 13.2268 1.00344Z" fill="var(--fill-0, #FFFEEF)"/>
<path d="M13.2268 1.00344L13.2443 0.00358986L13.2443 0.00358974L13.2268 1.00344ZM14.4358 1.02492L14.4358 0.0249209H14.4358L14.4358 1.02492ZM23.3928 5.43801L24.1845 4.82702L24.1845 4.827L23.3928 5.43801ZM26.3079 12.3843L27.2885 12.1883L27.2885 12.1883L26.3079 12.3843ZM27.0305 18.187L26.0347 18.2778V18.2778L27.0305 18.187ZM26.677 26.3482L27.6641 26.5087L27.6641 26.5087L26.677 26.3482ZM22.803 36.2134L23.5953 36.8235L23.5954 36.8235L22.803 36.2134ZM18.7493 39.1177L19.1052 40.0522L19.1052 40.0522L18.7493 39.1177ZM11.93 39.0835L12.3033 38.1558L12.3033 38.1558L11.93 39.0835ZM9.68093 38.2232L9.33527 39.1615H9.33527L9.68093 38.2232ZM7.84694 37.4478L7.37609 38.33L7.37616 38.33L7.84694 37.4478ZM4.57546 34.395L5.35151 33.7644L5.3515 33.7644L4.57546 34.395ZM1.53347 26.8823L0.551085 27.0692L0.551085 27.0692L1.53347 26.8823ZM1.43679 15.4204L0.448494 15.2679L0.448492 15.2679L1.43679 15.4204ZM1.67702 14.4839L2.61788 14.8227L2.67343 14.6684L2.67681 14.5045L1.67702 14.4839ZM1.75905 13.6704L0.77578 13.4883L0.77577 13.4883L1.75905 13.6704ZM3.91823 7.03273L3.01081 6.61251L3.0108 6.61253L3.91823 7.03273ZM6.43386 3.59133L5.81171 2.80842L5.81169 2.80845L6.43386 3.59133ZM7.63796 2.81301L8.11327 3.69283L8.11333 3.69279L7.63796 2.81301ZM7.64675 2.8091L8.11749 3.69137L8.18272 3.65657L8.24212 3.61255L7.64675 2.8091ZM11.5198 1.09133L11.3749 0.101885L11.3748 0.101891L11.5198 1.09133ZM13.2268 1.00344L13.2093 2.00328C13.6524 2.01104 13.9474 2.02491 14.4358 2.02492L14.4358 1.02492L14.4358 0.0249209C13.965 0.0249129 13.7494 0.0124345 13.2443 0.00358986L13.2268 1.00344ZM14.4358 1.02492L14.4358 2.02492C17.0776 2.02501 20.2147 2.9571 22.6012 6.04902L23.3928 5.43801L24.1845 4.827C21.3433 1.14598 17.5614 0.0250254 14.4358 0.0249209L14.4358 1.02492ZM23.3928 5.43801L22.6012 6.04899C24.1787 8.09292 24.9172 10.5282 25.3273 12.5803L26.3079 12.3843L27.2885 12.1883C26.8533 10.0109 26.0358 7.22578 24.1845 4.82702L23.3928 5.43801ZM26.3079 12.3843L25.3273 12.5803C25.7398 14.6443 25.898 16.7776 26.0347 18.2778L27.0305 18.187L28.0264 18.0963C27.8941 16.644 27.727 14.3823 27.2885 12.1883L26.3079 12.3843ZM27.0305 18.187L26.0347 18.2778C26.2085 20.1856 26.1878 23.126 25.69 26.1877L26.677 26.3482L27.6641 26.5087C28.1896 23.2769 28.2151 20.1677 28.0264 18.0963L27.0305 18.187ZM26.677 26.3482L25.69 26.1877C25.2028 29.1837 24.1822 32.7829 22.0106 35.6033L22.803 36.2134L23.5954 36.8235C26.0606 33.6216 27.1544 29.6429 27.6641 26.5087L26.677 26.3482ZM22.803 36.2134L22.0107 35.6033C21.2126 36.6398 19.8981 37.6101 18.3934 38.1832L18.7493 39.1177L19.1052 40.0522C20.9144 39.3632 22.5465 38.1856 23.5953 36.8235L22.803 36.2134ZM18.7493 39.1177L18.3934 38.1832C16.7754 38.7993 14.5985 39.0795 12.3033 38.1558L11.93 39.0835L11.5566 40.0112C14.4202 41.1636 17.1297 40.8045 19.1052 40.0522L18.7493 39.1177ZM11.93 39.0835L12.3033 38.1558C11.292 37.7489 10.5861 37.4909 10.0266 37.2848L9.68093 38.2232L9.33527 39.1615C9.89405 39.3674 10.5755 39.6164 11.5566 40.0112L11.93 39.0835ZM9.68093 38.2232L10.0266 37.2848C9.5543 37.1108 8.89857 36.8755 8.31773 36.5655L7.84694 37.4478L7.37616 38.33C8.10199 38.7173 8.89663 38.9999 9.33527 39.1615L9.68093 38.2232ZM7.84694 37.4478L8.3178 36.5656C6.84426 35.7791 5.9728 34.5289 5.35151 33.7644L4.57546 34.395L3.79941 35.0257C4.31898 35.6651 5.46479 37.3099 7.37609 38.33L7.84694 37.4478ZM4.57546 34.395L5.3515 33.7644C4.05354 32.1673 3.06529 29.5837 2.51585 26.6955L1.53347 26.8823L0.551085 27.0692C1.12922 30.1083 2.20351 33.062 3.79942 35.0257L4.57546 34.395ZM1.53347 26.8823L2.51585 26.6955C1.93902 23.6632 1.76164 19.8711 2.42508 15.573L1.43679 15.4204L0.448492 15.2679C-0.249954 19.7928 -0.0680632 23.8145 0.551085 27.0692L1.53347 26.8823ZM1.43679 15.4204L2.42508 15.573C2.4648 15.3157 2.53059 15.0651 2.61788 14.8227L1.67702 14.4839L0.736164 14.1451C0.608542 14.4995 0.509182 14.8747 0.448494 15.2679L1.43679 15.4204ZM1.67702 14.4839L2.67681 14.5045C2.68131 14.2863 2.70231 14.0687 2.74234 13.8525L1.75905 13.6704L0.77577 13.4883C0.714726 13.818 0.683813 14.144 0.677235 14.4633L1.67702 14.4839ZM1.75905 13.6704L2.74233 13.8526C3.10312 11.9048 3.80241 9.66265 4.82566 7.45294L3.91823 7.03273L3.0108 6.61253C1.92083 8.96633 1.16853 11.368 0.77578 13.4883L1.75905 13.6704ZM3.91823 7.03273L4.82566 7.45295C5.37606 6.26442 6.02839 5.1909 7.05603 4.37421L6.43386 3.59133L5.81169 2.80845C4.42831 3.90784 3.61511 5.30759 3.01081 6.61251L3.91823 7.03273ZM6.43386 3.59133L7.056 4.37423C7.52786 3.99926 7.98159 3.76396 8.11327 3.69283L7.63796 2.81301L7.16265 1.93319C7.03507 2.00211 6.43763 2.31103 5.81171 2.80842L6.43386 3.59133ZM7.63796 2.81301L8.11333 3.69279C8.09746 3.70137 8.08317 3.70852 8.07106 3.71432C8.05897 3.72012 8.0485 3.72482 8.04035 3.72838C8.03225 3.73191 8.02567 3.73465 8.02162 3.73632C8.01954 3.73717 8.01787 3.73785 8.01682 3.73828C8.01628 3.73849 8.01585 3.73867 8.01557 3.73878C8.01531 3.73889 8.01512 3.73896 8.01511 3.73897C8.0143 3.73929 8.01768 3.73794 8.02109 3.73655C8.02497 3.73497 8.03167 3.73221 8.0399 3.72867C8.0482 3.7251 8.05918 3.72025 8.07195 3.71423C8.08474 3.7082 8.10019 3.7006 8.11749 3.69137L7.64675 2.8091L7.17601 1.92683C7.19264 1.91796 7.20739 1.9107 7.21948 1.905C7.23155 1.89932 7.24182 1.89479 7.24939 1.89153C7.25689 1.8883 7.26286 1.88585 7.266 1.88457C7.26867 1.88348 7.27129 1.88243 7.26974 1.88305C7.2693 1.88323 7.26553 1.88474 7.26097 1.88661C7.25616 1.88859 7.24883 1.89165 7.23998 1.89551C7.23109 1.89939 7.21987 1.90444 7.20705 1.91058C7.19419 1.91674 7.17917 1.92426 7.16259 1.93322L7.63796 2.81301ZM7.64675 2.8091L8.24212 3.61255C9.17134 2.92399 10.2291 2.29111 11.6648 2.08076L11.5198 1.09133L11.3748 0.101891C9.47243 0.380619 8.10161 1.22741 7.05138 2.00565L7.64675 2.8091ZM11.5198 1.09133L11.6647 2.08077C12.2745 1.99145 12.8385 1.99679 13.2093 2.00328L13.2268 1.00344L13.2443 0.00358974C12.8582 -0.00316824 12.1563 -0.0125792 11.3749 0.101885L11.5198 1.09133Z" fill="var(--stroke-0, #F4C280)"/>
</g>
<ellipse id="Ellipse 20" cx="14.6343" cy="18.9999" rx="6" ry="9" fill="var(--fill-0, #424242)"/>
<g id="Star 4">
<path d="M12.8253 23.942L13.1584 25.4917H14.2363L13.3642 26.4495L13.6973 27.9991L12.8253 27.0414L11.9532 27.9991L12.2863 26.4495L11.4142 25.4917H12.4922L12.8253 23.942Z" fill="var(--fill-0, white)"/>
<path d="M12.874 24.0466L12.738 24.11L12.874 24.0466ZM12.8984 24.0989L13.0343 24.0355L12.8984 24.0989ZM12.9253 24.2082L12.7755 24.2149L12.9253 24.2082ZM12.9279 24.2652L13.0777 24.2584L12.9279 24.2652ZM12.9304 24.3221L12.7806 24.3289L12.9304 24.3221ZM12.9507 24.4329L13.0931 24.3859L12.9507 24.4329ZM12.9684 24.4866L12.8259 24.5335L12.9684 24.4866ZM12.9861 24.5403L12.8436 24.5873L12.9861 24.5403ZM13.0106 24.6501L12.8617 24.6682L13.0106 24.6501ZM13.0242 24.7623L13.1731 24.7442L13.0242 24.7623ZM13.0254 24.8771L12.8761 24.8629L13.0254 24.8771ZM13.0142 24.9945L12.8649 24.9804L13.0142 24.9945ZM13.0239 25.1075L13.1683 25.0669V25.0669L13.0239 25.1075ZM13.0544 25.216L12.91 25.2566V25.2566L13.0544 25.216ZM13.0872 25.3241L12.9445 25.3705L13.0872 25.3241ZM13.198 25.4949L13.174 25.643L13.198 25.4949ZM13.4295 25.4957L13.3632 25.3612L13.4295 25.4957ZM13.4858 25.4679L13.4194 25.3334L13.4858 25.4679ZM13.542 25.4402L13.6084 25.5747L13.542 25.4402ZM13.767 25.4851L13.7077 25.6229L13.767 25.4851ZM13.8795 25.5155L13.8959 25.3664L13.8795 25.5155ZM13.9358 25.5217L13.9194 25.6708L13.9358 25.5217ZM13.992 25.5278L13.9756 25.6769L13.992 25.5278ZM14.0885 25.5298L14.1042 25.679L14.0885 25.5298ZM14.1288 25.5256L14.1444 25.6748L14.1288 25.5256ZM14.169 25.5214L14.1534 25.3722L14.169 25.5214ZM14.1733 25.5605L14.0579 25.4647L14.1733 25.5605ZM14.1374 25.6038L14.2528 25.6996L14.1374 25.6038ZM14.0327 25.7367L13.9103 25.6499L14.0327 25.7367ZM13.9999 25.7829L14.1222 25.8697L13.9999 25.7829ZM13.9671 25.8291L14.0894 25.9159L13.9671 25.8291ZM13.8765 25.8988L13.82 25.7599L13.8765 25.8988ZM13.761 25.9458L13.8176 26.0848L13.761 25.9458ZM13.6926 26.0357L13.5445 26.0118L13.6926 26.0357ZM13.6713 26.1684L13.8194 26.1922L13.6713 26.1684ZM13.5669 26.3016L13.654 26.4237L13.5669 26.3016ZM13.5201 26.335L13.433 26.2129L13.5201 26.335ZM13.4704 26.4069L13.3208 26.3958L13.4704 26.4069ZM13.4675 26.4453L13.6171 26.4564L13.4675 26.4453ZM13.4647 26.4838L13.3151 26.4727L13.4647 26.4838ZM13.4709 26.5778L13.6189 26.5537L13.4709 26.5778ZM13.489 26.689L13.3409 26.7131L13.489 26.689ZM13.5021 26.8013L13.6517 26.7906V26.7906L13.5021 26.8013ZM13.5061 26.8579L13.3565 26.8686L13.5061 26.8579ZM13.5102 26.9146L13.6598 26.9039L13.5102 26.9146ZM13.4952 27.0329L13.6385 27.0771L13.4952 27.0329ZM13.4572 27.1561L13.3138 27.1119L13.4572 27.1561ZM13.4684 27.2688L13.5974 27.1922V27.1922L13.4684 27.2688ZM13.529 27.3708L13.4 27.4474V27.4474L13.529 27.3708ZM13.5834 27.4742L13.4472 27.537L13.5834 27.4742ZM13.6317 27.5789L13.7679 27.516L13.6317 27.5789ZM13.6723 27.6852L13.5287 27.7287L13.6723 27.6852ZM13.705 27.7933L13.8485 27.7498L13.705 27.7933ZM13.7012 27.8706L13.8145 27.9689L13.7012 27.8706ZM13.681 27.8939L13.5676 27.7956L13.681 27.8939ZM13.6608 27.9171L13.5475 27.8189L13.6608 27.9171ZM13.6158 27.8869L13.752 27.8239L13.6158 27.8869ZM13.5663 27.7798L13.4302 27.8428L13.5663 27.7798ZM13.4811 27.7053L13.5304 27.5636L13.4811 27.7053ZM13.3602 27.6632L13.3109 27.8048L13.3602 27.6632ZM13.2804 27.5837L13.138 27.6309L13.2804 27.5837ZM13.2417 27.4669L13.384 27.4196L13.2417 27.4669ZM13.1828 27.3683L13.0759 27.4735L13.1828 27.3683ZM13.1433 27.3282L13.2503 27.223L13.1433 27.3282ZM13.1039 27.288L12.9969 27.3932L13.1039 27.288ZM13.0065 27.2245L12.9503 27.3636L13.0065 27.2245ZM12.9486 27.2012L12.8925 27.3402L12.9486 27.2012ZM12.8908 27.1778L12.9469 27.0387L12.8908 27.1778ZM12.809 27.1522L12.7951 27.3015L12.809 27.1522ZM12.7611 27.1477L12.775 26.9984L12.7611 27.1477ZM12.6912 27.1797L12.7808 27.3001L12.6912 27.1797ZM12.5134 27.3221L12.4076 27.2157L12.5134 27.3221ZM12.4734 27.3618L12.5792 27.4682L12.4734 27.3618ZM12.4335 27.4015L12.5392 27.5079L12.4335 27.4015ZM12.3609 27.4875L12.4834 27.574L12.3609 27.4875ZM12.2955 27.5802L12.1729 27.4936L12.2955 27.5802ZM12.211 27.8076L12.0668 27.7664L12.211 27.8076ZM12.1312 27.887L12.1748 28.0305L12.1312 27.887ZM12.0059 27.925L11.9623 27.7815L12.0059 27.925ZM11.9645 27.913L12.0882 27.9979L11.9645 27.913ZM11.9858 27.882L12.1095 27.9668L11.9858 27.882ZM12.007 27.851L12.1308 27.9358L12.007 27.851ZM12.0376 27.7644L11.8897 27.7396L12.0376 27.7644ZM12.0719 27.5416L12.2209 27.5585L12.0719 27.5416ZM12.0782 27.4854L11.9292 27.4686L12.0782 27.4854ZM12.0846 27.4293L12.2336 27.4461L12.0846 27.4293ZM12.1492 27.213L12.0083 27.1617L12.1492 27.213ZM12.1549 27.0992L12.3011 27.0659L12.1549 27.0992ZM12.1273 26.9782L11.9811 27.0115L12.1273 26.9782ZM12.1549 26.869L12.0405 26.7719L12.1549 26.869ZM12.2375 26.7717L12.3519 26.8688L12.2375 26.7717ZM12.2794 26.6657L12.1295 26.6641L12.2794 26.6657ZM12.2801 26.6083L12.4301 26.6099L12.2801 26.6083ZM12.2807 26.5509L12.1307 26.5493L12.2807 26.5509ZM12.2599 26.4419L12.3984 26.3844L12.2599 26.4419ZM12.2171 26.3388L12.0785 26.3964L12.2171 26.3388ZM12.1586 26.245L12.0458 26.3438L12.1586 26.245ZM12.1215 26.2027L12.0087 26.3015L12.1215 26.2027ZM12.0844 26.1604L12.1972 26.0615L12.0844 26.1604ZM11.9956 26.0891L11.9224 26.22L11.9956 26.0891ZM11.8921 26.0312L11.8189 26.1621L11.8921 26.0312ZM11.8008 25.9622L11.6941 26.0677L11.8008 25.9622ZM11.7216 25.8821L11.6149 25.9876L11.7216 25.8821ZM11.6525 25.7929L11.5239 25.8702L11.6525 25.7929ZM11.5934 25.6946L11.4648 25.7718L11.5934 25.6946ZM11.5291 25.598L11.4081 25.6866L11.5291 25.598ZM11.4596 25.5031L11.5806 25.4144L11.4596 25.5031ZM11.4811 25.4581L11.4744 25.608L11.4811 25.4581ZM11.5936 25.4631L11.6002 25.3133L11.5936 25.4631ZM11.7061 25.4814L11.7465 25.3369L11.7061 25.4814ZM12.1561 25.4954L12.0928 25.6314L12.1561 25.4954ZM12.2123 25.5216L12.1491 25.6576L12.2123 25.5216ZM12.2686 25.5477L12.3318 25.4117L12.2686 25.5477ZM12.3754 25.5405L12.4581 25.6656L12.3754 25.5405ZM12.4765 25.4736L12.3938 25.3485L12.4765 25.4736ZM12.5324 25.3838L12.6818 25.398L12.5324 25.3838ZM12.5431 25.271L12.6925 25.2852L12.5431 25.271ZM12.5751 25.1629L12.4417 25.0943L12.5751 25.1629ZM12.6018 25.111L12.7352 25.1796L12.6018 25.111ZM12.629 24.7142L12.7765 24.7416L12.629 24.7142ZM12.6496 24.6035L12.5022 24.5761L12.6496 24.6035ZM12.6714 24.4931L12.5245 24.4626L12.6714 24.4931ZM12.6943 24.383L12.5474 24.3524L12.6943 24.383ZM12.7133 24.272L12.5646 24.252L12.7133 24.272ZM12.7283 24.1601L12.877 24.1801L12.7283 24.1601ZM12.7533 24.0626L12.615 24.0046L12.7533 24.0626ZM12.7707 24.021L12.909 24.079L12.7707 24.021ZM12.7882 23.9794L12.9265 24.0374L12.7882 23.9794ZM12.8105 23.9388L12.779 24.0855L12.8105 23.9388ZM12.8204 23.9409L12.8519 23.7943L12.8204 23.9409ZM12.8496 23.9943L12.7137 24.0577L12.8496 23.9943ZM12.874 24.0466L12.738 24.11L12.7624 24.1623L12.8984 24.0989L13.0343 24.0355L13.01 23.9832L12.874 24.0466ZM12.8984 24.0989L12.7624 24.1623C12.7705 24.1795 12.7746 24.1967 12.7755 24.2149L12.9253 24.2082L13.0752 24.2014C13.0726 24.1436 13.0588 24.088 13.0343 24.0355L12.8984 24.0989ZM12.9253 24.2082L12.7755 24.2149L12.778 24.2719L12.9279 24.2652L13.0777 24.2584L13.0752 24.2014L12.9253 24.2082ZM12.9279 24.2652L12.778 24.2719L12.7806 24.3289L12.9304 24.3221L13.0803 24.3154L13.0777 24.2584L12.9279 24.2652ZM12.9304 24.3221L12.7806 24.3289C12.7829 24.3804 12.7921 24.4309 12.8082 24.4798L12.9507 24.4329L13.0931 24.3859C13.0857 24.3632 13.0814 24.3398 13.0803 24.3154L12.9304 24.3221ZM12.9507 24.4329L12.8082 24.4798L12.8259 24.5335L12.9684 24.4866L13.1109 24.4396L13.0931 24.3859L12.9507 24.4329ZM12.9684 24.4866L12.8259 24.5335L12.8436 24.5873L12.9861 24.5403L13.1286 24.4934L13.1109 24.4396L12.9684 24.4866ZM12.9861 24.5403L12.8436 24.5873C12.8524 24.6137 12.8584 24.6406 12.8617 24.6682L13.0106 24.6501L13.1595 24.6321C13.1538 24.5848 13.1435 24.5386 13.1286 24.4934L12.9861 24.5403ZM13.0106 24.6501L12.8617 24.6682L12.8685 24.7242L13.0174 24.7062L13.1663 24.6881L13.1595 24.6321L13.0106 24.6501ZM13.0174 24.7062L12.8685 24.7242L12.8753 24.7803L13.0242 24.7623L13.1731 24.7442L13.1663 24.6881L13.0174 24.7062ZM13.0242 24.7623L12.8753 24.7803C12.8785 24.8065 12.8788 24.834 12.8761 24.8629L13.0254 24.8771L13.1747 24.8913C13.1794 24.8419 13.179 24.7928 13.1731 24.7442L13.0242 24.7623ZM13.0254 24.8771L12.8761 24.8629L12.8705 24.9216L13.0198 24.9358L13.1692 24.95L13.1747 24.8913L13.0254 24.8771ZM13.0198 24.9358L12.8705 24.9216L12.8649 24.9804L13.0142 24.9945L13.1636 25.0087L13.1692 24.95L13.0198 24.9358ZM13.0142 24.9945L12.8649 24.9804C12.8595 25.037 12.8641 25.0933 12.8795 25.1481L13.0239 25.1075L13.1683 25.0669C13.1634 25.0494 13.1615 25.0303 13.1636 25.0087L13.0142 24.9945ZM13.0239 25.1075L12.8795 25.1481L12.8948 25.2024L13.0392 25.1618L13.1836 25.1212L13.1683 25.0669L13.0239 25.1075ZM13.0392 25.1618L12.8948 25.2024L12.91 25.2566L13.0544 25.216L13.1988 25.1754L13.1836 25.1212L13.0392 25.1618ZM13.0544 25.216L12.91 25.2566C12.9207 25.2948 12.9322 25.3327 12.9445 25.3705L13.0872 25.3241L13.2298 25.2777C13.2188 25.2437 13.2085 25.2097 13.1988 25.1754L13.0544 25.216ZM13.0872 25.3241L12.9445 25.3705L12.962 25.4242L13.1047 25.3778L13.2473 25.3315L13.2298 25.2777L13.0872 25.3241ZM13.1047 25.3778L12.962 25.4242L12.9795 25.478L13.1222 25.4316L13.2648 25.3852L13.2473 25.3315L13.1047 25.3778ZM13.1222 25.4316L12.9795 25.478C12.9928 25.5188 13.0165 25.5584 13.0538 25.5895C13.0908 25.6204 13.1332 25.6363 13.174 25.643L13.198 25.4949L13.2221 25.3469C13.2239 25.3471 13.2342 25.3494 13.2459 25.3591C13.258 25.3692 13.2632 25.3803 13.2648 25.3852L13.1222 25.4316ZM13.198 25.4949L13.174 25.643L13.2324 25.6525L13.2565 25.5044L13.2806 25.3564L13.2221 25.3469L13.198 25.4949ZM13.2565 25.5044L13.2324 25.6525L13.2908 25.662L13.3149 25.5139L13.339 25.3659L13.2806 25.3564L13.2565 25.5044ZM13.3149 25.5139L13.2908 25.662C13.3624 25.6736 13.4321 25.6616 13.4959 25.6302L13.4295 25.4957L13.3632 25.3612C13.3519 25.3667 13.3452 25.3669 13.339 25.3659L13.3149 25.5139ZM13.4295 25.4957L13.4959 25.6302L13.5521 25.6025L13.4858 25.4679L13.4194 25.3334L13.3632 25.3612L13.4295 25.4957ZM13.4858 25.4679L13.5521 25.6025L13.6084 25.5747L13.542 25.4402L13.4757 25.3057L13.4194 25.3334L13.4858 25.4679ZM13.542 25.4402L13.6084 25.5747C13.6101 25.5738 13.608 25.5752 13.603 25.5754C13.5979 25.5755 13.5948 25.5743 13.5952 25.5744L13.6545 25.4367L13.7138 25.2989C13.6349 25.2649 13.5515 25.2683 13.4757 25.3057L13.542 25.4402ZM13.6545 25.4367L13.5952 25.5744L13.6515 25.5986L13.7108 25.4609L13.7701 25.3231L13.7138 25.2989L13.6545 25.4367ZM13.7108 25.4609L13.6515 25.5986L13.7077 25.6229L13.767 25.4851L13.8263 25.3473L13.7701 25.3231L13.7108 25.4609ZM13.767 25.4851L13.7077 25.6229C13.7578 25.6444 13.8097 25.6587 13.8631 25.6646L13.8795 25.5155L13.8959 25.3664C13.8744 25.364 13.8513 25.358 13.8263 25.3473L13.767 25.4851ZM13.8795 25.5155L13.8631 25.6646L13.9194 25.6708L13.9358 25.5217L13.9522 25.3726L13.8959 25.3664L13.8795 25.5155ZM13.9358 25.5217L13.9194 25.6708L13.9756 25.6769L13.992 25.5278L14.0084 25.3787L13.9522 25.3726L13.9358 25.5217ZM13.992 25.5278L13.9756 25.6769C14.0199 25.6818 14.0634 25.6833 14.1042 25.679L14.0885 25.5298L14.0729 25.3806C14.06 25.382 14.0391 25.3821 14.0084 25.3787L13.992 25.5278ZM14.0885 25.5298L14.1042 25.679L14.1444 25.6748L14.1288 25.5256L14.1131 25.3764L14.0729 25.3806L14.0885 25.5298ZM14.1288 25.5256L14.1444 25.6748L14.1847 25.6705L14.169 25.5214L14.1534 25.3722L14.1131 25.3764L14.1288 25.5256ZM14.169 25.5214L14.1847 25.6705C14.184 25.6706 14.162 25.6736 14.1334 25.6633C14.117 25.6573 14.0944 25.6455 14.0747 25.6225C14.0541 25.5985 14.0439 25.5707 14.0411 25.5454C14.0364 25.5025 14.0531 25.4733 14.0544 25.4707C14.0582 25.4637 14.0607 25.4613 14.0579 25.4647L14.1733 25.5605L14.2888 25.6563C14.2979 25.6452 14.3092 25.6304 14.3187 25.6128C14.3257 25.5997 14.3448 25.5621 14.3393 25.5127C14.3362 25.484 14.3249 25.4535 14.3024 25.4272C14.2807 25.402 14.2554 25.3884 14.2354 25.3812C14.1998 25.3683 14.1675 25.3707 14.1534 25.3722L14.169 25.5214ZM14.1733 25.5605L14.0579 25.4647L14.0219 25.508L14.1374 25.6038L14.2528 25.6996L14.2888 25.6563L14.1733 25.5605ZM14.1374 25.6038L14.0219 25.508L13.986 25.5513L14.1014 25.6471L14.2168 25.7429L14.2528 25.6996L14.1374 25.6038ZM14.1014 25.6471L13.986 25.5513C13.9596 25.5831 13.9344 25.616 13.9103 25.6499L14.0327 25.7367L14.155 25.8235C14.1747 25.7957 14.1953 25.7689 14.2168 25.7429L14.1014 25.6471ZM14.0327 25.7367L13.9103 25.6499L13.8775 25.6961L13.9999 25.7829L14.1222 25.8697L14.155 25.8235L14.0327 25.7367ZM13.9999 25.7829L13.8775 25.6961L13.8447 25.7423L13.9671 25.8291L14.0894 25.9159L14.1222 25.8697L13.9999 25.7829ZM13.9671 25.8291L13.8447 25.7423C13.841 25.7475 13.8348 25.7539 13.82 25.7599L13.8765 25.8988L13.9331 26.0378C13.9953 26.0125 14.0494 25.9723 14.0894 25.9159L13.9671 25.8291ZM13.8765 25.8988L13.82 25.7599L13.7623 25.7834L13.8188 25.9223L13.8753 26.0613L13.9331 26.0378L13.8765 25.8988ZM13.8188 25.9223L13.7623 25.7834L13.7045 25.8069L13.761 25.9458L13.8176 26.0848L13.8753 26.0613L13.8188 25.9223ZM13.761 25.9458L13.7045 25.8069C13.6131 25.8441 13.5592 25.9207 13.5445 26.0118L13.6926 26.0357L13.8407 26.0595C13.8411 26.0571 13.8406 26.0628 13.8344 26.0709C13.8279 26.0794 13.8205 26.0836 13.8176 26.0848L13.761 25.9458ZM13.6926 26.0357L13.5445 26.0118L13.5339 26.0782L13.682 26.102L13.8301 26.1258L13.8407 26.0595L13.6926 26.0357ZM13.682 26.102L13.5339 26.0782L13.5232 26.1445L13.6713 26.1684L13.8194 26.1922L13.8301 26.1258L13.682 26.102ZM13.6713 26.1684L13.5232 26.1445C13.522 26.1516 13.5207 26.1531 13.5216 26.1516C13.5228 26.1496 13.5248 26.1474 13.5266 26.146L13.6138 26.2681L13.7009 26.3903C13.7703 26.3408 13.8071 26.2688 13.8194 26.1922L13.6713 26.1684ZM13.6138 26.2681L13.5266 26.146L13.4798 26.1795L13.5669 26.3016L13.654 26.4237L13.7009 26.3903L13.6138 26.2681ZM13.5669 26.3016L13.4798 26.1795L13.433 26.2129L13.5201 26.335L13.6072 26.4571L13.654 26.4237L13.5669 26.3016ZM13.5201 26.335L13.433 26.2129C13.3837 26.2481 13.3273 26.3074 13.3208 26.3958L13.4704 26.4069L13.62 26.418C13.6187 26.4352 13.6125 26.448 13.6076 26.455C13.6035 26.461 13.6015 26.4612 13.6072 26.4571L13.5201 26.335ZM13.4704 26.4069L13.3208 26.3958L13.3179 26.4342L13.4675 26.4453L13.6171 26.4564L13.62 26.418L13.4704 26.4069ZM13.4675 26.4453L13.3179 26.4342L13.3151 26.4727L13.4647 26.4838L13.6143 26.4949L13.6171 26.4564L13.4675 26.4453ZM13.4647 26.4838L13.3151 26.4727C13.312 26.5141 13.3157 26.5581 13.3228 26.6019L13.4709 26.5778L13.6189 26.5537C13.614 26.5235 13.6135 26.5047 13.6143 26.4949L13.4647 26.4838ZM13.4709 26.5778L13.3228 26.6019L13.3319 26.6575L13.4799 26.6334L13.628 26.6093L13.6189 26.5537L13.4709 26.5778ZM13.4799 26.6334L13.3319 26.6575L13.3409 26.7131L13.489 26.689L13.637 26.6649L13.628 26.6093L13.4799 26.6334ZM13.489 26.689L13.3409 26.7131C13.3462 26.7457 13.3501 26.7786 13.3525 26.812L13.5021 26.8013L13.6517 26.7906C13.6487 26.7483 13.6438 26.7065 13.637 26.6649L13.489 26.689ZM13.5021 26.8013L13.3525 26.812L13.3565 26.8686L13.5061 26.8579L13.6558 26.8472L13.6517 26.7906L13.5021 26.8013ZM13.5061 26.8579L13.3565 26.8686L13.3606 26.9253L13.5102 26.9146L13.6598 26.9039L13.6558 26.8472L13.5061 26.8579ZM13.5102 26.9146L13.3606 26.9253C13.3618 26.9422 13.3598 26.9629 13.3519 26.9886L13.4952 27.0329L13.6385 27.0771C13.656 27.0207 13.664 26.9626 13.6598 26.9039L13.5102 26.9146ZM13.4952 27.0329L13.3519 26.9886L13.3329 27.0503L13.4762 27.0945L13.6195 27.1387L13.6385 27.0771L13.4952 27.0329ZM13.4762 27.0945L13.3329 27.0503L13.3138 27.1119L13.4572 27.1561L13.6005 27.2004L13.6195 27.1387L13.4762 27.0945ZM13.4572 27.1561L13.3138 27.1119C13.2899 27.1895 13.2956 27.2715 13.3394 27.3453L13.4684 27.2688L13.5974 27.1922C13.5979 27.1931 13.5993 27.1961 13.5997 27.2002C13.6001 27.2039 13.5992 27.2044 13.6005 27.2004L13.4572 27.1561ZM13.4684 27.2688L13.3394 27.3453L13.3697 27.3964L13.4987 27.3198L13.6277 27.2433L13.5974 27.1922L13.4684 27.2688ZM13.4987 27.3198L13.3697 27.3964L13.4 27.4474L13.529 27.3708L13.658 27.2943L13.6277 27.2433L13.4987 27.3198ZM13.529 27.3708L13.4 27.4474C13.4176 27.4771 13.4334 27.507 13.4472 27.537L13.5834 27.4742L13.7196 27.4114C13.7013 27.3716 13.6807 27.3326 13.658 27.2943L13.529 27.3708ZM13.5834 27.4742L13.4472 27.537L13.4714 27.5894L13.6076 27.5265L13.7438 27.4637L13.7196 27.4114L13.5834 27.4742ZM13.6076 27.5265L13.4714 27.5894L13.4955 27.6417L13.6317 27.5789L13.7679 27.516L13.7438 27.4637L13.6076 27.5265ZM13.6317 27.5789L13.4955 27.6417C13.5088 27.6705 13.5198 27.6995 13.5287 27.7287L13.6723 27.6852L13.8158 27.6418C13.8029 27.599 13.7869 27.5571 13.7679 27.516L13.6317 27.5789ZM13.6723 27.6852L13.5287 27.7287L13.5451 27.7828L13.6886 27.7393L13.8322 27.6958L13.8158 27.6418L13.6723 27.6852ZM13.6886 27.7393L13.5451 27.7828L13.5614 27.8368L13.705 27.7933L13.8485 27.7498L13.8322 27.6958L13.6886 27.7393ZM13.705 27.7933L13.5614 27.8368C13.564 27.8452 13.5619 27.8425 13.5624 27.8322C13.563 27.8203 13.5675 27.7958 13.5878 27.7723L13.7012 27.8706L13.8145 27.9689C13.8821 27.8908 13.8622 27.795 13.8485 27.7498L13.705 27.7933ZM13.7012 27.8706L13.5878 27.7723L13.5676 27.7956L13.681 27.8939L13.7943 27.9921L13.8145 27.9689L13.7012 27.8706ZM13.681 27.8939L13.5676 27.7956L13.5475 27.8189L13.6608 27.9171L13.7741 28.0154L13.7943 27.9921L13.681 27.8939ZM13.6608 27.9171L13.5475 27.8189C13.5571 27.8077 13.5813 27.7845 13.6222 27.7767C13.6666 27.7682 13.7027 27.783 13.7232 27.7968C13.7412 27.8089 13.7499 27.8215 13.7515 27.8238C13.7539 27.8273 13.7539 27.828 13.752 27.8239L13.6158 27.8869L13.4797 27.9499C13.4888 27.9696 13.511 28.0156 13.5557 28.0457C13.5837 28.0645 13.6271 28.0812 13.6786 28.0713C13.7266 28.0621 13.7577 28.0343 13.7741 28.0154L13.6608 27.9171ZM13.6158 27.8869L13.752 27.8239L13.7272 27.7704L13.5911 27.8334L13.4549 27.8964L13.4797 27.9499L13.6158 27.8869ZM13.5911 27.8334L13.7272 27.7704L13.7024 27.7169L13.5663 27.7798L13.4302 27.8428L13.4549 27.8964L13.5911 27.8334ZM13.5663 27.7798L13.7024 27.7169C13.6673 27.6409 13.6055 27.5898 13.5304 27.5636L13.4811 27.7053L13.4318 27.8469C13.4361 27.8484 13.4359 27.8491 13.4338 27.8473C13.4329 27.8465 13.432 27.8455 13.4312 27.8445C13.4305 27.8435 13.4302 27.8428 13.4302 27.8428L13.5663 27.7798ZM13.4811 27.7053L13.5304 27.5636L13.47 27.5426L13.4207 27.6842L13.3713 27.8259L13.4318 27.8469L13.4811 27.7053ZM13.4207 27.6842L13.47 27.5426L13.4096 27.5215L13.3602 27.6632L13.3109 27.8048L13.3713 27.8259L13.4207 27.6842ZM13.3602 27.6632L13.4096 27.5215C13.4078 27.5209 13.4112 27.5218 13.4159 27.5265C13.4181 27.5287 13.4198 27.5309 13.4211 27.533C13.4223 27.5351 13.4228 27.5364 13.4228 27.5365L13.2804 27.5837L13.138 27.6309C13.1663 27.7161 13.2287 27.7762 13.3109 27.8048L13.3602 27.6632ZM13.2804 27.5837L13.4228 27.5365L13.4034 27.4781L13.261 27.5253L13.1187 27.5725L13.138 27.6309L13.2804 27.5837ZM13.261 27.5253L13.4034 27.4781L13.384 27.4196L13.2417 27.4669L13.0993 27.5141L13.1187 27.5725L13.261 27.5253ZM13.2417 27.4669L13.384 27.4196C13.3646 27.361 13.3336 27.3077 13.2897 27.2631L13.1828 27.3683L13.0759 27.4735C13.0846 27.4824 13.0929 27.4948 13.0993 27.5141L13.2417 27.4669ZM13.1828 27.3683L13.2897 27.2631L13.2503 27.223L13.1433 27.3282L13.0364 27.4334L13.0759 27.4735L13.1828 27.3683ZM13.1433 27.3282L13.2503 27.223L13.2108 27.1828L13.1039 27.288L12.9969 27.3932L13.0364 27.4334L13.1433 27.3282ZM13.1039 27.288L13.2108 27.1828C13.1686 27.1399 13.1182 27.1079 13.0627 27.0854L13.0065 27.2245L12.9503 27.3636C12.9719 27.3723 12.9865 27.3826 12.9969 27.3932L13.1039 27.288ZM13.0065 27.2245L13.0627 27.0854L13.0048 27.0621L12.9486 27.2012L12.8925 27.3402L12.9503 27.3636L13.0065 27.2245ZM12.9486 27.2012L13.0048 27.0621L12.9469 27.0387L12.8908 27.1778L12.8346 27.3169L12.8925 27.3402L12.9486 27.2012ZM12.8908 27.1778L12.9469 27.0387C12.9097 27.0237 12.8635 27.0066 12.8228 27.0028L12.809 27.1522L12.7951 27.3015C12.7903 27.3011 12.7881 27.3005 12.7892 27.3007C12.79 27.3009 12.7924 27.3015 12.7966 27.3028C12.8051 27.3055 12.8175 27.31 12.8346 27.3169L12.8908 27.1778ZM12.809 27.1522L12.8228 27.0028L12.7989 27.0006L12.785 27.15L12.7712 27.2993L12.7951 27.3015L12.809 27.1522ZM12.785 27.15L12.7989 27.0006L12.775 26.9984L12.7611 27.1477L12.7472 27.2971L12.7712 27.2993L12.785 27.15ZM12.7611 27.1477L12.775 26.9984C12.7296 26.9942 12.6918 27.0079 12.6692 27.0183C12.6446 27.0295 12.6217 27.0445 12.6016 27.0594L12.6912 27.1797L12.7808 27.3001C12.7914 27.2922 12.7955 27.2904 12.7941 27.291C12.7932 27.2914 12.789 27.2933 12.782 27.295C12.775 27.2966 12.7629 27.2985 12.7472 27.2971L12.7611 27.1477ZM12.6912 27.1797L12.6016 27.0594L12.5557 27.0937L12.6453 27.214L12.7348 27.3343L12.7808 27.3001L12.6912 27.1797ZM12.6453 27.214L12.5557 27.0937L12.5097 27.1279L12.5993 27.2482L12.6889 27.3685L12.7348 27.3343L12.6453 27.214ZM12.5993 27.2482L12.5097 27.1279C12.4735 27.1549 12.4394 27.1842 12.4076 27.2157L12.5134 27.3221L12.6191 27.4285C12.6406 27.4071 12.6638 27.3871 12.6889 27.3685L12.5993 27.2482ZM12.5134 27.3221L12.4076 27.2157L12.3677 27.2554L12.4734 27.3618L12.5792 27.4682L12.6191 27.4285L12.5134 27.3221ZM12.4734 27.3618L12.3677 27.2554L12.3278 27.2951L12.4335 27.4015L12.5392 27.5079L12.5792 27.4682L12.4734 27.3618ZM12.4335 27.4015L12.3278 27.2951C12.2949 27.3278 12.2651 27.3631 12.2383 27.401L12.3609 27.4875L12.4834 27.574C12.5002 27.5502 12.5188 27.5282 12.5392 27.5079L12.4335 27.4015ZM12.3609 27.4875L12.2383 27.401L12.2056 27.4473L12.3282 27.5338L12.4507 27.6204L12.4834 27.574L12.3609 27.4875ZM12.3282 27.5338L12.2056 27.4473L12.1729 27.4936L12.2955 27.5802L12.418 27.6667L12.4507 27.6204L12.3282 27.5338ZM12.2955 27.5802L12.1729 27.4936C12.1404 27.5397 12.1169 27.5909 12.1013 27.6456L12.2455 27.6868L12.3898 27.728C12.3971 27.7023 12.4069 27.6824 12.418 27.6667L12.2955 27.5802ZM12.2455 27.6868L12.1013 27.6456L12.0841 27.706L12.2283 27.7472L12.3725 27.7884L12.3898 27.728L12.2455 27.6868ZM12.2283 27.7472L12.0841 27.706L12.0668 27.7664L12.211 27.8076L12.3553 27.8488L12.3725 27.7884L12.2283 27.7472ZM12.211 27.8076L12.0668 27.7664C12.0673 27.7647 12.0698 27.7581 12.0767 27.7512C12.0834 27.7446 12.0888 27.7431 12.0876 27.7435L12.1312 27.887L12.1748 28.0305C12.2627 28.0038 12.3291 27.9405 12.3553 27.8488L12.211 27.8076ZM12.1312 27.887L12.0876 27.7435L12.0249 27.7625L12.0685 27.906L12.1121 28.0495L12.1748 28.0305L12.1312 27.887ZM12.0685 27.906L12.0249 27.7625L11.9623 27.7815L12.0059 27.925L12.0495 28.0686L12.1121 28.0495L12.0685 27.906ZM12.0059 27.925L11.9623 27.7815C11.9553 27.7836 11.954 27.7836 11.9566 27.7832C11.958 27.783 11.9626 27.7823 11.9694 27.7823C11.9755 27.7822 11.989 27.7826 12.006 27.7875C12.0232 27.7925 12.0517 27.8046 12.0757 27.8334C12.1014 27.8643 12.1095 27.8996 12.1091 27.9278C12.1087 27.953 12.1017 27.9714 12.098 27.9799C12.094 27.9892 12.0899 27.9954 12.0882 27.9979L11.9645 27.913L11.8408 27.8282C11.8346 27.8371 11.8099 27.8728 11.8091 27.923C11.8086 27.9543 11.8176 27.9922 11.845 28.0252C11.8707 28.056 11.9018 28.0696 11.9224 28.0756C11.9588 28.0862 11.9912 28.0815 12.0029 28.0796C12.0195 28.077 12.0355 28.0728 12.0495 28.0686L12.0059 27.925ZM11.9645 27.913L12.0882 27.9979L12.1095 27.9668L11.9858 27.882L11.862 27.7972L11.8408 27.8282L11.9645 27.913ZM11.9858 27.882L12.1095 27.9668L12.1308 27.9358L12.007 27.851L11.8833 27.7661L11.862 27.7972L11.9858 27.882ZM12.007 27.851L12.1308 27.9358C12.1619 27.8904 12.1774 27.838 12.1856 27.7892L12.0376 27.7644L11.8897 27.7396C11.8877 27.7514 11.8855 27.7592 11.8839 27.7638C11.8822 27.7685 11.8816 27.7687 11.8833 27.7661L12.007 27.851ZM12.0376 27.7644L12.1856 27.7892L12.1949 27.7336L12.0469 27.7089L11.899 27.6841L11.8897 27.7396L12.0376 27.7644ZM12.0469 27.7089L12.1949 27.7336L12.2042 27.6781L12.0562 27.6533L11.9083 27.6285L11.899 27.6841L12.0469 27.7089ZM12.0562 27.6533L12.2042 27.6781C12.2108 27.6384 12.2164 27.5986 12.2209 27.5585L12.0719 27.5416L11.9228 27.5248C11.9189 27.5596 11.9141 27.5942 11.9083 27.6285L12.0562 27.6533ZM12.0719 27.5416L12.2209 27.5585L12.2273 27.5023L12.0782 27.4854L11.9292 27.4686L11.9228 27.5248L12.0719 27.5416ZM12.0782 27.4854L12.2273 27.5023L12.2336 27.4461L12.0846 27.4293L11.9355 27.4124L11.9292 27.4686L12.0782 27.4854ZM12.0846 27.4293L12.2336 27.4461C12.2365 27.4205 12.2424 27.3956 12.2513 27.3711L12.1104 27.3198L11.9694 27.2684C11.9524 27.3151 11.9411 27.3632 11.9355 27.4124L12.0846 27.4293ZM12.1104 27.3198L12.2513 27.3711L12.2708 27.3177L12.1298 27.2664L11.9889 27.2151L11.9694 27.2684L12.1104 27.3198ZM12.1298 27.2664L12.2708 27.3177L12.2902 27.2644L12.1492 27.213L12.0083 27.1617L11.9889 27.2151L12.1298 27.2664ZM12.1492 27.213L12.2902 27.2644C12.3139 27.1992 12.3161 27.1316 12.3011 27.0659L12.1549 27.0992L12.0086 27.1325C12.012 27.1474 12.0105 27.1557 12.0083 27.1617L12.1492 27.213ZM12.1549 27.0992L12.3011 27.0659L12.2874 27.0054L12.1411 27.0387L11.9949 27.072L12.0086 27.1325L12.1549 27.0992ZM12.1411 27.0387L12.2874 27.0054L12.2736 26.9449L12.1273 26.9782L11.9811 27.0115L11.9949 27.072L12.1411 27.0387ZM12.1273 26.9782L12.2736 26.9449C12.2736 26.9449 12.2739 26.9462 12.2739 26.9487C12.2739 26.9512 12.2736 26.9542 12.2728 26.9574C12.271 26.9642 12.2683 26.9672 12.2692 26.9661L12.1549 26.869L12.0405 26.7719C11.9835 26.8392 11.9611 26.9236 11.9811 27.0115L12.1273 26.9782ZM12.1549 26.869L12.2692 26.9661L12.3105 26.9175L12.1962 26.8204L12.0819 26.7233L12.0405 26.7719L12.1549 26.869ZM12.1962 26.8204L12.3105 26.9175L12.3519 26.8688L12.2375 26.7717L12.1232 26.6746L12.0819 26.7233L12.1962 26.8204ZM12.2375 26.7717L12.3519 26.8688C12.3994 26.8129 12.4286 26.7445 12.4294 26.6673L12.2794 26.6657L12.1295 26.6641C12.1294 26.665 12.1294 26.6652 12.1292 26.6657C12.1289 26.6664 12.1276 26.6695 12.1232 26.6746L12.2375 26.7717ZM12.2794 26.6657L12.4294 26.6673L12.4301 26.6099L12.2801 26.6083L12.1301 26.6067L12.1295 26.6641L12.2794 26.6657ZM12.2801 26.6083L12.4301 26.6099L12.4307 26.5525L12.2807 26.5509L12.1307 26.5493L12.1301 26.6067L12.2801 26.6083ZM12.2807 26.5509L12.4307 26.5525C12.4313 26.4945 12.4207 26.438 12.3984 26.3844L12.2599 26.4419L12.1214 26.4995C12.1276 26.5146 12.1309 26.5307 12.1307 26.5493L12.2807 26.5509ZM12.2599 26.4419L12.3984 26.3844L12.377 26.3328L12.2385 26.3904L12.1 26.4479L12.1214 26.4995L12.2599 26.4419ZM12.2385 26.3904L12.377 26.3328L12.3556 26.2813L12.2171 26.3388L12.0785 26.3964L12.1 26.4479L12.2385 26.3904ZM12.2171 26.3388L12.3556 26.2813C12.335 26.2317 12.3068 26.1865 12.2714 26.1461L12.1586 26.245L12.0458 26.3438C12.0598 26.3599 12.0706 26.3772 12.0785 26.3964L12.2171 26.3388ZM12.1586 26.245L12.2714 26.1461L12.2343 26.1038L12.1215 26.2027L12.0087 26.3015L12.0458 26.3438L12.1586 26.245ZM12.1215 26.2027L12.2343 26.1038L12.1972 26.0615L12.0844 26.1604L11.9716 26.2592L12.0087 26.3015L12.1215 26.2027ZM12.0844 26.1604L12.1972 26.0615C12.1607 26.0197 12.1175 25.9854 12.0688 25.9582L11.9956 26.0891L11.9224 26.22C11.9427 26.2314 11.9588 26.2445 11.9716 26.2592L12.0844 26.1604ZM11.9956 26.0891L12.0688 25.9582L12.0171 25.9292L11.9439 26.0601L11.8706 26.191L11.9224 26.22L11.9956 26.0891ZM11.9439 26.0601L12.0171 25.9292L11.9653 25.9003L11.8921 26.0312L11.8189 26.1621L11.8706 26.191L11.9439 26.0601ZM11.8921 26.0312L11.9653 25.9003C11.9425 25.8875 11.9234 25.8729 11.9074 25.8567L11.8008 25.9622L11.6941 26.0677C11.7309 26.1049 11.7727 26.1363 11.8189 26.1621L11.8921 26.0312ZM11.8008 25.9622L11.9074 25.8567L11.8678 25.8167L11.7612 25.9222L11.6545 26.0276L11.6941 26.0677L11.8008 25.9622ZM11.7612 25.9222L11.8678 25.8167L11.8283 25.7767L11.7216 25.8821L11.6149 25.9876L11.6545 26.0276L11.7612 25.9222ZM11.7216 25.8821L11.8283 25.7767C11.8104 25.7586 11.7947 25.7384 11.7811 25.7157L11.6525 25.7929L11.5239 25.8702C11.5496 25.913 11.58 25.9522 11.6149 25.9876L11.7216 25.8821ZM11.6525 25.7929L11.7811 25.7157L11.7515 25.6665L11.6229 25.7437L11.4943 25.821L11.5239 25.8702L11.6525 25.7929ZM11.6229 25.7437L11.7515 25.6665L11.722 25.6173L11.5934 25.6946L11.4648 25.7718L11.4943 25.821L11.6229 25.7437ZM11.5934 25.6946L11.722 25.6173C11.6999 25.5805 11.6759 25.5445 11.6501 25.5093L11.5291 25.598L11.4081 25.6866C11.4286 25.7146 11.4475 25.743 11.4648 25.7718L11.5934 25.6946ZM11.5291 25.598L11.6501 25.5093L11.6153 25.4619L11.4943 25.5505L11.3733 25.6392L11.4081 25.6866L11.5291 25.598ZM11.4943 25.5505L11.6153 25.4619L11.5806 25.4144L11.4596 25.5031L11.3386 25.5917L11.3733 25.6392L11.4943 25.5505ZM11.4596 25.5031L11.5806 25.4144C11.5791 25.4124 11.5848 25.4194 11.5898 25.4338C11.5944 25.4473 11.6048 25.4871 11.5829 25.5329C11.56 25.5808 11.5196 25.5984 11.5015 25.6038C11.492 25.6066 11.4847 25.6075 11.4809 25.6078C11.477 25.6081 11.4746 25.608 11.4744 25.608L11.4811 25.4581L11.4877 25.3083C11.4705 25.3075 11.4442 25.3078 11.4158 25.3163C11.3865 25.325 11.3388 25.348 11.3123 25.4034C11.2868 25.4566 11.2974 25.506 11.306 25.5312C11.315 25.5572 11.3285 25.578 11.3386 25.5917L11.4596 25.5031ZM11.4811 25.4581L11.4744 25.608L11.5307 25.6105L11.5373 25.4606L11.544 25.3108L11.4877 25.3083L11.4811 25.4581ZM11.5373 25.4606L11.5307 25.6105L11.5869 25.613L11.5936 25.4631L11.6002 25.3133L11.544 25.3108L11.5373 25.4606ZM11.5936 25.4631L11.5869 25.613C11.6126 25.6141 11.6388 25.6183 11.6657 25.6258L11.7061 25.4814L11.7465 25.3369C11.6984 25.3235 11.6496 25.3155 11.6002 25.3133L11.5936 25.4631ZM11.7061 25.4814L11.6657 25.6258L11.7219 25.6415L11.7623 25.4971L11.8027 25.3526L11.7465 25.3369L11.7061 25.4814ZM11.7623 25.4971L11.7219 25.6415L11.7782 25.6573L11.8186 25.5128L11.859 25.3684L11.8027 25.3526L11.7623 25.4971ZM11.8186 25.5128L11.7782 25.6573C11.8413 25.6749 11.9059 25.6755 11.9693 25.6588L11.9311 25.5137L11.8929 25.3687C11.8813 25.3717 11.8709 25.3717 11.859 25.3684L11.8186 25.5128ZM11.9311 25.5137L11.9693 25.6588L12.0256 25.644L11.9873 25.4989L11.9491 25.3539L11.8929 25.3687L11.9311 25.5137ZM11.9873 25.4989L12.0256 25.644L12.0818 25.6291L12.0436 25.4841L12.0054 25.339L11.9491 25.3539L11.9873 25.4989ZM12.0436 25.4841L12.0818 25.6291C12.0837 25.6286 12.0844 25.6287 12.0848 25.6288C12.0853 25.6288 12.0878 25.6291 12.0928 25.6314L12.1561 25.4954L12.2193 25.3594C12.1524 25.3283 12.0791 25.3196 12.0054 25.339L12.0436 25.4841ZM12.1561 25.4954L12.0928 25.6314L12.1491 25.6576L12.2123 25.5216L12.2756 25.3856L12.2193 25.3594L12.1561 25.4954ZM12.2123 25.5216L12.1491 25.6576L12.2053 25.6838L12.2686 25.5477L12.3318 25.4117L12.2756 25.3856L12.2123 25.5216ZM12.2686 25.5477L12.2053 25.6838C12.2887 25.7225 12.3797 25.7174 12.4581 25.6656L12.3754 25.5405L12.2927 25.4154C12.2946 25.4141 12.3019 25.4101 12.3132 25.4094C12.3244 25.4086 12.3313 25.4115 12.3318 25.4117L12.2686 25.5477ZM12.3754 25.5405L12.4581 25.6656L12.5087 25.6322L12.426 25.5071L12.3432 25.3819L12.2927 25.4154L12.3754 25.5405ZM12.426 25.5071L12.5087 25.6322L12.5592 25.5987L12.4765 25.4736L12.3938 25.3485L12.3432 25.3819L12.426 25.5071ZM12.4765 25.4736L12.5592 25.5987C12.6277 25.5535 12.6736 25.4843 12.6818 25.398L12.5324 25.3838L12.3831 25.3696C12.3834 25.367 12.3846 25.3613 12.3884 25.3552C12.3921 25.3493 12.3953 25.3475 12.3938 25.3485L12.4765 25.4736ZM12.5324 25.3838L12.6818 25.398L12.6871 25.3416L12.5378 25.3274L12.3885 25.3132L12.3831 25.3696L12.5324 25.3838ZM12.5378 25.3274L12.6871 25.3416L12.6925 25.2852L12.5431 25.271L12.3938 25.2569L12.3885 25.3132L12.5378 25.3274ZM12.5431 25.271L12.6925 25.2852C12.6942 25.2672 12.6993 25.2495 12.7085 25.2314L12.5751 25.1629L12.4417 25.0943C12.4155 25.1453 12.3992 25.1998 12.3938 25.2569L12.5431 25.271ZM12.5751 25.1629L12.7085 25.2314L12.7352 25.1796L12.6018 25.111L12.4683 25.0425L12.4417 25.0943L12.5751 25.1629ZM12.6018 25.111L12.7352 25.1796L12.7618 25.1278L12.6284 25.0592L12.495 24.9907L12.4683 25.0425L12.6018 25.111ZM12.6284 25.0592L12.7618 25.1278C12.7945 25.0642 12.8049 24.9951 12.7942 24.9253L12.6459 24.9479L12.4976 24.9705C12.4991 24.9801 12.4978 24.9852 12.495 24.9907L12.6284 25.0592ZM12.6459 24.9479L12.7942 24.9253L12.7852 24.8659L12.6369 24.8885L12.4886 24.911L12.4976 24.9705L12.6459 24.9479ZM12.6369 24.8885L12.7852 24.8659L12.7761 24.8064L12.6278 24.829L12.4795 24.8516L12.4886 24.911L12.6369 24.8885ZM12.6278 24.829L12.7761 24.8064C12.7724 24.7822 12.7729 24.7609 12.7765 24.7416L12.629 24.7142L12.4816 24.6867C12.4714 24.7412 12.4711 24.7965 12.4795 24.8516L12.6278 24.829ZM12.629 24.7142L12.7765 24.7416L12.7868 24.6863L12.6393 24.6588L12.4919 24.6314L12.4816 24.6867L12.629 24.7142ZM12.6393 24.6588L12.7868 24.6863L12.7971 24.631L12.6496 24.6035L12.5022 24.5761L12.4919 24.6314L12.6393 24.6588ZM12.6496 24.6035L12.7971 24.631C12.8038 24.5951 12.8108 24.5593 12.8182 24.5237L12.6714 24.4931L12.5245 24.4626C12.5167 24.5003 12.5092 24.5382 12.5022 24.5761L12.6496 24.6035ZM12.6714 24.4931L12.8182 24.5237L12.8297 24.4686L12.6828 24.4381L12.536 24.4075L12.5245 24.4626L12.6714 24.4931ZM12.6828 24.4381L12.8297 24.4686L12.8411 24.4135L12.6943 24.383L12.5474 24.3524L12.536 24.4075L12.6828 24.4381ZM12.6943 24.383L12.8411 24.4135C12.8495 24.3733 12.8564 24.3328 12.8619 24.292L12.7133 24.272L12.5646 24.252C12.5601 24.2858 12.5543 24.3192 12.5474 24.3524L12.6943 24.383ZM12.7133 24.272L12.8619 24.292L12.8694 24.2361L12.7208 24.2161L12.5721 24.1961L12.5646 24.252L12.7133 24.272ZM12.7208 24.2161L12.8694 24.2361L12.877 24.1801L12.7283 24.1601L12.5796 24.1402L12.5721 24.1961L12.7208 24.2161ZM12.7283 24.1601L12.877 24.1801C12.8806 24.1528 12.8861 24.1336 12.8916 24.1207L12.7533 24.0626L12.615 24.0046C12.5971 24.0471 12.586 24.0929 12.5796 24.1402L12.7283 24.1601ZM12.7533 24.0626L12.8916 24.1207L12.909 24.079L12.7707 24.021L12.6324 23.963L12.615 24.0046L12.7533 24.0626ZM12.7707 24.021L12.909 24.079L12.9265 24.0374L12.7882 23.9794L12.6499 23.9214L12.6324 23.963L12.7707 24.021ZM12.7882 23.9794L12.9265 24.0374C12.9318 24.0248 12.9341 24.0204 12.9339 24.0209C12.9336 24.0213 12.9327 24.0229 12.9313 24.0252C12.93 24.0272 12.927 24.0317 12.9224 24.0372C12.9187 24.0416 12.9085 24.0533 12.8919 24.0644C12.8768 24.0743 12.8351 24.0975 12.779 24.0855L12.8105 23.9388L12.8421 23.7922C12.7852 23.78 12.7425 23.8035 12.7264 23.8141C12.7086 23.8259 12.6973 23.8387 12.6923 23.8447C12.6816 23.8575 12.6745 23.87 12.6712 23.876C12.6635 23.89 12.6562 23.9063 12.6499 23.9214L12.7882 23.9794ZM12.8105 23.9388L12.779 24.0855L12.7839 24.0865L12.8155 23.9399L12.847 23.7932L12.8421 23.7922L12.8105 23.9388ZM12.8155 23.9399L12.7839 24.0865L12.7888 24.0876L12.8204 23.9409L12.8519 23.7943L12.847 23.7932L12.8155 23.9399ZM12.8204 23.9409L12.7888 24.0876C12.7625 24.082 12.7442 24.0706 12.7354 24.0644C12.7256 24.0576 12.7188 24.0511 12.7149 24.0472C12.7074 24.0395 12.7028 24.033 12.7014 24.0311C12.6982 24.0266 12.6971 24.0242 12.6986 24.027C12.7011 24.0315 12.7059 24.0411 12.7137 24.0577L12.8496 23.9943L12.9856 23.9309C12.9771 23.9126 12.9689 23.8959 12.9616 23.8827C12.9582 23.8765 12.9531 23.8674 12.9466 23.8583C12.9436 23.854 12.9376 23.8457 12.9288 23.8368C12.9257 23.8337 12.8986 23.8043 12.8519 23.7943L12.8204 23.9409ZM12.8496 23.9943L12.7137 24.0577L12.738 24.11L12.874 24.0466L13.01 23.9832L12.9856 23.9309L12.8496 23.9943Z" fill="var(--stroke-0, white)"/>
</g>
<g id="Ellipse 21">
<ellipse cx="11.9353" cy="11.7671" rx="3.56076" ry="3.84468" fill="var(--fill-0, white)"/>
<path d="M15.4802 12.333L14.9804 12.3191L15.4802 12.333ZM15.4286 12.7058L15.9134 12.8281L15.4286 12.7058ZM15.3357 13.0741L14.8509 12.9519L15.3357 13.0741ZM15.2407 13.4512L15.7256 13.5732L15.2407 13.4512ZM15.1437 13.8371L14.6588 13.7151L15.1437 13.8371ZM15.009 14.2203L14.5535 14.0141L15.009 14.2203ZM14.8367 14.6009L15.2922 14.8071L14.8367 14.6009ZM14.5516 14.8698L14.3679 14.4047L14.5516 14.8698ZM14.3526 14.9483L14.5362 15.4134L14.3526 14.9483ZM14.1536 15.0269L14.3373 15.4919L14.1536 15.0269ZM13.7381 15.0889L13.7 15.5874L13.7381 15.0889ZM13.5215 15.0723L13.4834 15.5709L13.5215 15.0723ZM13.3049 15.0558L13.343 14.5572L13.3049 15.0558ZM12.961 15.2834L12.5176 15.0524L12.961 15.2834ZM12.8338 15.5276L12.3904 15.2966L12.8338 15.5276ZM12.7065 15.7718L13.1499 16.0029L12.7065 15.7718ZM12.3764 15.8495L12.0592 16.2359L12.3764 15.8495ZM12.1736 15.6829L11.8563 16.0694L12.1736 15.6829ZM11.9707 15.5164L12.288 15.1299L11.9707 15.5164ZM11.5564 15.4644L11.3182 15.0247L11.5564 15.4644ZM11.345 15.5789L11.5831 16.0186L11.345 15.5789ZM10.8101 15.5868L11.2561 15.3609L10.8101 15.5868ZM10.586 15.1445L10.14 15.3705L10.586 15.1445ZM10.3278 14.8329L10.5909 14.4077L10.3278 14.8329ZM10.0354 14.6519L9.77222 15.0771L10.0354 14.6519ZM9.79117 14.419L10.2031 14.1356L9.79117 14.419ZM9.59524 14.1342L9.18331 14.4176L9.59524 14.1342ZM9.28459 13.9101L9.46392 13.4434L9.28459 13.9101ZM8.85923 13.7467L8.6799 14.2134L8.85923 13.7467ZM8.68211 13.4529L8.189 13.3702L8.68211 13.4529ZM8.28023 11.9802L7.80451 11.8262L8.28023 11.9802ZM8.36842 11.1946L7.91133 11.3973L8.36842 11.1946ZM8.44135 10.2597L8.13097 9.86771L8.44135 10.2597ZM8.93962 9.84544L8.59806 9.48029L8.93962 9.84544ZM9.07711 9.71683L9.41867 10.082L9.07711 9.71683ZM9.21459 9.58823L8.87303 9.22308L9.21459 9.58823ZM9.45279 9.30824L9.03651 9.03128L9.45279 9.30824ZM9.55351 9.15684L9.13723 8.87989L9.55351 9.15684ZM9.88442 8.71451L9.51788 8.37444L9.88442 8.71451ZM10.1434 8.43542L9.77683 8.09535L10.1434 8.43542ZM10.4194 8.12378L10.0387 7.79962L10.4194 8.12378ZM10.5659 7.95169L10.9466 8.27584L10.5659 7.95169ZM10.7125 7.77959L10.3318 7.45543L10.7125 7.77959ZM11.9112 7.92717L12.0168 7.43845L11.9112 7.92717ZM13.4051 8.12223L12.9654 8.36026L13.4051 8.12223ZM14.0714 8.86843L14.2745 8.41153L14.0714 8.86843ZM14.2442 8.94522L14.0411 9.40212L14.2442 8.94522ZM14.5714 9.14444L14.2608 9.53628L14.5714 9.14444ZM14.8803 9.38933L14.5697 9.78116L14.8803 9.38933ZM15.029 9.72328L15.5288 9.7371L15.029 9.72328ZM15.0231 9.93478L15.5229 9.9486L15.0231 9.93478ZM15.0173 10.1463L14.5175 10.1325L15.0173 10.1463ZM15.1239 10.5159L15.5313 10.226L15.1239 10.5159ZM15.349 10.8321L14.9416 11.122L15.349 10.8321ZM15.5848 11.1776L15.1672 11.4525L15.5848 11.1776ZM15.8315 11.5526L16.2492 11.2777L15.8315 11.5526ZM15.8402 11.7468L15.8697 12.2459L15.8402 11.7468ZM15.7255 11.7536L15.696 11.2545L15.7255 11.7536ZM15.4908 11.9558L15.9906 11.9697L15.4908 11.9558ZM15.4855 12.1444L14.9857 12.1305L14.9804 12.3191L15.4802 12.333L15.98 12.347L15.9853 12.1583L15.4855 12.1444ZM15.4802 12.333L14.9804 12.3191C14.978 12.4081 14.9658 12.496 14.9437 12.5836L15.4286 12.7058L15.9134 12.8281C15.9532 12.6701 15.9755 12.5095 15.98 12.347L15.4802 12.333ZM15.4286 12.7058L14.9437 12.5836L14.8973 12.7678L15.3821 12.89L15.867 13.0122L15.9134 12.8281L15.4286 12.7058ZM15.3821 12.89L14.8973 12.7678L14.8509 12.9519L15.3357 13.0741L15.8205 13.1964L15.867 13.0122L15.3821 12.89ZM15.3357 13.0741L14.8509 12.9519C14.8199 13.0748 14.7882 13.2006 14.7558 13.3293L15.2407 13.4512L15.7256 13.5732C15.758 13.4447 15.7896 13.319 15.8205 13.1964L15.3357 13.0741ZM15.2407 13.4512L14.7558 13.3293L14.7073 13.5222L15.1922 13.6442L15.6771 13.7661L15.7256 13.5732L15.2407 13.4512ZM15.1922 13.6442L14.7073 13.5222L14.6588 13.7151L15.1437 13.8371L15.6286 13.959L15.6771 13.7661L15.1922 13.6442ZM15.1437 13.8371L14.6588 13.7151C14.6341 13.8134 14.5993 13.913 14.5535 14.0141L15.009 14.2203L15.4645 14.4265C15.5336 14.2739 15.5886 14.118 15.6286 13.959L15.1437 13.8371ZM15.009 14.2203L14.5535 14.0141L14.4674 14.2044L14.9228 14.4106L15.3783 14.6168L15.4645 14.4265L15.009 14.2203ZM14.9228 14.4106L14.4674 14.2044L14.3812 14.3947L14.8367 14.6009L15.2922 14.8071L15.3783 14.6168L14.9228 14.4106ZM14.8367 14.6009L14.3812 14.3947C14.3791 14.3992 14.3778 14.4011 14.3778 14.4012C14.3778 14.4012 14.3783 14.4004 14.3793 14.3995C14.3803 14.3986 14.3805 14.3985 14.3794 14.3992C14.3782 14.4 14.3747 14.402 14.3679 14.4047L14.5516 14.8698L14.7352 15.3348C14.9854 15.236 15.1797 15.0555 15.2922 14.8071L14.8367 14.6009ZM14.5516 14.8698L14.3679 14.4047L14.169 14.4832L14.3526 14.9483L14.5362 15.4134L14.7352 15.3348L14.5516 14.8698ZM14.3526 14.9483L14.169 14.4832L13.97 14.5618L14.1536 15.0269L14.3373 15.4919L14.5362 15.4134L14.3526 14.9483ZM14.1536 15.0269L13.97 14.5618C13.9089 14.5859 13.8463 14.5957 13.7762 14.5903L13.7381 15.0889L13.7 15.5874C13.9187 15.6041 14.1331 15.5725 14.3373 15.4919L14.1536 15.0269ZM13.7381 15.0889L13.7762 14.5903L13.5596 14.5738L13.5215 15.0723L13.4834 15.5709L13.7 15.5874L13.7381 15.0889ZM13.5215 15.0723L13.5596 14.5738L13.343 14.5572L13.3049 15.0558L13.2668 15.5543L13.4834 15.5709L13.5215 15.0723ZM13.3049 15.0558L13.343 14.5572C13.1663 14.5437 12.9898 14.5847 12.8346 14.6875C12.6869 14.7853 12.5865 14.9201 12.5176 15.0524L12.961 15.2834L13.4044 15.5145C13.4204 15.4839 13.4197 15.4994 13.3866 15.5213C13.3694 15.5327 13.3479 15.5427 13.3236 15.5488C13.2997 15.5548 13.2797 15.5553 13.2668 15.5543L13.3049 15.0558ZM12.961 15.2834L12.5176 15.0524L12.3904 15.2966L12.8338 15.5276L13.2772 15.7587L13.4044 15.5145L12.961 15.2834ZM12.8338 15.5276L12.3904 15.2966L12.2631 15.5408L12.7065 15.7718L13.1499 16.0029L13.2772 15.7587L12.8338 15.5276ZM12.7065 15.7718L12.2631 15.5408C12.2469 15.572 12.2911 15.463 12.4459 15.4266C12.6109 15.3878 12.7082 15.4749 12.6937 15.463L12.3764 15.8495L12.0592 16.2359C12.1799 16.3351 12.3998 16.4647 12.6749 16.4001C12.9397 16.3378 13.0814 16.1345 13.1499 16.0029L12.7065 15.7718ZM12.3764 15.8495L12.6937 15.463L12.4908 15.2965L12.1736 15.6829L11.8563 16.0694L12.0592 16.2359L12.3764 15.8495ZM12.1736 15.6829L12.4908 15.2965L12.288 15.1299L11.9707 15.5164L11.6534 15.9028L11.8563 16.0694L12.1736 15.6829ZM11.9707 15.5164L12.288 15.1299C12.1661 15.0298 12.012 14.9471 11.828 14.924C11.6402 14.9004 11.4661 14.9447 11.3182 15.0247L11.5564 15.4644L11.7946 15.904C11.7927 15.905 11.7826 15.9101 11.7651 15.9139C11.7468 15.9177 11.7255 15.919 11.7034 15.9162C11.6575 15.9104 11.6401 15.8919 11.6534 15.9028L11.9707 15.5164ZM11.5564 15.4644L11.3182 15.0247L11.1068 15.1393L11.345 15.5789L11.5831 16.0186L11.7946 15.904L11.5564 15.4644ZM11.345 15.5789L11.1068 15.1393L10.8954 15.2538L11.1335 15.6935L11.3717 16.1331L11.5831 16.0186L11.345 15.5789ZM11.1335 15.6935L10.8954 15.2538C10.8965 15.2532 10.9165 15.2424 10.9531 15.2364C10.9926 15.2299 11.0458 15.2302 11.1035 15.2492C11.2227 15.2885 11.2609 15.3704 11.2561 15.3609L10.8101 15.5868L10.364 15.8128C10.4339 15.9508 10.5634 16.1241 10.7904 16.199C11.0215 16.2751 11.2311 16.2093 11.3717 16.1331L11.1335 15.6935ZM10.8101 15.5868L11.2561 15.3609L11.1441 15.1397L10.698 15.3657L10.252 15.5916L10.364 15.8128L10.8101 15.5868ZM10.698 15.3657L11.1441 15.1397L11.0321 14.9186L10.586 15.1445L10.14 15.3705L10.252 15.5916L10.698 15.3657ZM10.586 15.1445L11.0321 14.9186C10.9332 14.7234 10.7937 14.5332 10.5909 14.4077L10.3278 14.8329L10.0646 15.258C10.0568 15.2532 10.0895 15.2708 10.14 15.3705L10.586 15.1445ZM10.3278 14.8329L10.5909 14.4077L10.4447 14.3172L10.1816 14.7424L9.91843 15.1675L10.0646 15.258L10.3278 14.8329ZM10.1816 14.7424L10.4447 14.3172L10.2985 14.2267L10.0354 14.6519L9.77222 15.0771L9.91843 15.1675L10.1816 14.7424ZM10.0354 14.6519L10.2985 14.2267C10.2602 14.203 10.2294 14.1738 10.2031 14.1356L9.79117 14.419L9.37925 14.7024C9.4836 14.8541 9.61555 14.9801 9.77222 15.0771L10.0354 14.6519ZM9.79117 14.419L10.2031 14.1356L10.1051 13.9932L9.69321 14.2766L9.28128 14.56L9.37925 14.7024L9.79117 14.419ZM9.69321 14.2766L10.1051 13.9932L10.0072 13.8508L9.59524 14.1342L9.18331 14.4176L9.28128 14.56L9.69321 14.2766ZM9.59524 14.1342L10.0072 13.8508C9.86895 13.6499 9.67037 13.5227 9.46392 13.4434L9.28459 13.9101L9.10526 14.3768C9.18238 14.4065 9.19091 14.4287 9.18331 14.4176L9.59524 14.1342ZM9.28459 13.9101L9.46392 13.4434L9.25124 13.3616L9.07191 13.8284L8.89258 14.2951L9.10526 14.3768L9.28459 13.9101ZM9.07191 13.8284L9.25124 13.3616L9.03856 13.2799L8.85923 13.7467L8.6799 14.2134L8.89258 14.2951L9.07191 13.8284ZM8.85923 13.7467L9.03856 13.2799C9.03873 13.28 9.0419 13.2812 9.04735 13.2842C9.05283 13.2871 9.06093 13.292 9.07064 13.2993C9.09084 13.3147 9.11563 13.3391 9.13679 13.3742C9.18333 13.4514 9.17795 13.5194 9.17522 13.5357L8.68211 13.4529L8.189 13.3702C8.16256 13.5278 8.17485 13.7155 8.28043 13.8906C8.38376 14.0619 8.53924 14.1593 8.6799 14.2134L8.85923 13.7467ZM8.68211 13.4529L9.17522 13.5357L9.21079 13.3236L8.71768 13.2409L8.22457 13.1582L8.189 13.3702L8.68211 13.4529ZM8.71768 13.2409L9.21079 13.3236L9.24635 13.1116L8.75324 13.0289L8.26013 12.9462L8.22457 13.1582L8.71768 13.2409ZM8.75324 13.0289L9.24635 13.1116C9.29505 12.8213 9.21569 12.5451 9.02151 12.3246L8.64632 12.6551L8.27112 12.9856C8.27349 12.9883 8.27268 12.9879 8.27056 12.9841C8.26836 12.9802 8.26568 12.9743 8.26358 12.967C8.26147 12.9596 8.26061 12.9531 8.2604 12.9485C8.2602 12.944 8.26068 12.9429 8.26013 12.9462L8.75324 13.0289ZM8.64632 12.6551L9.02151 12.3246L8.87902 12.1629L8.50383 12.4934L8.12863 12.8239L8.27112 12.9856L8.64632 12.6551ZM8.50383 12.4934L8.87902 12.1629L8.73653 12.0011L8.36134 12.3316L7.98615 12.6621L8.12863 12.8239L8.50383 12.4934ZM8.36134 12.3316L8.73653 12.0011C8.73321 11.9974 8.74855 12.0138 8.75701 12.0504C8.76595 12.0892 8.76032 12.1206 8.75595 12.1341L8.28023 11.9802L7.80451 11.8262C7.70413 12.1365 7.78597 12.4349 7.98615 12.6621L8.36134 12.3316ZM8.28023 11.9802L8.75595 12.1341L8.81733 11.9444L8.34161 11.7904L7.86589 11.6365L7.80451 11.8262L8.28023 11.9802ZM8.34161 11.7904L8.81733 11.9444L8.87871 11.7546L8.40299 11.6007L7.92727 11.4468L7.86589 11.6365L8.34161 11.7904ZM8.40299 11.6007L8.87871 11.7546C8.9644 11.4898 8.92949 11.2265 8.8255 10.9919L8.36842 11.1946L7.91133 11.3973C7.92437 11.4267 7.92648 11.4425 7.92684 11.4467C7.92702 11.4489 7.92687 11.4493 7.92697 11.4484C7.92701 11.4481 7.92707 11.4477 7.92716 11.4473C7.92724 11.4469 7.9273 11.4467 7.92727 11.4468L8.40299 11.6007ZM8.36842 11.1946L8.8255 10.9919L8.72955 10.7755L8.27246 10.9782L7.81538 11.1809L7.91133 11.3973L8.36842 11.1946ZM8.27246 10.9782L8.72955 10.7755L8.63359 10.5591L8.17651 10.7618L7.71943 10.9645L7.81538 11.1809L8.27246 10.9782ZM8.17651 10.7618L8.63359 10.5591C8.63319 10.5582 8.65352 10.6052 8.63638 10.6782C8.61881 10.7529 8.57727 10.7898 8.57133 10.7945L8.26095 10.4025L7.95057 10.0105C7.82437 10.1105 7.70862 10.2549 7.66291 10.4494C7.61762 10.6421 7.65586 10.8211 7.71943 10.9645L8.17651 10.7618ZM8.26095 10.4025L8.57133 10.7945L8.75173 10.6517L8.44135 10.2597L8.13097 9.86771L7.95057 10.0105L8.26095 10.4025ZM8.44135 10.2597L8.75173 10.6517L8.93212 10.5089L8.62174 10.1169L8.31136 9.72488L8.13097 9.86771L8.44135 10.2597ZM8.62174 10.1169L8.93212 10.5089C9.06088 10.4069 9.1776 10.3075 9.28119 10.2106L8.93962 9.84544L8.59806 9.48029C8.51833 9.55487 8.42313 9.63638 8.31136 9.72488L8.62174 10.1169ZM8.93962 9.84544L9.28119 10.2106L9.41867 10.082L9.07711 9.71683L8.73554 9.35168L8.59806 9.48029L8.93962 9.84544ZM9.07711 9.71683L9.41867 10.082L9.55615 9.95338L9.21459 9.58823L8.87303 9.22308L8.73554 9.35168L9.07711 9.71683ZM9.21459 9.58823L9.55615 9.95338C9.67505 9.84217 9.77978 9.71943 9.86908 9.58519L9.45279 9.30824L9.03651 9.03128C8.99152 9.0989 8.93745 9.16282 8.87303 9.22308L9.21459 9.58823ZM9.45279 9.30824L9.86908 9.58519L9.9698 9.4338L9.55351 9.15684L9.13723 8.87989L9.03651 9.03128L9.45279 9.30824ZM9.55351 9.15684L9.9698 9.4338L10.0705 9.28241L9.65423 9.00545L9.23795 8.7285L9.13723 8.87989L9.55351 9.15684ZM9.65423 9.00545L10.0705 9.28241C10.1221 9.20484 10.1821 9.12886 10.251 9.05459L9.88442 8.71451L9.51788 8.37444C9.41417 8.48623 9.32063 8.60421 9.23795 8.7285L9.65423 9.00545ZM9.88442 8.71451L10.251 9.05459L10.3804 8.91504L10.0139 8.57497L9.64736 8.2349L9.51788 8.37444L9.88442 8.71451ZM10.0139 8.57497L10.3804 8.91504L10.5099 8.77549L10.1434 8.43542L9.77683 8.09535L9.64736 8.2349L10.0139 8.57497ZM10.1434 8.43542L10.5099 8.77549C10.6018 8.6764 10.6986 8.5671 10.8001 8.44794L10.4194 8.12378L10.0387 7.79962C9.94478 7.90991 9.85752 8.00837 9.77683 8.09535L10.1434 8.43542ZM10.4194 8.12378L10.8001 8.44794L10.9466 8.27584L10.5659 7.95169L10.1852 7.62753L10.0387 7.79962L10.4194 8.12378ZM10.5659 7.95169L10.9466 8.27584L11.0931 8.10375L10.7125 7.77959L10.3318 7.45543L10.1852 7.62753L10.5659 7.95169ZM10.7125 7.77959L11.0931 8.10375C11.0905 8.10685 11.0644 8.13462 11.0118 8.14938C10.9596 8.16404 10.9241 8.15385 10.9226 8.15334L11.076 7.67747L11.2294 7.20159C11.0832 7.15444 10.9147 7.13795 10.7414 7.18665C10.5677 7.23545 10.4321 7.33761 10.3318 7.45543L10.7125 7.77959ZM11.076 7.67747L10.9226 8.15334L11.1395 8.22331L11.293 7.74744L11.4464 7.27156L11.2294 7.20159L11.076 7.67747ZM11.293 7.74744L11.1395 8.22331L11.3565 8.29328L11.51 7.8174L11.6634 7.34153L11.4464 7.27156L11.293 7.74744ZM11.51 7.8174L11.3565 8.29328C11.5138 8.34399 11.6638 8.38524 11.8057 8.4159L11.9112 7.92717L12.0168 7.43845C11.9131 7.41603 11.7955 7.38411 11.6634 7.34153L11.51 7.8174ZM11.9112 7.92717L11.8057 8.4159L11.9899 8.4557L12.0955 7.96698L12.2011 7.47825L12.0168 7.43845L11.9112 7.92717ZM12.0955 7.96698L11.9899 8.4557L12.1742 8.4955L12.2798 8.00678L12.3853 7.51805L12.2011 7.47825L12.0955 7.96698ZM12.2798 8.00678L12.1742 8.4955C12.362 8.53607 12.5536 8.5388 12.7448 8.51085L12.6725 8.0161L12.6002 7.52136C12.5135 7.53404 12.4432 7.53056 12.3853 7.51805L12.2798 8.00678ZM12.6725 8.0161L12.7448 8.51085L12.9534 8.48037L12.8811 7.98563L12.8088 7.49088L12.6002 7.52136L12.6725 8.0161ZM12.8811 7.98563L12.9534 8.48037L13.1619 8.4499L13.0896 7.95515L13.0173 7.46041L12.8088 7.49088L12.8811 7.98563ZM13.0896 7.95515L13.1619 8.4499C13.1459 8.45224 13.0961 8.45395 13.0387 8.42354C12.984 8.39459 12.9645 8.35874 12.9654 8.36026L13.4051 8.12223L13.8448 7.88419C13.7743 7.75401 13.6666 7.62447 13.5067 7.53983C13.3442 7.45373 13.1723 7.43775 13.0173 7.46041L13.0896 7.95515ZM13.4051 8.12223L12.9654 8.36026L13.0723 8.5578L13.512 8.31977L13.9517 8.08174L13.8448 7.88419L13.4051 8.12223ZM13.512 8.31977L13.0723 8.5578L13.1792 8.75535L13.6189 8.51732L14.0586 8.27928L13.9517 8.08174L13.512 8.31977ZM13.6189 8.51732L13.1792 8.75535C13.2928 8.96522 13.4615 9.14451 13.6956 9.24855L13.8986 8.79165L14.1017 8.33474C14.1007 8.33429 14.098 8.33314 14.0924 8.32771C14.0862 8.32163 14.0739 8.30755 14.0586 8.27928L13.6189 8.51732ZM13.8986 8.79165L13.6956 9.24855L13.8683 9.32534L14.0714 8.86843L14.2745 8.41153L14.1017 8.33474L13.8986 8.79165ZM14.0714 8.86843L13.8683 9.32534L14.0411 9.40212L14.2442 8.94522L14.4472 8.48831L14.2745 8.41153L14.0714 8.86843ZM14.2442 8.94522L14.0411 9.40212C14.1162 9.43551 14.1894 9.47966 14.2608 9.53628L14.5714 9.14444L14.882 8.75261C14.7475 8.64597 14.6025 8.5573 14.4472 8.48831L14.2442 8.94522ZM14.5714 9.14444L14.2608 9.53628L14.4153 9.65872L14.7259 9.26689L15.0365 8.87506L14.882 8.75261L14.5714 9.14444ZM14.7259 9.26689L14.4153 9.65872L14.5697 9.78116L14.8803 9.38933L15.1909 8.9975L15.0365 8.87506L14.7259 9.26689ZM14.8803 9.38933L14.5697 9.78116C14.5631 9.77589 14.5485 9.76111 14.5379 9.73734C14.5279 9.71477 14.5294 9.70189 14.5291 9.70946L15.029 9.72328L15.5288 9.7371C15.5366 9.45206 15.4275 9.18505 15.1909 8.9975L14.8803 9.38933ZM15.029 9.72328L14.5291 9.70946L14.5233 9.92096L15.0231 9.93478L15.5229 9.9486L15.5288 9.7371L15.029 9.72328ZM15.0231 9.93478L14.5233 9.92096L14.5175 10.1325L15.0173 10.1463L15.5171 10.1601L15.5229 9.9486L15.0231 9.93478ZM15.0173 10.1463L14.5175 10.1325C14.5108 10.3717 14.5728 10.6038 14.7166 10.8058L15.1239 10.5159L15.5313 10.226C15.5251 10.2172 15.5159 10.2029 15.5171 10.1601L15.0173 10.1463ZM15.1239 10.5159L14.7166 10.8058L14.8291 10.9639L15.2365 10.674L15.6438 10.3841L15.5313 10.226L15.1239 10.5159ZM15.2365 10.674L14.8291 10.9639L14.9416 11.122L15.349 10.8321L15.7563 10.5422L15.6438 10.3841L15.2365 10.674ZM15.349 10.8321L14.9416 11.122C15.0126 11.2217 15.0878 11.3318 15.1672 11.4525L15.5848 11.1776L16.0025 10.9028C15.9175 10.7735 15.8354 10.6532 15.7563 10.5422L15.349 10.8321ZM15.5848 11.1776L15.1672 11.4525L15.2905 11.6399L15.7082 11.3651L16.1259 11.0903L16.0025 10.9028L15.5848 11.1776ZM15.7082 11.3651L15.2905 11.6399L15.4139 11.8274L15.8315 11.5526L16.2492 11.2777L16.1259 11.0903L15.7082 11.3651ZM15.8315 11.5526L15.4139 11.8274C15.4255 11.8451 15.426 11.8484 15.4221 11.8397C15.4207 11.8364 15.3991 11.7904 15.3959 11.7171C15.3921 11.6319 15.4147 11.4859 15.54 11.368C15.6505 11.264 15.7707 11.25 15.8107 11.2477L15.8402 11.7468L15.8697 12.2459C15.9479 12.2413 16.0964 12.2176 16.2253 12.0962C16.369 11.9611 16.4001 11.7902 16.3949 11.6727C16.3902 11.5669 16.3573 11.481 16.3345 11.4304C16.3094 11.3742 16.2787 11.3225 16.2492 11.2777L15.8315 11.5526ZM15.8402 11.7468L15.8107 11.2477L15.696 11.2545L15.7255 11.7536L15.7549 12.2527L15.8697 12.2459L15.8402 11.7468ZM15.7255 11.7536L15.696 11.2545L15.5813 11.2612L15.6107 11.7604L15.6402 12.2595L15.7549 12.2527L15.7255 11.7536ZM15.6107 11.7604L15.5813 11.2612C15.3804 11.2731 15.203 11.3788 15.0973 11.551C15.0108 11.6919 14.9938 11.8418 14.991 11.9418L15.4908 11.9558L15.9906 11.9697C15.9913 11.944 15.996 11.9985 15.9495 12.0742C15.9227 12.1178 15.8798 12.1666 15.8169 12.2042C15.754 12.2418 15.6909 12.2565 15.6402 12.2595L15.6107 11.7604ZM15.4908 11.9558L14.991 11.9418L14.9857 12.1305L15.4855 12.1444L15.9853 12.1583L15.9906 11.9697L15.4908 11.9558Z" fill="var(--stroke-0, white)"/>
</g>
</g>
</svg>
