<svg xmlns="http://www.w3.org/2000/svg" fill="none" overflow="visible" preserveAspectRatio="none" style="display:block" viewBox="0 0 28.134 40.751"><path fill="var(--fill-0, #fffeef)" d="M13.227 1.003c.474.009.73.022 1.209.022 2.883 0 6.343 1.027 8.957 4.413 1.714 2.221 2.492 4.832 2.915 6.946.425 2.13.588 4.327.723 5.803.18 1.99.158 5.015-.354 8.161-.498 3.065-1.556 6.854-3.874 9.865-.923 1.2-2.397 2.274-4.054 2.905-1.796.684-4.24 1.004-6.82-.035-.995-.4-1.689-.654-2.248-.86-.456-.168-1.18-.427-1.834-.775-1.693-.904-2.701-2.351-3.272-3.053-1.446-1.78-2.478-4.549-3.042-7.513-.597-3.143-.777-7.05-.096-11.462a5 5 0 0 1 .24-.936q.008-.403.082-.814c.377-2.034 1.103-4.356 2.16-6.637.577-1.247 1.31-2.484 2.515-3.442.549-.436 1.075-.708 1.204-.778l.009-.004c.99-.733 2.204-1.473 3.873-1.718a10.4 10.4 0 0 1 1.707-.088"/><path fill="var(--stroke-0, #f4c280)" d="m13.227 1.003.017-1zm1.209.022v-1zm8.957 4.413.791-.611zm2.915 6.946.98-.196zm.723 5.803-.996.09zm-.354 8.161.987.16zm-3.874 9.865.792.61zm-4.054 2.905.356.934zm-6.82-.035.374-.927zm-2.248-.86-.346.938zm-1.834-.775-.47.882zm-3.272-3.053.776-.63zm-3.042-7.513-.982.187zM1.437 15.42l-.989-.152zm.24-.936.94.339.056-.155.004-.163zm.082-.814-.983-.182zm2.16-6.637-.908-.42zM6.433 3.59l-.622-.783zm1.204-.778-.466-.885-.01.005zm.009-.004.476.88.062-.034.057-.042zm3.873-1.718L11.374.1zm1.707-.088-.018 1c.443.008.738.022 1.227.022v-2c-.471 0-.687-.013-1.192-.021zm1.209.022v1c2.642 0 5.779.932 8.165 4.024l.792-.611.791-.611C21.343 1.146 17.56.024 14.435.024zm8.957 4.413-.792.611c1.578 2.044 2.316 4.48 2.726 6.531l.98-.196.982-.196c-.436-2.177-1.253-4.962-3.105-7.361zm2.915 6.946-.98.196c.412 2.064.57 4.198.707 5.698l.995-.091.996-.09c-.132-1.453-.3-3.715-.738-5.909zm.723 5.803-.996.09c.173 1.909.153 4.85-.345 7.91l.987.161.987.16c.525-3.23.551-6.34.362-8.412zm-.354 8.161-.987-.16c-.487 2.996-1.508 6.595-3.68 9.415l.793.61.792.61c2.465-3.201 3.56-7.18 4.069-10.314zm-3.874 9.865-.792-.61c-.798 1.037-2.113 2.007-3.618 2.58l.356.935.356.934c1.81-.689 3.442-1.866 4.49-3.228zm-4.054 2.905-.356-.935c-1.618.616-3.795.897-6.09-.027l-.373.928-.373.927c2.863 1.153 5.573.793 7.548.041zm-6.82-.035.374-.927c-1.011-.407-1.717-.665-2.276-.871l-.346.938-.346.938c.559.206 1.24.455 2.222.85zm-2.248-.86.346-.938c-.473-.174-1.128-.41-1.71-.72l-.47.883-.47.882c.725.387 1.52.67 1.958.831zm-1.834-.775.47-.882c-1.473-.787-2.344-2.037-2.966-2.802l-.776.631-.776.63c.52.64 1.666 2.285 3.577 3.305zm-3.272-3.053.776-.63c-1.297-1.598-2.286-4.181-2.835-7.07l-.983.187-.982.187c.578 3.04 1.653 5.993 3.248 7.957zm-3.042-7.513.983-.187c-.577-3.032-.754-6.824-.09-11.122l-.99-.153-.988-.152c-.698 4.525-.516 8.546.103 11.801zM1.437 15.42l.988.153a4 4 0 0 1 .193-.75l-.941-.34-.94-.338a6 6 0 0 0-.289 1.123zm.24-.936 1 .02q.005-.327.065-.652l-.983-.182-.983-.182q-.09.496-.099.975zm.082-.814.983.183c.361-1.948 1.06-4.19 2.084-6.4l-.908-.42-.907-.42C1.92 8.966 1.169 11.368.776 13.488zm2.16-6.637.907.42c.55-1.189 1.202-2.262 2.23-3.079l-.622-.783-.622-.783c-1.384 1.1-2.197 2.5-2.801 3.804zM6.433 3.59l.622.783c.472-.375.926-.61 1.057-.681l-.475-.88-.475-.88c-.128.069-.725.378-1.351.875zm1.204-.778.465.885.02-.01-.476-.879-.477-.88a1 1 0 0 1 .093-.043l.005-.002h-.002l-.005.002a1 1 0 0 0-.089.042zm.009-.004.595.804c.93-.689 1.987-1.322 3.423-1.532l-.145-.99-.145-.99C9.472.382 8.102 1.228 7.05 2.007zm3.873-1.718.145.99a9.4 9.4 0 0 1 1.544-.078l.018-1 .017-1a11.4 11.4 0 0 0-1.87.099z"/></svg>