<svg xmlns="http://www.w3.org/2000/svg" fill="none" overflow="visible" preserveAspectRatio="none" style="display:block" viewBox="0 0 80 80"><circle cx="40" cy="40" r="40" fill="url(#a)"/><path fill="var(--fill-0, #fffeef)" d="M27.227 14.004c.474.008.73.021 1.21.021 2.883 0 6.343 1.027 8.956 4.413 1.715 2.221 2.493 4.832 2.915 6.946.426 2.13.589 4.327.723 5.803.181 1.99.158 5.015-.353 8.161-.499 3.065-1.556 6.854-3.874 9.866-.924 1.199-2.397 2.273-4.054 2.904-1.797.684-4.24 1.004-6.82-.034-.996-.401-1.69-.655-2.249-.86-.455-.168-1.18-.427-1.834-.776-1.692-.903-2.7-2.35-3.271-3.053-1.447-1.78-2.478-4.549-3.042-7.513-.598-3.143-.778-7.05-.097-11.461.05-.326.133-.639.24-.937q.008-.404.082-.813c.377-2.034 1.103-4.356 2.16-6.638.577-1.247 1.31-2.484 2.515-3.442.55-.436 1.075-.708 1.204-.778l.01-.004c.989-.733 2.203-1.473 3.872-1.717a10.4 10.4 0 0 1 1.707-.088"/><path fill="var(--stroke-0, #f4c280)" d="m27.227 14.004.018-1zm1.21.021v-1zm8.956 4.413.792-.61zm2.915 6.946.981-.196zm.723 5.803-.996.09zm-.353 8.161.986.16zm-3.874 9.866.792.61zm-4.054 2.904.356.934zm-6.82-.034-.373.927zm-2.249-.86-.345.938zm-1.834-.776-.47.882zm-3.271-3.053.776-.63zm-3.042-7.513-.982.187zm-.097-11.461-.988-.153zm.24-.937.941.339.056-.154.003-.164zm.082-.813-.983-.183zm2.16-6.638-.908-.42zm2.515-3.442-.622-.783zm1.204-.778-.462-.887-.006.004-.007.003zm.01-.004.476.88.062-.034.057-.042zm3.872-1.717-.145-.99zm1.707-.088-.017 1c.443.007.738.021 1.226.021v-2c-.47 0-.686-.012-1.191-.021zm1.21.021v1c2.641 0 5.778.932 8.165 4.024l.791-.61.792-.612c-2.841-3.68-6.623-4.802-9.749-4.802zm8.956 4.413-.791.611c1.577 2.044 2.316 4.48 2.726 6.531l.98-.196.981-.196c-.435-2.177-1.253-4.962-3.104-7.36zm2.915 6.946-.98.196c.412 2.064.57 4.198.707 5.698l.996-.09.996-.092c-.132-1.452-.3-3.714-.738-5.908zm.723 5.803-.996.09c.174 1.909.153 4.85-.344 7.91l.986.161.987.16c.526-3.23.552-6.34.363-8.412zm-.353 8.161-.987-.16c-.488 2.996-1.508 6.595-3.68 9.415l.792.61.793.61c2.465-3.201 3.559-7.18 4.069-10.314zm-3.874 9.866-.793-.61c-.798 1.036-2.113 2.006-3.617 2.58l.356.934.356.934c1.809-.689 3.441-1.866 4.49-3.228zm-4.054 2.904-.356-.935c-1.618.616-3.795.897-6.09-.027l-.374.928-.373.927c2.864 1.153 5.573.794 7.549.041zm-6.82-.034.374-.928c-1.011-.407-1.717-.665-2.277-.871l-.346.938-.345.939c.559.206 1.24.455 2.221.85zm-2.249-.86.346-.94c-.472-.173-1.128-.408-1.709-.718l-.47.882-.471.882c.725.387 1.52.67 1.959.832zm-1.834-.776.471-.882c-1.473-.787-2.345-2.037-2.966-2.802l-.776.631-.776.63c.52.64 1.665 2.285 3.577 3.305zm-3.271-3.053.776-.63c-1.298-1.598-2.286-4.181-2.836-7.07l-.982.188-.982.186c.578 3.04 1.652 5.993 3.248 7.957zm-3.042-7.513.982-.186c-.576-3.033-.754-6.825-.09-11.123l-.989-.152-.988-.153c-.698 4.525-.517 8.547.103 11.801zm-.097-11.461.989.152q.06-.386.192-.75l-.94-.339-.941-.339a6 6 0 0 0-.288 1.123zm.24-.937 1 .02q.007-.327.066-.651l-.983-.182-.984-.183q-.09.496-.098.975zm.082-.813.984.182c.36-1.948 1.06-4.19 2.083-6.4l-.907-.42-.908-.42c-1.09 2.353-1.842 4.755-2.235 6.875zm2.16-6.638.907.42c.55-1.188 1.203-2.262 2.23-3.079l-.622-.782-.622-.783c-1.383 1.099-2.196 2.499-2.8 3.804zm2.515-3.442.622.783c.472-.375.926-.61 1.058-.681l-.476-.88-.475-.88c-.127.07-.725.378-1.35.876zm1.204-.778.462.887-.078.036-.003.002.027-.012.078-.038-.477-.879-.476-.879.043-.022.03-.014.018-.007.005-.003-.001.001-.005.002-.017.007-.028.013-.04.02zm.01-.004.595.804c.929-.689 1.987-1.322 3.422-1.532l-.145-.99-.145-.989c-1.902.279-3.273 1.126-4.323 1.904zm3.872-1.717.145.989a9.4 9.4 0 0 1 1.545-.078l.017-1 .018-1a11.4 11.4 0 0 0-1.87.099z"/><ellipse cx="30.683" cy="31.175" fill="var(--fill-0, #424242)" rx="7.122" ry="11.534"/><path fill="var(--fill-0, white)" d="m26.825 36.942.333 1.55h1.078l-.872.958.333 1.55-.872-.958-.872.957.333-1.55-.872-.957h1.078z"/><path fill="var(--stroke-0, white)" d="m26.874 37.047-.136.063zm.024.052.136-.063zm.027.11-.15.006zm.003.056.15-.006zm.002.057-.15.007zm.02.111.143-.047zm.018.054-.142.047zm.018.053-.142.047zm.025.11-.15.018zm.013.113.15-.019zm.001.114-.149-.014zm-.01.118-.15-.014zm.009.113.144-.04zm.03.108-.144.04zm.033.108-.142.047zm.111.171-.024.148zm.232 0-.067-.134zm.056-.027-.067-.134zm.056-.028.066.135zm.225.045-.06.138zm.113.03.016-.148zm.056.007-.017.149zm.056.006-.016.15zm.096.002.016.15zm.04-.004.016.149zm.041-.005-.016-.149zm.004.04-.115-.096zm-.036.043.116.096zm-.104.133-.123-.087zm-.033.046.122.087zm-.033.046.122.087zm-.09.07-.057-.139zm-.116.047.056.139zm-.068.09-.149-.024zm-.022.133.148.023zm-.104.133.087.122zm-.047.033-.087-.122zm-.05.072-.15-.011zm-.002.039.15.01zm-.003.038-.15-.011zm.006.094.148-.024zm.018.111-.148.024zm.013.112.15-.01zm.004.057-.15.01zm.004.057.15-.01zm-.015.118.143.044zm-.038.123-.143-.044zm.011.113.13-.077zm.061.102-.129.077zm.054.103-.136.063zm.049.105.136-.063zm.04.106-.143.044zm.033.108.144-.043zm-.004.078.113.098zm-.02.023-.113-.098zm-.02.023-.114-.098zm-.045-.03.136-.063zm-.05-.107-.136.063zm-.085-.075.05-.141zm-.12-.042-.05.142zm-.08-.08-.143.048zm-.04-.116.143-.047zm-.058-.099-.107.106zm-.04-.04.107-.105zm-.04-.04-.106.105zm-.097-.063-.056.139zm-.057-.024-.057.14zm-.058-.023.056-.14zm-.082-.026-.014.15zm-.048-.004.014-.15zm-.07.032.09.12zm-.178.142-.105-.106zm-.04.04.106.106zm-.04.04.106.106zm-.072.086.122.086zm-.066.092-.122-.086zm-.084.228-.144-.041zm-.08.08.044.143zm-.125.037-.044-.143zm-.041-.012.123.085zm.02-.03.124.084zm.022-.032.124.085zm.03-.086-.147-.025zm.035-.223.149.017zm.006-.056-.149-.017zm.007-.056.149.016zm.064-.217-.14-.051zm.006-.114.146-.033zm-.028-.12-.146.033zm.028-.11-.114-.097zm.082-.097.115.097zm.042-.106-.15-.002zm.001-.057.15.001zm0-.058-.15-.002zm-.02-.109.138-.057zm-.043-.103-.139.058zm-.058-.094-.113.099zm-.037-.042-.113.099zm-.038-.043.113-.098zm-.088-.07-.074.13zm-.104-.059-.073.131zm-.091-.069-.107.106zm-.08-.08-.106.106zm-.069-.089-.128.077zm-.059-.098-.128.077zm-.064-.097-.12.089zm-.07-.095.122-.088zm.022-.045-.007.15zm.113.005.006-.15zm.112.018.04-.144zm.45.015-.063.136zm.056.026-.063.136zm.057.026.063-.136zm.106-.007.083.125zm.102-.067-.083-.125zm.055-.09.15.014zm.011-.113.15.014zm.032-.108-.133-.069zm.027-.052.133.069zm.027-.397.147.028zm.02-.11-.147-.028zm.022-.11-.146-.031zm.023-.11-.147-.031zm.02-.112-.15-.02zm.014-.112.149.02zm.025-.097-.138-.058zm.018-.042.138.058zm.017-.041.139.058zm.023-.041-.032.147zm.01.002.03-.147zm.029.053-.136.064zm.024.053-.136.063.024.052.136-.063.136-.063-.024-.053zm.024.052-.136.063a.14.14 0 0 1 .013.053l.15-.007.15-.006a.4.4 0 0 0-.04-.166zm.027.11-.15.006.003.057.15-.007.15-.006-.003-.057zm.003.056-.15.007.003.057.15-.007.15-.006-.003-.057zm.002.057-.15.007a.6.6 0 0 0 .028.151l.143-.047.142-.047a.3.3 0 0 1-.013-.07zm.02.111-.142.047.018.054.142-.047.143-.047-.018-.054zm.018.054-.142.047.018.053.142-.047.142-.047-.017-.053zm.018.053-.142.047a.4.4 0 0 1 .018.081l.149-.018.149-.018a.7.7 0 0 0-.032-.139zm.025.11-.15.018.008.056.148-.018.15-.018-.008-.056zm.006.056-.148.018.006.057.15-.018.148-.019-.007-.056zm.007.056-.149.019a.4.4 0 0 1 .001.082l.15.014.149.014a.7.7 0 0 0-.002-.147zm.001.115-.149-.014-.006.059.15.014.15.014.005-.059zm-.005.059-.15-.014-.005.059.15.014.148.014.006-.059zm-.006.059-.15-.014a.5.5 0 0 0 .015.167l.145-.04.144-.04a.2.2 0 0 1-.005-.06zm.01.113-.145.04.016.055.144-.041.144-.04-.015-.055zm.015.054-.144.04.015.055.144-.04.145-.041-.016-.055zm.015.054-.144.04q.015.058.035.115l.142-.047.143-.046-.031-.102zm.033.108-.142.047.017.053.143-.046.142-.046-.017-.054zm.018.054-.143.046.018.054.142-.046.143-.047-.018-.053zm.017.054-.142.046a.24.24 0 0 0 .194.165l.024-.148.024-.148q.005 0 .024.012.017.017.019.026zm.076.063-.024.148.058.01.024-.148.024-.149-.058-.009zm.058.01-.024.148.059.01.024-.149.024-.148-.058-.01zm.059.01-.024.147q.108.017.205-.032l-.066-.134-.067-.135q-.016.008-.024.005zm.114-.02.067.135.056-.027-.066-.135-.067-.134-.056.027zm.057-.027.066.135.056-.028-.066-.135-.066-.134-.057.028zm.056-.028.066.135h-.013l.06-.138.059-.138a.28.28 0 0 0-.238.007zm.112-.003-.059.138.056.024.06-.138.059-.138-.056-.024zm.057.024-.06.138.057.024.059-.138.06-.138-.057-.024zm.056.024-.06.138a.5.5 0 0 0 .156.042l.017-.15.016-.148a.2.2 0 0 1-.07-.02zm.113.03-.017.15.056.006.017-.15.016-.148-.056-.006zm.056.007-.017.149.057.006.016-.149.016-.15-.056-.005zm.056.006-.016.15a.6.6 0 0 0 .128.001l-.015-.149-.016-.15a.3.3 0 0 1-.065-.001zm.096.002.016.15.04-.005-.015-.15-.016-.148-.04.004zm.04-.004.016.149.04-.004-.015-.15-.016-.149-.04.005zm.041-.005.016.15c-.001 0-.023.003-.052-.008a.14.14 0 0 1-.092-.117c-.005-.043.012-.072.013-.075l.004-.006.115.096.116.096a.3.3 0 0 0 .03-.044.17.17 0 0 0 .02-.1.16.16 0 0 0-.104-.132.2.2 0 0 0-.082-.009zm.004.04-.115-.096-.036.043.115.096.116.096.036-.044zm-.036.043-.115-.096-.036.043.115.096.116.096.036-.043zm-.036.043-.115-.096-.076.1.123.086.122.087q.03-.042.062-.08zm-.068.09-.123-.087-.032.046.122.087.122.087.033-.046zm-.033.046-.122-.087-.033.047.122.086.122.087.033-.046zm-.033.046-.122-.087a.05.05 0 0 1-.025.018l.056.139.057.139a.35.35 0 0 0 .156-.122zm-.09.07-.057-.139-.058.024.057.139.056.138.058-.023zm-.058.023-.057-.138-.058.023.057.139.056.139.058-.024zm-.058.024-.056-.139a.26.26 0 0 0-.16.205l.148.024.148.024-.007.011a.04.04 0 0 1-.017.014zm-.068.09-.149-.024-.01.066.148.024.148.024.01-.066zm-.011.066-.148-.024-.01.067.147.024.148.023.011-.066zm-.01.067-.149-.024-.001.007.005-.006.087.122.087.122a.3.3 0 0 0 .118-.198zm-.058.1-.087-.123-.047.034.087.122.087.122.047-.034zm-.047.033-.087-.122-.047.033.087.122.087.122.047-.033zm-.047.033-.087-.122a.25.25 0 0 0-.112.183l.15.011.149.011a.1.1 0 0 1-.012.037q-.008.009 0 .002zm-.05.072-.15-.011-.002.038.15.012.15.01.002-.038zm-.002.039-.15-.012-.003.039.15.011.15.011.002-.038zm-.003.038-.15-.011a.6.6 0 0 0 .008.13l.148-.025.148-.024a.3.3 0 0 1-.005-.059zm.006.094-.148.024.009.056.148-.024.148-.025-.01-.055zm.009.056-.148.024.009.055.148-.024.148-.024-.01-.056zm.009.055-.148.024q.009.05.011.1l.15-.012.15-.01a1 1 0 0 0-.015-.126zm.013.112-.15.011.005.057.15-.01.149-.012-.004-.056zm.004.057-.15.01.004.057.15-.01.15-.01-.004-.058zm.004.057-.15.01a.2.2 0 0 1-.008.064l.143.044.143.044a.5.5 0 0 0 .022-.173zm-.015.118-.143-.044-.02.062.144.044.143.044.02-.062zm-.019.062-.143-.044-.02.061.144.044.143.045.02-.062zm-.019.061-.143-.044a.28.28 0 0 0 .025.233l.13-.076.128-.077.003.008q0 .007 0 0zm.011.113-.129.077.03.05.13-.076.129-.077-.03-.05zm.03.051-.128.077.03.05.129-.076.129-.077-.03-.05zm.031.051-.129.077q.026.045.047.09l.136-.064.137-.062a1 1 0 0 0-.062-.117zm.054.103-.136.063.024.053.137-.063.136-.063-.024-.053zm.025.053-.137.063.024.052.137-.063.136-.063-.024-.052zm.024.052-.137.063a1 1 0 0 1 .034.087l.143-.044.144-.043a1 1 0 0 0-.048-.126zm.04.106-.143.044.016.054.144-.044.143-.043-.016-.054zm.017.054-.144.044.016.054.144-.044.144-.043-.017-.054zm.016.055-.144.043c.003.008 0 .006.001-.005a.1.1 0 0 1 .026-.06l.113.099.113.098c.068-.078.048-.174.035-.219zm-.004.077-.113-.099-.02.024.113.098.113.098.02-.023zm-.02.023-.113-.098-.02.023.113.098.113.099.02-.024zm-.02.023-.114-.098a.136.136 0 0 1 .176-.022.1.1 0 0 1 .029.027q.003.006 0 0l-.136.063-.136.063c.009.02.031.066.076.096a.164.164 0 0 0 .218-.03zm-.045-.03.136-.063-.025-.053-.136.063-.136.063.025.053zm-.025-.053.136-.063-.025-.054-.136.063-.136.063.025.053zm-.025-.054.136-.063a.3.3 0 0 0-.172-.153l-.049.142-.05.141q.007.003.003 0l-.003-.002v-.002zm-.085-.075.05-.141-.061-.021-.05.141-.049.142.06.021zm-.06-.02.049-.142-.06-.021-.05.141-.05.142.061.021zm-.06-.022.049-.141.006.005.005.006.002.004-.143.047-.142.047a.27.27 0 0 0 .173.174zm-.08-.08.142-.046-.02-.059-.142.047-.142.048.019.058zm-.02-.057.142-.048-.019-.058-.142.047-.143.047.02.059zm-.02-.059.143-.047a.4.4 0 0 0-.094-.157l-.107.105-.107.106a.1.1 0 0 1 .023.04zm-.058-.099.107-.105-.04-.04-.107.105-.107.105.04.04zm-.04-.04.107-.105-.04-.04-.106.105-.107.105.04.04zm-.04-.04.108-.105a.4.4 0 0 0-.148-.097l-.056.139-.057.139a.1.1 0 0 1 .047.03zm-.097-.063.057-.14-.058-.023-.056.14-.057.138.058.024zm-.057-.024.056-.139-.058-.023-.056.139-.056.139.057.023zm-.058-.023.056-.14a.5.5 0 0 0-.124-.035l-.014.15-.014.149-.006-.001.008.002.037.014zm-.082-.026.014-.149-.024-.002-.014.15-.014.148.024.003zm-.024-.002.014-.15-.024-.001-.014.149-.014.15.024.002zm-.024-.002.014-.15a.2.2 0 0 0-.106.02.4.4 0 0 0-.067.042l.09.12.089.12.013-.009-.012.004a.1.1 0 0 1-.035.002zm-.07.032-.09-.12-.045.034.09.12.089.12.046-.034zm-.046.034-.09-.12-.045.034.09.12.089.12.046-.034zm-.046.034-.09-.12a1 1 0 0 0-.101.088l.105.106.106.107a1 1 0 0 1 .07-.06zm-.086.074-.105-.106-.04.04.105.106.106.106.04-.04zm-.04.04-.105-.106-.04.04.105.106.106.106.04-.04zm-.04.04-.105-.107a1 1 0 0 0-.09.106l.123.087.122.086.056-.066zm-.072.086-.123-.087-.032.046.122.087.123.087.032-.047zm-.033.046-.122-.087-.033.047.122.086.123.087.033-.047zm-.033.046-.122-.086a.5.5 0 0 0-.072.152l.145.041.144.041a.2.2 0 0 1 .028-.061zm-.05.107-.144-.041-.017.06.144.041.144.042.018-.06zm-.017.06-.144-.04-.017.06.144.04.144.042.017-.06zm-.017.06-.144-.04a.04.04 0 0 1 .01-.016q.011-.009.01-.007l.044.143.044.144a.26.26 0 0 0 .18-.182zm-.08.08-.044-.143-.062.019.044.143.043.144.063-.02zm-.062.02-.044-.144-.063.019.044.143.043.144.063-.02zm-.063.018-.044-.143-.005.001h.012q.01-.001.037.005a.144.144 0 0 1 .092.192l-.01.018-.123-.085-.124-.085c-.006.01-.031.045-.032.095a.156.156 0 0 0 .113.153.2.2 0 0 0 .08.004l.047-.011zm-.041-.012.123.085.021-.031-.123-.085-.124-.085-.021.031zm.02-.03.124.084.022-.031-.124-.085-.124-.085-.021.031zm.022-.032.124.085a.4.4 0 0 0 .055-.147l-.148-.024-.148-.025-.006.024q-.003.007 0 .002zm.03-.086.149.024.009-.055-.148-.025-.148-.025-.01.056zm.01-.056.148.025.01-.056-.149-.024-.148-.025-.009.055zm.01-.056.147.025q.01-.06.017-.12l-.15-.016-.148-.017q-.006.053-.015.104zm.015-.111.149.017.006-.056-.149-.017-.149-.017-.006.056zm.006-.056.15.017.006-.057-.15-.017-.148-.016-.007.056zm.007-.056.149.016a.3.3 0 0 1 .017-.075l-.14-.051-.142-.051a.6.6 0 0 0-.034.144zm.025-.11.141.051.02-.053-.141-.051-.141-.052-.02.054zm.02-.053.14.05.02-.053-.14-.05-.142-.052-.02.053zm.02-.054.14.051a.35.35 0 0 0 .011-.198l-.146.033-.146.034a.05.05 0 0 1 0 .029zm.005-.114.146-.033-.014-.06-.146.033-.146.033.014.06zm-.014-.06.146-.033-.013-.06-.147.032-.146.034.014.06zm-.014-.06.147-.034v.004l-.001.009-.004.008-.114-.097-.114-.097a.27.27 0 0 0-.06.24zm.028-.11.114.097.042-.048-.115-.097-.114-.097-.041.048zm.041-.048.114.097.042-.049-.114-.097-.115-.097-.041.049zm.041-.05.115.098a.3.3 0 0 0 .077-.202l-.15-.001-.15-.002v.002l-.006.009zm.042-.105.15.002.001-.058-.15-.002-.15-.001v.057zm.001-.057.15.001v-.057l-.15-.002-.15-.002v.058zm0-.058.15.002a.4.4 0 0 0-.032-.168l-.138.057-.139.058q.01.021.01.05zm-.02-.109.138-.057-.021-.052-.139.058-.138.057.021.052zm-.022-.051.139-.058-.021-.051-.139.057-.139.058.022.051zm-.021-.052.139-.057a.5.5 0 0 0-.085-.136l-.113.1-.112.098a.2.2 0 0 1 .032.053zm-.058-.094.112-.099-.037-.042-.113.099-.112.099.037.042zm-.037-.042.112-.099-.037-.042-.113.099-.112.098.037.043zm-.038-.043.113-.098a.5.5 0 0 0-.128-.104l-.073.131-.074.131q.03.018.05.04zm-.088-.07.073-.132-.052-.029-.073.131-.073.131.051.03zm-.052-.03.073-.13-.052-.03-.073.131-.073.131.052.03zm-.052-.029.073-.13a.3.3 0 0 1-.058-.044l-.106.105-.107.106a.6.6 0 0 0 .125.094zm-.091-.069.106-.105-.04-.04-.106.105-.107.106.04.04zm-.04-.04.107-.105-.04-.04-.106.105-.107.106.04.04zm-.04-.04.107-.105a.3.3 0 0 1-.047-.061l-.129.077-.128.077a.6.6 0 0 0 .09.118zm-.069-.089.129-.077-.03-.05-.128.078-.129.077.03.05zm-.03-.05.13-.076-.03-.05-.129.078-.128.077.03.05zm-.029-.048.129-.078a1 1 0 0 0-.072-.107l-.12.088-.122.089q.03.042.057.085zm-.064-.097.121-.088-.035-.048-.12.089-.122.088.035.048zm-.035-.047.121-.089-.034-.047-.121.088-.121.089.034.047zm-.034-.048.12-.088q.001-.003.01.019a.135.135 0 0 1-.088.17l-.021.004h-.007l.007-.15.007-.15c-.017 0-.044 0-.072.008a.17.17 0 0 0-.104.088.17.17 0 0 0-.006.127.2.2 0 0 0 .033.06zm.021-.045-.007.15.057.003.006-.15.007-.15-.056-.002zm.056.003-.006.15.056.002.007-.15.006-.15-.056-.002zm.057.002-.007.15a.4.4 0 0 1 .079.013l.04-.145.04-.144a.7.7 0 0 0-.146-.024zm.112.018-.04.145.056.016.04-.145.04-.144-.055-.016zm.056.016-.04.145.056.015.04-.144.041-.144-.056-.016zm.057.016-.04.145a.36.36 0 0 0 .19.001l-.038-.145-.038-.145a.1.1 0 0 1-.034 0zm.112 0 .038.146.056-.015-.038-.145-.038-.145-.056.015zm.056-.014.039.145.056-.015-.038-.145-.039-.145-.056.015zm.057-.015.038.145h.003l.008.003.063-.136.063-.136a.3.3 0 0 0-.214-.02zm.112.012-.063.136.056.026.063-.136.064-.136-.057-.026zm.056.026-.063.136.056.026.064-.136.063-.136-.056-.026zm.057.026-.064.136a.25.25 0 0 0 .253-.018l-.083-.125-.082-.125.02-.006q.017 0 .019.002zm.106-.007.083.125.05-.034-.082-.125-.083-.125-.05.034zm.05-.034.084.125.05-.033-.082-.125-.083-.125-.05.033zm.052-.033.082.125a.27.27 0 0 0 .123-.2l-.15-.015-.149-.014.005-.015.006-.006zm.055-.09.15.014.005-.056-.15-.014-.149-.015-.005.057zm.006-.056.15.014.004-.057-.149-.014-.15-.014-.005.056zm.005-.057.15.014a.2.2 0 0 1 .015-.053l-.133-.069-.133-.069a.5.5 0 0 0-.048.163zm.032-.108.134.069.026-.052-.133-.069-.134-.068-.026.051zm.027-.052.133.069.027-.052-.134-.069-.133-.068-.027.052zm.026-.052.134.069a.33.33 0 0 0 .032-.203l-.148.023-.148.023q.002.013-.003.02zm.018-.11.148-.023-.009-.06-.148.023-.148.022.009.06zm-.01-.06.15-.023-.01-.06-.148.023-.148.023.009.06zm-.008-.06.148-.022a.2.2 0 0 1 0-.065l-.147-.028-.148-.027a.5.5 0 0 0-.002.165zm.001-.115.147.028.01-.055-.147-.028-.147-.027-.01.055zm.01-.055.148.028.01-.056-.147-.027-.148-.028-.01.056zm.01-.055.148.027.021-.107-.147-.03-.146-.031-.023.113zm.022-.11.147.03.012-.055-.147-.03-.147-.031-.012.055zm.012-.056.147.03.011-.054-.147-.03-.147-.031-.011.055zm.011-.055.147.03q.012-.06.02-.12l-.148-.02-.148-.02q-.007.05-.018.1zm.02-.11.148.02.007-.057-.148-.02-.149-.02-.007.056zm.007-.057.148.02.008-.056-.149-.02-.148-.02-.008.056zm.007-.056.149.02a.2.2 0 0 1 .015-.06l-.139-.057-.138-.058a.5.5 0 0 0-.035.135zm.025-.097.139.058.017-.042-.138-.058-.139-.058-.017.042zm.018-.042.138.058.018-.041-.139-.058-.138-.058-.018.041zm.017-.041.139.058.007-.017-.003.004-.009.012a.15.15 0 0 1-.143.048l.032-.146.031-.147a.15.15 0 0 0-.15.053l-.02.031-.022.046zm.023-.041-.032.147h.005l.031-.146.032-.147h-.005zm.004.001-.031.147h.005l.031-.146.032-.147h-.005zm.005.001-.031.147a.15.15 0 0 1-.074-.04l-.014-.017-.002-.004.015.03.136-.062.136-.064-.04-.072-.017-.022c-.003-.003-.03-.033-.077-.043zm.03.053-.136.064.024.052.136-.063.136-.064-.024-.052z"/><ellipse cx="25.935" cy="24.767" fill="var(--fill-0, white)" rx="3.561" ry="3.845"/><path fill="var(--stroke-0, white)" d="m29.48 25.333-.5-.014zm-.052.373.485.122zm-.092.368-.485-.122zm-.095.377.485.122zm-.097.386-.485-.122zm-.135.384-.456-.207zm-.172.38.455.206zm-.285.269-.184-.465zm-.2.078.184.466zm-.198.08.183.464zm-.416.061-.038.499zm-.216-.016-.039.498zm-.217-.017.038-.499zm-.344.228-.443-.231zm-.127.244-.444-.231zm-.128.244.444.231zm-.33.078-.317.386zm-.203-.167-.317.387zm-.202-.166.317-.387zm-.415-.052-.238-.44zm-.211.114.238.44zm-.535.008.446-.226zm-.224-.442-.446.226zm-.258-.312.263-.425zm-.293-.18-.263.424zm-.244-.234.412-.283zm-.196-.285-.412.284zm-.31-.224.179-.466zm-.426-.163-.18.467zm-.177-.294-.493-.083zm-.402-1.473-.476-.154zm.088-.785-.457.203zm.073-.935-.31-.392zm.499-.414-.342-.366zm.137-.129.342.365zm.138-.129-.342-.365zm.238-.28-.416-.276zm.1-.151-.416-.277zm.331-.442-.366-.34zm.26-.28-.367-.34zm.275-.311-.38-.324zm.147-.172.38.324zm.146-.172-.38-.324zm1.2.147.105-.488zm1.493.195-.44.238zm.666.747.203-.457zm.173.076-.203.457zm.327.2-.31.392zm.31.245-.311.391zm.148.334.5.013zm-.006.211.5.014zm-.006.212-.5-.014zm.107.37.407-.29zm.225.315-.407.29zm.236.346-.418.275zm.246.375.418-.275zm.01.194.029.5zm-.116.007-.03-.5zm-.234.202.5.014zm-.006.189-.5-.014-.005.188.5.014.5.014.005-.189zm-.005.188-.5-.014a1.2 1.2 0 0 1-.036.265l.485.122.484.122q.06-.237.067-.48zm-.052.373-.484-.122-.047.184.485.122.485.122.046-.184zm-.046.184-.485-.122-.046.184.485.122.485.123.046-.185zm-.046.184-.485-.122-.095.377.485.122.485.122.095-.376zm-.095.377-.485-.122-.049.193.485.122.485.122.049-.193zm-.049.193-.485-.122-.048.193.485.122.485.122.048-.193zm-.048.193-.485-.122q-.037.148-.105.3l.455.206.456.206q.104-.23.164-.468zm-.135.384-.456-.207-.086.19.456.207.455.206.087-.19zm-.086.19-.456-.206-.086.19.456.206.455.206.086-.19zm-.086.19-.456-.206-.003.006.001-.001q.002-.001 0 0l-.011.005.184.465.183.465c.25-.099.445-.28.557-.528zm-.285.269-.184-.465-.199.078.184.465.183.466.2-.079zm-.2.078-.183-.465-.199.079.184.465.183.465.2-.078zm-.198.08-.184-.466a.4.4 0 0 1-.194.028l-.038.5-.038.498q.33.025.637-.096zm-.416.061.038-.498-.216-.017-.038.498-.039.5.217.016zm-.216-.016.038-.499-.217-.017-.038.499-.038.498.216.017zm-.217-.017.038-.499a.8.8 0 0 0-.508.13.96.96 0 0 0-.317.366l.443.23.443.232c.016-.03.016-.015-.017.006a.2.2 0 0 1-.12.034zm-.344.228-.443-.231-.128.244.444.23.443.232.127-.244zm-.127.244-.444-.231-.127.244.443.231.444.231.127-.244zm-.128.244-.443-.231c-.016.031.028-.078.183-.114.165-.039.262.048.248.036l-.318.387-.317.386c.12.1.34.229.616.164.265-.062.406-.265.475-.397zm-.33.078.318-.387-.203-.166-.317.386-.318.387.203.166zm-.203-.167.318-.386-.203-.167-.317.387-.318.386.203.167zm-.202-.166.317-.387a.84.84 0 0 0-.97-.105l.238.44.238.44a.1.1 0 0 1-.029.009.2.2 0 0 1-.062.002c-.046-.005-.063-.024-.05-.013zm-.415-.052-.238-.44-.211.115.238.44.238.439.212-.115zm-.211.114-.238-.44-.212.115.239.44.238.44.211-.115zm-.211.115-.239-.44a.2.2 0 0 1 .058-.018.3.3 0 0 1 .15.013c.12.04.158.122.153.112l-.446.226-.446.226c.07.138.2.311.426.386a.73.73 0 0 0 .582-.066zm-.324-.107.446-.226-.112-.221-.446.226-.446.226.112.221zm-.112-.221.446-.226-.112-.221-.446.226-.446.226.112.22zm-.112-.221.446-.226a1.25 1.25 0 0 0-.441-.511l-.263.425-.263.425c-.008-.005.024.013.075.113zm-.258-.312.263-.425-.146-.09-.264.425-.263.425.147.09zm-.146-.09.263-.426-.146-.09-.264.425-.263.425.146.09zm-.147-.09.264-.426a.3.3 0 0 1-.096-.091l-.412.283-.412.284q.158.227.393.374zm-.244-.234.412-.283-.098-.143-.412.284-.412.283.098.143zm-.098-.142.412-.284-.098-.142-.412.283-.412.284.098.142zm-.098-.143.412-.283a1.14 1.14 0 0 0-.543-.407l-.18.466-.179.467c.077.03.086.052.078.04zm-.31-.224.179-.466-.213-.082-.18.467-.179.466.213.082zm-.213-.081.18-.467-.213-.082-.18.467-.18.467.213.081zm-.213-.082.18-.467.008.004.024.015a.3.3 0 0 1 .066.075.25.25 0 0 1 .038.162l-.493-.083-.493-.083a.75.75 0 0 0 .091.52.8.8 0 0 0 .4.324zm-.177-.294.493.083.036-.212-.493-.083-.494-.083-.035.212zm.036-.212.493.083.035-.212-.493-.083-.493-.083-.036.212zm.035-.212.493.083a.93.93 0 0 0-.224-.787l-.376.33-.375.33q.003.005 0 0a.1.1 0 0 1-.01-.036v-.003zm-.107-.374.375-.33-.142-.162-.375.33-.375.331.142.162zm-.142-.161.375-.33-.143-.163-.375.33-.375.331.143.162zm-.143-.162.375-.33c-.003-.005.012.012.021.049a.2.2 0 0 1-.001.083l-.476-.154-.476-.154c-.1.31-.018.61.182.836zm-.08-.352.475.154.061-.19-.475-.153-.476-.154-.061.19zm.06-.19.476.155.062-.19-.476-.154-.476-.154-.061.19zm.062-.19.476.155c.085-.265.05-.528-.053-.763l-.458.203-.457.203c.013.029.015.045.016.049v.002-.002zm-.035-.405.458-.203-.096-.216-.458.202-.457.203.096.216zm-.096-.217.458-.202-.096-.217-.457.203-.458.203.096.216zm-.095-.216.457-.203s.02.046.002.12a.2.2 0 0 1-.065.116l-.31-.392-.31-.392a.8.8 0 0 0-.288.439.8.8 0 0 0 .056.515zm.084-.36.31.393.18-.143-.31-.392-.31-.392-.18.143zm.18-.142.31.392.181-.143-.31-.392-.31-.392-.181.143zm.18-.143.311.392a6 6 0 0 0 .35-.298l-.342-.365-.342-.366q-.12.113-.287.245zm.319-.271.341.365.138-.129-.342-.365-.342-.365-.137.128zm.137-.129.342.365.137-.128-.341-.366-.342-.365-.138.129zm.138-.129.341.366q.179-.167.313-.369l-.416-.277-.416-.276q-.069.1-.164.191zm.238-.28.416.277.1-.151-.416-.277-.416-.277-.1.152zm.1-.151.417.277.1-.151-.416-.277-.416-.277-.1.151zm.101-.151.416.277q.078-.117.18-.228l-.366-.34-.366-.34a3 3 0 0 0-.28.354zm.23-.291.367.34.13-.14-.367-.34-.367-.34-.13.14zm.13-.14.366.34.13-.14-.367-.34-.366-.34-.13.14zm.13-.14.366.34q.138-.148.29-.327l-.38-.324-.381-.324q-.14.165-.262.296zm.275-.311.381.324.147-.172-.381-.324-.38-.324-.147.172zm.147-.172.38.324.147-.172-.38-.324-.381-.324-.147.172zm.146-.172.381.324a.2.2 0 0 1-.081.046.2.2 0 0 1-.09.004l.154-.476.153-.476a.84.84 0 0 0-.488-.015.84.84 0 0 0-.41.269zm.364-.102-.154.476.218.07.153-.476.153-.476-.217-.07zm.217.07-.153.476.216.07.154-.476.153-.476-.217-.07zm.217.07-.154.476q.237.075.45.122l.105-.489.106-.488a4 4 0 0 1-.354-.097zm.401.11-.105.488.184.04.106-.489.105-.489-.184-.04zm.184.04-.105.488.184.04.106-.489.105-.489-.184-.04zm.185.039-.106.489q.283.058.57.015l-.072-.495-.072-.494a.6.6 0 0 1-.215-.004zm.392.01.073.494.208-.03-.072-.495-.072-.495-.209.03zm.209-.031.072.495.209-.03-.072-.496-.073-.494-.208.03zm.209-.03.072.494a.2.2 0 0 1-.123-.026c-.055-.03-.075-.065-.074-.064l.44-.238.44-.238a.83.83 0 0 0-.338-.344.8.8 0 0 0-.49-.08zm.315.166-.44.238.107.198.44-.238.44-.238-.107-.198zm.107.198-.44.238.107.198.44-.239.44-.238-.107-.197zm.107.197-.44.239c.114.21.283.389.517.493l.203-.457.203-.457-.01-.007a.2.2 0 0 1-.033-.049zm.28.275-.204.457.173.077.203-.457.203-.457-.172-.077zm.172.077-.203.457.173.076.203-.457.203-.457-.173-.076zm.173.076-.203.457q.112.05.22.134l.31-.391.311-.392a2 2 0 0 0-.435-.265zm.327.2-.31.392.154.122.31-.392.311-.392-.154-.122zm.155.122-.31.392.154.122.31-.391.31-.392-.154-.123zm.154.123-.31.391a.1.1 0 0 1-.032-.043c-.01-.023-.009-.036-.009-.028l.5.014.5.013a.89.89 0 0 0-.338-.74zm.149.334-.5-.014-.006.211.5.014.5.014.006-.212zm-.006.211-.5-.014-.006.212.5.014.5.013.006-.211zm-.006.212-.5-.014c-.006.239.056.471.2.673l.407-.29.407-.29c-.006-.009-.015-.023-.014-.066zm.107.37-.407.289.112.158.407-.29.408-.29-.113-.158zm.112.157-.407.29.113.158.407-.29.407-.29-.112-.158zm.113.158-.407.29q.106.15.225.33l.418-.274.418-.275q-.129-.195-.247-.36zm.236.346-.418.275.123.187.418-.275.418-.274-.123-.188zm.123.187-.417.275.123.188.417-.275.418-.275-.123-.187zm.123.188-.417.275q.015.025.008.012a.3.3 0 0 1-.026-.123.455.455 0 0 1 .415-.47l.03.5.029.5a.545.545 0 0 0 .525-.573.7.7 0 0 0-.06-.244 1 1 0 0 0-.086-.152zm.01.194-.03-.5-.115.008.03.499.029.499.115-.007zm-.116.007-.03-.5-.114.007.03.5.03.499.114-.007zm-.114.006-.03-.499a.6.6 0 0 0-.484.29.8.8 0 0 0-.106.391l.5.014.5.014c0-.026.005.029-.041.104a.39.39 0 0 1-.31.186zm-.12.196-.5-.014-.005.189.5.014.5.014.005-.19z"/><path fill="var(--fill-0, #fffeef)" d="M50.593 14.004c.474.008.73.021 1.209.021 2.884 0 6.343 1.027 8.957 4.414 1.714 2.22 2.492 4.831 2.915 6.946.426 2.129.588 4.326.723 5.803.18 1.99.158 5.014-.354 8.16-.498 3.066-1.556 6.855-3.874 9.866-.923 1.2-2.397 2.273-4.054 2.904-1.796.684-4.24 1.004-6.819-.034-.996-.4-1.69-.654-2.249-.86-.455-.168-1.18-.427-1.834-.776-1.692-.903-2.7-2.35-3.271-3.052-1.447-1.78-2.479-4.55-3.042-7.513-.598-3.144-.778-7.05-.097-11.462.05-.325.133-.638.24-.936a5 5 0 0 1 .082-.814c.377-2.034 1.103-4.356 2.16-6.638.577-1.246 1.31-2.483 2.515-3.441.549-.436 1.075-.708 1.204-.778l.009-.004c.99-.734 2.204-1.474 3.873-1.718a10.4 10.4 0 0 1 1.707-.088"/><path fill="var(--stroke-0, #f4c280)" d="m50.593 14.004.017-1zm1.209.021v-1zm8.957 4.414.792-.611zm2.915 6.946.98-.196zm.723 5.803.996-.091zm-.354 8.16.987.161zm-3.874 9.866.793.61zm-4.054 2.904.356.935zm-6.819-.034-.373.928zm-2.249-.86-.346.938zm-1.834-.776-.47.883zm-3.271-3.052.776-.631zM38.9 39.883l-.983.187zm-.097-11.462-.988-.152zm.24-.936.941.338.056-.154.003-.164zm.082-.814-.983-.182zm2.16-6.638-.908-.42zm2.515-3.441-.622-.783zm1.204-.778.475.88zm.009-.004.47.882.066-.035.06-.044zm3.873-1.718-.145-.99zm1.707-.088-.018 1c.444.008.738.021 1.227.021v-2c-.47 0-.687-.012-1.191-.02zm1.209.021v1c2.642 0 5.779.933 8.165 4.025l.792-.611.792-.611c-2.842-3.681-6.623-4.802-9.749-4.802zm8.957 4.414-.792.61c1.578 2.044 2.316 4.48 2.726 6.532l.981-.196.98-.196c-.434-2.177-1.252-4.963-3.103-7.361zm2.915 6.946-.98.196c.412 2.064.57 4.197.707 5.697l.996-.09.996-.091c-.133-1.452-.3-3.714-.738-5.908zm.723 5.803-.996.09c.174 1.908.153 4.849-.345 7.91l.987.16.987.161c.526-3.231.551-6.34.363-8.412zm-.354 8.16-.987-.16c-.487 2.996-1.508 6.596-3.68 9.416l.793.61.793.61c2.465-3.202 3.558-7.18 4.068-10.315zm-3.874 9.866-.792-.61c-.798 1.036-2.113 2.007-3.617 2.58l.355.934.356.935c1.81-.69 3.442-1.867 4.49-3.229zm-4.054 2.904-.355-.934c-1.618.616-3.795.896-6.09-.028l-.374.928-.373.928c2.863 1.152 5.573.793 7.548.04zm-6.819-.034.373-.928c-1.01-.407-1.717-.664-2.276-.87l-.346.938-.346.938c.56.206 1.24.455 2.222.85zm-2.249-.86.346-.939c-.472-.173-1.128-.409-1.71-.719l-.47.882-.47.883c.725.387 1.52.67 1.958.831zm-1.834-.776.47-.882c-1.472-.786-2.344-2.036-2.965-2.801l-.776.63-.776.631c.52.64 1.665 2.285 3.576 3.305zm-3.271-3.052.776-.631c-1.298-1.597-2.287-4.18-2.836-7.069l-.982.187-.983.187c.578 3.039 1.653 5.993 3.249 7.956zM38.9 39.883l.982-.187c-.577-3.032-.754-6.824-.09-11.122l-.99-.153-.987-.152c-.699 4.524-.517 8.546.102 11.8zm-.097-11.462.988.153q.061-.387.193-.75l-.94-.34-.942-.338c-.127.354-.227.73-.287 1.122zm.24-.936 1 .02a4 4 0 0 1 .066-.652l-.984-.182-.983-.182q-.09.496-.099.975zm.082-.814.983.182c.361-1.948 1.06-4.19 2.084-6.4l-.908-.42-.907-.42c-1.09 2.354-1.842 4.756-2.235 6.876zm2.16-6.638.907.42c.55-1.188 1.203-2.261 2.23-3.078l-.622-.783-.622-.783c-1.383 1.1-2.197 2.5-2.801 3.804zm2.515-3.441.622.783c.472-.375.926-.61 1.057-.682l-.475-.88-.475-.88c-.128.07-.725.379-1.351.876zm1.204-.778.476.88a1 1 0 0 1-.097.045h-.001l.005-.002a1 1 0 0 0 .096-.045l-.47-.882-.47-.883.073-.035.016-.007.004-.001a1 1 0 0 0-.107.05zm.009-.004.595.803c.93-.688 1.987-1.321 3.423-1.532l-.145-.99-.145-.989c-1.902.28-3.273 1.126-4.324 1.904zm3.873-1.718.145.99a9.4 9.4 0 0 1 1.544-.078l.018-1 .017-1a11.4 11.4 0 0 0-1.869.098z"/><ellipse cx="54.049" cy="31.175" fill="var(--fill-0, #424242)" rx="7.122" ry="11.534"/><path fill="var(--fill-0, white)" d="m50.191 36.942.333 1.55h1.078l-.872.958.333 1.55-.872-.959-.872.958.333-1.55-.872-.957h1.078z"/><path fill="var(--stroke-0, white)" d="m50.24 37.047-.136.063zm.024.052.136-.063zm.027.11-.15.006zm.003.056.15-.006zm.002.057-.15.007zm.02.111.143-.047zm.018.054-.142.047zm.018.053-.142.047zm.025.11-.15.018zm.013.112.149-.018zm.001.115-.149-.014zm-.01.118-.15-.014zm.009.113.144-.04zm.03.108-.144.04zm.033.108-.143.047zm.111.171-.024.148zm.231 0-.066-.134zm.057-.027-.067-.134zm.056-.028.066.135zm.225.045-.06.138zm.112.03.017-.148zm.057.007-.017.149zm.056.006-.016.15zm.097.002.015.15zm.04-.004.015.149zm.04-.005-.016-.149zm.004.04-.115-.096zm-.036.043.116.096zm-.104.133-.123-.087zm-.033.046.122.087zm-.033.046.122.087zm-.09.07-.057-.139zm-.116.047.056.139zm-.068.09-.148-.024zm-.022.133.148.023zm-.104.133.087.122zm-.047.033-.087-.122zm-.05.072-.15-.011zm-.002.039.149.01zm-.003.038-.15-.011zm.006.094.148-.024zm.018.111-.148.024zm.013.112.15-.01zm.004.057-.15.01zm.004.057.15-.01zm-.015.118.144.044zm-.038.123-.143-.044zm.011.113.13-.077zm.06.102-.128.076zm.055.103-.136.063zm.049.105.136-.063zm.04.106-.143.044zm.033.108.144-.043zm-.004.078.113.098zm-.02.023-.113-.098zm-.02.023-.114-.098zm-.045-.03.136-.063zm-.05-.107-.136.063zm-.085-.075.05-.141zm-.12-.042-.05.142zm-.08-.08-.143.048zm-.04-.116.143-.047zm-.058-.099-.107.106zm-.04-.04.107-.105zm-.04-.04-.106.105zm-.097-.063-.056.139zm-.057-.024-.057.14zm-.058-.023.056-.14zm-.082-.026-.014.15zm-.048-.004.014-.15zm-.07.032.09.12zm-.178.142-.105-.106zm-.04.04.106.106zm-.04.04.106.106zm-.072.086.122.086zm-.066.092-.122-.086zm-.084.228-.144-.041zm-.08.08.044.143zm-.125.037-.044-.143zm-.042-.012.124.085zm.022-.03.123.084zm.021-.032.124.085zm.03-.086-.147-.025zm.035-.223.149.017zm.006-.056-.149-.017zm.006-.057.15.017zm.065-.216-.14-.051zm.006-.114.146-.033zm-.028-.12-.146.033zm.028-.11-.114-.097zm.082-.097.115.097zm.042-.106-.15-.002zm.001-.058.15.002zm0-.057-.15-.002zm-.02-.109.138-.057zm-.043-.103-.139.058zm-.058-.094-.113.099zm-.038-.042-.112.099zm-.037-.043.113-.098zm-.089-.07-.073.13zm-.103-.059-.073.131zm-.091-.069-.107.106zm-.08-.08-.106.106zm-.069-.089-.128.077zm-.059-.098-.128.077zm-.064-.097-.121.089zm-.07-.095.121-.088zm.022-.045-.007.15zm.112.005.007-.15zm.113.018.04-.144zm.45.015-.063.136zm.056.026-.063.136zm.056.026.064-.136zm.107-.007.083.125zm.101-.067-.082-.125zm.056-.09.15.014zm.011-.113.15.014zm.032-.108-.133-.069zm.027-.052.133.069zm.027-.397.147.028zm.02-.11-.147-.028zm.022-.11-.146-.031zm.023-.11-.147-.031zm.02-.112-.15-.02zm.014-.112.149.02zm.025-.097-.138-.058zm.018-.042.138.058zm.017-.041.138.058zm.022-.041-.031.147zm.01.002.032-.147zm.03.053-.136.064zm.024.053-.136.063.024.052.136-.063.136-.063-.024-.053zm.024.052-.136.063a.14.14 0 0 1 .013.053l.15-.007.15-.006a.4.4 0 0 0-.04-.166zm.027.11-.15.006.003.057.15-.007.15-.006-.003-.057zm.003.056-.15.007.003.057.15-.007.15-.006-.003-.057zm.002.057-.15.007a.6.6 0 0 0 .028.151l.143-.047.142-.047a.3.3 0 0 1-.013-.07zm.02.111-.142.047.018.054.142-.047.143-.047-.018-.054zm.018.054-.142.047.018.053.142-.047.143-.047-.018-.053zm.018.053-.142.047a.4.4 0 0 1 .018.081l.148-.018.15-.018a.7.7 0 0 0-.032-.139zm.025.11-.15.018.007.056.15-.018.148-.018-.007-.056zm.006.056-.149.018.007.057.15-.019.148-.018-.007-.056zm.007.056-.149.019a.4.4 0 0 1 .001.082l.15.014.149.014a.7.7 0 0 0-.002-.147zm.001.115-.149-.014-.006.059.15.014.15.014.005-.059zm-.005.059-.15-.014-.005.059.15.014.148.014.006-.059zm-.006.059-.15-.014a.5.5 0 0 0 .015.167l.145-.04.144-.04a.2.2 0 0 1-.005-.06zm.01.113-.145.04.016.054.144-.04.145-.04-.016-.055zm.015.054-.144.04.015.055.144-.04.145-.041-.015-.055zm.015.054-.144.04q.015.058.034.115l.143-.047.143-.046-.031-.102zm.033.108-.143.047.018.053.143-.046.142-.046-.017-.054zm.018.054-.143.046.017.054.143-.046.143-.047-.018-.053zm.017.054-.143.046a.24.24 0 0 0 .195.165l.024-.148.024-.148q.005-.002.024.012a.1.1 0 0 1 .019.026zm.076.063-.024.148.058.01.024-.148.025-.149-.059-.009zm.058.01-.024.148.059.01.024-.149.024-.148-.058-.01zm.059.01-.024.147q.108.017.205-.032l-.067-.134-.066-.135q-.016.008-.024.005zm.114-.02.067.135.056-.027-.066-.135-.067-.134-.056.027zm.057-.027.066.135.056-.028-.066-.135-.066-.134-.057.028zm.056-.028.066.135h-.013l.06-.138.059-.138a.28.28 0 0 0-.238.007zm.112-.003-.059.138.056.024.06-.138.059-.138-.056-.024zm.057.024-.06.138.057.024.059-.138.06-.138-.057-.024zm.056.024-.06.138q.076.033.156.042l.016-.15.017-.148a.2.2 0 0 1-.07-.02zm.112.03-.016.15.056.006.017-.15.016-.148-.056-.006zm.057.007-.017.149.057.006.016-.149.016-.15-.056-.005zm.056.006-.016.15a.6.6 0 0 0 .128.001l-.015-.149-.016-.15a.3.3 0 0 1-.065-.001zm.097.002.015.15.04-.005-.015-.15-.016-.148-.04.004zm.04-.004.015.149.04-.004-.015-.15-.016-.149-.04.005zm.04-.005.016.15c-.001 0-.023.003-.052-.008a.14.14 0 0 1-.092-.118c-.005-.042.012-.071.013-.074l.004-.006.115.096.116.095a.3.3 0 0 0 .03-.043.17.17 0 0 0 .02-.1.16.16 0 0 0-.104-.132.2.2 0 0 0-.082-.009zm.004.04-.115-.096-.036.043.115.096.116.096.036-.044zm-.036.043-.115-.096-.036.043.115.096.116.096.036-.043zm-.036.043-.115-.096-.076.099.123.087.122.087q.03-.042.062-.08zm-.068.09-.123-.087-.033.046.123.087.122.087.033-.046zm-.033.046-.123-.087-.032.047.122.086.122.087.033-.046zm-.033.046-.122-.087a.05.05 0 0 1-.025.018l.056.139.057.139a.35.35 0 0 0 .156-.122zm-.09.07-.057-.139-.058.023.057.14.056.138.058-.023zm-.058.023-.057-.139-.057.024.056.139.056.139.058-.024zm-.058.024-.056-.139a.26.26 0 0 0-.16.205l.148.024.148.024-.007.011-.017.014zm-.068.09-.148-.024-.011.066.148.024.148.024.01-.066zm-.011.066-.148-.024-.01.067.147.023.148.024.011-.066zm-.01.067-.149-.024-.002.007.006-.006.087.122.087.122a.3.3 0 0 0 .118-.198zm-.058.1-.087-.123-.047.034.087.122.087.122.047-.034zm-.047.033-.087-.122-.047.033.087.122.087.122.047-.033zm-.047.033-.087-.122a.25.25 0 0 0-.112.183l.15.011.149.011a.1.1 0 0 1-.012.037q-.009.008 0 .002zm-.05.072-.15-.011-.002.038.15.012.149.01.003-.038zm-.002.039-.15-.012-.003.039.15.01.15.012.002-.038zm-.003.038-.15-.011a.6.6 0 0 0 .008.13l.148-.025.148-.024a.3.3 0 0 1-.005-.059zm.006.094-.148.024.009.056.148-.024.148-.025-.01-.055zm.009.056-.148.024.009.055.148-.024.148-.024-.01-.056zm.009.055-.148.024q.008.05.011.1l.15-.012.15-.01a1 1 0 0 0-.015-.126zm.013.112-.15.011.004.057.15-.01.15-.012-.004-.056zm.004.057-.15.01.005.057.15-.01.149-.01-.004-.058zm.004.057-.15.01a.2.2 0 0 1-.008.064l.143.044.144.044a.5.5 0 0 0 .02-.173zm-.015.118-.143-.044-.02.061.144.045.143.044.02-.062zm-.019.062-.143-.045-.02.062.144.044.143.044.02-.061zm-.019.061-.143-.044a.28.28 0 0 0 .025.233l.13-.076.128-.077.003.008q0 .007 0 0zm.011.113-.129.077.03.05.13-.076.129-.077-.03-.05zm.03.051-.128.077.03.05.129-.076.129-.077-.03-.05zm.03.051-.128.076q.026.045.047.09l.136-.063.137-.062a1 1 0 0 0-.062-.118zm.055.103-.136.063.024.053.136-.063.137-.063-.024-.053zm.025.053-.137.063.024.052.137-.063.136-.063-.024-.052zm.024.052-.136.063a1 1 0 0 1 .033.087l.143-.044.144-.043a1 1 0 0 0-.048-.126zm.04.106-.143.044.016.054.143-.044.144-.043-.016-.054zm.017.054-.144.044.016.054.144-.044.144-.043-.017-.054zm.016.054-.144.044c.003.008 0 .006.001-.005 0-.011.005-.036.026-.06l.113.099.113.098c.068-.078.048-.174.035-.22zm-.004.078-.113-.099-.02.024.113.098.113.098.02-.023zm-.02.023-.113-.098-.02.023.113.098.113.099.02-.024zm-.02.023-.114-.098a.136.136 0 0 1 .176-.022.1.1 0 0 1 .028.027q.004.006 0 0l-.135.063-.136.063c.009.02.03.066.076.096a.164.164 0 0 0 .218-.03zm-.045-.03.136-.063-.025-.053-.136.063-.136.063.025.053zm-.025-.053.136-.063-.025-.054-.136.063-.136.063.025.053zm-.025-.054.136-.063a.3.3 0 0 0-.172-.153l-.049.141-.05.142q.007.003.003 0l-.004-.004zm-.085-.075.05-.141-.061-.021-.05.141-.049.142.06.021zm-.06-.02.049-.142-.06-.021-.05.141-.05.142.061.021zm-.06-.022.049-.141.006.005.007.01-.143.047-.142.047a.27.27 0 0 0 .173.174zm-.08-.08.142-.046-.02-.059-.142.047-.142.048.019.058zm-.02-.058.142-.047-.019-.058-.142.047-.143.047.02.059zm-.02-.058.143-.047a.4.4 0 0 0-.094-.157l-.107.105-.107.106a.1.1 0 0 1 .023.04zm-.058-.099.107-.105-.04-.04-.107.105-.107.105.04.04zm-.04-.04.107-.105-.04-.04-.106.105-.107.105.04.04zm-.04-.04.108-.105a.4.4 0 0 0-.148-.097l-.057.139-.056.139a.1.1 0 0 1 .047.03zm-.097-.063.057-.14-.058-.023-.056.14-.057.138.058.024zm-.057-.024.056-.139-.058-.023-.056.139-.056.139.057.023zm-.058-.023.056-.14a.5.5 0 0 0-.124-.035l-.014.15-.014.149-.006-.001.008.002.038.014zm-.082-.026.014-.149-.024-.002-.014.15-.014.148.024.003zm-.024-.002.014-.15-.024-.002-.014.15-.014.15.024.002zm-.024-.002.014-.15a.2.2 0 0 0-.106.02.4.4 0 0 0-.067.042l.09.12.089.12.013-.009-.012.004a.1.1 0 0 1-.035.002zm-.07.032-.09-.12-.045.034.09.12.089.12.046-.034zm-.046.034-.09-.12-.045.034.09.12.089.12.046-.034zm-.046.034-.09-.12a1 1 0 0 0-.101.088l.105.106.106.107a1 1 0 0 1 .07-.06zm-.086.074-.105-.106-.04.04.105.106.106.106.04-.04zm-.04.04-.105-.106-.04.04.105.106.106.106.04-.04zm-.04.04-.105-.107a1 1 0 0 0-.09.106l.123.087.122.086.056-.066zm-.072.086-.123-.087-.032.046.122.087.123.087.032-.047zm-.033.046-.122-.087-.033.047.122.086.123.087.033-.047zm-.033.046-.122-.086a.5.5 0 0 0-.072.152l.145.041.144.041a.2.2 0 0 1 .028-.061zm-.05.107-.144-.041-.017.06.144.041.145.042.017-.06zm-.017.06-.144-.04-.017.06.144.04.144.042.018-.06zm-.017.06-.144-.04a.04.04 0 0 1 .01-.016q.011-.009.01-.007l.044.143.044.144a.26.26 0 0 0 .18-.182zm-.08.08-.044-.143-.062.019.043.143.044.144.063-.02zm-.063.02-.043-.144-.063.019.044.143.043.144.063-.02zm-.062.018-.044-.143-.006.001h.013q.01-.001.037.005a.144.144 0 0 1 .092.192l-.01.018-.124-.085-.123-.085c-.006.01-.031.045-.032.095a.155.155 0 0 0 .113.153.2.2 0 0 0 .08.004l.047-.011zm-.042-.012.124.085.021-.031-.123-.085-.124-.085-.021.031zm.022-.03.123.084.022-.031-.124-.085-.124-.085-.021.031zm.021-.032.124.085a.4.4 0 0 0 .054-.147l-.147-.024-.148-.025-.006.024q-.003.007 0 .002zm.03-.086.148.024.01-.055-.148-.025-.148-.025-.01.056zm.01-.056.148.025.01-.056-.149-.024-.148-.025-.01.055zm.01-.056.147.025q.01-.06.017-.12l-.15-.016-.148-.017q-.006.053-.015.104zm.015-.111.149.017.006-.056-.149-.017-.149-.017-.006.056zm.006-.056.15.017.006-.057-.15-.017-.149-.016-.006.056zm.006-.057.15.017a.3.3 0 0 1 .017-.075l-.14-.051-.142-.051a.6.6 0 0 0-.034.144zm.026-.11.141.052.02-.053-.141-.051-.141-.052-.02.054zm.02-.052.14.05.02-.053-.14-.05-.142-.052-.02.053zm.02-.054.14.051a.35.35 0 0 0 .011-.198l-.146.033-.146.034a.05.05 0 0 1 0 .029zm.005-.114.146-.033-.014-.06-.146.033-.146.033.014.06zm-.014-.06.146-.034-.014-.06-.146.033-.146.034.014.06zm-.014-.06.146-.034v.013l-.004.008-.114-.097-.114-.097a.27.27 0 0 0-.06.24zm.028-.11.114.097.041-.048-.114-.097-.114-.097-.041.048zm.041-.048.114.097.042-.049-.115-.097-.114-.097-.041.049zm.041-.05.115.098a.3.3 0 0 0 .077-.202l-.15-.001-.15-.002v.002l-.006.009zm.042-.105.15.002.001-.058-.15-.002-.15-.001v.057zm.001-.058.15.002v-.057l-.15-.002-.15-.002v.058zm0-.057.15.002a.4.4 0 0 0-.032-.168l-.138.057-.139.058q.01.021.01.05zm-.02-.109.138-.057-.021-.052-.139.058-.138.057.021.052zm-.022-.051.139-.058-.022-.051-.138.057-.139.058.022.051zm-.021-.052.139-.057a.5.5 0 0 0-.085-.136l-.112.1-.113.098a.2.2 0 0 1 .032.053zm-.058-.094.112-.099-.037-.042-.113.099-.112.099.037.042zm-.038-.042.113-.099-.037-.042-.113.099-.113.098.038.043zm-.037-.043.113-.098a.5.5 0 0 0-.128-.104l-.074.131-.073.131q.03.017.05.04zm-.089-.07.074-.132-.052-.029-.073.131-.074.131.052.03zm-.051-.03.073-.13-.052-.03-.073.131-.073.131.051.03zm-.052-.029.073-.13a.3.3 0 0 1-.058-.044l-.106.105-.107.106a.6.6 0 0 0 .125.094zm-.091-.069.106-.105-.04-.04-.106.105-.107.106.04.04zm-.04-.04.107-.105-.04-.04-.107.105-.106.106.04.04zm-.04-.04.107-.105a.3.3 0 0 1-.047-.061l-.129.077-.128.077a.6.6 0 0 0 .09.118zm-.069-.089.129-.077-.03-.05-.128.078-.129.077.03.05zm-.03-.05.13-.076-.03-.05-.129.078-.128.077.03.05zm-.029-.048.129-.078a1 1 0 0 0-.072-.107l-.121.088-.121.089q.03.042.057.085zm-.064-.097.121-.088-.035-.048-.12.089-.122.088.035.048zm-.035-.047.121-.089-.035-.047-.12.088-.121.089.034.047zm-.035-.048.121-.088q0-.003.01.019a.13.13 0 0 1-.007.099.13.13 0 0 1-.102.075h-.007l.007-.15.007-.15c-.017 0-.044 0-.072.008a.17.17 0 0 0-.104.088.17.17 0 0 0-.006.127.2.2 0 0 0 .033.06zm.022-.045-.007.15.057.003.006-.15.007-.15-.056-.002zm.056.003-.006.15.056.002.006-.15.007-.15-.056-.002zm.056.002-.006.15a.4.4 0 0 1 .079.013l.04-.145.04-.144a.7.7 0 0 0-.146-.024zm.113.018-.04.145.056.016.04-.145.04-.144-.056-.016zm.056.016-.04.145.056.015.04-.144.04-.145-.055-.015zm.056.016-.04.144a.36.36 0 0 0 .191.002l-.038-.145-.038-.145a.06.06 0 0 1-.034 0zm.113 0 .038.146.056-.015-.038-.145-.038-.145-.056.015zm.056-.014.038.145.057-.015-.038-.145-.039-.145-.056.015zm.056-.015.039.145h.003l.008.003.063-.136.063-.136a.3.3 0 0 0-.214-.02zm.113.012-.063.136.056.026.063-.136.063-.136-.056-.026zm.056.026-.063.136.056.026.064-.136.063-.136-.056-.026zm.056.026-.063.136a.25.25 0 0 0 .253-.018l-.083-.125-.082-.125.02-.006q.017 0 .019.002zm.107-.007.083.125.05-.034-.082-.125-.083-.125-.05.034zm.05-.034.084.125.05-.033-.083-.125-.082-.125-.05.033zm.051-.033.083.125a.27.27 0 0 0 .123-.2l-.15-.015-.149-.014.005-.015.006-.006zm.056-.09.15.014.005-.056-.15-.014-.149-.015-.005.057zm.006-.056.149.014.005-.057-.149-.014-.15-.014-.005.056zm.005-.057.15.014a.2.2 0 0 1 .016-.053l-.134-.069-.133-.069a.5.5 0 0 0-.048.163zm.032-.108.133.069.027-.052-.133-.069-.134-.068-.026.051zm.027-.052.133.069.027-.052-.134-.069-.133-.068-.027.052zm.026-.052.134.069a.33.33 0 0 0 .032-.203l-.148.023-.148.023a.03.03 0 0 1-.003.02zm.018-.11.148-.023-.009-.06-.148.023-.148.022.009.06zm-.01-.06.15-.023-.01-.06-.148.023-.149.023.01.06zm-.008-.06.148-.023a.2.2 0 0 1 0-.064l-.147-.028-.148-.027a.5.5 0 0 0-.002.165zm.001-.115.147.028.01-.056-.147-.027-.147-.027-.01.055zm.01-.055.148.027.01-.055-.147-.027-.148-.028-.01.056zm.01-.055.148.027.021-.107-.147-.03-.146-.031-.023.113zm.022-.11.147.03.012-.055-.147-.03-.147-.031-.011.055zm.012-.056.147.03.011-.054-.147-.03-.147-.031-.011.055zm.011-.055.147.03q.012-.06.02-.12l-.148-.02-.148-.02q-.007.05-.018.1zm.02-.11.148.02.007-.057-.148-.02-.149-.02-.008.056zm.007-.057.148.02.008-.056-.149-.02-.148-.02-.008.056zm.007-.056.149.02a.2.2 0 0 1 .014-.06l-.138-.057-.138-.058a.5.5 0 0 0-.035.135zm.025-.097.139.058.017-.042-.138-.058-.139-.058-.017.042zm.018-.042.138.058.017-.041-.138-.058-.138-.058-.018.041zm.017-.041.138.058.008-.017-.003.004-.009.012a.15.15 0 0 1-.143.048l.031-.146.032-.147a.15.15 0 0 0-.15.053l-.02.031-.022.046zm.022-.041-.031.147h.005l.031-.146.032-.147h-.005zm.005.001-.031.147h.005l.031-.146.032-.147h-.005zm.005.001-.031.147a.15.15 0 0 1-.088-.057l-.002-.004.015.03.136-.062.136-.064-.04-.073q-.003-.007-.017-.021c-.003-.003-.03-.033-.077-.043zm.03.053-.136.064.024.052.136-.063.136-.064-.024-.052z"/><ellipse cx="49.301" cy="24.767" fill="var(--fill-0, white)" rx="3.561" ry="3.845"/><path fill="var(--stroke-0, white)" d="m52.846 25.333-.5-.014zm-.051.373.484.122zm-.093.368-.485-.122zm-.095.377.485.122zm-.097.386-.485-.122zm-.135.384-.456-.207zm-.172.38.455.206zm-.286.269-.183-.465zm-.199.078.184.465zm-.198.079.183.465zm-.416.062-.038.499zm-.217-.016-.038.498zm-.216-.017.038-.499zm-.344.228-.443-.232zm-.127.244-.444-.231zm-.128.244.444.231zm-.33.078-.317.386zm-.203-.167-.317.387zm-.202-.166.317-.387zm-.415-.052-.238-.44zm-.211.114.238.44zm-.535.008.446-.226zm-.224-.442-.446.226zm-.258-.312.263-.425zm-.293-.18-.263.424zm-.244-.234.412-.283zm-.196-.285-.412.284zm-.31-.224.179-.466zm-.426-.163-.18.467zm-.177-.294-.493-.083zm-.402-1.473-.476-.154zm.088-.785-.457.202zm.073-.935-.31-.392zm.498-.414-.341-.366zm.138-.129.342.365zm.138-.129-.342-.365zm.238-.28-.417-.277zm.1-.151-.416-.277zm.331-.442-.366-.34zm.26-.28-.367-.34zm.275-.311-.38-.324zm.147-.172.38.324zm.146-.172-.38-.324zm1.2.147.105-.488zm1.493.195-.44.238zm.666.747.203-.457zm.173.076-.203.457zm.327.2-.31.391zm.31.245-.311.391zm.148.333.5.014zm-.006.212.5.014zm-.006.211-.5-.013zm.107.37.407-.29zm.225.316-.408.29zm.236.346-.418.275zm.246.375.418-.275zm.01.194.029.5zm-.116.007-.03-.5zm-.234.202.5.014zm-.006.189-.5-.014-.005.188.5.014.5.014.005-.189zm-.005.188-.5-.014a1.2 1.2 0 0 1-.036.265l.484.122.485.122q.06-.237.067-.48zm-.051.373-.485-.122-.047.184.485.122.485.122.046-.184zm-.047.184-.485-.122-.046.184.485.122.485.122.046-.184zm-.046.184-.485-.122-.095.377.485.122.485.122.095-.377zm-.095.377-.485-.122-.049.193.485.122.485.122.049-.193zm-.049.193-.485-.122-.048.193.485.122.485.122.048-.193zm-.048.193-.485-.122q-.037.148-.106.3l.456.206.455.206q.105-.23.165-.468zm-.135.384-.456-.207-.086.19.456.207.455.206.086-.19zm-.086.19-.456-.207-.086.19.456.207.455.206.086-.19zm-.086.19-.456-.206-.003.006.001-.001q.002-.001 0 0l-.011.005.183.465.184.465c.25-.099.445-.28.557-.528zm-.286.269-.183-.465-.2.078.184.465.184.465.2-.078zm-.199.078-.183-.465-.199.079.184.465.183.465.2-.079zm-.198.079-.184-.465a.4.4 0 0 1-.194.028l-.038.499-.038.499q.33.025.637-.096zm-.416.062.038-.498-.217-.017-.038.498-.038.499.217.017zm-.217-.016.038-.5-.216-.016-.038.499-.038.498.216.017zm-.216-.017.038-.499a.8.8 0 0 0-.509.13.96.96 0 0 0-.316.365l.443.232.443.23c.016-.03.016-.014-.017.008a.2.2 0 0 1-.12.033zm-.344.228-.443-.232-.128.245.444.23.443.232.127-.244zm-.127.244-.444-.231-.127.244.444.231.443.231.127-.244zm-.128.244-.443-.231c-.016.031.028-.078.183-.114.165-.039.262.048.248.036l-.318.387-.317.386c.12.1.34.229.616.164.265-.062.406-.265.475-.397zm-.33.078.318-.387-.203-.166-.318.386-.317.387.203.166zm-.203-.167.318-.386-.203-.167-.317.387-.318.386.203.167zm-.202-.166.317-.387a.84.84 0 0 0-.97-.105l.238.44.239.44a.1.1 0 0 1-.03.009.2.2 0 0 1-.062.002c-.046-.005-.063-.024-.05-.013zm-.415-.052-.238-.44-.211.114.238.44.238.44.212-.115zm-.211.114-.238-.44-.212.115.238.44.239.44.211-.115zm-.212.115-.238-.44a.2.2 0 0 1 .058-.018.3.3 0 0 1 .15.013c.12.04.158.122.153.112l-.446.226-.446.226c.07.138.2.311.426.386a.73.73 0 0 0 .582-.066zm-.323-.107.446-.226-.112-.221-.446.226-.446.226.112.221zm-.112-.221.446-.226-.112-.221-.446.226-.446.226.112.22zm-.112-.221.446-.226a1.25 1.25 0 0 0-.441-.511l-.263.425-.263.425c-.008-.005.024.013.075.113zm-.258-.312.263-.425-.146-.09-.264.424-.263.426.147.09zm-.147-.09.264-.426-.147-.09-.263.425-.263.425.146.09zm-.146-.09.263-.426a.3.3 0 0 1-.095-.091l-.412.283-.412.284q.157.227.393.374zm-.244-.234.412-.283-.098-.143-.412.284-.412.283.098.143zm-.098-.142.412-.284-.098-.142-.412.283-.412.284.098.142zm-.098-.143.412-.283a1.14 1.14 0 0 0-.543-.407l-.18.466-.179.467c.077.03.086.052.078.04zm-.31-.224.179-.466-.213-.082-.18.466-.178.467.212.082zm-.213-.082.18-.466-.214-.082-.179.467-.18.467.213.081zm-.213-.081.18-.467.008.004.024.015a.3.3 0 0 1 .066.075.25.25 0 0 1 .038.162l-.493-.083-.493-.083a.75.75 0 0 0 .091.52.8.8 0 0 0 .4.324zm-.177-.294.493.083.036-.212-.493-.083-.494-.083-.035.212zm.036-.212.493.083.035-.212-.493-.083-.493-.083-.035.212zm.035-.212.493.083a.93.93 0 0 0-.225-.787l-.375.33-.375.33q.003.005 0 0a.1.1 0 0 1-.01-.036v-.003zm-.107-.374.375-.33-.142-.162-.375.33-.375.331.142.162zm-.142-.162.375-.33-.142-.162-.376.33-.375.331.143.162zm-.143-.161.376-.33c-.004-.005.011.012.02.049a.2.2 0 0 1-.001.083l-.476-.154-.476-.154c-.1.31-.018.609.182.836zm-.08-.352.475.154.061-.19-.475-.153-.476-.154-.062.19zm.06-.19.476.155.062-.19-.476-.154-.476-.154-.061.19zm.062-.19.476.155c.085-.265.05-.528-.054-.763l-.457.203-.457.202c.013.03.015.046.016.05v.002-.002zm-.035-.405.457-.203-.096-.216-.457.202-.457.203.096.216zm-.096-.217.458-.202-.096-.217-.458.203-.457.203.096.216zm-.096-.216.457-.203s.02.046.003.12a.2.2 0 0 1-.065.116l-.31-.392-.31-.392a.8.8 0 0 0-.288.439.8.8 0 0 0 .056.515zm.085-.36.31.393.18-.143-.31-.392-.31-.392-.18.143zm.18-.142.31.392.181-.143-.31-.392-.31-.392-.181.143zm.18-.143.311.392q.193-.153.35-.298l-.343-.365-.341-.366q-.12.113-.287.245zm.319-.271.341.365.138-.129-.342-.365-.341-.365-.138.128zm.137-.129.342.365.137-.129-.341-.365-.342-.365-.137.129zm.138-.129.341.365q.179-.165.313-.368l-.416-.277-.417-.277a1 1 0 0 1-.163.192zm.238-.28.416.277.1-.151-.416-.277-.416-.277-.1.151zm.1-.151.417.277.1-.151-.416-.277-.416-.277-.1.151zm.101-.151.416.277q.078-.117.18-.228l-.366-.34-.366-.34q-.156.167-.28.354zm.23-.291.367.34.13-.14-.367-.34-.367-.34-.13.14zm.13-.14.366.34.13-.14-.367-.34-.366-.34-.13.14zm.13-.14.366.34q.138-.148.29-.327l-.38-.324-.381-.324q-.142.165-.262.296zm.275-.311.381.324.147-.172-.381-.324-.38-.324-.147.172zm.147-.172.38.324.147-.172-.38-.324-.381-.324-.147.172zm.146-.172.381.324a.2.2 0 0 1-.081.046.2.2 0 0 1-.09.004l.154-.476.153-.476a.84.84 0 0 0-.488-.015.83.83 0 0 0-.41.269zm.364-.102-.154.476.218.07.153-.476.153-.476-.217-.07zm.217.07-.154.476.217.07.154-.476.153-.476-.217-.07zm.217.07-.154.475q.237.076.45.123l.105-.489.106-.488a4 4 0 0 1-.354-.097zm.401.11-.105.488.184.04.105-.489.106-.489-.184-.04zm.184.04-.105.488.184.04.106-.49.105-.488-.184-.04zm.185.039-.106.489q.284.058.57.015l-.072-.495-.072-.494a.6.6 0 0 1-.215-.004zm.392.01.073.494.208-.03-.072-.495-.072-.495-.209.03zm.209-.031.072.494.209-.03-.072-.495-.073-.494-.208.03zm.209-.03.072.494a.2.2 0 0 1-.123-.026c-.055-.03-.075-.065-.074-.064l.44-.238.44-.238a.83.83 0 0 0-.338-.344.8.8 0 0 0-.49-.08zm.315.166-.44.238.107.198.44-.238.44-.238-.107-.198zm.107.198-.44.238.107.198.44-.239.44-.238-.107-.197zm.107.197-.44.239c.114.21.282.389.517.493l.203-.457.203-.457-.01-.007a.2.2 0 0 1-.033-.049zm.28.275-.203.457.172.077.203-.457.203-.457-.172-.077zm.172.077-.203.457.173.076.203-.457.203-.457-.173-.076zm.173.076-.203.457q.112.05.22.134l.31-.391.31-.392a2 2 0 0 0-.434-.265zm.327.2-.31.391.154.123.31-.392.311-.392-.154-.122zm.155.122-.31.392.154.122.31-.391.31-.392-.154-.123zm.154.123-.31.391a.1.1 0 0 1-.032-.043c-.01-.023-.009-.036-.009-.028l.5.013.5.014a.89.89 0 0 0-.338-.74zm.149.333-.5-.013-.006.211.5.014.5.014.006-.212zm-.006.212-.5-.014-.006.212.5.013.5.014.006-.211zm-.006.211-.5-.013c-.006.239.056.47.2.673l.407-.29.407-.29c-.006-.009-.015-.023-.014-.066zm.107.37-.407.29.112.158.407-.29.408-.29-.113-.158zm.112.158-.407.29.112.158.408-.29.407-.29-.112-.158zm.113.158-.408.29q.108.15.226.33l.418-.274.417-.275q-.128-.195-.246-.36zm.236.346-.418.275.123.187.418-.275.418-.275-.123-.187zm.123.187-.418.275.124.188.417-.275.418-.275-.123-.188zm.123.188-.417.275q.015.025.008.012a.3.3 0 0 1-.026-.123.455.455 0 0 1 .415-.47l.03.5.029.5a.545.545 0 0 0 .525-.573.7.7 0 0 0-.06-.244 1 1 0 0 0-.086-.152zm.01.194-.03-.5-.115.008.03.499.029.499.115-.007zm-.116.007-.03-.5-.114.007.03.5.03.499.114-.007zm-.114.006-.03-.499a.6.6 0 0 0-.484.29.8.8 0 0 0-.106.391l.5.014.5.014c0-.026.005.029-.042.104a.4.4 0 0 1-.309.186zm-.12.196-.5-.014-.005.189.5.014.5.014.005-.19z"/><path stroke="var(--stroke-0, #f67676)" stroke-linecap="round" stroke-width="2" d="M43 63.753c1.474 2.108 3.354 4.145 3.972 4.255.37.066 1.528.492 2.731 0 2.1-.858 1.49-4.026 1.087-5.488-.271-.988-.84-1.399-1.087-1.475-1.772-.542.326 3.93.297 4.963-.065 2.337-1.788-4.296-1.819-4.488-.084-.525-.092 2.343-.185 2.914-.048.292-.465-1.335-.682-1.885-.075-.19-.219 1.268-.342 2.297-.098.824-.806-1.677-1.177-1.896-.177-.105-.371-.075-.559-.147-.187-.073-.979.31-.736.705.919 1.339 2.469 2 2.964 2.474.25.256.495.546.934 1.284"/><path stroke="var(--stroke-0, #f4c280)" stroke-linecap="round" stroke-width="2" d="M27 59c3.49 2.385 7.47 4.5 12 4.5 5.057 0 10.393-2.426 11.37-3.749.21-.29.417-.517.63-.751"/><defs><radialGradient id="a" cx="0" cy="0" r="1" gradientTransform="rotate(90.774 .272 40.261)scale(39.4703 40.537)" gradientUnits="userSpaceOnUse"><stop stop-color="#fffed8"/><stop offset="1" stop-color="#fcf3a6"/></radialGradient></defs></svg>