<svg xmlns="http://www.w3.org/2000/svg" fill="none" overflow="visible" preserveAspectRatio="none" style="display:block" viewBox="0 0 80 80"><circle cx="40" cy="40" r="40" fill="url(#a)"/><path stroke="var(--stroke-0, #f4c280)" stroke-linecap="round" stroke-width="4" d="M43.117 65.59c-3.02 1.308-7.46 1.792-10.998 1.2-3.95-.662-6.743-2.594-7.343-3.7a6 6 0 0 0-.398-.638"/><path fill="var(--fill-0, #fffeef)" d="M27.227 20.003c.474.008.73.021 1.209.021 2.883 0 6.343 1.027 8.957 4.414 1.714 2.22 2.492 4.831 2.915 6.946.425 2.129.588 4.326.722 5.803.181 1.99.158 5.014-.353 8.16-.499 3.066-1.556 6.855-3.874 9.866-.924 1.2-2.397 2.273-4.054 2.904-1.797.684-4.24 1.004-6.82-.034-.995-.4-1.69-.654-2.248-.86-.456-.168-1.181-.427-1.834-.776-1.693-.903-2.701-2.35-3.272-3.052-1.447-1.78-2.478-4.55-3.042-7.513-.598-3.143-.777-7.05-.096-11.462q.077-.488.24-.937.007-.403.082-.813c.377-2.034 1.102-4.356 2.159-6.638.577-1.246 1.31-2.483 2.516-3.441.549-.436 1.074-.708 1.204-.778l.008-.004c.99-.734 2.205-1.474 3.874-1.718a10.4 10.4 0 0 1 1.707-.088"/><path fill="var(--stroke-0, #f4c280)" d="m27.227 20.003.017-1zm1.209.021v-1zm8.957 4.414.791-.611zm2.915 6.946.98-.196zm.722 5.803-.996.09zm-.353 8.16.987.161zm-3.874 9.866.792.61zm-4.054 2.904.356.935zm-6.82-.034.374-.928zm-2.248-.86.345-.939zm-1.834-.776-.471.883zm-3.272-3.052-.776.63zm-3.042-7.513-.982.187zm-.096-11.462-.989-.153zm.24-.937.94.34.056-.155.004-.164zm.082-.813-.984-.182zm2.159-6.638-.907-.42zm2.516-3.441-.623-.783zm1.204-.778.475.88zm.008-.004.47.882.066-.035.06-.044zm3.874-1.718-.145-.99zm1.707-.088-.018 1c.443.008.738.021 1.227.021v-2c-.471 0-.687-.012-1.192-.02zm1.209.021v1c2.641 0 5.779.933 8.165 4.025l.792-.611.791-.611c-2.84-3.681-6.623-4.802-9.748-4.803zm8.957 4.414-.792.61c1.577 2.044 2.316 4.48 2.726 6.532l.98-.196.981-.196c-.435-2.177-1.253-4.963-3.104-7.361zm2.915 6.946-.981.196c.412 2.064.57 4.197.707 5.697l.996-.09.996-.091c-.132-1.452-.3-3.714-.738-5.908zm.722 5.803-.996.09c.174 1.908.154 4.849-.344 7.91l.987.16.987.161c.525-3.231.55-6.34.362-8.412zm-.353 8.16-.987-.16c-.487 2.996-1.508 6.596-3.68 9.416l.793.61.792.61c2.465-3.202 3.56-7.18 4.069-10.315zm-3.874 9.866-.793-.61c-.798 1.036-2.112 2.007-3.617 2.58l.356.934.356.935c1.81-.69 3.441-1.867 4.49-3.229zm-4.054 2.904-.356-.934c-1.618.616-3.795.896-6.09-.028l-.373.928-.374.928c2.864 1.152 5.573.793 7.549.04zm-6.82-.034.374-.928a72 72 0 0 0-2.277-.87l-.345.938-.346.938c.559.206 1.24.455 2.221.85zm-2.248-.86.345-.939c-.472-.174-1.128-.409-1.709-.719l-.47.882-.471.883c.726.387 1.52.67 1.959.831zm-1.834-.776.47-.882c-1.473-.786-2.345-2.037-2.966-2.801l-.776.63-.776.631c.52.64 1.666 2.285 3.577 3.305zm-3.272-3.052.776-.631c-1.298-1.597-2.286-4.18-2.835-7.069l-.983.187-.982.187c.578 3.039 1.652 5.993 3.248 7.956zm-3.042-7.513.983-.187c-.577-3.032-.755-6.824-.091-11.122l-.989-.153-.988-.153c-.698 4.525-.516 8.547.103 11.802zm-.096-11.462.988.153q.06-.387.193-.75l-.941-.34-.941-.338a6 6 0 0 0-.288 1.122zm.24-.937 1 .021q.006-.328.065-.652l-.983-.182-.984-.182a6 6 0 0 0-.098.975zm.082-.813.983.182c.36-1.948 1.06-4.19 2.083-6.4l-.907-.42-.907-.42c-1.09 2.354-1.843 4.756-2.235 6.876zm2.159-6.638.907.42c.55-1.188 1.203-2.262 2.23-3.078l-.621-.783-.623-.783c-1.383 1.1-2.196 2.5-2.8 3.804zm2.516-3.441.622.783c.472-.375.925-.61 1.057-.682l-.475-.88-.476-.88c-.127.07-.725.379-1.35.876zm1.204-.778.475.88-.042.02-.03.015-.02.008-.004.002h-.001l.005-.002.018-.008.077-.037-.47-.882-.47-.883.073-.035.017-.007.003-.001-.009.003-.098.047zm.008-.004.596.803c.929-.688 1.987-1.321 3.422-1.532l-.145-.99-.144-.988c-1.903.278-3.274 1.125-4.324 1.903zm3.874-1.718.144.99a9.4 9.4 0 0 1 1.545-.078l.018-1 .017-1a11.4 11.4 0 0 0-1.87.099z"/><ellipse cx="30.683" cy="37.175" fill="var(--fill-0, #424242)" rx="7.122" ry="11.534"/><path fill="var(--fill-0, white)" d="m26.825 42.942.333 1.55h1.078l-.872.958.333 1.55-.872-.959-.872.958.333-1.55-.872-.957h1.078z"/><path fill="var(--stroke-0, white)" d="m26.874 43.047-.136.063zm.024.052.136-.063zm.027.11-.15.006zm.003.056.15-.007zm.002.057-.15.007zm.02.11.143-.046zm.018.055-.142.047zm.018.053-.142.047zm.025.11-.15.018zm.013.112.15-.018zm.001.115-.149-.014zm-.01.118-.15-.015zm.009.113.144-.041zm.03.108-.144.04zm.033.108-.142.047zm.111.171-.024.148zm.232 0-.067-.134zm.056-.027-.067-.135zm.056-.028.066.135zm.225.045-.06.138zm.113.03.016-.149zm.056.007-.017.149zm.056.006-.016.149zm.096.002.016.15zm.04-.004.016.149zm.041-.005-.016-.149zm.004.04-.115-.096zm-.036.043.116.096zm-.104.133-.123-.087zm-.033.046.122.087zm-.033.046.122.087zm-.09.07-.057-.139zm-.116.047.057.139zm-.068.09-.149-.024zm-.022.132.148.024zm-.104.134.087.122zm-.047.033-.087-.122zm-.05.072-.15-.011zm-.002.038.15.011zm-.003.039-.15-.011zm.006.094.148-.024zm.018.111-.148.024zm.013.112.15-.01zm.004.057-.15.01zm.004.057.15-.011zm-.015.118.143.044zm-.038.123-.143-.044zm.011.113.13-.077zm.061.102-.129.076zm.054.103-.136.063zm.049.105.136-.063zm.04.106-.143.044zm.033.108.144-.043zm-.004.078.113.098zm-.02.023-.113-.098zm-.02.023-.114-.098zm-.045-.03.136-.063zm-.05-.107-.136.063zm-.085-.075.05-.141zm-.12-.042-.05.142zm-.08-.08-.143.048zm-.04-.116.143-.047zm-.058-.099-.107.106zm-.04-.04.107-.105zm-.04-.04-.106.105zm-.097-.063-.056.139zm-.057-.024-.057.14zm-.058-.023.056-.14zm-.082-.026-.014.15zm-.048-.004.014-.15zm-.07.032.09.12zm-.178.142-.105-.106zm-.04.04.106.106zm-.04.04.106.106zm-.072.086.122.086zm-.066.092-.122-.086zm-.084.228-.144-.042zm-.08.079.044.144zm-.125.038-.044-.143zm-.041-.012.123.085zm.02-.03.125.084zm.022-.032.124.085zm.03-.087-.147-.024zm.035-.222.149.017zm.006-.056-.149-.017zm.007-.057.149.017zm.064-.216-.14-.051zm.006-.114.146-.033zm-.028-.12-.146.033zm.028-.11-.114-.097zm.082-.097.115.097zm.042-.106-.15-.002zm.001-.058.15.002zm0-.057-.15-.002zm-.02-.109.138-.057zm-.043-.103-.139.058zm-.058-.094-.113.099zm-.037-.042-.113.099zm-.038-.043.113-.098zm-.088-.07-.074.13zm-.104-.059-.073.131zm-.091-.069-.107.106zm-.08-.08-.106.106zm-.069-.089-.128.077zm-.059-.098-.128.077zm-.064-.097-.12.089zm-.07-.095.122-.089zm.022-.045-.007.15zm.113.005.006-.15zm.112.018.04-.144zm.45.014-.063.137zm.056.027-.063.136zm.057.026.063-.136zm.106-.007.083.125zm.102-.067-.083-.125zm.055-.09.15.014zm.011-.113.15.014zm.032-.108-.133-.069zm.027-.052.133.069zm.027-.397.147.028zm.02-.11-.147-.028zm.022-.11-.146-.031zm.023-.111-.147-.03zm.02-.11-.15-.02zm.014-.113.149.02zm.025-.097-.138-.058zm.018-.042.138.058zm.017-.041.139.058zm.023-.041-.032.147zm.01.002.03-.147zm.029.053-.136.064zm.024.053-.136.063.024.052.136-.063.136-.063-.024-.053zm.024.052-.136.063a.14.14 0 0 1 .013.053l.15-.007.15-.006a.4.4 0 0 0-.04-.166zm.027.11-.15.006.003.057.15-.007.15-.007-.003-.056zm.003.056-.15.007.003.057.15-.007.15-.007-.003-.056zm.002.057-.15.007a.6.6 0 0 0 .028.15l.143-.046.142-.047a.3.3 0 0 1-.013-.07zm.02.11-.142.048.018.054.142-.047.143-.047-.018-.054zm.018.055-.142.047.018.053.142-.047.143-.047-.018-.053zm.018.053-.142.047a.4.4 0 0 1 .018.081l.149-.018.149-.018a.7.7 0 0 0-.031-.139zm.025.11-.15.018.008.056.148-.018.15-.018-.008-.056zm.006.056-.148.018.006.056.15-.018.148-.018-.007-.056zm.007.056-.149.018a.4.4 0 0 1 .001.083l.15.014.149.014a.7.7 0 0 0-.002-.147zm.001.115-.149-.014-.006.059.15.014.15.014.005-.059zm-.005.059-.15-.014-.005.058.15.015.149.014.005-.059zm-.006.059-.15-.015a.5.5 0 0 0 .015.168l.145-.04.144-.041a.2.2 0 0 1-.004-.058zm.01.113-.145.04.016.054.144-.04.145-.04-.016-.055zm.015.054-.144.04.015.055.144-.04.145-.041-.015-.055zm.015.054-.144.04q.015.059.035.114l.142-.046.143-.046-.031-.102zm.033.108-.142.047.017.053.143-.046.142-.047-.017-.053zm.018.054-.143.046.018.054.142-.046.143-.047-.018-.053zm.017.054-.142.046a.24.24 0 0 0 .194.165l.024-.148.024-.148q.005-.002.024.012a.1.1 0 0 1 .019.026zm.076.063-.024.148.058.01.024-.148.024-.149-.058-.01zm.058.01-.024.148.059.009.024-.148.024-.148-.058-.01zm.059.009-.024.148q.108.017.205-.032l-.066-.134-.067-.135a.04.04 0 0 1-.024.005zm.114-.018.067.134.056-.028-.066-.134-.067-.135-.056.028zm.057-.028.066.134.056-.027-.066-.135-.066-.134-.057.028zm.056-.028.066.135h-.013l.06-.138.059-.138a.28.28 0 0 0-.238.007zm.112-.003-.059.138.056.024.06-.138.06-.138-.057-.024zm.057.024-.06.138.057.024.059-.138.06-.138-.057-.024zm.056.024-.06.138q.076.033.156.042l.017-.15.016-.149a.2.2 0 0 1-.07-.019zm.113.03-.017.15.056.006.017-.15.016-.148-.056-.007zm.056.007-.017.149.057.006.016-.15.016-.148-.056-.006zm.056.006-.016.149a.6.6 0 0 0 .128.002l-.015-.15-.016-.148a.3.3 0 0 1-.065-.002zm.096.002.016.15.04-.005-.015-.15-.016-.148-.04.004zm.04-.004.016.149.04-.004-.015-.15-.016-.149-.04.005zm.041-.005.016.15c-.001 0-.023.003-.052-.008a.14.14 0 0 1-.092-.118c-.005-.042.012-.072.013-.074l.004-.006.115.095.116.096a.3.3 0 0 0 .03-.043.17.17 0 0 0 .02-.1.16.16 0 0 0-.104-.132.2.2 0 0 0-.082-.009zm.004.04-.115-.096-.036.043.115.096.116.096.036-.044zm-.036.043-.115-.096-.036.043.115.096.116.096.036-.043zm-.036.043-.115-.096-.076.099.123.087.122.087q.03-.042.062-.081zm-.068.09-.123-.087-.032.046.122.087.122.087.033-.046zm-.033.046-.122-.087-.033.046.122.087.122.087.033-.046zm-.033.046-.122-.087a.05.05 0 0 1-.025.018l.056.139.057.139a.35.35 0 0 0 .156-.122zm-.09.07-.057-.139-.058.023.057.14.056.138.058-.023zm-.058.023-.057-.139-.058.024.057.139.057.139.057-.024zm-.058.024-.056-.14a.26.26 0 0 0-.16.206l.148.024.148.023-.007.012-.016.014zm-.068.09-.149-.024-.01.066.148.024.148.024.01-.066zm-.011.066-.148-.024-.01.067.147.023.148.024.011-.066zm-.01.066-.149-.023-.001.007.005-.006.087.122.087.122a.3.3 0 0 0 .118-.198zm-.058.1-.087-.122-.047.033.087.123.087.122.047-.034zm-.047.034-.087-.123-.047.034.087.122.087.122.047-.033zm-.047.033-.087-.122a.25.25 0 0 0-.112.183l.15.01.149.012a.1.1 0 0 1-.012.037q-.008.008 0 .002zm-.05.072-.15-.011-.002.038.15.011.15.011.002-.038zm-.002.038-.15-.01-.003.038.15.01.15.012.002-.038zm-.003.039-.15-.011a.6.6 0 0 0 .008.129l.148-.024.148-.024a.3.3 0 0 1-.005-.06zm.006.094-.148.024.009.056.148-.025.148-.024-.01-.055zm.009.055-.148.025.009.055.148-.024.148-.024-.009-.056zm.009.056-.148.024q.009.05.011.099l.15-.01.15-.011a1 1 0 0 0-.015-.126zm.013.112-.15.011.005.057.15-.011.149-.01-.004-.057zm.004.057-.15.01.005.057.15-.01.149-.011-.004-.057zm.004.057-.15.01a.2.2 0 0 1-.008.064l.143.044.143.044a.5.5 0 0 0 .022-.173zm-.015.118-.143-.044-.02.061.144.045.143.044.02-.062zm-.019.062-.143-.045-.02.062.144.044.143.044.02-.061zm-.019.061-.143-.044a.28.28 0 0 0 .025.233l.13-.076.128-.077.003.008q0 .007 0 0zm.011.113-.129.076.03.051.13-.076.129-.077-.03-.05zm.03.05-.128.077.03.051.129-.076.129-.077-.03-.05zm.031.052-.129.076q.026.045.047.09l.136-.063.137-.063a1 1 0 0 0-.062-.117zm.054.103-.136.063.024.053.137-.063.136-.063-.024-.053zm.025.053-.137.063.024.052.137-.063.136-.063-.024-.052zm.024.052-.137.063a1 1 0 0 1 .034.087l.143-.044.144-.043a1 1 0 0 0-.048-.126zm.04.106-.143.044.016.054.144-.044.143-.043-.016-.054zm.017.054-.144.044.016.054.144-.044.144-.043-.017-.054zm.016.054-.144.044c.003.008 0 .005.001-.005a.1.1 0 0 1 .026-.06l.113.099.113.098c.068-.078.048-.174.035-.22zm-.004.078-.113-.099-.02.024.113.098.113.098.02-.023zm-.02.023-.113-.098-.02.023.113.098.113.099.02-.024zm-.02.023-.114-.098a.136.136 0 0 1 .176-.022c.018.012.027.025.029.027q.003.005 0 0l-.136.063-.136.063c.009.02.031.066.076.096a.165.165 0 0 0 .218-.03zm-.045-.03.136-.063-.025-.053-.136.062-.136.063.025.054zm-.025-.054.136-.062-.025-.054-.136.063-.136.063.025.053zm-.025-.053.136-.063a.3.3 0 0 0-.172-.153l-.049.141-.05.142q.007.003.003 0l-.004-.004zm-.085-.075.05-.141-.061-.021-.05.141-.049.142.06.021zm-.06-.02.049-.142-.06-.021-.05.141-.05.142.061.021zm-.06-.022.049-.141.006.005.005.006.002.004-.143.047-.142.047a.27.27 0 0 0 .173.174zm-.08-.08.142-.046-.02-.059-.142.047-.142.048.019.058zm-.02-.058.142-.047-.019-.058-.142.047-.143.047.02.059zm-.02-.058.143-.047a.4.4 0 0 0-.094-.157l-.107.105-.107.106a.1.1 0 0 1 .023.04zm-.058-.099.107-.105-.04-.04-.107.105-.107.105.04.04zm-.04-.04.107-.105-.04-.04-.106.105-.107.105.04.04zm-.04-.04.108-.105a.4.4 0 0 0-.148-.097l-.056.139-.057.139a.1.1 0 0 1 .047.03zm-.097-.063.057-.14-.058-.023-.056.14-.057.138.058.024zm-.057-.024.056-.139-.058-.023-.056.139-.056.139.057.023zm-.058-.023.056-.14a.5.5 0 0 0-.124-.035l-.014.15-.014.149-.006-.001.008.002.038.014zm-.082-.026.014-.15-.024-.001-.014.149-.014.15.024.002zm-.024-.002.014-.15-.024-.002-.014.15-.014.15.024.001zm-.024-.002.014-.15a.2.2 0 0 0-.106.02.4.4 0 0 0-.067.041l.09.12.089.121.013-.009-.012.004a.1.1 0 0 1-.035.002zm-.07.032-.09-.12-.045.034.09.12.089.12.046-.034zm-.046.034-.09-.12-.045.034.09.12.089.12.046-.034zm-.046.034-.09-.12a1 1 0 0 0-.101.088l.105.106.106.107a1 1 0 0 1 .07-.06zm-.086.074-.105-.106-.04.04.105.106.106.106.04-.04zm-.04.04-.105-.107-.04.04.105.107.106.106.04-.04zm-.04.04-.105-.107a1 1 0 0 0-.09.106l.123.087.122.086.056-.066zm-.072.086-.123-.087-.032.046.122.087.123.086.032-.046zm-.033.046-.122-.087-.033.047.123.086.122.087.033-.047zm-.032.046-.123-.086a.5.5 0 0 0-.072.152l.145.04.144.042a.2.2 0 0 1 .028-.061zm-.05.107-.145-.041-.017.06.144.041.144.041.018-.06zm-.018.06-.144-.04-.017.06.144.04.144.042.017-.06zm-.017.06-.144-.04a.04.04 0 0 1 .01-.016l.01-.008.044.144.044.144a.26.26 0 0 0 .18-.182zm-.08.08-.044-.144-.062.02.044.143.043.144.063-.02zm-.062.02-.044-.144-.063.019.044.143.043.144.063-.02zm-.063.018-.044-.143-.005.001h.012q.01-.001.037.005a.14.14 0 0 1 .103.14.14.14 0 0 1-.02.07l-.124-.085-.124-.085a.17.17 0 0 0-.032.095.155.155 0 0 0 .113.153c.037.01.07.005.08.004l.047-.011zm-.041-.012.123.085.021-.031-.123-.085-.124-.085-.021.031zm.02-.03.125.084.02-.031-.123-.085-.124-.085-.021.031zm.022-.032.124.085a.4.4 0 0 0 .055-.147l-.148-.025-.148-.024-.006.024q-.003.007 0 .002zm.03-.087.149.025.009-.055-.148-.025-.148-.025-.01.056zm.01-.055.148.025.01-.056-.149-.025-.148-.024-.009.055zm.01-.056.147.025q.01-.06.017-.12l-.15-.016-.148-.017q-.006.053-.015.104zm.015-.111.149.017.006-.057-.149-.017-.149-.016-.006.056zm.006-.056.15.016.006-.056-.15-.017-.148-.017-.007.057zm.007-.057.149.017a.3.3 0 0 1 .017-.075l-.14-.051-.142-.051a.6.6 0 0 0-.034.144zm.025-.11.141.052.02-.053-.141-.051-.141-.052-.02.053zm.02-.053.14.052.02-.054-.14-.05-.142-.052-.02.053zm.02-.053.14.051a.35.35 0 0 0 .011-.198l-.146.033-.146.034a.05.05 0 0 1 0 .029zm.005-.114.146-.033-.014-.06-.146.033-.146.033.014.06zm-.014-.06.146-.034-.013-.06-.147.033-.146.034.014.06zm-.014-.06.147-.034v.004l-.001.008-.004.01-.114-.098-.114-.097a.27.27 0 0 0-.06.24zm.028-.11.114.097.042-.049-.115-.096-.114-.098-.041.049zm.041-.048.114.096.042-.048-.114-.097-.115-.097-.041.048zm.041-.05.115.098a.3.3 0 0 0 .077-.202l-.15-.001-.15-.002v.002l-.006.009zm.042-.105.15.001.001-.057-.15-.002-.15-.001v.057zm.001-.058.15.002v-.057l-.15-.002-.15-.002v.058zm0-.057.15.002a.4.4 0 0 0-.032-.168l-.138.057-.139.057q.01.023.01.05zm-.02-.109.138-.057-.021-.052-.139.058-.138.057.021.051zm-.022-.051.139-.058-.021-.052-.139.058-.139.058.022.051zm-.02-.052.138-.058a.5.5 0 0 0-.085-.135l-.112.1-.113.098a.2.2 0 0 1 .032.053zm-.06-.094.113-.099-.037-.042-.113.099-.112.099.037.042zm-.037-.042.113-.1-.037-.041-.113.098-.112.1.037.042zm-.037-.043.113-.098a.5.5 0 0 0-.128-.104l-.073.131-.074.131q.03.017.05.04zm-.088-.07.073-.132-.052-.029-.073.131-.073.131.051.03zm-.052-.03.073-.13-.052-.03-.073.131-.073.131.052.03zm-.052-.029.073-.13a.3.3 0 0 1-.058-.044l-.106.105-.107.106a.6.6 0 0 0 .125.094zm-.091-.069.106-.105-.04-.04-.106.105-.107.106.04.04zm-.04-.04.107-.105-.04-.04-.106.105-.107.106.04.04zm-.04-.04.107-.105a.3.3 0 0 1-.047-.061l-.128.077-.13.077a.6.6 0 0 0 .092.118zm-.069-.089.129-.077-.03-.05-.128.078-.129.077.03.05zm-.03-.05.13-.076-.03-.05-.129.078-.128.077.03.049zm-.029-.048.129-.078a1 1 0 0 0-.072-.108l-.12.089-.122.089q.03.042.057.085zm-.064-.097.121-.089-.035-.047-.12.089-.122.088.035.048zm-.035-.047.121-.09-.034-.047-.121.09-.121.088.034.047zm-.034-.048.12-.089q.001-.003.01.02a.13.13 0 0 1-.007.099.13.13 0 0 1-.102.075h-.007l.007-.15.007-.15c-.017 0-.044 0-.072.008a.17.17 0 0 0-.104.087.17.17 0 0 0-.006.128.2.2 0 0 0 .033.06zm.021-.045-.007.15.057.003.006-.15.007-.15-.056-.003zm.056.003-.006.15.056.002.007-.15.006-.15-.056-.002zm.057.002-.007.15a.4.4 0 0 1 .079.013l.04-.145.04-.144a.6.6 0 0 0-.146-.024zm.112.018-.04.145.056.016.04-.145.04-.144-.055-.016zm.056.016-.04.145.056.015.04-.144.041-.145-.056-.015zm.057.016-.04.144a.36.36 0 0 0 .19.002l-.038-.145-.038-.145a.1.1 0 0 1-.034 0zm.112 0 .038.146.056-.015-.038-.145-.038-.145-.056.015zm.056-.014.039.145.056-.015-.038-.145-.039-.145-.056.015zm.057-.015.038.145h.003l.008.003.063-.136.063-.137a.3.3 0 0 0-.214-.02zm.112.011-.063.137.056.026.063-.136.064-.136-.057-.027zm.056.027-.063.136.056.026.064-.136.063-.136-.056-.026zm.057.026-.064.136a.25.25 0 0 0 .253-.018l-.083-.125-.082-.126.02-.006.019.003zm.106-.007.083.125.05-.034-.082-.125-.083-.125-.05.033zm.05-.034.084.125.05-.033-.082-.125-.083-.125-.05.033zm.052-.033.082.125a.27.27 0 0 0 .123-.2l-.15-.015-.149-.014.005-.015.006-.006zm.055-.09.15.014.005-.056-.15-.014-.149-.015-.005.057zm.006-.056.15.014.005-.057-.15-.014-.15-.014-.005.056zm.005-.057.15.014a.14.14 0 0 1 .015-.053l-.133-.07-.133-.068a.5.5 0 0 0-.048.163zm.032-.108.134.069.026-.052-.133-.069-.134-.068-.026.051zm.027-.052.133.069.027-.052-.134-.069-.133-.068-.027.052zm.026-.052.134.069a.33.33 0 0 0 .032-.203l-.148.023-.148.023q.002.013-.003.02zm.018-.111.148-.023-.009-.06-.148.023-.148.023.009.06zm-.01-.06.15-.022-.01-.06-.148.023-.148.023.009.06zm-.008-.059.148-.023a.2.2 0 0 1 0-.064l-.147-.028-.147-.027a.5.5 0 0 0-.002.165zm.001-.115.147.028.01-.056-.147-.027-.147-.027-.01.055zm.01-.055.148.027.01-.055-.147-.027-.148-.028-.01.056zm.01-.055.148.027.021-.107-.147-.03-.146-.031-.023.113zm.022-.11.147.03.012-.055-.147-.03-.147-.031-.012.055zm.012-.056.147.03.011-.054-.147-.031-.147-.03-.011.055zm.011-.055.147.03q.012-.06.02-.121l-.148-.02-.148-.02q-.007.05-.018.1zm.02-.11.148.019.007-.056-.148-.02-.149-.02-.007.056zm.007-.057.148.02.008-.056-.149-.02-.148-.02-.008.056zm.007-.056.149.02a.2.2 0 0 1 .015-.06l-.139-.057-.138-.058a.5.5 0 0 0-.035.135zm.025-.097.139.058.017-.042-.138-.058-.139-.058-.017.042zm.018-.042.138.058.018-.041-.139-.058-.138-.059-.018.042zm.017-.041.139.058.007-.017-.003.004-.009.012a.15.15 0 0 1-.143.048l.032-.146.031-.147a.15.15 0 0 0-.15.053l-.02.031-.022.045zm.023-.041-.032.147h.005l.031-.146.032-.147h-.005zm.004.001-.031.147h.005l.031-.146.032-.147h-.005zm.005.001-.031.147a.15.15 0 0 1-.074-.04l-.014-.017-.002-.004.015.03.136-.063.136-.063-.04-.073-.017-.021c-.003-.003-.03-.033-.077-.043zm.03.053-.136.064.024.052.136-.063.136-.064-.024-.052z"/><path fill="var(--fill-0, #fffeef)" d="M50.593 20.004c.474.008.73.021 1.21.021 2.883 0 6.343 1.027 8.956 4.413 1.715 2.221 2.493 4.832 2.915 6.946.426 2.13.589 4.327.723 5.803.181 1.99.158 5.015-.354 8.161-.498 3.065-1.555 6.854-3.874 9.866-.923 1.199-2.396 2.273-4.053 2.904-1.797.684-4.24 1.003-6.82-.034-.996-.401-1.69-.655-2.249-.86-.455-.168-1.18-.428-1.834-.776-1.692-.903-2.7-2.35-3.271-3.053-1.447-1.78-2.478-4.549-3.042-7.513-.598-3.143-.778-7.05-.097-11.461.05-.326.133-.639.24-.937q.008-.403.083-.814c.376-2.034 1.102-4.355 2.159-6.637.577-1.247 1.31-2.484 2.515-3.442.55-.436 1.075-.708 1.204-.778l.01-.004c.989-.733 2.203-1.473 3.872-1.718a10.4 10.4 0 0 1 1.707-.088"/><path fill="var(--stroke-0, #f4c280)" d="m50.593 20.004.018-1zm1.21.021v-1zm8.956 4.413.792-.61zm2.915 6.946.98-.196zm.723 5.803.996-.09zm-.354 8.161.987.16zm-3.874 9.866.793.61zm-4.053 2.904.356.934zm-6.82-.034-.373.927zm-2.249-.86-.345.938zm-1.834-.776-.47.882zm-3.271-3.053.776-.63zM38.9 45.882l-.983.187zm-.097-11.461-.988-.153zm.24-.937.941.339.056-.154.003-.164zm.083-.814-.984-.182zm2.159-6.637-.908-.42zM43.8 22.59l-.622-.783zm1.204-.778-.464-.886-.011.006zm.01-.004.476.88.062-.034.056-.042zm3.872-1.718-.145-.989zm1.707-.088-.017 1c.443.008.738.022 1.226.022v-2c-.47 0-.686-.012-1.191-.021zm1.21.022v1c2.641 0 5.778.932 8.165 4.024l.791-.61.792-.612c-2.841-3.68-6.623-4.802-9.749-4.802zm8.956 4.413-.791.611c1.577 2.044 2.316 4.48 2.726 6.531l.98-.196.98-.196c-.434-2.177-1.252-4.962-3.103-7.36zm2.915 6.946-.98.196c.412 2.064.57 4.198.707 5.698l.996-.09.996-.092c-.133-1.452-.3-3.714-.738-5.908zm.723 5.803-.996.09c.174 1.909.153 4.85-.345 7.91l.987.161.987.16c.526-3.23.552-6.34.363-8.412zm-.354 8.161-.987-.16c-.487 2.996-1.507 6.595-3.679 9.415l.792.61.793.61c2.465-3.201 3.559-7.18 4.069-10.314zm-3.874 9.866-.792-.61c-.798 1.036-2.113 2.006-3.617 2.58l.356.934.356.934c1.809-.689 3.441-1.866 4.49-3.228zm-4.053 2.904-.356-.935c-1.618.616-3.795.897-6.09-.027l-.374.928-.373.927c2.863 1.153 5.573.794 7.549.041zm-6.82-.034.374-.928c-1.011-.407-1.718-.665-2.277-.871l-.346.938-.345.939c.558.205 1.24.455 2.221.85zm-2.249-.86.346-.94c-.472-.173-1.128-.408-1.709-.718l-.47.882-.471.882c.725.387 1.52.67 1.959.832zm-1.834-.776.471-.882c-1.473-.787-2.345-2.037-2.966-2.802l-.776.631-.776.63c.52.64 1.665 2.285 3.577 3.305zm-3.271-3.053.776-.63c-1.298-1.598-2.286-4.181-2.836-7.07l-.982.187-.983.187c.579 3.04 1.653 5.993 3.249 7.957zM38.9 45.882l.982-.186c-.577-3.033-.754-6.825-.09-11.123l-.989-.153-.988-.152c-.698 4.525-.517 8.547.102 11.801zm-.097-11.461.989.152q.06-.386.192-.75l-.94-.339-.941-.339a6 6 0 0 0-.288 1.123zm.24-.937 1 .02q.007-.327.066-.651l-.983-.183-.984-.182q-.09.496-.098.975zm.083-.814.983.183c.36-1.948 1.06-4.19 2.083-6.4l-.907-.42-.908-.42c-1.09 2.353-1.842 4.755-2.235 6.875zm2.159-6.637.907.42c.55-1.188 1.203-2.262 2.23-3.079l-.622-.783-.622-.783c-1.383 1.1-2.197 2.5-2.8 3.805zM43.8 22.59l.622.783c.472-.375.926-.61 1.058-.681l-.476-.88-.475-.88c-.127.07-.725.378-1.35.875zm1.204-.778.465.886-.066.031-.015.007-.004.001.007-.003.02-.008.079-.039-.477-.879-.476-.879a1 1 0 0 1 .092-.044l.005-.002h-.002l-.004.003-.018.007-.03.013-.04.02zm.01-.004.594.804c.93-.689 1.988-1.322 3.423-1.532l-.145-.99-.145-.989c-1.902.279-3.273 1.125-4.323 1.904zm3.872-1.718.145.99a9.4 9.4 0 0 1 1.545-.078l.017-1 .018-1a11.4 11.4 0 0 0-1.87.099z"/><ellipse cx="54.049" cy="37.175" fill="var(--fill-0, #424242)" rx="7.122" ry="11.534"/><path fill="var(--fill-0, white)" d="m50.191 42.942.333 1.55h1.078l-.872.958.333 1.55-.872-.959-.872.958.333-1.55-.872-.957h1.078z"/><path fill="var(--stroke-0, white)" d="m50.24 43.047-.136.063zm.024.052.136-.063zm.027.11-.15.006zm.003.056.15-.007zm.002.057-.15.007zm.02.11.143-.046zm.018.055-.142.047zm.018.053-.142.047zm.025.11-.15.018zm.013.112.149-.018zm.001.115-.149-.014zm-.01.118-.15-.015zm.009.113.144-.041zm.03.108-.144.04zm.033.108-.143.047zm.111.17-.024.149zm.231.002-.066-.135zm.057-.028-.067-.135zm.056-.028.066.135zm.225.045-.06.138zm.112.03.017-.149zm.057.007-.017.149zm.056.006-.016.149zm.097.002.015.149zm.04-.004.015.149zm.04-.005-.016-.149zm.004.04-.115-.096zm-.036.043.116.096zm-.104.133-.123-.087zm-.033.046.122.087zm-.033.046.122.087zm-.09.07-.057-.14zm-.116.047.056.139zm-.068.09-.148-.024zm-.022.132.148.024zm-.104.134.087.122zm-.047.033-.087-.122zm-.05.072-.15-.011zm-.002.038.15.011zm-.003.039-.15-.011zm.006.094.148-.024zm.018.111-.148.024zm.013.112.15-.01zm.004.057-.15.01zm.004.057.15-.011zm-.015.118.144.044zm-.038.123-.143-.044zm.011.113.13-.077zm.06.102-.128.076zm.055.103-.136.063zm.049.105.136-.063zm.04.106-.143.044zm.033.108.144-.043zm-.004.078.113.098zm-.02.023-.113-.098zm-.02.023-.114-.098zm-.045-.03.136-.063zm-.05-.107-.136.063zm-.085-.075.05-.141zm-.12-.042-.05.142zm-.08-.08-.143.048zm-.04-.116.143-.047zm-.058-.099-.107.105zm-.04-.04.107-.105zm-.04-.04-.106.105zm-.097-.063-.056.139zm-.057-.024-.057.14zm-.058-.023.056-.14zm-.082-.026-.014.15zm-.048-.004.014-.15zm-.07.032.09.12zm-.178.142-.105-.106zm-.04.04.106.106zm-.04.04.106.106zm-.072.086.122.086zm-.066.092-.122-.086zm-.084.228-.144-.042zm-.08.079.044.144zm-.125.038-.044-.143zm-.042-.012.124.085zm.022-.031.123.085zm.021-.031.124.085zm.03-.087-.147-.024zm.035-.222.149.017zm.006-.056-.149-.017zm.006-.057.15.017zm.065-.216-.14-.051zm.006-.114.146-.033zm-.028-.12-.146.032zm.028-.11-.114-.097zm.082-.097.115.097zm.042-.106-.15-.002zm.001-.058.15.002zm0-.057-.15-.002zm-.02-.109.138-.058zm-.043-.103-.139.057zm-.058-.094-.113.099zm-.038-.042-.112.099zm-.037-.043.113-.098zm-.089-.07-.073.13zm-.103-.059-.073.131zm-.091-.069-.107.106zm-.08-.08-.106.106zm-.069-.089-.128.077zm-.059-.098-.128.077zm-.064-.097-.121.089zm-.07-.095.121-.089zm.022-.045-.007.15zm.112.005.007-.15zm.113.018.04-.144zm.45.014-.063.137zm.056.027-.063.136zm.056.026.064-.136zm.107-.008.083.126zm.102-.066-.083-.125zm.055-.09.15.014zm.011-.113.15.014zm.032-.108-.133-.069zm.027-.052.133.069zm.027-.397.148.028zm.02-.11-.147-.028zm.022-.11-.146-.031zm.023-.111-.147-.03zm.02-.111-.15-.02zm.014-.112.149.02zm.025-.097-.138-.058zm.018-.042.138.058zm.017-.042.138.059zm.022-.04-.031.147zm.01.002.032-.147zm.03.053-.136.064zm.024.053-.136.063.024.052.136-.063.136-.063-.024-.053zm.024.052-.136.063a.14.14 0 0 1 .013.053l.15-.007.15-.006a.4.4 0 0 0-.04-.166zm.027.11-.15.006.003.057.15-.007.15-.007-.003-.056zm.003.056-.15.007.003.057.15-.007.15-.007-.003-.056zm.002.057-.15.007a.6.6 0 0 0 .028.15l.143-.046.142-.047a.3.3 0 0 1-.013-.07zm.02.11-.142.048.018.054.142-.047.143-.047-.018-.054zm.018.055-.142.047.018.053.142-.047.143-.047-.018-.053zm.018.053-.142.047a.4.4 0 0 1 .018.081l.149-.018.148-.018a1 1 0 0 0-.03-.139zm.025.11-.15.018.007.056.15-.018.148-.018-.006-.056zm.006.056-.149.018.007.056.15-.018.148-.018-.007-.056zm.007.056-.149.018a.4.4 0 0 1 .001.083l.15.014.149.014a.7.7 0 0 0-.002-.147zm.001.115-.149-.014-.006.059.15.014.15.014.005-.059zm-.005.059-.15-.014-.005.058.15.015.148.014.006-.059zm-.006.059-.15-.015a.5.5 0 0 0 .016.168l.144-.04.144-.041a.2.2 0 0 1-.005-.058zm.01.113-.145.04.016.054.144-.04.145-.04-.016-.055zm.015.054-.144.04.015.055.144-.04.145-.041-.015-.055zm.015.054-.144.04q.015.059.034.114l.143-.046.143-.046-.031-.102zm.033.108-.143.047.018.053.143-.046.142-.047-.017-.053zm.018.054-.143.046.017.054.143-.046.143-.047-.018-.053zm.017.054-.143.046a.24.24 0 0 0 .195.165l.024-.148.024-.148q.005-.002.024.012a.1.1 0 0 1 .019.026zm.076.063-.024.148.058.01.024-.149.025-.148-.059-.01zm.058.01-.024.148.059.009.024-.148.024-.148-.058-.01zm.059.009-.024.148q.108.017.205-.032l-.067-.134-.066-.135q-.016.008-.024.005zm.114-.018.067.134.056-.028-.066-.134-.067-.135-.056.028zm.057-.028.066.134.056-.027-.066-.135-.066-.134-.057.027zm.056-.028.066.135h-.013l.06-.138.059-.138a.28.28 0 0 0-.238.007zm.112-.003-.059.138.056.024.06-.138.059-.138-.056-.024zm.057.024-.06.138.057.024.059-.138.06-.138-.057-.024zm.056.024-.06.138q.076.032.156.042l.017-.15.016-.149a.2.2 0 0 1-.07-.019zm.112.03-.016.15.056.006.017-.15.016-.148-.056-.007zm.057.007-.017.149.057.006.016-.15.016-.148-.056-.006zm.056.006-.016.149a.6.6 0 0 0 .128.002l-.015-.15-.016-.148a.3.3 0 0 1-.065-.002zm.097.002.015.149.04-.004-.015-.15-.016-.149-.04.005zm.04-.004.015.149.04-.004-.015-.15-.016-.149-.04.004zm.04-.005.016.15c-.001 0-.023.003-.052-.008a.14.14 0 0 1-.092-.118c-.005-.043.012-.072.013-.074l.004-.006.115.095.116.096a.3.3 0 0 0 .03-.043.17.17 0 0 0 .02-.1.16.16 0 0 0-.104-.132.2.2 0 0 0-.082-.009zm.004.04-.115-.096-.036.043.115.096.116.096.036-.044zm-.036.043-.115-.096-.036.043.115.096.116.096.036-.043zm-.036.043-.115-.096-.076.099.123.087.122.087q.03-.042.062-.081zm-.068.09-.123-.087-.033.046.123.087.122.087.033-.046zm-.033.046-.123-.087-.032.046.122.087.122.087.033-.046zm-.033.046-.122-.087a.05.05 0 0 1-.025.018l.056.139.057.139a.35.35 0 0 0 .156-.122zm-.09.07-.057-.14-.058.024.057.14.056.138.058-.023zm-.058.023-.057-.139-.057.024.056.139.056.139.058-.024zm-.058.024-.056-.14a.26.26 0 0 0-.16.206l.148.024.148.023-.007.012a.04.04 0 0 1-.017.014zm-.068.09-.148-.024-.011.066.148.024.148.024.01-.066zm-.011.066-.148-.024-.01.067.147.023.148.024.011-.066zm-.01.066-.149-.023-.001.007.005-.006.087.122.087.122a.3.3 0 0 0 .118-.198zm-.058.1-.087-.122-.047.033.087.123.087.122.047-.034zm-.047.034-.087-.123-.047.034.087.122.087.122.047-.033zm-.047.033-.087-.122a.25.25 0 0 0-.112.183l.15.01.149.012a.1.1 0 0 1-.012.037q-.009.008 0 .002zm-.05.072-.15-.011-.002.038.15.011.15.011.002-.038zm-.002.038-.15-.01-.003.038.15.01.15.012.002-.038zm-.003.039-.15-.011a.6.6 0 0 0 .008.129l.148-.024.148-.024a.3.3 0 0 1-.005-.06zm.006.094-.148.024.009.056.148-.025.148-.024-.01-.055zm.009.055-.148.025.009.055.148-.024.148-.024-.01-.056zm.009.056-.148.024q.008.05.011.099l.15-.01.15-.011a1 1 0 0 0-.015-.126zm.013.112-.15.011.004.057.15-.011.15-.01-.004-.057zm.004.057-.15.01.005.057.15-.01.149-.011-.004-.057zm.004.057-.15.01a.2.2 0 0 1-.008.064l.143.044.144.044a.5.5 0 0 0 .02-.173zm-.015.118-.143-.044-.02.061.144.044.144.045.019-.062zm-.019.061-.143-.044-.02.062.144.044.143.044.02-.061zm-.019.062-.143-.044a.28.28 0 0 0 .025.233l.13-.076.128-.077.003.008q0 .007 0 0zm.011.113-.129.076.03.051.13-.076.129-.077-.03-.05zm.03.05-.128.077.03.051.129-.076.129-.077-.03-.05zm.03.052-.128.076q.026.045.047.09l.136-.063.137-.063a1 1 0 0 0-.062-.117zm.055.103-.136.063.024.052.136-.062.137-.063-.024-.053zm.025.053-.137.062.024.053.137-.063.136-.063-.024-.052zm.024.052-.136.063a1 1 0 0 1 .033.087l.143-.044.144-.043a1 1 0 0 0-.048-.126zm.04.106-.143.044.016.054.144-.044.143-.043-.016-.054zm.017.054-.144.044.016.054.144-.044.144-.043-.017-.054zm.016.054-.144.044c.003.008 0 .005.001-.005 0-.012.005-.036.026-.06l.113.099.113.098c.068-.078.048-.174.035-.22zm-.004.078-.113-.099-.02.024.113.098.113.098.02-.023zm-.02.023-.113-.098-.02.023.113.098.113.099.02-.024zm-.02.023-.114-.098a.136.136 0 0 1 .176-.022.1.1 0 0 1 .028.027q.004.005 0 0l-.135.063-.136.063a.23.23 0 0 0 .076.096.164.164 0 0 0 .218-.03zm-.045-.03.136-.063-.025-.054-.136.063-.136.063.025.054zm-.025-.054.136-.063-.025-.053-.136.063-.136.063.025.053zm-.025-.053.136-.063a.3.3 0 0 0-.172-.153l-.049.141-.05.142q.007.003.003 0l-.003-.003v-.001zm-.085-.075.05-.141-.061-.021-.05.141-.049.142.06.021zm-.06-.02.049-.142-.06-.021-.05.141-.05.142.061.02zm-.06-.022.049-.141.006.005.007.01-.143.047-.142.047a.27.27 0 0 0 .173.174zm-.08-.08.142-.047-.02-.058-.142.047-.142.047.019.059zm-.02-.058.142-.047-.019-.058-.142.047-.143.047.02.058zm-.02-.058.143-.047a.4.4 0 0 0-.094-.157l-.107.105-.107.105a.1.1 0 0 1 .023.041zm-.058-.099.107-.105-.04-.04-.107.105-.107.105.04.04zm-.04-.04.107-.105-.04-.04-.106.105-.107.105.04.04zm-.04-.04.108-.105a.4.4 0 0 0-.148-.097l-.057.139-.056.139q.032.013.047.03zm-.097-.063.057-.14-.058-.023-.056.14-.057.138.058.024zm-.057-.024.056-.139-.058-.023-.056.139-.056.139.057.023zm-.058-.023.056-.14a.5.5 0 0 0-.124-.035l-.014.15-.014.149-.006-.001.008.002.038.014zm-.082-.026.014-.15-.024-.001-.014.149-.014.15.024.002zm-.024-.002.014-.15-.024-.002-.014.15-.014.15.024.001zm-.024-.002.014-.15a.2.2 0 0 0-.106.02.4.4 0 0 0-.067.041l.09.12.089.121.013-.009-.012.004a.1.1 0 0 1-.035.002zm-.07.032-.09-.12-.045.034.09.12.089.12.046-.034zm-.046.034-.09-.12-.045.034.09.12.089.12.046-.034zm-.046.034-.09-.12a1 1 0 0 0-.101.088l.105.106.106.106a1 1 0 0 1 .07-.06zm-.086.074-.105-.106-.04.04.105.106.106.106.04-.04zm-.04.04-.105-.107-.04.04.105.107.106.106.04-.04zm-.04.04-.105-.107a1 1 0 0 0-.09.106l.123.087.122.086.056-.066zm-.072.086-.123-.087-.032.046.122.087.123.086.032-.046zm-.033.046-.122-.087-.033.047.122.086.123.087.033-.047zm-.033.046-.122-.086a.5.5 0 0 0-.072.152l.145.04.144.042a.2.2 0 0 1 .028-.061zm-.05.107-.144-.041-.017.06.144.041.145.041.017-.06zm-.017.06-.144-.041-.017.06.144.042.144.04.018-.06zm-.017.06-.144-.04q0-.004.01-.016l.01-.008.044.144.044.144a.26.26 0 0 0 .18-.182zm-.08.08-.044-.144-.062.02.043.143.044.144.063-.02zm-.063.019-.043-.143-.063.019.044.143.043.144.063-.02zm-.062.02-.044-.144-.005.001h.012q.01-.001.037.005a.144.144 0 0 1 .092.192l-.01.018-.124-.085-.123-.085c-.006.01-.031.045-.032.095a.156.156 0 0 0 .113.153c.037.01.07.005.08.004l.047-.011zm-.042-.013.124.085.021-.031-.123-.085-.124-.085-.021.031zm.022-.031.123.085.022-.031-.124-.085-.124-.085-.021.031zm.021-.031.124.085a.4.4 0 0 0 .054-.147l-.147-.025-.148-.024-.006.024q-.003.007 0 .002zm.03-.087.148.025.01-.055-.148-.025-.148-.025-.01.056zm.01-.055.148.025.01-.056-.149-.025-.148-.024-.01.055zm.01-.056.147.025q.01-.06.017-.12l-.15-.016-.148-.017q-.006.053-.015.104zm.015-.111.149.017.006-.057-.149-.017-.149-.016-.006.056zm.006-.056.15.016.006-.056-.15-.017-.149-.017-.006.057zm.006-.057.15.017a.3.3 0 0 1 .017-.075l-.14-.051-.142-.051a.6.6 0 0 0-.034.144zm.026-.11.141.052.02-.053-.141-.052-.141-.05-.02.053zm.02-.053.14.052.02-.054-.14-.05-.142-.052-.02.053zm.02-.053.14.051a.35.35 0 0 0 .011-.198l-.146.033-.146.034a.05.05 0 0 1 0 .029zm.005-.114.146-.033-.014-.06-.146.033-.146.033.014.06zm-.014-.06.146-.034-.014-.06-.146.033-.146.033.014.061zm-.014-.06.146-.034v.012l-.004.01-.114-.098-.114-.097a.27.27 0 0 0-.06.24zm.028-.11.114.097.041-.049-.114-.097-.114-.097-.041.049zm.041-.049.114.097.042-.048-.115-.097-.114-.097-.041.048zm.041-.048.115.097a.3.3 0 0 0 .077-.202l-.15-.001-.15-.002v.002l-.006.009zm.042-.106.15.001.001-.057-.15-.002-.15-.001v.057zm.001-.058.15.002v-.057l-.15-.002-.15-.002v.058zm0-.057.15.002a.4.4 0 0 0-.032-.169l-.138.058-.139.057q.01.023.01.05zm-.02-.109.138-.058-.021-.051-.139.057-.138.058.021.051zm-.022-.052.139-.057-.022-.052-.138.058-.139.057.022.052zm-.021-.051.139-.058a.5.5 0 0 0-.085-.135l-.112.099-.113.099a.2.2 0 0 1 .032.052zm-.058-.094.112-.099-.037-.042-.113.099-.112.099.037.042zm-.038-.042.113-.1-.037-.041-.113.098-.112.1.037.042zm-.037-.043.113-.098a.5.5 0 0 0-.128-.104l-.074.131-.073.131q.03.017.05.04zm-.089-.07.074-.132-.052-.029-.073.131-.074.131.052.029zm-.051-.03.073-.13-.052-.03-.073.131-.073.131.051.03zm-.052-.029.073-.13a.3.3 0 0 1-.058-.044l-.106.105-.107.106a.6.6 0 0 0 .125.094zm-.091-.069.106-.105-.04-.04-.106.105-.107.106.04.04zm-.04-.04.107-.105-.04-.04-.107.105-.106.106.04.04zm-.04-.04.107-.105a.3.3 0 0 1-.047-.061l-.129.077-.128.077a.6.6 0 0 0 .09.118zm-.069-.089.129-.077-.03-.05-.128.078-.129.077.03.05zm-.03-.05.13-.077-.03-.049-.129.078-.128.077.03.049zm-.029-.048.129-.078a1 1 0 0 0-.072-.108l-.121.089-.121.089q.03.042.057.085zm-.064-.097.121-.089-.035-.047-.12.089-.122.088.035.048zm-.035-.047.121-.09-.035-.047-.12.09-.121.088.034.047zm-.035-.048.121-.089q0-.003.01.02a.13.13 0 0 1-.007.099.13.13 0 0 1-.102.075h-.007l.007-.15.007-.15a.2.2 0 0 0-.072.008.17.17 0 0 0-.104.087.17.17 0 0 0-.006.128.2.2 0 0 0 .033.06zm.022-.045-.007.15.057.003.006-.15.007-.15-.056-.003zm.056.003-.006.15.056.002.006-.15.007-.15-.056-.002zm.056.002-.006.15a.4.4 0 0 1 .079.013l.04-.145.04-.144a.7.7 0 0 0-.146-.024zm.113.018-.04.145.056.016.04-.145.04-.144-.056-.016zm.056.016-.04.145.056.015.04-.144.04-.145-.055-.015zm.056.016-.04.144a.36.36 0 0 0 .191.002l-.038-.145-.038-.145a.1.1 0 0 1-.034 0zm.113 0 .038.146.056-.015-.038-.145-.038-.145-.056.015zm.056-.014.038.145.057-.015-.038-.145-.039-.145-.056.015zm.056-.015.039.145h.003l.008.003.063-.136.063-.137a.3.3 0 0 0-.214-.02zm.113.011-.063.137.056.026.063-.136.063-.136-.056-.027zm.056.027-.063.136.056.026.064-.136.063-.136-.056-.026zm.056.026-.063.136a.25.25 0 0 0 .253-.018l-.083-.125-.082-.126.02-.006a.04.04 0 0 1 .019.003zm.107-.008.083.126.05-.034-.082-.125-.083-.125-.05.033zm.05-.033.084.125.05-.033-.082-.125-.083-.125-.05.033zm.052-.033.082.125a.27.27 0 0 0 .123-.201l-.15-.014-.149-.014.005-.015.006-.006zm.055-.09.15.014.005-.056-.15-.014-.149-.015-.005.057zm.006-.056.15.014.004-.057-.149-.014-.15-.014-.005.056zm.005-.057.15.014a.2.2 0 0 1 .016-.054l-.134-.068-.133-.069a.5.5 0 0 0-.048.163zm.032-.108.133.068.027-.051-.133-.069-.134-.069-.026.052zm.027-.052.133.069.027-.052-.134-.069-.133-.068-.027.051zm.026-.052.134.069a.33.33 0 0 0 .032-.203l-.148.023-.148.023a.03.03 0 0 1-.003.02zm.018-.111.148-.023-.009-.06-.148.023-.148.023.009.06zm-.01-.06.15-.022-.01-.06-.148.023-.148.023.009.06zm-.008-.059.148-.023a.2.2 0 0 1 0-.064l-.147-.028-.148-.027a.5.5 0 0 0-.002.165zm.001-.115.148.028.01-.056-.148-.027-.147-.028-.01.056zm.01-.055.148.027.01-.055-.147-.027-.148-.028-.01.055zm.01-.055.148.027.021-.107-.147-.03-.146-.031-.023.113zm.022-.11.147.03.012-.055-.147-.03-.147-.031-.011.055zm.012-.056.147.03.011-.055-.147-.03-.147-.03-.011.055zm.011-.055.147.03q.012-.06.02-.121l-.148-.02-.148-.02q-.007.05-.018.1zm.02-.111.148.02.007-.056-.148-.02-.149-.02-.008.056zm.007-.056.148.02.008-.056-.149-.02-.148-.02-.008.056zm.007-.056.149.02a.2.2 0 0 1 .014-.06l-.138-.057-.138-.058a.5.5 0 0 0-.035.135zm.025-.097.139.058.017-.042-.138-.058-.139-.058-.017.042zm.018-.042.138.058.017-.041-.138-.059-.138-.058-.018.042zm.017-.042.138.059.008-.017-.003.004-.009.012a.15.15 0 0 1-.143.048l.031-.146.032-.147a.15.15 0 0 0-.15.053l-.02.031-.022.045zm.022-.04-.031.147h.005l.031-.146.032-.147h-.005zm.005 0-.031.148h.005l.031-.146.032-.147h-.005zm.005.002-.031.147a.15.15 0 0 1-.088-.057l-.002-.004.015.03.136-.063.136-.063-.04-.073-.017-.021c-.003-.003-.03-.033-.077-.043zm.03.053-.136.064.024.052.136-.063.136-.064-.024-.052z"/><path stroke="var(--stroke-0, #b08144)" stroke-linecap="round" stroke-width="2" d="M45.693 19.962c.093-.092 2.093-1.63 4.307-2.462 2.215-.831 4.115-1.5 9.5-1.5m-26.693 3.962c-.093-.092-2.093-1.63-4.307-2.462-2.215-.831-4.114-1.5-9.5-1.5"/><defs><radialGradient id="a" cx="0" cy="0" r="1" gradientTransform="rotate(90.774 .272 40.261)scale(39.4703 40.537)" gradientUnits="userSpaceOnUse"><stop stop-color="#fffed8"/><stop offset="1" stop-color="#fcf3a6"/></radialGradient></defs></svg>