<svg xmlns="http://www.w3.org/2000/svg" fill="none" overflow="visible" preserveAspectRatio="none" style="display:block" viewBox="0 0 26.733 12.103"><path fill="var(--stroke-0, #f4c280)" d="M2.02.02C1.49-.067.981.134.606.517.231.901.02 1.445.02 2.02s.211 1.12.586 1.503.884.584 1.414.497q1.388-.224 2.748-.399a77 77 0 0 1 9.522-.62c1.806-.003 3.624 0 5.428.015.901.009 1.814.02 2.71.042.452.011.89.024 1.335.045q.34.014.647.038.162.013.29.03l.091.013c-.013-.014-.062.026-.343-.19.126.126.117.144.125.242.004.1-.052.323-.18.566-.256.494-.712 1.03-1.206 1.524-1.001.994-2.193 1.897-3.41 2.726-2.411 1.356-6.46 1.495-9.388.842C9.048 8.567 7.98 7.16 6.01 5.687l.376.327c-.583-.74-1.173-1.545-1.774-2.347l.1.135q0-.006-.015-.038c-.232-.489-.546-1.432-.794-2.25A1.87 1.87 0 0 0 2.9.373 2.04 2.04 0 0 0 1.346.307 2.04 2.04 0 0 0 .188 1.344a1.87 1.87 0 0 0-.05 1.52c.382.901.672 1.695 1.33 2.809q.065.103.15.225l.1.135C2.38 6.77 3.033 7.52 3.747 8.29l.376.327c1.332.725 2.933 2.692 5.61 3.245 4.033.486 7.644.398 11.46-1.82 1.262-.946 2.492-1.947 3.625-3.147.561-.61 1.11-1.25 1.542-2.128.207-.442.402-.972.37-1.638-.018-.672-.424-1.376-.886-1.746-.305-.24-.444-.23-.492-.253a2 2 0 0 0-.179-.038 4 4 0 0 0-.233-.031 9 9 0 0 0-.388-.03 21 21 0 0 0-.713-.027 74 74 0 0 0-1.378-.02c-.913-.004-1.831-.003-2.737 0-1.811.005-3.63.014-5.438.017A75 75 0 0 1 2.02.021"/></svg>