<svg preserveAspectRatio="none" width="100%" height="100%" overflow="visible" style="display: block;" viewBox="0 0 17.0001 4.20182" fill="none" xmlns="http://www.w3.org/2000/svg">
<path id="Vector 48" d="M1.00019 3.20163C2.99676 2.80794 4.99334 2.41425 6.28902 2.12708C7.58471 1.83991 8.119 1.67118 8.45049 1.51396C8.78197 1.35674 8.89445 1.21614 8.71337 1.14371C8.53229 1.07127 8.05424 1.07127 7.02059 1.21188C5.98694 1.35248 4.41218 1.63369 4.33207 1.62389C4.25197 1.61409 5.71425 1.30476 7.26899 1.14541C8.82373 0.98606 10.4266 0.98606 11.4211 1.01418C13.4533 1.07165 14.7981 1.60983 15.4849 1.83735C15.7255 1.91704 15.9119 2.12112 15.9975 2.31967C16.0628 2.47098 14.8152 2.54804 13.2251 2.57659C12.6474 2.58696 12.5348 2.54889 10.8599 2.53441C9.18503 2.51992 5.95115 2.51992 4.27115 2.47774C2.59114 2.43556 2.56302 2.35119 2.60478 2.23743C3.07175 1.6976 3.61201 1.35589 3.88129 1.25662C4.00996 1.21358 4.12245 1.18546 4.32355 1.15649" stroke="var(--stroke-0, #B08144)" stroke-width="2" stroke-linecap="round"/>
</svg>
