<svg xmlns="http://www.w3.org/2000/svg" fill="none" overflow="visible" preserveAspectRatio="none" style="display:block" viewBox="0 0 6.046 6.389"><circle cx="2.997" cy="3.182" r="2.5" fill="var(--fill-0, white)"/><path fill="var(--stroke-0, white)" d="m5.448 3.746.498.044zm-.096.363-.455-.207zm-.079.174.456.206zm-.079.174.456.206zm-.183.347.429.258zm-.208.347-.429-.258zm-.265.32.337.369zm-.32.292-.337-.37zm-.378.122-.055.497zm-.437-.047.054-.497zm-.388-.156.308-.394zm-.17-.133-.307.394zm-.169-.132-.308.394zm-.671.093L1.8 5.055zm-.582-.294-.494.076zm-.307-.595-.157.475zm-.457-.15.156-.475zM.53 4.17l-.458-.203zm.284-1.01-.5.025zm.253-1.59-.5.02zm.202-.251.063.496zm.423-.054L1.629.769zM2.3.735l-.393-.31zm.326-.118-.123.484zm.809.068.168.47zm.453-.162L3.72.052zm.57.534.437-.244zm.198.37-.447.224zm.165.33.447-.224zm.183.312.413-.282zm.2.294.414-.282zm.164.314.468-.176zm.063.168-.468.176zm.064.169.468-.176zm-.015.356.498.044zm-.017.188-.498-.044-.016.188.498.044.498.044.016-.188zm-.016.188-.498-.044a.6.6 0 0 1-.053.2l.455.207.456.206q.113-.251.138-.525zm-.096.363-.455-.207-.08.174.456.207.456.206.079-.174zm-.079.174-.455-.207-.079.174.455.207.456.206.079-.174zm-.079.174L4.74 4.25a3 3 0 0 1-.156.297l.428.257.429.258q.119-.196.21-.399zm-.183.347-.428-.257-.105.173.429.258.428.257.105-.173zm-.104.174-.429-.258-.104.173.429.258.428.258.104-.174zm-.104.173-.429-.258a1 1 0 0 1-.173.209l.337.369.337.369q.211-.192.356-.431zm-.265.32-.337-.37-.16.147.337.369.337.37.16-.147zm-.16.146-.337-.37-.16.147.337.37.337.368.16-.146zm-.16.146-.337-.37q-.005.005-.002.003l.02-.007h-.005l-.054.496-.055.497a.96.96 0 0 0 .77-.25zm-.378.122.054-.497-.219-.023-.054.497-.054.497.218.023zm-.219-.023.054-.497-.218-.024-.054.497-.054.497.218.024zm-.218-.024.054-.497a.25.25 0 0 1-.134-.053l-.308.394-.308.394c.188.146.406.233.642.259zm-.388-.156.308-.394-.17-.133-.308.394-.307.394.17.133zm-.17-.133.308-.394-.17-.132-.307.394-.308.394.17.132zm-.169-.132.308-.394c-.302-.236-.653-.208-.934-.081l.206.455.205.456c.033-.015.03-.006.002-.008a.17.17 0 0 1-.095-.034zm-.42-.02-.206-.455-.25.113.205.455.205.456.251-.113zm-.251.113L1.8 5.055l-.251.112.205.456.205.456.251-.113zm-.251.113-.205-.456c-.039.018.076-.05.233.03.166.084.18.23.176.204l-.495.075-.494.076c.023.147.098.404.361.537.253.128.5.048.63-.01zm-.29-.147.494-.075-.04-.26-.495.075-.494.076.04.26zm-.04-.26.494-.075-.04-.26-.494.076-.495.075.04.26zm-.04-.26.494-.075a.88.88 0 0 0-.606-.734l-.156.474-.157.475-.02-.01a.2.2 0 0 1-.033-.03c-.02-.027-.02-.043-.017-.024zm-.268-.335.156-.475-.228-.075-.157.475-.156.475.228.075zm-.229-.075.157-.475-.229-.075-.156.475-.157.475.229.075zM.66 4.471l.156-.475s.024.008.056.032c.034.027.075.07.102.134.055.13.01.223.015.21L.53 4.17l-.458-.203a.73.73 0 0 0-.02.587c.1.235.302.343.45.392zM.53 4.17l.457.202.1-.226-.457-.203-.458-.202-.1.226zm.1-.227.457.203.1-.226-.457-.203-.458-.202-.1.226zm.1-.226.457.203a1.4 1.4 0 0 0 .134-.618l-.5.024-.499.024q.002 0-.006.042a1 1 0 0 1-.044.123zm.092-.39.5-.025-.009-.165-.5.024-.499.024.008.165zM.815 3.16l.5-.024-.009-.165-.5.024-.499.024.008.165zm-.008-.165.5-.024a.1.1 0 0 1 .012-.063l-.446-.225-.446-.226a1.1 1.1 0 0 0-.12.562zm.066-.312.446.225.074-.146-.446-.226-.446-.226-.074.147zm.074-.147.446.226.075-.147-.447-.225-.446-.226-.074.146zm.074-.146.447.225c.1-.197.126-.412.118-.617l-.5.02-.5.02c.005.095-.011.127-.01.126zm.065-.372.5-.02-.01-.225-.499.02-.5.021.01.225zm-.009-.224.5-.02-.01-.225-.499.02-.5.02.01.225zm-.01-.225.5-.02s.001.018-.006.047a.3.3 0 0 1-.057.111.28.28 0 0 1-.17.107l-.064-.496-.063-.496a.73.73 0 0 0-.483.259.75.75 0 0 0-.156.509zm.203-.251.063.496.211-.027-.063-.496-.063-.496-.211.027zm.211-.027.063.496.212-.027-.063-.496-.064-.496-.21.027zm.212-.027.063.496c.27-.035.504-.167.673-.381l-.393-.31-.392-.31-.007.008.002-.001-.01.002zm.343-.195.393.31.132-.168-.392-.31-.393-.31-.132.168zM2.17.903l.392.31.132-.168-.392-.31-.393-.31-.132.168zM2.3.735l.392.31s-.023.028-.074.047a.2.2 0 0 1-.115.01l.123-.485.124-.485a.8.8 0 0 0-.473.02.83.83 0 0 0-.37.273zm.326-.118-.123.484.194.05.123-.485.124-.484-.194-.05zm.194.05-.123.484.194.05.123-.485L3.14.23 2.946.18zm.194.049-.123.484c.243.062.486.036.712-.045l-.168-.47-.168-.471c-.076.027-.114.021-.129.017zm.42-.031.169.47.226-.08-.168-.471-.168-.471-.226.08zm.227-.081.168.47.227-.08-.168-.471L3.72.052l-.227.08zM3.89.523l.168.47v.001h-.002l-.007.002-.03.004a.3.3 0 0 1-.101-.017.24.24 0 0 1-.123-.092L4.23.647l.436-.244a.77.77 0 0 0-.408-.36.8.8 0 0 0-.537.009zm.341.124L3.794.89l.114.205.437-.244.436-.244-.115-.205zm.115.205-.437.244.115.205.436-.244.437-.244L4.78.608zm.114.205-.436.244q.11.197.187.35l.447-.224.447-.224a10 10 0 0 0-.208-.39zm.198.37-.447.224.083.165.447-.224.446-.224-.082-.165zm.083.165-.447.224.082.165.447-.224.447-.224-.083-.165zm.082.165-.447.224q.098.195.217.37l.413-.282.413-.282a2 2 0 0 1-.149-.254zm.183.312-.413.282.1.147.414-.282.412-.282-.1-.147zm.1.147-.412.282.1.147.413-.282.413-.282-.1-.147zm.1.147-.412.282q.066.096.108.208l.468-.176.468-.176a2 2 0 0 0-.218-.42zm.164.314-.468.176.063.168.468-.176.468-.176-.063-.168zm.063.168-.468.176.064.169.468-.176.468-.176-.064-.169zm.064.169-.468.176q.029.078.03.087c.003.009-.005-.016-.01-.055 0-.01-.009-.082.014-.17a.496.496 0 0 1 .481-.37v1a.5.5 0 0 0 .487-.376c.024-.092.015-.168.014-.186a1 1 0 0 0-.024-.117 2 2 0 0 0-.056-.165zm.047.168v-.5h-.015v1h.015zm-.015 0v-.5h-.015v1h.015zm-.015 0v-.5a.505.505 0 0 0-.482.354 1 1 0 0 0-.027.11 2 2 0 0 0-.021.18l.498.044.498.044c.005-.06.01-.09.011-.102.002-.009 0 .01-.01.04-.004.01-.02.056-.054.108a.49.49 0 0 1-.413.222zm-.032.188-.498-.044-.017.188.498.044.498.044.017-.188z"/></svg>