<svg xmlns="http://www.w3.org/2000/svg" fill="none" overflow="visible" preserveAspectRatio="none" style="display:block" viewBox="0 0 80 80"><circle cx="40" cy="40" r="40" fill="url(#a)"/><path fill="var(--fill-0, #fffeef)" d="M27.227 14.004c.474.008.729.021 1.209.021 2.883 0 6.343 1.027 8.957 4.414 1.714 2.22 2.492 4.831 2.915 6.946.425 2.129.588 4.326.722 5.803.181 1.99.158 5.014-.353 8.16-.499 3.066-1.556 6.855-3.874 9.866-.924 1.2-2.397 2.273-4.054 2.904-1.797.684-4.24 1.004-6.82-.034-.995-.4-1.69-.654-2.248-.86-.456-.168-1.181-.427-1.834-.776-1.693-.903-2.701-2.35-3.272-3.052-1.447-1.78-2.478-4.55-3.042-7.513-.598-3.144-.777-7.05-.096-11.462q.077-.488.24-.936.007-.405.082-.814c.377-2.034 1.102-4.356 2.159-6.638.577-1.246 1.31-2.483 2.516-3.441.548-.436 1.074-.708 1.204-.778l.008-.004c.99-.734 2.204-1.474 3.874-1.718a10.4 10.4 0 0 1 1.707-.088"/><path fill="var(--stroke-0, #f4c280)" d="m27.227 14.004.017-1zm1.209.021v-1zm8.957 4.414.791-.611zm2.915 6.946.98-.196zm.722 5.803.996-.091zm-.353 8.16.987.161zm-3.874 9.866.792.61zm-4.054 2.904.356.935zm-6.82-.034-.373.928zm-2.248-.86-.346.938zm-1.834-.776-.471.883zm-3.272-3.052.776-.631zm-3.042-7.513-.982.187zm-.096-11.462-.989-.152zm.24-.936.94.338.056-.154.004-.164zm.082-.814-.984-.182zm2.159-6.638-.907-.42zm2.516-3.441-.623-.783zm1.204-.778.475.88zm.008-.004.47.882.066-.035.06-.044zm3.874-1.718-.145-.99zm1.707-.088-.018 1c.443.008.738.021 1.227.021v-2c-.471 0-.687-.012-1.192-.02zm1.209.021v1c2.641 0 5.779.933 8.165 4.025l.792-.611.791-.611c-2.841-3.681-6.623-4.802-9.748-4.802zm8.957 4.414-.792.61c1.577 2.044 2.316 4.48 2.726 6.532l.98-.196.981-.196c-.435-2.177-1.253-4.963-3.104-7.361zm2.915 6.946-.981.196c.412 2.064.57 4.197.707 5.697l.996-.09.996-.091c-.132-1.452-.3-3.714-.738-5.908zm.722 5.803-.996.09c.174 1.908.154 4.849-.344 7.91l.987.16.987.161c.525-3.231.55-6.34.362-8.412zm-.353 8.16-.987-.16c-.487 2.996-1.508 6.596-3.68 9.416l.793.61.792.61c2.465-3.202 3.56-7.18 4.069-10.315zm-3.874 9.866-.793-.61c-.798 1.036-2.112 2.007-3.617 2.58l.356.934.356.935c1.809-.69 3.441-1.867 4.49-3.229zm-4.054 2.904-.356-.934c-1.618.616-3.795.896-6.09-.028l-.373.928-.374.928c2.864 1.152 5.573.793 7.549.04zm-6.82-.034.374-.928c-1.011-.407-1.717-.664-2.277-.87l-.345.938-.346.938c.559.206 1.24.455 2.221.85zm-2.248-.86.345-.939c-.472-.173-1.128-.409-1.709-.719l-.47.882-.471.883c.726.387 1.52.67 1.959.831zm-1.834-.776.47-.882c-1.473-.786-2.344-2.036-2.966-2.801l-.776.63-.776.631c.52.64 1.666 2.285 3.577 3.305zm-3.272-3.052.776-.631c-1.298-1.597-2.286-4.18-2.835-7.069l-.983.187-.982.187c.578 3.039 1.652 5.993 3.248 7.956zm-3.042-7.513.983-.187c-.577-3.032-.755-6.824-.091-11.122l-.989-.153-.988-.152c-.698 4.524-.516 8.546.103 11.8zm-.096-11.462.988.153q.06-.387.193-.75l-.941-.34-.941-.338a6 6 0 0 0-.288 1.122zm.24-.936 1 .02q.006-.327.065-.652l-.983-.182-.984-.182q-.089.496-.098.975zm.082-.814.983.182c.36-1.948 1.06-4.19 2.083-6.4l-.907-.42-.907-.42c-1.09 2.354-1.843 4.756-2.235 6.876zm2.159-6.638.907.42c.55-1.188 1.203-2.261 2.23-3.078l-.621-.783-.623-.783c-1.383 1.1-2.196 2.5-2.8 3.804zm2.516-3.441.622.783c.472-.375.925-.61 1.057-.682l-.475-.88-.476-.88c-.127.07-.725.379-1.35.876zm1.204-.778.475.88a1 1 0 0 1-.091.043l-.005.002h-.001l.005-.002.018-.008.077-.037-.47-.882-.47-.883.073-.035.017-.007.003-.001-.009.003-.02.01-.078.037zm.008-.004.596.803c.93-.688 1.987-1.321 3.422-1.532l-.145-.99-.144-.989c-1.903.28-3.274 1.126-4.324 1.904zm3.874-1.718.144.99a9.4 9.4 0 0 1 1.545-.078l.018-1 .017-1a11.4 11.4 0 0 0-1.87.098z"/><ellipse cx="30.682" cy="31.175" fill="var(--fill-0, #424242)" rx="7.122" ry="11.534"/><path fill="var(--fill-0, white)" d="m26.825 36.942.333 1.55h1.078l-.872.958.333 1.55-.872-.959-.872.958.333-1.55-.872-.957h1.078z"/><path fill="var(--stroke-0, white)" d="m26.874 37.047-.136.063zm.024.052.136-.063zm.027.11-.15.006zm.002.056.15-.006zm.003.057-.15.007zm.02.111.143-.047zm.018.054-.143.047zm.018.053-.143.047zm.024.11-.149.018zm.014.112.149-.018zm0 .115-.148-.014zm-.01.118-.15-.014zm.01.113.144-.04zm.03.108-.144.04zm.033.108-.143.047zm.11.171-.024.148zm.232 0-.066-.134zm.056-.027-.066-.135zm.056-.028.067.135zm.226.045-.06.138zm.112.03.016-.148zm.056.007-.016.149zm.056.006-.016.15zm.097.002.016.15zm.04-.004.016.149zm.04-.005-.015-.149zm.005.04-.116-.096zm-.036.043.115.096zm-.105.133-.122-.087zm-.033.046.123.087zm-.032.046.122.087zm-.091.07-.056-.139zm-.116.047.057.139zm-.068.09-.148-.024zm-.021.133.148.023zm-.105.133.088.122zm-.046.033-.088-.122zm-.05.072-.15-.011zm-.003.039.15.01zm-.003.038-.15-.011zm.006.094.148-.024zm.018.111-.148.024zm.014.112.15-.01zm.004.057-.15.01zm.004.057.15-.011zm-.015.118.143.044zm-.038.123-.144-.044zm.01.113.13-.077zm.062.102-.13.076zm.054.103-.136.063zm.048.105.136-.063zm.04.106-.143.044zm.034.108.143-.043zm-.004.078.113.098zm-.02.023-.114-.098zm-.02.023-.114-.098zm-.046-.03.137-.063zm-.05-.107-.135.063zm-.084-.075.049-.141zm-.121-.042-.05.142zm-.08-.08-.143.048zm-.039-.116.143-.047zm-.059-.099-.107.106zm-.04-.04.108-.105zm-.039-.04-.107.105zm-.097-.063-.056.139zm-.058-.024-.056.14zm-.058-.023.056-.14zm-.082-.026-.013.15zm-.047-.004.014-.15zm-.07.032.09.12zm-.178.142-.106-.106zm-.04.04.106.106zm-.04.04.106.106zm-.073.086.123.086zm-.065.092-.123-.086zm-.085.228-.144-.041zm-.08.08.044.143zm-.125.037-.043-.143zm-.041-.012.124.085zm.021-.03.124.084zm.021-.032.124.085zm.031-.087-.148-.024zm.034-.222.15.017zm.007-.056-.15-.017zm.006-.057.15.017zm.065-.216-.141-.051zm.005-.114.147-.033zm-.027-.12-.146.033zm.027-.11-.114-.097zm.083-.097.114.097zm.042-.106-.15-.002zm0-.058.15.002zm.001-.057-.15-.002zm-.02-.109.138-.057zm-.043-.103-.139.058zm-.059-.094-.113.099zm-.037-.042-.113.099zm-.037-.043.113-.098zm-.089-.07-.073.13zm-.103-.059-.074.131zm-.092-.069-.106.106zm-.079-.08-.107.106zm-.069-.089-.129.077zm-.06-.098-.128.077zm-.063-.097-.121.089zm-.07-.095.121-.088zm.022-.045-.007.15zm.112.005.007-.15zm.113.018.04-.144zm.45.015-.064.136zm.056.026-.063.136zm.056.026.063-.136zm.107-.007.083.125zm.101-.067-.083-.125zm.056-.09.15.014zm.01-.113.15.014zm.033-.108-.134-.069zm.026-.052.134.069zm.027-.397.148.028zm.021-.11-.147-.028zm.022-.11-.147-.031zm.023-.11-.147-.031zm.019-.112-.149-.02zm.015-.112.148.02zm.025-.097-.139-.058zm.017-.042.139.058zm.018-.041.138.058zm.022-.041-.031.147zm.01.002.031-.147zm.03.053-.137.064zm.023.053-.136.063.025.052.136-.063.136-.063-.025-.053zm.025.052-.136.063a.14.14 0 0 1 .013.053l.15-.007.15-.006a.4.4 0 0 0-.041-.166zm.027.11-.15.006.003.057.15-.007.15-.006-.003-.057zm.002.056-.15.007.003.057.15-.007.15-.007-.003-.056zm.003.057-.15.007a.6.6 0 0 0 .028.15l.142-.046.143-.047a.3.3 0 0 1-.013-.07zm.02.111-.142.047.017.054.143-.047.142-.047-.017-.054zm.018.054-.143.047.018.053.143-.047.142-.047-.018-.053zm.018.053-.143.047a.4.4 0 0 1 .018.081l.15-.018.148-.018a.7.7 0 0 0-.03-.139zm.024.11-.149.018.007.056.149-.018.149-.018-.007-.056zm.007.056-.149.018.007.056.149-.018.149-.018-.007-.056zm.007.056-.15.018a.4.4 0 0 1 .002.083l.149.014.15.014a.7.7 0 0 0-.002-.147zm0 .115-.148-.014-.006.059.15.014.149.014.005-.059zm-.005.059-.149-.014-.006.059.15.014.15.014.005-.059zm-.005.059-.15-.014a.5.5 0 0 0 .015.167l.144-.04.145-.04a.2.2 0 0 1-.005-.06zm.01.113-.145.04.015.054.145-.04.144-.04-.015-.055zm.015.054-.145.04.016.055.144-.04.144-.041-.015-.055zm.015.054-.144.04q.016.058.034.115l.143-.047.142-.046-.03-.102zm.033.108-.143.047.018.053.142-.046.143-.046-.018-.054zm.017.054-.142.046.017.054.143-.046.142-.047-.017-.053zm.018.054-.143.046a.24.24 0 0 0 .194.165l.025-.148.024-.148c.001 0 .012.002.023.012a.1.1 0 0 1 .02.026zm.076.063-.025.148.059.01.024-.148.024-.149-.058-.009zm.058.01-.024.148.058.01.024-.149.024-.148-.058-.01zm.058.009-.024.148q.11.017.205-.032l-.066-.134-.066-.135q-.016.008-.025.005zm.115-.018.066.134.057-.027-.067-.135-.066-.135-.056.028zm.056-.028.067.135.056-.028-.067-.135-.066-.134-.056.028zm.056-.028.067.135h-.013l.059-.138.06-.138a.28.28 0 0 0-.239.007zm.113-.003-.06.138.057.024.06-.138.059-.138-.057-.024zm.056.024-.059.138.056.024.06-.138.059-.138-.056-.024zm.056.024-.059.138q.075.033.156.042l.016-.15.016-.148a.2.2 0 0 1-.07-.02zm.113.03-.016.15.056.006.016-.15.017-.148-.057-.006zm.056.007-.016.149.056.006.016-.149.017-.15-.056-.005zm.056.006-.016.15a.6.6 0 0 0 .129.001l-.016-.15-.016-.148a.3.3 0 0 1-.064-.002zm.097.002.016.15.04-.005-.016-.15-.015-.148-.04.004zm.04-.004.016.149.04-.004-.015-.15-.016-.149-.04.005zm.04-.005.016.15s-.023.003-.051-.008a.14.14 0 0 1-.092-.118.12.12 0 0 1 .013-.074l.003-.006.116.096.115.095a.3.3 0 0 0 .03-.043.17.17 0 0 0 .02-.1.16.16 0 0 0-.103-.132.2.2 0 0 0-.082-.009zm.005.04-.116-.096-.036.043.116.096.115.096.036-.044zm-.036.043-.116-.096-.036.043.116.096.115.096.036-.043zm-.036.043-.116-.096-.075.099.122.087.122.087q.03-.042.062-.08zm-.069.09-.122-.087-.033.046.122.087.123.087.032-.046zm-.033.046-.122-.087-.033.047.123.086.122.087.033-.046zm-.032.046-.123-.087a.05.05 0 0 1-.024.018l.056.139.057.139a.35.35 0 0 0 .156-.122zm-.091.07-.056-.139-.058.023.056.14.057.138.058-.023zm-.058.023-.056-.139-.058.024.056.139.057.139.058-.024zm-.058.024-.056-.139a.26.26 0 0 0-.16.205l.148.024.148.024-.006.011a.04.04 0 0 1-.017.014zm-.068.09-.148-.024-.01.066.147.024.148.024.011-.066zm-.01.066-.149-.024-.01.067.148.023.148.024.01-.066zm-.011.067-.148-.024-.002.007.005-.006.087.122.087.122a.3.3 0 0 0 .119-.198zm-.058.1-.087-.123-.047.034.087.122.088.122.046-.034zm-.047.033-.087-.122-.047.033.088.122.087.122.047-.033zm-.046.033-.088-.122a.25.25 0 0 0-.112.183l.15.011.15.011a.1.1 0 0 1-.013.037q-.008.008 0 .002zm-.05.072-.15-.011-.003.038.15.012.15.01.002-.038zm-.003.039-.15-.012-.002.039.15.01.149.012.003-.038zm-.003.038-.15-.011a.6.6 0 0 0 .008.13l.148-.025.148-.024a.3.3 0 0 1-.004-.059zm.006.094-.148.024.01.056.147-.024.149-.025-.01-.055zm.01.056-.149.024.01.055.147-.024.149-.024-.01-.056zm.008.055-.148.024q.009.05.012.1l.15-.012.15-.01a1 1 0 0 0-.015-.126zm.014.112-.15.011.004.057.15-.01.15-.012-.005-.056zm.004.057-.15.01.004.057.15-.01.15-.011-.005-.057zm.004.057-.15.01a.2.2 0 0 1-.009.064l.144.044.143.044a.5.5 0 0 0 .021-.173zm-.015.118-.144-.044-.019.061.144.045.143.044.019-.062zm-.02.062-.143-.045-.019.062.144.044.143.044.019-.061zm-.018.061-.144-.044a.28.28 0 0 0 .026.233l.129-.076.129-.077.002.008q0 .007.001 0zm.01.113-.128.077.03.05.13-.076.128-.077-.03-.05zm.031.05-.129.078.03.05.13-.076.128-.077-.03-.05zm.03.052-.128.076a1 1 0 0 1 .047.09l.136-.063.136-.062a1 1 0 0 0-.062-.118zm.055.103-.136.063.024.053.136-.063.136-.063-.024-.053zm.024.053-.136.063.024.052.136-.063.136-.063-.024-.052zm.024.052-.136.063a1 1 0 0 1 .033.087l.144-.044.143-.043a1 1 0 0 0-.048-.126zm.04.106-.143.044.017.054.143-.044.144-.043-.017-.054zm.017.054-.143.044.016.054.143-.044.144-.043-.016-.054zm.017.054-.144.044c.003.008 0 .006 0-.005a.1.1 0 0 1 .026-.06l.114.099.113.098c.068-.078.048-.174.034-.22zm-.004.078-.114-.099-.02.024.113.098.114.098.02-.023zm-.02.023-.114-.098-.02.023.113.098.114.099.02-.024zm-.02.023-.114-.098a.136.136 0 0 1 .176-.022.1.1 0 0 1 .028.027q.003.005 0 0l-.136.063-.136.063c.01.02.032.066.076.096a.164.164 0 0 0 .219-.03zm-.046-.03.137-.063-.025-.053-.136.063-.137.063.025.053zm-.024-.053.136-.064-.025-.053-.136.063-.136.063.024.053zm-.025-.054.136-.063a.3.3 0 0 0-.172-.153l-.05.141-.049.142q.006.003.002 0l-.002-.002-.001-.002zm-.085-.075.049-.141-.06-.021-.05.141-.05.142.061.021zm-.06-.02.049-.142-.061-.021-.05.141-.049.142.06.021zm-.061-.022.049-.141.006.005.007.01-.142.047-.143.047a.28.28 0 0 0 .173.174zm-.08-.08.142-.046-.02-.059-.142.047-.142.048.02.058zm-.02-.058.143-.047-.02-.058-.142.047-.142.047.02.059zm-.019-.058.143-.047a.4.4 0 0 0-.095-.157l-.107.105-.107.106a.1.1 0 0 1 .024.04zm-.059-.099.107-.105-.04-.04-.106.105-.107.105.04.04zm-.04-.04.108-.105-.04-.04-.107.105-.107.105.04.04zm-.039-.04.107-.105a.4.4 0 0 0-.148-.097l-.056.139-.056.139q.031.014.046.03zm-.097-.063.056-.14-.058-.023-.056.14-.056.138.058.024zm-.058-.024.056-.139-.058-.023-.056.139-.056.139.058.023zm-.058-.023.056-.14a.5.5 0 0 0-.124-.035l-.014.15-.013.149-.006-.001.007.002.038.014zm-.082-.026.014-.15-.024-.001-.013.15-.014.148.024.003zm-.023-.002.013-.15-.023-.002-.014.15-.014.15.024.001zm-.024-.002.014-.15a.2.2 0 0 0-.106.02.4.4 0 0 0-.068.042l.09.12.09.12.013-.009-.013.004a.1.1 0 0 1-.034.002zm-.07.032-.09-.12-.046.034.09.12.09.12.045-.034zm-.046.034-.09-.12-.046.034.09.12.09.12.045-.034zm-.046.034-.09-.12a1 1 0 0 0-.102.088l.106.106.106.107a1 1 0 0 1 .07-.06zm-.086.074-.106-.106-.04.04.106.106.106.106.04-.04zm-.04.04-.106-.106-.04.04.106.106.106.106.04-.04zm-.04.04-.106-.107a1 1 0 0 0-.09.106l.123.087.123.086.056-.066zm-.073.086-.122-.087-.033.046.123.087.122.087.033-.047zm-.032.046-.123-.087-.033.047.123.086.122.087.033-.047zm-.033.046-.123-.086a.5.5 0 0 0-.071.152l.144.041.144.041a.2.2 0 0 1 .029-.061zm-.05.107-.144-.041-.017.06.144.041.144.041.017-.06zm-.017.06-.144-.04-.018.06.145.04.144.042.017-.06zm-.018.06-.144-.04a.04.04 0 0 1 .01-.016q.012-.009.011-.007l.044.143.043.144a.26.26 0 0 0 .18-.182zm-.08.08-.043-.143-.063.019.044.143.044.144.062-.02zm-.062.02-.044-.144-.062.019.043.143.044.144.063-.02zm-.063.018-.043-.143-.006.001h.013q.01-.001.037.005a.143.143 0 0 1 .082.21l-.124-.085-.124-.085c-.006.01-.03.045-.031.095a.156.156 0 0 0 .113.153.2.2 0 0 0 .08.004l.047-.011zm-.041-.012.124.085.021-.031-.124-.085-.123-.085-.022.031zm.021-.03.124.084.021-.031-.123-.085-.124-.085-.021.031zm.021-.032.124.085a.4.4 0 0 0 .055-.147l-.148-.025-.148-.024-.006.024q-.002.007 0 .002zm.031-.087.148.025.01-.055-.149-.025-.148-.025-.009.056zm.01-.055.147.025.01-.056-.148-.024-.148-.025-.01.055zm.009-.056.148.025q.01-.06.016-.12l-.149-.016-.149-.017-.014.104zm.015-.111.15.017.006-.057-.15-.016-.148-.017-.007.056zm.007-.056.149.016.006-.056-.149-.017-.149-.016-.006.056zm.006-.057.15.017a.3.3 0 0 1 .017-.075l-.141-.051-.141-.051a.6.6 0 0 0-.034.144zm.026-.11.14.052.02-.053-.14-.051-.142-.052-.02.054zm.02-.053.14.052.02-.053-.141-.052-.141-.051-.02.053zm.019-.053.14.051a.35.35 0 0 0 .012-.198l-.147.033-.146.034a.05.05 0 0 1 0 .029zm.005-.114.147-.033-.014-.06-.146.033-.147.033.014.06zm-.013-.06.146-.034-.014-.06-.146.033-.146.034.013.06zm-.014-.06.146-.034v.013l-.004.008-.115-.097-.114-.097a.27.27 0 0 0-.06.24zm.027-.11.115.097.041-.048-.114-.097-.115-.098-.041.05zm.042-.048.114.097.041-.049-.114-.097-.114-.097-.042.048zm.041-.05.114.098a.3.3 0 0 0 .078-.202l-.15-.001-.15-.002v.002l-.006.009zm.042-.105.15.001v-.057l-.15-.002-.15-.001v.057zm0-.058.15.002.001-.057-.15-.002-.15-.002v.058zm.001-.057.15.002a.4.4 0 0 0-.032-.168l-.139.057-.138.058q.01.021.01.05zm-.02-.109.138-.057-.021-.052-.139.058-.139.057.022.052zm-.022-.051.139-.058-.022-.052-.138.058-.139.058.021.051zm-.021-.052.138-.058a.5.5 0 0 0-.084-.135l-.113.1-.113.098a.2.2 0 0 1 .033.053zm-.059-.094.113-.099-.037-.042-.113.099-.113.099.037.042zm-.037-.042.113-.1-.037-.041-.113.099-.113.098.037.043zm-.037-.043.113-.098a.5.5 0 0 0-.129-.104l-.073.131-.073.131q.03.017.05.04zm-.089-.07.073-.132-.051-.029-.074.131-.073.131.052.03zm-.052-.03.074-.13-.052-.03-.073.131-.074.131.052.03zm-.051-.029.073-.13a.3.3 0 0 1-.058-.044l-.107.105-.106.106a.6.6 0 0 0 .124.094zm-.092-.069.107-.105-.04-.04-.106.105-.107.106.04.04zm-.04-.04.107-.105-.04-.04-.106.105-.107.106.04.04zm-.039-.04.107-.105a.3.3 0 0 1-.047-.061l-.129.077-.129.077a.6.6 0 0 0 .091.118zm-.069-.089.128-.077-.029-.05-.129.078-.128.077.03.05zm-.03-.05.129-.076-.03-.05-.128.078-.129.077.03.05zm-.03-.048.13-.078a1 1 0 0 0-.072-.108l-.121.09-.121.088q.03.042.056.085zm-.063-.097.12-.089-.034-.047-.121.089-.121.088.035.048zm-.035-.047.12-.089-.034-.047-.12.088-.122.089.035.047zm-.035-.048.121-.088q0-.003.01.019a.13.13 0 0 1-.008.099.13.13 0 0 1-.102.075h-.006l.007-.15.006-.15q-.027-.002-.072.008a.17.17 0 0 0-.103.087.17.17 0 0 0-.007.128.2.2 0 0 0 .033.06zm.022-.045-.007.15.056.003.007-.15.007-.15-.057-.003zm.056.003-.007.15.056.002.007-.15.007-.15-.056-.002zm.056.002-.007.15a.4.4 0 0 1 .08.013l.04-.145.04-.144a.7.7 0 0 0-.146-.024zm.113.018-.04.145.055.016.04-.145.041-.144-.056-.016zm.056.016-.04.145.056.015.04-.144.04-.145-.056-.015zm.056.016-.04.144a.36.36 0 0 0 .19.002l-.037-.145-.039-.145a.1.1 0 0 1-.034 0zm.113 0 .038.146.056-.015-.038-.145-.038-.145-.057.015zm.056-.014.038.145.056-.015-.038-.145-.038-.145-.056.015zm.056-.015.038.145h.003l.008.003.064-.136.063-.137a.3.3 0 0 0-.214-.02zm.113.012-.064.136.057.026.063-.136.063-.136-.056-.027zm.056.026-.063.136.056.026.063-.136.063-.136-.056-.026zm.056.026-.063.136a.25.25 0 0 0 .253-.018l-.083-.125-.083-.125a.04.04 0 0 1 .02-.006.04.04 0 0 1 .02.002zm.107-.007.083.125.05-.034-.083-.125-.082-.125-.05.034zm.05-.034.083.125.05-.033-.082-.125-.083-.125-.05.033zm.051-.033.083.125a.27.27 0 0 0 .122-.2l-.15-.015-.148-.014q0-.005.005-.015l.005-.006zm.056-.09.15.014.005-.056-.15-.014-.149-.015-.005.057zm.005-.056.15.014.005-.057-.15-.014-.149-.014-.005.056zm.006-.057.149.014a.2.2 0 0 1 .016-.053l-.133-.069-.134-.069a.5.5 0 0 0-.048.163zm.032-.108.133.069.027-.052-.134-.069-.133-.068-.027.051zm.026-.052.134.069.026-.052-.133-.069-.134-.068-.026.052zm.027-.052.133.069a.33.33 0 0 0 .033-.203l-.149.023-.148.023a.03.03 0 0 1-.003.02zm.017-.11.149-.023-.01-.06-.148.023-.148.022.01.06zm-.009-.06.149-.023-.01-.06-.148.023-.148.023.01.06zm-.009-.06.149-.023a.2.2 0 0 1 0-.064l-.148-.028-.147-.027a.5.5 0 0 0-.002.165zm.002-.115.147.028.01-.056-.147-.027-.148-.027-.01.055zm.01-.055.147.027.01-.055-.147-.027-.147-.028-.01.056zm.01-.055.148.027.02-.107-.146-.03-.147-.031-.022.113zm.022-.11.147.03.011-.055-.147-.03-.146-.031-.012.055zm.011-.056.147.03.012-.054-.147-.03-.147-.031-.012.055zm.012-.055.147.03q.012-.06.02-.12l-.148-.02-.149-.02q-.007.05-.017.1zm.019-.11.148.02.008-.057-.149-.02-.148-.02-.008.056zm.007-.057.149.02.007-.056-.148-.02-.149-.02-.007.056zm.008-.056.148.02a.2.2 0 0 1 .015-.06l-.138-.057-.139-.058a.5.5 0 0 0-.035.135zm.025-.097.138.058.018-.042-.139-.058-.138-.058-.018.042zm.017-.042.139.058.017-.041-.138-.058-.139-.058-.017.041zm.018-.041.138.058.007-.017-.002.004a.14.14 0 0 1-.04.04.15.15 0 0 1-.112.02l.031-.146.032-.147a.15.15 0 0 0-.15.053l-.021.031-.022.046zm.022-.041-.031.147h.004l.032-.146.031-.147h-.004zm.005.001-.032.147h.005l.032-.146.031-.147h-.005zm.005.001-.032.147a.14.14 0 0 1-.087-.057l-.003-.004.015.03.136-.063.136-.063-.039-.073-.018-.021c-.003-.003-.03-.033-.077-.043zm.03.053-.137.064.024.052.137-.063.135-.064-.024-.052z"/><ellipse cx="25.935" cy="24.767" fill="var(--fill-0, white)" rx="3.561" ry="3.845"/><path fill="var(--stroke-0, white)" d="m29.48 25.333-.5-.014zm-.052.373.485.122zm-.093.368-.485-.122zm-.095.377.485.122zm-.097.386-.485-.122zm-.134.383-.456-.206zm-.173.381.456.206zm-.285.269-.184-.465zm-.199.078.184.465zm-.199.079.184.465zm-.415.062-.038.498zm-.217-.017-.038.499zm-.217-.016.039-.499zm-.343.228-.444-.232zm-.128.244-.443-.231zm-.127.244.443.231zm-.33.078-.317.386zm-.203-.167-.317.387zm-.203-.166.318-.387zm-.414-.052-.238-.44zm-.212.114.239.44zm-.534.008.446-.226zm-.224-.442-.446.226zm-.259-.312.263-.425zm-.292-.181-.263.425zm-.244-.233.412-.283zm-.196-.285-.412.284zm-.31-.224.178-.466zm-.426-.163-.18.466zm-.177-.294-.493-.083zm-.402-1.473-.476-.154zm.088-.785-.457.202zm.073-.935-.31-.392zm.498-.414-.341-.366zm.138-.129.341.365zm.137-.129-.341-.365zm.238-.28-.416-.277zm.101-.151-.416-.277zm.33-.442-.366-.34zm.26-.28-.367-.34zm.276-.311-.38-.324zm.146-.172.381.324zm.147-.172-.38-.324zm1.199.147.105-.488zm1.493.195-.44.238zm.667.747.203-.457zm.173.076-.203.457zm.327.2-.31.391zm.309.245-.31.391zm.148.333.5.014zm-.005.212.5.014zm-.006.211-.5-.013zm.106.37.408-.29zm.226.316-.408.29zm.235.346-.417.275zm.247.375.418-.275zm.009.194.03.5zm-.115.007-.03-.5zm-.235.202.5.014zm-.005.189-.5-.014-.005.188.5.014.5.014.005-.189zm-.005.188-.5-.014a1.2 1.2 0 0 1-.037.265l.485.122.485.122q.06-.237.067-.48zm-.052.373-.485-.122-.046.184.485.122.484.122.047-.184zm-.046.184-.485-.122-.047.184.485.122.485.122.046-.184zm-.047.184-.485-.122-.095.377.485.122.485.122.095-.377zm-.095.377-.485-.122-.048.193.485.122.485.122.048-.193zm-.048.193-.485-.122-.049.193.485.122.485.122.049-.193zm-.049.193-.485-.122q-.037.148-.105.3l.456.205.455.207q.105-.23.164-.468zm-.134.383-.456-.206-.086.19.455.207.456.206.086-.19zm-.087.19-.455-.206-.086.19.455.207.456.206.086-.19zm-.086.191-.455-.206-.004.006.002-.001q0-.002 0 0l-.012.005.184.465.184.465c.25-.099.444-.28.557-.528zm-.285.269-.184-.465-.198.078.183.465.184.465.199-.078zm-.199.078-.183-.465-.2.079.184.465.184.465.199-.079zm-.199.079-.183-.465a.4.4 0 0 1-.194.028l-.038.499-.038.498c.218.017.433-.014.637-.095zm-.415.062.038-.499-.217-.016-.038.498-.038.499.216.016zm-.217-.017.038-.498-.216-.017-.039.499-.038.498.217.017zm-.217-.016.039-.499a.8.8 0 0 0-.509.13.96.96 0 0 0-.317.365l.444.232.443.23c.016-.03.015-.014-.018.007a.2.2 0 0 1-.12.033zm-.343.228-.444-.232-.127.245.443.23.444.232.127-.244zm-.128.244-.443-.231-.127.244.443.23.443.232.128-.244zm-.127.244-.443-.231c-.017.031.028-.078.182-.114.165-.04.263.048.248.036l-.317.387-.317.386c.12.1.34.229.615.164.265-.062.407-.265.475-.397zm-.33.078.317-.387-.203-.166-.317.386-.317.387.203.166zm-.203-.167.317-.386-.202-.167-.318.387-.317.386.203.167zm-.203-.166.318-.387a.84.84 0 0 0-.97-.105l.238.44.238.44a.1.1 0 0 1-.03.009.2.2 0 0 1-.061.002c-.046-.005-.063-.024-.05-.013zm-.414-.052-.238-.44-.212.114.238.44.239.44.211-.115zm-.212.114-.238-.44-.211.115.238.44.238.44.212-.115zm-.211.115-.238-.44a.2.2 0 0 1 .058-.018.3.3 0 0 1 .15.013c.12.04.157.122.153.112l-.446.226-.447.226c.07.138.2.311.427.386a.73.73 0 0 0 .581-.066zm-.323-.107.446-.226-.112-.221-.446.226-.447.226.112.22zm-.112-.221.446-.226-.112-.221-.447.226-.445.226.111.22zm-.113-.221.447-.226a1.25 1.25 0 0 0-.442-.511l-.263.425-.263.425c-.008-.005.025.013.076.113zm-.258-.312.263-.425-.146-.09-.263.424-.263.426.146.09zm-.146-.09.263-.426-.146-.09-.263.425-.263.425.146.09zm-.146-.091.263-.425a.3.3 0 0 1-.095-.091l-.412.283-.412.284q.157.228.393.374zm-.244-.233.412-.283-.098-.143-.412.284-.412.283.098.143zm-.098-.142.412-.284-.098-.142-.412.283-.412.284.098.142zm-.098-.143.412-.283a1.14 1.14 0 0 0-.544-.407l-.179.466-.18.467c.078.03.086.052.079.04zm-.31-.224.178-.466-.212-.082-.18.466-.179.467.213.082zm-.214-.082.18-.466-.213-.082-.18.467-.179.466.213.082zm-.212-.081.18-.467.008.004.023.015a.3.3 0 0 1 .066.075.25.25 0 0 1 .039.162l-.493-.083-.493-.083a.75.75 0 0 0 .09.52.8.8 0 0 0 .4.323zm-.177-.294.493.083.035-.212-.493-.083-.493-.083-.035.212zm.035-.212.493.083.036-.212-.493-.083-.493-.083-.036.212zm.036-.212.493.083a.93.93 0 0 0-.225-.787l-.375.33-.375.33q.002.005 0 0l-.008-.018-.003-.018v-.003zm-.107-.374.375-.33-.143-.162-.375.33-.375.331.143.162zm-.143-.162.375-.33-.142-.162-.375.33-.375.331.142.162zm-.142-.161.375-.33c-.003-.005.012.012.02.049a.2.2 0 0 1 0 .083l-.476-.154-.476-.154c-.1.31-.018.609.182.836zm-.081-.352.475.154.062-.19-.476-.153-.476-.154-.061.19zm.061-.19.476.155.061-.19-.476-.154-.475-.154-.062.19zm.061-.19.476.155a1.05 1.05 0 0 0-.053-.763l-.457.203-.457.202a.2.2 0 0 1 .015.05v.002-.002zm-.034-.405.457-.203-.096-.216-.457.202-.457.203.096.216zm-.096-.217.457-.202-.096-.217-.457.203-.457.203.096.216zm-.096-.216.457-.203s.02.046.003.12a.2.2 0 0 1-.065.116l-.31-.392-.31-.392a.8.8 0 0 0-.289.439.8.8 0 0 0 .057.515zm.084-.36.31.393.181-.143-.31-.392-.31-.392-.18.143zm.18-.142.311.392.18-.143-.31-.392-.31-.392-.18.143zm.181-.143.31.392a6 6 0 0 0 .35-.298l-.342-.365-.341-.366a5 5 0 0 1-.287.245zm.318-.271.342.365.137-.129-.341-.365-.342-.365-.137.128zm.138-.129.341.365.138-.129-.342-.365-.341-.365-.138.129zm.137-.129.342.365q.177-.165.313-.368l-.417-.277-.416-.277q-.068.102-.164.192zm.238-.28.417.277.1-.151-.416-.277-.416-.277-.101.151zm.101-.151.416.277.101-.152-.416-.276-.417-.277-.1.151zm.1-.151.417.276q.077-.116.18-.227l-.366-.34-.367-.34q-.155.167-.28.354zm.23-.291.367.34.13-.14-.367-.34-.366-.34-.13.14zm.13-.14.367.34.13-.14-.367-.34-.367-.34-.13.14zm.13-.14.366.34q.139-.148.29-.327l-.38-.324-.38-.324q-.142.165-.263.296zm.276-.311.38.324.147-.172-.38-.324-.381-.324-.147.172zm.146-.172.381.324.147-.172-.381-.324-.38-.324-.147.172zm.147-.172.38.324a.2.2 0 0 1-.08.046.2.2 0 0 1-.09.004l.154-.476.153-.476a.84.84 0 0 0-.488-.015.83.83 0 0 0-.41.269zm.364-.102-.154.476.217.07.154-.476.153-.476-.217-.07zm.216.07-.153.475.217.07.153-.476.154-.475-.217-.07zm.217.07-.153.475q.236.076.45.123l.105-.489.105-.488a4 4 0 0 1-.353-.097zm.402.11-.106.488.184.04.106-.489.106-.489-.185-.04zm.184.04-.106.488.185.04.105-.49.106-.488-.184-.04zm.184.039-.105.489q.284.058.57.015l-.072-.495-.072-.494a.6.6 0 0 1-.215-.004zm.393.01.072.494.209-.03-.072-.495-.073-.495-.208.03zm.209-.031.072.494.208-.03-.072-.495-.072-.494-.209.03zm.208-.03.072.494a.2.2 0 0 1-.123-.026c-.055-.03-.074-.065-.073-.064l.44-.238.44-.238a.83.83 0 0 0-.339-.344.8.8 0 0 0-.49-.08zm.316.166-.44.238.107.198.44-.238.44-.238-.108-.198zm.107.198-.44.238.107.198.44-.239.44-.238-.108-.197zm.106.197-.44.239c.114.21.283.389.517.493l.203-.457.203-.457-.01-.007a.2.2 0 0 1-.033-.049zm.28.275-.203.457.173.077.203-.457.203-.457-.173-.077zm.173.077-.203.457.173.076.203-.457.203-.457-.173-.076zm.173.076-.203.457q.112.05.22.134l.31-.391.31-.392a2 2 0 0 0-.434-.265zm.327.2-.31.391.154.123.31-.392.31-.392-.154-.122zm.154.122-.31.392.154.122.31-.391.311-.392-.154-.123zm.155.123-.31.391a.1.1 0 0 1-.033-.043c-.01-.023-.008-.036-.008-.028l.5.013.5.014a.89.89 0 0 0-.339-.74zm.148.333-.5-.013-.005.211.5.014.5.014.005-.212zm-.005.212-.5-.014-.006.212.5.013.5.014.005-.211zm-.006.211-.5-.013c-.007.239.055.47.2.673l.406-.29.408-.29c-.006-.009-.016-.023-.014-.066zm.106.37-.407.29.113.158.407-.29.407-.29-.112-.158zm.113.158-.407.29.112.158.408-.29.407-.29-.113-.158zm.113.158-.408.29q.106.15.226.33l.417-.274.418-.275q-.128-.195-.246-.36zm.235.346-.417.275.123.187.418-.275.417-.275-.123-.187zm.124.187-.418.275.123.188.418-.275.418-.275-.124-.188zm.123.188-.418.274c.012.018.012.021.009.013a.3.3 0 0 1-.027-.123.455.455 0 0 1 .415-.47l.03.5.03.5a.545.545 0 0 0 .525-.573.7.7 0 0 0-.061-.244 1 1 0 0 0-.085-.152zm.009.194-.03-.5-.114.008.029.499.03.499.114-.007zm-.115.007-.03-.5-.114.007.03.5.029.499.114-.007zm-.115.006-.03-.499a.6.6 0 0 0-.483.29.8.8 0 0 0-.107.39l.5.015.5.014c0-.026.006.029-.041.104a.4.4 0 0 1-.31.186zm-.12.196-.5-.014-.005.189.5.014.5.014.005-.19z"/><path fill="var(--fill-0, #fffeef)" d="M50.592 14.004c.474.008.73.021 1.21.021 2.883 0 6.343 1.027 8.956 4.413 1.715 2.221 2.493 4.832 2.915 6.946.426 2.13.588 4.327.723 5.803.181 1.99.158 5.015-.353 8.161-.499 3.065-1.556 6.854-3.875 9.866-.923 1.199-2.396 2.273-4.053 2.904-1.797.684-4.24 1.004-6.82-.034-.996-.401-1.69-.655-2.249-.86-.455-.168-1.18-.427-1.834-.776-1.692-.903-2.7-2.35-3.271-3.053-1.447-1.78-2.478-4.549-3.042-7.513-.598-3.143-.778-7.05-.097-11.461.05-.326.133-.639.24-.937q.008-.403.082-.814c.377-2.033 1.103-4.355 2.16-6.637.577-1.247 1.31-2.484 2.515-3.442.55-.436 1.075-.708 1.204-.778l.01-.004c.989-.733 2.203-1.473 3.872-1.718a10.4 10.4 0 0 1 1.707-.087"/><path fill="var(--stroke-0, #f4c280)" d="m50.592 14.004.018-1zm1.21.021v-1zm8.956 4.413.792-.61zm2.915 6.946.98-.196zm.723 5.803-.996.09zm-.353 8.161.986.16zm-3.875 9.866.793.61zm-4.053 2.904.356.934zm-6.82-.034.374-.928zm-2.249-.86-.345.938zm-1.834-.776-.47.882zm-3.271-3.053.776-.63zm-3.042-7.513-.983.187zm-.097-11.461-.988-.153zm.24-.937.941.339.056-.154.003-.164zm.082-.814-.983-.182zm2.16-6.637-.908-.42zm2.515-3.442-.622-.783zm1.204-.778.476.88zm.01-.004.47.883.065-.035.06-.044zm3.872-1.718-.145-.989zm1.707-.087-.017 1c.443.007.738.021 1.226.021v-2c-.47 0-.686-.013-1.191-.021zm1.21.021v1c2.641 0 5.778.932 8.165 4.024l.791-.61.792-.612c-2.841-3.68-6.623-4.802-9.749-4.802zm8.956 4.413-.791.611c1.577 2.044 2.316 4.48 2.726 6.531l.98-.196.98-.196c-.434-2.177-1.252-4.962-3.103-7.36zm2.915 6.946-.98.196c.412 2.064.57 4.198.707 5.698l.996-.09.996-.092c-.132-1.452-.3-3.714-.738-5.908zm.723 5.803-.996.09c.174 1.909.153 4.85-.345 7.91l.988.161.986.16c.526-3.231.552-6.34.363-8.412zm-.353 8.161-.988-.16c-.487 2.996-1.507 6.595-3.679 9.415l.793.61.792.61c2.465-3.201 3.559-7.18 4.069-10.314zm-3.875 9.866-.792-.61c-.798 1.036-2.112 2.006-3.617 2.58l.356.934.356.934c1.809-.689 3.441-1.866 4.49-3.228zm-4.053 2.904-.356-.935c-1.618.616-3.795.897-6.09-.027l-.374.928-.373.927c2.864 1.153 5.573.794 7.549.041zm-6.82-.034.374-.928c-1.011-.407-1.717-.665-2.277-.871l-.346.938-.345.939c.559.206 1.24.455 2.221.85zm-2.249-.86.346-.94c-.472-.173-1.128-.408-1.709-.718l-.47.882-.471.882c.725.387 1.52.67 1.959.832zm-1.834-.776.471-.882c-1.473-.787-2.345-2.037-2.966-2.802l-.776.631-.776.63c.52.64 1.665 2.285 3.577 3.305zm-3.271-3.053.776-.63c-1.298-1.598-2.286-4.181-2.836-7.07l-.982.187-.983.187c.579 3.04 1.653 5.993 3.249 7.957zm-3.042-7.513.982-.186c-.577-3.033-.754-6.825-.09-11.123l-.989-.152-.988-.153c-.699 4.525-.517 8.547.102 11.801zm-.097-11.461.989.152q.06-.386.192-.75l-.94-.339-.941-.339a6 6 0 0 0-.288 1.123zm.24-.937 1 .02q.007-.327.066-.651l-.983-.183-.984-.182a6 6 0 0 0-.098.975zm.082-.814.984.183c.36-1.948 1.06-4.19 2.083-6.4l-.907-.42-.908-.42c-1.09 2.353-1.842 4.755-2.235 6.875zm2.16-6.637.907.42c.55-1.188 1.203-2.262 2.23-3.079l-.622-.783-.622-.783c-1.383 1.1-2.196 2.5-2.8 3.805zm2.515-3.442.623.783c.471-.375.925-.61 1.057-.681l-.476-.88-.475-.88c-.127.07-.725.378-1.35.876zm1.204-.778.476.88a1 1 0 0 1-.097.045h-.001v.001l.005-.002a1 1 0 0 0 .097-.045l-.47-.883-.471-.882.043-.022.03-.013.017-.007q.005-.002.003-.002l-.009.004-.02.009-.078.037zm.01-.004.595.804c.929-.689 1.986-1.322 3.422-1.532l-.145-.99-.145-.989c-1.902.279-3.273 1.125-4.323 1.904zm3.872-1.718.145.99a9.4 9.4 0 0 1 1.545-.078l.017-1 .018-1a11.4 11.4 0 0 0-1.87.099z"/><ellipse cx="54.048" cy="31.175" fill="var(--fill-0, #424242)" rx="7.122" ry="11.534"/><path fill="var(--fill-0, white)" d="m50.19 36.942.334 1.55h1.078l-.872.958.333 1.55-.872-.959-.872.958.333-1.55-.872-.957h1.078z"/><path fill="var(--stroke-0, white)" d="m50.24 37.047-.137.063zm.024.052.136-.063zm.027.11-.15.006zm.002.056.15-.007zm.003.057-.15.007zm.02.111.143-.047zm.018.054-.143.047zm.018.053-.143.047zm.024.11-.149.018zm.014.112.149-.018zm0 .115-.148-.014zm-.01.118-.15-.015zm.01.113.144-.041zm.03.108-.145.04zm.033.108-.143.047zm.11.171-.024.148zm.232 0-.066-.134zm.056-.027-.066-.135zm.056-.028.067.135zm.226.045-.06.138zm.112.03.016-.148zm.056.007-.016.149zm.056.006-.016.149zm.097.002.016.15zm.04-.004.016.149zm.04-.005-.015-.149zm.005.04-.116-.096zm-.036.043.115.096zm-.105.133-.122-.087zm-.033.046.123.087zm-.032.046.122.087zm-.091.07-.056-.139zm-.115.047.056.139zm-.069.09-.148-.024zm-.021.133.148.023zm-.105.133.087.122zm-.047.033-.087-.122zm-.05.072-.149-.011zm-.002.038.15.011zm-.003.039-.15-.011zm.006.094.148-.024zm.018.111-.148.024zm.014.112.15-.01zm.004.057-.15.01zm.004.057.15-.011zm-.015.118.143.044zm-.038.123-.144-.044zm.01.113.13-.077zm.061.102-.128.076zm.055.103-.136.063zm.048.105.136-.063zm.04.106-.143.044zm.033.108.144-.043zm-.003.078.113.098zm-.02.023-.114-.098zm-.02.023-.114-.098zm-.046-.03.136-.063zm-.05-.107-.135.063zm-.084-.075.049-.141zm-.121-.042-.05.142zm-.08-.08-.142.048zm-.039-.116.142-.047zm-.059-.099-.107.106zm-.04-.04.108-.105zm-.039-.04-.107.105zm-.097-.063-.056.139zm-.058-.024-.056.14zm-.058-.023.056-.14zm-.082-.026-.014.15zm-.047-.004.013-.15zm-.07.032.09.12zm-.178.142-.106-.106zm-.04.04.106.106zm-.04.04.106.106zm-.073.086.123.086zm-.065.092-.123-.086zm-.084.228-.145-.041zm-.08.08.043.143zm-.126.037-.043-.143zm-.041-.012.124.085zm.021-.03.124.084zm.022-.032.123.085zm.03-.087-.148-.024zm.034-.222.15.017zm.007-.056-.15-.017zm.006-.057.15.017zm.065-.216-.141-.051zm.005-.114.147-.033zm-.027-.12-.147.033zm.027-.11-.114-.097zm.083-.097.114.097zm.042-.106-.15-.002zm0-.058.15.002zm.001-.057-.15-.002zm-.02-.109.138-.057zm-.043-.103-.139.058zm-.059-.094-.113.099zm-.037-.042-.113.099zm-.037-.043.113-.098zm-.089-.07-.073.13zm-.103-.059-.074.131zm-.092-.069-.106.106zm-.079-.08-.107.106zm-.07-.089-.128.077zm-.058-.098-.129.077zm-.064-.097-.121.089zm-.07-.095.121-.089zm.021-.045-.006.15zm.113.005.007-.15zm.112.018.04-.144zm.45.014-.063.137zm.057.027-.064.136zm.056.026.063-.136zm.107-.007.083.125zm.101-.067-.083-.125zm.056-.09.15.014zm.01-.113.15.014zm.033-.108-.134-.069zm.026-.052.134.069zm.028-.397.147.028zm.02-.11-.147-.028zm.022-.11-.147-.031zm.023-.11-.147-.032zm.019-.112-.149-.02zm.015-.112.148.02zm.025-.097-.139-.058zm.017-.042.139.058zm.018-.041.138.058zm.022-.041-.032.147zm.01.002.031-.147zm.03.053-.137.064zm.023.053-.136.063.025.052.136-.063.136-.063-.025-.053zm.025.052-.136.063a.14.14 0 0 1 .013.053l.15-.007.15-.006a.4.4 0 0 0-.041-.166zm.027.11-.15.006.003.057.15-.007.15-.007-.003-.056zm.002.056-.15.007.003.057.15-.007.15-.007-.003-.056zm.003.057-.15.007a.6.6 0 0 0 .028.15l.142-.046.143-.047a.3.3 0 0 1-.013-.07zm.02.111-.142.047.017.054.143-.047.142-.047-.017-.054zm.018.054-.143.047.018.053.143-.047.142-.047-.018-.053zm.018.053-.143.047a.4.4 0 0 1 .018.081l.15-.018.148-.018a.7.7 0 0 0-.031-.139zm.024.11-.149.018.007.056.149-.018.149-.018-.007-.056zm.007.056-.15.018.008.056.149-.018.149-.018-.007-.056zm.007.056-.15.018a.4.4 0 0 1 .002.083l.149.014.15.014a.7.7 0 0 0-.002-.147zm0 .115-.148-.014-.006.059.15.014.149.014.005-.059zm-.005.059-.149-.014-.006.058.15.015.149.014.006-.059zm-.005.059-.15-.015a.5.5 0 0 0 .015.168l.144-.04.145-.041a.2.2 0 0 1-.005-.058zm.01.113-.145.04.015.054.145-.04.144-.04-.015-.055zm.015.054-.145.04.016.055.144-.04.144-.041-.015-.055zm.015.054-.145.04.035.115.143-.047.142-.046-.03-.102zm.033.108-.143.047.017.053.143-.046.143-.046-.018-.054zm.017.054-.142.046.017.054.143-.046.142-.047-.017-.053zm.018.054-.143.046a.24.24 0 0 0 .194.165l.024-.148.025-.148c.001 0 .012.002.023.012q.017.017.02.026zm.075.063-.024.148.059.01.024-.148.024-.149-.058-.009zm.059.01-.024.148.058.01.024-.149.024-.148-.058-.01zm.058.009-.024.148q.11.017.205-.032l-.066-.134-.066-.135q-.016.008-.025.005zm.115-.018.066.134.057-.027-.067-.135-.066-.135-.056.028zm.056-.028.067.135.056-.028-.066-.135-.067-.134-.056.028zm.056-.028.067.135h-.013l.059-.138.06-.138a.28.28 0 0 0-.239.007zm.113-.003-.06.138.057.024.06-.138.059-.138-.057-.024zm.056.024-.06.138.057.024.06-.138.059-.138-.056-.024zm.056.024-.059.138q.075.033.156.042l.016-.15.016-.148a.2.2 0 0 1-.07-.02zm.113.03-.016.15.056.006.016-.15.017-.148-.057-.006zm.056.007-.016.149.056.006.017-.15.016-.148-.056-.006zm.056.006-.016.149a.6.6 0 0 0 .129.002l-.016-.15-.016-.148a.3.3 0 0 1-.064-.002zm.097.002.016.15.04-.005-.016-.15-.015-.148-.04.004zm.04-.004.016.149.04-.004-.015-.15-.016-.149-.04.005zm.04-.005.016.15s-.023.003-.051-.008a.14.14 0 0 1-.092-.117c-.005-.043.012-.073.013-.075l.003-.006.116.096.115.095a.3.3 0 0 0 .03-.043.17.17 0 0 0 .02-.1.16.16 0 0 0-.103-.132.2.2 0 0 0-.082-.009zm.005.04-.116-.096-.036.043.116.096.115.096.036-.044zm-.036.043-.116-.096-.036.043.116.096.115.096.036-.043zm-.036.043-.116-.096-.075.099.122.087.122.087q.03-.042.062-.081zm-.069.09-.122-.087-.033.046.122.087.123.087.032-.046zm-.033.046-.122-.087-.033.046.123.087.122.087.033-.046zm-.032.046-.123-.087a.05.05 0 0 1-.025.018l.057.139.056.139a.35.35 0 0 0 .157-.122zm-.091.07-.056-.139-.058.023.056.14.057.138.057-.023zm-.058.023-.056-.139-.058.024.056.139.057.139.058-.024zm-.057.024-.057-.139a.26.26 0 0 0-.16.205l.148.024.148.024-.006.011-.017.014zm-.069.09-.148-.024-.01.066.147.024.149.024.01-.066zm-.01.066-.149-.024-.01.067.148.023.148.024.01-.066zm-.011.067-.148-.024-.002.007.005-.006.087.122.087.122a.3.3 0 0 0 .119-.198zm-.058.1-.087-.123-.047.034.087.122.087.122.047-.034zm-.047.033-.087-.122-.047.033.087.122.088.122.047-.033zm-.047.033-.087-.122a.25.25 0 0 0-.112.183l.15.011.15.011a.1.1 0 0 1-.013.037q-.008.008 0 .002zm-.05.072-.149-.011-.003.038.15.011.15.011.002-.038zm-.002.038-.15-.01-.002.038.15.01.149.012.003-.038zm-.003.039-.15-.011a.6.6 0 0 0 .008.129l.148-.024.148-.024a.3.3 0 0 1-.004-.059zm.006.094-.148.024.01.056.147-.025.148-.024-.009-.055zm.01.055-.149.025.01.055.147-.024.148-.024-.009-.056zm.008.056-.148.024q.009.05.012.1l.15-.012.15-.01a2 2 0 0 0-.016-.126zm.014.112-.15.011.004.057.15-.011.15-.01-.005-.057zm.004.057-.15.01.004.057.15-.01.15-.011-.005-.057zm.004.057-.15.01a.2.2 0 0 1-.009.064l.144.044.143.044a.5.5 0 0 0 .021-.173zm-.015.118-.144-.044-.019.061.144.045.143.044.019-.062zm-.02.062-.143-.045-.019.062.144.044.143.044.019-.061zm-.018.061-.144-.044a.28.28 0 0 0 .026.233l.129-.076.129-.077.002.008q0 .007 0 0zm.01.113-.128.076.03.052.13-.077.128-.077-.03-.05zm.031.05-.129.078.03.05.13-.076.128-.077-.03-.05zm.03.052-.128.076q.026.045.047.09l.136-.063.136-.062a1 1 0 0 0-.062-.118zm.055.103-.136.063.024.053.136-.063.136-.063-.024-.053zm.024.053-.136.063.024.052.136-.063.136-.063-.024-.052zm.024.052-.136.063a1 1 0 0 1 .033.087l.144-.044.143-.043a1 1 0 0 0-.048-.126zm.04.106-.143.044.017.054.143-.044.144-.043-.017-.054zm.017.054-.144.044.017.054.143-.044.144-.043-.016-.054zm.016.054-.143.044q.002.012 0-.005a.1.1 0 0 1 .026-.06l.114.099.113.098c.068-.078.048-.174.034-.22zm-.003.078-.114-.099-.02.024.113.098.114.098.02-.023zm-.02.023-.114-.098-.02.023.113.098.114.099.02-.024zm-.02.023-.114-.098a.136.136 0 0 1 .176-.022c.018.012.026.025.028.027q.003.005 0 0l-.136.063-.136.063a.23.23 0 0 0 .076.096.164.164 0 0 0 .219-.03zm-.046-.03.136-.063-.024-.053-.137.063-.136.062.025.054zm-.025-.053.137-.064-.025-.053-.136.063-.136.063.024.053zm-.024-.054.136-.063a.3.3 0 0 0-.172-.153l-.05.141-.049.142q.006.003.002 0l-.003-.004zm-.085-.075.049-.141-.06-.021-.05.141-.05.142.061.021zm-.06-.02.048-.142-.06-.021-.05.141-.049.142.06.021zm-.061-.022.049-.141.006.005.007.01-.142.047-.142.047a.27.27 0 0 0 .172.174zm-.08-.08.142-.046-.02-.059-.142.047-.142.048.02.058zm-.02-.058.143-.047-.02-.058-.142.047-.142.047.02.059zm-.019-.058.142-.047a.4.4 0 0 0-.094-.157l-.107.105-.107.106a.1.1 0 0 1 .024.04zm-.059-.099.107-.105-.04-.04-.106.105-.107.105.04.04zm-.04-.04.108-.105-.04-.04-.107.105-.107.105.04.04zm-.039-.04.107-.105a.4.4 0 0 0-.148-.097l-.056.139-.056.139a.1.1 0 0 1 .046.03zm-.097-.063.056-.14-.058-.023-.056.14-.056.138.058.024zm-.058-.024.056-.139-.058-.023-.056.139-.056.139.058.023zm-.058-.023.056-.14a.5.5 0 0 0-.124-.035l-.014.15-.014.149-.005-.001.007.002.038.014zm-.082-.026.014-.15-.024-.001-.014.15-.013.148.023.003zm-.023-.002.013-.15-.024-.002-.013.15-.014.15.024.001zm-.024-.002.013-.15a.2.2 0 0 0-.105.02.4.4 0 0 0-.068.041l.09.12.09.121.013-.009-.013.004a.1.1 0 0 1-.034.002zm-.07.032-.09-.12-.046.034.09.12.09.12.045-.034zm-.046.034-.09-.12-.046.034.09.12.09.12.045-.034zm-.046.034-.09-.12a1 1 0 0 0-.102.088l.106.106.106.107a1 1 0 0 1 .07-.06zm-.086.074-.106-.106-.04.04.106.106.106.106.04-.04zm-.04.04-.106-.107-.04.04.106.107.106.106.04-.04zm-.04.04-.106-.107a1 1 0 0 0-.09.106l.123.087.123.086.056-.066zm-.073.086-.122-.087-.033.046.123.087.122.087.033-.047zm-.032.046-.123-.087-.033.047.123.086.122.087.033-.047zm-.033.046-.123-.086a.5.5 0 0 0-.071.152l.144.04.144.042a.2.2 0 0 1 .028-.061zm-.05.107-.144-.041-.017.06.144.041.144.041.017-.06zm-.017.06-.145-.04-.017.06.145.04.144.042.017-.06zm-.017.06-.145-.04q0-.004.01-.016.011-.009.011-.007l.044.143.043.144a.26.26 0 0 0 .18-.182zm-.08.08-.044-.143-.063.019.044.143.044.144.062-.02zm-.063.02-.044-.144-.062.019.043.143.044.144.063-.02zm-.063.018-.043-.143-.006.001h.013q.01-.001.036.005a.14.14 0 0 1 .103.14.14.14 0 0 1-.02.07l-.124-.085-.124-.085c-.006.01-.03.045-.031.095a.156.156 0 0 0 .113.153.2.2 0 0 0 .08.004l.047-.011zm-.041-.012.124.085.02-.031-.123-.085-.123-.085-.022.031zm.021-.03.124.084.021-.031-.123-.085-.124-.085-.022.031zm.022-.032.123.085a.4.4 0 0 0 .055-.147l-.148-.025-.148-.024-.006.024q-.002.007 0 .002zm.03-.087.148.025.01-.055-.149-.025-.148-.025-.009.056zm.01-.055.147.025.01-.056-.148-.025-.148-.024-.01.055zm.009-.056.148.025q.01-.06.016-.12l-.149-.016-.149-.017q-.006.053-.014.104zm.015-.111.15.017.006-.057-.15-.017-.148-.016-.007.056zm.007-.056.149.016.006-.056-.149-.017-.149-.017-.006.057zm.006-.057.15.017a.3.3 0 0 1 .017-.075l-.141-.051-.141-.051a.6.6 0 0 0-.034.144zm.026-.11.14.052.02-.053-.14-.051-.142-.052-.02.053zm.02-.053.14.052.02-.053-.141-.052-.141-.051-.02.053zm.019-.053.14.051a.35.35 0 0 0 .012-.198l-.147.033-.146.034a.05.05 0 0 1 0 .029zm.005-.114.147-.033-.014-.06-.146.033-.147.033.014.06zm-.013-.06.146-.034-.014-.06-.146.033-.147.034.014.06zm-.014-.06.146-.034v.013l-.004.008-.115-.097-.114-.097a.27.27 0 0 0-.06.24zm.027-.11.115.097.041-.048-.114-.097-.115-.098-.041.049zm.042-.048.114.097.041-.05-.114-.096-.114-.097-.042.048zm.041-.05.114.098a.3.3 0 0 0 .078-.202l-.15-.001-.15-.002v.002l-.006.009zm.042-.105.15.001v-.057l-.15-.002-.15-.001v.057zm0-.058.15.002.001-.057-.15-.002-.15-.002v.058zm.001-.057.15.002a.4.4 0 0 0-.032-.168l-.139.057-.138.058q.01.021.01.05zm-.02-.109.138-.057-.022-.052-.138.058-.139.057.022.052zm-.022-.051.139-.058-.022-.052-.138.058-.139.058.021.051zm-.021-.052.138-.058a.5.5 0 0 0-.084-.135l-.113.1-.113.098a.2.2 0 0 1 .033.053zm-.059-.094.113-.099-.037-.042-.113.099-.113.099.037.042zm-.037-.042.113-.1-.037-.041-.113.098-.113.1.037.042zm-.037-.043.113-.098a.5.5 0 0 0-.129-.104l-.073.131-.073.131q.03.017.05.04zm-.089-.07.073-.132-.051-.029-.074.131-.073.131.052.03zm-.052-.03.074-.13-.052-.03-.073.131-.074.131.052.03zm-.051-.029.073-.13a.3.3 0 0 1-.058-.044l-.107.105-.106.106a.6.6 0 0 0 .124.094zm-.092-.069.107-.105-.04-.04-.106.105-.107.106.04.04zm-.04-.04.107-.105-.04-.04-.106.105-.107.106.04.04zm-.039-.04.107-.105a.3.3 0 0 1-.047-.061l-.13.077-.128.077a.6.6 0 0 0 .091.118zm-.07-.089.13-.077-.03-.05-.129.078-.128.077.03.05zm-.029-.05.129-.076-.03-.05-.128.078-.129.077.03.05zm-.03-.048.13-.078a1 1 0 0 0-.072-.108l-.121.089-.121.089q.03.042.056.085zm-.063-.097.12-.089-.034-.047-.121.089-.121.088.035.048zm-.035-.047.12-.089-.034-.048-.121.09-.121.088.035.047zm-.035-.048.121-.089q0-.003.01.02a.13.13 0 0 1-.008.099.13.13 0 0 1-.081.07l-.02.005h-.007l.006-.15.007-.15q-.027-.002-.072.008a.17.17 0 0 0-.103.087.17.17 0 0 0-.006.128.2.2 0 0 0 .032.06zm.021-.045-.006.15.056.003.007-.15.006-.15-.056-.003zm.057.003-.007.15.056.002.007-.15.007-.15-.057-.002zm.056.002-.007.15a.4.4 0 0 1 .08.013l.04-.145.04-.144a.7.7 0 0 0-.146-.024zm.112.018-.04.145.056.016.04-.145.041-.144-.056-.016zm.057.016-.04.145.056.015.04-.144.04-.145-.056-.015zm.056.016-.04.144a.36.36 0 0 0 .19.002l-.038-.145-.038-.145a.1.1 0 0 1-.034 0zm.113 0 .038.146.056-.015-.038-.145-.038-.145-.057.015zm.056-.014.038.145.056-.015-.038-.145-.038-.145-.056.015zm.056-.015.038.145h.003l.008.003.064-.136.063-.137a.3.3 0 0 0-.214-.02zm.113.011-.064.137.056.026.064-.136.063-.136-.056-.027zm.056.027-.064.136.057.026.063-.136.063-.136-.056-.026zm.056.026-.063.136a.25.25 0 0 0 .253-.018l-.083-.125-.083-.125a.04.04 0 0 1 .02-.006q.018 0 .02.002zm.107-.007.083.125.05-.034-.083-.125-.082-.125-.05.034zm.05-.034.083.125.05-.033-.082-.125-.083-.125-.05.033zm.051-.033.083.125a.27.27 0 0 0 .122-.2l-.15-.015-.148-.014q0-.005.005-.015l.005-.006zm.056-.09.15.014.005-.056-.15-.014-.15-.015-.004.057zm.005-.056.15.014.005-.057-.15-.014-.149-.014-.005.056zm.006-.057.149.014a.2.2 0 0 1 .016-.053l-.133-.069-.134-.069a.5.5 0 0 0-.048.163zm.032-.108.133.069.027-.052-.134-.069-.133-.068-.027.051zm.026-.052.134.069.026-.052-.133-.069-.134-.068-.026.052zm.027-.052.133.069a.33.33 0 0 0 .033-.203l-.149.023-.148.023a.03.03 0 0 1-.003.02zm.017-.111.149-.023-.01-.059-.148.023-.148.022.01.06zm-.009-.06.149-.022-.01-.06-.148.023-.148.023.009.06zm-.009-.059.149-.023a.2.2 0 0 1 0-.064l-.148-.028-.147-.027a.5.5 0 0 0-.002.165zm.002-.115.147.028.01-.056-.147-.027-.148-.027-.01.055zm.01-.055.147.027.01-.055-.147-.027-.147-.028-.01.056zm.01-.055.148.027.02-.107-.146-.03-.147-.031-.022.113zm.022-.11.147.03.011-.055-.147-.03-.147-.031-.011.055zm.011-.056.147.03.012-.054-.147-.03-.147-.032-.012.056zm.012-.055.147.03q.012-.06.02-.12l-.148-.02-.149-.02q-.007.05-.017.1zm.019-.11.148.02.008-.057-.149-.02-.148-.02-.008.056zm.007-.057.149.02.007-.056-.148-.02-.149-.02-.007.056zm.008-.056.148.02a.2.2 0 0 1 .015-.06l-.138-.057-.139-.058a.5.5 0 0 0-.035.135zm.025-.097.138.058.018-.042-.139-.058-.138-.058-.018.042zm.017-.042.139.058.017-.041-.138-.058-.139-.058-.017.041zm.018-.041.138.058.007-.017-.002.004-.01.012a.15.15 0 0 1-.143.048l.032-.146.032-.147a.15.15 0 0 0-.15.053l-.021.031-.022.046zm.022-.041-.032.147h.005l.032-.146.031-.147h-.005zm.005.001-.032.147h.005l.032-.146.031-.147h-.005zm.005.001-.032.147a.15.15 0 0 1-.087-.057l-.003-.004.015.03.136-.063.136-.063-.039-.073-.018-.021c-.003-.003-.03-.033-.077-.043zm.03.053-.137.064.024.052.136-.063.136-.064-.024-.052z"/><ellipse cx="49.301" cy="24.767" fill="var(--fill-0, white)" rx="3.561" ry="3.845"/><path fill="var(--stroke-0, white)" d="m52.846 25.333-.5-.014zm-.052.373.485.122zm-.093.368-.485-.122zm-.095.377.485.122zm-.097.386-.485-.122zm-.135.383-.455-.206zm-.172.381.456.206zm-.285.269-.184-.465zm-.199.078.184.465zm-.199.079.184.465zm-.416.062-.038.498zm-.216-.017-.038.499zm-.217-.016.038-.499zm-.343.227-.444-.23zm-.128.245-.443-.231zm-.127.244.443.231zm-.33.078-.317.386zm-.203-.167-.317.387zm-.203-.166.317-.387zm-.414-.052-.238-.44zm-.212.114.239.44zm-.535.008.447-.226zm-.223-.442-.447.226zm-.259-.312.263-.425zm-.292-.181-.263.425zm-.244-.233.412-.283zm-.196-.285-.412.284zm-.311-.224.18-.466zm-.425-.163-.18.466zm-.177-.294-.494-.083zm-.402-1.473-.476-.154zm.088-.785-.457.202zm.073-.935-.31-.392zm.498-.415-.341-.365zm.138-.128.341.365zm.137-.129-.341-.365zm.238-.28-.416-.277zm.101-.151-.416-.277zm.33-.442-.366-.34zm.26-.28-.367-.34zm.276-.311-.38-.324zm.146-.172.381.324zm.147-.172-.38-.325zm1.199.147.105-.488zm1.493.195-.44.238zm.667.747.203-.457zm.173.076-.203.457zm.327.2-.31.391zm.309.244-.31.392zm.148.334.5.014zm-.005.212.5.014zm-.006.211-.5-.013zm.106.37.408-.29zm.225.316-.407.29zm.236.346-.417.275zm.247.375.418-.275zm.009.194.03.499zm-.115.007-.03-.5zm-.235.202.5.014zm-.005.189-.5-.014-.005.188.5.014.5.014.005-.189zm-.005.188-.5-.014a1.2 1.2 0 0 1-.037.265l.485.122.485.122a2.2 2.2 0 0 0 .066-.48zm-.052.373-.485-.122-.046.184.485.122.484.122.047-.184zm-.046.184-.485-.122-.047.184.485.122.485.122.046-.184zm-.047.184-.485-.122-.095.377.485.122.485.122.095-.377zm-.095.377-.485-.122-.048.193.485.122.485.122.048-.193zm-.048.193-.485-.122-.049.193.485.122.485.122.049-.193zm-.049.193-.485-.122q-.038.148-.105.3l.456.205.455.207q.105-.23.164-.468zm-.135.383-.455-.206-.086.19.455.207.456.206.086-.19zm-.086.19-.455-.206-.086.19.455.207.456.206.086-.19zm-.086.191-.455-.206-.004.006.002-.001q0-.002 0 0l-.012.005.184.465.184.465c.25-.099.444-.28.557-.528zm-.285.269-.184-.465-.199.078.184.465.184.465.199-.078zm-.199.078-.184-.465-.198.079.183.465.184.465.199-.079zm-.199.079-.183-.465a.4.4 0 0 1-.194.028l-.039.499-.038.498q.331.026.638-.095zm-.416.062.039-.499-.217-.016-.038.498-.038.499.217.016zm-.216-.017.038-.498-.217-.017-.038.499-.038.498.217.017zm-.217-.016.038-.499a.8.8 0 0 0-.508.13.96.96 0 0 0-.317.365l.444.232.443.23c.016-.03.015-.014-.018.007a.2.2 0 0 1-.12.033zm-.343.227-.444-.23-.127.244.443.23.444.232.127-.244zm-.128.245-.443-.231-.127.244.443.23.443.232.128-.244zm-.127.244-.443-.231c-.017.031.028-.078.182-.114.165-.04.263.048.248.036l-.317.387-.317.386c.12.1.34.229.615.164.265-.062.407-.265.475-.397zm-.33.078.317-.387-.203-.166-.317.386-.317.387.203.166zm-.203-.167.317-.386-.203-.167-.317.387-.317.386.203.167zm-.203-.166.317-.387a.84.84 0 0 0-.97-.105l.239.44.238.44a.1.1 0 0 1-.03.009.2.2 0 0 1-.061.002c-.046-.006-.063-.024-.05-.013zm-.414-.052-.238-.44-.212.114.238.44.239.44.211-.115zm-.212.114-.238-.44-.211.115.238.44.238.44.212-.115zm-.211.115-.238-.44a.2.2 0 0 1 .057-.018.3.3 0 0 1 .15.013c.12.04.158.122.154.112l-.447.226-.445.226c.07.138.199.311.426.386a.73.73 0 0 0 .581-.066zm-.324-.107.447-.226-.112-.221-.447.226-.446.226.113.22zm-.111-.221.446-.226-.112-.221-.447.226-.446.226.112.22zm-.112-.221.446-.226a1.25 1.25 0 0 0-.442-.511l-.263.425-.263.425c-.008-.005.025.013.075.113zm-.259-.312.263-.425-.146-.09-.263.424-.263.426.146.09zm-.146-.09.263-.426-.146-.09-.263.425-.263.425.146.09zm-.146-.091.263-.425a.3.3 0 0 1-.095-.091l-.412.283-.412.284q.157.228.393.374zm-.244-.233.412-.283-.098-.143-.412.284-.412.283.098.143zm-.098-.142.412-.284-.098-.142-.412.283-.412.284.098.142zm-.098-.143.412-.283a1.14 1.14 0 0 0-.544-.407l-.179.466-.18.467c.078.03.086.052.079.04zm-.311-.224.18-.466-.213-.082-.18.466-.179.467.213.082zm-.213-.082.18-.466-.213-.082-.18.467-.179.466.213.082zm-.212-.081.179-.467.009.004.023.015a.3.3 0 0 1 .066.075.25.25 0 0 1 .039.162l-.493-.083-.494-.083a.75.75 0 0 0 .092.52.8.8 0 0 0 .4.323zm-.177-.294.493.083.035-.212-.493-.083-.493-.083-.036.212zm.035-.212.493.083.036-.212-.493-.083-.493-.083-.036.212zm.036-.212.493.083a.93.93 0 0 0-.225-.787l-.375.33-.375.33q.002.005-.001 0a.1.1 0 0 1-.01-.036v-.003zm-.107-.374.375-.33-.142-.162-.376.33-.375.331.143.162zm-.143-.162.376-.33-.143-.162-.375.33-.375.331.142.162zm-.142-.161.375-.33c-.003-.005.012.012.02.049a.2.2 0 0 1 0 .083l-.476-.154-.476-.154c-.1.31-.019.609.182.836zm-.081-.352.475.154.062-.19-.476-.153-.476-.154-.061.19zm.061-.19.476.155.061-.19-.476-.154-.475-.154-.062.19zm.061-.19.476.155c.086-.265.05-.528-.053-.763l-.457.203-.457.202c.013.03.015.046.015.05v.002-.002zm-.034-.405.457-.203-.096-.216-.457.202-.457.203.096.216zm-.096-.217.457-.202-.096-.217-.457.203-.457.203.096.216zm-.096-.216.457-.203s.02.046.003.12a.2.2 0 0 1-.065.116l-.31-.392-.311-.392a.8.8 0 0 0-.288.439.8.8 0 0 0 .057.515zm.084-.36.31.393.181-.143-.31-.392-.31-.392-.181.143zm.18-.142.311.392.18-.143-.31-.392-.31-.392-.18.143zm.181-.143.31.392q.195-.153.35-.298l-.342-.365-.341-.366q-.12.113-.287.245zm.318-.271.342.365.137-.129-.341-.365-.342-.365-.137.128zm.138-.13.341.366.138-.129-.342-.365-.341-.365-.138.129zm.137-.128.342.365q.178-.165.313-.368l-.417-.277-.416-.277q-.068.102-.163.192zm.238-.28.416.277.101-.151-.416-.277-.416-.277-.101.151zm.101-.151.416.277.101-.152-.416-.276-.417-.277-.1.151zm.1-.151.417.276q.077-.116.18-.227l-.366-.34-.367-.34q-.155.167-.28.354zm.23-.291.367.34.13-.14-.367-.34-.366-.34-.13.14zm.13-.14.367.34.13-.14-.367-.34-.367-.34-.13.14zm.13-.14.366.34q.138-.148.29-.327l-.38-.324-.38-.324q-.142.165-.263.295zm.276-.311.38.324.147-.172-.38-.324-.381-.324-.147.172zm.146-.172.381.324.147-.172-.381-.324-.38-.325-.147.173zm.147-.172.38.324a.2.2 0 0 1-.08.046.2.2 0 0 1-.09.003l.153-.475.154-.476a.84.84 0 0 0-.488-.015.84.84 0 0 0-.41.268zm.363-.102-.153.475.217.07.153-.476.154-.475-.217-.07zm.217.07-.153.475.217.07.153-.476.154-.475-.217-.07zm.217.07-.153.475q.236.076.45.123l.105-.489.105-.488a4 4 0 0 1-.353-.097zm.402.11-.106.488.184.04.106-.489.105-.489-.184-.04zm.184.04-.106.488.185.04.105-.49.106-.488-.184-.04zm.184.039-.105.489q.282.058.57.015l-.072-.495-.072-.494a.6.6 0 0 1-.215-.004zm.393.01.072.494.209-.03-.073-.495-.072-.495-.208.03zm.209-.031.072.494.208-.03-.072-.495-.072-.494-.209.03zm.208-.03.072.494a.2.2 0 0 1-.123-.026c-.055-.03-.074-.065-.073-.064l.44-.238.44-.238a.83.83 0 0 0-.339-.344.8.8 0 0 0-.49-.08zm.316.166-.44.238.107.198.44-.238.44-.238-.108-.198zm.106.198-.44.238.108.197.44-.238.44-.238-.108-.197zm.107.197-.44.238c.114.21.283.39.517.494l.203-.457.203-.457-.01-.007a.2.2 0 0 1-.033-.049zm.28.275-.203.457.173.076.203-.456.203-.457-.173-.077zm.173.076-.203.457.172.077.204-.457.203-.457-.173-.076zm.173.077-.203.457q.112.05.22.134l.31-.392.31-.391a2 2 0 0 0-.434-.265zm.327.2-.31.391.154.123.31-.392.31-.392-.154-.122zm.154.122-.31.392.154.122.31-.392.311-.391-.154-.123zm.155.122-.31.392a.1.1 0 0 1-.033-.044c-.01-.022-.008-.035-.008-.027l.5.013.5.014a.89.89 0 0 0-.339-.74zm.148.334-.5-.013-.005.211.5.014.5.014.005-.212zm-.005.212-.5-.014-.006.212.5.013.5.014.005-.211zm-.006.211-.5-.013c-.007.239.055.47.199.673l.407-.29.408-.29c-.006-.009-.016-.023-.014-.066zm.106.37-.407.29.112.158.408-.29.407-.29-.112-.158zm.113.158-.407.29.112.158.407-.29.408-.29-.113-.158zm.112.158-.407.29q.106.15.226.33l.417-.274.418-.275q-.128-.195-.246-.36zm.236.346-.417.275.123.187.418-.275.417-.275-.123-.187zm.124.187-.418.275.123.188.418-.275.418-.275-.124-.188zm.123.188-.418.274c.012.018.012.021.009.013a.3.3 0 0 1-.027-.123.455.455 0 0 1 .415-.47l.03.5.03.499a.545.545 0 0 0 .525-.573.7.7 0 0 0-.061-.243 1 1 0 0 0-.085-.152zm.009.194-.03-.5-.115.008.03.499.03.499.114-.007zm-.115.007-.03-.5-.114.007.03.5.029.499.114-.007zm-.115.006-.03-.499a.6.6 0 0 0-.483.29.8.8 0 0 0-.107.39l.5.015.5.014c0-.026.005.029-.041.104a.39.39 0 0 1-.31.186zm-.12.196-.5-.014-.005.189.5.014.5.013.005-.188z"/><path stroke="var(--stroke-0, #f4c280)" stroke-linecap="round" stroke-linejoin="round" stroke-width="3" d="M47 68c0-1.182-.168-2.352-.495-3.444s-.805-2.084-1.409-2.92c-.603-.836-1.32-1.499-2.109-1.95A5 5 0 0 0 40.5 59c-.854 0-1.699.233-2.487.685-.79.452-1.506 1.115-2.11 1.951s-1.082 1.828-1.408 2.92A12 12 0 0 0 34 68"/><path fill="var(--stroke-0, #91ccff)" d="M26.552 50.34a2 2 0 1 0-3.298 2.263l1.649-1.131zm-1.592 1.214.023 2 3.745-.043-2.12-3.088zm-5.462-1.715-1.214 1.59zm0 1.991-.302-1.977zm2.69-.038-.634 1.897zm3.031.64-.337-1.971zm3.662-1.267-1.045-1.705zm.724-.444-1.045-1.705zm1.18.294-1.703 1.05zm.91 1.474 1.702-1.05zm-4.637.8-1.316-1.506zm-.841.735 1.316 1.506zm-.96.199-1.953.43zm-.118-.537 1.954-.43-.006-.024-.006-.024zm-.285-1.16 1.742-.983-3.684 1.46zm-1.693 1.069a2 2 0 0 0 3.484-1.965l-1.742.983zm1.742-2.123-1.649 1.131.057.083 1.649-1.132 1.649-1.131-.057-.083zm.057.082-.024-2-1.583.019.023 2 .024 2 1.583-.019zm-1.584.019-.023-2a3.7 3.7 0 0 1-.887-.077c-.188-.045-.239-.09-.224-.079l-1.214 1.59-1.214 1.59c1.03.786 2.348.99 3.586.976zm-2.348-.566 1.214-1.59-.765-.584-1.214 1.59-1.214 1.59.765.584zm-.765-.584 1.213-1.59-.765-.584-1.213 1.59-1.214 1.59.765.583zm-.765-.584 1.213-1.59a4 4 0 0 0-.683-.428 2.43 2.43 0 0 0-1.324-.24 2.16 2.16 0 0 0-1.714 1.23 2.5 2.5 0 0 0-.224 1.204l1.997-.092 1.998-.093c0 .015.022.316-.155.692a1.84 1.84 0 0 1-1.446 1.032c-.492.057-.824-.109-.859-.125-.076-.037-.087-.054-.017 0zm-.735.084-1.998.092.031.668 1.998-.092 1.998-.092-.03-.669zm.031.668-1.998.092.031.669 1.998-.092 1.998-.093-.03-.668zm.031.669-1.998.092c.023.492.175 1.305.888 1.91.729.618 1.573.623 2.084.545l-.301-1.977-.302-1.977c.084-.013.602-.07 1.106.358.49.415.519.91.521.956zm.673.57.301 1.977.642-.098-.301-1.977-.302-1.977-.642.098zm.642-.098.301 1.977.642-.098-.302-1.977-.301-1.977-.642.098zm.641-.098.302 1.977c.047-.007.191-.016.471.078l.634-1.897.634-1.897c-.74-.247-1.534-.361-2.342-.238zm1.407.158-.634 1.897.765.255.634-1.897.633-1.897-.764-.255zm.765.255-.634 1.897.765.256.633-1.897.634-1.897-.765-.256zm.764.256-.633 1.897a5.05 5.05 0 0 0 2.473.203l-.338-1.971-.337-1.971a1.06 1.06 0 0 1-.531-.055zm1.502.129.338 1.971.737-.126-.337-1.971-.338-1.972-.737.127zm.738-.126.337 1.971.737-.126-.337-1.972-.337-1.97-.738.125zm.737-.127.337 1.972a6.1 6.1 0 0 0 2.17-.836l-1.045-1.706-1.045-1.705a2.1 2.1 0 0 1-.755.304zm1.462-.57 1.045 1.706.724-.444-1.044-1.706-1.045-1.705-.725.444zm.725-.444 1.044 1.706.725-.444-1.045-1.706-1.045-1.705-.724.444zm.724-.444 1.045 1.706c-.03.018-.368.211-.87.087-.493-.123-.692-.44-.698-.45l1.703-1.05 1.702-1.05c-.309-.5-.856-1.112-1.742-1.332-.895-.223-1.672.07-2.185.384zm1.18.294-1.703 1.05.455.737 1.703-1.05 1.702-1.05-.455-.737zm.454.737-1.702 1.05.455.737 1.702-1.05 1.703-1.05-.455-.737zm.455.737-1.702 1.05c.042.068-.026-.022-.08-.218a1.85 1.85 0 0 1 .518-1.802 1.9 1.9 0 0 1 1.014-.51 1.6 1.6 0 0 1 .497-.004c.147.022.204.056.12.021l-.764 1.848-.763 1.849c.199.082.486.188.808.237.18.027 1.113.167 1.873-.57.862-.837.62-1.887.553-2.131a3.2 3.2 0 0 0-.371-.82zm-.397.386.764-1.849-.852-.352-.764 1.849-.764 1.848.853.352zm-.852-.352.764-1.849-.852-.352-.764 1.849-.764 1.848.852.352zm-.852-.352.764-1.849a3.4 3.4 0 0 0-2.055-.182c-.686.155-1.258.505-1.718.908l1.316 1.506 1.316 1.506c.1-.088.09-.046-.03-.019a.66.66 0 0 1-.357-.022zm-1.693.383-1.316-1.506-.842.735 1.316 1.506 1.316 1.506.842-.735zm-.842.735-1.316-1.506-.841.735 1.316 1.506 1.316 1.506.841-.735zm-.841.735L24.9 52.518c-.093.081-.133.107-.128.103a1 1 0 0 1 .09-.046 1.3 1.3 0 0 1 .288-.092c.286-.06.85-.082 1.392.314.495.363.632.834.668.996l-1.953.43-1.954.43c.075.34.282.937.877 1.373a2.23 2.23 0 0 0 1.78.374c.72-.149 1.285-.62 1.572-.87zm-.96.199 1.954-.43-.118-.537-1.954.43-1.953.43.118.537zm-.118-.537 1.942-.478-.285-1.16-1.942.478-1.942.477.285 1.16zm-.285-1.16-1.742.982.049.087 1.742-.982 1.742-.983-.049-.087zm33.197.657a2 2 0 1 0-.38-3.982l.19 1.991zm-.29-1.981-.19-1.991-.382.036-.342.176zm-3.523 1.03-.759 1.85zm-4.223.986-1.534-1.283zm.41-1.137-1.761-.947zm2.824-.295-.245 1.985zm2.963-.626-.647-1.893zm1.34-.832 1.366 1.46zm1.258-1.178-1.367-1.46zm3.42.463-.705 1.871zm-1.014 1.116-.733-1.86zm-1.196 1.184 1.723 1.017zm-1.096 1.858-1.722-1.017zm-1.338.722-.505 1.936zm-.79-.206-.504 1.936zm-.789-.206.505-1.935zm-.428-1.955-1.959-.404zm.18-.875 1.96.405zm.949-.22 1.297-1.523zm.768.653-1.297 1.523zm2.219 1.59-.765 1.849zm5.39 3.204-1.635 1.15zm1.233 1.753 1.636-1.15zm-.467 1.38-.843-1.814zm-2.167 1.006-.843-1.813zm1.275 2.796-1.394 1.434zm.548 1.574-1.919-.562zm-.237.81-1.92-.562zm-.224 2.427 1.91-.594zm.5 1.612-1.91.594zm-.624 1.395-1.117-1.66zm-1.75 1.178 1.116 1.659zm-.493.82 1.033-1.713zm.383.23-1.034 1.713.09.054.095.045zm.774.363 1.993.159.11-1.382-1.255-.588zm-2.002-.058a2 2 0 1 0 3.987.316l-1.993-.158zM57.86 51.192l-.19-1.99-.1.009.19 1.99.19 1.992.1-.01zm-.1.01-.914-1.78-1.34.689.915 1.779.914 1.779 1.34-.688zm-1.34.688-.913-1.779c-.321.165-.52.218-.612.233-.079.012-.02-.012.102.038l-.76 1.85-.759 1.85c1.372.563 2.773.143 3.857-.413zm-2.182.342.759-1.85-.844-.346-.759 1.85-.76 1.85.844.346zm-.844-.346.76-1.85-.844-.346-.76 1.85-.759 1.85.844.346zm-.843-.346.759-1.85c-.565-.232-1.254-.36-1.988-.189-.742.174-1.309.6-1.714 1.085l1.535 1.282 1.534 1.283a.85.85 0 0 1-.445.245.8.8 0 0 1-.44-.006zm-1.408.328-1.535-1.282-.564.674 1.534 1.283 1.535 1.283.564-.675zm-.565.675-1.534-1.283-.564.675 1.534 1.283 1.534 1.283.565-.675zm-.564.675-1.534-1.283q-.059.07-.095.11l-.028.032-.008.009-.002.003.003-.004.012-.012a1.4 1.4 0 0 1 .229-.18 1.987 1.987 0 0 1 3.017 2.097 2 2 0 0 1-.06.2c-.036.103-.063.142-.012.047l-1.762-.948-1.76-.947a4 4 0 0 0-.228.49c-.005.015-.158.392-.126.868a2.012 2.012 0 0 0 2.58 1.79c.456-.134.755-.408.767-.419.094-.078.17-.156.22-.208a7 7 0 0 0 .321-.362zm-.24.071 1.762.948.325-.604-1.762-.948-1.761-.947-.325.604zm.325-.604 1.762.948.325-.604-1.762-.948-1.761-.947-.325.604zm.325-.604 1.762.948c-.086.158-.259.35-.515.46-.225.098-.37.072-.334.076l.245-1.985.245-1.985c-.518-.063-1.135-.04-1.745.224a2.92 2.92 0 0 0-1.42 1.315zm1.158-.5-.245 1.984.833.103.245-1.985.245-1.985-.833-.103zm.833.102-.245 1.985.833.103.245-1.985.244-1.985-.833-.103zm.833.103-.245 1.985c.82.1 1.643.038 2.435-.233l-.647-1.892-.647-1.893a1.4 1.4 0 0 1-.652.048zm1.543-.14.647 1.892.71-.243-.647-1.892-.647-1.893-.71.243zm.71-.243.647 1.892.71-.243-.647-1.892-.647-1.893-.71.243zm.71-.243.647 1.892a5.7 5.7 0 0 0 2.059-1.264l-1.367-1.46-1.366-1.46c-.244.228-.451.342-.62.4zm1.34-.832 1.366 1.46.63-.588-1.367-1.46-1.367-1.461-.63.589zm.629-.589 1.366 1.46.63-.588-1.367-1.46-1.367-1.46-.629.588zm.629-.589 1.366 1.46a.6.6 0 0 1-.135.092.8.8 0 0 1-.224.071c-.157.024-.224-.016-.153.01l.705-1.871.706-1.872c-.55-.206-1.186-.324-1.863-.22a3.3 3.3 0 0 0-1.769.87zm1.56-.238-.706 1.872.93.35.706-1.871.705-1.872-.93-.35zm.93.35-.706 1.872.93.35.706-1.871.705-1.872-.93-.35zm.93.35-.705 1.872c.097.037.09.043.03.006a1.3 1.3 0 0 1-.212-.163 1.8 1.8 0 0 1-.39-.542 1.88 1.88 0 0 1 .303-2.044c.154-.17.3-.265.373-.308.078-.046.135-.069.15-.075l.733 1.86.733 1.861c.191-.075.616-.256.973-.65a2.12 2.12 0 0 0 .36-2.334 2.4 2.4 0 0 0-.94-1.02 4 4 0 0 0-.703-.334zm.282.607-.733-1.861-.648.255.733 1.861.734 1.86.647-.255zm-.648.255-.733-1.86-.648.255.733 1.86.734 1.861.648-.255zm-.648.255-.733-1.86c-1.02.401-1.71 1.224-2.185 2.028l1.722 1.016 1.723 1.017c.118-.2.209-.307.258-.356.046-.045.032-.017-.051.016zm-1.196 1.184-1.722-1.016-.548.928 1.722 1.017 1.723 1.017.548-.929zm-.548.93-1.722-1.018-.548.93 1.722 1.016 1.722 1.016.549-.928zm-.548.928-1.722-1.017c-.072.12-.041.012.163-.098.109-.059.242-.104.39-.12a1 1 0 0 1 .336.022l-.505 1.935-.505 1.936a2.97 2.97 0 0 0 2.185-.254c.65-.35 1.086-.89 1.38-1.388zm-1.338.722.505-1.935-.79-.206-.504 1.935-.505 1.936.79.206zm-.79-.206.506-1.935-.79-.206-.505 1.935-.505 1.935.79.207zm-.789-.206.505-1.935c.09.023.45.152.69.58.109.192.148.37.16.496q.006.091 0 .136-.003.045-.005.047l-1.959-.404-1.958-.405c-.116.56-.146 1.34.278 2.094.444.788 1.17 1.166 1.784 1.327zm-.608-1.08 1.958.404.18-.875-1.958-.404-1.959-.404-.18.874zm.18-.875 1.959.404.18-.874-1.958-.405-1.96-.404-.18.874zm.18-.875 1.96.405a1 1 0 0 1-.03.097c-.02.055-.062.15-.137.264a1.67 1.67 0 0 1-1.011.69 1.58 1.58 0 0 1-.982-.076c-.14-.061-.192-.115-.148-.078l1.297-1.523 1.297-1.522a3.4 3.4 0 0 0-.843-.541 2.43 2.43 0 0 0-1.529-.156c-1.405.327-1.75 1.638-1.832 2.036zm.949-.22-1.297 1.522.768.654 1.297-1.523 1.296-1.523-.767-.653zm.768.653-1.297 1.523.768.654 1.296-1.523 1.297-1.523-.768-.654zm.767.654-1.296 1.523c.617.525 1.278.97 1.983 1.262l.765-1.848.765-1.848c-.207-.086-.514-.266-.92-.612zm1.452.937-.765 1.848.683.283.765-1.848.766-1.848-.684-.283zm.683.283-.765 1.848.684.283.765-1.848.765-1.848-.683-.283zm.684.283-.765 1.848q.582.24 1.176.563l.954-1.758.954-1.758a17 17 0 0 0-1.554-.743zm1.365.653-.954 1.758.68.37.955-1.759.953-1.758-.68-.37zm.68.37-.953 1.757.68.37.955-1.758.954-1.758-.681-.37zm.682.369-.954 1.758c.1.054.318.215.615.638l1.636-1.15 1.636-1.151c-.524-.745-1.171-1.414-1.98-1.853zm1.297 1.245-1.636 1.15.616.877 1.636-1.15 1.636-1.151-.616-.876zm.616.877-1.636 1.15.616.876 1.636-1.15 1.636-1.15-.616-.877zm.616.876-1.636 1.15s-.015-.021-.035-.062a1 1 0 0 1-.07-.2 1.36 1.36 0 0 1 .038-.747c.182-.538.563-.654.393-.575l.843 1.813.843 1.814c.552-.257 1.372-.771 1.71-1.769.366-1.08-.059-2.019-.45-2.575zm-.467 1.38-.843-1.814-1.084.503.843 1.814.843 1.814 1.084-.504zm-1.084.503-.843-1.814-1.083.504.843 1.813.843 1.814 1.083-.503zm-1.083.503-.843-1.813c-.48.223-1.449.767-1.72 1.925-.298 1.267.46 2.19.872 2.59l1.393-1.434 1.394-1.434c-.112-.11.433.347.235 1.192a1.4 1.4 0 0 1-.4.712c-.099.092-.154.107-.088.076zm-.298 1.268-1.393 1.434.786.764 1.393-1.434 1.394-1.434-.786-.765zm.786.764-1.393 1.434.786.764 1.394-1.434 1.394-1.435-.787-.764zm.787.764-1.394 1.434c.106.104.073.108.035 0a.7.7 0 0 1-.012-.422l1.92.562 1.919.562c.43-1.47-.204-2.725-1.075-3.57zm.548 1.574-1.919-.562-.237.81 1.919.563 1.92.562.237-.81zm-.237.81-1.92-.562-.237.81 1.92.563 1.919.562.237-.81zm-.237.811-1.92-.562a4.74 4.74 0 0 0 .023 2.772l1.91-.594 1.91-.594a.74.74 0 0 1-.004-.46zm.013 1.616-1.91.594.25.806 1.91-.594 1.91-.594-.25-.806zm.25.806-1.91.594.25.806 1.91-.594 1.91-.594-.25-.806zm.25.806-1.91.594a.9.9 0 0 1-.033-.287c.006-.133.037-.261.087-.373.097-.215.21-.263.115-.199l1.117 1.66 1.116 1.659c.489-.329.998-.805 1.303-1.485a3.03 3.03 0 0 0 .116-2.163zm-.624 1.395-1.117-1.66-.875.59 1.116 1.659 1.117 1.659.875-.589zm-.876.589-1.116-1.66-.875.59 1.116 1.659 1.117 1.659.875-.589zm-.875.589-1.116-1.66c-.31.209-.831.583-1.16 1.13a2.25 2.25 0 0 0-.285 1.629 2.22 2.22 0 0 0 1.035 1.433l1.034-1.712 1.033-1.713c.23.14.669.495.81 1.157a1.76 1.76 0 0 1-.197 1.265 1.3 1.3 0 0 1-.183.236l.01-.008.028-.022q.037-.029.108-.076zm-.492.82-1.034 1.712.383.231 1.034-1.712 1.033-1.713-.383-.23zm.383.23-.849 1.812.774.362.849-1.81.848-1.812-.774-.362zm.774.363-1.994-.158-.008.1 1.994.158 1.993.158.008-.1z"/><path fill="var(--stroke-0, #91ccff)" d="M20.845 52.925a2 2 0 0 0-3.818-1.192l1.91.596zm-1.939-.5-1.909-.597-.077.248-.012.26zm-.856 3.561-1.213-1.59zm-1.446 1.103-1.213-1.59zm-.075 3.135-1.94.486zm.073 3.182-1.996-.123zm-1.23 1.964-1.42-1.409zm-.591.596-1.42-1.41zm-.08 4.09 1.359-1.468zm.498.461-1.36 1.467zm.498.462-1.36 1.467zm.19.514-.333-1.972zm-.31.052.019 2 .157-.002.156-.026zm-.601.005-.02-2-1.664.016-.287 1.64zm-1.988-.245a2 2 0 0 0 3.94.688l-1.97-.344zm5.948-18.976-1.91-.596-.029.095 1.91.596 1.909.596.03-.096zm-.03.095-1.998-.089-.067 1.506 1.999.088 1.998.089.066-1.505zm-.066 1.505-1.998-.088c-.016.36-.069.555-.1.638-.027.07-.016.002.095-.083l1.213 1.59 1.213 1.59c1.189-.907 1.52-2.342 1.575-3.558zm-.79 2.057-1.213-1.59-.723.552 1.213 1.59 1.213 1.59.723-.552zm-.723.552-1.213-1.59-.723.551 1.213 1.59 1.213 1.59.723-.551zm-.723.551-1.213-1.59a3.4 3.4 0 0 0-1.157 1.544 3.3 3.3 0 0 0-.076 1.945l1.94-.486 1.94-.487a.7.7 0 0 1-.04.379.8.8 0 0 1-.117.217c-.038.05-.066.07-.064.068zm-.507 1.413-1.94.486.216.861 1.94-.486 1.94-.487-.216-.861zm.216.86-1.94.487.216.861 1.94-.486 1.94-.487-.216-.861zm.216.862-1.94.486c.102.404.13.742.112 1.025l1.997.123 1.996.124a7.4 7.4 0 0 0-.225-2.245zm.169 1.634-1.997-.123-.047.774 1.996.123 1.996.123.048-.773zm-.048.774-1.996-.123-.048.773 1.996.124 1.996.123.048-.774zm-.048.774-1.996-.123-.001.01v-.003l.001-.001-.002.004-.009.014-.051.059 1.42 1.409 1.418 1.409c.706-.71 1.152-1.613 1.216-2.655zm-.639 1.369-1.42-1.41-.59.596 1.419 1.41 1.419 1.409.591-.596zm-.591.595-1.42-1.409-.59.596 1.419 1.409 1.419 1.409.591-.596zm-.591.596-1.42-1.41c-.724.73-1.173 1.676-1.168 2.772l2-.009 2-.008q0 .008-.005.037a.3.3 0 0 1-.016.05l-.008.018a.3.3 0 0 1 .036-.041zm-.588 1.353-2 .008.003.759 2-.009 2-.008-.004-.758zm.003.758-2 .009.003.758 2-.009 2-.008-.003-.758zm.003.758-2 .009c.004.988.354 1.948 1.142 2.678l1.36-1.467 1.359-1.467a.5.5 0 0 1 .116.17c.028.069.023.102.023.069zm.501 1.22-1.359 1.467.498.462 1.36-1.467 1.36-1.467-.5-.462zm.499.462-1.36 1.467.499.462 1.36-1.467 1.359-1.467-.499-.462zm.498.462-1.36 1.467c.045.041.043.043.016.01a1.4 1.4 0 0 1-.236-.427 1.9 1.9 0 0 1 .231-1.73 1.86 1.86 0 0 1 1.206-.779l.332 1.973.332 1.972a2.14 2.14 0 0 0 1.415-.883c.54-.776.37-1.575.238-1.934a2.5 2.5 0 0 0-.432-.737 4 4 0 0 0-.382-.4zm.19.514-.333-1.972-.309.052.332 1.972.332 1.972.31-.052zm-.31.052-.019-2-.601.005.019 2 .018 2 .602-.005zm-.601.005-1.97-.343-.018.098 1.97.344 1.97.344.018-.099z"/><defs><radialGradient id="a" cx="0" cy="0" r="1" gradientTransform="rotate(90.774 .272 40.261)scale(39.4703 40.537)" gradientUnits="userSpaceOnUse"><stop stop-color="#fffed8"/><stop offset="1" stop-color="#fcf3a6"/></radialGradient></defs></svg>