<svg xmlns="http://www.w3.org/2000/svg" fill="none" overflow="visible" preserveAspectRatio="none" style="display:block" viewBox="0 0 3.044 4.294"><path fill="var(--fill-0, white)" d="m1.529.153.333 1.55H2.94l-.872.958.333 1.55-.872-.958-.872.957.333-1.55-.872-.957h1.078z"/><path fill="var(--stroke-0, white)" d="M1.578.258 1.442.32zm.024.052.136-.063zm.027.11-.15.006zm.003.056.15-.006zm.002.057-.15.007zm.02.111.143-.047zm.018.054L1.53.745zm.018.054-.143.047zm.024.11-.149.017zm.014.112.149-.019zm.001.114-.15-.014zm-.011.118-.15-.014zm.01.113.144-.04zm.03.108-.144.04zm.033.108-.143.047zm.11.171-.023.148zm.232 0-.066-.134zm.056-.027-.066-.134zm.057-.028.066.135zm.225.045-.06.138zm.112.03.017-.148zm.056.007-.016.149zm.057.006-.017.15zm.096.002.016.15zm.04-.004.016.149zm.04-.004-.015-.15zm.005.039-.115-.096zm-.036.043.115.096zm-.105.133-.122-.087zm-.032.046.122.087zm-.033.046.122.087zm-.09.07-.057-.139zm-.116.047.056.139zm-.069.09-.148-.024zm-.021.133.148.023zm-.104.133.087.122zm-.047.033-.087-.122zm-.05.072-.15-.011zm-.003.039.15.01zm-.003.038-.15-.011zm.007.094.148-.024zm.018.111-.148.024zm.013.113.15-.011zm.004.056-.15.01zm.004.057.15-.01zm-.015.118.143.044zm-.038.123-.143-.044zm.011.113.13-.077zm.06.102-.128.077zm.055.103-.136.063zm.048.105.137-.063zm.041.106-.144.044zm.033.109.143-.044zm-.004.077.113.098zm-.02.023-.114-.098zm-.02.023L2.25 4.03zm-.045-.03.136-.063zm-.05-.107-.136.063zm-.085-.074.05-.142zm-.121-.043-.05.142zm-.08-.079-.142.047zm-.039-.117.143-.047zm-.058-.098-.107.105zm-.04-.04.107-.106zm-.04-.04-.106.104zm-.097-.064-.056.139zm-.058-.024-.056.14zm-.058-.023.057-.14zm-.081-.026-.014.15zm-.048-.004.014-.15zm-.07.032.09.12zm-.178.142-.106-.106zm-.04.04.106.106zm-.04.04.106.106zm-.072.086.122.086zm-.066.092-.122-.086zm-.084.228L.77 3.978zm-.08.08.043.143zm-.125.037-.044-.143zm-.042-.012.124.085zm.021-.03.124.084zm.022-.032.123.085zm.03-.086L.593 3.95zm.035-.223.149.017zm.006-.056-.15-.017zm.006-.056.15.016zm.065-.217-.141-.051zm.006-.114.146-.033zM.83 3.19l-.146.033zm.028-.11-.115-.097zm.082-.097.115.097zm.042-.106-.15-.002zm0-.057.15.001zm.001-.058-.15-.002zm-.02-.109.138-.057zM.92 2.55l-.139.058zm-.059-.094-.113.1zm-.037-.042-.113.099zm-.037-.042.113-.1zM.7 2.3l-.073.131zm-.103-.058-.073.131zm-.092-.069-.106.106zm-.079-.08L.32 2.2zm-.069-.089-.128.077zm-.059-.098-.129.077zm-.064-.097-.121.089zm-.07-.095.121-.088zm.022-.045-.007.15zm.112.005.007-.15zm.113.019.04-.145zm.45.014-.063.136zm.056.026-.063.136zm.056.026.064-.136zm.107-.007.083.125zm.101-.067-.083-.125zm.056-.09.15.014zm.01-.113.15.014zm.033-.108-.134-.068zm.026-.052.134.069zm.028-.397.147.028zm.02-.11L1.206.787zm.022-.11L1.228.673zm.023-.11L1.251.563zm.019-.112-.149-.02zm.015-.112.149.02zm.025-.097L1.319.216zm.017-.042.139.058zm.018-.041.138.058zm.022-.04-.031.146zm.01.001.032-.146zm.03.054-.137.063zm.024.052L1.442.32l.024.053.136-.064.136-.063-.024-.053zm.024.052-.136.064a.14.14 0 0 1 .013.052L1.63.42l.15-.006a.4.4 0 0 0-.041-.166zm.027.11-.15.006.003.057.15-.007.15-.006L1.78.413zm.003.056-.15.007.002.057.15-.007.15-.006L1.781.47zm.002.057-.15.007a.6.6 0 0 0 .028.151l.142-.047.143-.047a.3.3 0 0 1-.013-.07zm.02.111-.142.047.018.054.142-.047.143-.047-.018-.054zm.018.054L1.53.745l.017.054.143-.047.142-.047L1.815.65zm.018.054-.143.047a.4.4 0 0 1 .018.08l.15-.018.148-.018a1 1 0 0 0-.03-.138zm.024.11-.149.017.007.056.15-.018L1.87.9 1.863.843zm.007.055-.149.018.007.057.149-.018.149-.019L1.87.9zm.007.057L1.58.992a.4.4 0 0 1 0 .082l.15.014.15.015a.7.7 0 0 0-.002-.148zm.001.114-.15-.014-.005.059.15.014.149.014.005-.058zm-.005.059-.15-.014-.005.059.149.014.15.014.005-.059zm-.006.059-.15-.014a.5.5 0 0 0 .015.167l.145-.04.144-.04a.2.2 0 0 1-.005-.059zm.01.113-.145.04.015.055.145-.041.144-.04-.015-.055zm.015.054-.145.04.016.055.144-.04.145-.041-.016-.055zm.015.054-.144.04q.016.058.034.115l.143-.047.143-.046-.031-.102zm.033.108-.143.047.018.053.142-.046.143-.046-.017-.054zm.017.054-.142.046.017.054.143-.046.142-.047-.017-.053zm.018.054-.143.046a.24.24 0 0 0 .195.165l.024-.148.024-.148q.005 0 .024.012a.1.1 0 0 1 .018.026zm.076.063-.024.148.058.01.024-.148.024-.148-.058-.01zm.058.01-.024.148.058.01.025-.149.024-.148-.059-.01zm.059.01-.025.147q.109.017.206-.032l-.067-.134-.066-.135q-.016.008-.024.005zm.114-.02.067.135.056-.027-.067-.135-.066-.134-.056.027zm.056-.027.067.135.056-.028-.066-.135-.067-.134-.056.028zm.057-.028.066.135H2.3l.06-.138.059-.138a.28.28 0 0 0-.239.007zm.112-.003-.06.138.057.024.06-.138.059-.138-.056-.024zm.056.024-.059.138.056.024.06-.138.059-.137-.056-.025zm.057.024-.06.138q.075.033.156.042l.016-.15.017-.148a.2.2 0 0 1-.07-.02zm.112.03-.016.15.056.006.016-.15.017-.148-.056-.006zm.056.007-.016.149.056.006.017-.149.016-.149-.056-.006zm.057.006-.017.15a.6.6 0 0 0 .129.001l-.016-.149-.015-.15a.3.3 0 0 1-.065-.001zm.096.002.016.15.04-.005-.016-.15-.015-.148-.04.004zm.04-.004.016.149.04-.004-.015-.15-.016-.149-.04.005zm.04-.004.016.149s-.022.003-.05-.007a.14.14 0 0 1-.093-.118c-.005-.043.012-.072.013-.075l.004-.006.115.096.115.096a.3.3 0 0 0 .03-.044.17.17 0 0 0 .021-.1.16.16 0 0 0-.104-.132.2.2 0 0 0-.082-.009zm.005.039-.115-.096-.036.043.115.096.115.096.036-.043zm-.036.043-.115-.096-.036.044.115.095.116.096.035-.043zm-.036.043-.115-.095-.076.098.122.087.123.087q.03-.042.062-.08zm-.069.09-.122-.087-.033.046.123.087.122.087.033-.046zm-.032.046-.123-.087-.033.047.123.086.122.087.033-.046zm-.033.046-.123-.086a.05.05 0 0 1-.024.017l.056.14.057.138a.35.35 0 0 0 .156-.122zm-.09.07-.057-.139-.058.024.056.139.057.139.058-.024zm-.059.024-.056-.14-.058.024.057.14.056.138.058-.023zm-.057.023-.057-.139a.26.26 0 0 0-.16.205l.148.024.148.024-.006.011a.04.04 0 0 1-.017.014zm-.069.09-.148-.024-.01.066.148.024.148.024.01-.066zm-.01.066-.148-.024-.011.067.148.024.148.023.01-.066zm-.011.067-.148-.024-.002.007.005-.006.087.122.088.123a.3.3 0 0 0 .118-.199zm-.058.1-.087-.123-.046.034.087.122.087.122.047-.033zm-.046.033-.087-.122-.047.033.087.122.087.122.047-.033zm-.047.033-.087-.122a.25.25 0 0 0-.113.183l.15.011.15.011a.1.1 0 0 1-.013.037q-.007.008 0 .002zm-.05.072-.15-.011-.002.038.15.012.149.01.003-.038zm-.003.039-.15-.012-.002.039.15.011.149.011.003-.038zm-.003.038-.15-.011a.6.6 0 0 0 .009.13l.148-.025.148-.024a.3.3 0 0 1-.005-.059zm.007.094-.148.024.009.056.148-.024.148-.024-.01-.056zm.009.056-.148.024.009.055.148-.024.148-.024-.01-.055zm.009.055-.148.024q.008.05.011.1l.15-.011.15-.011a1 1 0 0 0-.015-.126zm.013.113-.15.01.004.057.15-.01.15-.012-.005-.056zm.004.056-.15.01.004.058.15-.011.15-.01-.005-.058zm.004.057-.15.01a.2.2 0 0 1-.008.064l.143.044.143.044a.5.5 0 0 0 .022-.173zm-.015.118L2.056 3.2l-.02.062.144.044.143.044.02-.062zm-.02.062-.142-.044-.02.061.144.044.143.045.02-.062zm-.018.061-.143-.044a.28.28 0 0 0 .025.234l.13-.077.128-.077.002.008q0 .007.001 0zm.011.113-.129.077.03.05.13-.076.128-.077-.03-.05zm.03.051-.129.077.03.05.13-.076.129-.076-.03-.051zm.03.051-.128.077a1 1 0 0 1 .047.09l.136-.064.136-.062a1 1 0 0 0-.061-.117zm.055.103-.136.063.024.053.136-.063.136-.063-.024-.052zm.024.053-.136.063.024.052.136-.063.137-.063-.025-.052zm.024.052-.136.063a1 1 0 0 1 .033.087l.144-.044.143-.043a1 1 0 0 0-.047-.126zm.041.106-.144.044.017.054.143-.043.144-.044-.017-.054zm.016.055-.143.043.016.054.144-.043.143-.044-.016-.054zm.017.054-.144.043c.003.008 0 .006.001-.005 0-.011.005-.036.026-.06l.113.099.113.098c.068-.078.048-.174.034-.219zm-.004.077-.113-.098-.02.023.113.098.113.098.02-.023zm-.02.023-.114-.098-.02.023.113.098.114.099.02-.024zm-.02.023L2.25 4.03a.136.136 0 0 1 .176-.022.1.1 0 0 1 .028.027q.005.006 0 0l-.135.063-.137.063c.01.02.032.066.076.096a.164.164 0 0 0 .219-.03zm-.045-.03.136-.063-.025-.053-.136.063-.136.063.024.053zm-.025-.053.136-.063-.025-.054-.136.063-.136.063.025.054zM2.27 3.99l.136-.063a.3.3 0 0 0-.172-.153l-.05.142-.049.141q.007.003.003 0l-.003-.002-.001-.002zm-.085-.074.05-.142-.061-.021-.05.141-.049.142.06.021zm-.06-.022.049-.141-.06-.021-.05.141-.05.142.061.021zm-.061-.02.05-.142q-.004-.001.006.005l.006.01-.142.047-.142.047a.27.27 0 0 0 .173.174zm-.08-.08.142-.047-.019-.059-.142.048-.143.047.02.058zm-.02-.058.143-.048-.02-.058-.142.047-.142.047.02.059zm-.019-.059.143-.047a.4.4 0 0 0-.095-.157l-.107.106-.106.105a.1.1 0 0 1 .023.04zm-.058-.098.106-.106-.039-.04-.107.105-.107.106.04.04zm-.04-.04.107-.106-.04-.04-.106.105-.107.105.04.04zm-.04-.04.107-.106a.4.4 0 0 0-.148-.097l-.056.139-.056.139a.1.1 0 0 1 .047.03zm-.097-.064.056-.14-.058-.023-.056.14-.056.138.058.024zm-.058-.024.056-.139-.057-.023-.057.139-.056.14.058.022zm-.058-.023.057-.14a.5.5 0 0 0-.125-.035l-.013.15-.014.149-.006-.001.007.002.038.014zm-.081-.026.014-.149-.024-.002-.014.15-.014.149.024.002zm-.024-.002.014-.15-.024-.001-.014.149-.014.15.024.002zm-.024-.002.014-.15a.2.2 0 0 0-.106.02.4.4 0 0 0-.068.042l.09.12.09.12.013-.009-.012.004a.1.1 0 0 1-.035.002zm-.07.032-.09-.12-.046.034.09.12.09.12.045-.034zm-.046.034-.09-.12-.046.034.09.12.09.12.046-.033zm-.046.034-.09-.12a1 1 0 0 0-.102.088l.106.106.106.107a1 1 0 0 1 .07-.06zm-.086.074-.106-.106-.04.04.106.106.106.106.04-.04zm-.04.04-.106-.106-.04.04.106.106.106.106.04-.04zm-.04.04-.106-.107a1 1 0 0 0-.089.106l.123.087.122.086.056-.066zm-.072.086-.123-.087-.033.047.123.086.122.087.033-.047zm-.033.046L.909 3.66l-.032.046.122.086.123.087.032-.046zm-.033.046-.122-.086a.5.5 0 0 0-.072.152l.144.041.144.041a.2.2 0 0 1 .029-.061zm-.05.107-.144-.041-.017.06.144.041.144.042.017-.06zm-.017.06-.144-.04-.017.06.144.04.144.042.017-.06zm-.017.06-.144-.04q0-.004.01-.016c.006-.006.012-.008.01-.007l.044.143.043.144a.26.26 0 0 0 .181-.182zm-.08.08L.79 3.955l-.062.019.043.143.044.144.062-.02zm-.063.02L.73 3.973l-.063.019.044.143.043.144.063-.02zm-.062.018-.044-.143-.006.001h.013q.01-.001.037.005a.14.14 0 0 1 .103.14.14.14 0 0 1-.021.07l-.124-.085-.124-.085c-.006.01-.03.045-.031.095a.156.156 0 0 0 .113.153.2.2 0 0 0 .08.004l.047-.011zm-.042-.012.124.085.021-.03-.124-.086-.123-.085-.022.031zm.021-.03.124.084.021-.031-.123-.085-.124-.085-.021.031zm.022-.032.123.085A.4.4 0 0 0 .89 4l-.148-.024-.148-.025-.005.024-.001.002zm.03-.086L.89 4l.01-.055-.15-.025-.148-.025-.01.056zm.01-.056.148.025.009-.056-.148-.024-.148-.025-.01.055zm.009-.055.148.024q.01-.06.017-.12l-.15-.016-.148-.017-.015.104zm.016-.112.149.017.006-.056-.15-.017-.148-.017-.006.056zm.006-.056.149.017.006-.057-.149-.016-.149-.017-.006.056zm.006-.056.15.016a.3.3 0 0 1 .017-.075l-.14-.051-.142-.051a.6.6 0 0 0-.034.144zm.026-.11.141.051.02-.053-.142-.051-.14-.052-.02.054zm.02-.053.14.051.02-.053-.141-.052-.141-.051-.02.053zm.019-.054.14.052a.35.35 0 0 0 .012-.199l-.146.033-.147.034a.05.05 0 0 1 0 .029zm.006-.114.146-.033-.014-.06-.146.033-.146.033.013.06zm-.014-.06.146-.033-.014-.06-.146.032-.146.034.014.06zM.83 3.19l.146-.034v.013l-.004.008-.114-.097-.115-.097a.27.27 0 0 0-.06.24zm.028-.11.114.097.041-.048L.9 3.032l-.114-.097-.042.048zm.04-.048.115.097.042-.049-.115-.097-.114-.097-.041.049zm.042-.049.115.097a.3.3 0 0 0 .077-.201l-.15-.002-.15-.002v.002l-.006.009zm.042-.106.15.002V2.82l-.15-.001-.15-.002v.057zm0-.057.15.001.001-.057-.15-.002-.15-.002v.058zm.001-.058.15.002a.4.4 0 0 0-.032-.168l-.138.057-.139.058q.01.021.01.05zm-.02-.109.138-.057-.021-.052-.139.058-.138.057.021.052zm-.022-.051.139-.058-.022-.051-.138.057-.139.058.022.051zm-.02-.052.138-.057a.5.5 0 0 0-.084-.136l-.113.1-.113.098a.2.2 0 0 1 .033.053zm-.059-.094.113-.099-.037-.042-.113.099-.113.099.037.042zm-.037-.042.113-.099-.037-.042-.113.099-.113.098.037.043zm-.037-.042.113-.1a.5.5 0 0 0-.128-.103L.699 2.3l-.073.131q.03.018.05.04zM.7 2.3l.074-.13-.052-.03-.073.131-.074.131.052.03zm-.051-.029.073-.13-.052-.03-.073.131-.073.131.051.03zm-.052-.029.073-.13a.3.3 0 0 1-.058-.044l-.107.105-.106.106a.6.6 0 0 0 .125.094zm-.092-.069.107-.105-.04-.04-.106.105-.107.106.04.04zm-.04-.04.108-.105-.04-.04-.107.105L.32 2.2l.04.04zm-.039-.04.107-.105a.3.3 0 0 1-.047-.061l-.129.077-.128.077a.6.6 0 0 0 .09.118zm-.069-.089.129-.077-.03-.05-.128.078-.129.077.03.05zm-.03-.049.13-.077-.03-.05-.129.078-.129.077.03.05zm-.029-.05.129-.076a1 1 0 0 0-.072-.108l-.121.088-.121.089q.031.042.056.085zM.233 1.81l.12-.088-.034-.048-.121.089-.121.088.035.048zm-.035-.047.121-.089-.035-.047-.12.088-.122.089.035.047zm-.035-.048.121-.088c-.001-.002.005.005.01.019a.13.13 0 0 1-.007.1.13.13 0 0 1-.102.074H.178l.007-.15.006-.15c-.017 0-.043 0-.072.009a.17.17 0 0 0-.103.087.17.17 0 0 0-.006.127.2.2 0 0 0 .032.061zm.022-.045-.007.15.056.003.007-.15.007-.15L.19 1.52zm.056.003-.007.15.057.002.006-.15.007-.15-.056-.002zm.056.002-.006.15a.4.4 0 0 1 .078.013l.04-.144.041-.145a.7.7 0 0 0-.146-.023zm.113.019-.04.144.056.016.04-.145.04-.144-.056-.016zm.056.015-.04.145.056.016.04-.145.04-.144-.056-.016zm.056.016-.04.145a.36.36 0 0 0 .191.001l-.038-.145-.038-.145a.1.1 0 0 1-.034 0zm.113.001.038.145.056-.015-.038-.145-.038-.145-.056.015zM.69 1.71l.038.145.056-.015-.038-.145L.71 1.55l-.056.015zm.056-.015.038.145h.003l.009.003.063-.136.063-.136a.3.3 0 0 0-.214-.02zm.113.012-.063.136.056.026.063-.136.063-.136-.056-.026zm.056.026-.063.136.056.026.063-.136.064-.136-.057-.026zm.056.026-.063.136a.25.25 0 0 0 .253-.018l-.083-.125-.083-.125.02-.006q.018 0 .02.002zm.107-.007.083.125.05-.034-.082-.125-.083-.125-.05.034zm.05-.034.083.125.05-.033-.082-.125-.083-.125-.05.033zm.051-.033.083.125a.27.27 0 0 0 .122-.2l-.149-.015-.15-.014q0-.004.006-.015l.005-.006zm.056-.09.15.014.005-.056-.15-.014-.149-.015-.005.057zm.005-.056.15.014.005-.057-.15-.014-.148-.014-.006.056zm.006-.057.15.014a.2.2 0 0 1 .015-.053l-.133-.069-.134-.068a.5.5 0 0 0-.047.162zm.032-.108.133.069.027-.052-.134-.069-.133-.068-.027.052zm.026-.052.134.069.026-.052-.133-.069-.133-.068-.027.052zm.027-.052.133.069a.33.33 0 0 0 .033-.202l-.148.022-.149.023a.03.03 0 0 1-.002.02zm.018-.11.148-.023-.01-.06-.147.023-.149.022.01.06zm-.01-.06.149-.023-.01-.06-.148.023-.148.023.01.06zm-.009-.06.149-.022a.2.2 0 0 1 0-.065L1.333.925 1.185.898a.5.5 0 0 0-.002.165zm.002-.115.147.028.01-.055L1.344.87 1.196.843l-.01.055zm.01-.055.147.028.01-.056-.147-.027-.147-.028-.01.056zm.01-.055L1.5.842l.02-.107-.146-.03-.147-.031-.022.113zm.022-.11.147.03.011-.055-.146-.03L1.24.618l-.012.055zm.012-.056.146.03.012-.054-.147-.03L1.25.564l-.011.055zm.011-.055.147.03q.012-.06.02-.12l-.148-.02-.149-.02q-.006.05-.017.1zm.019-.11.149.02.007-.057-.149-.02-.148-.02-.008.056zm.007-.057.15.02.007-.056-.149-.02-.149-.02-.007.056zm.008-.056.149.02a.2.2 0 0 1 .014-.06L1.457.275 1.319.216a.5.5 0 0 0-.036.135zm.025-.097.138.058.018-.042-.139-.058-.138-.058-.017.042zm.017-.042.139.058.018-.04-.138-.06-.138-.057-.018.041zm.018-.041.138.058.008-.017-.003.004-.009.012a.15.15 0 0 1-.143.048L1.514.15l.032-.147a.15.15 0 0 0-.15.053l-.021.031-.021.046zm.022-.04-.031.146h.005l.031-.146.032-.147h-.005zm.005 0-.031.147h.005l.031-.146.032-.146L1.55.004zm.005.001L1.493.3a.15.15 0 0 1-.088-.057L1.402.238l.015.03.136-.062.136-.064L1.65.07 1.633.048c-.004-.003-.03-.032-.077-.042zm.03.054-.137.063.025.052.136-.063.136-.064-.025-.052z"/></svg>